<?xml version="1.0" encoding="utf-8"?>
<!-- Generator: Adobe Illustrator 16.0.0, SVG Export Plug-In . SVG Version: 6.00 Build 0)  -->
<!DOCTYPE svg PUBLIC "-//W3C//DTD SVG 1.1//EN" "http://www.w3.org/Graphics/SVG/1.1/DTD/svg11.dtd">
<svg version="1.1" id="Layer_1" xmlns="http://www.w3.org/2000/svg" xmlns:xlink="http://www.w3.org/1999/xlink" x="0px" y="0px"
	 width="612px" height="792px" viewBox="0 0 612 792" enable-background="new 0 0 612 792" xml:space="preserve">
<g>
	<ellipse fill="none" stroke="#710F12" stroke-width="20" stroke-miterlimit="10" cx="306" cy="397.5" rx="362.039" ry="337.29"/>
</g>
<rect x="83" y="239" fill="none" width="469" height="319"/>
<g>
	<g>
		<path fill-rule="evenodd" clip-rule="evenodd" fill="#FFFFFF" d="M139.284,254.494c0-20.572,0-41.145,0-61.717
			c44.575,0,89.145,0,133.72,0c0,16.725,0,33.455,0,50.371c11.717,0,19.779,0,28.613,0c1.587-10.347,3.034-19.784,4.365-28.438
			c58.206,0,114.277,0,170.324,0c0,27.87,0,54.309,0,82.435c-31.095,0-59.778,0-90.512,0c0.829,18.046,1.567,34.108,2.205,47.96
			c22.114,0,40.507,0,59.612,0c-0.467-6.665-0.788-11.311-1.09-15.62c-10.01-2.607-18.769-4.892-27.528-7.172
			c0.321-2.546,0.648-5.088,0.97-7.634c26.539,0,53.078,0,79.336,0c0-43.058,0-82.48,0-121.902
			c8.854-1.999,10.612,1.421,10.552,10.286c-0.481,68.573-0.266,137.15-0.266,205.723c-65.147,0-130.29,0-195.438,0
			c0-6.313,0-12.627,0-18.412c-12.656-2.09-21.822-3.602-30.994-5.113c0.025-1.959,0.05-3.918,0.075-5.877
			c30.989-1.024,61.978-2.049,91.088-3.013c0-42.597,0-81.25,0-121.877C294.958,254.494,217.119,254.494,139.284,254.494z"/>
		<path fill-rule="evenodd" clip-rule="evenodd" d="M139.284,254.494c77.834,0,155.674,0,235.034,0c0,40.627,0,79.281,0,121.877
			c-29.11,0.964-60.1,1.988-91.088,3.013c-0.025,1.959-0.05,3.918-0.075,5.877c9.171,1.512,18.337,3.023,30.994,5.113
			c0,5.785,0,12.099,0,18.412c-37.714,0-75.433,0-113.147,0c0-6.213,0-12.426,0-17.363c8.523-3.399,13.787-5.494,19.045-7.594
			c-0.563-1.969-1.13-3.933-1.697-5.901c-26.354,0-52.711,0-79.065,0C139.284,336.783,139.284,295.639,139.284,254.494z
			 M344.058,276.864c-60.637,0-116.542,0-174.151,0c1.075,28.141-1.391,54.575,1.381,78.693c60.441,0,116.347,0,172.77,0
			C344.058,328.602,344.058,303.448,344.058,276.864z"/>
		<path fill-rule="evenodd" clip-rule="evenodd" d="M499.3,192.777c0,39.422,0,78.844,0,121.902c-26.258,0-52.797,0-79.336,0
			c-0.321,2.546-0.648,5.088-0.97,7.634c8.76,2.28,17.519,4.565,27.528,7.172c0.302,4.31,0.623,8.955,1.09,15.62
			c-19.105,0-37.498,0-59.612,0c-0.638-13.852-1.376-29.914-2.205-47.96c30.733,0,59.417,0,90.512,0c0-28.126,0-54.564,0-82.435
			c-56.047,0-112.118,0-170.324,0c-1.331,8.654-2.777,18.091-4.365,28.438c-8.834,0-16.896,0-28.613,0c0-16.916,0-33.646,0-50.371
			C348.438,192.777,423.866,192.777,499.3,192.777z"/>
		<path fill-rule="evenodd" clip-rule="evenodd" fill="#FFFFFF" d="M139.284,377.928c26.354,0,52.711,0,79.065,0
			c0.567,1.969,1.135,3.933,1.697,5.901c-5.258,2.1-10.522,4.194-19.045,7.594c0,4.938,0,11.15,0,17.363
			c-20.572,0-41.145,0-61.717,0C139.284,398.5,139.284,388.214,139.284,377.928z"/>
		<path fill-rule="evenodd" clip-rule="evenodd" fill="#FFFFFF" d="M344.058,276.864c0,26.584,0,51.737,0,78.693
			c-56.423,0-112.329,0-172.77,0c-2.772-24.118-0.306-50.552-1.381-78.693C227.515,276.864,283.421,276.864,344.058,276.864z"/>
	</g>
</g>
<rect x="172" y="512.5" fill="none" width="270" height="91"/>
<text transform="matrix(1 0 0 1 185.1499 570.7197)" font-family="'MyriadPro-Bold'" font-size="82">Admin</text>
</svg>
