<?xml version="1.0" standalone="no"?>
<!DOCTYPE svg PUBLIC "-//W3C//DTD SVG 20010904//EN"
 "http://www.w3.org/TR/2001/REC-SVG-20010904/DTD/svg10.dtd">
<svg version="1.0" xmlns="http://www.w3.org/2000/svg"
 width="80.000000pt" height="80.000000pt" viewBox="0 0 196.000000 192.000000"
 preserveAspectRatio="xMidYMid meet">

<g transform="translate(0.000000,192.000000) scale(0.100000,-0.100000)"
fill="#626464" stroke="none">
<path d="M0 960 l0 -960 980 0 980 0 0 960 0 960 -980 0 -980 0 0 -960z m1650
81 l0 -530 -227 -1 c-125 0 -231 -4 -235 -8 -5 -5 -16 -43 -25 -86 -13 -62
-14 -79 -4 -85 7 -5 56 -11 109 -14 148 -10 208 -33 167 -64 -15 -10 -101 -13
-434 -13 -410 0 -497 6 -488 33 6 19 75 38 162 43 128 8 128 9 120 52 -3 20
-14 61 -22 90 l-17 52 -218 0 -218 0 0 530 0 530 665 0 665 0 0 -529z"/>
<path d="M450 1055 l0 -385 545 0 545 0 0 385 0 385 -545 0 -545 0 0 -385z
m630 350 c16 -20 36 -19 44 1 9 23 31 11 31 -17 0 -19 6 -25 28 -27 30 -4 33
-12 15 -43 -11 -17 -10 -22 4 -33 21 -15 11 -33 -22 -38 -19 -2 -24 -8 -23
-25 3 -25 -25 -40 -33 -18 -8 19 -40 19 -48 0 -3 -9 -12 -12 -21 -9 -9 4 -14
13 -10 22 8 21 -12 41 -35 35 -21 -6 -29 20 -10 32 6 3 10 15 10 26 0 10 -4
19 -10 19 -24 0 -8 29 18 32 19 2 27 9 28 23 2 41 12 46 34 20z m-160 -169 c0
-30 26 -41 55 -22 21 14 25 14 36 0 9 -11 9 -18 1 -26 -21 -21 -14 -56 11 -60
30 -4 38 -48 8 -48 -29 0 -42 -29 -25 -56 13 -18 12 -23 -1 -34 -13 -10 -18
-10 -33 3 -21 19 -52 5 -52 -23 0 -30 -38 -26 -50 5 -10 27 -38 33 -58 13 -10
-10 -15 -10 -22 2 -6 8 -7 22 -4 30 6 18 7 20 5 42 0 9 -11 18 -23 20 -33 4
-35 36 -4 44 30 7 40 28 24 54 -18 28 4 50 32 32 25 -15 47 -6 54 24 9 33 46
33 46 0z m-269 -347 c12 -24 59 -158 59 -171 0 -19 -22 -6 -31 20 -7 22 -15
27 -37 26 -15 -1 -33 -3 -40 -3 -7 -1 -17 -12 -22 -26 -5 -14 -14 -25 -20 -25
-13 0 -14 -4 14 76 47 136 54 145 77 103z m185 11 c40 -15 53 -39 54 -92 0
-40 -4 -50 -31 -72 -21 -18 -42 -26 -69 -26 l-39 0 -3 90 c-2 50 -1 95 0 100
5 13 54 13 88 0z m141 -2 c5 -7 20 -41 33 -75 14 -35 27 -63 30 -63 4 0 19 33
36 73 22 55 34 72 49 72 19 0 20 -7 20 -94 0 -65 -4 -96 -12 -98 -9 -3 -13 19
-15 78 l-3 82 -33 -82 c-19 -46 -39 -80 -45 -78 -7 2 -25 39 -42 83 l-30 79
-3 -83 c-2 -56 -6 -82 -14 -80 -6 2 -11 24 -11 49 2 142 3 149 17 149 7 0 18
-6 23 -12z m243 -88 c0 -60 -4 -100 -10 -100 -6 0 -10 40 -10 100 0 60 4 100
10 100 6 0 10 -40 10 -100z m128 23 c21 -40 40 -72 45 -72 4 -1 7 33 7 74 0
43 4 75 10 75 6 0 10 -40 10 -100 0 -126 -13 -130 -72 -22 l-43 77 -5 -75 c-3
-43 -9 -74 -15 -72 -10 2 -15 138 -7 175 7 35 34 12 70 -60z"/>
<path d="M1078 1339 c-44 -25 -3 -93 42 -69 26 14 26 56 1 70 -23 12 -22 12
-43 -1z"/>
<path d="M860 1140 c-24 -24 -25 -38 -4 -68 18 -27 55 -29 77 -4 22 24 21 55
-1 75 -25 22 -48 21 -72 -3z"/>
<path d="M612 831 c-16 -52 -16 -51 18 -51 17 0 30 3 30 6 0 17 -24 84 -30 84
-4 0 -12 -17 -18 -39z"/>
<path d="M770 810 l0 -80 28 0 c42 0 63 21 69 67 5 35 2 45 -20 67 -15 14 -38
26 -52 26 -25 0 -25 -1 -25 -80z"/>
</g>
</svg>
