<?xml version="1.0" encoding="utf-8"?>
<!-- Generator: Adobe Illustrator 16.0.0, SVG Export Plug-In . SVG Version: 6.00 Build 0)  -->
<!DOCTYPE svg PUBLIC "-//W3C//DTD SVG 1.1//EN" "http://www.w3.org/Graphics/SVG/1.1/DTD/svg11.dtd">
<svg version="1.1" id="Layer_1" xmlns="http://www.w3.org/2000/svg" xmlns:xlink="http://www.w3.org/1999/xlink" x="0px" y="0px"
	 width="612px" height="792px" viewBox="0 0 612 792" enable-background="new 0 0 612 792" xml:space="preserve">
<g>
	<path fill-rule="evenodd" clip-rule="evenodd" fill="#939598" d="M591.993,662.31c0,33.706-0.375,67.41,0.291,101.104
		c0.146,7.377-1.871,8.795-11.462,8.779c-183.19-0.281-366.382-0.281-549.575,0c-9.591,0.016-11.463-1.42-11.443-8.776
		c0.369-140.521,0.369-281.043,0-421.565c-0.02-7.357,1.852-8.792,11.443-8.778c183.192,0.283,366.384,0.41,549.575-0.191
		c13.928-0.045,11.141,5.012,11.144,10.682c0.04,86.827,0.027,173.653,0.027,260.479c-3.226,1.271-6.085,0.897-8.509-1.125
		c-10.072-21.407,0.479-43.527-3.256-65.269c-0.629-3.678-2.684-8.493-0.44-12.725c-2.452-17.896,4.106-35.893-0.841-53.757
		c-1.459-23.082,0.497-46.204-0.568-69.304c-2.165-17.224-7.672-20.846-30.831-21.843c-17.636-0.759-35.203-0.186-52.764,0.603
		c-30.394-0.286-60.816-2.512-91.246-0.154c-37.322,0.077-74.661-2.415-111.953,0.06c-33.629,2.825-67.167-4.137-100.818-0.81
		c-28.063,0.232-56.171-1.698-84.22,0.502c-17.095,1.744-34.354,0.415-51.498,1.429c-15.966,0.944-20.264,4.412-21.136,17.06
		c-0.922,13.397,0.301,26.798-0.267,40.179c-0.702,22.249,0.262,44.513-0.163,66.759c0.244,19.512,0.52,39.041,0.113,58.552
		c-0.517,14.522-0.27,29.059,0.47,43.604c1.768,15.256-5.733,31.081,4.556,45.788c5.148,9.559,17.652,7.263,25.959,7.162
		c15.861-0.194,31.764,0.154,47.633-0.395c26.097,1.479,52.224-0.918,78.33,0.05c9.825,1.941,20.717-1.765,30.021,3.2
		c11.614,11.878,1.848,25.855,6.435,38.471c-3.465,18.331-24.573,15.272-39.785,18.733c-6.456,1.473-15.937-2.661-15.773,7.103
		c6.472,12.799,21.373,11.004,34.201,11.245c46.746,0.885,93.519-0.335,140.284,0.641c91.369,38.594,192.141-0.968,229.014-67.507
		C578.131,666.541,577.968,657.249,591.993,662.31z"/>
	<path fill-rule="evenodd" clip-rule="evenodd" fill="#535353" d="M220.586,703.432c-8.072-11.982-1.497-24.969-4.36-37.306
		c-1.552-9.697,8.691-8.254,15.744-9.768c15.571-3.354,12.948-9.109,3.349-15.649c-8.613-8.543-21.161-7.196-32.661-7.337
		c-39.05-0.476-78.114,0.047-117.164-0.342c-8.471-0.087-21.283,2.862-18.977-10.028c5.056-4.189,11.834-5.141,18.726-5.857
		c20-2.637,40.095,0.074,60.101-0.571c23.567-2.966,47.263,0.595,70.936-0.653c17.476-0.92,30.051-5.757,34.038-19.82
		c3.566-9.005,16.531-15.068,13.534-26.087c-2.267-13.965,13.941-15.514,24.055-21.164c12.885-8.073,20.406-20.514,36.215-26.252
		c11.32-6.525,21.123-14.789,35.299-18.034c16.611,2.201,30.258-6.411,45.985-7.419c35.805-4.306,66.638,7.367,97.81,17.89
		c16.676,7.251,31.312,16.621,45.604,26.196c-0.646,7.689,10.486,9.084,13.337,14.933c0.601,2.745,0.531,5.442-0.893,8.053
		c-6.369,6.483-15.56,2.813-23.452,3.83c-3.678-0.004-7.355-0.015-11.035-0.259c-14.407-3.919-20.947-15.084-33.179-21.044
		c-2.544-1.245,0.217,0.671-1.912-0.895c-45.802-33.642-94.208-27.275-143.646-5.594c-1.917,0.84-3.8,1.722-5.682,2.584
		c-14.887,4.572-25.957,12.558-34.471,22.81c-6.805,7.712-15.512,14.58-18.443,24.059c-9.81,11.424-7.694,24.399-8.208,37.052
		c-16.573,45.219,36.693,94.57,79.57,108.428c53.609,17.326,103.926,12.705,150.886-15.059
		c25.216-14.908,36.369-35.773,46.669-57.088c3.33-6.894,4.552-15.004,5.655-22.732c1.454-6.138,2.134-12.337,3.361-18.462
		c2.666-13.335,7.841-14.835,24.614-7.518c0,15.991,0,31.99,0,47.982c-29.471,53.656-78.859,88.677-155.992,97.045
		c-31.983,3.467-62.056-1.801-89.745-14.687c-9.338-4.098-20.655-3.134-30.072-7.037c-9.993-4.304-18.081-10.182-24.81-17.223
		c-3.8-6.182-13.384-6.982-18.747-11.782c-1.808-4.772-4.298-9.364-6.89-13.923c-1.004-5.838-4.469-8.234-12.937-7.833
		c-7.502,0.355-8.649,3.454-9.195,7.604c-0.388,2.956-2.543,5.001-4.83,7.116C233.27,705.514,228.007,710.835,220.586,703.432z"/>
	<path fill-rule="evenodd" clip-rule="evenodd" fill="#767676" d="M591.993,614.327c-26.12,2.523-14.155,20.638-21.468,30.859
		c-1.224-0.208-2.444-0.411-3.667-0.615c-6.139-6.236-5.934-14.423-10.802-20.967c3.761-11.453,7.737-22.977-5.856-32.553
		c-2.421-9.72-13.788-17.214-11.829-28.041c5.743-2.403,11.532-2.089,17.352-0.188c2.941-0.392,5.901-1.074,8.755,0.268
		c1.534,0.997,2.896,2.129,4.076,3.38c3.079,3.066,6.361,6.012,9.188,9.085c2.479,9.632,0.751,20.222,10.328,28.302
		c1.301,0.161,2.604,0.225,3.923,0.188C591.993,607.473,591.993,610.899,591.993,614.327z"/>
	<path fill-rule="evenodd" clip-rule="evenodd" fill="#BABABA" d="M274.197,693.384c3.132,3.367,6.267,6.73,9.399,10.095
		c-7.671,7.504-7.671,7.504-22.703,8.508c6.31-0.047,12.914-0.505,18.779,0.944c5.863,1.446,11.414,3.595,17.685,4.01
		c7.162,5.656,14.323,11.313,21.487,16.969c-0.4,0.931-0.798,1.862-1.195,2.786c-9.251,4.786-19.522,2.154-29.395,2.426
		c-26.676-9.063-54.999-6.001-82.845-6.551c-14.166-0.1-28.318,0.228-42.468-0.221c-4.256-0.268-7.509-1.594-8.899-4.906
		c-1.031-10.195,5.764-13.993,18.332-13.669c17.432,0.455,33.597-2.912,48.213-10.343c5.786-1.001,10.401-3.45,14.297-6.791
		C247.375,684.046,254.21,683.48,274.197,693.384z"/>
	<path fill-rule="evenodd" clip-rule="evenodd" fill="#BCBCBC" d="M25.284,436.141c-0.249-12.945,0.947-26.028-1.1-38.807
		c-2.759-17.233,10.333-21.893,27.917-22.658c17.543-0.761,35.208,0.136,52.821,0.305c21.302,9.149,44.687,2.449,66.941,4.833
		c6.106,0.653,13.3,0.31,19.95-0.249c11.51,0.419,23.074,0.475,34.612,0.832c7.785,0.239,14.131,0.292,14.311,7.933
		c-21.41,9.253-45.058,6.557-67.703,6.126c-38.021-0.723-75.977-2.493-114.036,0.026c-9.876,9.35-8.656,20.789-9.829,31.842
		c-0.693,6.537,2.231,13.509-3.651,19.482C32.159,450.72,29.898,441.982,25.284,436.141z"/>
	<path fill-rule="evenodd" clip-rule="evenodd" fill="#A9A9A9" d="M239.206,387.676c-16.089-4.455-32.843-2.464-49.337-2.986
		c-4.023-3.222-4.959-6.455-0.052-9.705c34.245-0.001,68.494-0.003,102.74-0.005c22.467,8.952,46.989,2.494,70.336,5.341
		c7.824,0.952,16.552-1.689,17.154,7.785c-6.65,8.082-17.141,4.45-26.128,4.76c-31.783,1.098-63.603-0.052-95.361,0.485
		C251.484,392.7,243.107,394.792,239.206,387.676z"/>
	<path fill-rule="evenodd" clip-rule="evenodd" fill="#9C9C9C" d="M377.637,387.715c-19.411-5.087-39.526-2.29-59.32-3.063
		c-10.494-0.41-21.094-0.288-25.76-9.671c37.232,0,74.469,0,111.702,0c17.843,8.649,38.14,2.327,57.042,5.317
		c7.776,1.231,16.781-1.488,16.99,8.157c-11.832,8.992-26.67,3.485-40.08,4.706c-8.056,0.734-16.324,0.348-24.454,0.244
		C402.239,389.917,387.314,398.192,377.637,387.715z"/>
	<path fill-rule="evenodd" clip-rule="evenodd" fill="#767676" d="M586.782,398.445c0,23.971,0,47.941,0,71.91
		c-9.979,9.768-3.856,21.507-6.579,32.181c-1.606,6.28,3.832,15.729-12.624,13.813c-5.03-3.467-4.546-8.152-4.52-12.664
		c0.179-32.379-0.922-64.764,0.575-97.13C568.394,398.894,574.608,393.667,586.782,398.445z"/>
	<path fill-rule="evenodd" clip-rule="evenodd" fill="#525252" d="M154.042,727.443c3.069-0.01,6.136-0.021,9.204-0.027
		c3.674,2.792,8.048,4.476,13.215,4.948c30.38,0.451,60.753,0.301,91.119,0.136c17.395-0.09,34.362,7.796,52.021,1.544l-0.757-0.135
		c9.993,2.297,19.411,5.463,27.411,10.759c-54.158-0.074-108.319,0.18-162.462-0.453
		C169.97,744.054,152.209,745.203,154.042,727.443z"/>
	<path fill-rule="evenodd" clip-rule="evenodd" fill="#909090" d="M475.971,387.629c-14.978-4.21-30.604-2.564-46-2.992
		c-10.488-0.292-21.058-0.292-25.712-9.657c31.281,0,62.558,0.002,93.838,0.002c15.216,8.646,33.184,1.899,49.615,5.065
		c8.528,1.644,17.498,0.05,15.037,10.09c-26.857,11.286-54.724,7.206-82.497,3.076C477.61,392.822,476.624,389.87,475.971,387.629z"
		/>
	<path fill-rule="evenodd" clip-rule="evenodd" fill="#868686" d="M560.805,387.783c-12.69-3.946-26.077-2.872-39.258-3.178
		c-9.963-0.231-19.31-1.138-23.45-9.623c19.954-0.142,39.947-0.9,59.852-0.251c18.843,0.616,33.822,5.39,28.834,23.714
		c-5.62,2.291-11.239,4.58-16.859,6.869c-7.374-1.11-13.3-3.312-13.063-10.171C558.478,392.785,560.174,390.452,560.805,387.783z"/>
	<path fill-rule="evenodd" clip-rule="evenodd" fill="#B2B2B2" d="M25.284,436.141c5.541,2.309,11.085,4.616,16.627,6.924
		c3.737,1.06,6.348,3.182,6.342,6.127c-0.05,19.331,4.467,38.799-2.712,57.92c-7.791,4.101-14.529,3.224-20.246-2.508
		C25.291,481.782,25.289,458.963,25.284,436.141z"/>
	<path fill-rule="evenodd" clip-rule="evenodd" fill="#626262" d="M588.07,603.857c-15.382-5.804-17.259-16.963-19.012-28.172
		c-0.97-2.005-1.475-4.08-1.526-6.219c-0.163-12.36-0.839-24.755,0.23-37.073c0.832-9.638,5.632-15.743,19.012-7.234
		C587.211,551.391,587.638,577.624,588.07,603.857z"/>
	<path fill-rule="evenodd" clip-rule="evenodd" fill="#A7A7A7" d="M25.295,504.604c5.615,0.035,11.232,0.07,16.846,0.105
		c2.87,0.751,4.84,2.213,5.919,4.388c0.839,19.726,3.64,39.486-1.812,59.102c-10.545,6.493-15.659,0.371-20.961-5.308
		C25.291,543.462,25.294,524.032,25.295,504.604z"/>
	<path fill-rule="evenodd" clip-rule="evenodd" fill="#6D6D6D" d="M586.774,525.159c-11.032,3.187-12.234,10.348-12.541,17.984
		c-0.404,10.106,0.994,20.368-4.109,30.103c-9.695-19.446-13.16-38.875,0.305-58.249c3.931-8.029,3.59-16.445,3.805-24.807
		c0.211-8.105,1.689-15.71,12.549-19.835C586.782,488.625,586.777,506.893,586.774,525.159z"/>
	<path fill-rule="evenodd" clip-rule="evenodd" fill="#B3B3B3" d="M189.816,374.986c0.018,3.235,0.035,6.47,0.052,9.705
		c-20.532-0.039-41.06-0.045-61.591-0.132c-9.929-0.043-19.242-1.118-23.354-9.578C133.219,374.982,161.517,374.984,189.816,374.986
		z"/>
	<path fill-rule="evenodd" clip-rule="evenodd" fill="#9A9A9A" d="M28.472,659.124c-8.07-16.923-2.657-34.337-3.188-51.535
		c7.807-4.581,14.818-2.928,21.457,1.614c4.563,13.939,2.083,28.473,6.041,42.463c0.104,2.126-0.5,4.121-1.849,5.932
		C43.823,661.347,36.193,660.609,28.472,659.124z"/>
	<path fill-rule="evenodd" clip-rule="evenodd" fill="#868686" d="M189.756,665.161c-26.795,0-53.587,0-80.383,0.005
		c-5.383-3.392-6.903-7.328-2.918-12.05c26.278-5.429,52.858-2.604,79.367-1.677C192.242,655.154,197.512,659.057,189.756,665.161z"
		/>
	<path fill-rule="evenodd" clip-rule="evenodd" fill="#A0A0A0" d="M41.941,610.96c-5.552-1.124-11.104-2.245-16.657-3.371
		c0.003-14.896,0.003-29.798,0.003-44.698c5.545,1.177,11.091,2.355,16.635,3.533C53.394,581.266,53.363,596.112,41.941,610.96z"/>
	<path fill-rule="evenodd" clip-rule="evenodd" fill="#909090" d="M109.578,655.793c-0.067,3.124-0.134,6.249-0.205,9.373
		c-19.925,0.189-39.854,0.344-59.775,0.592c-8.331,0.1-16.424-0.033-21.126-6.634c6.238-1.278,12.473-2.558,18.708-3.836
		C68.082,648.005,88.907,646.385,109.578,655.793z"/>
	<path fill-rule="evenodd" clip-rule="evenodd" fill="#7B7B7B" d="M189.756,665.161c-1.404-3.099-2.809-6.197-4.213-9.294
		c1.9-9.358,12.027-11.959,21.051-11.239c12.188,0.974,24.28-0.74,36.281,0.19c5.296-0.268,6.45-3.152,7.343-6.238
		c0.412-1.54,1.348-2.865,2.729-4.017c0.945-0.255,1.893-0.509,2.841-0.764c9.89,21.743,6.951,25.411-22.418,28.865
		c-5.811,0.687-11.436,2.286-17.144,3.461C207.403,665.805,198.58,665.483,189.756,665.161z"/>
	<path fill-rule="evenodd" clip-rule="evenodd" fill="#2E2E2E" d="M555.563,555.936c-6.733-1.497-10.436-5.236-12.646-10.07
		c-10.506-12.453-12.798-26.449-10.695-40.603c1.022-6.855,0.584-12.801-3.512-18.721c-0.084-9.512,7.106-18.669,2.443-28.417
		c-4.622-6.596,5.228-13.32-0.302-19.902c-10.752-12.938-26.891-15.648-45.326-14.15c-20.91,1.7-41.748,5.657-62.903,1.306
		c-21.071-4.73-42.088,0.451-63.103,0.175c-53.313,2.9-106.474-2.834-159.763-1.749c-29.836,0.606-59.428,4.472-89.372,4.023
		c-6.757-0.102-12.925,2.191-18.278,5.415c-8.692,5.511-10.933,13.078-11.308,21.15c-0.74,16.002,0.048,32.05-2.394,48.024
		c3.476,10.13-0.792,20.273,0.144,30.401c3.308,12.742-1.37,25.954,3.88,38.6c-3.391,17.779-0.932,36.383-12.835,52.931
		c17.859,5.723,36.643,3.052,55.024,3.272c34.859,0.422,69.73,0.073,104.6,0.229c9.477,0.039,19.638-1.055,26.572,5.95
		c-0.071,0.696,0.25,1.265,0.96,1.7c-21.915,11.648-46.095,11.902-70.598,7.224c-8.84-1.688-17.855-4.017-26.237-2.096
		c-33.212,7.604-65.988-4.053-99.012-0.64c-2.469,0.259-5.083-2.071-7.684-3.169c-6.553-6.621-3.974-14.309-3.992-21.502
		c-0.17-64.228-0.118-128.457-0.105-192.689c0.74-6.758-2.029-13.916,3.912-20.074c26.99-5.307,54.452-1.212,81.654-2.396
		c14.652-0.64,29.655,1.531,43.624-3.949c3.262-1.279,7.451-1.657,10.916-0.947c48.262,9.885,97.406,2.559,146.087,4.683
		c63.992,0.913,127.864-0.904,191.765-2.944c34.127-1.09,35.836,1.389,35.864,27.92c0.021,20.489,0.101,40.976,0.017,61.455
		c-0.097,17.752,0.296,35.521-0.155,53.276C562.653,545.441,565.721,552.564,555.563,555.936z"/>
	<path fill-rule="evenodd" clip-rule="evenodd" fill="#7C7C7C" d="M542.722,436.105c0,6.854,0.004,13.709,0.008,20.563
		c-7.098,8.456-15.777,14.809-29.462,17.137c-11.833,2.014-21.633,7.96-29.348,14.923c-15.938,14.374-35.691,19.703-59.771,17.796
		c-6.386-0.506-13.346-1.479-19.589,1.32c-15.007,2.428-30.012,4.856-45.022,7.286c-15.913-5.059-1.191-12.946-3.049-19.303
		c2.247-9.571,16.227-13.32,19.081-22.61c6.58-8.255,5.164-21.502,23.684-22.303c40.684-2.678,79.846-11.339,119.513-17.967
		C527.497,431.488,536.159,428.634,542.722,436.105z"/>
	<path fill-rule="evenodd" clip-rule="evenodd" fill="#7C7C7C" d="M292.7,552.661c-5.982,6.841-11.963,13.683-17.946,20.524
		c-12.08-1.352-10.273-8.545-9.021-14.282c6.046-27.719-5.615-54.658-5.6-82.102c0.001-6.022-7.074-9.649-12.491-13.515
		c-2.483-12.285,3.759-23.407,8.397-34.59c3.511-8.475,12.83-11.545,24.127-11.463c14.792,0.106,29.584-0.011,44.351,0.048
		c18.963,4.63,11.235,13.736,4.809,21.069c-15.618,17.818-16.198,36.234-6.747,55.576c4.007,8.658-3.271,15.545-6.195,23.117
		C309.368,529.255,297.002,539.375,292.7,552.661z"/>
	<path fill-rule="evenodd" clip-rule="evenodd" fill="#838383" d="M261.551,597.524c-3.154,25.304-5.169,26.895-36.961,26.91
		c-24.974,0.011-49.947-0.317-74.925-0.495c-17.583-9.813-17.861-15.336-0.309-23.891c14.228-6.932,29.71-12.15,45.232-17.123
		c9.283-2.979,15.161-7.149,13.994-15.423c0.238-9.379,9.585-15.884,12.874-24.364c24.851-10.404,30.02-8.977,37.41,10.802
		C264.215,568.269,265.666,582.818,261.551,597.524z"/>
	<path fill-rule="evenodd" clip-rule="evenodd" fill="#797979" d="M225.654,549.207c-2.995,6.855-5.988,13.71-8.983,20.564
		c-8.253,7.531-17.958,11.936-31.548,12.639c-20.708,1.063-40.309,6.393-59.579,12.307c-18.359,5.634-28.609,17.294-38.638,29.25
		c-5.771,0.127-11.542,0.254-17.314,0.382c-0.078-18.202-0.159-36.409-0.239-54.61c5.803-12.592,17.545-18.173,34.687-20.611
		c35.803-5.092,71.614-9.012,108.089-8.84c5.169,0.025,10.469-0.803,14.208,2.999C227.453,545.351,227.222,547.324,225.654,549.207z
		"/>
	<path fill-rule="evenodd" clip-rule="evenodd" fill="#8A8A8A" d="M570.525,645.187c-12.148,61.713-70.453,103.879-145.901,105.513
		c-72.843,1.576-138.247-39.696-152.303-96.168c-2.535-10.178-4.232-20.362,2.701-30.065c2.316-1.129,4.672-1.179,7.108-0.198
		c6.82,10.878,11.244,22.309,12.69,34.351c1.454,14.851,15.564,23.688,27.392,33.614c12.733,9.532,15.612,23.948,35.851,30.72
		c43.464,14.532,84.724,11.928,127.183-0.014c15.656-4.404,12.121-19.62,25.282-25.16c19.207-12.582,34.776-26.978,39.653-46.715
		c1.138-1.479,2.611-2.737,4.356-3.799c4.459-2.015,8.567-5.767,14.315-1.773L570.525,645.187z"/>
	<path fill-rule="evenodd" clip-rule="evenodd" fill="#7D7D7D" d="M86.906,623.967c-7.804-15.711,3.656-24.521,19.365-31.811
		c33.945-15.744,72.456-18.248,110.4-22.385c-1.559,15.108-14.621,21.08-31.279,26.87c-15.288,5.312-40.917,5.295-35.728,27.305
		C128.746,623.949,107.826,623.96,86.906,623.967z"/>
	<path fill-rule="evenodd" clip-rule="evenodd" fill="#808080" d="M225.654,549.207c-0.025-1.146-0.05-2.292-0.076-3.439
		c-10.644-7.375-2.119-17.24-5.669-25.548c3.954-8.255,13.666-14.954,11.395-24.9c3.055-6.979,9.318-13.19,8.527-21.096
		c2.979-6.007,2.57-15.128,16.809-10.756c13.845,7.4,15.046,19.277,16.819,30.329c4.234,26.376,10.546,52.845,1.293,79.392
		c-4.403,8.11-8.806,16.221-13.203,24.336c-4.548-13.669-9.09-27.338-13.644-41.007
		C244.632,546.678,237.972,542.867,225.654,549.207z"/>
	<path fill-rule="evenodd" clip-rule="evenodd" fill="#757575" d="M404.561,507.845c35.556-0.062,60.345-15.129,83.096-34.001
		c14.464-11.996,36.904-11.007,55.073-17.175c0,9.15,0,18.302,0,27.452c-7.618,9.386-10.567,20.498-19.391,29.553
		c-5.545,5.689-11.641,8.897-20.856,8.417C471.267,511.588,438.776,506.215,404.561,507.845z"/>
	<path fill-rule="evenodd" clip-rule="evenodd" fill="#ECECEC" d="M336.869,537.954c29.947-15.451,62.672-22.454,98.893-19.861
		c26.02,1.862,47.758,10.197,66.381,23.889c-1.326,3.711-2.296,7.661-8.854,7.94c-15.189-3.123-26.481-13.82-43.602-13.189
		c-20.422-4.482-40.78-2.777-61.114,0.387c-16.764-2.316-25.992,8.861-39.271,12.856c-4.887,0.331-9.726,1.325-14.533-0.189
		C326.494,544.897,333.118,541.578,336.869,537.954z"/>
	<path fill-rule="evenodd" clip-rule="evenodd" fill="#696969" d="M306.027,514.933c2.979-6.855,5.959-13.71,8.935-20.566
		c1.84-4.123-0.882-10.205,8.177-11.237c15.503,4.173,34.861,1.339,45.362,14.641c-2.984,5.786-5.974,11.571-8.963,17.36
		c-10.441,4.464-20.883,8.93-31.325,13.395C318.348,526.367,302.49,529.967,306.027,514.933z"/>
	<path fill-rule="evenodd" clip-rule="evenodd" fill="#707070" d="M502.482,522.091c12.068-13.498,21.887-28.396,40.247-37.97
		c0.063,20.58,0.122,41.162,0.183,61.742C529.439,537.939,515.956,530.016,502.482,522.091z"/>
	<path fill-rule="evenodd" clip-rule="evenodd" fill="#DCDCDC" d="M538.371,563.011c8.919,6.433,13.941,14.72,18.723,23.121
		c3.5,15.52,1.998,30.819-3.472,45.948c-4.993,10.127-15.299,16.835-24.603,24.499c-6.379,5.259-10.751,6.434-18.187,3.309
		c-6.101-4.145-3.049-7.418-0.454-12.553c9.171-18.12,24.863-34.769,21.154-56.163c-1.325-7.617-2.09-14.754-7.924-21.115
		c-0.235-3.441,1.371-5.998,5.8-7.228C532.397,562.891,535.382,562.95,538.371,563.011z"/>
	<path fill-rule="evenodd" clip-rule="evenodd" fill="#EAEAEA" d="M297.358,716.94c-16.059,5.811-33.255,3.213-49.99,3.815
		c-5.549,0.2-13.486,1.158-14.619-4.648c-1.079-5.526,4.834-9.326,11.453-11.042c12.854-3.327,26.23-1.406,39.394-1.587
		C288.185,707.967,292.771,712.455,297.358,716.94z"/>
	<path fill-rule="evenodd" clip-rule="evenodd" fill="#7F7F7F" d="M529.409,562.829c0.152,2.344,0.302,4.687,0.448,7.028
		c5.586,10.108-6.004,11.233-13.081,14.734c-2.583,0.268-5.157,0.214-7.748-0.084c-15.316-7.814-14.525-22.618-23.974-33.146
		c-2.879-3.208,2.112-7.252,9.028-5.826c2.684-1.185,5.371-2.369,8.06-3.554C510.268,549.672,523.994,553.05,529.409,562.829z"/>
	<path fill-rule="evenodd" clip-rule="evenodd" fill="#727272" d="M306.027,514.933c7.4,4.531,14.791,9.062,22.192,13.592
		c-11.843,8.044-23.682,16.091-35.521,24.137C286.031,537.775,297.441,526.648,306.027,514.933z"/>
	<path fill-rule="evenodd" clip-rule="evenodd" fill="#999999" d="M274.197,693.384c-13.293-0.265-26.632-0.83-39.313,3.257
		c0.294-7.889,2.452-15.012,14.8-16.136C262.452,679.34,271.053,683.463,274.197,693.384z"/>
	<path fill-rule="evenodd" clip-rule="evenodd" fill="#DBDBDB" d="M336.869,537.954c0.275,2.654,0.546,5.309,0.817,7.963
		c2.774,14.172-15.495,17.425-23.117,26.208c-3.22,2.292-6.882,2.386-10.796,1.314c-4.971-2.952-5.832-6.393-2.096-10.375
		C310.472,552.273,322.754,544.359,336.869,537.954z"/>
	<path fill-rule="evenodd" clip-rule="evenodd" fill="#ECECEC" d="M555.563,555.936c0.431-22.779,0.868-45.556,1.299-68.334
		c3.003-1.224,5.411-0.731,7.14,1.498c2.588,22.759,0.857,45.513,0.624,68.268c-0.041,3.702-0.114,6.601-3.909,8.977
		c-1.668-1.175-3.327-2.35-4.994-3.521C555.671,560.527,555.618,558.23,555.563,555.936z"/>
	<path fill-rule="evenodd" clip-rule="evenodd" fill="#AFAFAF" d="M278.916,624.419l-1.948,0.05h-1.945
		c-8.112-14.035,0.832-25.779,8.589-37.681c6.723,0.877,9.974,4.782,13.071,8.818c0.486,2.788,0.481,5.547-0.938,8.201
		c-4.95,6.49-5.393,14.764-13.344,20.108C281.231,624.087,280.073,624.255,278.916,624.419z"/>
	<path fill-rule="evenodd" clip-rule="evenodd" fill="#C5C5C5" d="M287.67,597.057c-1.352-3.422-2.707-6.849-4.059-10.269
		c2.378-9.54,10.792-16.381,18.066-23.724c1.847,2.416,3.691,4.833,5.534,7.249c6.42,3.36,5.306,7.846,3.334,12.538
		C301.473,586.129,300.249,597.033,287.67,597.057z"/>
	<path fill-rule="evenodd" clip-rule="evenodd" fill="#CDCDCD" d="M570.429,514.997c-0.104,19.416-0.2,38.832-0.305,58.249
		c-0.494,0.776-0.847,1.593-1.065,2.439c-2.443-2.222-4.883-4.448-7.321-6.67c2.434-27.254,1.143-54.525,0.663-81.793
		c-4.764-29.861,1.653-60.041-4.298-89.894c-0.605-3.026,3.276-4.775,7.038-5.645c1.593,4.543,3.184,9.087,4.782,13.63
		C570.089,441.874,570.258,478.436,570.429,514.997z"/>
	<path fill-rule="evenodd" clip-rule="evenodd" fill="#CECECE" d="M547.351,631.604c0.438-15.511,3.027-30.745,9.743-45.466
		c8.422,10.649,13.03,22.07,11.799,34.662c-2.652,3.929-3.298,8.574-7.295,12.035C556.304,636.103,551.273,637.649,547.351,631.604z
		"/>
	<path fill-rule="evenodd" clip-rule="evenodd" fill="#F7F7F7" d="M565.078,487.704c-1.505,27.094,4.041,54.359-3.341,81.312
		c-0.539-0.848-0.877-1.738-1.021-2.672c0.035-26.213,0.072-52.425,0.114-78.637C562.243,486.192,563.657,486.19,565.078,487.704z"
		/>
	<path fill-rule="evenodd" clip-rule="evenodd" fill="#9D9D9D" d="M560.689,628.421c2.735-2.54,5.471-5.077,8.208-7.62
		c-0.015,8.227-0.021,16.453-0.039,24.687c-2.815,2.086-5.62,4.168-8.43,6.249C548.865,643.888,553.019,636.144,560.689,628.421z"/>
	<path fill-rule="evenodd" clip-rule="evenodd" fill="#D9D9D9" d="M207.357,727.678c20.029-0.041,40.061-0.321,60.078,0
		c7.58,0.124,17.084-2.021,20.626,6.373c-27.044,4.348-54.394,0.87-81.561,1.867C197.654,732.614,202.954,730.174,207.357,727.678z"
		/>
	<path fill-rule="evenodd" clip-rule="evenodd" fill="#535353" d="M203.269,734.238c28.264-0.064,56.526-0.128,84.792-0.188
		c10.512-0.007,21.024-0.007,31.537-0.011c-50.641,6.292-101.354,5.085-152.095,0.827
		C179.23,728.207,191.203,729.702,203.269,734.238z"/>
	<path fill-rule="evenodd" clip-rule="evenodd" fill="#F1F1F1" d="M203.269,734.238c-11.922,0.207-23.844,0.418-35.766,0.629
		c-3.74-1.704-4.49-4.412-4.256-7.451c14.705,0.088,29.411,0.174,44.114,0.262C205.995,729.867,204.632,732.049,203.269,734.238z"/>
	<path fill-rule="evenodd" clip-rule="evenodd" fill="#F6F6F6" d="M56.463,406.537c-0.415,5.3-0.832,10.598-1.248,15.898
		c-3.916,29.265-0.159,58.632-1.969,87.928c-1.606,2.116-3.906,2.754-6.91,1.906c-1.307-1.962-1.861-4.032-1.674-6.229
		c-0.024-33.632-0.135-67.257,0.118-100.88c0.044-5.519-2.431-11.411,2.424-16.572c64-0.303,128-0.606,192.002-0.911
		c5.991,0.261,11.98,0.522,17.974,0.783c25.097,3.133,50.396,0.271,75.53,1.553c6.379,0.325,17.824-4.053,18.221,4.071
		c0.396,8.236-11.4,5.562-18.321,5.856c-83.908,3.563-167.877,2.272-251.839,1.914C72.604,401.822,62.545,398.984,56.463,406.537z"
		/>
	<path fill-rule="evenodd" clip-rule="evenodd" fill="#E2E2E2" d="M47.204,388.588c-0.118,39.841-0.238,79.681-0.357,119.522
		c-1.583,2.482-2.935,2.41-4.054-0.218c-0.184-1.065-0.399-2.127-0.65-3.184c-0.077-20.55-0.151-41.097-0.229-61.645
		C44.878,424.974,37.54,406.296,47.204,388.588z"/>
	<path fill-rule="evenodd" clip-rule="evenodd" fill="#EBEBEB" d="M56.463,406.537c5.723-7.709,15.494-8.054,25.333-8.09
		c17.868-0.065,35.791-0.709,53.598,0.104c67.602,3.082,134.893-0.126,202.215-4.976c-26.522-4.687-54.185,1.509-80.435-5.116
		c40.156-0.246,80.311-0.494,120.462-0.743c11.921,0.265,23.842,0.528,35.763,0.795c15.377,2.884,31.01,0.517,46.479,1.371
		c4.627,0.254,11.915-1.687,12.017,4.093c0.096,5.72-6.362,4.876-12.34,5.53c-34.741,3.799-69.629,1.631-104.433,2.439
		c-7.714,0.179-15.721-1.188-22.266,3.37c-82.477,0.273-164.95,0.535-247.425,0.832C75.775,406.182,66.119,406.401,56.463,406.537z"
		/>
	<path fill-rule="evenodd" clip-rule="evenodd" fill="#D2D2D2" d="M332.856,405.314c8.256-7.701,19.845-6.686,30.883-6.803
		c31.754-0.336,63.641,0.909,100.686-5.683c-20.661-2.269-36.495,0.251-51.029-4.319c20.86-0.291,41.719-0.584,62.575-0.878
		c28.273,0.05,56.553,0.102,84.834,0.152c1.446,1.3,2.888,2.601,4.336,3.901c-0.018,32.005-0.045,64.011-0.063,96.018
		c0,0.002-2.129-0.032-2.129-0.032s-2.126,0.034-2.118,0.035c-1.322-0.047-2.646-0.082-3.969-0.104
		c-0.247-18.199-0.501-36.4-0.754-54.601c-0.393-28.785,5.396-27.12-36.347-27.113c-53.435,0.006-106.865,0.313-160.293,0.368
		C350.593,406.264,341.727,405.643,332.856,405.314z"/>
	<path fill-rule="evenodd" clip-rule="evenodd" fill="#CBCBCB" d="M42.792,507.893c1.351,0.082,2.703,0.155,4.056,0.218
		c0.011,1.13,0.026,2.26,0.048,3.39c5.022,4.639,3.532,9.99,3.868,15.473c2.387,39.036-1.917,78.144,2.315,117.146
		c0.254,2.319-0.735,4.469-2.419,6.409c-1.257,0.575-2.524,1.151-3.795,1.728c-7.442-13.358-2.978-27.554-4.921-41.296
		c-0.006-14.848-0.012-29.691-0.018-44.536C42.212,546.913,42.502,527.403,42.792,507.893z"/>
	<path fill-rule="evenodd" clip-rule="evenodd" fill="#B1B1B1" d="M256.717,651.907c-23.2,6.878-47.523,1.854-71.173,3.956
		c-25.321-0.023-50.645-0.05-75.966-0.073c-20.8-0.164-41.602-0.332-62.4-0.499c-0.101-1.014-0.205-2.024-0.313-3.035l0.305-1.412
		c17.391-7.872,36.572-2.163,54.748-4.251c13.016,0.475,25.786-2.718,38.891-1.326c31.274,2.266,62.499-0.401,93.72,0.194
		C242.984,645.625,250.968,646.411,256.717,651.907z"/>
	<path fill-rule="evenodd" clip-rule="evenodd" fill="#E9E9E9" d="M256.717,651.907c-40.075-0.101-80.151-0.204-120.227-0.304
		c-8.85-10.682,2.289-11.05,10.81-11.444c10.335-0.472,20.85,0.757,30.449-3.384c26.015,0.736,52.174-2.333,78.071,1.687
		C256.119,642.944,256.419,647.423,256.717,651.907z"/>
	<path fill-rule="evenodd" clip-rule="evenodd" fill="#D9D9D9" d="M255.819,638.462c-26.456-0.003-52.91-0.003-79.367-0.009
		c-25.268,3.089-50.351,7.011-75.647,10.145c-11.506-0.619-23.047,0.204-34.589-0.104c-8.375-0.225-14.791-0.924-14.379-8.88
		c0.308-2.294,1.786-3.977,4.441-5.054c66.823,0.314,133.646,0.626,200.471,0.939C256.455,636.491,256.146,637.479,255.819,638.462z
		"/>
	<path fill-rule="evenodd" clip-rule="evenodd" fill="#686868" d="M247.992,477.245c-1.542,6.851-3.09,13.702-4.635,20.554
		c-7.801,10.182-20.266,12.774-34.24,11.373c-39.677-3.978-79.429-3.466-119.177-1.513c-8.854,0.435-15.093-1.693-20.581-6.428
		c-0.023-27.423-0.049-54.844-0.074-82.266c38.236-3.92,76.649-0.699,114.961-1.613c5.307-0.126,10.816,1.056,12.969,5.21
		c2.752,5.313-2.499,8.1-7.169,11.125c-14.083,9.128-33.322,12.258-47.834,24.042c16.601,6.488,33.226,6.845,49.531,7.231
		c14.162,0.334,27.992,1.755,41.85,3.732C240.57,469.688,246.669,470.932,247.992,477.245z"/>
	<path fill-rule="evenodd" clip-rule="evenodd" fill="#636363" d="M247.992,477.245c-42.255-2.38-84.513-4.733-126.763-7.175
		c-5.108-0.297-11.613-0.035-13.35-4.577c-2.179-5.7,4.717-7.785,9.696-9.962c18.747-8.188,37.706-16.099,56.472-24.264
		c3.786-1.647,8.906-3.541,8.231-7.357c-0.949-5.356-7.676-4.65-12.52-4.682c-33.488-0.225-66.982-0.204-100.473-0.263
		c7.378-3.32,15.58-3.364,23.728-3.354c88.851,0.1,177.704,0.24,266.553,0.37c1.767,2.122,1.521,4.101-0.63,6.016
		c-11.128,4.953-21.66,5.7-30.64-2.926c-0.732-0.007-1.466-0.013-2.198-0.019c-58.233-0.414-58.233-0.414-69.455,44.415
		C253.76,468.061,250.875,472.652,247.992,477.245z"/>
	<path fill-rule="evenodd" clip-rule="evenodd" fill="#6E6E6E" d="M69.358,501.231c45.547-5.431,91.224-4.618,136.878-1.246
		c12.681,0.938,25.024,1.336,37.123-2.187c-2.958,7.989-5.916,15.98-8.872,23.971c-9.349,9.114-21.506,12.146-36.59,12.093
		c-36.768-0.127-73.763-1.901-110.08,4.277c-8.805,1.498-13.596-1.739-18.448-6.061C69.365,521.797,69.363,511.515,69.358,501.231z"
		/>
	<path fill-rule="evenodd" clip-rule="evenodd" fill="#747474" d="M69.37,532.079c44.175-9.217,89.443-6.758,134.429-7.569
		c10.251-0.184,20.462-1.789,30.689-2.74c-2.969,8-5.938,15.999-8.909,23.998c-39.639,5.945-80.479,4.952-119.905,12.442
		c-13.032,2.478-25.469,5.346-36.321,11.528C69.358,557.187,69.363,544.632,69.37,532.079z"/>
	<path fill-rule="evenodd" clip-rule="evenodd" fill="#5D5D5D" d="M359.646,418.974c-0.021-0.998-0.047-1.998-0.081-2.995
		c22.436-0.059,44.872-0.12,67.308-0.183c1.492,1.247,2.791,2.602,3.875,4.089c2.157,8.301-9.835,12.417-10.018,20.048
		c-1.865,9.481-12.388,12.409-21.236,16.602c-5.93,6.846-11.855,13.689-17.79,20.534c-21.899,8.894-38.376,0.596-54.114-10.047
		C328.479,447.166,338.21,430.771,359.646,418.974z"/>
	<path fill-rule="evenodd" clip-rule="evenodd" fill="#828282" d="M425.888,418.727c0.28-0.988,0.611-1.965,0.985-2.933
		c29.78-0.039,59.578,0.431,89.326-0.304c19.688-0.485,30.267,4.196,26.522,20.615c-46.811,10.644-93.826,20.449-143.223,20.431
		c2.865-7.493,7.172-14.434,13.509-20.586c19.406-6.048,39.645-9.323,58.511-10.327
		C457.697,422.675,437.971,437.102,425.888,418.727z"/>
	<path fill-rule="evenodd" clip-rule="evenodd" fill="#D9D9D9" d="M51.233,511.382c1.985-29.631-3.583-59.463,3.981-88.946
		c0.356,70.707,0.709,141.418,1.064,212.125l-0.57,0.367c-3.422,0.438-6.337-0.652-6.291-3.209
		C50.131,591.607,46.582,551.457,51.233,511.382z"/>
	<path fill-rule="evenodd" clip-rule="evenodd" fill="#636363" d="M337.269,463.472c13.07,7.889,30.037,8.281,44.444,13.599
		c-4.405,6.9-8.81,13.8-13.212,20.699c-15.943-0.718-32.038-1.079-44.65-10.297C312.815,472.871,317.736,464.059,337.269,463.472z"
		/>
	<path fill-rule="evenodd" clip-rule="evenodd" fill="#767676" d="M337.269,463.472c-7.371,7.049-10.542,15.477-13.418,24.003
		c-2.962,2.296-5.92,4.594-8.889,6.892c-14.156-21.915-18.197-43.075,6.326-62.896c3.797-3.071,4.748-8.216,7.008-12.4
		c10.452-0.031,20.901-0.064,31.351-0.097C352.191,433.807,344.729,448.639,337.269,463.472z"/>
	<path fill-rule="evenodd" clip-rule="evenodd" fill="#565656" d="M310.001,696.725c-12.016-9.6-19.034-21.117-22.226-34.1
		c-2.832-4.934-2.139-9.132,5.393-10.63c7.433-1.479,10.806,3.48,13.983,7.002c16.93,18.79,40.493,30.017,68.044,37.714
		c17.331,4.84,34.295,5.844,51.993,2.754c6.073-0.96,12.234-1.716,17.925-3.648c12.377,2.428,22.995-0.297,33.079-5.884
		c22.605-12.521,46.254-23.98,62.112-42.489c1.64-1.915,5.978-7.364,12.609-4.988c5.869,2.103,6.983,5.463,3.438,9.67
		c-3.175,19.817-14.141,36.774-31.931,51.233c-27.76,19.222-61.306,28.944-97.718,29.849
		C381.592,734.321,341.168,723.421,310.001,696.725z"/>
	<path fill-rule="evenodd" clip-rule="evenodd" fill="#636363" d="M310.001,696.725c64.651,34.541,131.918,38.992,202.125,10.43
		c3.888-1.58,8.195-2.545,12.304-3.796C471.696,755.444,352.61,751.763,310.001,696.725z"/>
	<path fill-rule="evenodd" clip-rule="evenodd" fill="#616161" d="M556.353,652.125c-12.048-3.97-12.69,5.238-16.957,9.234
		c-24.905,23.356-54.938,39.481-95.344,41.938c-5.616-8.77,2.745-13.884,8.399-19.976c15.849-4.119,28.223-12.21,40.503-20.678
		c4.99-3.444,9.956-8.963,18.827-5.622c13.881-6.805,25.771-15.25,35.569-25.418c4.446-1.061,8.893-2.122,13.339-3.184
		c-0.087,7.775-0.17,15.548-0.261,23.319C559.066,651.86,557.709,651.991,556.353,652.125z"/>
	<path fill-rule="evenodd" clip-rule="evenodd" fill="#5F5F5F" d="M431.508,706.739c-50.938,2.644-93.115-10.654-126.321-40.587
		c-4.443-4.004-8.7-10.857-17.408-3.527c-2.957-12.736-5.911-25.472-8.863-38.203c0-0.003,0.707,0.375,0.707,0.375
		c13.804-9.339,16.22,0.375,20.4,7.169c16.651,27.037,43.683,45.081,79.673,56.401c13.453,4.227,27.044,1.121,40.128,3.906
		C426.341,695.84,437.555,697.196,431.508,706.739z"/>
	<path fill-rule="evenodd" clip-rule="evenodd" fill="#919191" d="M386.434,532.061c22.611-6.19,45.294-5.531,68.007-0.372
		c32.885,14.249,47.911,36.573,49.876,64.87c-3.554,3.406-7.847,4.48-13.109,2.473c-5.751-1.266-7.424-4.473-8.678-8.797
		c-10.848-37.306-41.627-53.737-87.1-41.506c-27.492,7.394-41.852,26.874-28.461,56.729c2.998,6.687,12.104,12.253,7.361,20.65
		c-4.023,2.839-8.263,5.165-14.216,3.461c-19.229-12.11-26.513-42.602-17.122-62.004
		C351.179,550.651,367.035,540.344,386.434,532.061z"/>
	<path fill-rule="evenodd" clip-rule="evenodd" fill="#858585" d="M386.434,532.061c5.36,5.424-1.554,6.691-5.252,8.888
		c-37.596,22.3-45.03,51.442-21.366,84.006c6.281,11.74-0.534,14.951-14.741,13.331c-27.678-30.652-27.338-60.916,1.085-95.221
		C358.489,537.039,371.538,532.567,386.434,532.061z"/>
	<path fill-rule="evenodd" clip-rule="evenodd" fill="#7E7E7E" d="M346.159,543.064c-15.029,30.517-19.606,61.027,0.055,91.532
		c-0.987,2.045-2.841,3.38-5.524,3.95c-24.775-7.378-23.31-24.81-27.07-40.561c-2.519-10.536,3.083-21.307-2.51-31.589
		c5.002-9.773,20.207-11.755,26.577-20.48C340.512,544.965,343.336,544.015,346.159,543.064z"/>
	<path fill-rule="evenodd" clip-rule="evenodd" fill="#878787" d="M497.875,590.271c-5.668-22.542-17.578-41.809-45.615-53.203
		c-5.621-2.283-1.858-4.336,2.181-5.378c14.331,2.735,29.004,4.89,39.643,13.845c-0.815,13.851,9.775,24.133,18.596,34.967
		c2.684,3.766,1.267,7.049-2.037,10.104C506.244,593.669,502.015,592.952,497.875,590.271z"/>
	<path fill-rule="evenodd" clip-rule="evenodd" fill="#E9E9E9" d="M511.781,657.022c-15.312,12.27-32.408,22.903-50.586,32.546
		c-13.124,4.739-25.805,11.239-41.421,6.206c-7.134-1.941-14.845-2.959-20.269-7.581c-0.976-1.751-1.247-3.619-0.882-5.52
		c4.561-8.608,14.285-8.113,24.061-8.448c39.166-1.333,66.106-17.312,83.393-43.184c10.568-15.811,14.95-32.921,10.46-50.828
		c4.441-3.451,8.884-6.901,13.32-10.356c15.416,16.793,9.346,34.568,2.401,51.659C527.267,633.79,518.73,645.217,511.781,657.022z"
		/>
	<path fill-rule="evenodd" clip-rule="evenodd" fill="#F5F5F5" d="M516.537,580.214c14.185,17.605,7.334,46.853-16.829,68.394
		c-19.348,17.236-42.509,29.494-73.474,31.027c-7.983,0.395-15.815,2.483-23.718,3.795c-14.664,2.229-22.072-4.197-27.123-13.374
		c4.573-11.803,17.49-8.696,27.906-8.626c58.625,0.398,99.888-29.163,103.523-74.608c1.952-2.106,3.906-4.211,5.855-6.319
		C513.967,580.428,515.255,580.334,516.537,580.214z"/>
	<path fill-rule="evenodd" clip-rule="evenodd" fill="#787878" d="M311.109,566.397c12.929,3.447,8.452,11.688,8.6,18.582
		c0.41,18.794,1.803,37.286,23.358,50.287c11.583,5.281,23.199,10.342,31.84,18.776c6.042,5.904,6.32,10.817-0.447,16.025
		c-27.156,2.367-38.703-13.568-51.994-26.736c-18.867-18.689-27.976-39.675-21.361-63.58c2.036-3.146,4.071-6.296,6.107-9.441
		C308.513,569.008,309.813,567.703,311.109,566.397z"/>
	<path fill-rule="evenodd" clip-rule="evenodd" fill="#6F6F6F" d="M301.105,579.752c7.693,20.973,8.36,43.626,27.431,61.83
		c12.265,11.708,24.203,22.954,45.741,23.794c4.896-1.613,7.613-0.251,8.465,3.655c4.312,6.641,12.688,9.997,19.774,14.398
		c0.271,1.018,0.528,2.039,0.786,3.06c-6.82,7.886-14.857,4.264-23.309,1.834c-51.458-14.771-81.445-43.171-91.741-84.248
		c-0.193-2.339-0.385-4.676-0.579-7.019C292.15,591.289,296.627,585.522,301.105,579.752z"/>
	<path fill-rule="evenodd" clip-rule="evenodd" fill="#666666" d="M288.253,604.075c9.405,5.017,10.395,13.466,14.432,20.694
		c19.177,34.327,50.335,57.211,100.618,61.72c4.415,2.359,8.832,4.72,13.247,7.079c2.81,1.142,2.74,2.172-0.201,3.096
		c-51.741,0.502-87.79-19.493-114.422-51.658c-6.247-7.544-9.699-16.826-22.304-20.209
		C279.027,617.038,283.667,610.565,288.253,604.075z"/>
	<path fill-rule="evenodd" clip-rule="evenodd" fill="#E2E2E2" d="M51.233,511.382c0.026,32.842,0.026,65.683,0.101,98.524
		c0.02,8.477-0.576,17.043,4.37,25.025c9.953,16.233,29.368,8.105,44.797,10.235c2.893,2.147,3.017,4.298,0.026,6.455
		c-17.786-0.257-35.573-0.512-53.358-0.772c-0.088-46.456-0.18-92.899-0.272-139.35C48.341,511.468,49.787,511.427,51.233,511.382z"
		/>
	<path fill-rule="evenodd" clip-rule="evenodd" fill="#E4E4E4" d="M100.527,651.622c-0.009-2.151-0.017-4.3-0.026-6.455
		c24.382-8.468,50.274-6.889,75.955-6.714c-9.91,10.488-29.891,2.972-39.968,13.153C124.5,651.609,112.514,651.616,100.527,651.622z
		"/>
	<path fill-rule="evenodd" clip-rule="evenodd" fill="#888888" d="M425.888,418.727c25.404,0,50.808,0,76.217,0
		c0.159,1.869,0.315,3.738,0.473,5.607c-28.988,7.114-56.648,19.202-89.566,11.616C415.223,429.295,419.364,423.487,425.888,418.727
		z"/>
	<path fill-rule="evenodd" clip-rule="evenodd" fill="#D9D9D9" d="M416.349,696.664c0.105-1.031,0.176-2.063,0.201-3.096
		c14.88-1.332,29.766-2.668,44.646-4c-5.716,4.579-11.428,9.151-17.144,13.729c-4.186,1.145-8.365,2.292-12.544,3.441
		C426.456,703.378,421.402,700.024,416.349,696.664z"/>
	<path fill-rule="evenodd" clip-rule="evenodd" fill="#FFFFFF" d="M382.742,669.031c-2.823-1.218-5.646-2.438-8.465-3.655
		c-8.309-11.313-27.951-15.714-31.21-30.109c1.13,0.006,2.182-0.221,3.146-0.67c6.525-1.566,10.897-4.913,13.602-9.643
		c2.8-1.477,5.595-2.952,8.389-4.429c1.445-2.011,1.414-4.344,2.391-6.459c1.178-2.169,3.028-3.916,5.576-5.225
		c22.148-13.64,23.162-14.449,43.136,0.237c17.787,13.076,28.362,0.91,41.374-4.378c10.258,0.455,13.535-8.568,22.533-9.827
		c1.997-0.495,4.039-0.743,6.136-0.746c2.844-1.285,5.682-2.57,8.525-3.856c2.982-1.147,5.969-2.299,8.948-3.45
		c11.738,7.196,8.418,16.166,4.779,25.021C493.424,656.078,448.468,675.996,382.742,669.031z"/>
	<path fill-rule="evenodd" clip-rule="evenodd" fill="#969696" d="M373.453,618.17c-1.75,0.786-3.495,1.572-5.249,2.355
		c-16.487-18.509-17.92-43.661-3.359-59.021c16.588-17.498,46.474-26.263,72.505-21.261c27.536,5.29,49.041,27.566,52,53.885
		c-0.333,0.974-0.848,1.884-1.536,2.74c-18.771,6.514-16.319-7.647-17.716-12.842c-3.837-14.242-14.226-23.229-30.072-29.598
		c-19.31-7.758-37.617-2.594-52.344,6.018c-17.775,10.394-18.755,27.063-15.777,42.892
		C372.842,608.332,375.573,613.021,373.453,618.17z"/>
	<path fill-rule="evenodd" clip-rule="evenodd" fill="#A9A9A9" d="M467,610.97c-3.021,2.44-5.839,5.051-9.094,7.293
		c-23.657,16.341-24.758,16.993-45.16-1.934c-12.989-12.05-23.108-7.531-34.965-0.697c-14.142-20.064-12.306-39.032,8.111-54.438
		c15.568-11.747,44.429-13.743,61.828-4.878c17.333,8.83,31.492,28.769,22.106,48.572C468.872,606.909,466.55,608.557,467,610.97z"
		/>
	<path fill-rule="evenodd" clip-rule="evenodd" fill="#A0A0A0" d="M467,610.97c-3.404-6.058-1.136-12.293-1.1-18.479
		c0.118-22.471-20.708-37.593-49.451-36.117c-25.892,1.328-44.396,19.925-40.785,40.744c1.065,6.131,1.432,12.337,2.117,18.509
		c-1.444,0.854-2.884,1.7-4.328,2.544c-13.828-24.086-11.472-44.811,6.662-58.554c30.632-23.222,78.034-14.964,93.9,16.428
		c3.69,7.316,4.598,15.67,13.798,20.824C482.332,602.834,474.888,607.098,467,610.97z"/>
</g>
</svg>
