<?xml version="1.0" encoding="utf-8"?>
<!-- Generator: Adobe Illustrator 16.0.0, SVG Export Plug-In . SVG Version: 6.00 Build 0)  -->
<!DOCTYPE svg PUBLIC "-//W3C//DTD SVG 1.1//EN" "http://www.w3.org/Graphics/SVG/1.1/DTD/svg11.dtd">
<svg version="1.1" id="Layer_1" xmlns="http://www.w3.org/2000/svg" xmlns:xlink="http://www.w3.org/1999/xlink" x="0px" y="0px"
	 width="612px" height="792px" viewBox="0 0 612 792" enable-background="new 0 0 612 792" xml:space="preserve">
<line fill="none" stroke="#414042" stroke-miterlimit="10" x1="58.617" y1="200.754" x2="432.791" y2="68.545"/>
<line fill="none" stroke="#414042" stroke-miterlimit="10" x1="58.617" y1="284.083" x2="432.531" y2="386.944"/>
<g>
	<ellipse fill="#999999" cx="429.447" cy="227.667" rx="102.405" ry="160.749"/>
</g>
<line fill="none" stroke="#414042" stroke-miterlimit="10" x1="105" y1="330.5" x2="105" y2="393"/>
<line fill="none" stroke="#414042" stroke-miterlimit="10" x1="235" y1="367" x2="235" y2="429.5"/>
<g>
	<path fill="#FFFFFF" d="M105,392.626c0.869,9.855,12.978,21.187,30.546,18.512"/>
	<path fill="none" stroke="#414042" stroke-miterlimit="10" d="M105,392.626c0.869,9.855,12.978,21.187,30.546,18.512"/>
</g>
<g>
	<path fill="#6A242F" d="M235.315,429.144c-2.16,6.745-11.245,13.199-22.917,10.546"/>
	<path fill="none" stroke="#414042" stroke-miterlimit="10" d="M235.315,429.144c-2.16,6.745-11.245,13.199-22.917,10.546"/>
</g>
<g>
	<path fill="#6A242F" d="M134.978,395.552c1.286,5.952,7.495,12.122,16.935,13.027"/>
	<path fill="none" stroke="#414042" stroke-miterlimit="10" d="M134.978,395.552c1.286,5.952,7.495,12.122,16.935,13.027"/>
</g>
<g>
	<path fill="#6A242F" d="M203,405.11c-3.084,5.339-10.086,9.823-19.099,9.472"/>
	<path fill="none" stroke="#414042" stroke-miterlimit="10" d="M203,405.11c-3.084,5.339-10.086,9.823-19.099,9.472"/>
</g>
<line fill="none" stroke="#414042" stroke-miterlimit="10" x1="135.25" y1="340.25" x2="135.25" y2="402.75"/>
<line fill="none" stroke="#414042" stroke-miterlimit="10" x1="203" y1="355.694" x2="203" y2="418.194"/>
<line fill="none" stroke="#414042" stroke-miterlimit="10" x1="140.376" y1="404.524" x2="191.38" y2="415.745"/>
<line fill="none" stroke="#414042" stroke-miterlimit="10" x1="117.705" y1="408.771" x2="212.47" y2="439.704"/>
<g>
	<path fill="#6A242F" d="M235.938,429.042"/>
	<g>
		<path fill="#414042" d="M235.902,429.296c0.406,0,0.563-0.508,0.07-0.508C235.567,428.788,235.41,429.296,235.902,429.296
			L235.902,429.296z"/>
	</g>
</g>
<g>
	<path fill="#6A242F" d="M235.896,429.125"/>
	<g>
		<path fill="#414042" d="M235.756,429.334c0.276,0,0.77-0.418,0.279-0.418C235.76,428.916,235.266,429.334,235.756,429.334
			L235.756,429.334z"/>
	</g>
</g>
<g>
	<path fill="#6A242F" d="M235.833,429.125"/>
	<g>
		<path fill="#414042" d="M235.596,429.264c0.141,0,0.821-0.276,0.475-0.276C235.93,428.986,235.25,429.264,235.596,429.264
			L235.596,429.264z"/>
	</g>
</g>
<g>
	<path fill="#6A242F" d="M235.771,429.063"/>
	<g>
		<path fill="#414042" d="M235.533,429.199c0.139,0,0.82-0.273,0.476-0.273C235.87,428.926,235.188,429.199,235.533,429.199
			L235.533,429.199z"/>
	</g>
</g>
<g>
	<path fill="#6A242F" d="M235.792,429.021"/>
	<g>
		<path fill="#414042" d="M235.763,429.298c0.422,0,0.548-0.555,0.058-0.555C235.398,428.743,235.272,429.298,235.763,429.298
			L235.763,429.298z"/>
	</g>
</g>
<g>
	<path fill="#6A242F" d="M235.792,429.104"/>
	<g>
		<path fill="#414042" d="M235.656,429.33c0.297,0,0.762-0.451,0.271-0.451C235.63,428.879,235.166,429.33,235.656,429.33
			L235.656,429.33z"/>
	</g>
</g>
<g>
	<path fill="#6A242F" d="M235.792,429.292"/>
	<g>
		<path fill="#414042" d="M235.649,429.494c0.266,0,0.773-0.404,0.284-0.404C235.667,429.09,235.16,429.494,235.649,429.494
			L235.649,429.494z"/>
	</g>
</g>
<g>
	<path fill="#6A242F" d="M235.771,429.354"/>
	<g>
		<path fill="#414042" d="M235.534,429.493c0.141,0,0.821-0.277,0.475-0.277C235.868,429.216,235.187,429.493,235.534,429.493
			L235.534,429.493z"/>
	</g>
</g>
<g>
	<path fill="#6A242F" d="M235.729,429.458"/>
	<g>
		<path fill="#414042" d="M235.596,429.691c0.307,0,0.757-0.468,0.267-0.468C235.556,429.225,235.105,429.691,235.596,429.691
			L235.596,429.691z"/>
	</g>
</g>
<g>
	<path fill="#6A242F" d="M235.729,429.25"/>
	<g>
		<path fill="#414042" d="M235.579,429.419c0.223,0,0.786-0.338,0.301-0.338C235.656,429.081,235.093,429.419,235.579,429.419
			L235.579,429.419z"/>
	</g>
</g>
<g>
	<path fill="#6A242F" d="M236.063,429.656"/>
	<g>
		<path fill="#414042" d="M235.826,429.799c0.146,0,0.823-0.285,0.473-0.285C236.153,429.514,235.476,429.799,235.826,429.799
			L235.826,429.799z"/>
	</g>
</g>
<g>
	<path fill="#6A242F" d="M235.875,429.75"/>
	<g>
		<path fill="#414042" d="M235.743,429.987c0.312,0,0.755-0.476,0.265-0.476C235.695,429.513,235.252,429.987,235.743,429.987
			L235.743,429.987z"/>
	</g>
</g>
<g>
	<path fill="#6A242F" d="M235.75,429.781"/>
	<g>
		<path fill="#414042" d="M235.596,429.939c0.209,0,0.791-0.316,0.308-0.316C235.695,429.623,235.113,429.939,235.596,429.939
			L235.596,429.939z"/>
	</g>
</g>
<g>
	<path fill="#6A242F" d="M235.75,429.656"/>
	<g>
		<path fill="#414042" d="M235.602,429.833c0.233,0,0.784-0.354,0.297-0.354C235.665,429.479,235.115,429.833,235.602,429.833
			L235.602,429.833z"/>
	</g>
</g>
<g>
	<path fill="#6A242F" d="M235.656,430.063"/>
	<g>
		<path fill="#414042" d="M235.508,430.242c0.237,0,0.783-0.359,0.296-0.359C235.567,429.883,235.021,430.242,235.508,430.242
			L235.508,430.242z"/>
	</g>
</g>
<g>
	<path fill="#6A242F" d="M235.781,430"/>
	<g>
		<path fill="#414042" d="M235.747,430.258c0.409,0,0.561-0.516,0.068-0.516C235.407,429.742,235.255,430.258,235.747,430.258
			L235.747,430.258z"/>
	</g>
</g>
<g>
	<path fill="#6A242F" d="M235.75,429.969"/>
	<g>
		<path fill="#414042" d="M235.612,430.188c0.288,0,0.766-0.437,0.275-0.437C235.6,429.751,235.122,430.188,235.612,430.188
			L235.612,430.188z"/>
	</g>
</g>
<g>
	<path fill="#6A242F" d="M235.719,429.938"/>
	<g>
		<path fill="#414042" d="M235.569,430.109c0.227,0,0.786-0.345,0.3-0.345C235.642,429.766,235.083,430.109,235.569,430.109
			L235.569,430.109z"/>
	</g>
</g>
<g>
	<path fill="#6A242F" d="M235.719,429.938"/>
	<g>
		<path fill="#414042" d="M235.581,430.152c0.283,0,0.767-0.431,0.276-0.431C235.574,429.723,235.09,430.152,235.581,430.152
			L235.581,430.152z"/>
	</g>
</g>
<g>
	<path fill="#6A242F" d="M235.656,429.813"/>
	<g>
		<path fill="#414042" d="M235.507,429.988c0.231,0,0.784-0.353,0.298-0.353C235.574,429.637,235.021,429.988,235.507,429.988
			L235.507,429.988z"/>
	</g>
</g>
<line fill="none" stroke="#414042" stroke-width="0.25" stroke-miterlimit="10" x1="235.297" y1="427.784" x2="235.334" y2="430.256"/>
<line fill="none" stroke="#414042" stroke-width="0.25" stroke-miterlimit="10" x1="234.636" y1="428.025" x2="234.636" y2="430.226"/>
<line fill="none" stroke="#414042" stroke-miterlimit="10" x1="202.716" y1="355.224" x2="235.379" y2="366.99"/>
<line fill="none" stroke="#414042" stroke-miterlimit="10" x1="104.628" y1="330.514" x2="135.655" y2="340.514"/>
<g>
	<ellipse fill="#999999" stroke="#848381" stroke-miterlimit="10" cx="97" cy="243.162" rx="54.12" ry="72.954"/>
	<ellipse fill="#999999" stroke="#848381" stroke-miterlimit="10" cx="97" cy="243.162" rx="54.12" ry="72.954"/>
</g>
<polygon fill="#FFFFFF" stroke="#FFFFFF" stroke-miterlimit="10" points="458.611,58.571 30.02,209.793 22.613,188.812 
	451.204,37.591 "/>
<rect x="40.017" y="292.31" transform="matrix(-0.9464 -0.3229 0.3229 -0.9464 79.1391 623.9241)" fill="#FFFFFF" stroke="#FFFFFF" stroke-miterlimit="10" width="102.614" height="26.175"/>
<rect x="356.647" y="381.252" transform="matrix(-0.9657 -0.2596 0.2596 -0.9657 699.5494 881.0679)" fill="#FFFFFF" stroke="#FFFFFF" stroke-miterlimit="10" width="102.616" height="26.177"/>
<g>
	<g>
		<path fill="#FFFFFF" d="M305.589,253.665c1.465,7.007,7.463,11.971,12.311,16.77c2.292,2.27,5.828-1.264,3.534-3.535
			c-4.213-4.171-9.749-8.471-11.022-14.563C309.751,249.18,304.931,250.519,305.589,253.665L305.589,253.665z"/>
	</g>
</g>
<g>
	<g>
		<path fill="#FFFFFF" d="M307.174,261.928c5.366,10,10.919,20.124,19.06,28.173c2.294,2.269,5.829-1.266,3.534-3.535
			c-7.836-7.75-13.11-17.536-18.274-27.161C309.967,256.563,305.65,259.088,307.174,261.928L307.174,261.928z"/>
	</g>
</g>
<g>
	<g>
		<path fill="#FFFFFF" d="M209.002,229.077c6.974,1.247,14.061,5.347,20.648,7.972c7.756,3.092,15.282,6.725,22.755,10.443
			c2.877,1.431,5.411-2.881,2.523-4.317c-7.326-3.645-14.702-7.222-22.293-10.284c-7.141-2.88-14.712-7.278-22.304-8.635
			C207.179,223.692,205.832,228.51,209.002,229.077L209.002,229.077z"/>
	</g>
</g>
<g>
	<g>
		<path fill="#FFFFFF" d="M253.923,246.665c2.185,10.581,9.631,18.853,15.918,27.264c1.906,2.55,6.25,0.063,4.317-2.522
			c-6.004-8.033-13.328-15.964-15.415-26.069C258.092,242.179,253.273,243.518,253.923,246.665L253.923,246.665z"/>
	</g>
</g>
<g>
	<g>
		<path fill="#FFFFFF" d="M275.508,257.595c3.19,6.136,3.868,13.158,5.748,19.736c0.884,3.095,5.709,1.778,4.821-1.329
			c-2.01-7.036-2.837-14.363-6.252-20.93C278.337,252.21,274.022,254.739,275.508,257.595L275.508,257.595z"/>
	</g>
</g>
<g>
	<g>
		<path fill="#FFFFFF" d="M286.841,261.738c-1.625,2.917-2.592,5.955-3.008,9.262c-0.17,1.355,1.266,2.5,2.5,2.5
			c1.491,0,2.33-1.148,2.5-2.5c0.3-2.389,1.16-4.647,2.325-6.738C292.73,261.443,288.411,258.922,286.841,261.738L286.841,261.738z"
			/>
	</g>
</g>
<g>
	<g>
		<path fill="#FFFFFF" d="M278.998,248.256c-4.85-1.031-8.257-0.209-11.118,4.01c-2.255,3.326-3.711,8.854-2.291,12.732
			c1.1,3.001,5.933,1.705,4.821-1.329c-0.838-2.288-0.024-5.043,0.896-7.201c0.485-1.139,1.241-2.544,2.241-3.314
			c1.121-0.864,2.891-0.337,4.121-0.076C280.813,253.746,282.151,248.926,278.998,248.256L278.998,248.256z"/>
	</g>
</g>
<g>
	<g>
		<path fill="#FFFFFF" d="M269,247.167c-1.812,0.019-7.689,1.088-8.589-1.165c-1.181-2.957-6.018-1.668-4.821,1.329
			c2.248,5.628,8.398,4.887,13.411,4.835C272.222,252.133,272.226,247.133,269,247.167L269,247.167z"/>
	</g>
</g>
<g>
	<g>
		<path fill="#FFFFFF" d="M263.335,245.744c1.632,0.275,2.95,0.893,4.354,1.771c1.109,0.63,1.78,1.579,2.01,2.845
			c-1.627,0.546-3.465,0.485-5.155,0.683c-5.468,0.64-10.869,0.507-16.354,0.433c-12.021-0.163-23.67-4.293-34.595-8.968
			c-2.93-1.253-5.48,3.052-2.523,4.317c16.197,6.931,32.141,10.701,49.842,9.551c3.752-0.244,14.512,0.381,13.976-5.918
			c-0.438-5.143-5.379-8.719-10.225-9.535C261.512,240.392,260.161,245.209,263.335,245.744L263.335,245.744z"/>
	</g>
</g>
<g>
	<g>
		<path fill="#FFFFFF" d="M219.002,239.744c5.236,1.956,12.264,3.975,15.173,9.184c0-0.841,0-1.682,0-2.522
			c0.077-0.077,0.153-0.153,0.23-0.23c-2.932,1.333-0.388,5.641,2.523,4.317c4.842-2.201-0.858-7.605-3.172-9.243
			c-4.071-2.882-8.786-4.594-13.425-6.327C217.304,233.792,216.01,238.626,219.002,239.744L219.002,239.744z"/>
	</g>
</g>
<g>
	<g>
		<path fill="#FFFFFF" d="M239,244.833c3.25-0.036,6.493-0.187,9.744-0.105c3.905,0.099,4.244,2.403,5.071,5.789
			c1.125,4.608,2.99,7.767,7.854,8.894c3.138,0.727,4.47-4.094,1.329-4.821c-5.607-1.298-3.955-8.628-7.186-12.438
			c-3.575-4.216-12.047-2.37-16.812-2.317C235.778,239.869,235.774,244.869,239,244.833L239,244.833z"/>
	</g>
</g>
<g>
	<g>
		<path fill="#FFFFFF" d="M287.508,214.738c-4.277,9.406-0.694,20.688-2.585,30.597c-0.602,3.15,4.217,4.494,4.821,1.329
			c0.93-4.87,0.791-9.729,0.756-14.665c-0.033-4.683-0.651-10.391,1.325-14.738C293.149,214.35,288.841,211.807,287.508,214.738
			L287.508,214.738z"/>
	</g>
</g>
<g>
	<g>
		<path fill="#FFFFFF" d="M162.738,219.492c4.323,2.17,8.108,5.244,12.337,7.595c5.613,3.12,11.338,6.036,17.069,8.932
			c9.939,5.021,20.186,10.116,30.857,13.392c3.091,0.949,4.402-3.878,1.329-4.821c-10.887-3.342-21.251-8.638-31.39-13.76
			c-5.157-2.605-10.276-5.281-15.342-8.059c-4.246-2.328-8.011-5.424-12.337-7.596C162.389,213.733,159.856,218.045,162.738,219.492
			L162.738,219.492z"/>
	</g>
</g>
<g>
	<g>
		<path fill="#FFFFFF" d="M221.072,244.159c12.503,9.38,22.823,21.282,35.333,30.667c2.582,1.937,5.07-2.407,2.523-4.317
			c-12.503-9.379-22.823-21.282-35.333-30.667C221.013,237.904,218.526,242.249,221.072,244.159L221.072,244.159z"/>
	</g>
</g>
<path fill="#FFFFFF" d="M222.262,244.841c-5.391-2.85-10.7-5.805-15.756-9.221c-4.479-3.026-7.808-7.556-12.578-10.113
	c-2.841-1.523-5.366,2.793-2.523,4.317c4.162,2.231,7.307,6.243,11.104,9.07c5.359,3.99,11.339,7.148,17.23,10.264
	C222.586,250.665,225.113,246.349,222.262,244.841z"/>
<g>
	<g>
		<path fill="#6A242F" d="M195.232,244.768c7.415,8.88,13.239,18.976,21.667,27c2.333,2.222,5.875-1.308,3.535-3.535
			c-8.417-8.014-14.257-18.127-21.667-27C196.699,238.754,193.181,242.312,195.232,244.768L195.232,244.768z"/>
	</g>
</g>
<g>
	<g>
		<path fill="#6A242F" d="M195.333,232.833c3.093,0.305,6.093,1.734,9.044,2.646c3.415,1.056,6.865,1.998,10.28,3.054
			c6.843,2.116,13.799,4.116,20.081,7.625c2.817,1.574,5.338-2.745,2.523-4.317c-6.167-3.446-12.888-5.48-19.597-7.585
			c-7.118-2.233-14.915-5.692-22.331-6.422C192.125,227.518,192.155,232.521,195.333,232.833L195.333,232.833z"/>
	</g>
</g>
<g>
	<g>
		<path fill="#6A242F" d="M223.589,247.998c1.892,4.591,6.245,6.567,10.588,8.438c6.65,2.865,13.563,4.762,20.607,6.382
			c16.264,3.741,32.476,7.389,48.579,11.803c31.967,8.763,64.244,15.843,97.304,18.879c3.212,0.295,3.184-4.708,0-5
			c-29.857-2.742-59.604-8.524-88.464-16.615c-15.008-4.208-30.073-8.21-45.3-11.552c-7.184-1.577-14.383-3.021-21.451-5.077
			c-4.314-1.254-15.063-3.783-17.042-8.587C227.2,243.731,222.361,245.017,223.589,247.998L223.589,247.998z"/>
	</g>
</g>
<path fill="#6A242F" d="M281.665,231.923c-7.299-2.438-15.151-0.869-22.665-0.756c-5.114,0.077-10.231,0.116-15.349,0.139
	c0.294-1.439-0.461-3.012-2.318-2.806c-3,0.333-6,0.667-9,1c-0.369,0.041-0.69,0.15-0.974,0.301
	c-3.562,0.489-7.123,0.992-10.685,1.486c-19.146-0.214-38.291-1.424-57.011-5.697c-3.139-0.717-4.472,4.104-1.329,4.821
	c8.699,1.986,17.485,3.327,26.32,4.223c-2.437,0.114-4.877,0.185-7.322,0.2c-3.221,0.045-3.227,5.02,0,5
	c19.533-0.271,39.067-0.093,58.6-0.228c7.866-0.054,15.678,0.197,23.538,0.316c6.403,0.097,13.043-0.384,18.791-3.43
	C284.282,235.421,283.608,232.572,281.665,231.923z"/>
<rect x="105.167" y="131.604" transform="matrix(-0.9432 0.3322 -0.3322 -0.9432 576.4869 271.9326)" fill="#999999" width="319.665" height="107.278"/>
<rect x="130.055" y="208.737" transform="matrix(-0.9641 -0.2657 0.2657 -0.9641 485.1368 617.4047)" fill="#999999" width="308.546" height="134.305"/>
<g>
	<ellipse fill="#FFFFFF" cx="458.611" cy="225.5" rx="48.793" ry="132.229"/>
	<ellipse fill="none" cx="458.611" cy="225.5" rx="48.793" ry="132.229"/>
</g>
<rect x="428.472" y="63.322" transform="matrix(-0.9895 0.1445 -0.1445 -0.9895 875.9113 66.6561)" fill="#FFFFFF" stroke="#FFFFFF" stroke-miterlimit="10" width="14.126" height="3.626"/>
<rect x="429.547" y="388.387" transform="matrix(-0.9963 -0.0854 0.0854 -0.9963 838.2958 816.2655)" fill="#FFFFFF" stroke="#FFFFFF" stroke-miterlimit="10" width="14.126" height="3.625"/>
<g>
	<g>
		<path fill="#6A242F" d="M116.915,358.604c3.349,5.665,4.18,13.561,4.637,20.034c0.081,1.145,2.987,0.488,2.897-0.776
			c-0.473-6.713-1.392-14.594-4.863-20.466C119.008,356.419,116.211,357.415,116.915,358.604L116.915,358.604z"/>
	</g>
</g>
<rect x="105.875" y="341.25" fill="#808080" stroke="#6A242F" stroke-miterlimit="10" width="28.688" height="50"/>
<path fill="#808080" d="M171.602,414.526c-4.338-1.466-8.354-2.296-12.875-2.935c-2.392-0.338-4.684-1.27-6.969-2.013
	c-2.407-0.782-5.032-0.89-7.309-2.051c-0.393-0.2-0.777-0.284-1.145-0.29c-2.833-1.942-5.358-3.731-7.509-6.619
	c-1.177-1.58-0.932-4.378-1.615-6.538c0.379-0.618,0.558-1.468,0.444-2.645c-0.153-1.58-1.672-2.963-3.232-2.415
	c-1.212-1.337-3.6-0.437-4.178,1.188c-0.021,0.06-0.046,0.117-0.068,0.176c-3.455-0.246-9.417,0.654-10.518,0.248
	c-1.336-0.494-3.488-1.448-5.221-1.27c-0.048-0.063-0.091-0.132-0.14-0.194c-0.808-1.038-1.929-0.982-2.821-0.421
	c-1.076,0.18-2.043,0.972-2.071,2.376c-0.1,4.962,4.199,9.915,7.98,12.656c5.701,4.135,12.99,6.145,19.321,9.002
	c0.792,0.356,1.552,0.291,2.187-0.009c3.654,0.998,7.954,2.448,11.614,1.823c0.45-0.076,0.805-0.256,1.078-0.499
	c1.835,0.461,3.681,0.891,5.437,1.474c5.302,1.759,10.922,1.965,16.281,3.775C173.336,420.383,174.64,415.553,171.602,414.526z"/>
<rect x="135.819" y="414.668" transform="matrix(-0.9775 -0.211 0.211 -0.9775 274.3068 867.9371)" fill="#808080" stroke="#6A242F" stroke-miterlimit="10" width="95.273" height="9.333"/>
<rect x="200.875" y="395.305" transform="matrix(-0.8293 -0.5588 0.5588 -0.8293 157.0774 878.4792)" fill="#6A242F" stroke="#6A242F" stroke-miterlimit="10" width="23.682" height="39.886"/>
<rect x="203.93" y="367.821" fill="#808080" stroke="#000000" stroke-miterlimit="10" width="30.188" height="62.117"/>
<g>
	<g>
		<path fill="#808080" d="M197.42,411.92c-0.548,0.689-1.328,1.12-2,1.688c-0.89,0.75-2.021,0.648-3.147,0.98
			c0.443,1.607,0.886,3.215,1.329,4.822c1.822-0.554,3.613-1.273,5.331-2.099c1.599-0.767,3.084-1.133,4.579-2.154
			c2.644-1.809,0.146-6.144-2.523-4.316c-0.612,0.418-1.125,0.894-1.849,1.096c-0.803,0.228-1.525,0.469-2.276,0.843
			c-1.474,0.731-3.016,1.332-4.59,1.81c-3.076,0.935-1.773,5.737,1.329,4.822c1.406-0.415,2.801-0.42,4.121-1.123
			c0.625-0.333,0.98-0.992,1.557-1.385c0.63-0.429,1.201-0.852,1.676-1.448C202.94,412.96,199.426,409.396,197.42,411.92
			L197.42,411.92z"/>
	</g>
</g>
<g>
	<g>
		<path fill="#6A242F" d="M201.3,409.736c-1.332,0.377-2.207,1.229-3.359,1.986c-2.472,1.629-5.009,3.086-8.001,3.429
			c-1.236,0.142-2.541,1.43-0.505,1.196c2.477-0.282,4.739-1.115,6.975-2.189c1.076-0.517,2.086-1.169,3.097-1.799
			c0.692-0.433,1.356-0.905,2.052-1.333c0.344-0.212,0.971-0.533,0.016-0.264C203.264,410.285,202.997,409.256,201.3,409.736
			L201.3,409.736z"/>
	</g>
</g>
<g>
	<g>
		<path fill="#808080" d="M231.139,429.744c-1.176,0.396-2.089,0.869-2.955,1.782c-1.117,1.179,1.064,1.427,1.804,1.095
			c0.496-0.222,0.875-0.437,1.322-0.744c1.263-0.869-0.108-1.82-1.171-1.445c-3.253,1.148-6.317,2.822-9.688,3.625
			c0.536,0.33,1.071,0.66,1.606,0.99c0.211-0.254,0.423-0.507,0.634-0.761c0.393-0.437,0.341-1.124-0.334-1.246
			c-2.316-0.418-4.561,0.313-6.893,0.128c0.136,0.508,0.272,1.015,0.408,1.521c0.846-0.567,1.841-0.854,2.74-1.318
			c0.711-0.367,1.309-1.273,0.245-1.645c-1.344-0.468-2.806,0.096-4.125-0.375c0.171,0.336,0.342,0.672,0.513,1.008
			c0.411-0.693,1.439-0.956,2.179-1.104c-0.536-0.33-1.071-0.66-1.606-0.99c-0.155,0.477-0.385,0.913-0.688,1.313
			c-0.286,0.453,0.08,0.878,0.513,1.007c2.403,0.714,5.05,0.244,7.518,0.685c-0.281-0.354-0.562-0.711-0.843-1.065
			c-0.417,0.595-3.6-0.94-4.635-0.663c-0.526,0.141-1.252,0.434-1.624,0.861c-0.844,0.971-1.839,1.255-2.921,1.853
			c-0.588,0.324-1.419,1.396-0.245,1.645c2.547,0.542,4.903-0.585,7.455-0.44c-0.311-0.272-0.622-0.545-0.933-0.817
			c-0.311,1.031-4.039,0.359-4.825,0.342c-1.22-0.028-3.073,1.624-1.055,1.913c1.408,0.202,2.854,0.213,4.25,0.438
			c0.097-0.613,0.194-1.226,0.291-1.838c-1.272,0.449-3.131,0.604-4.406,0.357c-0.461,0.618-0.923,1.236-1.385,1.854
			c1.079,0.069,2.771,0.227,3.795,0.565c0.207-0.594,0.414-1.187,0.621-1.778c-0.977,0.266-2.358,0.023-3.281-0.204
			c-1.109-0.275-3.435,1.369-1.715,1.795c1.788,0.443,3.675,0.659,5.469,0.171c0.791-0.215,1.923-1.348,0.621-1.778
			c-1.411-0.468-2.974-0.589-4.455-0.685c-0.914-0.059-3.08,1.529-1.385,1.854c2.147,0.412,4.518,0.342,6.594-0.392
			c1.032-0.364,1.872-1.583,0.291-1.838c-1.398-0.226-2.839-0.234-4.25-0.438c-0.352,0.639-0.703,1.276-1.055,1.914
			c2.895,0.067,7.682,1.177,8.8-2.533c0.156-0.521-0.556-0.797-0.933-0.817c-2.172-0.123-4.77,0.99-6.795,0.56
			c-0.082,0.549-0.163,1.097-0.245,1.645c0.841-0.464,1.919-0.462,2.641-1.147c0.914-0.866,0.439-1.278,1.489-0.837
			c0.502,0.212,1.083,0.257,1.62,0.284c1.796,0.094,3.846-0.058,4.944-1.624c0.44-0.627-0.38-0.982-0.843-1.065
			c-2.142-0.383-4.793,0.047-6.857-0.565c0.171,0.336,0.342,0.671,0.513,1.007c0.303-0.398,0.532-0.837,0.688-1.313
			c0.435-1.043-0.928-1.126-1.606-0.99c-1.615,0.321-3.58,1.183-4.446,2.646c-0.281,0.476,0.08,0.854,0.513,1.008
			c1.368,0.486,2.792-0.09,4.125,0.375c0.082-0.549,0.163-1.097,0.245-1.645c-1.142,0.59-2.313,0.961-3.385,1.682
			c-0.821,0.552-0.563,1.443,0.408,1.521c2.054,0.164,4.217-0.61,6.232-0.247c-0.111-0.415-0.223-0.831-0.334-1.246
			c-0.371,0.411-0.664,0.792-0.991,1.239c-0.703,0.961,1.126,1.104,1.606,0.99c3.387-0.808,6.42-2.473,9.688-3.625
			c-0.391-0.481-0.781-0.965-1.171-1.445c-0.226,0.127-0.452,0.254-0.678,0.381c0.602,0.364,1.203,0.729,1.804,1.095
			c0.348-0.238,0.696-0.479,1.045-0.718C233.324,430.928,232.889,429.153,231.139,429.744L231.139,429.744z"/>
	</g>
</g>
<path fill="none" stroke="#6A242F" stroke-miterlimit="10" d="M201.813,409.063c-0.618-0.029-0.497,0.623-0.5,1.063"/>
<path fill="none" stroke="#6A242F" stroke-miterlimit="10" d="M202.125,408.75c-0.578-0.094-1.265,0.583-1.704,0.922
	c-0.712,0.552-1.453,1.021-2.171,1.536c-1.416,1.017-2.741,1.572-4.363,2.179c-1.32,0.493-2.59,1.229-3.95,1.676"/>
<path fill="none" stroke="#6A242F" stroke-miterlimit="10" d="M194.5,413.688c-0.347,0.048-1.13,0.214-1.375,0.438"/>
<path fill="none" stroke="#6A242F" stroke-miterlimit="10" d="M194.625,414.125c-0.66,0-1.625-0.15-2.159,0.259
	c0.747,0.02,1.487-0.378,2.221-0.509"/>
<path fill="none" stroke="#6A242F" stroke-miterlimit="10" d="M190.688,414.563c-0.449,0.015-0.834,0.187-1.313,0.188"/>
<path fill="none" stroke="#6A242F" stroke-miterlimit="10" d="M195,412.938c0,0.271,0,0.543,0,0.813"/>
<path fill="none" stroke="#6A242F" stroke-miterlimit="10" d="M189.813,414.375c-0.263,0.124-0.536,0.291-0.75,0.5"/>
<path fill="none" stroke="#6A242F" stroke-miterlimit="10" d="M189.563,414.75c-0.786-0.217-2.031,0.781-2.875,0.938"/>
<path fill="none" stroke="#6A242F" stroke-miterlimit="10" d="M204.938,405.125c-0.223,0.564-1.122,1.153-1.567,1.579
	c-0.658,0.629-1.198,1.146-1.683,1.983"/>
<path fill="none" stroke="#6A242F" stroke-miterlimit="10" d="M202.875,406.75c-0.106,0.002-0.188,0.048-0.25,0.125"/>
<path fill="none" stroke="#6A242F" stroke-miterlimit="10" d="M202.5,408.125c-0.25,0.137-0.584,0.015-0.802,0.122
	c-0.29,0.144-0.396,0.474-0.635,0.69"/>
<path fill="none" stroke="#6A242F" stroke-miterlimit="10" d="M202.75,406.813c-0.224-0.017-0.421,0.072-0.563,0.25"/>
<path fill="none" stroke="#6A242F" stroke-miterlimit="10" d="M202.063,408.875c-0.429,0.863-0.487,1.852-0.813,2.75"/>
<path fill="none" stroke="#6A242F" stroke-miterlimit="10" d="M212.25,438c0.577,0.417,1.573,0.511,2.298,0.497
	c-0.708,0.217-1.664-0.019-2.236-0.435"/>
<path fill="#6A242F" stroke="#6A242F" stroke-miterlimit="10" d="M213.688,439.063c-0.831-0.006-1.642-0.179-2.25-0.75"/>
<rect x="115.603" y="418.586" transform="matrix(-0.9497 -0.3131 0.3131 -0.9497 193.8528 873.4629)" fill="#808080" stroke="#000000" stroke-miterlimit="10" width="102.916" height="5.161"/>
<path fill="none" stroke="#6A242F" stroke-miterlimit="10" d="M117.75,407.563c0.588,0.191,1.234,0.563,1.813,0.747
	c0.547,0.176,1.089,0.288,1.625,0.44c0.652,0.186,1.192,0.444,1.813,0.753c0.435,0.217,1.43,0.354,1.688,0.747"/>
<path fill="none" stroke="#6A242F" stroke-miterlimit="10" d="M117.938,408c0.324,0.58,1.52,0.545,2.186,0.672
	c0.447,0.086,0.958,0.271,1.376,0.467c0.467,0.22,0.993,0.317,1.438,0.55"/>
<path fill="none" stroke="#6A242F" stroke-miterlimit="10" d="M124.188,410.25c0.386-0.029,0.767,0.172,1.125,0.25"/>
<path fill="none" stroke="#6A242F" stroke-miterlimit="10" d="M129.438,411.875c0.47-0.052,0.842,0.143,1.269,0.248
	c0.589,0.146,1.526-0.081,2.037,0.266c0.219,0.149,0.194,0.392,0.494,0.538c0.272,0.134,0.525,0.078,0.809,0.148
	c0.463,0.114,1.035,0.208,1.455,0.425"/>
<path fill="none" stroke="#6A242F" stroke-miterlimit="10" d="M131.5,412.438c0.703,0.176,1.418,0.451,2.125,0.563
	c0.282,0.046,0.699-0.023,0.939,0.133c0.338,0.222,0.273,0.585,0.811,0.616"/>
<path fill="none" stroke="#6A242F" stroke-miterlimit="10" d="M129.313,411.875c0.167-0.017,0.31,0.025,0.438,0.125"/>
<path fill="none" stroke="#6A242F" stroke-miterlimit="10" d="M131.375,412.375c0.129,0.267,0.422,0.176,0.688,0.297
	c0.255,0.117,0.431,0.386,0.701,0.503c0.471,0.204,1.178,0.437,1.67,0.578c1.057,0.307,2.238,0.688,3.316,0.872
	c0.604,0.104,0.979,0.439,1.55,0.614c0.577,0.177,1.175,0.203,1.764,0.4c1.057,0.354,2.214,0.633,3.245,0.981
	c2.084,0.706,4.302,1.736,6.503,2.128"/>
<path fill="none" stroke="#6A242F" stroke-miterlimit="10" d="M106.125,392.313c0.812,1.111,0.848,2.65,1.346,3.874
	c0.62,1.524,1.345,2.826,2.468,4.063c1.074,1.183,2.333,2.133,3.561,3.139c1.171,0.959,2.223,2.122,3.623,2.784
	c0.31,0.146,0.627,0.237,0.939,0.392"/>
<path fill="none" stroke="#6A242F" stroke-miterlimit="10" d="M105.938,392.875c0.35,1.369,0.729,2.598,1.5,3.813
	c0.752,1.188,1.136,2.504,1.875,3.675c0.689,1.093,1.508,2.188,2.439,3.107c0.975,0.964,2.165,1.646,3.234,2.463
	c0.989,0.759,2.106,1.399,3.326,1.755"/>
<path fill="none" stroke="#6A242F" stroke-miterlimit="10" d="M105.813,391.875c0.095,0.394,0.328,0.782,0.313,1.188"/>
<path fill="none" stroke="#6A242F" stroke-miterlimit="10" d="M105.688,391.688c0.151,0.287,0.26,0.615,0.313,0.938"/>
<path fill="none" stroke="#6A242F" stroke-miterlimit="10" d="M106.25,391.375c0.072,0.362,0.141,0.742,0.313,1.063"/>
<path fill="none" stroke="#6A242F" stroke-miterlimit="10" d="M105.688,392.375c0.134,0.16,0,0.494,0,0.688"/>
<path fill="none" stroke="#6A242F" stroke-miterlimit="10" d="M105.938,394.438c-0.07,0.945,0.867,2.377,1.313,3.188
	c0.298,0.543,0.608,1.039,0.941,1.563c0.35,0.554,0.484,1.256,0.934,1.748"/>
<path fill="none" stroke="#6A242F" stroke-miterlimit="10" d="M111.313,402.313c1.045-0.111,1.834,0.934,2.313,1.688"/>
<path fill="none" stroke="#6A242F" stroke-miterlimit="10" d="M111.563,402.063c0.526,0.619,0.994,1.141,1.438,1.813"/>
<path fill="none" stroke="#6A242F" stroke-miterlimit="10" d="M112.813,403.188c0.582,0.493,0.942,1.325,1.5,1.875"/>
<path fill="none" stroke="#6A242F" stroke-miterlimit="10" d="M114.938,404.375c0.575,0.554,1.409,0.854,2.047,1.321
	c0.532,0.389,1.007,0.873,1.578,1.179"/>
<path fill="none" stroke="#6A242F" stroke-miterlimit="10" d="M114.25,404.688c0.384,0.25,0.788,0.565,1.125,0.875"/>
<path fill="none" stroke="#6A242F" stroke-miterlimit="10" d="M105.563,393.125c0,0.458,0,0.917,0,1.375"/>
<path fill="none" stroke="#6A242F" stroke-miterlimit="10" d="M106,394.688c0.337,0.806,0.939,1.438,1.438,2.125"/>
<path fill="none" stroke="#6A242F" stroke-miterlimit="10" d="M109,400.813c0.132,0.76,0.864,0.834,1.188,1.375"/>
<path fill="none" stroke="#6A242F" stroke-miterlimit="10" d="M110.313,402.5c0.364,0.229,0.71,0.534,1.125,0.625"/>
<path fill="none" stroke="#6A242F" stroke-miterlimit="10" d="M110,402.063c0.077,0.192,0.208,0.368,0.375,0.5"/>
<path fill="none" stroke="#6A242F" stroke-miterlimit="10" d="M112.5,404.625c0.364,1.011,2.131,1.642,3,2.188"/>
<path fill="none" stroke="#6A242F" stroke-miterlimit="10" d="M115.313,406.938c0.704,0.332,1.309,1.003,2.125,1"/>
<path fill="#808080" stroke="#6A242F" stroke-miterlimit="10" d="M123.063,406.25c0.125,0,0.25,0,0.375,0"/>
<path fill="none" stroke="#6A242F" stroke-miterlimit="10" d="M117.438,407.688c0.307,0.161,0.582,0.381,0.875,0.563"/>
<path fill="none" stroke="#6A242F" stroke-miterlimit="10" d="M134.5,391.813c-0.047,1.356,0.063,2.756,0.063,4.125"/>
<path fill="none" stroke="#6A242F" stroke-miterlimit="10" d="M134.438,396.5c0.735-0.095,0.997,1.203,0.938,1.75"/>
<path fill="none" stroke="#6A242F" stroke-miterlimit="10" d="M135.5,398.813c0.057,0.633,0.478,1.302,0.879,1.771
	c0.373,0.438,0.754,1.005,1.179,1.403c0.654,0.613,1.281,1.237,1.879,1.888"/>
<path fill="none" stroke="#6A242F" stroke-miterlimit="10" d="M138.688,403.313c0.817,0.947,1.393,2.095,2.375,2.875"/>
<path fill="none" stroke="#6A242F" stroke-miterlimit="10" d="M137.438,402.375c0.813,0.729,1.983,1.352,2.5,2.313"/>
<path fill="none" stroke="#6A242F" stroke-miterlimit="10" d="M140.188,404.25c0.599,0.043,1.211,0.777,1.25,1.375"/>
<path fill="none" stroke="#6A242F" stroke-miterlimit="10" d="M134.875,391.625c0.041,0.365,0.005,0.835-0.188,1.125"/>
<path fill="none" stroke="#6A242F" stroke-miterlimit="10" d="M109.417,336.333c1.024,1.143,2.653,1.555,4.227,1.689
	c2.229,0.19,4.452,0.307,6.623,0.764c1.787,0.376,3.609,0.841,5.463,1.113c1.141,0.167,2.538,0.716,3.687,0.6"/>
<path fill="none" stroke="#6A242F" stroke-miterlimit="10" d="M107,333.25c1.626-0.086,3.128,1.082,4.643,1.563
	c1.228,0.39,2.613,0.867,3.883,1.068c2.442,0.387,4.674,1.21,6.962,2.014c2.309,0.812,4.352,1.355,6.761,1.695
	c0.973,0.137,1.78,0.2,2.671,0.581c0.833,0.357,1.769,0.994,2.664,1.163"/>
<path fill="none" stroke="#6A242F" stroke-miterlimit="10" d="M106.167,333.5c0,3.144-0.199,6.105,0.75,9.167"/>
<path fill="none" stroke="#6A242F" stroke-miterlimit="10" d="M106.25,332.417c-0.15,0.917,1.155,2.402,1.598,3.218
	c1.799,3.32,4.734,5.722,7.319,8.365"/>
<g>
	<g>
		<path fill="#808080" d="M112.072,337.925c-0.399,0.175-2.563,0.115-2.99-0.002c0.612,0.804,1.224,1.607,1.835,2.411
			c-0.548,1.008-0.551,1.123-0.008,0.345c0.229-0.391,0.531-1.183,0.477-1.647c-0.176-1.509-0.183-3.182-0.642-4.612
			c-1.025,1.025-2.05,2.05-3.075,3.075c2.733,1.024,5.37,2.23,8.271,2.854c1.966,0.423,3.568,1.065,5.396,1.813
			c2.525,1.033,5.44,1.068,7.82,2.332c0.42-1.553,0.841-3.106,1.262-4.659c-6.123,0.616-15.967-4.432-17.083,4.917
			c-0.382,3.197,4.623,3.161,5,0c0.058-0.485,0.928-0.913-0.156-0.813c1.034-0.095,2.58,0.034,3.554,0.208
			c2.975,0.532,5.626,0.997,8.686,0.688c2.284-0.23,3.652-3.39,1.262-4.659c-2.046-1.086-4.012-1.345-6.264-1.835
			c-2.369-0.516-4.293-2.059-6.698-2.539c-3.383-0.675-6.504-1.923-9.719-3.127c-1.78-0.667-3.626,1.358-3.075,3.075
			c0.186,0.578-0.239,1.407,0,2.083c0.797,0.02,0.891,0.26,0.283,0.72c-0.338,0.577-0.354,1.143-0.289,1.783
			c0.113,1.123,0.682,2.094,1.835,2.411c2.031,0.558,4.937,0.334,6.843-0.502C117.542,340.95,114.995,336.643,112.072,337.925
			L112.072,337.925z"/>
	</g>
</g>
<path fill="none" stroke="#6A242F" stroke-miterlimit="10" d="M105.833,333.083c-0.042,1.187,0.189,2.366,0.25,3.583
	c0.068,1.354-0.016,2.733,0.083,4.083"/>
<path fill="none" stroke="#6A242F" stroke-miterlimit="10" d="M105.833,336.667c0,0.751,0,1.503,0,2.254
	c0,0.818-0.239,1.749-0.167,2.496"/>
<path fill="none" stroke="#6A242F" stroke-miterlimit="10" d="M105.667,335.167c0,0.444,0,0.889,0,1.333"/>
<path fill="none" stroke="#6A242F" stroke-miterlimit="10" d="M105.583,332.5c0.053,0.004,0.016-0.184,0.152-0.012
	c0.017,0.279,0.022,0.563,0.014,0.845"/>
<path fill="none" stroke="#6A242F" stroke-miterlimit="10" d="M105.75,332.083c0.55-0.117,1.069,0.379,1.583,0.648
	c0.736,0.385,1.614,0.477,2.334,0.852"/>
<path fill="none" stroke="#6A242F" stroke-miterlimit="10" d="M106.167,335c0,0.568-0.066,1.109-0.083,1.667"/>
<path fill="none" stroke="#6A242F" stroke-miterlimit="10" d="M105.833,335.583c0.079,0.627-0.212,1.198-0.167,1.833"/>
<path fill="none" stroke="#6A242F" stroke-miterlimit="10" d="M105.75,331.583c-0.121,0.519-0.092,1.107-0.25,1.583"/>
<path fill="#808080" stroke="#6A242F" stroke-miterlimit="10" d="M107.25,332.417c0.907,0,1.803-0.069,2.606,0.233
	c0.74,0.279,1.444,0.577,2.209,0.957c1.691,0.839,3.484,0.888,5.22,1.619c0.878,0.369,1.87,0.481,2.717,0.819
	c0.78,0.311,1.359,0.824,2.163,1.045c0.713,0.197,1.542,0.214,2.266,0.411c0.46,0.125,0.889,0.412,1.379,0.56
	c0.787,0.237,1.577,0.432,2.361,0.685c0.48,0.156,0.889,0.504,1.412,0.588"/>
<path fill="none" stroke="#6A242F" stroke-miterlimit="10" d="M105.833,332.083c-0.154-0.282-0.323-0.591-0.25-0.833"/>
<path fill="none" stroke="#6A242F" stroke-miterlimit="10" d="M106,331.583c0.627,0.009,1.139,0.466,1.583,0.833"/>
<path fill="none" stroke="#6A242F" stroke-miterlimit="10" d="M117.333,341.583c1.159,1.057,2.555,1.751,4,2.333"/>
<path fill="none" stroke="#6A242F" stroke-miterlimit="10" d="M129.667,338.75c0.317,0.271,0.562,0.602,0.833,0.917"/>
<path fill="none" stroke="#6A242F" stroke-miterlimit="10" d="M133.25,340.25c0.387,0.214,0.771,0.378,1.167,0.583"/>
<g>
	<g>
		<path fill="#808080" d="M205.072,363.992c4.469,2.925,8.347,3.688,13.591,3.774c4.88,0.08,8.136,4.252,12.754,4.65
			c0.793,0.068,1.823-0.51,2.159-1.238c0.066-0.143,0.131-0.286,0.197-0.429c0.475-1.032,0.464-2.182-0.391-3.03
			c-3.152-3.125-8.853-0.55-11.827-3.884c-1.571-1.761-3.002-2.305-5.323-2.697c-2.807-0.474-5.708-1.891-8.401-2.883
			c-1.551-0.572-3.16,0.891-3.165,2.411c-0.008,2.662-1.721,6.412,1.405,8.242c1.309,0.767,2.661,0.554,4.061,0.336
			c2.354-0.367,2.863-0.114,4.855,1.081c2.772,1.663,5.285-2.661,2.523-4.317c-1.969-1.181-3.378-2.646-5.781-2.406
			c-1.014,0.102-1.966,0.504-2.927,0.821c0.825-0.272,0.861-3.091,0.863-3.757c-1.055,0.804-2.11,1.607-3.165,2.411
			c1.729,0.637,3.434,1.401,5.167,2c2.139,0.739,4.793,0.562,6.352,2.294c1.27,1.412,2.255,1.99,4.034,2.592
			c1.483,0.501,6.755,0.264,7.792,1.292c-0.13-1.01-0.261-2.02-0.391-3.03c-0.065,0.143-0.131,0.286-0.197,0.429
			c0.72-0.413,1.439-0.826,2.159-1.238c-1.313-0.113-2.7-1.756-3.905-2.325c-1.986-0.938-4.59-1.645-6.746-2.108
			c-1.651-0.355-3.424-0.242-5.099-0.233c-3.008,0.016-5.636-1.481-8.072-3.075C204.889,357.903,202.386,362.234,205.072,363.992
			L205.072,363.992z"/>
	</g>
</g>
<path fill="none" stroke="#6A242F" stroke-miterlimit="10" d="M204.5,359.417c-0.954,1.227-0.667,3.382-0.667,4.838
	c0,1.622,0.122,2.87,0.5,4.329"/>
<path fill="none" stroke="#6A242F" stroke-miterlimit="10" d="M204.583,363.083c-0.009,1.747-0.886,3.283-0.833,5"/>
<path fill="none" stroke="#6A242F" stroke-miterlimit="10" d="M207.583,358c1.764,0,2.791,0.976,4.421,1.415
	c0.777,0.209,1.375,0.61,2.143,0.837c0.9,0.267,1.846,0.277,2.738,0.521c1.603,0.439,3.082,1.226,4.554,1.962
	c1.372,0.687,3.498,0.737,4.56,1.931"/>
<path fill="none" stroke="#6A242F" stroke-miterlimit="10" d="M215.833,360.833c0.503,0.699,1.885,1.071,2.681,1.417
	c1.128,0.49,2.301,0.911,3.486,1.333"/>
<path fill="none" stroke="#6A242F" stroke-miterlimit="10" d="M226.083,364.25c0.567,0.394,2.319,1.265,3.253,1.563
	c1.011,0.322,4.02,0.226,4.322,1.343c0.016,0.096-0.009,0.183-0.076,0.261"/>
<path fill="none" stroke="#6A242F" stroke-miterlimit="10" d="M231.5,367.25c0.688,0,2.493-0.412,2.583,0.583"/>
<path fill="none" stroke="#6A242F" stroke-miterlimit="10" d="M234.25,367.167c0.162,0.165,0.253,0.458,0.25,0.75"/>
<path fill="none" stroke="#6A242F" stroke-miterlimit="10" d="M204.167,358.5c0-0.222,0-0.444,0-0.667"/>
<path fill="none" stroke="#6A242F" stroke-miterlimit="10" d="M204.333,357.583c0.775-0.362,2.124,0.368,2.855,0.607
	c1.158,0.379,2.443,1.063,3.645,1.226"/>
<path fill="none" stroke="#6A242F" stroke-miterlimit="10" d="M204.75,357.083c-0.353,0.983,0.083,2.506,0.333,3.5"/>
<path fill="none" stroke="#6A242F" stroke-miterlimit="10" d="M203.583,356.917c-0.036,0.729,0.271,1.417,0.337,2.116
	c0.073,0.777-0.004,1.602-0.004,2.384"/>
<path fill="none" stroke="#6A242F" stroke-miterlimit="10" d="M204.833,357.5c1.157,0.645,2.685,1.925,3.167,3.167"/>
<path fill="none" stroke="#6A242F" stroke-miterlimit="10" d="M205.333,358.333c-0.196,0.465-0.002,1.607,0,2.25"/>
<path fill="none" stroke="#6A242F" stroke-miterlimit="10" d="M203.75,356.333c0.093,0.41,1.155,0.683,1.648,0.835
	c0.755,0.234,1.483,0.578,2.269,0.831"/>
<path fill="#6A242F" stroke="#6A242F" stroke-miterlimit="10" d="M203.667,355.833c0.27,0.85,0.233,1.981,0.833,2.667"/>
<path fill="none" stroke="#6A242F" stroke-miterlimit="10" d="M134.917,340.75c-0.475,0.015-0.895-0.011-1.333-0.167"/>
<path fill="#FFFFFF" stroke="#6A242F" stroke-miterlimit="10" d="M137.917,396.417c0,1.105-0.031,1.539,0.662,2.33
	c0.506,0.577,1.295,0.929,1.671,1.504"/>
<path fill="none" stroke="#FFFFFF" stroke-miterlimit="10" d="M138,395.583c-0.052,1.893,0.782,3.731,2,5.083"/>
<path fill="none" stroke="#FFFFFF" stroke-miterlimit="10" d="M136.917,396.333c-0.396,0.739,1.422,2.543,1.9,3.165
	c0.724,0.938,1.065,2.332,1.931,3.169c1.093,1.056,2.915,1.151,4.317,1.585c0.856,0.266,1.785,0.406,2.668,0.667
	c0.743,0.219,1.961,0.363,2.517,0.914"/>
<path fill="none" stroke="#FFFFFF" stroke-miterlimit="10" d="M138.25,396.417c1.498,2.302,3.176,5.187,5.667,6.583"/>
<path fill="none" stroke="#FFFFFF" stroke-miterlimit="10" d="M137.167,396.167c0.874,0.161,1.09,1.439,1.5,2.083"/>
<path fill="none" stroke="#FFFFFF" stroke-miterlimit="10" d="M138.667,398.5c0.186,0.894,1.005,1.402,1.583,2.021
	c0.737,0.79,1.727,1.645,2.167,2.646"/>
<path fill="none" stroke="#FFFFFF" stroke-miterlimit="10" d="M142.583,402.083c0.724,0.106,1.532,0.738,2.167,1.084"/>
<path fill="none" stroke="#FFFFFF" stroke-miterlimit="10" d="M142.25,401.333c0.839,0.96,2.657,1.514,3.75,2.25"/>
<path fill="none" stroke="#FFFFFF" stroke-miterlimit="10" d="M140.417,401.75c0.873,0.623,1.765,1.573,2.75,2"/>
<path fill="none" stroke="#FFFFFF" stroke-miterlimit="10" d="M142,402.333c1.42,0.431,2.766,1.134,4,1.834"/>
<path fill="none" stroke="#FFFFFF" stroke-miterlimit="10" d="M136.167,395.833c-0.104,1.336,1.017,2.641,1.685,3.733
	c0.73,1.192,2.178,2.905,3.565,3.267"/>
<path fill="none" stroke="#FFFFFF" stroke-miterlimit="10" d="M185.667,413.167c0.597-0.233,1.442-0.076,2.097-0.167
	c0.794-0.109,1.519-0.365,2.313-0.583c1.444-0.396,2.981-0.764,4.34-1.417c1.473-0.709,3.062-1.316,4.248-2.498
	c0.483-0.48,0.823-1.063,1.319-1.523c0.521-0.484,1.472-1.011,1.429-1.875c-0.083,0.047-0.165,0.096-0.246,0.146"/>
<path fill="none" stroke="#FFFFFF" stroke-miterlimit="10" d="M189,411.667c0.915,0,2.026,0.185,2.898-0.082
	c0.539-0.165,1.006-0.635,1.458-0.923c1.167-0.745,2.112-0.893,2.977-2.162"/>
<path fill="none" stroke="#FFFFFF" stroke-miterlimit="10" d="M185.667,413.167c1.264,0.713,2.63-0.028,3.823-0.481
	c1.062-0.402,2.32-0.578,3.344-1.019"/>
<path fill="none" stroke="#FFFFFF" stroke-miterlimit="10" d="M184.167,413c1.099,0.004,1.946,0.438,3,0.5"/>
<path fill="none" stroke="#FFFFFF" stroke-miterlimit="10" d="M184.917,413.417c0.505,0.159,1.695,0.423,2.083-0.167"/>
<path fill="none" stroke="#FFFFFF" stroke-miterlimit="10" d="M188.5,413c0.555-0.402,1.583-0.493,2.25-0.75"/>
<path fill="none" stroke="#FFFFFF" stroke-miterlimit="10" d="M189.5,412.833c1.504-0.28,2.938-0.863,4.333-1.583"/>
<path fill="none" stroke="#FFFFFF" stroke-miterlimit="10" d="M194.75,411c0.569,0.027,0.753-0.379,1.167-0.667"/>
<path fill="none" stroke="#FFFFFF" stroke-miterlimit="10" d="M192,412.25c0.933,0.054,1.591-0.793,2.333-1.167"/>
<path fill="none" stroke="#FFFFFF" stroke-miterlimit="10" d="M188.25,413.167c0.923-0.105,1.738-0.46,2.583-0.834"/>
<path fill="none" stroke="#FFFFFF" stroke-miterlimit="10" d="M187.75,412c0.542,0.018,0.916,0.367,1.417,0.5"/>
<path fill="none" stroke="#FFFFFF" stroke-miterlimit="10" d="M189.833,410.25c0.955-0.391,2.537,0.195,3.417,0.75"/>
<path fill="none" stroke="#FFFFFF" stroke-miterlimit="10" d="M190.25,411.5c0.892,0.587,4.343-1.344,5.333-1.833"/>
<path fill="none" stroke="#FFFFFF" stroke-miterlimit="10" d="M191.167,410.833c0.78-0.253,1.451-0.747,2.206-1.061
	c0.503-0.208,1.146-0.274,1.544-0.605"/>
<path fill="none" stroke="#FFFFFF" stroke-miterlimit="10" d="M199.083,407.167c0.028-0.028,0.056-0.056,0.083-0.084"/>
<path fill="none" stroke="#FFFFFF" stroke-miterlimit="10" d="M195.167,409c1.207-0.296,2.485-1.11,3.583-1.75"/>
<path fill="none" stroke="#FFFFFF" stroke-miterlimit="10" d="M194.833,410.167c0.794-0.672,1.894-0.993,2.833-1.417"/>
<path fill="none" stroke="#FFFFFF" stroke-miterlimit="10" d="M189.833,410.833c1.783-0.821,3.933-0.992,5.583-2.083"/>
<path fill="none" stroke="#FFFFFF" stroke-miterlimit="10" d="M190,411.167c0.786-0.169,1.509-0.496,2.333-0.417"/>
<path fill="none" stroke="#FFFFFF" stroke-miterlimit="10" d="M197,408.667c0.369-0.117,0.767-0.307,1.167-0.417"/>
<path fill="none" stroke="#FFFFFF" stroke-miterlimit="10" d="M197.75,407.5c0.403-0.155,0.848-0.292,1.167-0.583"/>
<path fill="none" stroke="#FFFFFF" stroke-miterlimit="10" d="M197.833,408.167c0.197,0.098,0.439,0.091,0.667,0"/>
<path fill="none" stroke="#FFFFFF" stroke-miterlimit="10" d="M198.833,407.083c0.127-0.491,0.181-1.01,0.5-1.416"/>
<rect x="130.991" y="174.168" transform="matrix(-0.9604 0.2785 -0.2785 -0.9604 601.1721 427.2574)" fill="none" width="278.492" height="164.327"/>
<text transform="matrix(0.9613 -0.2756 0.2756 0.9613 136.0693 293.6035)" fill="#FFFFFF" stroke="#FFFFFF" stroke-miterlimit="10" font-family="'SegoeUI-BoldItalic'" font-size="110">ZION</text>
<g>
	<path fill="none" d="M15.5,493.5c0,4.971,4.029,9,9,9h568c4.971,0,9-4.029,9-9v-472c0-4.971-4.029-9-9-9h-568c-4.971,0-9,4.029-9,9
		V493.5z"/>
</g>
<path fill="#696A6B" d="M123.369,343.631c-1.29-1.48-2.858-2.731-4.512-3.782c-2.302-1.463-5.502-0.491-6.841,1.794
	c-1.416,2.417-0.502,5.382,1.794,6.841c0.239,0.151,0.465,0.319,0.696,0.481c0.637,0.537,1.242,1.105,1.792,1.737
	c1.792,2.056,5.244,1.827,7.071,0C125.395,348.677,125.157,345.685,123.369,343.631z"/>
<path fill="#797979" d="M232.416,415.573c0.225-2.647,0.198-5.317,0.127-7.803c-0.292-10.233,0.583-20.4-0.709-30.604
	c-0.115-0.907-0.481-1.724-0.999-2.424c-0.104-0.313-0.223-0.616-0.348-0.915c1.555-2.357,1.55-5.872-1.464-7.146
	c-0.402-0.17-0.805-0.323-1.208-0.471c0.005-0.011,0.009-0.022,0.014-0.033c-2.021-0.748-3.739-2.249-5.833-2.833
	c-2.313-0.646-4.678-0.887-7-1.5c-0.647-0.171-1.252-0.215-1.816-0.165c-2.337-5.149-10.592-2.494-9.334,3.481
	c0.222,1.052,0.431,2.1,0.637,3.147c0.391,3.031,0.218,6.085,0.184,9.19c-0.05,4.578,0.648,9.151,1.345,13.663
	c0.228,1.476,0.389,2.956,0.515,4.436c-0.039,0.109-0.071,0.217-0.112,0.328c-1.448,3.875-2.185,8.689-4.951,11.873
	c-2.901,3.338-7.127,5.525-11.187,7.349c-7.517-0.825-15.001-1.864-22.385-3.545c-9.171-2.086-18.175-4.872-27.101-7.82
	c-2.386-0.788-4.742-1.617-7.083-2.498c1.322-1.688,1.756-4.173,1.673-6.241c-0.192-4.765-0.014-9.725-0.702-14.442
	c-0.565-3.875-1.742-7.586-2.85-11.319c0.399-7.195,0.874-14.388,0.859-21.59c-0.015-7.477-12.562-11.067-18.192-12.347
	c-2.483-0.565-4.398,0.604-5.421,2.31c-2.293,0.737-4.04,2.875-3.063,5.84c1.538,4.668,0.292,10.336-0.212,15.119
	c-0.771,7.309-0.633,14.618-0.633,21.956c0,6.434,0.51,15.845,6.119,20.018c0.053,0.12,0.1,0.242,0.155,0.361
	c1.756,3.8,4.632,6.317,8.563,7.705c1.636,0.577,3.016,0.3,4.049-0.45c4.62,1.933,9.324,3.658,14.08,5.221
	c11.228,3.689,22.563,7.139,34.202,9.272c2.47,0.453,5.02,0.93,7.608,1.377c0.461,1.412,1.525,2.7,3.228,3.413
	c7.795,3.264,16.191,6.823,24.428,7.441c2.596,1.676,5.324,3.287,8.405,3.726c4.746,0.675,9.51-1.186,13.331-3.919
	c2.83-2.024,3.938-4.447,3.999-7.902c0.037-2.098,0.012-4.192,0.074-6.29C233.46,418.772,232.874,417.197,232.416,415.573z"/>
<path fill="none" stroke="#797979" stroke-miterlimit="10" d="M106.667,346.833c-0.001,2.97,0.667,5.62,0.667,8.667"/>
<path fill="none" stroke="#797979" stroke-miterlimit="10" d="M106.5,336.833c1.132,3.556-0.628,7.859-0.667,11.5
	c-0.038,3.649-0.801,7.982,0.167,11.5"/>
<path fill="none" stroke="#797979" stroke-miterlimit="10" d="M107.167,348.333c-0.665,2.659-1.001,5.424-1,8.167"/>
<path fill="none" stroke="#797979" stroke-miterlimit="10" d="M106.5,332.667c0,3.737-0.333,7.375-0.333,11.167"/>
<path fill="none" stroke="#797979" stroke-miterlimit="10" d="M106.167,332.333c0,3,0,6,0,9"/>
<path fill="none" stroke="#797979" stroke-miterlimit="10" d="M106.833,332c2.09,1.077,4.16,2.248,6.33,2.834
	c2.358,0.637,4.736,0.865,7.137,1.62c4.721,1.485,9.055,3.342,13.533,5.046"/>
<path fill="none" stroke="#797979" stroke-miterlimit="10" d="M205.188,358.938c0.024,0.859,0.322,1.703,0.375,2.563"/>
<path fill="none" stroke="#797979" stroke-miterlimit="10" d="M205.188,358.438c0.841-0.12,2.183,0.603,2.813,1.188"/>
<path fill="none" stroke="#797979" stroke-miterlimit="10" d="M203.938,357.438c-0.351,0.888-0.063,2.56-0.063,3.575
	c0,0.909,0,1.818,0,2.728c0,2.005,0.313,3.883,0.313,5.884"/>
<path fill="none" stroke="#797979" stroke-miterlimit="10" d="M203.625,360.438c0.227,1.459,0.266,3.218,0.063,4.691
	c-0.163,1.176-0.607,2.936-0.188,4.122"/>
<path fill="none" stroke="#797979" stroke-miterlimit="10" d="M203.563,356.125c1.612,0.997,3.514,1.983,5.285,2.488
	c1.505,0.429,3.061,0.487,4.527,1.074"/>
<path fill="none" stroke="#797979" stroke-miterlimit="10" d="M203.75,356.875c-0.019,0.714,0.66,1.545,0.969,2.175
	c0.308,0.628,0.567,1.249,0.844,1.887"/>
<path fill="none" stroke="#797979" stroke-miterlimit="10" d="M204.688,357.5c0.236,1.354,0.25,2.66,0.25,4.063"/>
<path fill="none" stroke="#797979" stroke-miterlimit="10" d="M205.375,357.563c1.189,0.497,3.332,1.667,3.875,2.938"/>
<path fill="none" stroke="#797979" stroke-miterlimit="10" d="M203.313,355.938c-0.026,0.653,0.125,1.348,0.125,2.02
	c0,0.566,0.198,1.212,0.125,1.73"/>
<path fill="none" stroke="#797979" stroke-miterlimit="10" d="M203.625,356.063c0.525,1.058,1.471,2.047,2.255,2.93
	c0.272,0.307,0.574,0.573,0.933,0.695"/>
<path fill="none" stroke="#797979" stroke-miterlimit="10" d="M204.938,358.875c-0.341,1.171-0.427,2.438-0.75,3.625"/>
<path fill="none" stroke="#797979" stroke-miterlimit="10" d="M203.625,359.313c0,0.375,0,0.75,0,1.125"/>
<path fill="none" stroke="#797979" stroke-miterlimit="10" d="M205.188,356.313c0.913-0.012,1.799,0.753,2.675,0.94
	c0.826,0.177,1.42,0.441,2.153,0.796c1.444,0.697,3.186,1.461,4.736,1.871c1.158,0.307,2.268,0.895,3.433,1.255
	c1.239,0.384,2.462,0.935,3.75,1.312c1.083,0.317,2.063,0.943,3.137,1.31c1.213,0.414,2.393,0.74,3.556,1.247
	c1.031,0.449,2.083,0.947,3.122,1.343c0.419,0.16,1.098,0.323,1.436,0.612c0.433,0.37,0.438,1.109,0.564,1.626"/>
<path fill="none" stroke="#797979" stroke-miterlimit="10" d="M207.875,357.813c2.125,1.134,4.256,2.34,6.606,2.969
	c1.697,0.455,3.413,1,5.014,1.597c0.976,0.364,1.962,0.574,2.964,0.925c0.951,0.333,1.908,0.723,2.87,1.076
	c1.473,0.542,2.904,1.247,4.378,1.825c1.107,0.435,2.654,0.962,3.292,2.045"/>
<path fill="none" stroke="#797979" stroke-miterlimit="10" d="M214.438,361.313c0.575,0.437,1.483,0.655,2.162,0.94
	c0.536,0.226,1.003,0.519,1.52,0.752c0.925,0.417,2.027,0.516,2.944,0.933"/>
<path fill="none" stroke="#797979" stroke-miterlimit="10" d="M231.688,367.313c0.84,0.501,1.896,1.155,2.438,2"/>
<path fill="none" stroke="#797979" stroke-miterlimit="10" d="M233.188,366.625c1.149-0.138,1.313,0.994,1.313,1.813"/>
<path fill="none" stroke="#797979" stroke-miterlimit="10" d="M232,365.813c0.878-0.163,1.776,1.089,1.879,1.84
	c0.119,0.861,0.012,1.754,0.057,2.625c0.085,1.669,0.307,3.472,0.063,5.147c-0.222,1.52-0.17,3.123-0.186,4.705
	c-0.014,1.418-0.115,2.752,0.065,4.149c0.009,0.073,0.01,0.207-0.003,0.284"/>
<path fill="none" stroke="#797979" stroke-miterlimit="10" d="M233.125,429c0.02,0.663,0.16,1.295-0.075,1.92
	c-0.192,0.512-0.405,1.012-0.66,1.521c-0.52,1.038-1.205,1.86-2.198,2.573c-0.7,0.503-1.458,0.822-2.236,1.16
	c-1.088,0.474-2.086,1.091-3.171,1.609c-1.179,0.563-2.411,0.64-3.664,0.904c-1.178,0.249-2.183,0.438-3.412,0.438
	c-0.861,0-1.723,0-2.584,0"/>
<path fill="none" stroke="#797979" stroke-miterlimit="10" d="M233.75,430c-0.466,0.083-0.987,1.083-1.37,1.42
	c-0.636,0.561-1.183,1.196-1.759,1.85c-0.31,0.352-0.546,0.708-0.808,1.09c-0.332,0.484-0.706,0.624-1.188,0.953"/>
<path fill="none" stroke="#797979" stroke-miterlimit="10" d="M234,430.438c-0.302,0.619-0.702,1.205-1.063,1.813"/>
<path fill="none" stroke="#797979" stroke-miterlimit="10" d="M232.625,431.688c-0.356,0.395-1.111,0.67-1.384,1.073
	c-0.259,0.381,0.005,1.03,0.009,1.552"/>
<path fill="none" stroke="#797979" stroke-miterlimit="10" d="M229.563,434.563c-0.436,0.22-1.184,0.692-1.5,1.063"/>
<path fill="none" stroke="#797979" stroke-miterlimit="10" d="M229.375,435.75c-0.75,0.771-1.748,0.986-2.644,1.549
	c-0.693,0.435-1.259,0.772-2.085,0.985c-0.691,0.179-1.437,0.137-2.133,0.366c-1.693,0.557-3.111,1.205-4.925,1.225
	c-1.215,0.013-2.335-0.095-3.463-0.563"/>
<path fill="none" stroke="#797979" stroke-miterlimit="10" d="M187.875,414.938c1.75,0,3.755,0.306,5.25-0.625"/>
<path fill="none" stroke="#797979" stroke-miterlimit="10" d="M188.875,414.188c0.849,0.026,1.745,0.001,2.604,0
	c0.844-0.001,2.244,0.29,2.959-0.25"/>
<path fill="none" stroke="#797979" stroke-miterlimit="10" d="M191.938,413.875c0.734-0.124,1.761-0.776,2.431-1.144
	c0.537-0.294,1.124-0.689,1.694-1.044"/>
<path fill="none" stroke="#797979" stroke-miterlimit="10" d="M195.75,412.125c1.901-0.594,4.235-1.842,5.503-3.424
	c0.32-0.399,0.646-0.987,0.936-1.465c0.379-0.625,0.871-1.221,1.249-1.861"/>
<path fill="none" stroke="#797979" stroke-miterlimit="10" d="M152.125,406.938c1.269,0.611,2.848,0.933,4.183,1.3
	c0.819,0.226,1.709,0.165,2.487,0.401c0.674,0.205,1.319,0.495,2.022,0.755c0.985,0.363,2.048,0.377,3.075,0.546
	c1.542,0.254,3.119,0.842,4.664,1.188c1.405,0.315,2.725,0.769,4.134,1.073c1.136,0.246,2.341,0.286,3.456,0.609
	c1.094,0.317,2.275,0.389,3.413,0.547c3.022,0.423,5.628,1.871,8.442,3.08"/>
<path fill="none" stroke="#797979" stroke-miterlimit="10" d="M157.75,408.625c0.731,0.614,2.024,0.561,2.924,0.699
	c1.049,0.162,2.025,0.585,2.979,0.975c2.354,0.961,4.939,1.161,7.347,2.014"/>
<path fill="none" stroke="#797979" stroke-miterlimit="10" d="M129.813,411.438c0.761-0.24,1.312,0.122,1.981,0.366
	c0.519,0.188,1.107,0.266,1.645,0.446c0.656,0.22,1.135,0.569,1.733,0.906c0.727,0.409,1.455,0.775,2.272,0.951
	c1.007,0.218,1.919,0.214,2.854,0.656c2.805,1.326,5.927,2.188,8.889,3.189c0.854,0.289,1.714,0.519,2.562,0.797"/>
<path fill="none" stroke="#797979" stroke-miterlimit="10" d="M128.813,411.313c0.869,0.726,2.377,0.794,3.451,1.139
	c1.041,0.334,2.006,0.67,3.063,0.983c1.122,0.333,2.225,0.707,3.238,1.234c0.504,0.262,0.957,0.403,1.502,0.578
	c0.416,0.133,1.193,0.267,1.496,0.628"/>
<path fill="none" stroke="#797979" stroke-miterlimit="10" d="M130.875,412.375c0.65,0.679,1.79,0.757,2.661,0.893
	c0.809,0.125,1.427,0.411,2.138,0.735c1.205,0.552,2.494,0.786,3.747,1.189c1.294,0.417,2.699,1,4.079,1.186
	c1.43,0.191,2.501,0.689,3.825,1.233c1.273,0.522,2.813,1.353,4.175,1.389"/>
<path fill="none" stroke="#797979" stroke-miterlimit="10" d="M133,413.438c0.851-0.011,1.521,0.631,2.375,0.688"/>
<path fill="none" stroke="#797979" stroke-miterlimit="10" d="M143.188,416.438c0.43-0.042,0.778,0.49,1.142,0.67
	c0.393,0.194,0.919,0.239,1.358,0.333c0.943,0.203,1.848,0.925,2.813,0.997"/>
<path fill="none" stroke="#797979" stroke-miterlimit="10" d="M134.813,397.125c0.012,1.087,0.98,2.728,1.625,3.63
	c0.476,0.666,0.961,1.405,1.608,1.935c0.62,0.506,1.386,0.87,1.83,1.561"/>
<path fill="none" stroke="#797979" stroke-miterlimit="10" d="M109.75,401.375c1.102,1.044,2.228,2.083,3.326,3.124
	c0.943,0.893,1.549,1.694,2.674,2.378c1.262,0.767,2.784,1.441,4.142,2.049c1.279,0.571,2.65,0.995,3.999,1.309
	c1.933,0.449,3.93,1.128,5.797,1.578"/>
<path fill="none" stroke="#797979" stroke-miterlimit="10" d="M121.5,408.313c1.488,0.549,2.996,0.883,4.497,1.324
	c0.786,0.231,1.377,0.427,2.191,0.426"/>
<path fill="none" stroke="#797979" stroke-miterlimit="10" d="M121.375,408.563c0.223,1.314,3.848,1.375,4.813,1.375"/>
<path fill="none" stroke="#797979" stroke-miterlimit="10" d="M110.125,402.063c-0.57,1.097,1.115,1.517,1.593,1.935
	c0.339,0.296,0.479,0.774,0.829,1.081c0.42,0.368,1.019,0.648,1.517,0.908c1.55,0.81,3.325,3.114,5.249,2.826"/>
<path fill="none" stroke="#797979" stroke-miterlimit="10" d="M106.938,395.375c-0.297,0.472,0.528,2.26,0.829,2.737
	c0.409,0.651,0.889,1.317,1.373,1.935c0.638,0.814,1.387,1.273,2.176,1.903c0.66,0.526,1.297,1.157,1.998,1.612"/>
<path fill="none" stroke="#797979" stroke-miterlimit="10" d="M107.563,395.313c0.839,0.916,1.661,2.12,2.341,3.167
	c0.643,0.99,1.385,1.935,2.097,2.833"/>
<path fill="none" stroke="#797979" stroke-miterlimit="10" d="M107.875,396.75c-0.335,0.898,0.904,2.321,1.298,3.098
	c0.329,0.647,0.75,1.247,1.202,1.777"/>
<path fill="none" stroke="#797979" stroke-miterlimit="10" d="M107.625,395.688c-0.152,1.114,1.575,2.598,2.22,3.359
	c0.521,0.614,0.98,1.215,1.58,1.753c0.342,0.308,0.802,0.591,1.075,0.95"/>
<path fill="none" stroke="#797979" stroke-miterlimit="10" d="M109.438,398.813c0.104,0.729,1.082,1.421,1.509,2.007
	c0.253,0.349,0.378,0.689,0.554,1.056"/>
<path fill="none" stroke="#797979" stroke-miterlimit="10" d="M106.125,394.563c0,1.827,0.717,3.12,1.561,4.656
	c0.572,1.04,1.417,2.698,2.564,3.219"/>
<path fill="none" stroke="#797979" stroke-miterlimit="10" d="M105.625,390.125c0,2.054,0.031,3.733,1.125,5.5"/>
<path fill="none" stroke="#797979" stroke-miterlimit="10" d="M108.313,397.875c-1.081-1.821-1.242-4-2.25-5.813"/>
<path fill="none" stroke="#797979" stroke-miterlimit="10" d="M105.438,391.313c0,1.355-0.352,3.246,0.813,4.188"/>
<path fill="none" stroke="#797979" stroke-miterlimit="10" d="M105.5,387.438c0.28,0.397,0.188,1.288,0.264,1.813
	c0.077,0.531,0.229,1.08,0.174,1.625"/>
<path fill="none" stroke="#797979" stroke-miterlimit="10" d="M134.75,352.688c0.444,1.632,0.438,3.243,0.438,4.953
	c0,1.469,0.125,2.885,0.125,4.342c0,1.542,0,3.084,0,4.625c0,1.765-0.217,3.366-0.375,5.092c-0.134,1.465,0,3.009,0,4.478
	c0,0.986,0.386,2.997-0.25,3.76"/>
<path fill="none" stroke="#797979" stroke-miterlimit="10" d="M134.25,354.188c0.417,0.325,0.121,2.413,0.061,3.017
	c-0.1,0.998-0.124,1.972-0.124,2.983c0,1.557,0.125,3.087,0.125,4.626c0,1.573,0.12,3.212-0.066,4.766
	c-0.229,1.922-0.622,3.794-0.622,5.813c0,1.119,0.07,2.137,0.298,3.233c0.218,1.043,0.386,2.205,0.702,3.188"/>
<path fill="none" stroke="#797979" stroke-miterlimit="10" d="M134.625,372.188c-0.694,2.273-0.75,4.919-0.75,7.313"/>
<path fill="none" stroke="#797979" stroke-miterlimit="10" d="M134.938,375.688c0,1.69,0.049,3.41-0.125,5.063"/>
<path fill="none" stroke="#797979" stroke-miterlimit="10" d="M134.438,377.125c-0.055,0.849-0.063,2.091-0.375,2.875"/>
<path fill="none" stroke="#797979" stroke-miterlimit="10" d="M134.938,379.688c-0.689,1.181-0.563,3.017-0.563,4.375"/>
<path fill="none" stroke="#797979" stroke-miterlimit="10" d="M135,380.938c-0.119,0.641-0.224,1.244-0.313,1.875"/>
<path fill="none" stroke="#797979" stroke-miterlimit="10" d="M134.438,347.563c0,2.734,0.365,5.403,0.375,8.125"/>
<path fill="none" stroke="#797979" stroke-miterlimit="10" d="M134.375,350.688c-0.154,1.568-0.372,3.123-0.642,4.674
	c-0.112,0.643-0.294,1.36-0.296,2.014"/>
<path fill="none" stroke="#797979" stroke-miterlimit="10" d="M134.688,358.875c0,0.833,0.002,1.667,0,2.5
	c-0.002,0.883,0.228,1.735,0.188,2.625"/>
<path fill="none" stroke="#797979" stroke-miterlimit="10" d="M134.5,342.375c-0.392,0.854-0.442,2.296-0.438,3.219
	c0.003,0.595-0.029,1.197-0.001,1.792c0.034,0.735,0.288,1.435,0.251,2.177"/>
<path fill="none" stroke="#797979" stroke-miterlimit="10" d="M134.938,342.813c0,1.984-0.5,3.837-0.5,5.813"/>
<path fill="none" stroke="#797979" stroke-miterlimit="10" d="M134.25,340.5c0,1,0,2,0,3"/>
<path fill="none" stroke="#797979" stroke-miterlimit="10" d="M134.625,342.75c0-0.667-0.256-1.45-0.188-2.063"/>
<path fill="none" stroke="#797979" stroke-miterlimit="10" d="M123,336.75c1.348,0.561,2.674,1.189,4.063,1.536
	c0.846,0.212,1.683,0.403,2.488,0.778c0.907,0.422,1.805,0.718,2.792,0.936c0.796,0.175,1.75,0.358,2.407,0.813"/>
<path fill="none" stroke="#797979" stroke-miterlimit="10" d="M110.313,332.75c0.583-0.018,1.235,0.597,1.779,0.816
	c0.532,0.214,1.085,0.307,1.609,0.419c0.926,0.198,1.766,0.571,2.626,0.88c1.656,0.594,3.366,0.994,4.986,1.823"/>
<path fill="none" stroke="#797979" stroke-miterlimit="10" d="M105.5,359.5c0.177,0.985,0.107,2.151,0.375,3.125"/>
<path fill="none" stroke="#797979" stroke-miterlimit="10" d="M105.625,335.125c-0.001,1.679-0.09,3.569,0.236,5.188
	c0.173,0.862,0.201,1.711,0.201,2.625c0,0.896,0.184,2.014-0.063,2.875"/>
<path fill="none" stroke="#797979" stroke-miterlimit="10" d="M105.313,340.25c0.344,0.877,0.063,2.411,0.063,3.374
	c0,1.206,0.104,2.383,0.188,3.564"/>
<path fill="none" stroke="#797979" stroke-miterlimit="10" d="M105.875,332.75c-0.414,0.375,0.001,1.803-0.188,2.375"/>
<path fill="none" stroke="#797979" stroke-miterlimit="10" d="M105.5,332.688c-0.007,0.971-0.188,1.895-0.188,2.875"/>
<path fill="none" stroke="#797979" stroke-miterlimit="10" d="M105.625,332.063c0.701,0.065,1.368,0.881,1.875,1.327
	c0.574,0.505,1.243,0.739,1.938,1.048"/>
<path fill="none" stroke="#797979" stroke-miterlimit="10" d="M108.438,332.375c0.472,0.171,1.766,0.536,2,1"/>
<path fill="none" stroke="#797979" stroke-miterlimit="10" d="M105.438,331.313c0.729-0.741,2.44,0.652,3.188,0.875"/>
<path fill="none" stroke="#797979" stroke-miterlimit="10" d="M105.438,331.063c-0.602,0.13-0.194,1.936,0,2.375"/>
<path fill="none" stroke="#797979" stroke-miterlimit="10" d="M105.5,331.375c0.757,0,2.079,0.012,2.5,0.75"/>
<path fill="none" stroke="#797979" stroke-miterlimit="10" d="M106.688,331.625c0.897,0.119,2.347,1.547,3,2.188"/>
<path fill="none" stroke="#797979" stroke-miterlimit="10" d="M108.188,332.688c0.013,0.854,0.512,1.652,0.567,2.531
	c0.041,0.65-0.004,1.317-0.004,1.969"/>
<path fill="none" stroke="#797979" stroke-miterlimit="10" d="M107.063,332.75c0.826,1.179,1.003,3.119,1.147,4.507
	c0.061,0.591,0.207,1.274,0.166,1.868"/>
<path fill="none" stroke="#797979" stroke-miterlimit="10" d="M107.375,334.813c-0.111,1.467,0.427,3.011,0.438,4.5"/>
<path fill="none" stroke="#797979" stroke-miterlimit="10" d="M109.938,334.438c0.137,1.41,0.623,2.692,0.625,4.125"/>
<path fill="none" stroke="#797979" stroke-miterlimit="10" d="M110.938,334.938c0.988,0.676,1.761,1.521,2.5,2.438"/>
<path fill="none" stroke="#797979" stroke-miterlimit="10" d="M108.563,332.125c0.403-0.262,1.278,0.445,1.625,0.688"/>
<path fill="none" stroke="#797979" stroke-miterlimit="10" d="M125,339.5c0.802-0.081,1.903,0.204,2.687,0.438
	c1.475,0.439,3.182,0.941,4.038,2.285c0.647,1.016,0.703,1.786,0.919,2.951c0.212,1.137,0.904,2.409,0.794,3.577"/>
<path fill="none" stroke="#797979" stroke-miterlimit="10" d="M133,341.5c-0.033,0.587,0.212,1.282,0.292,1.871
	c0.297,2.173,0.705,4.607,0.083,6.754"/>
<path fill="none" stroke="#797979" stroke-miterlimit="10" d="M130.375,341.75c1.157,2.512,2.634,5.303,2.625,8.12
	c-0.006,1.667,0.19,3.297,0.188,4.944c-0.003,2.101-0.205,4.173-0.313,6.271c-0.109,2.124-0.063,4.271-0.063,6.404
	c0,1.083,0.109,2.233-0.026,3.305c-0.121,0.961,0.11,2.482-0.224,3.331"/>
</svg>
