<?xml version="1.0" encoding="utf-8"?>
<!-- Generator: Adobe Illustrator 16.0.0, SVG Export Plug-In . SVG Version: 6.00 Build 0)  -->
<!DOCTYPE svg PUBLIC "-//W3C//DTD SVG 1.1//EN" "http://www.w3.org/Graphics/SVG/1.1/DTD/svg11.dtd">
<svg version="1.1" id="Layer_1" xmlns="http://www.w3.org/2000/svg" xmlns:xlink="http://www.w3.org/1999/xlink" x="0px" y="0px"
	 width="612px" height="792px" viewBox="0 0 612 792" enable-background="new 0 0 612 792" xml:space="preserve">
<g>
	<path fill="none" d="M596,764.808c0,0.932-0.9,1.692-2,1.692H18c-1.1,0-2-0.762-2-1.692V312.192c0-0.931,0.9-1.692,2-1.692h576
		c1.1,0,2,0.761,2,1.692V764.808z"/>
	<path fill="none" d="M596,764.808c0,0.932-0.9,1.692-2,1.692H18c-1.1,0-2-0.762-2-1.692V312.192c0-0.931,0.9-1.692,2-1.692h576
		c1.1,0,2,0.761,2,1.692V764.808z"/>
</g>
<path fill="#818281" d="M529.281,384.245H503.4v-6.158c0-18.447-18.771-33.54-41.72-33.54h-0.614
	c-22.947,0-41.721,15.093-41.721,33.54v6.158H188.622v-6.158c0-18.447-18.773-33.54-41.719-33.54h-0.618
	c-22.946,0-41.719,15.093-41.719,33.54v6.158H78.719c-22.945,0-41.719,15.094-41.719,33.54v320.676
	C37,756.905,55.774,772,78.719,772h450.563C552.227,772,571,756.905,571,738.461V417.785
	C571,399.339,552.227,384.245,529.281,384.245z M436.033,378.087c0-11.083,11.211-20.125,25.033-20.125h0.614
	c13.787,0,25.031,9.041,25.031,20.125v59.666c0,11.082-11.244,20.123-25.031,20.123h-0.614c-13.822,0-25.033-9.041-25.033-20.123
	V378.087z M121.252,378.087c0-11.083,11.213-20.125,25.033-20.125h0.618c13.786,0,25.031,9.041,25.031,20.125v59.666
	c0,11.082-11.245,20.123-25.031,20.123h-0.618c-13.82,0-25.033-9.041-25.033-20.123V378.087z M529.281,745.168H78.719
	c-4.53,0-8.342-3.093-8.342-6.707V502.686h467.249v235.775C537.625,742.075,533.813,745.168,529.281,745.168z"/>
<rect x="103" y="539" fill="none" width="400" height="187"/>
<text transform="matrix(1 0 0 1 230.4971 590.1191)" font-family="'MyriadPro-Bold'" font-size="72">Zion</text>
<text transform="matrix(1 0 0 1 225.9609 686.1191)" font-family="'MyriadPro-Regular'" font-size="80">MBC</text>
</svg>
