<?xml version="1.0" encoding="utf-8"?>
<!-- Generator: Adobe Illustrator 16.0.0, SVG Export Plug-In . SVG Version: 6.00 Build 0)  -->
<!DOCTYPE svg PUBLIC "-//W3C//DTD SVG 1.1//EN" "http://www.w3.org/Graphics/SVG/1.1/DTD/svg11.dtd">
<svg version="1.1" id="Layer_1" xmlns="http://www.w3.org/2000/svg" xmlns:xlink="http://www.w3.org/1999/xlink" x="0px" y="0px"
	 width="612px" height="792px" viewBox="0 0 612 792" enable-background="new 0 0 612 792" xml:space="preserve">
<g>
	<path fill="none" d="M594,497.808c0,0.931-0.9,1.692-2,1.692H16c-1.1,0-2-0.762-2-1.692V45.192c0-0.931,0.9-1.692,2-1.692h576
		c1.1,0,2,0.761,2,1.692V497.808z"/>
	<path fill="none" d="M594,497.808c0,0.931-0.9,1.692-2,1.692H16c-1.1,0-2-0.762-2-1.692V45.192c0-0.931,0.9-1.692,2-1.692h576
		c1.1,0,2,0.761,2,1.692V497.808z"/>
</g>
<path fill="#818281" d="M527.281,117.245H501.4v-6.158c0-18.447-18.771-33.54-41.719-33.54h-0.615
	c-22.947,0-41.72,15.093-41.72,33.54v6.158H186.622v-6.158c0-18.447-18.773-33.54-41.719-33.54h-0.618
	c-22.946,0-41.719,15.093-41.719,33.54v6.158H76.719c-22.945,0-41.719,15.094-41.719,33.54v320.676
	C35,489.905,53.774,505,76.719,505h450.563C550.227,505,569,489.905,569,471.461V150.785
	C569,132.339,550.227,117.245,527.281,117.245z M434.033,111.087c0-11.083,11.211-20.125,25.033-20.125h0.615
	c13.787,0,25.031,9.041,25.031,20.125v59.666c0,11.082-11.244,20.123-25.031,20.123h-0.615c-13.822,0-25.033-9.041-25.033-20.123
	V111.087z M119.252,111.087c0-11.083,11.213-20.125,25.033-20.125h0.618c13.786,0,25.031,9.041,25.031,20.125v59.666
	c0,11.082-11.245,20.123-25.031,20.123h-0.618c-13.82,0-25.033-9.041-25.033-20.123V111.087z M527.281,478.168H76.719
	c-4.53,0-8.342-3.093-8.342-6.707V235.685h467.249v235.776C535.625,475.075,531.813,478.168,527.281,478.168z"/>
<rect x="101" y="272" fill="none" width="400" height="187"/>
<text transform="matrix(1 0 0 1 228.4971 323.1191)" font-family="'MyriadPro-Bold'" font-size="72">Zion</text>
<text transform="matrix(1 0 0 1 223.9609 419.1191)" font-family="'MyriadPro-Regular'" font-size="80">MBC</text>
</svg>
