<?xml version="1.0" encoding="utf-8"?>
<!-- Generator: Adobe Illustrator 16.0.0, SVG Export Plug-In . SVG Version: 6.00 Build 0)  -->
<!DOCTYPE svg PUBLIC "-//W3C//DTD SVG 1.1//EN" "http://www.w3.org/Graphics/SVG/1.1/DTD/svg11.dtd">
<svg version="1.1" id="Layer_1" xmlns="http://www.w3.org/2000/svg" xmlns:xlink="http://www.w3.org/1999/xlink" x="0px" y="0px"
	 width="612px" height="792px" viewBox="0 0 612 792" enable-background="new 0 0 612 792" xml:space="preserve">
<g>
	<path fill="#FFFFFF" d="M594,644c0,1.1-0.9,2-2,2H16c-1.1,0-2-0.9-2-2V109c0-1.1,0.9-2,2-2h576c1.1,0,2,0.9,2,2V644z"/>
	<path fill="none" stroke="#262262" stroke-width="20" stroke-miterlimit="10" d="M594,644c0,1.1-0.9,2-2,2H16c-1.1,0-2-0.9-2-2V109
		c0-1.1,0.9-2,2-2h576c1.1,0,2,0.9,2,2V644z"/>
</g>
<path fill="#262262" d="M529.281,186.245H503.4v-6.158c0-18.447-18.771-33.54-41.718-33.54h-0.616
	c-22.947,0-41.719,15.093-41.719,33.54v6.158H188.622v-6.158c0-18.447-18.773-33.54-41.719-33.54h-0.618
	c-22.946,0-41.719,15.093-41.719,33.54v6.158H78.719c-22.945,0-41.719,15.094-41.719,33.54v320.676
	C37,558.905,55.774,574,78.719,574h450.563C552.227,574,571,558.905,571,540.461V219.785
	C571,201.339,552.227,186.245,529.281,186.245z M436.033,180.087c0-11.083,11.211-20.125,25.033-20.125h0.616
	c13.787,0,25.031,9.041,25.031,20.125v59.666c0,11.082-11.244,20.123-25.031,20.123h-0.616c-13.822,0-25.033-9.041-25.033-20.123
	V180.087z M121.252,180.087c0-11.083,11.213-20.125,25.033-20.125h0.618c13.786,0,25.031,9.041,25.031,20.125v59.666
	c0,11.082-11.245,20.123-25.031,20.123h-0.618c-13.82,0-25.033-9.041-25.033-20.123V180.087z M529.281,547.168H78.719
	c-4.53,0-8.342-3.093-8.342-6.707V304.685h467.249v235.776C537.625,544.075,533.813,547.168,529.281,547.168z"/>
<rect x="103" y="341" fill="none" width="400" height="187"/>
<text transform="matrix(1 0 0 1 230.4971 392.1191)"><tspan x="0" y="0" font-family="'MyriadPro-Bold'" font-size="72">Zion</tspan><tspan x="-4.536" y="96" font-family="'MyriadPro-Regular'" font-size="80">MBC</tspan></text>
</svg>
