<?xml version="1.0" encoding="UTF-8" standalone="no"?>
<svg
   xmlns:dc="http://purl.org/dc/elements/1.1/"
   xmlns:cc="http://creativecommons.org/ns#"
   xmlns:rdf="http://www.w3.org/1999/02/22-rdf-syntax-ns#"
   xmlns:svg="http://www.w3.org/2000/svg"
   xmlns="http://www.w3.org/2000/svg"
   height="578.23529"
   width="586.47058"
   xml:space="preserve"
   viewBox="0 0 586.47058 578.23529"
   y="0px"
   x="0px"
   id="Capa_1"
   version="1.1"><metadata
   id="metadata4803"><rdf:RDF><cc:Work
       rdf:about=""><dc:format>image/svg+xml</dc:format><dc:type
         rdf:resource="http://purl.org/dc/dcmitype/StillImage" /><dc:title></dc:title></cc:Work></rdf:RDF></metadata><defs
   id="defs4801" />

<g
   transform="translate(-8.2941322,96.964962)"
   id="g4769">
</g>
<g
   transform="translate(-8.2941322,96.964962)"
   id="g4771">
</g>
<g
   transform="translate(-8.2941322,96.964962)"
   id="g4773">
</g>
<g
   transform="translate(-8.2941322,96.964962)"
   id="g4775">
</g>
<g
   transform="translate(-8.2941322,96.964962)"
   id="g4777">
</g>
<g
   transform="translate(-8.2941322,96.964962)"
   id="g4779">
</g>
<g
   transform="translate(-8.2941322,96.964962)"
   id="g4781">
</g>
<g
   transform="translate(-8.2941322,96.964962)"
   id="g4783">
</g>
<g
   transform="translate(-8.2941322,96.964962)"
   id="g4785">
</g>
<g
   transform="translate(-8.2941322,96.964962)"
   id="g4787">
</g>
<g
   transform="translate(-8.2941322,96.964962)"
   id="g4789">
</g>
<g
   transform="translate(-8.2941322,96.964962)"
   id="g4791">
</g>
<g
   transform="translate(-8.2941322,96.964962)"
   id="g4793">
</g>
<g
   transform="translate(-8.2941322,96.964962)"
   id="g4795">
</g>
<g
   transform="translate(-8.2941322,96.964962)"
   id="g4797">
</g>
<g
   transform="translate(-8.2941322,-10.647038)"
   id="layer1" /><g
   transform="translate(-8.2941322,-10.647038)"
   id="layer2"><ellipse
     ry="273.9649"
     rx="278.08255"
     cy="299.76468"
     cx="301.52942"
     id="path5345"
     style="opacity:1;fill:#333333;stroke:#333333;stroke-width:30.30547333;stroke-miterlimit:4;stroke-dasharray:none;stroke-opacity:0.98757761" /><g
     style="fill:#f2f2f2"
     transform="translate(54.588235,20.082588)"
     id="g4763">
	<path
   style="fill:#f2f2f2"
   id="path4765"
   d="m 217.015,189.087 c -15.393,-5.529 -32.371,2.48 -37.893,17.882 l -17.729,49.416 -1.777,-30.452 56.055,-155.7 c 3.762,-10.393 -0.752,-22.195 -10.865,-27.299 -10.93,-5.521 -24.258,-1.136 -29.779,9.794 L 96.425,208.314 c -1.682,3.361 -2.673,7.264 -2.673,11.282 l 0.416,117.078 -72.232,37.924 C 1.9,385.119 -5.813,409.881 4.701,429.908 c 10.529,20.035 35.283,27.748 55.318,17.227 l 133.504,-70.104 3.058,-1.601 c 8.945,-4.769 15.681,-13.481 17.521,-24.259 l 22.114,-129.207 c 2.385,-13.908 -5.456,-27.949 -19.201,-32.877 z" />
	<path
   style="fill:#f2f2f2"
   id="path4767"
   d="m 470.453,374.597 -72.232,-37.924 0.416,-117.078 c 0,-4.018 -0.991,-7.921 -2.673,-11.282 L 317.363,52.727 c -5.521,-10.93 -18.85,-15.314 -29.779,-9.794 -10.113,5.104 -14.626,16.905 -10.865,27.299 l 56.055,155.7 -1.776,30.452 -17.729,-49.416 c -5.522,-15.401 -22.5,-23.411 -37.893,-17.882 -13.746,4.929 -21.587,18.97 -19.203,32.877 l 22.115,129.207 c 1.84,10.778 8.576,19.491 17.521,24.259 l 3.058,1.601 133.504,70.104 c 20.035,10.521 44.789,2.808 55.318,-17.227 10.512,-20.026 2.799,-44.788 -17.236,-55.31 z" />
</g></g></svg>