<?xml version="1.0" encoding="UTF-8" standalone="no"?>
<svg
   xmlns:dc="http://purl.org/dc/elements/1.1/"
   xmlns:cc="http://creativecommons.org/ns#"
   xmlns:rdf="http://www.w3.org/1999/02/22-rdf-syntax-ns#"
   xmlns:svg="http://www.w3.org/2000/svg"
   xmlns="http://www.w3.org/2000/svg"
   xmlns:xlink="http://www.w3.org/1999/xlink"
   xml:space="preserve"
   enable-background="new 0 0 612 792"
   viewBox="0 0 600 600"
   height="600"
   width="600"
   y="0px"
   x="0px"
   id="Layer_1"
   version="1.1"><metadata
   id="metadata7244"><rdf:RDF><cc:Work
       rdf:about=""><dc:format>image/svg+xml</dc:format><dc:type
         rdf:resource="http://purl.org/dc/dcmitype/StillImage" /><dc:title></dc:title></cc:Work></rdf:RDF></metadata><defs
   id="defs7242"><linearGradient
     id="linearGradient7805"><stop
       id="stop7807"
       offset="0"
       style="stop-color:#46426c;stop-opacity:1;" /><stop
       id="stop7809"
       offset="1"
       style="stop-color:#46426c;stop-opacity:0;" /></linearGradient><linearGradient
     gradientUnits="userSpaceOnUse"
     y2="129.12619"
     x2="403.75021"
     y1="129.12619"
     x1="186.52482"
     id="linearGradient7811"
     xlink:href="#linearGradient7805" /></defs>
<g
   transform="translate(0,-192)"
   id="g7226">
	<path
   style="fill:none"
   id="path7228"
   d="m 594,497.808 c 0,0.931 -0.9,1.692 -2,1.692 l -576,0 c -1.1,0 -2,-0.762 -2,-1.692 L 14,45.192 C 14,44.261 14.9,43.5 16,43.5 l 576,0 c 1.1,0 2,0.761 2,1.692 l 0,452.616 z" />
	<path
   style="fill:none"
   id="path7230"
   d="m 594,497.808 c 0,0.931 -0.9,1.692 -2,1.692 l -576,0 c -1.1,0 -2,-0.762 -2,-1.692 L 14,45.192 C 14,44.261 14.9,43.5 16,43.5 l 576,0 c 1.1,0 2,0.761 2,1.692 l 0,452.616 z" />
</g>
<path
   style="fill:#333333"
   id="path7232"
   d="m 531.63322,59.148657 -27.34485,0 0,-8.188551 c 0,-24.529748 -19.8327,-44.5995421 -44.07865,-44.5995421 l -0.64979,0 c -24.2449,0 -44.07971,20.0697941 -44.07971,44.5995421 l 0,8.188551 -243.77391,0 0,-8.188551 c 0,-24.529748 -19.8348,-44.5995421 -44.07865,-44.5995421 l -0.65295,0 c -24.24384,0 -44.078655,20.0697941 -44.078655,44.5995421 l 0,8.188551 -27.308927,0 c -24.242783,0 -44.078653,20.071124 -44.078653,44.599543 l 0,426.4163 c 0,24.52577 19.83587,44.59822 44.078653,44.59822 l 476.047132,0 c 24.24279,0 44.07761,-20.07245 44.07761,-44.59822 l 0,-426.4163 c 0,-24.528419 -19.83482,-44.599543 -44.07865,-44.599543 z m -98.52217,-8.188551 c 0,-14.737529 11.8451,-26.761054 26.44888,-26.761054 l 0.64979,0 c 14.56679,0 26.44676,12.022196 26.44676,26.761054 l 0,79.340374 c 0,14.73621 -11.87997,26.7584 -26.44676,26.7584 l -0.64979,0 c -14.60378,0 -26.44888,-12.02219 -26.44888,-26.7584 l 0,-79.340374 z m -332.58522,0 c 0,-14.737529 11.84721,-26.761054 26.44888,-26.761054 l 0.65295,0 c 14.56575,0 26.44678,12.022196 26.44678,26.761054 l 0,79.340374 c 0,14.73621 -11.88103,26.7584 -26.44678,26.7584 l -0.65295,0 c -14.60167,0 -26.44888,-12.02219 -26.44888,-26.7584 l 0,-79.340374 z m 431.10739,488.122974 -476.046092,0 c -4.786219,0 -8.813828,-4.11289 -8.813828,-8.91858 l 0,-313.52122 493.67691,0 0,313.52122 c -0.001,4.80569 -4.02866,8.91858 -8.81699,8.91858 z" />
<rect
   style="fill:none"
   id="rect7234"
   height="187"
   width="400"
   y="80"
   x="101" />
<text
   y="162.67844"
   x="197.58185"
   style="font-size:72px;font-family:MyriadPro-Bold;fill:#f9f9f9;stroke:none;stroke-width:6.19999981;stroke-miterlimit:4;stroke-dasharray:none;stroke-opacity:0"
   id="text7236"
   font-size="72"><tspan
     id="tspan7786"
     style="font-style:normal;font-variant:normal;font-weight:bold;font-stretch:normal;font-size:90px;font-family:'Gill Sans MT';-inkscape-font-specification:'Gill Sans MT Bold';fill:#f9f9f9;stroke:none;stroke-width:6.19999981;stroke-miterlimit:4;stroke-dasharray:none;stroke-opacity:0">Zion</tspan></text>




<path
   id="path7788"
   d="m 127.52543,303.00001 328.88135,0 0,0"
   style="fill:#333333;fill-rule:evenodd;stroke:#000000;stroke-width:2;stroke-linecap:butt;stroke-linejoin:miter;stroke-miterlimit:4;stroke-dasharray:none;stroke-opacity:1" /><path
   style="fill:#333333;fill-rule:evenodd;stroke:#000000;stroke-width:2;stroke-linecap:butt;stroke-linejoin:miter;stroke-miterlimit:4;stroke-dasharray:none;stroke-opacity:1"
   d="m 127.52543,353.33899 328.88135,0 0,0"
   id="path7790" /><path
   id="path7792"
   d="m 127.52543,403.67797 328.88135,0 0,0"
   style="fill:#333333;fill-rule:evenodd;stroke:#000000;stroke-width:2;stroke-linecap:butt;stroke-linejoin:miter;stroke-miterlimit:4;stroke-dasharray:none;stroke-opacity:1" /><path
   style="fill:#333333;fill-rule:evenodd;stroke:#000000;stroke-width:2;stroke-linecap:butt;stroke-linejoin:miter;stroke-miterlimit:4;stroke-dasharray:none;stroke-opacity:1"
   d="m 124.1695,458.72882 328.88135,0 0,0"
   id="path7794" /></svg>