<?xml version="1.0" encoding="utf-8"?>
<!-- Generator: Adobe Illustrator 16.0.0, SVG Export Plug-In . SVG Version: 6.00 Build 0)  -->
<!DOCTYPE svg PUBLIC "-//W3C//DTD SVG 1.1//EN" "http://www.w3.org/Graphics/SVG/1.1/DTD/svg11.dtd">
<svg version="1.1" id="Layer_1" xmlns="http://www.w3.org/2000/svg" xmlns:xlink="http://www.w3.org/1999/xlink" x="0px" y="0px"
	 width="612px" height="792px" viewBox="0 0 612 792" enable-background="new 0 0 612 792" xml:space="preserve">
<rect x="10" y="418" fill="none" width="595" height="368"/>
<g>
	<path fill-rule="evenodd" clip-rule="evenodd" fill="none" d="M305.939,774.932c-92.083,0-184.167-0.137-276.247,0.178
		c-11.328,0.036-13.904-1.518-13.878-8.213c0.409-108.917,0.409-217.84,0-326.757c-0.026-6.695,2.554-8.224,13.876-8.208
		c184.166,0.244,368.334,0.244,552.5,0c11.32-0.016,13.904,1.513,13.877,8.208c-0.411,108.917-0.411,217.84,0,326.757
		c0.027,6.695-2.552,8.249-13.877,8.213C490.107,774.795,398.025,774.932,305.939,774.932z M35.079,681.828
		c-0.29,22.164-0.17,44.335-1.114,66.492c-0.281,6.629,3.594,8.168,14.057,7.993c28.468-0.48,56.965-0.358,85.453-0.476
		c10.829-0.012,21.658-0.027,32.488-0.037c125.24,0.126,250.479,0.17,375.717,0.534c11.295,0.031,13.568-2.192,13.551-8.375
		c-0.297-96.389-0.319-192.777,0.035-289.166c0.025-6.596-3.478-8.098-14.064-8.072c-129.757,0.354-259.521,0.443-389.277,0.601
		c-12.055-0.015-24.11-0.03-36.165-0.04c-21.869-0.147-43.776,0.121-65.592-0.589c-12.779-0.416-16.324,1.918-16.244,9.525
		c0.652,62.037,0.563,124.074,0.701,186.116C34.776,658.165,34.927,669.995,35.079,681.828z"/>
	<path fill-rule="evenodd" clip-rule="evenodd" fill="none" d="M151.92,451.322c129.76-0.157,259.524-0.246,389.281-0.601
		c10.587-0.025,14.09,1.477,14.064,8.072c-0.354,96.389-0.332,192.777-0.035,289.166c0.018,6.183-2.256,8.406-13.551,8.375
		c-125.238-0.364-250.477-0.408-375.715-0.534c-1.632-6.067,7.12-7.072,13.167-9.176c30.696-10.676,62.756-20.006,91.566-32.54
		c23.215-6.504,40.779-18.944,66.986-22.308c20.459,2.657,44.115-8.982,43.687-21.49c8.765-6.015,4.803,4.602,10.336,2.914
		c3.007-15.432,26.287-26.655,49.988-24.629c4.735,0.407,7.411-2.382,9.122-4.914c14.813-7.511,30.848-14.104,7.139-26.293
		c-7.683-3.949-4.91-12.197,6.921-16.301c12.449-0.727,25.942,0.9,35.867-5.543c1.813-0.707,3.635-1.414,5.448-2.12
		c10.574-2.708,18.079-7.206,22.552-13.481c1.657-1.057,3.32-2.112,4.984-3.169c1.67-1.486,3.334-2.972,5.005-4.458
		c2.646-1.8,3.777-3.844,2.905-6.219c0.536-0.722,1.093-1.437,1.678-2.146c14.453-18.33,6.447-35.54-7.749-52.353
		c-3.308-3.918-8.858-7.119-8.155-12.097c1.186-8.434-8.411-12.875-19.039-16.631c-46.186-16.323-93.094-8.793-125.728,20.106
		c-19.85,10.271-25.421,24.178-28.262,38.778c-6.138,0.049-13.745,0.267-14.815,4.252c-2.105,7.835-12.046,6.325-20.264,7.233
		c-14.044-9.241-14.548-24.084-35.874-30.31c-0.196-7.143-3.205-5.972-11.658-13.557c-5.241-4.7-5.945-12.283-16.512-14.076
		c-22.106-3.751-32.688-24.979-63.751-14.689C178.131,470.917,155.569,465.595,151.92,451.322z"/>
	<path fill-rule="evenodd" clip-rule="evenodd" fill="none" d="M34.624,646.335c-0.137-62.042-0.048-124.079-0.701-186.116
		c-0.08-7.607,3.465-9.941,16.244-9.525c21.816,0.71,43.724,0.441,65.59,0.589c-5.651,25.862,14.077,48.436,26.662,71.934
		c2.816,20.464,15.835,39.521,23.821,59.269c3.561,8.803-0.562,10.331-14.556,10.43c-46.853,0.33-91.465,20.992-104.793,47.614
		C41.976,641.853,41.3,646.311,34.624,646.335z"/>
	<path fill-rule="evenodd" clip-rule="evenodd" fill="#7D7D98" d="M34.624,646.335c6.676-0.024,7.353-4.482,12.277-5.807
		c16.606,3.033,12.722,11.822,15.134,18.84c-4.994,3.183-3.824,6.133,0.141,9.455c27.842,23.317,57.042,46.002,88.314,67.764
		c6.637,4.619,12.258,3.609,19.533,1.224c30.938-10.138,62.085-20.056,90.792-32.381c1.442,0.007,2.869-0.078,4.283-0.252
		c1.866,2.968,3.734,5.939,5.6,8.911c-28.81,12.53-60.871,21.86-91.566,32.536c-6.048,2.104-14.799,3.108-13.167,9.176
		c-10.832,0.01-21.661,0.025-32.493,0.037c-32.799-24.67-65.595-49.34-98.393-74.01C34.927,669.995,34.776,658.165,34.624,646.335z"
		/>
	<path fill-rule="evenodd" clip-rule="evenodd" fill="none" d="M35.079,681.828c32.797,24.67,65.593,49.34,98.393,74.01
		c-28.485,0.117-56.982-0.005-85.45,0.476c-10.463,0.175-14.337-1.364-14.057-7.993C34.909,726.163,34.79,703.992,35.079,681.828z"
		/>
	<path fill-rule="evenodd" clip-rule="evenodd" fill="#5C5C6D" d="M464.877,601.064c-11.831,4.104-14.604,12.352-6.921,16.301
		c23.709,12.188,7.674,18.782-7.139,26.293c-3.984-6.165-16.889-5.704-22.559-10.62c0.328-1.383,0.646-2.764,0.973-4.142
		c7.43-10.099,2.884-20.559,2.68-30.887c0.443-2.594,0.885-5.185,1.327-7.778c12.896-22.544,6.903-28.411-29.843-29.264
		c-2.202-0.049-4.383-0.344-6.571-0.528c-1.345-2.579-2.689-5.157-4.039-7.736c3.118-0.073,6.232-0.146,9.346-0.219
		c12.736-0.729,4.838-10.319,16.274-12.556c18.261-3.573,52.584,7.755,55.45,19.231c1.096,4.396-1.752,6.262-9.253,7.089
		c-12.113,1.332-11.373,5.511-4.918,10.308c1.811,4.87-2.997,8.914-4.75,13.34C446.107,597.399,450.708,600.726,464.877,601.064z"/>
	<path fill-rule="evenodd" clip-rule="evenodd" fill="#5C5C6D" d="M382.646,502.949c32.634-28.894,79.542-36.424,125.728-20.101
		c10.628,3.756,20.225,8.197,19.039,16.631c-0.703,4.978,4.848,8.179,8.155,12.097c14.196,16.813,22.202,34.022,7.739,52.353
		c-1.866-2.73-3.732-5.456-5.599-8.187c19.91-28.133-31.02-73.313-95.156-64.229c-22.891,1.941-35.389,12.278-49.382,21.407
		C385.705,511.059,382.553,507.606,382.646,502.949z"/>
	<path fill-rule="evenodd" clip-rule="evenodd" fill="#6A697D" d="M428.259,633.038c5.67,4.916,18.574,4.455,22.559,10.62
		c-1.711,2.532-4.387,5.321-9.122,4.914c-23.701-2.026-46.981,9.197-49.988,24.629c-5.533,1.688-1.571-8.929-10.328-2.914
		c-17.619,4.992-34.079,10.808-43.694,21.49c-26.207,3.363-43.771,15.804-66.986,22.308c-1.866-2.968-3.734-5.939-5.6-8.906
		c21.635-9.641,46.53-16.76,64.583-29.173c30.541-7.465,52.386-21.807,76.862-34.063c4.397-2.073,8.792-4.147,13.189-6.222
		C422.575,634.827,425.419,633.932,428.259,633.038z"/>
	<path fill-rule="evenodd" clip-rule="evenodd" fill="#5C5C6D" d="M320.181,563.79c-0.284-3.528-0.576-7.054-0.866-10.577
		c8.208-0.902,18.148,0.607,20.254-7.228c1.07-3.985,8.678-4.203,14.82-4.252c16.616-3.154,11.394,11.132,24.54,10.742
		c2.302,2.037,4.604,4.072,6.908,6.106c0.31,1.522,0.619,3.051,0.929,4.573C364.574,563.366,342.377,563.579,320.181,563.79z"/>
	<path fill-rule="evenodd" clip-rule="evenodd" fill="#9B9BAF" d="M464.877,601.064c-14.169-0.339-18.77-3.665-9.938-11.166
		c28.866,3.12,44.712-9.769,64.145-18.248c-0.287,3.385-0.569,6.773-0.854,10.164c-0.557,0.508-1.113,1.014-1.68,1.519
		c0.858-0.332,1.715-0.667,2.573-1.001c2.622-1.136,5.241-2.266,7.863-3.4c0.584,0.33,1.173,0.658,1.757,0.988
		c-4.473,6.275-11.978,10.773-22.552,13.481c-0.602-0.363-1.207-0.727-1.813-1.089c0.496-0.695,0.778-1.418,0.849-2.17
		c0.541-0.152,1.169-0.246,1.594-0.477c0.257-0.136,0.207-0.48,0.295-0.732c-0.649,0.392-1.295,0.787-1.941,1.182
		c-1.494,0.893-2.989,1.784-4.483,2.678l-0.035,0.022c-1.919,0.256-5.497,0.521-5.493,0.771c0.019,1.829,2.361,1.216,4.196,1.027
		l1.385,0.907C490.819,601.965,477.326,600.338,464.877,601.064z"/>
	<path fill-rule="evenodd" clip-rule="evenodd" fill="#6A697D" d="M378.929,552.473c-13.146,0.393-7.924-13.894-24.54-10.739
		c2.836-14.601,8.407-28.507,28.257-38.778c-0.093,4.651,3.06,8.104,10.515,9.961C381.069,525.176,378.2,538.6,378.929,552.473z"/>
	<path fill-rule="evenodd" clip-rule="evenodd" fill="#5C5C6D" d="M337.685,691.777c9.615-10.683,26.075-16.498,43.694-21.49
		C381.8,682.795,358.144,694.435,337.685,691.777z"/>
	<path fill-rule="evenodd" clip-rule="evenodd" fill="#9B9BAF" d="M537.713,555.742c1.861,2.73,3.728,5.456,5.594,8.187
		c-0.575,0.709-1.132,1.424-1.672,2.146c-1.451-0.104-2.821,0.05-4.104,0.467c-11.636-13.459-9.346,7.368-17.496,2.482
		c1.119-2.771,2.237-5.544,3.36-8.317c2.521-1.794,5.052-3.589,7.572-5.383C533.215,555.465,535.466,555.606,537.713,555.742z"/>
	<path fill-rule="evenodd" clip-rule="evenodd" fill="#5C5C6D" d="M537.536,566.544c1.277-0.42,2.647-0.574,4.099-0.47
		c0.876,2.375-0.256,4.419-2.901,6.219c-0.857-0.419-1.706-0.836-2.56-1.255C536.629,569.541,537.08,568.041,537.536,566.544z"/>
	<path fill-rule="evenodd" clip-rule="evenodd" fill="#5C5C6D" d="M538.733,572.293c-1.671,1.486-3.335,2.972-5.005,4.458
		c-1.474,0.174-2.946,0.352-4.415,0.528c2.292-2.083,4.573-4.162,6.855-6.241C537.027,571.457,537.876,571.874,538.733,572.293z"/>
	<path fill-rule="evenodd" clip-rule="evenodd" fill="#9B9BAF" d="M533.729,576.751c-1.664,1.057-3.327,2.112-4.984,3.169
		c-0.584-0.33-1.173-0.658-1.757-0.983c0.54-0.68,1.31-1.233,2.318-1.657C530.782,577.103,532.255,576.925,533.729,576.751z"/>
	<path fill-rule="evenodd" clip-rule="evenodd" fill="#9B9BAF" d="M506.192,593.401c-1.813,0.706-3.635,1.413-5.448,2.12
		c0,0-1.385-0.907-1.38-0.901c0.646-0.547,1.07-1.15,1.292-1.805l0.035-0.022c1.265-0.066,2.494-0.229,3.688-0.48
		C504.985,592.675,505.591,593.038,506.192,593.401z"/>
	<path fill-rule="evenodd" clip-rule="evenodd" fill="#EDECF1" d="M62.035,659.368c8.342,4.103,10.366,11.442,21.035,14.356
		c10.086,8.992,27.577,11.075,42.211,15.813c4.097,2.563,9.599,1.944,14.712,2.328c31.669,2.38,60.5-3.251,88.647-10.876
		c5.651,2.503,4.724,6.163,4.791,9.629c0.178,8.749-4.791,20.668,22.489,12.517c0.78-0.231,3.227,1.484,4.895,2.294
		c-28.706,12.325-59.854,22.243-90.792,32.381c-7.275,2.386-12.896,3.396-19.533-1.224c-31.272-21.762-60.472-44.446-88.314-67.764
		C58.211,665.501,57.041,662.551,62.035,659.368z"/>
	<path fill-rule="evenodd" clip-rule="evenodd" fill="#D6D6E0" d="M260.815,705.43c-1.667-0.81-4.114-2.525-4.895-2.294
		c-27.28,8.151-22.311-3.768-22.489-12.517c-0.067-3.466,0.86-7.126-4.79-9.623c20.764-12.466,41.196-24.863,29.958-44.966
		c-4.9-8.766-8.068-17.87-12.02-26.824c18.261-7.265,36.517-14.528,54.773-21.789c0.013,24.063,0.027,48.13,0.035,72.194
		c0.01,18.191,0.007,18.191,28.292,16.395c-18.053,12.413-42.947,19.532-64.583,29.173
		C263.685,705.352,262.258,705.437,260.815,705.43z"/>
	<path fill-rule="evenodd" clip-rule="evenodd" fill="#56B548" d="M174.342,485.914"/>
	<path fill-rule="evenodd" clip-rule="evenodd" fill="#C7C7D5" d="M329.681,676.006c-28.285,1.797-28.282,1.797-28.292-16.395
		c-0.008-24.064-0.022-48.132-0.033-72.194c1.718-4.389,12.757-4.368,12.872-9.516c0.292-0.9,0.584-1.797,0.881-2.693
		c15.872-1.602,3.196-7.642,5.072-11.418c22.196-0.211,44.394-0.424,66.59-0.635c0.005,0,0.743,0.073,0.743,0.073
		c0.129,1.814,0.252,3.63,0.376,5.444c-7.717,6.046-16.902,5.571-28.061,3.343c-7.479-1.49-19.385-1.721-16.895,5.985
		c7.868,24.382,1.99,48.888,3.507,73.304c0.566,9.138,7.412,8.823,16.435,4.696c11.781-5.382,22.484-11.6,33.646-17.458
		c3.06-0.332,6.125-0.664,9.189-0.997c0.274,1.468,0.559,2.935,0.831,4.399C382.066,654.199,360.222,668.541,329.681,676.006z"/>
	<path fill-rule="evenodd" clip-rule="evenodd" fill="none" d="M232.742,590.559c-16.924-18.113-20.023-38.787-30.477-58.1
		c-2.271-4.195,1.313-6.974,10.063-4.761c16.541,4.185,33.239,7.949,48.456,13.978c13.293,5.269,7.391,12.748,9.678,19.304
		c-8.593,4.158-12.112,9.348-9.209,15.841c-0.559,0.297-1.045,0.726-1.698,0.851c-0.546,0.106-1.441-0.026-1.915-0.251
		c-3.415-1.61,0.323-7.5-8.423-5.566c-4.416,0.979-10.119,2.47-10.767,6.178C237.684,582.404,238.615,587.011,232.742,590.559z"/>
	<path fill-rule="evenodd" clip-rule="evenodd" fill="#B2B2C4" d="M217.883,675.445c41.283-20.336,38.032-25.953,23.587-57.625
		c-2.229-4.886-5.718-9.438-4.251-14.616c0.764,0.365,1.64,0.555,2.622,0.56c2.245,1.815,4.491,3.631,6.738,5.445
		c3.954,8.951,7.122,18.056,12.022,26.821c11.238,20.103-9.194,32.5-29.958,44.966c-28.149,7.619-56.979,13.25-88.649,10.87
		c-5.113-0.384-10.615,0.235-14.712-2.328"/>
	<path fill-rule="evenodd" clip-rule="evenodd" fill="#6A697D" d="M232.742,590.559c5.873-3.548,4.942-8.154,5.708-12.527
		c0.648-3.708,6.351-5.199,10.767-6.178c8.746-1.934,5.008,3.956,8.423,5.566c0.474,0.225,1.369,0.357,1.915,0.251
		c0.653-0.125,1.139-0.554,1.696-0.851c8.741-0.49,13.619-4.01,17.9-7.995c12.362-5.284,14.342-1.224,13.6,5.286
		c-11.101,5.962-22.197,11.919-33.295,17.882c-7.317,3.469-19.005,4.393-19.614,11.773c-0.982-0.008-1.858-0.197-2.622-0.563
		C231.752,599.478,235.014,594.678,232.742,590.559z"/>
	<path fill-rule="evenodd" clip-rule="evenodd" fill="#B2B2C4" d="M259.455,591.993c11.098-5.963,22.194-11.92,33.295-17.882
		c7.457,0.363,14.907,0.729,22.359,1.097c-0.297,0.896-0.589,1.793-0.871,2.686c-9.434-1.857-14.798,2.238-21.957,4.574
		C281.676,585.925,274.996,594.528,259.455,591.993z"/>
	<path fill-rule="evenodd" clip-rule="evenodd" fill="#5C5C6D" d="M279.15,568.825c-4.281,3.985-9.159,7.505-17.9,7.995
		c-2.901-6.493,0.618-11.683,9.211-15.841C280.342,560.892,278.765,565.236,279.15,568.825z"/>
	<path fill-rule="evenodd" clip-rule="evenodd" fill="#B2B2C4" d="M396.522,638.543c-11.162,5.858-21.865,12.076-33.646,17.458
		c-9.022,4.127-15.868,4.441-16.435-4.696c-1.517-24.416,4.361-48.922-3.507-73.304c-2.49-7.706,9.415-7.476,16.895-5.985
		c11.158,2.229,20.344,2.703,28.056-3.343c1.584-0.01,3.172-0.021,4.759-0.033l1.915-0.016l1.902,0.107
		c-0.125,0.921-0.248,1.842-0.372,2.762c-9.872,5.043-9.69,9.678,0.35,14.875c9.256,4.789,16.403,5.137,22.696-1.635
		c-1.552-0.89-3.1-1.779-4.651-2.665l0.127,0.125c-3.449-5.705-3.635-12.924-18.008-13.549c0.07-2.735,0.146-5.469,0.222-8.205
		c2.188,0.185,4.369,0.479,6.571,0.528c36.746,0.853,42.739,6.72,29.843,29.264c-15.453-2.176-23.966,6.413-36.805,8.29
		C396.461,611.861,396.492,625.201,396.522,638.543z"/>
	<path fill-rule="evenodd" clip-rule="evenodd" fill="none" d="M459.685,576.557c-6.455-4.797-7.195-8.976,4.918-10.308
		c7.501-0.827,10.349-2.693,9.253-7.089c-2.866-11.477-37.189-22.805-55.45-19.231c-11.437,2.236-3.538,11.827-16.279,12.556
		c-3.67-9.842,1.11-19.169,4.913-28.558c1.584-1.736,3.176-3.468,4.763-5.205c0.952-1.203,1.911-2.406,2.871-3.609
		c10.255-6.233,20.608-12.382,35.761-14.346c10.817,0.295,21.342,2.843,32.372,1.425c2.743,0.813,5.485,1.628,8.223,2.443
		c2.962,8.116,27.653,12.659,18.021,20.594c-11.879,9.79-2.689,18.754-6.13,27.746C499.125,567.643,483.346,574.627,459.685,576.557
		z"/>
	<path fill-rule="evenodd" clip-rule="evenodd" fill="#7D7D98" d="M459.685,576.557c23.661-1.93,39.44-8.914,43.235-23.584
		c11.513-1.764,12.092,6.599,20.476,7.733c-1.123,2.773-2.241,5.546-3.374,8.317c-0.323,0.875-0.633,1.748-0.938,2.627
		c-19.433,8.479-35.278,21.368-64.145,18.248C456.688,585.471,461.495,581.427,459.685,576.557z"/>
	<path fill-rule="evenodd" clip-rule="evenodd" fill="#9B9BAF" d="M396.522,638.543c-0.03-13.342-0.062-26.682-0.089-40.025
		c10.563-0.094,21.123-0.189,31.68-0.279c-6.135,10.301-8.398,20.555,1.118,30.658c-0.327,1.378-0.645,2.759-0.973,4.142
		c-2.84,0.894-5.684,1.789-8.526,2.683c-4.979-0.21-10.145-0.921-14.021,1.825C402.647,637.879,399.582,638.211,396.522,638.543z"/>
	<path fill-rule="evenodd" clip-rule="evenodd" fill="#B2B2C4" d="M429.231,628.896c-9.517-10.104-7.253-20.357-1.115-30.658
		c1.257-0.113,2.522-0.187,3.795-0.229C432.115,608.338,436.661,618.798,429.231,628.896z"/>
	<path fill-rule="evenodd" clip-rule="evenodd" fill="#EDECF1" d="M396.461,568.731l-1.902-0.107c0,0-1.915,0.016-1.92,0.016
		c-0.844-2.091-1.083-4.381-5.125-5.411c0,0-0.738-0.073-0.743-0.073c-0.314-1.522-0.624-3.051-0.929-4.574
		c5.13-10.748-6.138-23.413,10.95-32.764c1.118,9.089-8.81,17.606-4.007,26.886c1.35,2.579,2.694,5.157,4.039,7.736
		c-0.075,2.736-0.151,5.47-0.222,8.208C396.598,568.647,396.461,568.731,396.461,568.731z"/>
	<path fill-rule="evenodd" clip-rule="evenodd" fill="#6A697D" d="M392.785,552.703c-4.803-9.279,5.125-17.797,4.007-26.886
		l-0.172,0.184c2.415-1.225,4.828-2.45,7.248-3.676c1.061,0.535,2.118,1.068,3.171,1.602c-3.803,9.389-8.583,18.716-4.913,28.558
		C399.018,552.557,395.903,552.63,392.785,552.703z"/>
	<path fill-rule="evenodd" clip-rule="evenodd" fill="#D6D6E0" d="M431.911,598.01c-1.272,0.042-2.538,0.115-3.795,0.229
		c-10.56,0.09-21.12,0.186-31.683,0.279c12.839-1.873,21.352-10.462,36.805-8.286C432.796,592.825,432.354,595.416,431.911,598.01z"
		/>
	<path fill-rule="evenodd" clip-rule="evenodd" fill="#9B9BAF" d="M396.792,525.817c-17.088,9.351-5.82,22.016-10.95,32.764
		c-2.31-2.033-4.611-4.068-6.913-6.105c-0.729-13.876,2.141-27.3,14.231-39.56c14.003-9.124,26.501-19.461,49.392-21.402
		c11.676,5.337,30.074-1.308,39.652,7.775c-10.604,0.379-21.644-2.507-31.771,1.475c-15.152,1.967-25.506,8.115-35.761,14.349
		c-1.566-0.021-3.131-0.039-4.697-0.057c-12.692,0.13-13.735,5.234-13.355,10.945L396.792,525.817z"/>
	<path fill-rule="evenodd" clip-rule="evenodd" fill="#D6D6E0" d="M482.204,499.289c-9.578-9.083-27.977-2.438-39.652-7.775
		c64.137-9.084,115.066,36.096,95.156,64.229c-2.242-0.136-4.493-0.277-6.731-0.419c-0.009-6.085-0.026-12.173-0.044-18.262
		c-0.594-1.188-1.193-2.378-1.791-3.568c-7.761-11.903-12.803-25.062-38.113-28.858c-2.737-0.815-5.479-1.63-8.228-2.443
		C482.603,501.224,482.4,500.256,482.204,499.289z"/>
	<path fill-rule="evenodd" clip-rule="evenodd" fill="#B2B2C4" d="M405.712,637.546c3.876-2.746,9.041-2.035,14.021-1.825
		c-4.397,2.074-8.792,4.148-13.189,6.222C406.271,640.48,405.986,639.014,405.712,637.546z"/>
	<path fill-rule="evenodd" clip-rule="evenodd" fill="#B2B2C4" d="M519.084,571.65c0.305-0.879,0.614-1.752,0.938-2.627
		c8.164,4.886,5.874-15.941,17.51-2.482c-0.451,1.5-0.902,3-1.357,4.497c-2.287,2.079-4.568,4.158-6.86,6.241
		c-1.017,0.424-1.786,0.978-2.326,1.657c-2.622,1.13-5.241,2.26-7.863,3.396l-0.901-0.522
		C518.515,578.424,518.797,575.035,519.084,571.65z"/>
	<path fill-rule="evenodd" clip-rule="evenodd" fill="#B2B2C4" d="M500.656,592.815c-0.222,0.654-0.646,1.258-1.292,1.805
		c-1.84,0.183-4.183,0.796-4.201-1.033C495.159,593.336,498.737,593.071,500.656,592.815z"/>
	<path fill-rule="evenodd" clip-rule="evenodd" fill="#B2B2C4" d="M519.124,582.332c-0.858,0.334-1.715,0.669-2.573,1.001
		c0.566-0.505,1.123-1.011,1.68-1.519C518.223,581.81,519.124,582.332,519.124,582.332z"/>
	<path fill-rule="evenodd" clip-rule="evenodd" fill="#B2B2C4" d="M505.175,590.112c0.646-0.392,1.292-0.787,1.941-1.179
		c-0.088,0.252-0.038,0.597-0.295,0.732c-0.425,0.23-1.053,0.324-1.594,0.477L505.175,590.112z"/>
	<path fill-rule="evenodd" clip-rule="evenodd" fill="#B2B2C4" d="M504.379,592.313c-1.193,0.251-2.423,0.414-3.688,0.48
		c1.494-0.894,2.989-1.785,4.483-2.678c0-0.003,0.053,0.027,0.053,0.027C505.157,590.895,504.875,591.617,504.379,592.313z"/>
	<path fill-rule="evenodd" clip-rule="evenodd" fill="#6A697D" d="M491.028,504.635c25.311,3.797,30.353,16.955,38.109,28.858
		c0.592,1.194,1.193,2.381,1.795,3.568c0.018,6.089,0.035,12.177,0.044,18.262c-2.529,1.794-5.06,3.589-7.581,5.383
		c-8.384-1.135-8.963-9.497-20.476-7.733c3.44-8.99-5.749-17.954,6.13-27.744C518.682,517.294,493.99,512.751,491.028,504.635z"/>
	<path fill-rule="evenodd" clip-rule="evenodd" fill="#EDECF1" d="M259.455,591.993c15.541,2.535,22.221-6.068,32.826-9.525
		c7.159-2.336,12.523-6.432,21.957-4.574c-0.125,5.155-11.164,5.135-12.882,9.523c-18.258,7.261-36.514,14.524-54.775,21.789
		c-2.249-1.812-4.495-3.627-6.74-5.442C240.449,596.386,252.137,595.462,259.455,591.993z"/>
	<path fill-rule="evenodd" clip-rule="evenodd" fill="#94CC7B" d="M276.202,534.505"/>
	<path fill-rule="evenodd" clip-rule="evenodd" fill="#94CC7B" d="M248.697,517.817"/>
	<path fill-rule="evenodd" clip-rule="evenodd" fill="#94CC7B" d="M228.78,520.641"/>
	<path fill-rule="evenodd" clip-rule="evenodd" fill="#B8DBA3" d="M160.292,614.963"/>
	<path fill-rule="evenodd" clip-rule="evenodd" fill="#B8DBA3" d="M113.228,622.193"/>
	<path fill-rule="evenodd" clip-rule="evenodd" fill="#9B9BAF" d="M387.514,563.229c4.042,1.03,4.281,3.32,5.125,5.411
		c-1.582,0.013-3.17,0.023-4.754,0.033C387.766,566.858,387.643,565.043,387.514,563.229z"/>
	<path fill-rule="evenodd" clip-rule="evenodd" fill="#9B9BAF" d="M419.135,584.733c-6.293,6.771-13.44,6.424-22.696,1.635
		c-10.04-5.197-10.222-9.832-0.345-14.875c5.037,4.253,6.372,10.749,18.517,10.7c0,0-0.127-0.125-0.132-0.122
		C416.035,582.954,417.583,583.844,419.135,584.733z"/>
	<path fill-rule="evenodd" clip-rule="evenodd" fill="#EDECF1" d="M414.61,582.193c-12.145,0.049-13.479-6.447-18.517-10.7
		c0.119-0.92,0.242-1.841,0.367-2.762c0,0,0.137-0.084,0.142-0.084C410.976,569.27,411.161,576.488,414.61,582.193z"/>
	<path fill-rule="evenodd" clip-rule="evenodd" fill="#EDECF1" d="M419.135,584.733c-1.552-0.89-3.1-1.779-4.656-2.662
		C416.035,582.954,417.583,583.844,419.135,584.733z"/>
	<path fill-rule="evenodd" clip-rule="evenodd" fill="#6A697D" d="M482.204,499.289c0.196,0.967,0.398,1.935,0.597,2.902
		c-11.025,1.418-21.55-1.13-32.367-1.425C460.561,496.782,471.6,499.668,482.204,499.289z"/>
	<path fill-rule="evenodd" clip-rule="evenodd" fill="#6A697D" d="M411.807,518.727c-1.592,1.732-3.184,3.464-4.768,5.2
		c-1.053-0.533-2.11-1.066-3.171-1.602c1.672-1.705,3.345-3.409,5.02-5.117C409.86,517.713,410.834,518.217,411.807,518.727z"/>
	<path fill-rule="evenodd" clip-rule="evenodd" fill="#6A697D" d="M409.976,515.056c1.566,0.018,3.131,0.036,4.697,0.057
		c-0.96,1.203-1.919,2.406-2.871,3.609c-0.968-0.505-1.941-1.009-2.914-1.514C408.958,516.438,409.321,515.719,409.976,515.056z"/>
	<path fill-rule="evenodd" clip-rule="evenodd" fill="#EDECF1" d="M409.976,515.056c-0.654,0.663-1.018,1.382-1.088,2.152
		c-1.675,1.708-3.348,3.412-5.02,5.117c-2.42,1.226-4.833,2.451-7.248,3.676C396.24,520.29,397.283,515.186,409.976,515.056z"/>
	<path fill-rule="evenodd" clip-rule="evenodd" fill="#9B9BAF" d="M530.933,537.062c-0.602-1.188-1.203-2.374-1.795-3.568
		C529.739,534.684,530.339,535.874,530.933,537.062z"/>
	
		<line fill="none" stroke="#808285" stroke-width="18" stroke-miterlimit="10" x1="52.041" y1="650.938" x2="359.534" y2="537.062"/>
	
		<rect x="122.955" y="593.538" transform="matrix(0.9348 -0.3551 0.3551 0.9348 -212.2383 134.2484)" fill="#D1D3D4" stroke="#A7A9AC" stroke-width="18" stroke-miterlimit="10" width="273.42" height="103.736"/>
	<path fill="none" d="M79,661c5.378,0.903,10.613,2.501,16,3"/>
	<path fill="none" d="M91,653c3.444,5.034,6.679,9.957,8,16"/>
	<path fill="#808285" d="M76,662c4.079,7.398,16.947,11.634,24,17"/>
	<path fill="none" d="M88,665c5.727,4.647,12.774,7.128,19,11"/>
	<path fill="none" d="M95,661c6.114,3.868,10.629,11.257,15,17"/>
	<path fill="none" d="M119,661c-8.879-1.258-19.129-13.459-24.052,1.873c-1.168,3.641-1.116,15.954,1.084,19.175
		c3.018,4.419,9.974,3.38,16.187,2.582c-0.79-11.962-28.685-12.893-25.064-30.521c5.258-0.806,20.273,5.099,12.933,12.74
		c-4.813,5.011-16.271-3.295-18.857-6.92C85.216,656.521,91.952,657.475,95,662"/>
	<path fill="none" d="M75,655c22.136,0,34.439,0.629,46,21"/>
	<g>
		<g>
			<path fill="#808285" d="M92,665.5c5.157,0.004,10.127,0.063,14.738,2.658c2.813,1.585,5.333-2.735,2.523-4.316
				c-5.407-3.046-11.187-3.338-17.262-3.342C88.775,660.498,88.776,665.498,92,665.5L92,665.5z"/>
		</g>
	</g>
	<g>
		<g>
			<path fill="#808285" d="M87.738,655.158c8.967,4.454,11.933,15.727,14.851,24.507c1.012,3.044,5.841,1.739,4.821-1.33
				c-3.334-10.032-6.924-22.415-17.149-27.493C87.384,649.412,84.85,653.725,87.738,655.158L87.738,655.158z"/>
		</g>
	</g>
	<g>
		<g>
			<path fill="#808285" d="M99.841,654.262c3.968,7.287,5.763,15.414,7.748,23.403c0.777,3.128,5.599,1.8,4.821-1.33
				c-2.093-8.421-4.071-16.918-8.252-24.597C102.617,648.906,98.299,651.43,99.841,654.262L99.841,654.262z"/>
		</g>
	</g>
	<g>
		<g>
			<path fill="#808285" d="M99.665,650.589c-11.818-4.688-34.841,11.591-25.823,24.673c0.604,0.875,1.723,1.546,2.823,1.149
				c4.998-1.806,9.426-5.941,4.326-10.604c-4.447-4.065-10.709-4.944-15.729-7.965c0,1.438,0,2.878,0,4.316
				c9.594-4.665,19.588,6.241,25.988,12.01c6.771,6.104,14.208,13.455,23.75,14.332c2.218,0.204,3.25-2.845,1.768-4.268
				c-3.992-3.833-8.811-6.917-10.888-12.264c-1.455-3.743,0.548-9.513-3.618-12.127c-8.543-5.363-19.606-0.369-28-6
				c0.299,1.14,0.598,2.28,0.897,3.42c5.705-8.799,16.306-9.902,25.506-12.851c-0.941-0.384-1.882-0.767-2.823-1.149
				c2.244,3.27,5.597,8.651,2.178,12.264c-1.773,1.872-5.771,2.498-7.866,0.818c-3.928-3.149,2.884-7.772,5.384-8.569
				c5.12-1.632,14.712-0.974,17.051,4.891c0.582-1.025,1.164-2.051,1.746-3.076c-7.556,2.123-9.686,9.962-4.757,16.048
				c4.802,5.93,12.98,5.865,19.961,5.365c9.742-0.698,19.442-3.184,28.592-6.521c6.84-2.495,15.034-5.766,19.636-11.714
				c1.072-1.385,0.879-2.859-0.506-3.926c-4.551-3.507-9.133-0.481-14.14-1.596c-4.793-1.067-8.337-5.652-13.114-7.19
				c-10.862-3.498-22.863,1.651-32.27,6.786c-2.831,1.545-0.308,5.862,2.523,4.316c9.237-5.041,21.798-10.499,31.948-4.74
				c3.337,1.893,5.866,4.381,9.583,5.649c4.284,1.462,9.088-1.881,12.945,1.091c-0.169-1.309-0.337-2.617-0.506-3.926
				c-3.148,4.067-8.119,6.433-12.696,8.512c-6.728,3.058-13.977,5.091-21.185,6.639c-6.4,1.374-13.068,2.231-19.613,1.604
				c-2.728-0.262-5.086-1.136-7.01-3.127c-3.042-3.147-2.319-7.253,1.937-8.448c1.202-0.338,2.254-1.803,1.746-3.076
				c-3.547-8.892-14.902-10.518-23.202-8.382c-6.25,1.607-13.185,9.206-8.636,15.727c3.216,4.611,10.372,4.376,14.621,1.494
				c7.039-4.772,3.866-13.753-0.035-19.436c-0.62-0.902-1.704-1.508-2.823-1.149c-10.694,3.428-21.908,4.992-28.494,15.149
				c-0.775,1.195-0.192,2.689,0.897,3.42c7.758,5.205,16.925,2.394,25.427,4.712c3.659,0.998,3.164,5.372,3.496,8.348
				c0.216,1.938,0.981,3.619,1.797,5.36c2.17,4.631,7.2,7.758,10.774,11.189c0.589-1.423,1.178-2.845,1.768-4.268
				c-18.911-1.737-30.887-36.052-52.262-25.658c-1.742,0.847-1.509,3.408,0,4.316c2.731,1.645,5.968,2.589,8.867,3.896
				c1.807,0.816,3.561,1.734,5.221,2.819c2.508,1.64,0.839,1.874-1.49,2.715c0.941,0.384,1.882,0.767,2.823,1.149
				c-3.241-4.701,1.329-9.972,4.767-13.082c4.023-3.64,10.093-6.354,15.41-4.245C101.335,656.601,102.625,651.764,99.665,650.589
				L99.665,650.589z"/>
		</g>
	</g>
	<g>
		<g>
			<path fill="#808285" d="M77.232,662.768c13.694,16.574,28.34,32.268,44,47c2.346,2.207,5.888-1.322,3.535-3.535
				c-15.66-14.732-30.306-30.426-44-47C78.712,656.744,75.195,660.303,77.232,662.768L77.232,662.768z"/>
		</g>
	</g>
	<g>
		<g>
			<path fill="#808285" d="M73.232,672.768c7.861,9.739,16.85,18.591,26.574,26.462c9.404,7.613,20.363,15.126,32.529,17.182
				c3.153,0.532,4.503-4.286,1.329-4.822c-11.85-2.001-22.321-9.417-31.468-16.821c-9.322-7.547-17.896-16.205-25.429-25.535
				C74.742,666.723,71.227,670.284,73.232,672.768L73.232,672.768z"/>
		</g>
	</g>
	<g>
		<g>
			<path fill="#808285" d="M105.232,666.768c11.313,9.76,16.923,23.665,25.609,35.494c1.887,2.569,6.229,0.08,4.317-2.523
				c-8.938-12.174-14.746-26.461-26.391-36.506C106.34,661.138,102.787,664.658,105.232,666.768L105.232,666.768z"/>
		</g>
	</g>
	<g>
		<g>
			<path fill="#808285" d="M98.5,655c1.712,17.621,15.134,32.284,23.341,47.262c1.55,2.828,5.868,0.306,4.317-2.523
				c-3.874-7.07-8.417-13.754-12.581-20.652c-4.411-7.305-9.236-15.422-10.078-24.086C103.191,651.821,98.188,651.791,98.5,655
				L98.5,655z"/>
		</g>
	</g>
	<g>
		<g>
			<path fill="#808285" d="M93.232,676.768c8.313,7.169,17.386,13.31,26.506,19.391c2.691,1.795,5.191-2.538,2.523-4.316
				c-8.765-5.846-17.503-11.719-25.494-18.609C94.339,671.138,90.786,674.658,93.232,676.768L93.232,676.768z"/>
		</g>
	</g>
	<g>
		<g>
			<path fill="#808285" d="M75.738,674.158c8.771,5.849,17.542,11.702,26,18c2.589,1.929,5.078-2.415,2.523-4.316
				c-8.458-6.299-17.228-12.152-26-18C75.57,668.047,73.07,672.38,75.738,674.158L75.738,674.158z"/>
		</g>
	</g>
	<g>
		<g>
			<path fill="#808285" d="M76,674.5c9.184,0.247,17.563,5.308,25.128,10.063c7.987,5.021,15.453,10.845,23.61,15.596
				c2.792,1.627,5.308-2.695,2.523-4.316C111.333,686.563,95.5,670.025,76,669.5C72.774,669.413,72.782,674.413,76,674.5L76,674.5z"
				/>
		</g>
	</g>
	<path fill="#808285" d="M395.196,613.602c4.938-9.194-4.408-20.638-14.52-17.655c-0.423,0.125-0.844,0.254-1.267,0.379
		c0.342-0.702,0.667-1.418,0.952-2.16c2.671-6.948,0.994-15.527-3.242-22.042c1.298-3.478,1.867-7.194,1.38-11.123
		c-0.75-6.047-5.155-13.443-12.5-12.5c-24.029,3.088-45.355,17.795-66.615,27.013c-9.151,3.968-18.337,7.856-27.567,11.636
		c-3.047,0.936-6.094,1.868-9.141,2.798c-28.689,8.752-57.533,19.376-87.231,24.06c-23.153,3.651-56.046,4.597-68.382,27.593
		c-17.593,0.083-35.226,0.528-48.902,13.563c-5.77,5.499-4.408,15.764,2.53,19.632c1.005,0.561,2.031,1.054,3.065,1.518
		c1.869,1.673,4.197,2.841,6.645,3.195c0.584,1.516,1.481,2.984,2.76,4.333c6.642,7.002,15.509,9.273,24.42,11.582
		c3.461,7.548,9.231,14.43,16.259,19.059c0.069,0.092,0.133,0.187,0.203,0.277c0.682,0.889,1.384,1.745,2.097,2.583
		c-1.458,6.286,1.14,13.503,8.536,14.714c38.559,6.313,75.384-15.166,108.526-28.947c8.916-3.708,17.59-7.592,26.079-11.813
		c7.461-2.412,14.968-4.673,22.565-6.626c16.773-4.313,33.711-7.897,50.364-12.69c17.282-4.975,35.812-10.806,50.481-21.538
		c7.89-5.772,15.185-13.234,17.361-23.116C401.139,622.396,399.385,616.529,395.196,613.602z"/>
</g>
<line fill="none" stroke="#939598" stroke-width="8" stroke-miterlimit="10" x1="157.167" y1="765.357" x2="476.389" y2="640.822"/>
<line fill="none" stroke="#939598" stroke-width="8" stroke-miterlimit="10" x1="116" y1="737.001" x2="159.772" y2="768.001"/>
<path fill="none" stroke="#FFFFFF" stroke-miterlimit="10" d="M161,770.667c-2.035-0.217-4.726-0.008-6.333,1"/>
<path fill="none" stroke="#FFFFFF" stroke-miterlimit="10" d="M160.167,770.167c-1.759,0.424-4.49-0.258-6,0.834"/>
<path fill="none" stroke="#A7A9AC" stroke-width="3" stroke-miterlimit="10" d="M160,769.167c-0.644,0.73-1.932,0.943-2.833,1.334"
	/>
<g>
	<g>
		<path fill="#A7A9AC" d="M173.101,755.769c1.105-1.112,1.447-2.782,2.821-3.563c1.516-0.86,3.549-1.032,5.243-1.294
			c1.349-0.209,2.076-1.878,1.746-3.076c-0.392-1.425-1.73-1.954-3.075-1.746c-2.043,0.317-4.112,0.674-5.991,1.583
			c-0.919,0.444-1.73,1.009-2.451,1.734c-0.811,0.815-1.037,2.03-1.827,2.826C167.292,754.521,170.826,758.059,173.101,755.769
			L173.101,755.769z"/>
	</g>
</g>
<g>
	<g>
		<path fill="#A7A9AC" d="M174.072,748.842c-1.345,0.913-2.673,1.528-4.167,2.166c-1.395,0.383-1.078,1.021,0.951,1.912
			c0.144-0.527,0.356-1.024,0.636-1.491c-1.523-0.642-3.046-1.284-4.569-1.927c-0.528,3.145-2.707,4.83-5.697,5.518
			c-1.821,0.419-6.249,1.953-7.4-0.28c-0.941,1.224-1.882,2.448-2.823,3.673c1.943,0.275,3.263,2.241,4.397,3.689
			c1.986,2.537,5.499-1.027,3.535-3.535c-1.673-2.138-3.77-4.574-6.603-4.977c-2.147-0.304-3.909,1.567-2.823,3.673
			c2.221,4.309,6.595,3.798,10.716,2.989c5.419-1.064,10.506-3.385,11.52-9.42c0.443-2.637-3.135-4.592-4.569-1.927
			c-1.237,2.3-2.136,4.77-0.143,6.851c2.228,2.325,7.772-1.381,9.563-2.596C179.247,751.361,176.749,747.027,174.072,748.842
			L174.072,748.842z"/>
	</g>
</g>
<g>
	<g>
		<path fill="#A7A9AC" d="M173.244,756.832c0.985-4.486,7-4.175,10.023-7.063c1.245-1.188,0.771-3.025-0.506-3.927
			c-3.596-2.538-11.688-2.196-13.784,2.152c-3.386,7.021,5.979,9.495,10.463,5.972c9.243-7.263,21.086-9.83,31.957-13.509
			c5.148-1.742,9.927-3.328,14.735-5.934c4.083-2.212,8.299-4.65,12.699-6.111c-0.941-0.384-1.882-0.767-2.823-1.149
			c0.149-1.236-0.122-1.267-0.813-0.089c-0.444,0.438-0.912,0.851-1.401,1.237c-1.852,1.423-4.189,2.313-6.309,3.246
			c-5.297,2.329-10.646,4.58-16,6.773c-4.991,2.045-10.217,3.34-15.399,4.792c-2.263,0.635-4.478,1.369-6.667,2.222
			c-2.864,1.115-3.603,2.302-4.341-0.942c-0.716-3.143-5.537-1.81-4.821,1.33c1.162,5.098,3.681,7.166,8.867,5.098
			c8.289-3.307,17.075-4.967,25.343-8.354c3.391-1.389,31.462-10.192,25.86-17.836c-0.645-0.879-1.686-1.526-2.823-1.149
			c-5.377,1.786-10.46,4.756-15.452,7.46c-6.58,3.565-14.526,5.846-21.778,7.645c-6.58,1.632-13.163,4.677-19.014,8.085
			c-1.008,0.588-7.5,5.339-7.731,3.439c-0.175-1.437,5.984-0.572,6.71-0.059c-0.169-1.31-0.337-2.618-0.506-3.927
			c-2.206,2.107-5.806,2.222-8.327,3.942c-1.872,1.276-2.52,3.219-2.982,5.326C167.732,758.645,172.553,759.98,173.244,756.832
			L173.244,756.832z"/>
	</g>
</g>
<g>
	<g>
		<path fill="#A7A9AC" d="M238.5,727.667c7.575-0.47,15.186-4.438,22.353-6.78c8.183-2.675,16.478-4.676,24.491-7.914
			c3.473-1.403,6.592-3.228,10.222-4.302c4.229-1.251,8.387-2.292,12.484-3.958c3.914-1.592,8.081-2.71,11.876-4.579
			c1.539-0.758,2.925-1.609,4.277-2.665c2.387-1.86,4.813-2.247,7.629-3.057c3.093-0.89,1.776-5.715-1.33-4.822
			c-3.335,0.959-5.966,1.328-8.748,3.497c-3.447,2.688-7.453,3.965-11.508,5.438c-7.435,2.702-15.395,4.54-22.606,7.744
			c-8.093,3.596-16.188,6.617-24.804,8.82c-3.912,1.001-7.705,2.468-11.521,3.772c-4.121,1.408-8.43,3.532-12.814,3.805
			C235.298,722.865,235.278,727.867,238.5,727.667L238.5,727.667z"/>
	</g>
</g>
<g>
	<g>
		<path fill="#A7A9AC" d="M236.835,729.745c4.425,1.027,8.605-0.722,12.829-1.833c3.116-0.82,1.792-5.644-1.329-4.822
			c-3.197,0.842-6.819,2.612-10.171,1.833C235.027,724.194,233.695,729.016,236.835,729.745L236.835,729.745z"/>
	</g>
</g>
<g>
	<g>
		<path fill="#A7A9AC" d="M380.501,674.334c4.538-0.407,9.159-3.127,13.557-4.446c6.801-2.041,13.869-3.8,20.432-6.522
			c5.891-2.444,11.415-5.119,17.553-6.966c5.599-1.685,11.712-3.657,16.721-6.739c2.193-1.35,1.187-4.504-1.262-4.659
			c-8.511-0.539-17.665,3.228-25.367,6.385c-4.121,1.688-8.663,2.805-12.921,4.124c-4.229,1.311-7.877,3.348-11.808,5.332
			c1.01,1.31,2.02,2.618,3.029,3.927c4.881-5.101,9.23-8.57,16.419-9.428c5.623-0.672,10.74-2.887,16.341-3.668
			c12.498-1.744,24.164-6.752,35.972-10.928c3.018-1.068,1.718-5.899-1.33-4.822c-13.131,4.646-25.652,9.161-39.443,11.46
			c-3.049,0.508-5.858,1.906-8.875,2.572c-3.271,0.722-6.593,0.764-9.849,1.635c-5.032,1.348-9.314,6.032-12.77,9.644
			c-2.017,2.107,0.519,5.194,3.029,3.927c7.655-3.865,15.409-6.271,23.534-8.953c7.674-2.533,15.653-6.736,24.038-6.206
			c-0.421-1.553-0.841-3.105-1.262-4.659c-4.662,2.869-10.32,4.621-15.526,6.236c-5.734,1.778-11.028,3.9-16.474,6.43
			c-5.879,2.731-12.203,4.037-18.355,5.986c-2.543,0.806-5.07,1.633-7.628,2.398c-2.401,0.719-5.276,2.719-7.755,2.941
			C377.316,669.62,377.288,674.622,380.501,674.334L380.501,674.334z"/>
	</g>
</g>
<line fill="none" stroke="#A7A9AC" stroke-width="7" stroke-miterlimit="10" x1="459.063" y1="603.833" x2="477.167" y2="644.501"/>
<path fill="#A7A9AC" d="M465.722,622.76c-0.231-0.461-0.479-0.899-0.719-1.347c-0.313-3.396-0.345-6.858-2.177-9.841
	c-1.017-1.654-2.988-1.391-4.025-0.32c-0.016-0.049-0.027-0.098-0.042-0.146c0.369-1.045,0.092-2.341-0.828-3.003
	c-0.325-0.928-0.793-1.8-1.662-2.536c-2.444-2.07-5.999,1.448-3.535,3.535c0.051,0.043,0.084,0.098,0.13,0.145
	c-0.334,0.392-0.546,0.915-0.529,1.588c0.117,4.692,0.968,9.103,2.607,13.504c1.781,4.779,5.997,8.946,6.06,14.163
	c0.037,3.11,4.687,3.212,4.973,0.313c1.226,0.15,2.465-0.173,3.509-1.217C473.527,633.552,467.6,626.491,465.722,622.76z
	 M460.305,624.318c-0.557-1.248-1.021-2.531-1.418-3.835c0.464,0.707,0.912,1.43,1.334,2.179
	C460.247,623.233,460.274,623.784,460.305,624.318z"/>
<path fill="#A7A9AC" d="M415.929,580.342c-0.394-0.176-0.776-0.375-1.15-0.594c0.012-0.069,0.031-0.13,0.041-0.201
	c0.489-3.694-3.982-6.583-6.557-8.33c-2.886-1.957-6.227-3.973-9.582-5.115c0.064-3.113-2.153-7.078-3.292-9.227
	c-1.926-3.637-2.733-7.44-2.942-11.38c0.563-0.294,1.043-0.791,1.299-1.496c0.69-1.907,0.963-3.882,1.5-5.833
	c0.85-3.094,2.883-6.053,4.581-8.737c2.409-3.809,5.55-6.969,7.884-10.811c0.144,0.029,0.293,0.049,0.457,0.049
	c0.66,0,1.301-0.266,1.768-0.732c0.509-0.509,0.776-1.327,0.714-2.092c1.069-1.771-0.235-4.64-2.646-3.753
	c-1.244,0.458-2.336,1.025-3.346,1.685c-4.857,1.199-12.066,6.06-10.689,11.174c0.031,0.116,0.069,0.233,0.109,0.35
	c-0.856-0.424-1.946-0.348-2.843,0.436c-1.27,1.109-2.229,2.866-2.872,4.896c-1.425-1.022-3.919-0.085-4.027,2.037
	c-0.455,8.907-0.42,18.446,1.589,27.165c1.135,4.921,2.116,11.495,8.334,10.59c0.498,0.119,1.022,0.102,1.5-0.033
	c-0.454,0.702-0.55,1.615-0.081,2.54c1.996,3.941,6.387,7.313,10.184,9.372c1.555,0.843,3.54,1.301,5.254,1.043
	c0.725,0.502,1.48,0.954,2.292,1.316C416.323,585.962,418.868,581.654,415.929,580.342z"/>
<path fill="#FFFFFF" d="M505.824,540.105c-1.856-12.648-9.636-26.328-20.521-33.278c-8.852-5.652-23.771-8.993-33.875-4.826h-1.095
	c-3.225,0-3.225,5,0,5h0.276c0.271,0.109,0.568,0.173,0.891,0.166c0.682-0.015,1.318-0.083,1.969-0.166h0.031
	c0-0.001,0-0.003-0.001-0.004c0.222-0.028,0.438-0.052,0.666-0.085c0.818-0.119,1.33-0.579,1.59-1.169
	c8.904-2.362,21.118,1.63,28.219,6.164c9.438,6.027,15.106,18.99,17.027,29.527c1.133,6.209,0.871,12.937-3.433,17.92
	c-3.3,3.822-8.641,5.731-13.276,7.288c-3.021,1.015-6.033,1.83-9.05,2.5c0.763-1.988,1.096-4.238,1.256-6.333
	c0.287-3.757-1.604-6.331-4.212-8.321c0.072,0.028,0.143,0.062,0.215,0.09c2.634,1.039,4.486-3.386,1.927-4.57
	c-1.425-0.659-2.86-1.26-4.303-1.832c-5.13-2.305-10.091-4.93-15.522-6.554c-7.514-2.245-15.606-2.97-23.342-4.14
	c-4.414-0.668-12.877-2.594-16.931,0.219c-2.328,1.615-4.251,4.502-3.64,7.225c-1.035,0.292-1.727,1.303-1.739,2.388
	c-0.239,0.175-0.445,0.39-0.614,0.633c-0.001-0.148-0.01-0.297-0.004-0.445c0.118-3.226-4.883-3.214-5,0
	c-0.407,11.134,12.848,21.362,22.241,24.985c6.991,2.696,14.389,3.18,21.813,3.155c0.285,0.893,1.041,1.591,2.278,1.525
	c14.249-0.757,28.237-1.967,41.48-7.773c5.049-2.214,9.52-5.129,12.468-9.891C507.261,553.617,506.782,546.638,505.824,540.105z
	 M463.832,568.578c0.965-0.402,1.48-1.188,1.632-2.018c0.097-0.027,0.192-0.056,0.289-0.083c1.821-0.256,3.631-0.58,5.413-1.065
	c0.042-0.012,0.074-0.033,0.114-0.046c-0.225,0.983-0.524,1.884-0.803,2.525c-1.195,2.753-5.28,2.419-7.683,2.442
	c-1.604,0.016-3.216,0.058-4.832,0.107C459.92,569.986,461.87,569.396,463.832,568.578z"/>
<path fill="#939598" d="M518.245,550.169c-1.073-2.924-2.553-5.603-4.057-8.295c0.866-0.694,1.33-1.884,0.638-3.135
	c-1.1-1.986-2.069-4.03-3.012-6.085c0.425,0.829,0.867,1.649,1.361,2.441c1.701,2.729,6.028,0.221,4.316-2.523
	c-2.982-4.783-4.686-10.1-8.052-14.679c-3.093-4.208-7.07-7.55-11.178-10.718c-1.268-0.979-2.517-0.398-3.147,0.671
	c-4.688-5.318-10.844-10.516-17.948-10.846c-1.357-0.063-2.134,0.789-2.347,1.806c-1.624-0.321-3.281-0.569-4.972-0.758
	c-4.91-0.547-9.885-0.533-14.818-0.547c-5.032-0.015-10.055-1.119-15.031-1.912c-3.153-0.502-4.507,4.315-1.33,4.822
	c3.6,0.572,7.165,1.227,10.75,1.833c4.231,0.715,8.772,0.244,13.051,0.35c8.764,0.217,17.188,1.241,24.264,6.799
	c5.993,4.708,10.639,11.497,14.7,17.848c2.52,3.939,4.249,8.101,5.989,12.425c1.66,4.122,4.462,7.64,6,11.833
	C514.524,554.499,519.357,553.203,518.245,550.169z"/>
<path fill="#939598" d="M547.745,527.002c-2.456-6.142-6.04-12.449-10.044-18.227c-1.329-2.547-2.72-5.036-4.098-7.449
	c-5.771-10.104-14.498-18.119-26.604-18.492c-3.227-0.1-3.217,4.901,0,5c0.13,0.004,0.251,0.022,0.379,0.028
	c-1.073,1.048-1.324,2.996,0.359,3.964c6.489,3.729,13.852,5.473,19.138,11.049c3.052,3.219,5.461,7.416,7.909,11.175
	c3.868,7.953,6.705,16.491,5.715,25.284c-0.36,3.201,4.644,3.166,5,0c0.075-0.669,0.114-1.336,0.149-2.003
	c2.477,14.343-3.376,29.243-15.355,38.497c-6.901,5.332-16.021,8.203-23.999,11.541c-9.032,3.78-18.298,5.346-28.046,5.503
	c-10.016,0.162-19.334,0.145-29.063-2.618c-4.225-1.199-8.32-2.434-12.699-2.917c-5.191-0.572-10.337,0.056-15.488-1.081
	c-3.143-0.692-4.478,4.127-1.33,4.822c4.974,1.097,9.965,0.981,15.027,1.146c5.701,0.184,11.111,2.348,16.57,3.784
	c10.444,2.748,21.512,2.218,32.207,1.747c10.382-0.458,20.138-3.681,29.544-7.899c9.022-4.048,18.075-7.114,25.062-14.456
	C550.837,561.993,554.625,544.218,547.745,527.002z M518.644,491.682c-2.035-0.965-4.105-1.909-6.156-2.969
	C514.731,489.378,516.771,490.398,518.644,491.682z"/>
<path fill="#FFFFFF" d="M383,496.501c-2.548,0.089-5.069,1.227-7.248,2.475c-1.534,0.881-3.912,2.764-3.344,4.762
	c-6.312,5.926-10.977,13.237-16.232,20.335c-1.922,2.595,2.421,5.084,4.316,2.523c6.404-8.646,11.835-17.837,21.104-23.77
	c0.538-0.344,0.862-0.792,1.027-1.273c0.156-0.028,0.294-0.049,0.377-0.052C386.215,501.389,386.226,496.389,383,496.501z"/>
</svg>
