<?xml version="1.0" encoding="utf-8"?>
<!-- Generator: Adobe Illustrator 16.0.0, SVG Export Plug-In . SVG Version: 6.00 Build 0)  -->
<!DOCTYPE svg PUBLIC "-//W3C//DTD SVG 1.1//EN" "http://www.w3.org/Graphics/SVG/1.1/DTD/svg11.dtd">
<svg version="1.1" id="Layer_1" xmlns="http://www.w3.org/2000/svg" xmlns:xlink="http://www.w3.org/1999/xlink" x="0px" y="0px"
	 width="612px" height="792px" viewBox="0 0 612 792" enable-background="new 0 0 612 792" xml:space="preserve">
<rect x="11" y="383" fill="none" width="591" height="400"/>
<g>
	<path fill-rule="evenodd" clip-rule="evenodd" fill="#D1D3D4" d="M588.887,528.225c0,78.029-0.173,156.059,0.285,234.088
		c0.045,7.226-2.501,8.874-13.585,8.856c-180.292-0.263-360.591-0.263-540.886,0c-11.083,0.018-13.755-1.619-13.602-8.858
		c0.689-32.746,0.301-65.502,0.301-98.257c19.154,11.035,38.373,22.02,57.445,33.113c28.93,16.827,57.877,33.645,86.544,50.655
		c7.152,4.246,15.346,3.323,22.925,2.451c9.623-1.106,5.386-6.92,5.771-10.728c0.68-6.703,1.28-13.549-0.037-20.171
		c-2.394-12.039,4.444-15.376,22.958-15.166c65.647,0.751,131.329,0.451,196.987,0.042c6.524-0.042,19.6,4.75,18.951-6.149
		c0.129-28.624,0.259-57.248,0.389-85.869c5.494-0.187,9.465-2.135,13.4-4.475c31.974-19.009,63.156-38.655,96.537-56.552
		C558.009,543.308,569.153,531.983,588.887,528.225z"/>
	<path fill-rule="evenodd" clip-rule="evenodd" fill="#D1D3D4" d="M21.401,646.713c0-78.353,0.333-156.707-0.429-235.058
		c-0.093-9.589,4.398-10.799,17.373-10.774c178.458,0.276,356.915,0.334,535.372-0.103c14.114-0.034,15.683,2.557,15.482,10.595
		c-0.768,31.236-0.313,62.486-0.313,93.732c-20.591-4.652-32.87-16.433-48.764-24.949c-32.225-17.266-62.519-36.085-93.173-54.571
		c-7.615-4.591-16.019-5.068-24.492-3.453c-9.754,1.856-5.646,7.997-6.122,12.371c-0.679,6.211-1.073,12.543-0.018,18.707
		c1.967,11.407-5.048,14.801-22.375,14.647c-65.559-0.564-131.156,0.358-196.696-0.543c-21.172-0.294-26.093,4.606-25.472,17.236
		c1.226,24.948,0.403,49.939,0.429,74.911c-19.052,11.151-38.014,22.369-57.176,33.44C83.889,610.891,52.617,628.781,21.401,646.713
		z"/>
	<path fill-rule="evenodd" clip-rule="evenodd" fill="#939598" d="M172.204,559.462c-0.026-24.972,0.797-49.963-0.429-74.911
		c-0.621-12.63,4.3-17.53,25.472-17.236c65.541,0.901,131.138-0.021,196.696,0.543c17.327,0.153,24.342-3.24,22.375-14.647
		c-1.056-6.164-0.661-12.496,0.018-18.707c0.477-4.374-3.632-10.515,6.122-12.371c8.474-1.615,16.877-1.138,24.492,3.453
		c30.654,18.486,60.948,37.306,93.173,54.571c15.894,8.517,28.173,20.297,48.764,24.949c0,7.704,0,15.415,0,23.119
		c-19.733,3.759-30.878,15.083-45.615,22.981c-33.381,17.896-64.563,37.543-96.537,56.552c-3.936,2.34-7.906,4.288-13.4,4.475
		c-2.312,0-4.623,0-6.936,0c-3.68-1.96-7.36-3.918-11.041-5.877c0.247-9.571,0.078-19.156,0.875-28.708
		c0.692-8.225-3.061-12.169-17.128-12.067c-68.312,0.484-136.635,0.465-204.951,0.627
		C187.468,563.085,181.167,559.434,172.204,559.462z M203.256,479.106c-2.965,0.034-5.931,0.067-8.896,0.102
		c-6.123,1.986-7.616,5.767-7.664,9.607c-0.223,18.564-0.223,37.135,0,55.699c0.045,3.845,1.539,7.621,7.657,9.613
		c1.455,0.23,2.908,0.462,4.36,0.693c10.415,3.131,21.563,2.374,32.472,2.388c67.392,0.096,134.782,0.058,202.171,0.063
		c0.936,11.705,1.866,23.412,2.88,36.069c8.633-1.588,13.102-4.398,16.621-8.065c32.893-18.878,65.796-37.744,98.676-56.634
		c20.834-11.972,20.824-12.001,0.801-23.453c-31.845-18.203-63.711-36.395-95.567-54.588c-5.55-3.965-9.819-9.224-20.772-9.262
		c-0.91,12.09-1.758,23.402-2.611,34.713c-65.979,0-131.961-0.057-197.942,0.057C224.577,476.129,213.309,475.075,203.256,479.106z"
		/>
	<path fill-rule="evenodd" clip-rule="evenodd" fill="#BCBEC0" d="M172.204,559.462c8.963-0.028,15.264,3.623,21.949,6.745
		c0.043,9.145,1.11,18.346-0.137,27.415c-1.407,10.238,4.33,12.981,19.776,12.87c67.179-0.498,134.371-0.167,201.565-0.137
		c3.681,1.959,7.361,3.917,11.023,5.871c-7.195,0.874-14.383,2.496-21.574,2.513c-75.897,0.15-151.797,0.044-227.697,0.004
		c-0.431-3.821-0.362-7.701-1.401-11.452c-2.106-7.608,6.731-19.631-5.366-21.804c-9.646-1.729-21.477,8.082-28.199,15.753
		c-19.407,7.484-35.418,17.568-50.624,28.268c-4.116,1.97-8.33,3.854-12.329,5.921c-45.199,23.354-45.19,23.362-0.859,47.115
		c23.204,13.422,44.406,28.328,70.035,39.939c2.814,2.111,5.178,4.615,8.549,6.229c4.856,2.329,8.328,7.963,15.632,5.601
		c5.748-1.86,2.808-6.811,3.152-10.4c0.765-7.954,1.1-15.921,1.611-23.884c46.445,0.053,92.895,0.437,139.331,0.041
		c31.606-0.27,63.373,1.959,94.818-1.913c2.866-0.782,5.736-1.564,8.607-2.343c3.156,3.082,7.317,5.291,12.877,6.288
		c0.648,10.899-12.427,6.107-18.951,6.149c-65.658,0.409-131.34,0.709-196.987-0.042c-18.513-0.21-25.352,3.127-22.958,15.166
		c1.316,6.622,0.716,13.468,0.037,20.171c-0.385,3.808,3.852,9.621-5.771,10.728c-7.579,0.872-15.772,1.795-22.925-2.451
		c-28.667-17.011-57.614-33.828-86.544-50.655c-19.072-11.094-38.291-22.078-57.445-33.113c0-5.779,0-11.561,0-17.341
		c31.216-17.932,62.488-35.822,93.627-53.811C134.19,581.831,153.152,570.613,172.204,559.462z"/>
	<path fill-rule="evenodd" clip-rule="evenodd" fill="#A7A9AC" d="M432.945,698.102c-5.56-0.997-9.721-3.206-12.877-6.288
		c-0.243-19.516-0.728-39.037-0.623-58.556c0.057-11.084-3.905-18.192-24.221-13.271c-3.333,0.81-7.203,0.688-10.823,0.995
		c-6.044-3.327-13.335-3.416-20.669-3.372c-28.429,0.187-56.861,0.373-85.293,0.56c-22.109,0.002-44.218,0.006-66.327,0.012
		c-11.479-1.96-24.319,1.979-35.002-3.438c75.899,0.04,151.799,0.146,227.697-0.004c7.191-0.017,14.379-1.639,21.574-2.513
		c2.33,0.006,4.642,0.006,6.953,0.006C433.204,640.854,433.074,669.478,432.945,698.102z"/>
	<path fill-rule="evenodd" clip-rule="evenodd" fill="#D1D3D4" d="M415.357,606.355c-67.194-0.03-134.386-0.361-201.565,0.137
		c-15.446,0.111-21.183-2.632-19.776-12.87c1.247-9.069,0.18-18.271,0.137-27.415c68.316-0.162,136.64-0.143,204.951-0.627
		c14.067-0.102,17.82,3.843,17.128,12.067C415.436,587.199,415.604,596.784,415.357,606.355z"/>
	<path fill-rule="evenodd" clip-rule="evenodd" fill="#808285" d="M456.766,450.602c31.856,18.193,63.723,36.385,95.567,54.588
		c20.023,11.452,20.033,11.481-0.801,23.453c-32.88,18.89-65.783,37.756-98.68,56.634c-0.485-2.685-0.971-5.37-1.455-8.058
		c27.657-16.535,54.92-33.363,83.137-49.482c13.915-7.95,14.166-14.003,0.061-22.005c-28.307-16.058-55.636-32.848-83.37-49.335
		C453.068,454.463,454.922,452.532,456.766,450.602z"/>
	<path fill-rule="evenodd" clip-rule="evenodd" fill="#808285" d="M456.766,450.602c-1.844,1.931-3.697,3.861-5.541,5.791
		c-7.084,9.364-3.217,19.39-4.113,29.128c-31-0.142-62.008-0.286-93.009-0.431c-0.086-1.857-0.177-3.715-0.264-5.57
		c26.337-2.892,53.631,3.552,79.543-3.467c0.854-11.311,1.701-22.623,2.611-34.713C446.946,441.378,451.216,446.637,456.766,450.602
		z"/>
	<path fill-rule="evenodd" clip-rule="evenodd" fill="#808285" d="M451.397,577.219c0.484,2.688,0.97,5.373,1.455,8.058
		c-3.516,3.667-7.984,6.478-16.617,8.065c-1.014-12.657-1.944-24.364-2.88-36.069c-25.903-7.009-53.188-0.574-79.521-3.462
		c0.092-1.855,0.178-3.714,0.269-5.57c31.005-0.142,62.009-0.281,93.018-0.423C448.067,557.645,443.984,567.786,451.397,577.219z"/>
	<path fill-rule="evenodd" clip-rule="evenodd" fill="#808285" d="M194.359,479.208c2.965-0.034,5.931-0.067,8.895-0.102
		c11.927,6.412,26.262,2.024,39.252,3.715c0.266,0.796,0.214,1.591-0.145,2.382c-8.184,2.946-17.167,1.694-25.837,2.065
		c-5.956,0.252-13.381,0.372-14.857,4.555c-5.628,15.963-6.174,32.507-0.155,48.114c4.25,11.019,23.042,4.154,34.738,6.669
		c2.072,0.442,4.087,1.002,6.13,1.51c0.351,0.79,0.392,1.589,0.124,2.392c-14.801,0.563-30.039-0.767-43.792,4.313
		c-1.453-0.231-2.905-0.463-4.358-0.693C194.357,529.156,194.359,504.18,194.359,479.208z"/>
	<path fill-rule="evenodd" clip-rule="evenodd" fill="#939598" d="M242.498,482.824c-12.981-1.693-27.316,2.694-39.243-3.718
		c10.055-4.031,21.323-2.978,32.186-2.997c65.98-0.113,131.963-0.057,197.942-0.057c-25.912,7.019-53.206,0.575-79.548,3.467
		c-22.843-0.24-45.698-0.864-68.525-0.576C270.927,479.129,255.651,476.439,242.498,482.824z"/>
	<path fill-rule="evenodd" clip-rule="evenodd" fill="#808285" d="M198.712,554.821c13.752-5.08,28.99-3.751,43.8-4.308
		c7.364,4.079,16.268,3.97,25.124,3.913c28.734-0.192,57.467-0.407,86.202-0.616c26.328,2.888,53.613-3.547,79.517,3.462
		c-67.39-0.006-134.779,0.032-202.171-0.063C220.276,557.195,209.127,557.952,198.712,554.821z"/>
	<path fill-rule="evenodd" clip-rule="evenodd" fill="#808285" d="M194.359,479.208c0,24.972-0.002,49.948-0.005,74.92
		c-6.12-1.992-7.614-5.769-7.659-9.613c-0.223-18.564-0.223-37.135,0-55.699C186.743,484.975,188.237,481.194,194.359,479.208z"/>
	<path fill-rule="evenodd" clip-rule="evenodd" fill="#A7A9AC" d="M384.401,620.982c3.62-0.307,7.49-0.186,10.823-0.995
		c20.315-4.922,24.277,2.187,24.221,13.271c-0.104,19.519,0.38,39.04,0.623,58.556c-2.871,0.778-5.741,1.561-8.607,2.34
		c-1.623-0.511-3.247-1.016-4.875-1.521c0.147-1.986,0.286-3.974,0.429-5.963c0.411-13.884,0.064-27.803,1.45-41.646
		c1.222-12.146-4.893-19.391-24.683-20.012C383.985,623.668,384.193,622.323,384.401,620.982z"/>
	<path fill-rule="evenodd" clip-rule="evenodd" fill="#939598" d="M177.11,614.743c10.683,5.417,23.523,1.479,35.005,3.438
		c-0.128,1.927-0.256,3.855-0.384,5.781c-1.441,0.116-2.879,0.295-4.325,0.333c-34.028,0.938-34.184,0.969-44.988-19.51
		c-4.512-8.551-10.896-2.568-16.777-1.283c-1.175-2.092-2.353-4.187-3.531-6.276c6.756-7.657,18.587-17.468,28.233-15.739
		c12.097,2.173,3.26,14.195,5.366,21.804C176.748,607.042,176.679,610.922,177.11,614.743z"/>
	<path fill-rule="evenodd" clip-rule="evenodd" fill="#808285" d="M78.331,678.544c-44.329-23.753-44.337-23.761,0.861-47.115
		c3.999-2.066,8.213-3.951,12.335-5.927c0.654,2.599,1.301,5.205,1.949,7.807c-1.524,0.935-3.046,1.873-4.568,2.81
		c-34.996,13.954-35.07,24.01-0.288,38.823c1.365,0.887,2.731,1.774,4.097,2.664C87.921,677.916,83.125,678.229,78.331,678.544z"/>
	<path fill-rule="evenodd" clip-rule="evenodd" fill="#939598" d="M177.312,696.028c-0.511,7.963-0.847,15.93-1.611,23.884
		c-0.344,3.59,2.596,8.54-3.152,10.4c-7.304,2.362-10.776-3.271-15.632-5.601c-3.371-1.613-5.734-4.117-8.536-6.234
		c0.706-1.938,1.401-3.872,2.096-5.809c12.575,1.49,12.945-4.17,12.365-9.545c-1.406-13.038,6.93-18.637,27.041-16.019
		c0.08,1.834,0.163,3.67,0.243,5.504C185.853,693.75,181.582,694.89,177.312,696.028z"/>
	<path fill-rule="evenodd" clip-rule="evenodd" fill="#939598" d="M177.312,696.028c4.271-1.139,8.542-2.278,12.811-3.419
		c33.771,0.084,67.543,0.169,101.316,0.253c38.384-0.078,76.766-0.155,115.147-0.23c1.628,0.506,3.252,1.011,4.875,1.521
		c-31.445,3.875-63.212,1.646-94.818,1.916C270.206,696.465,223.757,696.081,177.312,696.028z"/>
	<path fill-rule="evenodd" clip-rule="evenodd" fill="#939598" d="M150.477,712.669c-0.695,1.937-1.39,3.871-2.096,5.809
		c-25.641-11.605-46.843-26.512-70.047-39.934c4.792-0.314,9.588-0.628,14.372-0.938c12.194,5.644,20.996,14.089,35.146,18.131
		C135.392,701.38,142.934,707.024,150.477,712.669z"/>
	<path fill-rule="evenodd" clip-rule="evenodd" fill="#A7A9AC" d="M93.477,633.309c-0.649-2.602-1.296-5.208-1.95-7.807
		c15.199-10.693,31.21-20.777,50.617-28.262c1.143,2.076,2.321,4.171,3.496,6.263c-5.881,3.868-11.761,7.735-17.643,11.604
		C112.498,617.958,108.038,629.704,93.477,633.309z"/>
	<path fill-rule="evenodd" clip-rule="evenodd" fill="#939598" d="M384.401,620.982c-0.208,1.341-0.416,2.686-0.614,4.032
		c-27.52,0.256-55.047,0.509-82.565,0.767c-7.681-0.646-15.359-1.295-23.041-1.944c0.087-1.891,0.174-3.778,0.258-5.667
		c28.432-0.187,56.865-0.373,85.293-0.56C371.066,617.566,378.357,617.655,384.401,620.982z"/>
	<path fill-rule="evenodd" clip-rule="evenodd" fill="#A7A9AC" d="M278.439,618.17c-0.084,1.889-0.17,3.776-0.255,5.667
		c-22.147,0.042-44.3,0.084-66.453,0.131c0.128-1.931,0.255-3.859,0.384-5.786C234.221,618.176,256.33,618.172,278.439,618.17z"/>
	<path fill-rule="evenodd" clip-rule="evenodd" fill="#6D6E71" d="M451.397,577.219c-7.413-9.433-3.33-19.574-4.277-29.401
		c6.39-20.762,6.416-41.53-0.009-62.297c0.896-9.738-2.971-19.764,4.113-29.128c27.734,16.491,55.063,33.281,83.37,49.339
		c14.105,8.002,13.854,14.055-0.061,22.005C506.317,543.855,479.055,560.684,451.397,577.219z"/>
	<path fill-rule="evenodd" clip-rule="evenodd" fill="#939598" d="M447.111,485.521c6.425,20.767,6.398,41.535,0.009,62.297
		c-31.009,0.142-62.013,0.281-93.018,0.423c-9.108-0.573-18.21-1.146-27.311-1.722c0.004-19.902,0.009-39.805,0.009-59.707
		c9.101-0.576,18.202-1.146,27.302-1.722C385.104,485.234,416.111,485.379,447.111,485.521z"/>
	<path fill-rule="evenodd" clip-rule="evenodd" fill="#808285" d="M354.103,485.09c-9.1,0.575-18.201,1.146-27.298,1.722
		c-25.044-0.918-50.086-1.208-75.118,0.188c-3.11-0.601-6.221-1.201-9.33-1.803c0.364-0.785,0.416-1.58,0.15-2.376
		c13.145-6.382,28.421-3.692,42.802-3.878c22.827-0.288,45.683,0.336,68.525,0.576C353.926,481.375,354.017,483.232,354.103,485.09z
		"/>
	<path fill-rule="evenodd" clip-rule="evenodd" fill="#808285" d="M326.787,546.519c9.105,0.576,18.207,1.148,27.315,1.722
		c-0.091,1.856-0.177,3.715-0.269,5.57c-28.73,0.209-57.463,0.424-86.197,0.616c-8.856,0.057-17.76,0.166-25.124-3.913
		c0.26-0.809,0.219-1.607-0.128-2.403c3.106-0.596,6.207-1.188,9.307-1.781C276.716,547.727,301.75,547.433,326.787,546.519z"/>
	<path fill-rule="evenodd" clip-rule="evenodd" fill="#939598" d="M251.691,546.329c-3.1,0.593-6.201,1.186-9.307,1.781
		c-2.048-0.502-4.063-1.062-6.135-1.504c-11.697-2.515-30.489,4.35-34.738-6.669c-6.019-15.607-5.473-32.151,0.155-48.114
		c1.477-4.183,8.901-4.303,14.857-4.555c8.67-0.371,17.653,0.881,25.837-2.065c3.104,0.596,6.215,1.196,9.325,1.797
		C246.145,506.775,246.136,526.555,251.691,546.329z"/>
	<path fill-rule="evenodd" clip-rule="evenodd" fill="#808285" d="M301.222,625.781c27.519-0.258,55.046-0.511,82.565-0.767
		c19.785,0.617,25.899,7.861,24.678,20.008c-1.386,13.844-1.039,27.763-1.445,41.646c-35.295-0.454-70.59-0.907-105.883-1.361
		C301.165,665.465,301.194,645.623,301.222,625.781z"/>
	<path fill-rule="evenodd" clip-rule="evenodd" fill="#939598" d="M301.137,685.308c35.293,0.454,70.588,0.907,105.883,1.361
		c-0.147,1.989-0.286,3.977-0.434,5.963c-38.382,0.075-76.764,0.152-115.143,0.23c-0.02-1.98-0.043-3.961-0.067-5.943
		C294.63,686.383,297.883,685.848,301.137,685.308z"/>
	<path fill-rule="evenodd" clip-rule="evenodd" fill="#808285" d="M301.137,685.308c-3.253,0.54-6.507,1.075-9.756,1.611
		c-33.832,0.063-67.665,0.125-101.499,0.187c-20.111-2.618-28.447,2.98-27.041,16.019c0.581,5.375,0.21,11.035-12.365,9.545
		c-7.542-5.645-15.084-11.289-22.626-16.933c6.893-26.872,7.34-53.747,0.147-80.629c5.882-3.869,11.762-7.736,17.643-11.604
		c5.882-1.285,12.266-7.268,16.777,1.283c10.805,20.479,10.96,20.447,44.988,19.51c1.446-0.038,2.884-0.217,4.325-0.333
		c22.153-0.042,44.305-0.084,66.453-0.126c7.679,0.649,15.357,1.298,23.038,1.944C301.194,645.623,301.165,665.465,301.137,685.308z
		"/>
	<path fill-rule="evenodd" clip-rule="evenodd" fill="#6D6E71" d="M127.997,615.107c7.193,26.882,6.746,53.757-0.147,80.629
		c-14.149-4.042-22.951-12.487-35.146-18.131c-1.353-0.89-2.719-1.777-4.087-2.664c3.708-12.925,3.617-25.867,0.29-38.823
		c1.521-0.937,3.044-1.875,4.568-2.81C108.038,629.704,112.498,617.958,127.997,615.107z"/>
	<path fill-rule="evenodd" clip-rule="evenodd" fill="#6D6E71" d="M88.908,636.118c3.327,12.956,3.418,25.898-0.29,38.823
		C53.838,660.128,53.912,650.072,88.908,636.118z"/>
	<path fill-rule="evenodd" clip-rule="evenodd" fill="#939598" d="M189.882,687.105c33.833-0.062,67.667-0.124,101.499-0.187
		c0.019,1.982,0.042,3.963,0.063,5.943c-33.777-0.084-67.55-0.169-101.321-0.253C190.045,690.775,189.962,688.939,189.882,687.105z"
		/>
	<path fill-rule="evenodd" clip-rule="evenodd" fill="#939598" d="M251.691,546.329c-5.556-19.774-5.547-39.554-0.005-59.329
		c25.032-1.396,50.074-1.106,75.118-0.188c-0.004,19.902-0.009,39.805-0.013,59.707C301.75,547.433,276.716,547.727,251.691,546.329
		z"/>
</g>
</svg>
