<?xml version="1.0" encoding="utf-8"?>
<!-- Generator: Adobe Illustrator 16.0.0, SVG Export Plug-In . SVG Version: 6.00 Build 0)  -->
<!DOCTYPE svg PUBLIC "-//W3C//DTD SVG 1.1//EN" "http://www.w3.org/Graphics/SVG/1.1/DTD/svg11.dtd">
<svg version="1.1" id="Layer_1" xmlns="http://www.w3.org/2000/svg" xmlns:xlink="http://www.w3.org/1999/xlink" x="0px" y="0px"
	 width="612px" height="792px" viewBox="0 0 612 792" enable-background="new 0 0 612 792" xml:space="preserve">
<g>
	<path fill-rule="evenodd" clip-rule="evenodd" fill="none" d="M583.94,246.448c0,68.119-0.222,136.234,0.291,204.351
		c0.06,8.377-2.479,10.285-13.416,10.266c-177.897-0.305-355.803-0.305-533.702,0c-10.934,0.02-13.429-1.891-13.404-10.266
		c0.395-136.232,0.395-272.469,0-408.703c-0.025-8.374,2.467-10.284,13.404-10.264c177.899,0.302,355.805,0.302,533.702,0
		c10.938-0.02,13.476,1.884,13.416,10.266C583.719,110.212,583.94,178.33,583.94,246.448z M449.267,393.887
		c19.669,0,39.373-0.51,59.006,0.174c13.875,0.487,24.582-2.91,31.147-11.99c6.609-9.134,0.577-17.175-6.112-24.791
		c-10.15-11.562-20.156-23.195-30.448-34.685c-10.514-11.745-16.709-24.7-18.955-38.754c-4.767-29.856-10.143-59.671-13.838-89.606
		c-6.19-50.18-32.384-88.787-99.475-104.66c-9.313-2.205-11.578-8.087-14.674-13.487c-7.875-13.735-21.562-17.787-40.383-17.575
		c-19.199,0.218-37.139,0.668-45.154,16.865c-4.52,9.136-12.623,13.691-24.409,17.026c-50.304,14.236-78.939,42.391-86.394,82.878
		c-5.075,27.574-10.06,55.199-13.232,82.924c-3.443,30.104-12.581,58.099-39.044,81.604c-5.177,4.596-8.728,10.263-13.113,15.396
		c-7.245,8.473-15.427,16.923-7.399,27.618c7.569,10.083,20.077,11.346,33.998,11.196c35.692-0.386,71.415,0.36,107.089-0.361
		c15.238-0.307,23.812,1.957,31.384,14.009c19.603,31.203,76.019,37.092,98.248,8.346c17.441-22.558,38.461-23.785,65.539-22.204
		C431.739,394.316,440.525,393.887,449.267,393.887z"/>
	<path fill-rule="evenodd" clip-rule="evenodd" fill="#A7A9AC" d="M449.267,393.887c-8.741,0-17.527,0.43-26.221-0.078
		c-27.078-1.581-48.098-0.354-65.539,22.204c-22.229,28.746-78.645,22.857-98.248-8.346c-7.572-12.053-16.146-14.316-31.384-14.009
		c-35.674,0.721-71.396-0.025-107.089,0.361c-13.92,0.15-26.429-1.113-33.998-11.196c-8.027-10.694,0.155-19.145,7.399-27.618
		c4.385-5.133,7.936-10.799,13.113-15.396c26.464-23.506,35.602-51.5,39.044-81.604c3.172-27.725,8.158-55.35,13.232-82.924
		c7.454-40.487,36.09-68.642,86.394-82.878c11.786-3.334,19.89-7.89,24.409-17.026c8.016-16.197,25.956-16.647,45.154-16.865
		c18.821-0.212,32.508,3.839,40.383,17.575c3.096,5.4,5.361,11.282,14.674,13.487c67.091,15.873,93.284,54.48,99.475,104.66
		c3.695,29.936,9.071,59.75,13.838,89.606c2.246,14.054,8.441,27.009,18.955,38.754c10.292,11.49,20.298,23.123,30.448,34.685
		c6.689,7.616,12.722,15.657,6.112,24.791c-6.565,9.081-17.272,12.478-31.147,11.99C488.64,393.377,468.936,393.887,449.267,393.887
		z M496.25,340.14l0.258,0.183c-5.76-6.762-11.517-13.528-17.277-20.287c-4.271-11.136-10.356-22.076-12.475-33.444
		c-6.848-36.788-12.013-73.76-18.284-110.613c-3.374-19.799-12.937-37.454-33.647-50.631c-45.6-36.743-152-38.19-201.931-2.72
		c-1.034,0.738-1.678,1.799-2.505,2.709c-21.564,13.707-29.63,32.531-33.629,52.746c-8.801,44.508-12.344,89.574-24.901,135.325
		c8.591,0,16.429,0,24.266,0c64.821,0,129.643-0.049,194.46,0.059c8.286,0.016,18.172-2.264,22.129,6.612
		c-4.494,9.729-15.446,6.661-24.206,6.683c-70.616,0.196-141.239,0.393-211.847-0.111c-15.171-0.111-24.438,4.109-30.962,14.153
		c-4.5,6.935-10.549,13.272-15.701,19.969c-3.919,5.09-11.444,10.004-5.951,16.495c4.729,5.581,13.374,3.042,20.271,3.055
		c98.28,0.144,196.562,0.099,294.839,0.099c29.848,0,59.697-0.119,89.543,0.033c14.979,0.075,18.889-4.862,11.108-14.388
		C512.528,357.152,504.146,348.76,496.25,340.14z M354.179,393.874c-24.079,0-46.442,0.092-68.803-0.029
		c-14.083-0.075-14.5,4.591-7.685,12.141c9.43,10.448,22.591,15.88,38.915,14.276C334.985,418.457,349.1,411.619,354.179,393.874z
		 M341.457,85.63c-9.352-13.117-40.766-18.302-50.81-10.201c-2.189,1.766-3.747,4.957-3.453,7.335
		c0.465,3.755,5.481,2.75,8.688,2.789C310.313,85.73,324.752,85.63,341.457,85.63z"/>
	<path fill-rule="evenodd" clip-rule="evenodd" fill="#BCBEC0" d="M392.717,320.079c-3.961-8.876-13.847-6.596-22.133-6.612
		c-64.817-0.108-129.639-0.059-194.46-0.059c-7.836,0-15.675,0-24.266,0c12.557-45.751,16.1-90.817,24.901-135.325
		c3.999-20.215,12.065-39.039,33.637-52.745c36.775,0.177,73.542,0.352,110.315,0.526c15.927,11.39,39.273,9.99,56.888,19.252
		c4.663,2.455,11.595-3.805,6.327-9.597c-3.176-3.488-8.311-5.93-12.566-8.843c14.492-0.443,28.984-0.887,43.476-1.33
		c20.7,13.179,30.263,30.834,33.637,50.633c6.271,36.853,11.437,73.825,18.284,110.613c2.118,11.368,8.203,22.308,12.475,33.444
		c-5.544,0.023-11.091,0.045-16.636,0.068c-14.208-9.51-39.516-9.503-54.11,0.013C403.231,320.105,397.977,320.092,392.717,320.079z
		 M413.449,173.836c-2.306-6.836-0.845-16.956-13.852-19.524c-7.184-1.418-9.799,5.022-7.646,9.26
		c3.87,7.629-0.849,19.73,14.681,21.592C413.809,186.026,413.382,179.28,413.449,173.836z"/>
	<path fill-rule="evenodd" clip-rule="evenodd" fill="#BCBEC0" d="M462.595,320.105c5.545-0.023,11.092-0.045,16.636-0.068
		c5.761,6.759,11.518,13.524,17.277,20.287c-2.111,0.193-4.238,0.32-6.341,0.585c-15.412,1.943-10.9,11.09-10.794,18.282
		c0.064,4.266,3.797,8.097,9.76,6.585c10.178-2.574,6.878-9.91,7.314-15.697c0.248-3.301-0.11-6.625-0.197-9.938
		c7.896,8.62,16.278,17.012,23.558,25.927c7.78,9.526,3.87,14.463-11.108,14.388c-29.846-0.151-59.695-0.033-89.543-0.033
		c-98.277,0-196.559,0.044-294.839-0.099c-6.897-0.013-15.542,2.526-20.271-3.055c-5.494-6.491,2.031-11.404,5.951-16.495
		c5.152-6.697,11.201-13.034,15.701-19.969c6.523-10.043,15.791-14.264,30.962-14.153c70.608,0.503,141.231,0.307,211.847,0.111
		c8.76-0.022,19.712,3.046,24.21-6.683c5.26,0.013,10.515,0.026,15.768,0.039C422.796,329.71,448.232,329.704,462.595,320.105z
		 M146.641,353.092c-0.742-4.321,1.188-11.725-9.454-11.444c-8.461,0.229-8.31,6.654-8.242,11.715
		c0.073,5.457-1.101,12.566,9.304,12.383C146.97,365.588,146.284,359.085,146.641,353.092z M190.35,354.066
		c-0.462-5.395,1.117-12.667-9.407-12.405c-8.438,0.202-8.306,6.651-8.244,11.705c0.064,5.457-1.106,12.563,9.296,12.38
		C190.712,365.588,190.031,359.089,190.35,354.066z M234.128,352.935c-0.65-4.383,0.994-11.751-9.62-11.313
		c-8.322,0.343-8.224,6.812-8.045,11.876c0.189,5.391-1.225,12.647,9.47,12.239C234.598,365.405,233.789,358.912,234.128,352.935z
		 M277.837,353.769c-0.377-5.309,0.871-12.5-9.185-12.124c-9.472,0.354-8.403,7.456-8.458,12.805
		c-0.047,4.904-0.341,11.133,8.072,11.346C278.381,366.054,277.42,359.164,277.837,353.769z M303.867,353.331
		c0.168,5.542-0.598,12.082,7.863,12.48c10.434,0.491,9.652-6.644,9.768-12.189c0.11-5.019,0.736-11.529-7.783-11.931
		C303.273,341.203,304.384,348.414,303.867,353.331z M365.29,353.033c-0.107-4.934,0.291-11.15-8.094-11.365
		c-10.007-0.256-9.442,6.595-9.494,11.983c-0.047,5.343-0.948,12.422,9.054,12.127C366.533,365.491,364.867,358.313,365.29,353.033z
		 M409.078,354.066c-0.459-5.395,1.12-12.667-9.402-12.405c-8.442,0.202-8.309,6.651-8.245,11.705
		c0.061,5.457-1.11,12.563,9.298,12.38C409.442,365.588,408.758,359.089,409.078,354.066z M452.859,352.928
		c-0.321-4.878,0.274-11.385-8.591-11.267c-10.221,0.13-8.976,7.312-9.065,12.746c-0.077,4.988-0.436,11.459,8.46,11.377
		C454.104,365.688,452.275,358.434,452.859,352.928z"/>
	<path fill-rule="evenodd" clip-rule="evenodd" fill="#BCBEC0" d="M320.711,125.864c-36.773-0.174-73.54-0.35-110.315-0.526
		c0.819-0.911,1.463-1.972,2.497-2.71c49.931-35.47,156.332-34.022,201.931,2.718c-14.48,0.443-28.973,0.887-43.45,1.328
		c-7.472-1.749-14.88-3.727-22.459-5.185C338.722,119.525,327.833,115.854,320.711,125.864z"/>
	<path fill-rule="evenodd" clip-rule="evenodd" fill="#BCBEC0" d="M354.179,393.874c-5.079,17.745-19.193,24.583-37.572,26.388
		c-16.324,1.604-29.485-3.828-38.915-14.276c-6.815-7.55-6.398-12.216,7.685-12.141C307.736,393.966,330.1,393.874,354.179,393.874z
		"/>
	<path fill-rule="evenodd" clip-rule="evenodd" fill="#F6F3F7" d="M341.457,85.63c-16.705,0-31.145,0.1-45.574-0.077
		c-3.208-0.039-8.223,0.966-8.688-2.789c-0.294-2.378,1.264-5.57,3.453-7.335C300.691,67.328,332.105,72.514,341.457,85.63z"/>
	<path fill-rule="evenodd" clip-rule="evenodd" fill="#BCBEC0" d="M320.711,125.864c7.122-10.01,18.011-6.339,28.204-4.375
		c7.579,1.458,14.987,3.437,22.459,5.185c4.241,2.915,9.376,5.357,12.552,8.845c5.268,5.792-1.664,12.051-6.327,9.597
		C359.984,135.854,336.638,137.254,320.711,125.864z"/>
	<path fill-rule="evenodd" clip-rule="evenodd" fill="#A7A9AC" d="M462.595,320.105c-14.362,9.599-39.799,9.605-54.11,0.013
		C423.079,310.602,448.387,310.595,462.595,320.105z"/>
	<path fill-rule="evenodd" clip-rule="evenodd" fill="#BCBEC0" d="M413.449,173.836c-0.067,5.444,0.359,12.19-6.817,11.328
		c-15.529-1.861-10.811-13.963-14.681-21.592c-2.152-4.238,0.463-10.678,7.646-9.26C412.604,156.88,411.144,167,413.449,173.836z"/>
	<path fill-rule="evenodd" clip-rule="evenodd" fill="#A7A9AC" d="M496.25,340.14c0.087,3.314,0.445,6.637,0.197,9.938
		c-0.437,5.787,2.863,13.123-7.314,15.697c-5.963,1.512-9.695-2.319-9.76-6.585c-0.106-7.192-4.618-16.339,10.794-18.282
		c2.103-0.265,4.229-0.392,6.341-0.585L496.25,340.14z"/>
	<path fill-rule="evenodd" clip-rule="evenodd" fill="#A7A9AC" d="M146.641,353.092c-0.357,5.993,0.329,12.497-8.392,12.654
		c-10.405,0.183-9.231-6.926-9.304-12.383c-0.067-5.061-0.219-11.486,8.242-11.715C147.829,341.367,145.899,348.771,146.641,353.092
		z"/>
	<path fill-rule="evenodd" clip-rule="evenodd" fill="#A7A9AC" d="M190.337,354.083c-0.307,5.006,0.375,11.505-8.343,11.663
		c-10.402,0.183-9.232-6.923-9.296-12.38c-0.062-5.054-0.194-11.503,8.244-11.705C191.467,341.4,189.887,348.672,190.337,354.083z"
		/>
	<path fill-rule="evenodd" clip-rule="evenodd" fill="#A7A9AC" d="M234.128,352.935c-0.339,5.977,0.47,12.471-8.195,12.802
		c-10.695,0.409-9.281-6.848-9.47-12.239c-0.179-5.064-0.276-11.533,8.045-11.876C235.122,341.184,233.478,348.551,234.128,352.935z
		"/>
	<path fill-rule="evenodd" clip-rule="evenodd" fill="#A7A9AC" d="M277.84,353.792c-0.42,5.372,0.541,12.262-9.574,12.003
		c-8.413-0.213-8.119-6.441-8.072-11.346c0.055-5.349-1.014-12.451,8.458-12.805C278.708,341.269,277.459,348.459,277.84,353.792z"
		/>
	<path fill-rule="evenodd" clip-rule="evenodd" fill="#A7A9AC" d="M303.867,353.331c0.517-4.917-0.594-12.127,9.847-11.64
		c8.52,0.402,7.894,6.912,7.783,11.931c-0.115,5.545,0.666,12.68-9.768,12.189C303.269,365.412,304.035,358.873,303.867,353.331z"/>
	<path fill-rule="evenodd" clip-rule="evenodd" fill="#A7A9AC" d="M365.312,353.046c-0.444,5.267,1.222,12.445-8.556,12.732
		c-10.002,0.295-9.101-6.785-9.054-12.127c0.052-5.388-0.513-12.239,9.494-11.983C365.581,341.883,365.183,348.1,365.312,353.046z"
		/>
	<path fill-rule="evenodd" clip-rule="evenodd" fill="#A7A9AC" d="M409.066,354.083c-0.309,5.006,0.376,11.505-8.338,11.663
		c-10.408,0.183-9.237-6.923-9.298-12.38c-0.063-5.054-0.197-11.503,8.245-11.705C410.198,341.4,408.619,348.672,409.066,354.083z"
		/>
	<path fill-rule="evenodd" clip-rule="evenodd" fill="#A7A9AC" d="M452.859,352.928c-0.584,5.505,1.244,12.759-9.196,12.856
		c-8.896,0.082-8.537-6.389-8.46-11.377c0.09-5.435-1.155-12.616,9.065-12.746C453.134,341.543,452.538,348.05,452.859,352.928z"/>
</g>
</svg>
