<?xml version="1.0" encoding="utf-8"?>
<!-- Generator: Adobe Illustrator 16.0.0, SVG Export Plug-In . SVG Version: 6.00 Build 0)  -->
<!DOCTYPE svg PUBLIC "-//W3C//DTD SVG 1.1//EN" "http://www.w3.org/Graphics/SVG/1.1/DTD/svg11.dtd">
<svg version="1.1" id="Layer_1" xmlns="http://www.w3.org/2000/svg" xmlns:xlink="http://www.w3.org/1999/xlink" x="0px" y="0px"
	 width="612px" height="792px" viewBox="0 0 612 792" enable-background="new 0 0 612 792" xml:space="preserve">
<g>
	<ellipse fill="#FFFFFF" cx="311" cy="364.75" rx="259.155" ry="261.276"/>
	<ellipse fill="none" stroke="#710F12" stroke-width="20" stroke-miterlimit="10" cx="311" cy="364.75" rx="259.155" ry="261.276"/>
</g>
<g>
	<g>
		<path fill-rule="evenodd" clip-rule="evenodd" fill="#FFFFFF" d="M229.836,303.62c82.08,0,164.16,0,246.24,0
			c0,72.959,0,145.92,0,218.88c-5.602,0-11.203,0-17.108,0c-1.02-20.396-1.889-37.7-2.797-55.829c-64.553,0-126.046,0-187.993,0
			c0-21.433,0-41.699,0-59.289c7.789-4.439,13.057-7.441,21.584-12.304c-22.898-15.109-41.516-27.396-58.647-38.698
			c0-9.183,0-16.29,0-23.388c9.525-1.674,17.817-3.135,36.493-6.421c-19.571-3.785-28.86-5.58-37.771-7.303
			C229.836,312.664,229.836,308.14,229.836,303.62z M437.254,423.404c-51.731,0-101.18,0-152.698,0c0,6.956-0.218,12.71,0.063,18.44
			c0.276,5.558,1.069,11.088,1.679,17.078c58.794-1.576,115.332,2.119,178.317-2.677
			C452.217,441.364,443.97,431.464,437.254,423.404z"/>
		<path fill-rule="evenodd" clip-rule="evenodd" fill="#080808" d="M229.836,303.62c0,4.52,0,9.044,0,15.648
			c8.911,1.723,18.2,3.518,37.771,7.303c-18.676,3.287-26.968,4.747-36.493,6.421c0,7.099,0,14.206,0,23.388
			c17.131,11.302,35.75,23.588,58.647,38.698c-8.527,4.862-13.795,7.864-21.584,12.304c0,17.59,0,37.856,0,59.289
			c61.947,0,123.44,0,187.993,0c0.908,18.129,1.777,35.434,2.797,55.829c5.905,0,11.507,0,17.108,0
			c1.772,7.851-1.265,9.378-9.119,9.352c-100.32-0.352-200.641-0.231-300.961-0.231c0-48.642,0-97.279,0-145.92
			c18.164-10.527,36.324-21.055,53.344-30.918c0-7.82,0-14.909,0-21.807c-9.619-1.759-17.875-3.269-35.95-6.573
			c19.059-3.656,28.384-5.446,37.326-7.161c0-6.613,0-11.12,0-15.622C223.758,303.62,226.794,303.62,229.836,303.62z"/>
		<path fill-rule="evenodd" clip-rule="evenodd" fill="#FFFFFF" d="M220.716,303.62c0,4.502,0,9.009,0,15.622
			c-8.942,1.714-18.267,3.504-37.326,7.161c18.075,3.304,26.331,4.814,35.95,6.573c0,6.898,0,13.987,0,21.807
			c-17.02,9.864-35.18,20.391-53.344,30.918c0-27.36,0-54.721,0-82.081C184.236,303.62,202.476,303.62,220.716,303.62z"/>
		<path fill-rule="evenodd" clip-rule="evenodd" fill="#090909" d="M437.254,423.404c6.716,8.06,14.963,17.96,27.36,32.842
			c-62.985,4.796-119.522,1.101-178.317,2.677c-0.61-5.99-1.403-11.521-1.679-17.078c-0.281-5.73-0.063-11.484-0.063-18.44
			C336.074,423.404,385.522,423.404,437.254,423.404z"/>
	</g>
</g>
<line fill="none" stroke="#000000" stroke-width="20" stroke-miterlimit="10" x1="283.958" y1="377.014" x2="288.417" y2="376.985"/>
<rect x="134.876" y="210.5" fill="none" width="366.124" height="93"/>
<text transform="matrix(1 0 0 1 134.876 263.7974)" fill="#710F12" font-family="'MyanmarText-Bold'" font-size="72">ZION MBC</text>
</svg>
