<?xml version="1.0" encoding="utf-8"?>
<!-- Generator: Adobe Illustrator 16.0.0, SVG Export Plug-In . SVG Version: 6.00 Build 0)  -->
<!DOCTYPE svg PUBLIC "-//W3C//DTD SVG 1.1//EN" "http://www.w3.org/Graphics/SVG/1.1/DTD/svg11.dtd">
<svg version="1.1" id="Layer_1" xmlns="http://www.w3.org/2000/svg" xmlns:xlink="http://www.w3.org/1999/xlink" x="0px" y="0px"
	 width="612px" height="792px" viewBox="0 0 612 792" enable-background="new 0 0 612 792" xml:space="preserve">
<g>
	<path fill-rule="evenodd" clip-rule="evenodd" fill="#F1F2F2" d="M19,439.626C19,299.518,19,159.411,19,19
		c188.163,0,376.325,0,566,0c0,140.004,0,280.315,0,420.626C396.337,439.626,207.667,439.626,19,439.626z M28.587,81.331
		c0,9.183,0.005,16.155-0.003,23.127c-0.112,101.644,0.443,203.297-0.908,304.931c-0.266,20.132,5.931,26.589,29.031,26.474
		c164.994-0.808,329.991-0.633,494.99-0.972c7.696-0.015,15.392-1.946,22.61-2.917c0-117.901,0-234.004,0-350.643
		C392.458,81.331,212.155,81.331,28.587,81.331z"/>
	<path fill-rule="evenodd" clip-rule="evenodd" fill="#747576" d="M585,451.212c0,20.599,0,41.19,0,61.788
		c-188.663,0-377.333,0-566,0c0-20.598,0-41.189,0-61.788c58.676,3.886,117.312,10.423,176.035,11.114
		C325.146,463.852,455.437,466.007,585,451.212z"/>
	<path fill-rule="evenodd" clip-rule="evenodd" fill="#A7A9AC" d="M585,451.212c-129.563,14.795-259.854,12.64-389.965,11.114
		C136.312,461.635,77.676,455.098,19,451.212c0-3.86,0-7.725,0-11.586c188.667,0,377.337,0,566,0
		C585,443.487,585,447.352,585,451.212z"/>
	<path fill-rule="evenodd" clip-rule="evenodd" fill="#8B8B8B" d="M28.587,81.331c183.567,0,363.871,0,545.72,0
		c0,116.639,0,232.742,0,350.643c-7.219,0.971-14.914,2.902-22.61,2.917c-164.999,0.339-329.996,0.164-494.99,0.972
		c-23.101,0.115-29.297-6.342-29.031-26.474c1.351-101.634,0.796-203.287,0.908-304.931C28.593,97.486,28.587,90.514,28.587,81.331z
		 M69.759,109.555c0,94.525,0,186.933,0,278.859c7.362,0.699,9.542,1.086,11.723,1.086c145.84,0.029,291.683-0.167,437.519,0.297
		c15.995,0.048,20.045-5.186,20.031-18.03c-0.064-82.982,0.523-165.963,0.738-248.946c0.013-4.22-1.442-8.442-2.323-13.267
		C380.208,109.555,224.271,109.555,69.759,109.555z"/>
	<linearGradient id="SVGID_1_" gradientUnits="userSpaceOnUse" x1="69.7593" y1="249.6768" x2="539.7705" y2="249.6768">
		<stop  offset="0" style="stop-color:#000000;stop-opacity:0.5"/>
		<stop  offset="1" style="stop-color:#FFFFFF"/>
	</linearGradient>
	<path fill-rule="evenodd" clip-rule="evenodd" fill="url(#SVGID_1_)" d="M69.759,109.555c154.511,0,310.449,0,467.688,0
		c0.881,4.824,2.336,9.047,2.323,13.267c-0.215,82.982-0.803,165.963-0.738,248.946c0.014,12.844-4.036,18.078-20.031,18.03
		c-145.836-0.465-291.679-0.268-437.519-0.297c-2.18,0-4.361-0.387-11.723-1.086C69.759,296.488,69.759,204.08,69.759,109.555z
		 M151.154,181.91c-12.686,13.107-40.862,7.176-47.326,34.547c27.045-10.079,49.24-17.798,70.565-27.047
		c2.49-1.081,2.406-14.431-0.266-15.623c-21.255-9.476-43.423-17.385-70.134-27.625C108.625,175.185,138.151,168.928,151.154,181.91
		z"/>
	<path fill-rule="evenodd" clip-rule="evenodd" fill="#E6E7E8" d="M151.154,181.91c-13.003-12.982-42.529-6.725-47.16-35.748
		c26.71,10.239,48.878,18.149,70.134,27.625c2.672,1.191,2.756,14.542,0.266,15.623c-21.325,9.249-43.521,16.969-70.565,27.047
		C110.292,189.086,138.468,195.018,151.154,181.91z"/>
</g>
</svg>
