<?xml version="1.0" encoding="UTF-8" standalone="no"?>
<!-- Generator: Adobe Illustrator 16.0.0, SVG Export Plug-In . SVG Version: 6.00 Build 0)  -->

<svg
   xmlns:dc="http://purl.org/dc/elements/1.1/"
   xmlns:cc="http://creativecommons.org/ns#"
   xmlns:rdf="http://www.w3.org/1999/02/22-rdf-syntax-ns#"
   xmlns:svg="http://www.w3.org/2000/svg"
   xmlns="http://www.w3.org/2000/svg"
   xmlns:sodipodi="http://sodipodi.sourceforge.net/DTD/sodipodi-0.dtd"
   xmlns:inkscape="http://www.inkscape.org/namespaces/inkscape"
   version="1.1"
   id="Capa_1"
   x="0px"
   y="0px"
   width="300"
   height="300"
   viewBox="0 0 299.99999 299.99999"
   xml:space="preserve"
   inkscape:version="0.91 r13725"
   sodipodi:docname="contact-records.svg"><metadata
   id="metadata4271"><rdf:RDF><cc:Work
       rdf:about=""><dc:format>image/svg+xml</dc:format><dc:type
         rdf:resource="http://purl.org/dc/dcmitype/StillImage" /><dc:title></dc:title></cc:Work></rdf:RDF></metadata><defs
   id="defs4269" /><sodipodi:namedview
   pagecolor="#ffffff"
   bordercolor="#666666"
   borderopacity="1"
   objecttolerance="10"
   gridtolerance="10"
   guidetolerance="10"
   inkscape:pageopacity="0"
   inkscape:pageshadow="2"
   inkscape:window-width="1366"
   inkscape:window-height="705"
   id="namedview4267"
   showgrid="false"
   inkscape:zoom="1.0141674"
   inkscape:cx="29.973694"
   inkscape:cy="206.53689"
   inkscape:window-x="-8"
   inkscape:window-y="-8"
   inkscape:window-maximized="1"
   inkscape:current-layer="Capa_1" />
<g
   id="g4233"
   transform="matrix(3.6463964,0,0,6.1159586,0.9301524,-101.32792)">
	<path
   d="m 54.28,62.743 c -0.497,-0.367 -0.972,-0.755 -1.423,-1.168 l -16.651,0 0,-40.792 0,-1.836 5.316,0 0,1.836 0,12.506 3.746,-2.628 3.758,2.628 0,-12.506 0,-1.836 16.313,0 0,1.836 0,7.92 c 0.06,0 0.114,-0.009 0.174,-0.009 0.338,0 0.661,0.035 0.994,0.049 0.393,0.024 0.78,0.042 1.168,0.083 0.816,0.096 1.606,0.25 2.391,0.443 l 0,-8.488 -2.391,0 0,-4.17 -65.283,0 0,4.172 -2.392,0 0,44.88 60.045,0 C 58.633,65.234 57.296,64.641 56.046,63.911 55.431,63.556 54.847,63.163 54.28,62.743 Z m -49.552,-41.96 0,-1.836 29.142,0 0,1.836 0,40.792 -29.142,0 0,-40.792 z m 3.053,27.699 22.9,0 0,2.336 -22.9,0 0,-2.336 z m -0.211,6.298 22.901,0 0,2.336 -22.901,0 0,-2.336 z m 2.824,-21.066 0.599,-1.862 3.466,0 0.622,1.862 1.01,0 1.019,0 -3.237,-9.143 -1.107,0 -1.112,0 -3.232,9.143 0.988,0 0.984,0 z m 2.34,-7.109 1.217,3.677 -2.427,0 1.21,-3.677 z m 17.732,0.216 -11.966,0 0,-2.335 11.967,0 0,2.335 z m 0,5.963 -11.966,0 0,-2.336 11.967,0 0,2.336 z m 0,5.959 -22.468,0 0,-2.336 22.469,0 0,2.336 z m 0,5.962 -22.468,0 0,-2.336 22.469,0 0,2.336 z M 70.074,31.464 c -0.775,-0.219 -1.578,-0.383 -2.39,-0.492 -0.384,-0.049 -0.776,-0.079 -1.168,-0.105 -0.333,-0.019 -0.657,-0.049 -0.995,-0.049 -0.06,0 -0.114,0.009 -0.173,0.009 -9.166,0.093 -16.593,7.571 -16.593,16.759 0,5.839 3.007,10.985 7.55,13.987 0.664,0.44 1.374,0.828 2.097,1.168 1.067,0.502 2.192,0.898 3.36,1.168 1.211,0.278 2.459,0.44 3.75,0.44 1.578,0 3.103,-0.237 4.553,-0.644 C 77.1,61.711 82.273,55.249 82.273,47.587 82.28,39.92 77.103,33.457 70.074,31.464 Z m 0,28.557 c -0.766,0.283 -1.569,0.495 -2.39,0.633 -0.384,0.063 -0.771,0.116 -1.168,0.146 -0.329,0.027 -0.657,0.05 -0.995,0.05 -0.06,0 -0.114,-0.009 -0.173,-0.009 C 58.117,60.75 52.26,54.844 52.26,47.588 c 0,-7.249 5.857,-13.16 13.089,-13.253 0.059,0 0.113,-0.009 0.173,-0.009 0.338,0 0.666,0.025 0.995,0.049 0.396,0.033 0.784,0.082 1.168,0.145 0.827,0.141 1.624,0.348 2.39,0.633 5.073,1.866 8.705,6.729 8.705,12.44 -0.001,5.707 -3.633,10.565 -8.706,12.428 z M 69.56,47.586 c 0,1.435 -0.749,2.685 -1.882,3.4 -0.354,0.229 -0.746,0.393 -1.168,0.502 -0.319,0.078 -0.646,0.14 -0.995,0.14 -0.057,0 -0.114,-0.021 -0.173,-0.021 -2.149,-0.092 -3.862,-1.848 -3.862,-4.021 0,-2.173 1.713,-3.933 3.862,-4.024 0.059,-0.002 0.116,-0.021 0.173,-0.021 0.345,0 0.676,0.055 0.995,0.142 0.422,0.104 0.813,0.271 1.168,0.497 1.133,0.716 1.882,1.97 1.882,3.406 z"
   id="path4235"
   inkscape:connector-curvature="0"
   style="fill:#4d4d4d" />
</g>
<g
   id="g4237"
   transform="translate(0,217.727)">
</g>
<g
   id="g4239"
   transform="translate(0,217.727)">
</g>
<g
   id="g4241"
   transform="translate(0,217.727)">
</g>
<g
   id="g4243"
   transform="translate(0,217.727)">
</g>
<g
   id="g4245"
   transform="translate(0,217.727)">
</g>
<g
   id="g4247"
   transform="translate(0,217.727)">
</g>
<g
   id="g4249"
   transform="translate(0,217.727)">
</g>
<g
   id="g4251"
   transform="translate(0,217.727)">
</g>
<g
   id="g4253"
   transform="translate(0,217.727)">
</g>
<g
   id="g4255"
   transform="translate(0,217.727)">
</g>
<g
   id="g4257"
   transform="translate(0,217.727)">
</g>
<g
   id="g4259"
   transform="translate(0,217.727)">
</g>
<g
   id="g4261"
   transform="translate(0,217.727)">
</g>
<g
   id="g4263"
   transform="translate(0,217.727)">
</g>
<g
   id="g4265"
   transform="translate(0,217.727)">
</g>
</svg>