<?xml version="1.0" encoding="utf-8"?>
<!-- Generator: Adobe Illustrator 16.0.0, SVG Export Plug-In . SVG Version: 6.00 Build 0)  -->
<!DOCTYPE svg PUBLIC "-//W3C//DTD SVG 1.1//EN" "http://www.w3.org/Graphics/SVG/1.1/DTD/svg11.dtd">
<svg version="1.1" id="Layer_1" xmlns="http://www.w3.org/2000/svg" xmlns:xlink="http://www.w3.org/1999/xlink" x="0px" y="0px"
	 width="612px" height="792px" viewBox="0 0 612 792" enable-background="new 0 0 612 792" xml:space="preserve">
<symbol  id="Arrow_10" viewBox="-32.174 -32.831 64.349 65.661">
	<g>
		<path fill="#2FA68C" stroke="#000000" d="M-13.343,4.493l-18.126-17.979l17.831-18.124v9.282c0,0,37.431-10.608,43.031,21.219
			c-4.126-3.24-26.526-15.177-42.736-3.24V4.493z"/>
		<path fill="#009170" stroke="#000000" d="M29.393-1.107C26.445-3.933,15.078-9.021,7.389-9.246c0,0,12.72,11.675,5.204,37.757
			l10.021-10.608l7.221,13.704C29.835,31.607,34.255,19.67,29.393-1.107z"/>
	</g>
</symbol>
<g>
	<path fill="#FFFFFF" d="M583,758c0,1.1-0.9,2-2,2H43c-1.1,0-2-0.9-2-2V37c0-1.1,0.9-2,2-2h538c1.1,0,2,0.9,2,2V758z"/>
	<path fill="none" stroke="#600B13" stroke-width="20" stroke-miterlimit="10" d="M583,758c0,1.1-0.9,2-2,2H43c-1.1,0-2-0.9-2-2V37
		c0-1.1,0.9-2,2-2h538c1.1,0,2,0.9,2,2V758z"/>
</g>
<rect x="25" y="56" fill="none" width="562" height="98"/>
<text transform="matrix(1 0 0 1 140.4033 123.0156)" font-family="'Modern-Regular'" font-size="72">For Review</text>
<line fill="none" stroke="#F1F2F2" stroke-miterlimit="10" x1="57" y1="173" x2="565" y2="173"/>
<line fill="none" stroke="#600B13" stroke-miterlimit="10" x1="63" y1="187" x2="559" y2="187"/>
<line fill="none" stroke="#600B13" stroke-miterlimit="10" x1="63" y1="265" x2="559" y2="265"/>
<line fill="none" stroke="#600B13" stroke-miterlimit="10" x1="63" y1="351" x2="559" y2="351"/>
<line fill="none" stroke="#600B13" stroke-miterlimit="10" x1="63" y1="434" x2="559" y2="434"/>
<line fill="none" stroke="#600B13" stroke-miterlimit="10" x1="148" y1="187" x2="148" y2="434"/>
<line fill="none" stroke="#600B13" stroke-miterlimit="10" x1="311" y1="187" x2="311" y2="434"/>
<line fill="none" stroke="#600B13" stroke-miterlimit="10" x1="471" y1="187" x2="471" y2="434"/>
<g>
	
		<use xlink:href="#Arrow_10"  width="64.349" height="65.661" x="-32.174" y="-32.831" transform="matrix(2.0878 0 0 -1.3807 288.4282 667.4346)" overflow="visible"/>
	<g>
		<g>
			<g>
				<path fill="#873A2D" d="M260.572,661.231l-37.844,24.823l37.228,25.023v-12.815c0,0,78.148,14.647,89.84-29.298
					c-8.614,4.476-55.38,20.956-89.224,4.476V661.231z"/>
				<path fill="#873A2D" d="M261,712.766l-39.745-26.717l40.361-26.476v13.517c9.5,4.532,20.838,6.829,33.712,6.829
					c26.056,0,49.433-9.217,53.823-11.497l2.146-1.115l-0.474,1.777c-7.083,26.624-37.958,32.213-62.611,32.213
					c-12.774,0-23.557-1.552-27.212-2.145V712.766z M224.201,686.061l34.711,23.333V697.35l1.328,0.249
					c0.124,0.023,12.562,2.317,27.972,2.317c23.319,0,52.39-5.153,60.063-29.378c-8.989,3.981-30.756,10.762-52.947,10.762
					c-13.521,0-25.423-2.457-35.375-7.305l-0.425-0.205v-10.901L224.201,686.061z"/>
			</g>
			<g>
				<path fill="#873A2D" d="M349.796,668.965c-6.153,3.9-29.886,10.927-45.94,11.235c0,0,26.558-16.119,10.865-52.133l20.923,14.648
					l15.076-18.922C350.72,623.795,359.947,640.276,349.796,668.965z"/>
				<path fill="#873A2D" d="M301.097,680.945l2.053-1.252c0.26-0.159,25.876-16.299,10.568-51.434l1.762-0.666L335.4,641.54
					l15.485-19.437l0.813,1.45c0.095,0.167,9.222,17.007-0.886,45.566l-0.07,0.199l-0.224,0.143
					c-6.605,4.188-30.629,11.119-46.632,11.429L301.097,680.945z M316.824,630.546c11.145,28.679-4.876,44.442-10.463,48.861
					c15.067-0.903,36.291-7.05,42.49-10.805c8.103-23.06,3.521-38.263,1.604-42.995l-14.566,18.283L316.824,630.546z"/>
			</g>
		</g>
	</g>
	<g>
		<g>
			<g>
				<path fill="#873A2D" d="M260.572,661.231l-37.844,24.823l37.228,25.023v-12.815c0,0,78.148,14.647,89.84-29.298
					c-8.614,4.476-55.38,20.956-89.224,4.476V661.231z"/>
				<path fill="#873A2D" d="M261,712.766l-39.745-26.717l40.361-26.476v13.517c9.5,4.532,20.838,6.829,33.712,6.829
					c26.056,0,49.433-9.217,53.823-11.497l2.146-1.115l-0.474,1.777c-7.083,26.624-37.958,32.213-62.611,32.213
					c-12.774,0-23.557-1.552-27.212-2.145V712.766z M224.201,686.061l34.711,23.333V697.35l1.328,0.249
					c0.124,0.023,12.562,2.317,27.972,2.317c23.319,0,52.39-5.153,60.063-29.378c-8.989,3.981-30.756,10.762-52.947,10.762
					c-13.521,0-25.423-2.457-35.375-7.305l-0.425-0.205v-10.901L224.201,686.061z"/>
			</g>
			<g>
				<path fill="#873A2D" d="M349.796,668.965c-6.153,3.9-29.886,10.927-45.94,11.235c0,0,26.558-16.119,10.865-52.133l20.923,14.648
					l15.076-18.922C350.72,623.795,359.947,640.276,349.796,668.965z"/>
				<path fill="#873A2D" d="M301.097,680.945l2.053-1.252c0.26-0.159,25.876-16.299,10.568-51.434l1.762-0.666L335.4,641.54
					l15.485-19.437l0.813,1.45c0.095,0.167,9.222,17.007-0.886,45.566l-0.07,0.199l-0.224,0.143
					c-6.605,4.188-30.629,11.119-46.632,11.429L301.097,680.945z M316.824,630.546c11.145,28.679-4.876,44.442-10.463,48.861
					c15.067-0.903,36.291-7.05,42.49-10.805c8.103-23.06,3.521-38.263,1.604-42.995l-14.566,18.283L316.824,630.546z"/>
			</g>
		</g>
	</g>
	<g>
		<g>
			<g>
				<path fill="#710F12" d="M260.572,661.231l-37.844,24.823l37.228,25.023v-12.815c0,0,78.148,14.647,89.84-29.298
					c-8.614,4.476-55.38,20.956-89.224,4.476V661.231z"/>
				<path fill="#710F12" d="M261,712.766l-39.745-26.717l40.361-26.476v13.517c9.5,4.532,20.838,6.829,33.712,6.829
					c26.056,0,49.433-9.217,53.823-11.497l2.146-1.115l-0.474,1.777c-7.083,26.624-37.958,32.213-62.611,32.213
					c-12.774,0-23.557-1.552-27.212-2.145V712.766z M224.201,686.061l34.711,23.333V697.35l1.328,0.249
					c0.124,0.023,12.562,2.317,27.972,2.317c23.319,0,52.39-5.153,60.063-29.378c-8.989,3.981-30.756,10.762-52.947,10.762
					c-13.521,0-25.423-2.457-35.375-7.305l-0.425-0.205v-10.901L224.201,686.061z"/>
			</g>
			<g>
				<path fill="#710F12" d="M349.796,668.965c-6.153,3.9-29.886,10.927-45.94,11.235c0,0,26.558-16.119,10.865-52.133l20.923,14.648
					l15.076-18.922C350.72,623.795,359.947,640.276,349.796,668.965z"/>
				<path fill="#710F12" d="M301.097,680.945l2.053-1.252c0.26-0.159,25.876-16.299,10.568-51.434l1.762-0.666L335.4,641.54
					l15.485-19.437l0.813,1.45c0.095,0.167,9.222,17.007-0.886,45.566l-0.07,0.199l-0.224,0.143
					c-6.605,4.188-30.629,11.119-46.632,11.429L301.097,680.945z M316.824,630.546c11.145,28.679-4.876,44.442-10.463,48.861
					c15.067-0.903,36.291-7.05,42.49-10.805c8.103-23.06,3.521-38.263,1.604-42.995l-14.566,18.283L316.824,630.546z"/>
			</g>
		</g>
	</g>
</g>
<rect x="158.426" y="490" fill="none" width="290" height="86"/>
<text transform="matrix(1 0 0 1 239.7783 553.0156)" font-family="'Modern-Regular'" font-size="72">CCG</text>
</svg>
