<?xml version="1.0" encoding="UTF-8" standalone="no"?>
<!-- Generator: Adobe Illustrator 19.0.0, SVG Export Plug-In . SVG Version: 6.00 Build 0)  -->

<svg
   xmlns:dc="http://purl.org/dc/elements/1.1/"
   xmlns:cc="http://creativecommons.org/ns#"
   xmlns:rdf="http://www.w3.org/1999/02/22-rdf-syntax-ns#"
   xmlns:svg="http://www.w3.org/2000/svg"
   xmlns="http://www.w3.org/2000/svg"
   xmlns:sodipodi="http://sodipodi.sourceforge.net/DTD/sodipodi-0.dtd"
   xmlns:inkscape="http://www.inkscape.org/namespaces/inkscape"
   version="1.1"
   id="Layer_1"
   x="0px"
   y="0px"
   viewBox="0 0 512 512"
   style="enable-background:new 0 0 512 512;"
   xml:space="preserve"
   inkscape:version="0.91 r13725"
   sodipodi:docname="contact-types.svg"><metadata
   id="metadata9663"><rdf:RDF><cc:Work
       rdf:about=""><dc:format>image/svg+xml</dc:format><dc:type
         rdf:resource="http://purl.org/dc/dcmitype/StillImage" /><dc:title></dc:title></cc:Work></rdf:RDF></metadata><defs
   id="defs9661" /><sodipodi:namedview
   pagecolor="#ffffff"
   bordercolor="#666666"
   borderopacity="1"
   objecttolerance="10"
   gridtolerance="10"
   guidetolerance="10"
   inkscape:pageopacity="0"
   inkscape:pageshadow="2"
   inkscape:window-width="1366"
   inkscape:window-height="705"
   id="namedview9659"
   showgrid="false"
   inkscape:zoom="0.4609375"
   inkscape:cx="256"
   inkscape:cy="256"
   inkscape:window-x="-8"
   inkscape:window-y="-8"
   inkscape:window-maximized="1"
   inkscape:current-layer="Layer_1" />
<g
   id="g9599">
	<g
   id="g9601">
		<g
   id="g9603">
			<path
   d="M215.213,88.088c0.405,2.223,0.981,4.386,1.725,6.472l-2.528,1.466c-3.584,2.077-4.805,6.666-2.728,10.25     c1.391,2.4,3.908,3.741,6.496,3.741c1.276,0,2.57-0.327,3.754-1.013l2.514-1.457c1.438,1.691,3.007,3.265,4.693,4.707     l-1.481,2.574c-2.065,3.59-0.828,8.175,2.762,10.24c1.179,0.678,2.464,1,3.732,1c2.596,0,5.121-1.35,6.508-3.763l1.447-2.517     c2.061,0.737,4.197,1.31,6.392,1.714v2.94c0,4.142,3.358,7.5,7.5,7.5c4.142,0,7.5-3.358,7.5-7.5v-2.94     c2.195-0.404,4.331-0.977,6.392-1.714l1.447,2.517c1.387,2.413,3.912,3.763,6.508,3.763c1.268,0,2.554-0.322,3.732-1     c3.59-2.065,4.827-6.65,2.762-10.24l-1.481-2.574c1.686-1.442,3.255-3.016,4.693-4.707l2.514,1.457     c1.184,0.687,2.477,1.013,3.754,1.013c2.587,0,5.105-1.341,6.496-3.741c2.077-3.583,0.856-8.172-2.728-10.25l-2.528-1.466     c0.743-2.086,1.32-4.249,1.725-6.472h2.895c4.142,0,7.5-3.358,7.5-7.5c0-4.142-3.358-7.5-7.5-7.5h-2.895     c-0.405-2.223-0.981-4.387-1.725-6.472l2.529-1.466c3.584-2.077,4.805-6.666,2.728-10.25c-2.077-3.584-6.667-4.805-10.25-2.728     l-2.515,1.457c-1.438-1.691-3.007-3.265-4.693-4.706l1.481-2.575c2.065-3.59,0.828-8.175-2.762-10.24     c-3.591-2.064-8.176-0.829-10.241,2.763l-1.448,2.517c-2.06-0.737-4.197-1.31-6.392-1.714v-2.94c0-4.142-3.358-7.5-7.5-7.5     c-4.142,0-7.5,3.358-7.5,7.5v2.94c-2.195,0.404-4.331,0.977-6.392,1.714l-1.448-2.517c-2.065-3.59-6.649-4.828-10.241-2.763     c-3.59,2.065-4.827,6.65-2.762,10.24l1.481,2.575c-1.686,1.442-3.255,3.015-4.693,4.706l-2.515-1.457     c-3.583-2.077-8.172-0.856-10.25,2.728c-2.077,3.583-0.856,8.172,2.728,10.25l2.529,1.466c-0.744,2.086-1.32,4.249-1.725,6.472     h-2.895c-4.142,0-7.5,3.358-7.5,7.5c0,4.142,3.358,7.5,7.5,7.5H215.213z M256,53.98c14.598,0,26.475,11.936,26.475,26.608     S270.598,107.196,256,107.196c-14.598,0-26.475-11.936-26.475-26.608S241.402,53.98,256,53.98z"
   id="path9605"
   style="fill:#4d4d4d" />
			<path
   d="M64.771,63.726h1.941c4.142,0,7.5-3.358,7.5-7.5c0-4.142-3.358-7.5-7.5-7.5h-1.941c-4.142,0-7.5,3.358-7.5,7.5     C57.271,60.368,60.629,63.726,64.771,63.726z"
   id="path9607"
   style="fill:#4d4d4d" />
			<path
   d="M93.893,63.726h1.941c4.142,0,7.5-3.358,7.5-7.5c0-4.142-3.358-7.5-7.5-7.5h-1.941c-4.142,0-7.5,3.358-7.5,7.5     C86.393,60.368,89.75,63.726,93.893,63.726z"
   id="path9609"
   style="fill:#4d4d4d" />
			<path
   d="M256,89.063c4.142,0,7.5-3.358,7.5-7.5v-1.949c0-4.142-3.358-7.5-7.5-7.5c-4.142,0-7.5,3.358-7.5,7.5v1.949     C248.5,85.705,251.858,89.063,256,89.063z"
   id="path9611"
   style="fill:#4d4d4d" />
			<path
   d="M256,161.176c44.279,0,80.303-36.151,80.303-80.588C336.303,36.151,300.279,0,256,0s-80.303,36.152-80.303,80.588     C175.697,125.024,211.721,161.176,256,161.176z M256,15c36.008,0,65.303,29.423,65.303,65.588     c0,36.165-29.295,65.588-65.303,65.588s-65.303-29.422-65.303-65.588C190.697,44.422,219.992,15,256,15z"
   id="path9613"
   style="fill:#4d4d4d" />
			<path
   d="M335.783,366.328c-18.539-4.85-47.428-10.631-79.784-10.631c-32.356,0-61.245,5.781-79.784,10.631     c-11.784,3.084-20.014,13.823-20.014,26.115V504.5c0,4.142,3.358,7.5,7.5,7.5h38.311c4.142,0,7.5-3.358,7.5-7.5v-77.961     c0-4.142-3.358-7.5-7.5-7.5c-4.142,0-7.5,3.358-7.5,7.5V497h-23.311V392.443c0-5.475,3.623-10.246,8.811-11.603     c14.479-3.788,43.604-10.143,75.987-10.143s61.508,6.355,75.987,10.143c5.188,1.357,8.811,6.128,8.811,11.603V497h-25.238     v-70.461c0-4.142-3.358-7.5-7.5-7.5c-4.142,0-7.5,3.358-7.5,7.5V497h-69.797c-4.142,0-7.5,3.358-7.5,7.5     c0,4.142,3.358,7.5,7.5,7.5h117.535c4.142,0,7.5-3.358,7.5-7.5V392.443C355.797,380.15,347.567,369.412,335.783,366.328z"
   id="path9615"
   style="fill:#4d4d4d" />
			<path
   d="M415.195,175.412c-4.142,0-7.5,3.358-7.5,7.5v21.735H263.5v-21.735c0-4.142-3.358-7.5-7.5-7.5     c-4.142,0-7.5,3.358-7.5,7.5v21.735H92.656v-21.735c0-4.142-3.358-7.5-7.5-7.5c-4.142,0-7.5,3.358-7.5,7.5v29.235     c0,4.142,3.358,7.5,7.5,7.5H248.5v11.99c0,4.142,3.358,7.5,7.5,7.5c4.142,0,7.5-3.358,7.5-7.5v-11.99h151.695     c4.142,0,7.5-3.358,7.5-7.5v-29.235C422.695,178.77,419.337,175.412,415.195,175.412z"
   id="path9617"
   style="fill:#4d4d4d" />
			<path
   d="M471.33,47.141c-5.084-5.104-11.846-7.916-19.041-7.916c-7.194,0-13.957,2.812-19.042,7.916l-1.55,1.556l-1.55-1.556     c-5.085-5.104-11.847-7.916-19.042-7.916c-7.194,0-13.957,2.811-19.041,7.916c-10.477,10.518-10.477,27.632,0,38.149     l34.319,34.454c1.407,1.413,3.319,2.207,5.313,2.207c1.994,0,3.906-0.794,5.313-2.207L471.33,85.29     C481.807,74.772,481.807,57.659,471.33,47.141z M460.703,74.704l-29.006,29.12l-29.006-29.12c-4.663-4.681-4.663-12.297,0-16.978     c2.249-2.258,5.237-3.501,8.414-3.501s6.165,1.244,8.414,3.501l6.864,6.891c1.408,1.413,3.32,2.207,5.314,2.207     c1.994,0,3.906-0.794,5.314-2.207l6.863-6.891c2.25-2.258,5.238-3.501,8.415-3.501s6.165,1.244,8.414,3.501     C465.366,62.407,465.366,70.023,460.703,74.704z"
   id="path9619"
   style="fill:#4d4d4d" />
			<path
   d="M431.697,0c-44.279,0-80.303,36.152-80.303,80.588c0,44.436,36.023,80.588,80.303,80.588     c44.28,0,80.303-36.151,80.303-80.588S475.977,0,431.697,0z M431.697,146.176c-36.008,0-65.303-29.422-65.303-65.588     c0-36.166,29.295-65.588,65.303-65.588S497,44.423,497,80.588C497,116.753,467.705,146.176,431.697,146.176z"
   id="path9621"
   style="fill:#4d4d4d" />
			<path
   d="M160.605,80.588C160.605,36.152,124.582,0,80.303,0C36.024,0,0,36.152,0,80.588c0,44.436,36.023,80.588,80.303,80.588     C124.583,161.176,160.605,125.025,160.605,80.588z M15,80.588C15,44.423,44.295,15,80.303,15     c36.008,0,65.303,29.423,65.303,65.588c0,36.165-29.295,65.588-65.303,65.588C44.295,146.176,15,116.754,15,80.588z"
   id="path9623"
   style="fill:#4d4d4d" />
			<path
   d="M121.352,86.52c0.307-2.152-0.335-4.332-1.76-5.974c-1.424-1.642-3.491-2.585-5.665-2.585H46.679     c-2.174,0-4.241,0.943-5.665,2.585c-1.425,1.642-2.067,3.821-1.76,5.974c2.899,20.339,20.546,35.677,41.049,35.677     C100.806,122.197,118.453,106.858,121.352,86.52z M56.876,92.961h46.853c-4.482,8.506-13.422,14.235-23.426,14.235     C70.299,107.196,61.359,101.467,56.876,92.961z"
   id="path9625"
   style="fill:#4d4d4d" />
			<path
   d="M297.242,294.98c0-22.943-18.501-41.608-41.242-41.608c-22.741,0-41.242,18.665-41.242,41.608     s18.501,41.608,41.242,41.608C278.741,336.588,297.242,317.923,297.242,294.98z M229.758,294.98     c0-14.672,11.772-26.608,26.242-26.608c14.47,0,26.242,11.936,26.242,26.608S270.47,321.588,256,321.588     C241.53,321.588,229.758,309.652,229.758,294.98z"
   id="path9627"
   style="fill:#4d4d4d" />
		</g>
	</g>
</g>
<g
   id="g9629">
</g>
<g
   id="g9631">
</g>
<g
   id="g9633">
</g>
<g
   id="g9635">
</g>
<g
   id="g9637">
</g>
<g
   id="g9639">
</g>
<g
   id="g9641">
</g>
<g
   id="g9643">
</g>
<g
   id="g9645">
</g>
<g
   id="g9647">
</g>
<g
   id="g9649">
</g>
<g
   id="g9651">
</g>
<g
   id="g9653">
</g>
<g
   id="g9655">
</g>
<g
   id="g9657">
</g>
</svg>