<?xml version="1.0" encoding="utf-8"?>
<!-- Generator: Adobe Illustrator 16.0.0, SVG Export Plug-In . SVG Version: 6.00 Build 0)  -->
<!DOCTYPE svg PUBLIC "-//W3C//DTD SVG 1.1//EN" "http://www.w3.org/Graphics/SVG/1.1/DTD/svg11.dtd">
<svg version="1.1" id="Layer_1" xmlns="http://www.w3.org/2000/svg" xmlns:xlink="http://www.w3.org/1999/xlink" x="0px" y="0px"
	 width="612px" height="792px" viewBox="0 0 612 792" enable-background="new 0 0 612 792" xml:space="preserve">
<g>
	<g>
		<g>
			<path fill-rule="evenodd" clip-rule="evenodd" fill="#585959" d="M603.774,352.366c0,25.897,0,51.793,0,77.69
				c-4.323,1.399-2.869,5.329-3.32,8.187c-6.197,39.22-20.335,75.805-39.86,109.909C502.24,650.08,374.814,709.426,260.021,686.886
				C132.288,661.807,53.336,584.007,20.367,458.564c-2.499-9.503-1.509-19.97-7.593-28.508c0-26.821,0-53.644,0-80.465
				c4.319-1.395,2.87-5.321,3.322-8.176c10.29-65.012,40.792-120.151,85.296-167.239c37.263-39.425,84.16-63.684,136.733-77.165
				c10.884-2.791,22.685-2.036,32.691-8.237c24.046,0,48.094,0,72.141,0c0.651,2.098,2.342,2.386,4.229,2.676
				c71.656,10.976,132.712,40.78,180.237,97.31c32.993,39.246,56.887,82.398,68.801,132.316
				C598.715,331.502,598.023,342.736,603.774,352.366z M241.746,365.926c-6.984-6.071-3.3-12.902-1.126-19.13
				c9.121-26.131,18.573-52.146,27.958-78.185c5.003-13.878,10.492-27.597,15.035-41.624c2.615-8.069,3.061-16.423-4.268-23.061
				c-5.833-5.282-12.647-5.496-19.507-3.403c-7.295,2.225-10.336,8.934-13.446,15.09c-19.787,39.138-39.341,78.393-59.236,117.475
				c-3.489,6.855-4.727,13.723-4.668,21.303c0.196,25.419-0.576,50.858,0.192,76.255c0.329,10.938-4.055,17.111-13.111,21.683
				c-14.406,7.272-28.832,14.542-42.884,22.46c-15.501,8.735-21.542,22.106-19.725,37.942c1.894,16.489,29.563,35.762,40.106,30.058
				c40.465-21.895,81.108-43.461,121.64-65.232c7.725-4.149,12.664-10.451,14.158-19.381c6.016-35.948,12.487-71.823,18.103-107.834
				c2.418-15.515-4.906-26.711-17.792-30.265c-12.55-3.461-24.601,2.928-30.853,17.229
				C248.284,346.542,245.286,356.233,241.746,365.926z M375.318,364.833c-3.891-10.696-6.759-19.421-10.221-27.905
				c-5.056-12.389-18.941-20.138-29.774-17.06c-14.327,4.071-20.946,15.146-18.425,30.817c5.195,32.289,10.592,64.547,15.499,96.879
				c2.472,16.297,10.534,27.277,25.318,35.307c37.061,20.128,76.29,36.338,110.897,60.965c5.844,4.158,13.613,3.391,18.453-0.465
				c12.162-9.689,24.437-20.409,24.03-37.921c-0.37-15.925-9.984-26.041-23.734-32.957c-13.981-7.031-27.688-14.611-41.656-21.673
				c-7.806-3.948-11.107-9.404-10.937-18.592c0.497-26.778,0.02-53.575-0.208-80.364c-0.046-5.45,0.453-10.846-2.298-16.19
				c-20.859-40.533-41.359-81.253-62.206-121.794c-6.688-13.009-16.851-17.708-26.697-13.257
				c-10.105,4.57-13.357,14.751-8.485,28.409c13.277,37.229,26.853,74.352,40.076,111.6
				C377.461,347.702,380.819,355.066,375.318,364.833z"/>
			<path fill-rule="evenodd" clip-rule="evenodd" fill="#FDFDFC" d="M12.774,430.057c6.083,8.538,5.094,19.005,7.593,28.508
				c32.969,125.442,111.92,203.242,239.653,228.321c114.794,22.54,242.22-36.806,300.573-138.733
				c19.525-34.104,33.663-70.689,39.86-109.909c0.451-2.857-1.003-6.787,3.32-8.187c0,87.863,0,175.728,0,263.591
				c-193.3,0-386.601-0.089-579.901,0.269c-9.501,0.017-11.429-1.858-11.375-11.368C12.975,598.386,12.774,514.221,12.774,430.057z"
				/>
			<path fill-rule="evenodd" clip-rule="evenodd" fill="#FDFDFC" d="M603.774,352.366c-5.751-9.63-5.06-20.864-7.549-31.291
				c-11.914-49.918-35.808-93.07-68.801-132.316c-47.525-56.53-108.581-86.334-180.237-97.31c-1.888-0.29-3.578-0.578-4.229-2.676
				c83.701,0,167.404,0.15,251.104-0.235c8.28-0.038,9.985,1.667,9.948,9.948C603.626,183.113,603.774,267.739,603.774,352.366z"/>
			<path fill-rule="evenodd" clip-rule="evenodd" fill="#FDFDFC" d="M270.817,88.774c-10.007,6.201-21.807,5.447-32.691,8.237
				c-52.573,13.48-99.47,37.74-136.733,77.165c-44.504,47.088-75.006,102.227-85.296,167.239c-0.453,2.855,0.997,6.781-3.322,8.176
				c0-83.939,0.13-167.879-0.218-251.818c-0.031-7.671,1.522-9.251,9.208-9.218C104.781,88.907,187.8,88.774,270.817,88.774z"/>
			<path fill-rule="evenodd" clip-rule="evenodd" fill="#FAFAFA" d="M241.746,365.926c3.54-9.693,6.538-19.384,10.576-28.619
				c6.252-14.301,18.303-20.691,30.853-17.229c12.887,3.554,20.211,14.75,17.792,30.265c-5.616,36.011-12.087,71.886-18.103,107.834
				c-1.494,8.93-6.433,15.231-14.158,19.381c-40.532,21.771-81.175,43.338-121.64,65.232c-10.543,5.704-38.212-13.568-40.106-30.058
				c-1.818-15.836,4.223-29.207,19.725-37.942c14.052-7.918,28.478-15.188,42.884-22.46c9.056-4.571,13.44-10.745,13.111-21.683
				c-0.769-25.397,0.004-50.836-0.192-76.255c-0.059-7.58,1.18-14.448,4.668-21.303c19.896-39.082,39.449-78.337,59.236-117.475
				c3.11-6.156,6.151-12.866,13.446-15.09c6.859-2.093,13.674-1.879,19.507,3.403c7.328,6.637,6.882,14.991,4.268,23.061
				c-4.543,14.026-10.031,27.745-15.035,41.624c-9.385,26.038-18.837,52.053-27.958,78.185
				C238.445,353.024,234.761,359.855,241.746,365.926z"/>
			<path fill-rule="evenodd" clip-rule="evenodd" fill="#FBFBFB" d="M375.318,364.833c5.501-9.767,2.143-17.131-0.367-24.201
				c-13.224-37.248-26.799-74.371-40.076-111.6c-4.872-13.658-1.62-23.839,8.485-28.409c9.847-4.452,20.009,0.248,26.697,13.257
				c20.847,40.542,41.347,81.261,62.206,121.794c2.751,5.344,2.252,10.74,2.298,16.19c0.228,26.789,0.705,53.585,0.208,80.364
				c-0.171,9.188,3.131,14.644,10.937,18.592c13.969,7.062,27.675,14.642,41.656,21.673c13.75,6.916,23.364,17.032,23.734,32.957
				c0.406,17.512-11.868,28.231-24.03,37.921c-4.84,3.855-12.609,4.623-18.453,0.465c-34.607-24.627-73.837-40.837-110.897-60.965
				c-14.784-8.029-22.847-19.01-25.318-35.307c-4.907-32.332-10.304-64.59-15.499-96.879c-2.521-15.671,4.098-26.746,18.425-30.817
				c10.833-3.078,24.719,4.671,29.774,17.06C368.56,345.412,371.428,354.137,375.318,364.833z"/>
		</g>
	</g>
</g>
</svg>
