<?xml version="1.0" encoding="utf-8"?>
<!-- Generator: Adobe Illustrator 16.0.0, SVG Export Plug-In . SVG Version: 6.00 Build 0)  -->
<!DOCTYPE svg PUBLIC "-//W3C//DTD SVG 1.1//EN" "http://www.w3.org/Graphics/SVG/1.1/DTD/svg11.dtd">
<svg version="1.1" id="Layer_1" xmlns="http://www.w3.org/2000/svg" xmlns:xlink="http://www.w3.org/1999/xlink" x="0px" y="0px"
	 width="612px" height="792px" viewBox="0 0 612 792" enable-background="new 0 0 612 792" xml:space="preserve">
<g>
	<path fill="#FFFFFF" d="M559.5,636.5c0,1.1-0.9,2-2,2h-506c-1.1,0-2-0.9-2-2v-506c0-1.1,0.9-2,2-2h506c1.1,0,2,0.9,2,2V636.5z"/>
	<path fill="none" stroke="#262262" stroke-width="20" stroke-miterlimit="10" d="M559.5,636.5c0,1.1-0.9,2-2,2h-506
		c-1.1,0-2-0.9-2-2v-506c0-1.1,0.9-2,2-2h506c1.1,0,2,0.9,2,2V636.5z"/>
</g>
<path fill="#262262" stroke="#262262" stroke-miterlimit="10" d="M481.156,297.518c-2.35,0-4.87,0.404-7.5,1.263l-56.092,18.195
	c-4.126-2.892-8.672-5.2-13.451-6.661l-257.358-78.732c-3.774-1.154-7.41-1.697-10.811-1.697c-13.308,0-22.944,8.407-22.944,21.689
	v214.162c0,13.135,9.38,21.385,22.389,21.385c3.495,0,7.258-0.602,11.167-1.855l164.163-52.771c1.412,3.405,3.494,7.41,6.619,11.574
	c7.57,10.439,23.598,21.551,47.847,21.551c0.233,0,0.462,0,0.689,0c0.654-0.01,1.327-0.057,1.986-0.078
	c0.281,0.77,0.562,1.5,0.837,2.171l36.49,57.379c3.595,4.658,10.49,5.379,15.322,1.599l43.661-34.132
	c4.836-3.78,5.816-10.666,2.192-15.304l-16.743-27.165c-2.197-5.241-4.855-14.013-5.903-19.499l-3.919-23.396
	c-0.188-4.183-0.306-10.655-0.317-14.198l34.175,11.091c2.625,0.851,5.15,1.252,7.5,1.252c8.632,0,14.844-5.466,14.844-14.207
	v-79.395C496,302.994,489.788,297.518,481.156,297.518z M148.906,264.491l242.977,74.331c1.167,0.356,2.436,1.135,3.667,2.142
	c-0.209,1.166-0.38,2.339-0.38,3.494v13.953c0,3.533,1.112,7.184,2.899,10.667c-1.992,2.327-4.418,4.32-6.531,5.002l-242.632,77.993
	V264.491z M337.496,433.176c-2.062-2.723-3.466-5.545-4.384-7.885l24.82-7.973l4.488,27.896
	C348.547,444.268,342.276,439.037,337.496,433.176z"/>
</svg>
