<?xml version="1.0" encoding="utf-8"?>
<!-- Generator: Adobe Illustrator 16.0.0, SVG Export Plug-In . SVG Version: 6.00 Build 0)  -->
<!DOCTYPE svg PUBLIC "-//W3C//DTD SVG 1.1//EN" "http://www.w3.org/Graphics/SVG/1.1/DTD/svg11.dtd">
<svg version="1.1" id="Layer_1" xmlns="http://www.w3.org/2000/svg" xmlns:xlink="http://www.w3.org/1999/xlink" x="0px" y="0px"
	 width="612px" height="792px" viewBox="0 0 612 792" enable-background="new 0 0 612 792" xml:space="preserve">
<rect x="8" y="390" fill="none" width="595" height="391"/>
<line fill="#414042" stroke="#58595B" stroke-width="3" stroke-miterlimit="10" x1="35" y1="486" x2="571" y2="486"/>
<line fill="#414042" stroke="#58595B" stroke-width="3" stroke-miterlimit="10" x1="35" y1="651" x2="571" y2="651"/>
<line fill="#414042" stroke="#58595B" stroke-width="3" stroke-miterlimit="10" x1="35" y1="599" x2="571" y2="599"/>
<line fill="#414042" stroke="#58595B" stroke-width="3" stroke-miterlimit="10" x1="35" y1="547" x2="571" y2="547"/>
<g>
	<path fill="#58595B" d="M306,440c0,0,0.674,0.895,1.762,2.572c0.547,0.838,1.217,1.872,1.93,3.089
		c0.363,0.607,0.753,1.261,1.169,1.958c0.388,0.697,0.799,1.438,1.234,2.221c1.764,3.131,3.67,6.933,5.646,11.293
		c1.969,4.361,3.971,9.281,5.868,14.648c1.899,5.367,3.694,11.182,5.287,17.332c1.6,6.149,2.978,12.635,4.133,19.344
		c2.28,13.418,3.452,27.73,3.47,42.043c0.006,7.156-0.265,14.313-0.838,21.357c-0.557,7.044-1.434,13.977-2.553,20.686
		c-1.152,6.709-2.522,13.194-4.122,19.344c-1.593,6.15-3.391,11.965-5.294,17.332s-3.912,10.287-5.89,14.648
		c-1.984,4.36-3.901,8.162-5.672,11.293c-0.438,0.783-0.853,1.523-1.242,2.221c-0.418,0.697-0.81,1.351-1.175,1.958
		c-0.717,1.217-1.389,2.251-1.94,3.089C306.679,668.105,306,669,306,669s-0.679-0.895-1.772-2.572
		c-0.552-0.838-1.223-1.872-1.94-3.089c-0.365-0.607-0.757-1.261-1.175-1.958c-0.39-0.697-0.804-1.438-1.242-2.221
		c-1.771-3.131-3.688-6.933-5.672-11.293c-1.977-4.361-3.986-9.281-5.889-14.648c-1.904-5.367-3.702-11.182-5.294-17.332
		c-1.6-6.149-2.97-12.635-4.122-19.344c-1.119-6.709-1.996-13.642-2.554-20.686c-0.573-7.045-0.843-14.201-0.837-21.357
		c0.018-14.313,1.189-28.625,3.469-42.043c1.155-6.709,2.533-13.194,4.132-19.344c1.593-6.15,3.388-11.965,5.287-17.332
		c1.898-5.367,3.9-10.287,5.869-14.648c1.976-4.36,3.882-8.162,5.646-11.293c0.435-0.783,0.846-1.523,1.234-2.221
		c0.416-0.697,0.806-1.351,1.169-1.958c0.712-1.217,1.382-2.251,1.93-3.089C305.326,440.895,306,440,306,440z"/>
</g>
<g>
	<ellipse fill="#6D6E71" cx="306" cy="718.334" rx="27.577" ry="28.283"/>
	<ellipse fill="none" stroke="#58595B" stroke-miterlimit="10" cx="306" cy="718.334" rx="27.577" ry="28.283"/>
</g>
</svg>
