<?xml version="1.0" encoding="UTF-8" standalone="no"?>
<!-- Generator: Adobe Illustrator 19.0.0, SVG Export Plug-In . SVG Version: 6.00 Build 0)  -->

<svg
   xmlns:dc="http://purl.org/dc/elements/1.1/"
   xmlns:cc="http://creativecommons.org/ns#"
   xmlns:rdf="http://www.w3.org/1999/02/22-rdf-syntax-ns#"
   xmlns:svg="http://www.w3.org/2000/svg"
   xmlns="http://www.w3.org/2000/svg"
   xmlns:sodipodi="http://sodipodi.sourceforge.net/DTD/sodipodi-0.dtd"
   xmlns:inkscape="http://www.inkscape.org/namespaces/inkscape"
   version="1.1"
   id="Capa_1"
   x="0px"
   y="0px"
   viewBox="0 0 451.74 451.74"
   style="enable-background:new 0 0 451.74 451.74;"
   xml:space="preserve"
   inkscape:version="0.91 r13725"
   sodipodi:docname="error-log.svg"><metadata
   id="metadata6683"><rdf:RDF><cc:Work
       rdf:about=""><dc:format>image/svg+xml</dc:format><dc:type
         rdf:resource="http://purl.org/dc/dcmitype/StillImage" /><dc:title></dc:title></cc:Work></rdf:RDF></metadata><defs
   id="defs6681" /><sodipodi:namedview
   pagecolor="#ffffff"
   bordercolor="#666666"
   borderopacity="1"
   objecttolerance="10"
   gridtolerance="10"
   guidetolerance="10"
   inkscape:pageopacity="0"
   inkscape:pageshadow="2"
   inkscape:window-width="1366"
   inkscape:window-height="705"
   id="namedview6679"
   showgrid="false"
   inkscape:zoom="0.52242441"
   inkscape:cx="225.87"
   inkscape:cy="225.87"
   inkscape:window-x="-8"
   inkscape:window-y="-8"
   inkscape:window-maximized="1"
   inkscape:current-layer="Capa_1" />
<path
   style="fill:#333333"
   d="M446.324,367.381L262.857,41.692c-15.644-28.444-58.311-28.444-73.956,0L5.435,367.381  c-15.644,28.444,4.267,64,36.978,64h365.511C442.057,429.959,461.968,395.825,446.324,367.381z"
   id="path6639" />
<path
   style="fill:#FFFFFF;"
   d="M225.879,63.025l183.467,325.689H42.413L225.879,63.025L225.879,63.025z"
   id="path6641" />
<g
   id="g6643">
	<path
   style="fill:#3F4448;"
   d="M196.013,212.359l11.378,75.378c1.422,8.533,8.533,15.644,18.489,15.644l0,0   c8.533,0,17.067-7.111,18.489-15.644l11.378-75.378c2.844-18.489-11.378-34.133-29.867-34.133l0,0   C207.39,178.225,194.59,193.87,196.013,212.359z"
   id="path6645" />
	<circle
   style="fill:#3F4448;"
   cx="225.879"
   cy="336.092"
   r="17.067"
   id="circle6647" />
</g>
<g
   id="g6649">
</g>
<g
   id="g6651">
</g>
<g
   id="g6653">
</g>
<g
   id="g6655">
</g>
<g
   id="g6657">
</g>
<g
   id="g6659">
</g>
<g
   id="g6661">
</g>
<g
   id="g6663">
</g>
<g
   id="g6665">
</g>
<g
   id="g6667">
</g>
<g
   id="g6669">
</g>
<g
   id="g6671">
</g>
<g
   id="g6673">
</g>
<g
   id="g6675">
</g>
<g
   id="g6677">
</g>
</svg>