<?xml version="1.0" encoding="utf-8"?>
<!-- Generator: Adobe Illustrator 16.0.0, SVG Export Plug-In . SVG Version: 6.00 Build 0)  -->
<!DOCTYPE svg PUBLIC "-//W3C//DTD SVG 1.1//EN" "http://www.w3.org/Graphics/SVG/1.1/DTD/svg11.dtd">
<svg version="1.1" id="Layer_1" xmlns="http://www.w3.org/2000/svg" xmlns:xlink="http://www.w3.org/1999/xlink" x="0px" y="0px"
	 width="612px" height="792px" viewBox="0 0 612 792" enable-background="new 0 0 612 792" xml:space="preserve">
<g>
	<path fill-rule="evenodd" clip-rule="evenodd" fill="none" d="M589.025,106.786c0,127.753-0.21,255.506,0.367,383.259
		c0.051,11.05-2.629,13.311-15.681,13.272c-176.47-0.463-352.945-0.463-529.413,0c-13.055,0.038-15.724-2.223-15.683-13.272
		c0.547-149.352,0.547-298.709,0-448.061c-0.041-11.049,2.628-13.308,15.683-13.273c176.468,0.463,352.943,0.463,529.413,0
		c13.052-0.035,16.692,2.135,15.663,13.295c-1.41,15.337-0.35,30.835-0.35,46.264c-7.452,0.245-11.903-4.095-16.263-8.085
		c-9.307-8.515-21.398-8.522-32.173-5.262c-16.704,5.052-33.116,10.934-44.892,23.764c-22.517,24.538-45.535,48.803-69.604,72.254
		c-9.903,9.646-16.157,23.823-34.745,25.23c-6.999-4.206-11.903-10.483-20.543-13.19c-26.252-8.223-54.278-10.308-80.865-17.088
		c-31.207-7.958-67.5-5.228-90.675-30.894c-3.991-4.419-12.139-3.567-17.847,0.416c-5.1,3.56-9.781,7.319-7.082,14.058
		c3.593,8.97,11.363,13.581,21.421,16.415c28.512,8.033,57.945,12.926,87.109,18.795c24.91,5.011,51.124,6.841,76.427,19.288
		c-34.917,11.483-68.934,12.105-102.135,13.232c-26.772,0.909-53.228,4.359-80.012,5.083c-12.799,0.345-27.046,2.077-39.077,8.554
		c-7.913,4.26-17.292,6.963-17.121,16.94c0.188,10.792,10.992,11.344,19.21,14.496c12.1,4.64,26.738,3.137,37.428,11.139
		c-18.312-0.977-28.244,5.85-30.406,21.693c-0.979,7.186-4.386,14.23-7.442,21.101c-17.711,39.799-35.896,79.456-53.419,119.316
		c-11.861,26.988-2.431,39.758,30.773,39.849c133.422,0.378,266.846,0.354,400.268,0.014c33.354-0.088,43.112-13.326,31.336-39.573
		c-19.911-44.381-39.83-88.758-59.528-133.202c-12.593-28.413-12.418-28.467-48.813-29.281c13.131-12.23,21.938-27.002,33.037-40.33
		c35.217-42.263,84.733-75.513,109.769-124.345C583.745,107.527,587.008,107.386,589.025,106.786z"/>
	<path fill-rule="evenodd" clip-rule="evenodd" fill="#373D3E" d="M391.349,196.171c18.588-1.407,24.842-15.584,34.745-25.23
		c24.069-23.451,47.088-47.716,69.604-72.254c11.775-12.83,28.188-18.711,44.892-23.764c10.774-3.26,22.866-3.253,32.173,5.262
		c4.359,3.991,8.811,8.331,16.263,8.085c0,6.171,0,12.344,0,18.516c-2.018,0.6-5.28,0.741-5.862,1.869
		C558.128,157.487,508.611,190.737,473.395,233c-11.1,13.328-19.906,28.1-33.037,40.33c-11.459,0.265-19.396,4.431-22.129,14.339
		c-2.773,0.228-5.541,0.456-8.314,0.679c-1.611-1.392-3.227-2.784-4.841-4.173c2.973-3.595,5.948-7.182,8.921-10.776
		c3.334-3.37,6.666-6.748,9.998-10.122c7.721-5.783,15.904-11.232,19.845-19.739c-3.155-8.047,10.856-10.958,7.907-18.94
		l0.525-1.038c0,0-0.914-0.855-0.914-0.857c1.957,2.658,4.153,2.813,6.598,0.463c31.918-30.45,62.656-61.729,91.81-94.116
		c13.416-11.165,12.972-23.352-0.617-32.915c-14.223-10.016-25.314-1.213-34.607,8.275c-29.261,29.875-59.464,59.15-87.093,90.071
		c-9.311,10.422-27.448,12.127-31.614,26.154c-13.13,11.426-23.933,24.357-34.023,37.746c0.862,4.157-10.857,4.038-4.739,9.983
		c-7.333,1.8-12.912,4.986-13.421,12.176l-0.025,0.032c-7.61,2.583-10.579,8.473-13.997,14.042
		c-1.971,2.028-3.936,4.061-5.901,6.089c-4.358,5.095-6.294,10.816-6.145,17.073c-6.379,9.242-9.066,19.317-11.677,31.526
		c11.063-3.906,19.509-6.886,27.96-9.869c1.937,1.472,3.871,2.947,5.804,4.422c-8.995,4.485-17.988,8.969-26.983,13.453
		c-4.157,1.732-8.317,3.463-12.477,5.193c-9.675-3.175-6.708-8.911-4.956-15.083c3.168-11.163,10.493-21.484,9.682-33.46
		c0.35-1.946,0.695-3.892,1.046-5.833c4.383-5.327,8.767-10.65,13.151-15.979c7.571-4.676,9.367-11.919,11.734-18.906
		c3.769-19.904,25.354-30.487,34.689-47.479C378.796,218.797,389.029,209.955,391.349,196.171z"/>
	<path fill-rule="evenodd" clip-rule="evenodd" fill="#5F605C" d="M330.859,273.24c-2.362,6.986-4.158,14.229-11.729,18.906
		c-1.119-10.444-10.81-6.206-16.768-6.271c-37.154-0.405-74.332,0.337-111.467-0.463c-15.728-0.333-23.97,4.897-29.329,16.932
		c-20.793,46.7-42.375,93.146-63.35,139.785c-7.567,16.825-4.164,21.136,17.531,21.169c134.791,0.177,269.584,0.191,404.374-0.011
		c21.124-0.033,24.372-4.585,16.639-21.759c-18.929-42.024-38.52-83.839-57.188-125.942c-8.569-19.332-19.833-33.645-48.324-27.469
		c-4.03,0.876-8.665-0.246-13.02-0.448c2.732-9.908,10.67-14.074,22.129-14.339c36.395,0.814,36.22,0.868,48.813,29.281
		c19.698,44.444,39.617,88.821,59.528,133.202c11.776,26.247,2.018,39.485-31.336,39.573c-133.422,0.34-266.846,0.364-400.268-0.014
		c-33.204-0.091-42.634-12.86-30.773-39.849c17.523-39.86,35.708-79.517,53.419-119.316c3.057-6.871,6.464-13.915,7.442-21.101
		c2.162-15.843,12.094-22.669,30.406-21.693c17.509,0.003,35.02,0.007,52.529,0.014C263.7,273.363,297.279,273.301,330.859,273.24z"
		/>
	<path fill-rule="evenodd" clip-rule="evenodd" fill="#888A85" d="M230.118,273.427c-17.509-0.007-35.02-0.011-52.529-0.014
		c-10.69-8.001-25.329-6.499-37.428-11.139c-8.218-3.152-19.022-3.703-19.21-14.496c-0.171-9.977,9.208-12.68,17.121-16.94
		c12.03-6.477,26.278-8.209,39.077-8.554c26.784-0.724,53.239-4.174,80.012-5.083c33.202-1.126,67.218-1.749,102.135-13.232
		c-25.304-12.447-51.518-14.277-76.427-19.288c-29.165-5.87-58.597-10.762-87.109-18.795c-10.059-2.834-17.829-7.444-21.421-16.415
		c-2.699-6.738,1.982-10.498,7.082-14.058c5.708-3.983,13.856-4.835,17.847-0.416c23.175,25.666,59.468,22.936,90.675,30.894
		c26.586,6.78,54.613,8.865,80.865,17.088c8.64,2.707,13.544,8.984,20.543,13.19c-2.319,13.784-12.553,22.626-25.795,29.59
		c-67.127,9.805-136,6.583-206.51,18.836c12.146,3.883,20.752,6.596,29.327,9.384C203.329,258.85,221.553,258.719,230.118,273.427z"
		/>
	<path fill-rule="evenodd" clip-rule="evenodd" fill="#F1F0EF" d="M418.229,287.668c4.354,0.202,8.989,1.324,13.02,0.448
		c28.491-6.176,39.755,8.137,48.324,27.469c18.669,42.104,38.26,83.918,57.188,125.942c7.733,17.174,4.485,21.726-16.639,21.759
		c-134.789,0.202-269.583,0.188-404.374,0.011c-21.695-0.033-25.099-4.344-17.531-21.169c20.974-46.639,42.557-93.085,63.35-139.785
		c5.359-12.035,13.601-17.264,29.329-16.932c37.135,0.8,74.313,0.058,111.467,0.463c5.958,0.065,15.648-4.173,16.768,6.271
		c-4.384,5.33-8.768,10.652-13.151,15.979c-34.774-3.551-69.674-0.843-104.506-1.468c-12.277-0.22-17.933,6.434-21.533,15.297
		c-8.033,19.788-16.055,39.587-24.502,59.244c-16.715,38.911-16.833,38.875,30.976,40.994c-0.763,13.806-13.458,8.855-22.388,10.595
		c-15.736,3.07-34.513-8.074-47.553,7.252c-7.39,17.902,10.291,10.736,16.918,10.771c87.737,0.485,175.477,0.287,263.222,0.254
		c36.738,0.036,73.477,0.268,110.209-0.055c7.327-0.062,20.709,2.558,12.318-11.026c-0.184-6.233-2.688-11.231-11.157-10.825
		c-10.293,0.49-17.735-4.449-25.824-8.354c10.849-8.419,6.653-17.864,2.244-27.063c-11.435-23.867-23.491-47.524-34.598-71.496
		c-5.183-11.186-13.326-16.924-27.893-15.93c-8.644,0.593-17.377,0.318-26.068,0.434c1.41-7.934,10.119-11.861,14.07-18.4
		C412.688,288.124,415.455,287.896,418.229,287.668z"/>
	<path fill-rule="evenodd" clip-rule="evenodd" fill="#F6F7F6" d="M304.933,313.958c0.811,11.977-6.514,22.297-9.682,33.46
		c-1.753,6.172-4.72,11.908,4.956,15.083c4.39,14.027,18.155,19.755,31.537,26.173c14.844,7.132,33.017,10.22,42.488,24.149
		c-67.638,0.225-135.276,0.352-202.914,0.752c-14.211,0.08-18.088-4.147-12.944-15.752c9.958-22.464,19.678-45.051,27.957-67.984
		c4.448-12.328,12.368-16.067,26.974-15.738C243.825,314.793,274.388,314.088,304.933,313.958z"/>
	<path fill-rule="evenodd" clip-rule="evenodd" fill="#F1F0EF" d="M312.683,357.31c8.995-4.484,17.988-8.968,26.983-13.453
		c24.106-2.125,31.934-23.447,51.298-31.164c5.692,0.557,11.598,2.228,17.041,1.482c22.153-3.037,32.926,5.638,38.729,23.006
		c4.293,12.852,11.934,24.89,17.928,37.341c19.51,40.531,19.485,40.542-32.836,38.014c0.444-7.532-2.842-12.87-11.422-16.125
		c-16.603-6.303-33.422-12.378-49.29-19.856C352.577,367.818,329.758,368.867,312.683,357.31z"/>
	<path fill-rule="evenodd" clip-rule="evenodd" fill="#959692" d="M431.825,412.536c52.321,2.527,52.346,2.517,32.836-38.014
		c-5.994-12.451-13.635-24.489-17.928-37.341c-5.803-17.369-16.575-26.043-38.729-23.006c-5.443,0.745-11.349-0.926-17.041-1.482
		c0.153-2.846,1.33-5.095,4.88-5.945c8.691-0.116,17.425,0.159,26.068-0.434c14.566-0.995,22.71,4.744,27.893,15.93
		c11.106,23.972,23.163,47.629,34.598,71.496c4.409,9.199,8.604,18.645-2.24,27.063c-18.368,0.535-36.745,1.063-55.123,1.591
		c-80.208-0.064-160.417-0.138-240.625-0.202c-47.809-2.119-47.691-2.083-30.976-40.994c8.447-19.657,16.469-39.457,24.502-59.244
		c3.6-8.863,9.255-15.517,21.533-15.297c34.832,0.625,69.732-2.083,104.506,1.468c-0.351,1.941-0.697,3.888-1.046,5.833
		c-30.545,0.129-61.107,0.835-91.629,0.145c-14.606-0.329-22.525,3.41-26.974,15.738c-8.278,22.934-17.999,45.521-27.957,67.984
		c-5.145,11.604-1.267,15.832,12.944,15.752c67.638-0.4,135.276-0.527,202.914-0.752
		C393.43,412.731,412.627,412.632,431.825,412.536z"/>
	<path fill-rule="evenodd" clip-rule="evenodd" fill="#020202" d="M230.118,273.427c-8.564-14.708-26.789-14.577-41.747-19.446
		c-8.575-2.788-17.182-5.5-29.327-9.384c70.51-12.253,139.383-9.032,206.51-18.836c-9.335,16.992-30.921,27.575-34.689,47.479
		C297.279,273.301,263.7,273.363,230.118,273.427z"/>
	<path fill-rule="evenodd" clip-rule="evenodd" fill="#E1E2E0" d="M395.831,220.636c4.166-14.027,22.304-15.732,31.614-26.154
		c27.629-30.92,57.832-60.196,87.093-90.071c9.293-9.489,20.385-18.291,34.607-8.275c13.589,9.563,14.033,21.75,0.617,32.915
		c-2.128-0.154-4.261-0.307-6.389-0.461c1.983-6.323,3.739-12.569-6.96-14.545c-9.84,0.175-14.053,8.176-21.816,11.23
		c-10.515,0.996-13.284,6.948-13.174,14.743c-1.461,1.246-2.922,2.494-4.383,3.741c-12.188,1.855-17.48,8.38-17.484,18.489
		c-1.453,1.248-2.91,2.496-4.366,3.745c-10.495,1.007-13.265,6.954-13.156,14.74c-2.903,2.496-5.808,4.989-8.713,7.482
		c-10.507,1.002-13.263,6.961-13.159,14.745c-3.07,3.542-8.299,5.906-8.418,11.055c0.482,1.972-0.762,5.331,4.174,3.736
		c1.372,0.097,2.748,0.197,4.124,0.3c1.752,2.321,3.498,4.643,5.246,6.966c-3.284,1.373-6.563,2.743-9.84,4.111
		c-4.191-1.407-8.379-2.814-12.574-4.223c-1.312-1.81-2.624-3.618-3.939-5.429c-8.35-3.379-14.015-0.101-18.783,5.414
		C398.707,223.472,397.271,222.054,395.831,220.636z"/>
	<path fill-rule="evenodd" clip-rule="evenodd" fill="#E1E2E0" d="M431.825,412.536c-19.198,0.096-38.396,0.195-57.594,0.289
		c-9.472-13.93-27.645-17.018-42.488-24.149c-13.382-6.418-27.147-12.146-31.537-26.173c4.16-1.729,8.319-3.46,12.477-5.193
		c17.075,11.557,39.895,10.509,58.431,19.245c15.868,7.478,32.688,13.553,49.29,19.856
		C428.983,399.666,432.27,405.004,431.825,412.536z"/>
	<path fill-rule="evenodd" clip-rule="evenodd" fill="#B6B7B4" d="M445.288,225.014c-1.748-2.322-3.494-4.643-5.246-6.967
		c4.799-7.279,14.882-12.235,13.601-22.183c11.596-2.657,19.23-8.549,21.479-18.842c0.086-1.167,0.18-2.331,0.274-3.497
		c13.492-3.037,21.381-10.019,21.842-22.226h0.035c12.134-1.818,17.32-8.424,17.642-18.372c11.626-2.656,19.231-8.594,21.5-18.884
		c10.699,1.976,8.943,8.223,6.978,14.545c-31.354,27.396-60.409,56.417-85.985,87.875c-2.017,2.081-4.033,4.16-6.051,6.241
		l0.914,0.855c0,0-0.525,1.038-0.572,1C449.531,224.686,447.413,224.849,445.288,225.014z"/>
	<path fill-rule="evenodd" clip-rule="evenodd" fill="#7C7D79" d="M400.151,224.889c4.769-5.514,10.434-8.792,18.783-5.411
		c-16.682,22.726-38.388,42.172-57.7,63.175c-4.333,4.715-9.558,9.319-17.903,8.675c0.372-3.577,3.385-7.106,0.291-10.755
		l0.025-0.032c11.169,1.226,12.003-5.703,13.421-12.176c-6.118-5.945,5.602-5.826,4.739-9.983
		C383.735,254.719,388.818,237.244,400.151,224.889z"/>
	<path fill-rule="evenodd" clip-rule="evenodd" fill="#D6D6D3" d="M457.406,216.463c25.576-31.457,54.632-60.479,85.985-87.875
		c2.11,0.154,4.243,0.308,6.371,0.461c-29.153,32.386-59.892,63.666-91.81,94.116C457.77,220.931,457.585,218.698,457.406,216.463z"
		/>
	<path fill-rule="evenodd" clip-rule="evenodd" fill="#454A4B" d="M395.844,306.748c-3.55,0.85-4.727,3.099-4.88,5.945
		c-19.364,7.717-27.191,29.039-51.298,31.164c-1.933-1.475-3.867-2.95-5.804-4.422c2.453-2.159,4.902-4.314,7.351-6.473
		c2.528-0.542,5.059-1.085,7.579-1.631c2.615-1.345,7.076-1.75,4.195-5.901l-0.017-0.011c4.221,1.132,5.537-0.196,4.333-3.664
		l0.055-0.029c12.755-1.519,17.707-9.626,21.787-18.472l0.095-0.094c3.137,0.231,4.41-1.114,4.29-3.634l0.09-0.076
		c5.225-0.463,7.716-3.248,8.66-7.333l0.424,0.181c4.122-2.709,8.246-5.417,12.369-8.123c1.614,1.389,3.229,2.781,4.841,4.173
		C405.963,294.886,397.254,298.813,395.844,306.748z"/>
	<path fill-rule="evenodd" clip-rule="evenodd" fill="#D6D6D3" d="M341.213,332.961c-2.448,2.159-4.897,4.314-7.351,6.473
		c-8.451,2.983-16.897,5.963-27.96,9.869c2.611-12.209,5.298-22.284,11.677-31.526C326.54,321.632,325.031,337.159,341.213,332.961z
		"/>
	<path fill-rule="evenodd" clip-rule="evenodd" fill="#C4C4C1" d="M400.151,224.889c-11.333,12.355-16.416,29.831-38.344,33.494
		c10.091-13.389,20.894-26.32,34.023-37.746C397.271,222.054,398.707,223.472,400.151,224.889z"/>
	<path fill-rule="evenodd" clip-rule="evenodd" fill="#B6B7B4" d="M341.213,332.961c-16.182,4.198-14.673-11.33-23.634-15.184
		c-0.149-6.257,1.786-11.978,6.145-17.073c1.328,1.038,2.657,2.076,3.978,3.106c-1.008,3.919-1.769,7.803,2.819,10.668
		c2.979,2.452,5.958,4.896,8.935,7.348c1.416,1.374,2.825,2.745,4.235,4.115c1.701,1.801,3.405,3.595,5.109,5.392
		C346.271,331.876,343.741,332.419,341.213,332.961z"/>
	<path fill-rule="evenodd" clip-rule="evenodd" fill="#959692" d="M405.073,284.175c-4.123,2.705-8.247,5.414-12.365,8.115
		c-4.375-12.721,9.537-16.077,16.442-23.021c1.614,1.381,3.23,2.755,4.844,4.129C411.021,276.993,408.046,280.58,405.073,284.175z"
		/>
	<path fill-rule="evenodd" clip-rule="evenodd" fill="#B6B7B4" d="M443.837,243.538c-3.94,8.506-12.124,13.956-19.845,19.739
		c-1.521-1.239-3.042-2.477-4.562-3.714c6.745-6.713,13.497-13.426,20.247-20.138C441.067,240.794,442.451,242.166,443.837,243.538z
		"/>
	<path fill-rule="evenodd" clip-rule="evenodd" fill="#B6B7B4" d="M343.622,280.573c3.094,3.649,0.081,7.178-0.291,10.762
		l0.078,0.159c-3.347,2.058-6.691,4.119-10.034,6.18c-1.25-1.02-2.504-2.039-3.75-3.059
		C333.043,289.046,336.012,283.156,343.622,280.573z"/>
	<path fill-rule="evenodd" clip-rule="evenodd" fill="#D6D6D3" d="M443.837,243.538c-1.386-1.372-2.77-2.744-4.159-4.114
		c-1.41-3.432-2.819-6.863-4.229-10.297c3.276-1.369,6.556-2.739,9.84-4.111c2.125-0.167,4.243-0.33,6.409-0.456
		C454.693,232.58,440.682,235.491,443.837,243.538z"/>
	<path fill-rule="evenodd" clip-rule="evenodd" fill="#B6B7B4" d="M357.068,268.365c-1.418,6.473-2.252,13.401-13.421,12.176
		C344.156,273.352,349.735,270.165,357.068,268.365z"/>
	<path fill-rule="evenodd" clip-rule="evenodd" fill="#B6B7B4" d="M413.994,273.398c-1.613-1.374-3.229-2.749-4.844-4.126
		c3.426-3.236,6.852-6.473,10.28-9.71c1.52,1.238,3.041,2.476,4.562,3.714C420.66,266.651,417.328,270.028,413.994,273.398z"/>
	<path fill-rule="evenodd" clip-rule="evenodd" fill="#B6B7B4" d="M323.724,300.705c1.966-2.029,3.931-4.061,5.901-6.089
		c1.246,1.02,2.5,2.039,3.726,3.041c-1.893,2.04-3.77,4.101-5.641,6.162C326.381,302.78,325.052,301.743,323.724,300.705z"/>
	<path fill-rule="evenodd" clip-rule="evenodd" fill="#E1E2E0" d="M457.406,216.463c0.179,2.235,0.363,4.467,0.547,6.703
		c-2.444,2.351-4.641,2.195-6.598-0.463C453.373,220.624,455.39,218.544,457.406,216.463z"/>
	<path fill-rule="evenodd" clip-rule="evenodd" fill="#E0E2DE" d="M427.039,422.394c18.378-0.527,36.755-1.056,55.123-1.591
		c8.085,3.905,15.527,8.845,25.82,8.354c8.47-0.406,10.974,4.592,11.152,10.825c-8.682-0.231-17.688,0.724-25.982-0.911
		c-31.503-6.211-60.76,8.772-91.789,6.425c-1.375-0.107-3.16,3.625-4.751,5.567c-87.745,0.033-175.484,0.231-263.222-0.254
		c-6.627-0.035-24.308,7.131-16.918-10.771c95.084,2.754,189.99-4.263,285.037-3.8C413.05,436.295,425.941,436.771,427.039,422.394z
		"/>
	<path fill-rule="evenodd" clip-rule="evenodd" fill="#E8EAE7" d="M427.039,422.394c-1.098,14.378-13.989,13.901-25.529,13.845
		c-95.047-0.463-189.953,6.554-285.037,3.8c13.04-15.326,31.817-4.182,47.553-7.252c8.931-1.739,21.625,3.211,22.388-10.595
		C266.623,422.256,346.831,422.329,427.039,422.394z"/>
	<path fill-rule="evenodd" clip-rule="evenodd" fill="#D6D6D3" d="M396.612,451.063c1.591-1.942,3.376-5.675,4.751-5.567
		c31.029,2.348,60.286-12.636,91.789-6.425c8.294,1.635,17.301,0.68,25.982,0.911c8.396,13.584-4.986,10.965-12.313,11.026
		C470.089,451.331,433.351,451.1,396.612,451.063z"/>
	<path fill-rule="evenodd" clip-rule="evenodd" fill="#5F605C" d="M419.431,259.563c-3.429,3.237-6.854,6.474-10.28,9.71
		c-6.905,6.94-20.817,10.296-16.442,23.017c-0.004,0.008-0.428-0.173-0.428-0.173c-7.896-1.794-10.152,1.189-8.66,7.333l-0.09,0.076
		c-3.691-0.701-4.957,0.651-4.29,3.634l-0.095,0.094c-13.083,1.236-18.576,8.889-21.787,18.472l-0.055,0.029
		c-2.982-0.083-4.358,1.197-4.333,3.664l0.017,0.011c-3.101,0.174-6.2,0.347-9.297,0.513c-1.41-1.37-2.819-2.741-4.229-4.115
		c4.963-13.322,18.466-21.502,27.303-32.492c17.748-22.077,44.437-38.573,56.11-64.432c4.195,1.409,8.383,2.816,12.574,4.223
		c1.41,3.434,2.819,6.866,4.229,10.297C432.928,246.136,426.176,252.85,419.431,259.563z"/>
	<path fill-rule="evenodd" clip-rule="evenodd" fill="#6C6E6A" d="M422.874,224.904c-11.674,25.859-38.362,42.354-56.11,64.432
		c-8.837,10.989-22.34,19.169-27.303,32.492c-2.982-2.452-5.962-4.896-8.94-7.348c4.663-7.515,15.793-12.433,12.889-22.985
		l-0.078-0.159c8.346,0.637,13.57-3.967,17.903-8.682c19.313-21.003,41.019-40.45,57.7-63.175
		C420.25,221.286,421.563,223.094,422.874,224.904z"/>
	<path fill-rule="evenodd" clip-rule="evenodd" fill="#C4C4C1" d="M453.646,195.867c1.277,9.945-8.806,14.901-13.604,22.18
		c-1.376-0.101-2.752-0.201-4.124-0.296c-1.393-1.246-2.781-2.492-4.174-3.738c0.119-5.149,5.348-7.512,8.418-11.053
		c4.4-2.443,8.793-4.886,13.185-7.327L453.646,195.867z"/>
	<path fill-rule="evenodd" clip-rule="evenodd" fill="#C4C4C1" d="M497.237,151.299c-0.461,12.207-8.35,19.189-21.842,22.226
		c-0.068-2.512-0.138-5.023-0.205-7.533c1.456-1.249,2.913-2.497,4.366-3.745C485.452,158.599,491.345,154.95,497.237,151.299z"/>
	<path fill-rule="evenodd" clip-rule="evenodd" fill="#C4C4C1" d="M536.414,114.043c-2.269,10.29-9.874,16.228-21.505,18.881
		c0-0.003-0.304-0.24-0.304-0.24c-0.004-2.472-0.004-4.941-0.008-7.411C522.361,122.219,526.574,114.218,536.414,114.043z"/>
	<path fill-rule="evenodd" clip-rule="evenodd" fill="#C4C4C1" d="M475.121,177.021c-2.248,10.293-9.883,16.186-21.479,18.842
		c0.004,0.003-0.296-0.23-0.296-0.23c-0.008-2.474-0.017-4.947-0.025-7.42c2.905-2.493,5.81-4.986,8.717-7.48
		C466.396,179.497,470.759,178.26,475.121,177.021z"/>
	<path fill-rule="evenodd" clip-rule="evenodd" fill="#D6D6D3" d="M497.237,151.299c-5.893,3.651-11.785,7.3-17.681,10.948
		c0.004-10.109,5.297-16.634,17.484-18.489c0.076,2.515,0.152,5.028,0.231,7.541H497.237z"/>
	<path fill-rule="evenodd" clip-rule="evenodd" fill="#C4C4C1" d="M497.272,151.299c-0.079-2.513-0.155-5.026-0.231-7.541
		c1.461-1.248,2.922-2.495,4.383-3.741c4.397-2.443,8.79-4.887,13.182-7.332c0,0,0.304,0.237,0.304,0.24
		C514.593,142.875,509.406,149.48,497.272,151.299z"/>
	<path fill-rule="evenodd" clip-rule="evenodd" fill="#D6D6D3" d="M475.121,177.021c-4.362,1.238-8.726,2.475-13.083,3.711
		c-0.112-7.787,2.657-13.734,13.152-14.741c0.067,2.51,0.137,5.021,0.205,7.533C475.301,174.69,475.207,175.855,475.121,177.021z"/>
	<path fill-rule="evenodd" clip-rule="evenodd" fill="#D6D6D3" d="M514.605,132.685c-4.392,2.445-8.784,4.889-13.182,7.332
		c-0.11-7.795,2.659-13.747,13.174-14.743C514.602,127.743,514.602,130.212,514.605,132.685z"/>
	<path fill-rule="evenodd" clip-rule="evenodd" fill="#D6D6D3" d="M453.321,188.213c0.009,2.474,0.018,4.947,0.025,7.42
		c-4.392,2.44-8.784,4.884-13.185,7.327C440.059,195.175,442.814,189.215,453.321,188.213z"/>
	<path fill-rule="evenodd" clip-rule="evenodd" fill="#D6D6D3" d="M431.744,214.013c1.393,1.246,2.781,2.492,4.174,3.738
		C430.982,219.344,432.227,215.985,431.744,214.013z"/>
	<path fill-rule="evenodd" clip-rule="evenodd" fill="#959692" d="M357.358,321.726c3.211-9.583,8.704-17.235,21.787-18.472
		C375.065,312.099,370.113,320.207,357.358,321.726z"/>
	<path fill-rule="evenodd" clip-rule="evenodd" fill="#959692" d="M383.62,299.45c-1.492-6.145,0.765-9.128,8.66-7.333
		C391.336,296.202,388.845,298.987,383.62,299.45z"/>
	<path fill-rule="evenodd" clip-rule="evenodd" fill="#959692" d="M343.69,325.942c3.097-0.166,6.196-0.339,9.297-0.513
		c2.881,4.152-1.58,4.557-4.195,5.901C347.096,329.537,345.392,327.743,343.69,325.942z"/>
	<path fill-rule="evenodd" clip-rule="evenodd" fill="#959692" d="M379.24,303.16c-0.667-2.983,0.599-4.335,4.29-3.634
		C383.65,302.046,382.377,303.392,379.24,303.16z"/>
	<path fill-rule="evenodd" clip-rule="evenodd" fill="#959692" d="M352.971,325.418c-0.025-2.467,1.351-3.746,4.333-3.664
		C358.508,325.222,357.191,326.55,352.971,325.418z"/>
	<path fill-rule="evenodd" clip-rule="evenodd" fill="#7C7D79" d="M343.409,291.494c2.904,10.552-8.226,15.47-12.889,22.985
		c-4.588-2.865-3.827-6.749-2.819-10.668c1.88-2.054,3.757-4.116,5.649-6.155C336.718,295.613,340.063,293.552,343.409,291.494z"/>
</g>
</svg>
