<?xml version="1.0" encoding="utf-8"?>
<!-- Generator: Adobe Illustrator 16.0.0, SVG Export Plug-In . SVG Version: 6.00 Build 0)  -->
<!DOCTYPE svg PUBLIC "-//W3C//DTD SVG 1.1//EN" "http://www.w3.org/Graphics/SVG/1.1/DTD/svg11.dtd">
<svg version="1.1" id="Layer_1" xmlns="http://www.w3.org/2000/svg" xmlns:xlink="http://www.w3.org/1999/xlink" x="0px" y="0px"
	 width="612px" height="792px" viewBox="0 0 612 792" enable-background="new 0 0 612 792" xml:space="preserve">
<g>
	<path fill="none" d="M592.632,318.568c0,146.407-0.21,292.813,0.366,439.22c0.052,12.664-2.629,15.256-15.681,15.212
		c-176.47-0.533-352.945-0.533-529.413,0c-13.055,0.043-15.724-2.548-15.683-15.212c0.547-171.159,0.547-342.324,0-513.483
		c-0.041-12.663,2.628-15.251,15.683-15.211c176.468,0.53,352.943,0.53,529.413,0c13.052-0.041,16.692,2.447,15.663,15.235
		c-1.41,17.577-0.35,35.337-0.35,53.02c-7.452,0.281-11.903-4.692-16.264-9.265c-9.307-9.759-21.397-9.766-32.173-6.031
		c-16.704,5.79-33.116,12.531-44.892,27.234c-22.518,28.121-45.535,55.929-69.604,82.804c-9.902,11.055-16.156,27.302-34.745,28.914
		c-6.999-4.82-11.902-12.014-20.543-15.116c-26.252-9.423-54.277-11.813-80.865-19.583c-31.207-9.12-67.5-5.991-90.675-35.405
		c-3.991-5.064-12.139-4.087-17.847,0.477c-5.1,4.08-9.781,8.388-7.082,16.111c3.593,10.28,11.363,15.564,21.421,18.812
		c28.512,9.206,57.945,14.813,87.109,21.539c24.91,5.742,51.124,7.84,76.427,22.104c-34.917,13.159-68.934,13.871-102.135,15.164
		c-26.772,1.041-53.228,4.995-80.012,5.825c-12.799,0.396-27.046,2.38-39.077,9.803c-7.913,4.883-17.292,7.979-17.121,19.413
		c0.188,12.368,10.992,13.001,19.21,16.613c12.1,5.316,26.738,3.594,37.428,12.766c-18.312-1.121-28.244,6.705-30.406,24.86
		c-0.979,8.235-4.386,16.307-7.442,24.181c-17.711,45.611-35.896,91.06-53.419,136.74c-11.861,30.928-2.431,45.563,30.773,45.667
		c133.422,0.433,266.846,0.403,400.268,0.016c33.354-0.103,43.111-15.271,31.336-45.351
		c-19.911-50.861-39.83-101.719-59.528-152.652c-12.593-32.563-12.418-32.623-48.813-33.556
		c13.131-14.017,21.938-30.945,33.036-46.219c35.218-48.435,84.733-86.54,109.77-142.501
		C587.352,319.418,590.614,319.256,592.632,318.568z"/>
	<path fill="#373D3E" d="M394.955,421.005c18.589-1.612,24.843-17.859,34.745-28.914c24.069-26.875,47.088-54.683,69.604-82.804
		c11.774-14.703,28.188-21.443,44.892-27.234c10.774-3.735,22.866-3.728,32.173,6.031c4.359,4.574,8.812,9.547,16.264,9.265
		c0,7.073,0,14.147,0,21.22c-2.019,0.688-5.28,0.85-5.862,2.142c-25.036,55.962-74.553,94.067-109.77,142.502
		c-11.1,15.272-19.905,32.201-33.036,46.218c-11.459,0.305-19.396,5.078-22.13,16.433c-2.772,0.261-5.54,0.522-8.313,0.78
		c-1.611-1.598-3.227-3.192-4.841-4.784c2.973-4.119,5.948-8.23,8.921-12.351c3.334-3.86,6.666-7.731,9.998-11.601
		c7.721-6.624,15.903-12.87,19.845-22.62c-3.155-9.221,10.856-12.558,7.907-21.706l0.524-1.188c0,0-0.913-0.979-0.913-0.981
		c1.956,3.046,4.152,3.223,6.598,0.53c31.918-34.896,62.656-70.743,91.81-107.858c13.416-12.796,12.973-26.762-0.617-37.722
		c-14.223-11.478-25.313-1.39-34.606,9.484c-29.261,34.237-59.464,67.787-87.093,103.223c-9.312,11.944-27.448,13.898-31.614,29.972
		c-13.13,13.095-23.933,27.915-34.023,43.26c0.862,4.764-10.856,4.627-4.738,11.44c-7.333,2.062-12.912,5.714-13.421,13.953
		l-0.025,0.037c-7.61,2.96-10.579,9.711-13.997,16.092c-1.971,2.325-3.936,4.655-5.901,6.979
		c-4.357,5.839-6.294,12.396-6.145,19.566c-6.379,10.591-9.066,22.136-11.677,36.129c11.063-4.477,19.509-7.893,27.96-11.31
		c1.937,1.686,3.871,3.376,5.804,5.066c-8.995,5.14-17.988,10.28-26.983,15.418c-4.156,1.985-8.316,3.967-12.477,5.95
		c-9.675-3.638-6.708-10.212-4.956-17.285c3.168-12.791,10.493-24.621,9.682-38.345c0.351-2.23,0.695-4.46,1.047-6.685
		c4.383-6.105,8.767-12.205,13.15-18.313c7.571-5.359,9.367-13.659,11.734-21.667c3.769-22.81,25.354-34.938,34.688-54.411
		C382.402,446.935,392.636,436.803,394.955,421.005z"/>
	<path fill="#5F605C" d="M334.466,509.326c-2.362,8.007-4.158,16.308-11.729,21.667c-1.119-11.968-10.81-7.111-16.768-7.185
		c-37.154-0.464-74.332,0.386-111.467-0.531c-15.728-0.382-23.97,5.611-29.329,19.404c-20.793,53.52-42.375,106.746-63.35,160.194
		c-7.567,19.281-4.164,24.222,17.531,24.261c134.791,0.203,269.584,0.219,404.374-0.011c21.124-0.04,24.372-5.256,16.639-24.938
		c-18.929-48.159-38.52-96.081-57.188-144.332c-8.569-22.154-19.833-38.559-48.324-31.479c-4.03,1.004-8.665-0.283-13.021-0.515
		c2.732-11.354,10.671-16.13,22.13-16.433c36.395,0.932,36.22,0.994,48.813,33.557c19.698,50.933,39.617,101.791,59.528,152.651
		c11.775,30.08,2.018,45.25-31.336,45.351c-133.423,0.39-266.846,0.418-400.269-0.016c-33.204-0.104-42.634-14.738-30.773-45.667
		c17.523-45.68,35.708-91.129,53.419-136.738c3.057-7.875,6.464-15.947,7.442-24.183c2.162-18.156,12.094-25.979,30.406-24.858
		c17.509,0.002,35.02,0.006,52.529,0.014C267.307,509.468,300.885,509.396,334.466,509.326z"/>
	<path fill="#888A85" d="M233.725,509.541c-17.509-0.008-35.02-0.012-52.529-0.014c-10.69-9.172-25.329-7.449-37.428-12.767
		c-8.218-3.612-19.022-4.245-19.21-16.613c-0.171-11.434,9.208-14.531,17.121-19.414c12.03-7.422,26.278-9.406,39.077-9.803
		c26.784-0.83,53.239-4.784,80.012-5.824c33.202-1.291,67.218-2.005,102.135-15.165c-25.304-14.265-51.518-16.361-76.427-22.104
		c-29.165-6.726-58.597-12.333-87.109-21.539c-10.059-3.248-17.829-8.531-21.421-18.812c-2.699-7.722,1.982-12.031,7.082-16.111
		c5.708-4.564,13.856-5.541,17.847-0.477c23.175,29.414,59.468,26.286,90.675,35.405c26.586,7.77,54.613,10.159,80.865,19.583
		c8.641,3.101,13.544,10.295,20.543,15.116c-2.318,15.796-12.553,25.928-25.795,33.909c-67.127,11.238-136,7.545-206.51,21.587
		c12.146,4.449,20.752,7.56,29.327,10.754C206.936,492.836,225.16,492.687,233.725,509.541z"/>
	<path fill="#F1F0EF" d="M421.835,525.862c4.354,0.23,8.989,1.518,13.021,0.514c28.491-7.078,39.755,9.325,48.324,31.479
		c18.669,48.252,38.26,96.172,57.188,144.332c7.733,19.681,4.485,24.898-16.639,24.937c-134.789,0.231-269.583,0.214-404.374,0.011
		c-21.695-0.037-25.099-4.978-17.531-24.26c20.974-53.448,42.557-106.676,63.35-160.195c5.359-13.791,13.601-19.784,29.329-19.402
		c37.135,0.915,74.313,0.065,111.467,0.529c5.958,0.073,15.648-4.781,16.768,7.187c-4.384,6.108-8.768,12.208-13.151,18.313
		c-34.773-4.07-69.673-0.966-104.505-1.683c-12.277-0.252-17.933,7.372-21.533,17.53c-8.033,22.678-16.055,45.368-24.502,67.895
		c-16.715,44.592-16.833,44.552,30.976,46.98c-0.763,15.821-13.458,10.147-22.388,12.142c-15.736,3.519-34.513-9.253-47.553,8.312
		c-7.39,20.517,10.291,12.303,16.918,12.342c87.737,0.558,175.477,0.33,263.222,0.292c36.737,0.041,73.477,0.308,110.209-0.063
		c7.327-0.07,20.709,2.933,12.317-12.635c-0.184-7.144-2.688-12.872-11.156-12.405c-10.293,0.56-17.735-5.101-25.824-9.575
		c10.849-9.647,6.652-20.473,2.244-31.015c-11.436-27.352-23.491-54.462-34.599-81.935c-5.183-12.819-13.325-19.396-27.893-18.256
		c-8.645,0.678-17.377,0.363-26.068,0.497c1.41-9.093,10.119-13.594,14.07-21.085C416.294,526.385,419.062,526.122,421.835,525.862z
		"/>
	<path fill="#F6F7F6" d="M308.539,555.991c0.812,13.726-6.514,25.554-9.682,38.345c-1.753,7.073-4.72,13.647,4.956,17.285
		c4.39,16.075,18.155,22.641,31.537,29.995c14.844,8.174,33.017,11.712,42.488,27.676c-67.639,0.258-135.276,0.403-202.915,0.862
		c-14.211,0.092-18.088-4.753-12.944-18.054c9.958-25.743,19.678-51.628,27.957-77.911c4.448-14.127,12.368-18.412,26.974-18.035
		C247.432,556.948,277.995,556.14,308.539,555.991z"/>
	<path fill="#F1F0EF" d="M316.289,605.673c8.995-5.139,17.988-10.276,26.983-15.418c24.106-2.435,31.934-26.87,51.298-35.715
		c5.692,0.639,11.599,2.555,17.041,1.699c22.153-3.479,32.926,6.462,38.729,26.365c4.293,14.729,11.934,28.523,17.928,42.793
		c19.51,46.449,19.485,46.463-32.836,43.565c0.443-8.632-2.842-14.75-11.422-18.479c-16.604-7.224-33.422-14.187-49.29-22.756
		C356.184,617.715,333.364,618.918,316.289,605.673z"/>
	<path fill="#959692" d="M435.432,668.963c52.321,2.896,52.346,2.884,32.836-43.565c-5.994-14.27-13.635-28.064-17.928-42.793
		c-5.804-19.905-16.575-29.845-38.729-26.365c-5.443,0.854-11.349-1.062-17.041-1.699c0.153-3.261,1.33-5.837,4.88-6.812
		c8.691-0.134,17.425,0.182,26.068-0.497c14.565-1.142,22.71,5.437,27.893,18.256c11.106,27.473,23.163,54.583,34.599,81.936
		c4.408,10.542,8.604,21.366-2.24,31.014c-18.368,0.614-36.745,1.219-55.123,1.822c-80.208-0.072-160.417-0.156-240.625-0.229
		c-47.809-2.43-47.691-2.389-30.976-46.981c8.447-22.527,16.469-45.218,24.502-67.894c3.6-10.158,9.255-17.782,21.533-17.53
		c34.832,0.716,69.732-2.388,104.506,1.682c-0.352,2.225-0.697,4.456-1.047,6.685c-30.544,0.147-61.106,0.957-91.628,0.167
		c-14.606-0.38-22.525,3.906-26.974,18.035c-8.278,26.282-17.999,52.167-27.957,77.91c-5.145,13.298-1.267,18.146,12.944,18.052
		c67.638-0.458,135.276-0.604,202.915-0.861C397.036,669.188,416.233,669.073,435.432,668.963z"/>
	<path fill="#020202" d="M233.725,509.541c-8.564-16.854-26.789-16.705-41.747-22.284c-8.575-3.195-17.182-6.305-29.327-10.754
		c70.51-14.042,139.383-10.352,206.51-21.588c-9.335,19.474-30.921,31.602-34.688,54.411
		C300.885,509.396,267.307,509.468,233.725,509.541z"/>
	<path fill="#E1E2E0" d="M399.438,449.042c4.166-16.074,22.304-18.028,31.614-29.974c27.629-35.434,57.832-68.984,87.093-103.222
		c9.293-10.875,20.385-20.961,34.606-9.483c13.59,10.96,14.033,24.926,0.617,37.722c-2.128-0.177-4.261-0.352-6.389-0.529
		c1.983-7.245,3.739-14.404-6.96-16.668c-9.84,0.2-14.053,9.37-21.816,12.869c-10.515,1.142-13.283,7.963-13.174,16.896
		c-1.461,1.428-2.922,2.857-4.383,4.287c-12.188,2.126-17.48,9.604-17.484,21.189c-1.452,1.43-2.909,2.86-4.365,4.292
		c-10.495,1.154-13.266,7.968-13.156,16.892c-2.903,2.859-5.809,5.717-8.713,8.574c-10.507,1.147-13.264,7.977-13.159,16.897
		c-3.07,4.06-8.299,6.77-8.418,12.67c0.481,2.26-0.762,6.108,4.174,4.281c1.372,0.111,2.748,0.226,4.124,0.343
		c1.752,2.661,3.498,5.321,5.246,7.984c-3.284,1.573-6.563,3.144-9.84,4.711c-4.191-1.612-8.379-3.225-12.574-4.839
		c-1.312-2.075-2.624-4.146-3.939-6.222c-8.35-3.873-14.015-0.116-18.782,6.204C402.313,452.293,400.878,450.667,399.438,449.042z"
		/>
	<path fill="#E1E2E0" d="M435.432,668.963c-19.198,0.11-38.396,0.225-57.594,0.331c-9.473-15.965-27.646-19.503-42.488-27.676
		c-13.382-7.354-27.146-13.92-31.537-29.993c4.16-1.981,8.319-3.967,12.477-5.952c17.075,13.245,39.896,12.043,58.432,22.056
		c15.868,8.569,32.688,15.532,49.29,22.756C432.59,654.213,435.876,660.331,435.432,668.963z"/>
	<path fill="#B6B7B4" d="M448.895,454.06c-1.748-2.66-3.494-5.321-5.246-7.983c4.799-8.343,14.882-14.022,13.601-25.423
		c11.597-3.045,19.23-9.798,21.479-21.593c0.086-1.338,0.18-2.672,0.274-4.008c13.491-3.48,21.381-11.481,21.842-25.471h0.035
		c12.134-2.083,17.319-9.653,17.642-21.055c11.626-3.044,19.231-9.849,21.5-21.641c10.699,2.265,8.943,9.424,6.978,16.669
		c-31.354,31.396-60.408,64.654-85.984,100.704c-2.018,2.386-4.033,4.77-6.051,7.154l0.914,0.979c0,0-0.525,1.19-0.572,1.146
		C453.138,453.684,451.02,453.872,448.895,454.06z"/>
	<path fill="#7C7D79" d="M403.758,453.917c4.769-6.319,10.434-10.076,18.782-6.202c-16.682,26.045-38.388,48.331-57.699,72.4
		c-4.333,5.402-9.559,10.681-17.903,9.94c0.372-4.099,3.385-8.143,0.291-12.323l0.024-0.037c11.17,1.405,12.004-6.536,13.422-13.955
		c-6.118-6.812,5.602-6.676,4.738-11.44C387.342,488.103,392.425,468.076,403.758,453.917z"/>
	<path fill="#D6D6D3" d="M461.013,444.259c25.576-36.049,54.632-69.309,85.984-100.704c2.11,0.176,4.243,0.353,6.371,0.528
		c-29.152,37.115-59.892,72.961-91.81,107.859C461.376,449.381,461.191,446.821,461.013,444.259z"/>
	<path fill="#454A4B" d="M399.45,547.729c-3.55,0.975-4.727,3.551-4.88,6.812c-19.364,8.845-27.19,33.28-51.298,35.715
		c-1.933-1.689-3.867-3.38-5.804-5.067c2.453-2.474,4.901-4.944,7.351-7.418c2.528-0.621,5.06-1.243,7.579-1.869
		c2.615-1.541,7.076-2.004,4.195-6.763l-0.018-0.013c4.222,1.298,5.537-0.223,4.333-4.198l0.056-0.034
		c12.755-1.739,17.707-11.03,21.786-21.169l0.096-0.106c3.137,0.265,4.41-1.277,4.29-4.165l0.09-0.086
		c5.225-0.531,7.716-3.725,8.66-8.405l0.424,0.207c4.122-3.105,8.246-6.207,12.369-9.309c1.614,1.592,3.229,3.187,4.841,4.784
		C409.569,534.135,400.86,538.635,399.45,547.729z"/>
	<path fill="#D6D6D3" d="M344.819,577.77c-2.448,2.474-4.896,4.942-7.351,7.417c-8.451,3.419-16.897,6.834-27.961,11.31
		c2.611-13.991,5.299-25.536,11.678-36.128C330.146,564.787,328.638,582.58,344.819,577.77z"/>
	<path fill="#C4C4C1" d="M403.758,453.917c-11.333,14.159-16.416,34.186-38.345,38.384c10.092-15.344,20.895-30.163,34.023-43.258
		C400.878,450.667,402.313,452.293,403.758,453.917z"/>
	<path fill="#B6B7B4" d="M344.819,577.77c-16.182,4.811-14.673-12.984-23.634-17.401c-0.149-7.172,1.786-13.729,6.145-19.567
		c1.328,1.19,2.657,2.38,3.979,3.561c-1.008,4.491-1.77,8.942,2.819,12.226c2.979,2.811,5.957,5.611,8.935,8.422
		c1.416,1.574,2.825,3.144,4.235,4.715c1.7,2.063,3.404,4.12,5.108,6.179C349.878,576.524,347.348,577.147,344.819,577.77z"/>
	<path fill="#959692" d="M408.68,521.859c-4.123,3.1-8.247,6.203-12.365,9.3c-4.375-14.579,9.537-18.425,16.442-26.382
		c1.613,1.581,3.229,3.158,4.844,4.729C414.628,513.629,411.652,517.74,408.68,521.859z"/>
	<path fill="#B6B7B4" d="M447.443,475.288c-3.939,9.748-12.124,15.996-19.845,22.62c-1.521-1.419-3.042-2.837-4.563-4.255
		c6.745-7.692,13.497-15.387,20.247-23.079C444.674,472.144,446.058,473.716,447.443,475.288z"/>
	<path fill="#B6B7B4" d="M347.229,517.732c3.094,4.181,0.081,8.225-0.291,12.333l0.078,0.183c-3.347,2.357-6.691,4.719-10.034,7.082
		c-1.25-1.17-2.504-2.338-3.75-3.506C336.649,527.441,339.618,520.692,347.229,517.732z"/>
	<path fill="#D6D6D3" d="M447.443,475.288c-1.386-1.572-2.77-3.145-4.159-4.715c-1.41-3.933-2.818-7.865-4.229-11.8
		c3.275-1.569,6.556-3.14,9.84-4.711c2.125-0.19,4.243-0.379,6.409-0.523C458.3,462.73,444.288,466.067,447.443,475.288z"/>
	<path fill="#B6B7B4" d="M360.675,503.74c-1.418,7.419-2.252,15.358-13.421,13.955C347.763,509.455,353.342,505.803,360.675,503.74z
		"/>
	<path fill="#B6B7B4" d="M417.601,509.507c-1.613-1.571-3.229-3.149-4.844-4.727c3.426-3.709,6.852-7.419,10.279-11.129
		c1.521,1.42,3.041,2.838,4.563,4.257C424.267,501.777,420.935,505.647,417.601,509.507z"/>
	<path fill="#B6B7B4" d="M327.33,540.803c1.967-2.325,3.932-4.654,5.901-6.977c1.246,1.168,2.5,2.335,3.726,3.484
		c-1.893,2.338-3.77,4.698-5.641,7.061C329.987,543.181,328.658,541.992,327.33,540.803z"/>
	<path fill="#E1E2E0" d="M461.013,444.259c0.179,2.563,0.362,5.121,0.547,7.684c-2.444,2.693-4.641,2.516-6.598-0.53
		C456.979,449.029,458.996,446.645,461.013,444.259z"/>
	<path fill="#E0E2DE" d="M430.646,680.259c18.378-0.604,36.755-1.208,55.123-1.822c8.085,4.475,15.527,10.137,25.82,9.575
		c8.47-0.467,10.974,5.262,11.151,12.405c-8.682-0.267-17.688,0.828-25.981-1.044c-31.503-7.118-60.761,10.052-91.789,7.362
		c-1.375-0.123-3.16,4.154-4.751,6.38c-87.745,0.038-175.484,0.266-263.222-0.292c-6.627-0.039-24.308,8.175-16.918-12.342
		c95.084,3.156,189.99-4.887,285.037-4.355C416.656,696.191,429.548,696.735,430.646,680.259z"/>
	<path fill="#E8EAE7" d="M430.646,680.259c-1.098,16.479-13.989,15.933-25.529,15.868c-95.047-0.531-189.953,7.511-285.037,4.356
		c13.04-17.566,31.817-4.794,47.553-8.313c8.931-1.993,21.625,3.681,22.388-12.14C270.229,680.103,350.438,680.186,430.646,680.259z
		"/>
	<path fill="#D6D6D3" d="M400.219,713.115c1.591-2.226,3.376-6.503,4.751-6.38c31.028,2.69,60.286-14.48,91.789-7.362
		c8.294,1.872,17.301,0.777,25.981,1.044c8.396,15.567-4.985,12.566-12.313,12.635C473.695,713.423,436.957,713.156,400.219,713.115
		z"/>
	<path fill="#5F605C" d="M423.037,493.653c-3.429,3.71-6.854,7.42-10.279,11.127c-6.905,7.954-20.817,11.8-16.442,26.379
		c-0.004,0.009-0.428-0.198-0.428-0.198c-7.896-2.056-10.152,1.361-8.66,8.405l-0.09,0.086c-3.691-0.804-4.957,0.746-4.29,4.165
		l-0.095,0.106c-13.084,1.417-18.576,10.188-21.787,21.169l-0.056,0.034c-2.981-0.096-4.357,1.369-4.333,4.198l0.018,0.012
		c-3.102,0.201-6.2,0.399-9.297,0.589c-1.41-1.57-2.819-3.141-4.229-4.715c4.963-15.269,18.466-24.642,27.303-37.237
		c17.748-25.301,44.438-44.205,56.11-73.84c4.195,1.615,8.383,3.228,12.574,4.84c1.41,3.935,2.818,7.868,4.229,11.8
		C436.534,478.265,429.782,485.961,423.037,493.653z"/>
	<path fill="#6C6E6A" d="M426.48,453.934c-11.674,29.635-38.362,48.538-56.11,73.84c-8.837,12.594-22.34,21.967-27.303,37.237
		c-2.982-2.811-5.962-5.61-8.94-8.423c4.663-8.61,15.794-14.248,12.89-26.34l-0.078-0.183c8.346,0.731,13.57-4.546,17.903-9.948
		c19.313-24.07,41.019-46.357,57.699-72.401C423.856,449.788,425.169,451.859,426.48,453.934z"/>
	<path fill="#C4C4C1" d="M457.253,420.657c1.276,11.396-8.807,17.076-13.604,25.419c-1.376-0.116-2.752-0.23-4.124-0.34
		c-1.393-1.429-2.781-2.856-4.174-4.284c0.119-5.9,5.348-8.608,8.418-12.667c4.399-2.8,8.793-5.599,13.185-8.397L457.253,420.657z"
		/>
	<path fill="#C4C4C1" d="M500.844,369.581c-0.461,13.99-8.351,21.991-21.843,25.471c-0.067-2.878-0.138-5.756-0.204-8.632
		c1.456-1.431,2.912-2.861,4.365-4.292C489.059,377.947,494.951,373.766,500.844,369.581z"/>
	<path fill="#C4C4C1" d="M540.021,326.885c-2.27,11.792-9.874,18.597-21.505,21.638c0-0.003-0.304-0.275-0.304-0.275
		c-0.005-2.833-0.005-5.663-0.009-8.493C525.968,336.254,530.181,327.086,540.021,326.885z"/>
	<path fill="#C4C4C1" d="M478.728,399.06c-2.248,11.795-9.883,18.549-21.479,21.593c0.005,0.004-0.296-0.265-0.296-0.265
		c-0.008-2.833-0.017-5.668-0.024-8.503c2.904-2.857,5.81-5.713,8.717-8.571C470.003,401.896,474.365,400.479,478.728,399.06z"/>
	<path fill="#D6D6D3" d="M500.844,369.581c-5.894,4.185-11.785,8.366-17.682,12.547c0.004-11.585,5.297-19.063,17.484-21.189
		c0.076,2.882,0.152,5.762,0.231,8.642H500.844z"/>
	<path fill="#C4C4C1" d="M500.879,369.581c-0.079-2.88-0.155-5.76-0.231-8.642c1.461-1.43,2.922-2.859,4.383-4.287
		c4.397-2.8,8.79-5.602,13.183-8.403c0,0,0.304,0.272,0.304,0.275C518.199,359.928,513.013,367.497,500.879,369.581z"/>
	<path fill="#D6D6D3" d="M478.728,399.06c-4.362,1.418-8.727,2.836-13.083,4.253c-0.112-8.925,2.657-15.74,13.152-16.894
		c0.066,2.876,0.137,5.753,0.204,8.632C478.907,396.387,478.813,397.723,478.728,399.06z"/>
	<path fill="#D6D6D3" d="M518.212,348.249c-4.393,2.802-8.784,5.604-13.183,8.403c-0.11-8.934,2.659-15.755,13.174-16.897
		C518.208,342.585,518.208,345.415,518.212,348.249z"/>
	<path fill="#D6D6D3" d="M456.928,411.885c0.009,2.836,0.018,5.671,0.024,8.503c-4.392,2.798-8.783,5.598-13.185,8.397
		C443.665,419.863,446.421,413.034,456.928,411.885z"/>
	<path fill="#D6D6D3" d="M435.351,441.452c1.393,1.428,2.781,2.855,4.174,4.284C434.589,447.562,435.833,443.713,435.351,441.452z"
		/>
	<path fill="#959692" d="M360.965,564.893c3.211-10.981,8.704-19.75,21.786-21.169C378.672,553.862,373.72,563.153,360.965,564.893z
		"/>
	<path fill="#959692" d="M387.227,539.366c-1.492-7.045,0.765-10.461,8.66-8.405C394.942,535.642,392.451,538.835,387.227,539.366z"
		/>
	<path fill="#959692" d="M347.297,569.724c3.097-0.189,6.195-0.388,9.297-0.587c2.881,4.76-1.58,5.223-4.195,6.762
		C350.702,573.844,348.998,571.789,347.297,569.724z"/>
	<path fill="#959692" d="M382.847,543.617c-0.667-3.419,0.599-4.969,4.29-4.165C387.257,542.34,385.983,543.882,382.847,543.617z"/>
	<path fill="#959692" d="M356.577,569.124c-0.024-2.828,1.352-4.293,4.333-4.198C362.114,568.901,360.798,570.421,356.577,569.124z"
		/>
	<path fill="#7C7D79" d="M347.016,530.248c2.903,12.092-8.227,17.728-12.89,26.34c-4.588-3.283-3.826-7.734-2.818-12.226
		c1.88-2.354,3.757-4.718,5.648-7.054C340.324,534.967,343.669,532.605,347.016,530.248z"/>
</g>
</svg>
