<?xml version="1.0" encoding="utf-8"?>
<!-- Generator: Adobe Illustrator 16.0.0, SVG Export Plug-In . SVG Version: 6.00 Build 0)  -->
<!DOCTYPE svg PUBLIC "-//W3C//DTD SVG 1.1//EN" "http://www.w3.org/Graphics/SVG/1.1/DTD/svg11.dtd">
<svg version="1.1" id="Layer_1" xmlns="http://www.w3.org/2000/svg" xmlns:xlink="http://www.w3.org/1999/xlink" x="0px" y="0px"
	 width="612px" height="792px" viewBox="0 0 612 792" enable-background="new 0 0 612 792" xml:space="preserve">
<g>
	<path fill="#FFFFFF" d="M562.5,634.5c0,1.1-0.9,2-2,2h-506c-1.1,0-2-0.9-2-2v-556c0-1.1,0.9-2,2-2h506c1.1,0,2,0.9,2,2V634.5z"/>
	<path fill="none" stroke="#262262" stroke-width="16" stroke-miterlimit="10" d="M562.5,634.5c0,1.1-0.9,2-2,2h-506
		c-1.1,0-2-0.9-2-2v-556c0-1.1,0.9-2,2-2h506c1.1,0,2,0.9,2,2V634.5z"/>
</g>
<g>
	<path fill="#710F12" d="M220.062,386.853v77.538h-60.257v-77.538h-25.872v-26.511c0-8.877,5.466-16.432,16.41-22.674
		c10.931-6.243,24.079-9.36,39.441-9.36c15.562,0,28.809,3.118,39.764,9.36c10.932,6.242,16.386,13.796,16.386,22.674v26.511
		H220.062z M214.56,318.409c-6.834,3.841-15.09,5.752-24.775,5.752c-9.661,0-17.878-1.911-24.613-5.752
		c-6.736-3.836-10.097-8.516-10.097-14.034s3.36-10.233,10.097-14.14c6.735-3.891,14.953-5.844,24.613-5.844
		c9.685,0,17.941,1.954,24.775,5.844c6.834,3.907,10.246,8.623,10.246,14.14S221.394,314.572,214.56,318.409z"/>
	
		<linearGradient id="SVGID_1_" gradientUnits="userSpaceOnUse" x1="158.0024" y1="268.855" x2="158.0024" y2="204.103" gradientTransform="matrix(2.914 0 0 2.7798 -270.4785 -282.9824)">
		<stop  offset="0" style="stop-color:#292E78;stop-opacity:0.22"/>
		<stop  offset="0.5" style="stop-color:#20215B"/>
		<stop  offset="0.5313" style="stop-color:#243864;stop-opacity:0.9455"/>
		<stop  offset="0.5773" style="stop-color:#2C5371;stop-opacity:0.8655"/>
		<stop  offset="0.6259" style="stop-color:#366B7C;stop-opacity:0.7809"/>
		<stop  offset="0.6762" style="stop-color:#3E8286;stop-opacity:0.6934"/>
		<stop  offset="0.7287" style="stop-color:#47968E;stop-opacity:0.6021"/>
		<stop  offset="0.7841" style="stop-color:#4DA694;stop-opacity:0.5056"/>
		<stop  offset="0.8438" style="stop-color:#53B298;stop-opacity:0.4018"/>
		<stop  offset="0.9107" style="stop-color:#56BC9C;stop-opacity:0.2854"/>
		<stop  offset="1" style="stop-color:#56C09D;stop-opacity:0.13"/>
	</linearGradient>
	<path fill="url(#SVGID_1_)" d="M220.062,386.853v77.538h-60.257v-77.538h-25.872v-26.511c0-8.877,5.466-16.432,16.41-22.674
		c10.931-6.243,24.079-9.36,39.441-9.36c15.562,0,28.809,3.118,39.764,9.36c10.932,6.242,16.386,13.796,16.386,22.674v26.511
		H220.062z M214.56,318.409c-6.834,3.841-15.09,5.752-24.775,5.752c-9.661,0-17.878-1.911-24.613-5.752
		c-6.736-3.836-10.097-8.516-10.097-14.034s3.36-10.233,10.097-14.14c6.735-3.891,14.953-5.844,24.613-5.844
		c9.685,0,17.941,1.954,24.775,5.844c6.834,3.907,10.246,8.623,10.246,14.14S221.394,314.572,214.56,318.409z"/>
	<g opacity="0.81">
		
			<radialGradient id="SVGID_2_" cx="156.0122" cy="214.7139" r="48.7688" gradientTransform="matrix(2.9129 0.0766 -0.0402 1.3894 -261.6831 3.6121)" gradientUnits="userSpaceOnUse">
			<stop  offset="0" style="stop-color:#638A98"/>
			<stop  offset="0.1862" style="stop-color:#5D899F;stop-opacity:0.933"/>
			<stop  offset="0.5254" style="stop-color:#4B88B1;stop-opacity:0.8109"/>
			<stop  offset="0.7444" style="stop-color:#3887BF;stop-opacity:0.732"/>
			<stop  offset="1" style="stop-color:#406EB5;stop-opacity:0.64"/>
		</radialGradient>
		<path fill="url(#SVGID_2_)" d="M220.062,386.853v77.538h-60.257v-77.538h-25.872v-26.511c0-8.877,5.466-16.432,16.41-22.674
			c10.931-6.243,24.079-9.36,39.441-9.36c15.562,0,28.809,3.118,39.764,9.36c10.932,6.242,16.386,13.796,16.386,22.674v26.511
			H220.062z M214.56,318.409c-6.834,3.841-15.09,5.752-24.775,5.752c-9.661,0-17.878-1.911-24.613-5.752
			c-6.736-3.836-10.097-8.516-10.097-14.034s3.36-10.233,10.097-14.14c6.735-3.891,14.953-5.844,24.613-5.844
			c9.685,0,17.941,1.954,24.775,5.844c6.834,3.907,10.246,8.623,10.246,14.14S221.394,314.572,214.56,318.409z"/>
	</g>
	<g opacity="0.7">
		
			<linearGradient id="SVGID_3_" gradientUnits="userSpaceOnUse" x1="158.0024" y1="204.104" x2="158.0024" y2="268.856" gradientTransform="matrix(2.914 0 0 2.7798 -270.4785 -282.9824)">
			<stop  offset="0" style="stop-color:#FFFFFF;stop-opacity:0.77"/>
			<stop  offset="0.45" style="stop-color:#FFFFFF;stop-opacity:0"/>
			<stop  offset="0.4668" style="stop-color:#DEDEE5;stop-opacity:0.0049"/>
			<stop  offset="0.4912" style="stop-color:#B5B5C5;stop-opacity:0.012"/>
			<stop  offset="0.5186" style="stop-color:#908FA8;stop-opacity:0.02"/>
			<stop  offset="0.5484" style="stop-color:#6F6F8F;stop-opacity:0.0286"/>
			<stop  offset="0.5813" style="stop-color:#54537A;stop-opacity:0.0382"/>
			<stop  offset="0.6185" style="stop-color:#3E3D69;stop-opacity:0.049"/>
			<stop  offset="0.6619" style="stop-color:#2D2C5C;stop-opacity:0.0617"/>
			<stop  offset="0.7156" style="stop-color:#222153;stop-opacity:0.0773"/>
			<stop  offset="0.7909" style="stop-color:#1B1A4D;stop-opacity:0.0992"/>
			<stop  offset="1" style="stop-color:#19184C;stop-opacity:0.16"/>
		</linearGradient>
		<path fill="url(#SVGID_3_)" d="M220.062,386.853v77.538h-60.257v-77.538h-25.872v-26.511c0-8.877,5.466-16.432,16.41-22.674
			c10.931-6.243,24.079-9.36,39.441-9.36c15.562,0,28.809,3.118,39.764,9.36c10.932,6.242,16.386,13.796,16.386,22.674v26.511
			H220.062z M214.56,318.409c-6.834,3.841-15.09,5.752-24.775,5.752c-9.661,0-17.878-1.911-24.613-5.752
			c-6.736-3.836-10.097-8.516-10.097-14.034s3.36-10.233,10.097-14.14c6.735-3.891,14.953-5.844,24.613-5.844
			c9.685,0,17.941,1.954,24.775,5.844c6.834,3.907,10.246,8.623,10.246,14.14S221.394,314.572,214.56,318.409z"/>
	</g>
	<g opacity="0.49">
		<path d="M160.662,463.536c0-25.846,0-51.692,0-77.538c0-0.013,0-0.25-0.002-0.25c-6.088,0-12.176,0-18.264,0
			c-2.47,0-4.94,0-7.411,0c-0.415,0-0.195-4.516-0.195-5.542c0-6.557,0-13.113,0-19.669c0-12.267,11.352-19.971,21.315-24.59
			c23.598-10.941,57.303-9.231,78.499,6.311c7.795,5.715,10.472,13.02,10.472,22.279c0,6.902,0,13.805,0,20.707
			c0,0.994-0.956,0.504-2.199,0.504c-3.082,0-6.163,0-9.245,0c-4.808,0-9.617,0-14.425,0c-0.003,0-0.002,0.237-0.002,0.25
			c0,24.368,0,48.735,0,73.103c0,1.34,0,2.682,0,4.021c0,0.445-0.823,0.163-1.709,0.163c-5.918,0-11.836,0-17.754,0
			c-12.91,0-25.82,0-38.73,0c-0.118,0-0.235,0-0.352,0c-0.004,0-0.004,0.5,0,0.5c19.516,0,39.032,0,58.548,0
			c0.003,0,0.002-0.237,0.002-0.25c0-18.849,0-37.697,0-56.546c0-6.992,0-13.983,0-20.975c0,0.466,23.233,0.233,25.869,0.233
			c0.003,0,0.002-0.237,0.002-0.25c0-9.026,0.234-18.083-0.038-27.105c-0.32-10.575-10.079-17.727-18.55-22.147
			c-11.237-5.864-24.18-7.731-36.709-7.833c-12.04-0.098-24.1,2.094-35.047,7.17c-9.461,4.386-18.895,11.728-19.913,22.802
			c-0.819,8.905-0.039,18.173-0.039,27.114c0,0.013,0,0.25,0.002,0.25c8.607,0,17.214,0,25.821,0c0.101,0,0.048,18.135,0.048,19.853
			c0,19.145,0,38.289,0,57.435C160.657,463.818,160.662,463.818,160.662,463.536z"/>
		<path d="M189.784,323.056c-11.519-0.145-30.214-3.212-33.625-16.596c-2.006-7.872,6.085-13.614,11.98-16.573
			c6.653-3.34,14.296-4.297,21.645-4.392c11.565-0.148,30.518,3.559,33.933,16.792c2.043,7.918-6.233,13.552-12.145,16.443
			C204.85,322.019,197.175,322.963,189.784,323.056c-0.006,0-0.001,0.5,0,0.5c11.348-0.143,34.169-3.86,34.169-19.181
			c0-15.355-22.75-19.233-34.169-19.38c-11.442-0.146-33.858,4.257-33.858,19.38c0,15.3,22.487,19.038,33.858,19.181
			C189.786,323.556,189.79,323.056,189.784,323.056z"/>
	</g>
	<g opacity="0.58">
		<path fill="#26286A" d="M220.056,386.853c0,24.368,0,48.735,0,73.102c0,1.342,0,2.682,0,4.023c0,0.834,0.063-0.213-0.08-0.213
			c-0.522,0-1.044,0-1.566,0c-5.766,0-11.532,0-17.297,0c-13.431,0-26.862,0-40.293,0c-1.358,0-1.008,1.072-1.008-0.681
			c0-2.382,0-4.763,0-7.144c0-8.948,0-17.896,0-26.844c0-14.082,0-28.164,0-42.245c0-0.032,0.001-0.625-0.006-0.625
			c-6.088,0-12.176,0-18.264,0c-2.47,0-4.94,0-7.411,0c-0.304,0-0.191,0.96-0.191-0.514c0-1.529,0-3.058,0-4.587
			c0-6.786,0-13.573,0-20.359c0-11.494,9.81-19.059,19.069-23.912c23.051-12.079,55.699-10.854,77.996,2.298
			c8.517,5.024,14.922,12.594,14.922,22.8c0,7.16,0,14.319,0,21.478c0,0.894,0,1.787,0,2.68c0,1.161,0.238,0.117-0.429,0.117
			c-2.701,0-5.401,0-8.102,0c-5.778,0-11.556,0-17.334,0c-0.009,0-0.009,1.25,0,1.25c8.624,0,17.248,0,25.872,0
			c0.007,0,0.006-0.593,0.006-0.625c0-9.431,0.227-18.888-0.039-28.316c-0.292-10.401-9.314-17.591-17.628-22.2
			c-11.158-6.186-24.096-8.343-36.704-8.64c-12.763-0.3-25.583,1.838-37.195,7.234c-9.784,4.546-19.424,12.125-20.407,23.584
			c-0.799,9.326-0.04,18.98-0.04,28.338c0,0.032-0.001,0.625,0.006,0.625c8.607,0,17.214,0,25.821,0
			c0.066,0,0.044-0.883,0.044,0.681c0,1.388,0,2.776,0,4.165c0,4.878,0,9.755,0,14.632c0,19.146,0,38.291,0,57.436
			c0,0.033-0.001,0.625,0.006,0.625c20.085,0,40.171,0,60.257,0c0.007,0,0.006-0.592,0.006-0.625c0-25.846,0-51.691,0-77.538
			C220.068,386.146,220.056,386.146,220.056,386.853z"/>
		<path fill="#26286A" d="M214.56,317.784c-13.168,7.077-30.112,7.602-44.06,2.52c-5.976-2.178-11.996-6.027-14.602-12.029
			c-3.278-7.548,3.549-13.92,9.273-17.414c12.579-7.679,30.524-7.495,43.997-2.555c6.036,2.214,12.145,6.104,14.802,12.162
			C227.3,308.058,220.336,314.368,214.56,317.784c-0.189,0.112,0.175,1.146,0,1.25c10.115-5.981,14.274-17.041,5.02-25.877
			c-13.353-12.75-39.223-11.931-54.409-3.547c-10.274,5.672-13.848,17.398-4.948,25.929c13.292,12.74,39.187,11.637,54.336,3.495
			C214.741,318.937,214.393,317.873,214.56,317.784z"/>
	</g>
</g>
<g>
	<g>
		<path fill="#710F12" d="M550.51,175.73c3.532-0.726,6.249-1.366,8.107-1.916l-42.056-49.089h-53.807l-41.521,49.089l8.969,1.495
			l37.007-34.959l5.602,15.771l-38.121,33.604h38.121l12.924,45.931h11.217l10.373-45.931h37.293l-37.6-33.604l5.624-15.771
			L550.51,175.73z M471.983,110.164c4.288,2.282,9.803,3.426,16.545,3.426c5.78,0,11.027-1.075,15.714-3.222
			c4.665-2.143,6.999-4.825,6.999-8.029c0-3.023-2.146-5.672-6.455-7.951c-4.289-2.289-9.716-3.428-16.258-3.428
			c-6.742,0-12.257,1.139-16.545,3.428c-4.287,2.279-6.453,4.928-6.453,7.951C465.53,105.266,467.696,107.872,471.983,110.164z"/>
	</g>
	<g>
		
			<linearGradient id="SVGID_4_" gradientUnits="userSpaceOnUse" x1="331.4434" y1="389.1772" x2="331.4434" y2="363.0337" gradientTransform="matrix(11.317 0 0 5.5346 -3261.0391 -1918.2852)">
			<stop  offset="0" style="stop-color:#292E78;stop-opacity:0.22"/>
			<stop  offset="0.5" style="stop-color:#20215B"/>
			<stop  offset="0.5313" style="stop-color:#243864;stop-opacity:0.9455"/>
			<stop  offset="0.5773" style="stop-color:#2C5371;stop-opacity:0.8655"/>
			<stop  offset="0.6259" style="stop-color:#366B7C;stop-opacity:0.7809"/>
			<stop  offset="0.6762" style="stop-color:#3E8286;stop-opacity:0.6934"/>
			<stop  offset="0.7287" style="stop-color:#47968E;stop-opacity:0.6021"/>
			<stop  offset="0.7841" style="stop-color:#4DA694;stop-opacity:0.5056"/>
			<stop  offset="0.8438" style="stop-color:#53B298;stop-opacity:0.4018"/>
			<stop  offset="0.9107" style="stop-color:#56BC9C;stop-opacity:0.2854"/>
			<stop  offset="1" style="stop-color:#56C09D;stop-opacity:0.13"/>
		</linearGradient>
		<path fill="url(#SVGID_4_)" d="M550.51,175.73c3.532-0.726,6.249-1.366,8.107-1.916l-42.056-49.089h-53.807l-41.521,49.089
			l8.969,1.495l37.007-34.959l5.602,15.771l-38.121,33.604h38.121l12.924,45.931h11.217l10.373-45.931h37.293l-37.6-33.604
			l5.624-15.771L550.51,175.73z M471.983,110.164c4.288,2.282,9.803,3.426,16.545,3.426c5.78,0,11.027-1.075,15.714-3.222
			c4.665-2.143,6.999-4.825,6.999-8.029c0-3.023-2.146-5.672-6.455-7.951c-4.289-2.289-9.716-3.428-16.258-3.428
			c-6.742,0-12.257,1.139-16.545,3.428c-4.287,2.279-6.453,4.928-6.453,7.951C465.53,105.266,467.696,107.872,471.983,110.164z"/>
	</g>
	<g opacity="0.81">
		
			<radialGradient id="SVGID_5_" cx="330.8164" cy="367.3174" r="19.1756" gradientTransform="matrix(11.3127 0.1526 -0.156 2.7662 -3202.3274 -951.8879)" gradientUnits="userSpaceOnUse">
			<stop  offset="0" style="stop-color:#638A98"/>
			<stop  offset="0.1862" style="stop-color:#5D899F;stop-opacity:0.933"/>
			<stop  offset="0.5254" style="stop-color:#4B88B1;stop-opacity:0.8109"/>
			<stop  offset="0.7444" style="stop-color:#3887BF;stop-opacity:0.732"/>
			<stop  offset="1" style="stop-color:#406EB5;stop-opacity:0.64"/>
		</radialGradient>
		<path fill="url(#SVGID_5_)" d="M550.51,175.73c3.532-0.726,6.249-1.366,8.107-1.916l-42.056-49.089h-53.807l-41.521,49.089
			l8.969,1.495l37.007-34.959l5.602,15.771l-38.121,33.604h38.121l12.924,45.931h11.217l10.373-45.931h37.293l-37.6-33.604
			l5.624-15.771L550.51,175.73z M471.983,110.164c4.288,2.282,9.803,3.426,16.545,3.426c5.78,0,11.027-1.075,15.714-3.222
			c4.665-2.143,6.999-4.825,6.999-8.029c0-3.023-2.146-5.672-6.455-7.951c-4.289-2.289-9.716-3.428-16.258-3.428
			c-6.742,0-12.257,1.139-16.545,3.428c-4.287,2.279-6.453,4.928-6.453,7.951C465.53,105.266,467.696,107.872,471.983,110.164z"/>
	</g>
	<g opacity="0.7">
		
			<linearGradient id="SVGID_6_" gradientUnits="userSpaceOnUse" x1="331.4453" y1="363.0337" x2="331.4453" y2="389.1772" gradientTransform="matrix(11.317 0 0 5.5346 -3261.0391 -1918.2852)">
			<stop  offset="0" style="stop-color:#FFFFFF;stop-opacity:0.77"/>
			<stop  offset="0.45" style="stop-color:#FFFFFF;stop-opacity:0"/>
			<stop  offset="0.4668" style="stop-color:#DEDEE5;stop-opacity:0.0049"/>
			<stop  offset="0.4912" style="stop-color:#B5B5C5;stop-opacity:0.012"/>
			<stop  offset="0.5186" style="stop-color:#908FA8;stop-opacity:0.02"/>
			<stop  offset="0.5484" style="stop-color:#6F6F8F;stop-opacity:0.0286"/>
			<stop  offset="0.5813" style="stop-color:#54537A;stop-opacity:0.0382"/>
			<stop  offset="0.6185" style="stop-color:#3E3D69;stop-opacity:0.049"/>
			<stop  offset="0.6619" style="stop-color:#2D2C5C;stop-opacity:0.0617"/>
			<stop  offset="0.7156" style="stop-color:#222153;stop-opacity:0.0773"/>
			<stop  offset="0.7909" style="stop-color:#1B1A4D;stop-opacity:0.0992"/>
			<stop  offset="1" style="stop-color:#19184C;stop-opacity:0.16"/>
		</linearGradient>
		<path fill="url(#SVGID_6_)" d="M550.51,175.73c3.532-0.726,6.249-1.366,8.107-1.916l-42.056-49.089h-53.807l-41.521,49.089
			l8.969,1.495l37.007-34.959l5.602,15.771l-38.121,33.604h38.121l12.924,45.931h11.217l10.373-45.931h37.293l-37.6-33.604
			l5.624-15.771L550.51,175.73z M471.983,110.164c4.288,2.282,9.803,3.426,16.545,3.426c5.78,0,11.027-1.075,15.714-3.222
			c4.665-2.143,6.999-4.825,6.999-8.029c0-3.023-2.146-5.672-6.455-7.951c-4.289-2.289-9.716-3.428-16.258-3.428
			c-6.742,0-12.257,1.139-16.545,3.428c-4.287,2.279-6.453,4.928-6.453,7.951C465.53,105.266,467.696,107.872,471.983,110.164z"/>
	</g>
	<g opacity="0.58">
		<g>
			<path fill="#26286A" d="M550.51,176.355c2.721-0.57,5.432-1.161,8.107-1.916c0.019-0.005,0.063-1.177,0-1.25
				c-7.334-8.561-14.669-17.122-22.003-25.683c-4.848-5.659-9.696-11.317-14.544-16.977c-0.854-0.997-4.313-6.43-5.725-6.43
				c-12.916,0-25.832,0-38.747,0c-4.876,0-9.752,0-14.628,0c-1.396,0-4.816,5.439-5.654,6.43
				c-12.028,14.22-24.056,28.439-36.083,42.659c-0.066,0.079,0.002,1.25,0,1.25c2.989,0.498,5.979,0.997,8.969,1.495
				c0.576,0.096,3.26-3.079,3.666-3.463c6.259-5.912,12.517-11.824,18.775-17.736c4.759-4.496,9.518-8.991,14.276-13.486
				c0.52-0.491,2.166,5.011,2.448,5.807c1.147,3.23,2.295,6.46,3.442,9.69c0-0.417,0-0.833,0-1.25
				c-12.707,11.201-25.414,22.402-38.121,33.604c-0.088,0.077,0.046,1.25,0,1.25c12.049,0,24.097,0,36.146,0
				c0.725,0,1.869-0.377,2.091,0.409c0.568,2.021,1.138,4.042,1.706,6.063c2.08,7.394,4.161,14.787,6.241,22.181
				c1.561,5.548,3.122,11.096,4.683,16.644c0.381,1.353,11.33,0.923,11.449,0.395c2.886-12.777,5.771-25.555,8.657-38.332
				c0.554-2.453,1.108-4.906,1.662-7.359c0.076-0.339,9.342,0,9.966,0c9.109,0,18.218,0,27.327,0c-0.046,0,0.087-1.172,0-1.25
				c-12.533-11.201-25.066-22.402-37.6-33.604c0,0.417,0,0.833,0,1.25c1.875-5.257,3.749-10.514,5.624-15.771
				c-0.303,0.849,9.05,8.455,9.817,9.173C531.81,158.883,541.159,167.62,550.51,176.355c-0.203-0.189,0.213-1.051,0-1.25
				c-9.351-8.735-18.7-17.472-28.051-26.207c-3.272-3.058-6.545-6.115-9.817-9.173c0.41,0.384-2.575,7.22-2.812,7.885
				c-0.938,2.629-1.875,5.258-2.813,7.886c-0.052,0.146-0.1,1.16,0,1.25c12.533,11.201,25.066,22.402,37.6,33.604
				c0-0.417,0-0.833,0-1.25c-12.033,0-24.067,0-36.101,0c-2.542,0-2.551,6.013-3.023,8.107c-1.728,7.649-3.455,15.299-5.183,22.948
				c-1.111,4.923-2.224,9.845-3.335,14.768c-0.074,0.327-10.981,1.032-11.495-0.796c-3.68-13.077-7.359-26.154-11.039-39.23
				c-0.149-0.533-1.248-5.797-1.764-5.797c-3.747,0-7.494,0-11.24,0c-8.916,0-17.832,0-26.748,0c0,0.417,0,0.833,0,1.25
				c12.707-11.201,25.414-22.402,38.121-33.604c0.1-0.088,0.052-1.104,0-1.25c-0.699-1.97-6.211-15.195-5.766-15.615
				c-4.566,4.313-9.132,8.626-13.698,12.939c-6.338,5.988-12.677,11.976-19.015,17.963c-1.371,1.295-2.741,2.589-4.111,3.884
				c-0.819,0.774-7.65-1.255-8.987-1.478c0,0.417,0,0.833,0,1.25c7.241-8.561,14.482-17.122,21.724-25.683
				c4.786-5.659,9.572-11.317,14.359-16.977c0.838-0.99,4.259-6.43,5.654-6.43c12.916,0,25.832,0,38.747,0c4.876,0,9.752,0,14.628,0
				c1.412,0,4.87,5.433,5.725,6.43c12.183,14.22,24.364,28.439,36.547,42.659c0-0.417,0-0.833,0-1.25
				c-2.676,0.755-5.387,1.346-8.107,1.916C550.417,175.125,550.584,176.339,550.51,176.355z"/>
			<path fill="#26286A" d="M471.983,110.789c10.667,5.282,27.834,5.345,37.098-2.972c5.387-4.836,0.247-11.438-4.295-14.055
				c-10.228-5.891-27.688-4.955-36.729,2.721C462.277,101.39,467.103,107.959,471.983,110.789c-0.174-0.101,0.188-1.142,0-1.25
				c-3.179-1.843-6.088-3.925-6.453-7.825c0,0.416,0,0.834,0,1.25c0.884-9.726,15.616-11.264,22.998-11.379
				c7.326-0.113,21.861,1.937,22.713,11.379c0-0.416,0-0.834,0-1.25c-0.601,7.281-10.127,9.656-16.034,10.735
				c-7.614,1.39-16.266,0.535-23.224-2.91C472.142,109.617,471.811,110.703,471.983,110.789z"/>
		</g>
	</g>
</g>
<g>
	<path fill="#710F12" d="M438.691,259.099h-20.889v61.807H390.04v-61.807h-15.02v61.807h-27.11v-61.807h-21.219v-61.979
		c0-4.086,3.487-8.391,10.437-12.884c6.974-4.51,14.801-7.36,23.514-8.568c11.112-1.545,18.511-2.335,22.203-2.335
		c10.455,0,20.359,1.381,29.708,4.148c11.342,3.243,19.15,7.807,23.514,13.699c1.751,2.281,2.625,4.123,2.625,5.577V259.099z
		 M407.354,154.419c0,3.852-2.472,7.035-7.351,9.546c-4.887,2.522-10.635,3.794-17.158,3.794c-6.973,0-12.796-1.334-17.449-3.975
		c-4.702-2.652-7.026-5.698-7.026-9.185c0-3.604,2.491-6.784,7.487-9.56c5.02-2.756,10.681-4.135,16.988-4.135
		c6.748,0,12.525,1.408,17.33,4.239C404.952,147.974,407.354,151.052,407.354,154.419z"/>
	
		<linearGradient id="SVGID_7_" gradientUnits="userSpaceOnUse" x1="295.0601" y1="288.77" x2="295.0601" y2="227.5864" gradientTransform="matrix(3.5704 0 0 2.942 -670.7891 -528.6484)">
		<stop  offset="0" style="stop-color:#292E78;stop-opacity:0.22"/>
		<stop  offset="0.5" style="stop-color:#20215B"/>
		<stop  offset="0.5313" style="stop-color:#243864;stop-opacity:0.9455"/>
		<stop  offset="0.5773" style="stop-color:#2C5371;stop-opacity:0.8655"/>
		<stop  offset="0.6259" style="stop-color:#366B7C;stop-opacity:0.7809"/>
		<stop  offset="0.6762" style="stop-color:#3E8286;stop-opacity:0.6934"/>
		<stop  offset="0.7287" style="stop-color:#47968E;stop-opacity:0.6021"/>
		<stop  offset="0.7841" style="stop-color:#4DA694;stop-opacity:0.5056"/>
		<stop  offset="0.8438" style="stop-color:#53B298;stop-opacity:0.4018"/>
		<stop  offset="0.9107" style="stop-color:#56BC9C;stop-opacity:0.2854"/>
		<stop  offset="1" style="stop-color:#56C09D;stop-opacity:0.13"/>
	</linearGradient>
	<path fill="url(#SVGID_7_)" d="M438.691,259.099h-20.889v61.807H390.04v-61.807h-15.02v61.807h-27.11v-61.807h-21.219v-61.979
		c0-4.086,3.487-8.391,10.437-12.884c6.974-4.51,14.801-7.36,23.514-8.568c11.112-1.545,18.511-2.335,22.203-2.335
		c10.455,0,20.359,1.381,29.708,4.148c11.342,3.243,19.15,7.807,23.514,13.699c1.751,2.281,2.625,4.123,2.625,5.577V259.099z
		 M407.354,154.419c0,3.852-2.472,7.035-7.351,9.546c-4.887,2.522-10.635,3.794-17.158,3.794c-6.973,0-12.796-1.334-17.449-3.975
		c-4.702-2.652-7.026-5.698-7.026-9.185c0-3.604,2.491-6.784,7.487-9.56c5.02-2.756,10.681-4.135,16.988-4.135
		c6.748,0,12.525,1.408,17.33,4.239C404.952,147.974,407.354,151.052,407.354,154.419z"/>
	<g opacity="0.81">
		
			<radialGradient id="SVGID_8_" cx="293.4351" cy="237.6123" r="45.2965" gradientTransform="matrix(3.569 0.0811 -0.0492 1.4704 -658.6991 -202.7868)" gradientUnits="userSpaceOnUse">
			<stop  offset="0" style="stop-color:#638A98"/>
			<stop  offset="0.1862" style="stop-color:#5D899F;stop-opacity:0.933"/>
			<stop  offset="0.5254" style="stop-color:#4B88B1;stop-opacity:0.8109"/>
			<stop  offset="0.7444" style="stop-color:#3887BF;stop-opacity:0.732"/>
			<stop  offset="1" style="stop-color:#406EB5;stop-opacity:0.64"/>
		</radialGradient>
		<path fill="url(#SVGID_8_)" d="M438.691,259.099h-20.889v61.807H390.04v-61.807h-15.02v61.807h-27.11v-61.807h-21.219v-61.979
			c0-4.086,3.487-8.391,10.437-12.884c6.974-4.51,14.801-7.36,23.514-8.568c11.112-1.545,18.511-2.335,22.203-2.335
			c10.455,0,20.359,1.381,29.708,4.148c11.342,3.243,19.15,7.807,23.514,13.699c1.751,2.281,2.625,4.123,2.625,5.577V259.099z
			 M407.354,154.419c0,3.852-2.472,7.035-7.351,9.546c-4.887,2.522-10.635,3.794-17.158,3.794c-6.973,0-12.796-1.334-17.449-3.975
			c-4.702-2.652-7.026-5.698-7.026-9.185c0-3.604,2.491-6.784,7.487-9.56c5.02-2.756,10.681-4.135,16.988-4.135
			c6.748,0,12.525,1.408,17.33,4.239C404.952,147.974,407.354,151.052,407.354,154.419z"/>
	</g>
	<g opacity="0.7">
		
			<linearGradient id="SVGID_9_" gradientUnits="userSpaceOnUse" x1="295.0591" y1="227.5864" x2="295.0591" y2="288.77" gradientTransform="matrix(3.5704 0 0 2.942 -670.7891 -528.6484)">
			<stop  offset="0" style="stop-color:#FFFFFF;stop-opacity:0.77"/>
			<stop  offset="0.45" style="stop-color:#FFFFFF;stop-opacity:0"/>
			<stop  offset="0.4668" style="stop-color:#DEDEE5;stop-opacity:0.0049"/>
			<stop  offset="0.4912" style="stop-color:#B5B5C5;stop-opacity:0.012"/>
			<stop  offset="0.5186" style="stop-color:#908FA8;stop-opacity:0.02"/>
			<stop  offset="0.5484" style="stop-color:#6F6F8F;stop-opacity:0.0286"/>
			<stop  offset="0.5813" style="stop-color:#54537A;stop-opacity:0.0382"/>
			<stop  offset="0.6185" style="stop-color:#3E3D69;stop-opacity:0.049"/>
			<stop  offset="0.6619" style="stop-color:#2D2C5C;stop-opacity:0.0617"/>
			<stop  offset="0.7156" style="stop-color:#222153;stop-opacity:0.0773"/>
			<stop  offset="0.7909" style="stop-color:#1B1A4D;stop-opacity:0.0992"/>
			<stop  offset="1" style="stop-color:#19184C;stop-opacity:0.16"/>
		</linearGradient>
		<path fill="url(#SVGID_9_)" d="M438.691,259.099h-20.889v61.807H390.04v-61.807h-15.02v61.807h-27.11v-61.807h-21.219v-61.979
			c0-4.086,3.487-8.391,10.437-12.884c6.974-4.51,14.801-7.36,23.514-8.568c11.112-1.545,18.511-2.335,22.203-2.335
			c10.455,0,20.359,1.381,29.708,4.148c11.342,3.243,19.15,7.807,23.514,13.699c1.751,2.281,2.625,4.123,2.625,5.577V259.099z
			 M407.354,154.419c0,3.852-2.472,7.035-7.351,9.546c-4.887,2.522-10.635,3.794-17.158,3.794c-6.973,0-12.796-1.334-17.449-3.975
			c-4.702-2.652-7.026-5.698-7.026-9.185c0-3.604,2.491-6.784,7.487-9.56c5.02-2.756,10.681-4.135,16.988-4.135
			c6.748,0,12.525,1.408,17.33,4.239C404.952,147.974,407.354,151.052,407.354,154.419z"/>
	</g>
	<g opacity="0.58">
		<path fill="#26286A" d="M438.691,258.474c-6.963,0-13.926,0-20.889,0c-0.008,0-0.006,0.592-0.006,0.625
			c0,11.461,0,22.924,0,34.386c0,7.124,0,14.247,0,21.371c0,1.771,0,3.541,0,5.312c0,1.197,0.013,0.113-0.041,0.113
			c-0.863,0-1.728,0-2.591,0c-7.283,0-14.564,0-21.848,0c-1.32,0-3.271-0.063-3.271,0.292c0-1.703,0-3.405,0-5.107
			c0-14.858,0-29.717,0-44.575c0-3.931,0-7.861,0-11.791c0-0.033,0.001-0.625-0.006-0.625c-5.007,0-10.013,0-15.02,0
			c-0.007,0-0.006,0.592-0.006,0.625c0,11.461,0,22.924,0,34.386c0,7.124,0,14.247,0,21.371c0,1.771,0,3.541,0,5.312
			c0,1.197,0.014,0.113-0.041,0.113c-0.883,0-1.764,0-2.646,0c-7.241,0-14.482,0-21.723,0c-0.836,0-1.672,0-2.508,0
			c-0.3,0-0.18,1.067-0.18,0.108c0-1.845,0-3.688,0-5.533c0-14.92,0-29.84,0-44.76c0-3.665,0-7.331,0-10.997
			c0-0.033,0-0.625-0.007-0.625c-6.206,0-12.411,0-18.616,0c-0.848,0-1.695,0-2.541,0c-0.072,0-0.055,1.083-0.055-0.116
			c0-1.987,0-3.976,0-5.963c0-15.008,0-30.015,0-45.022c0-3.977-0.688-8.643,0.55-12.49c1.726-5.368,8.204-9.098,12.716-11.736
			c6.33-3.702,13.473-5.756,20.678-6.853c12.303-1.872,24.194-2.935,36.598-1.417c12.352,1.511,26.304,5.063,35.795,13.554
			c4.839,4.329,5.651,7.893,5.651,13.708c0,7.273,0,14.547,0,21.82c0,11.714,0,23.427,0,35.141c0,0.707,0.012,0.707,0.012,0
			c0-11.384,0-22.768,0-34.15c0-9.396,1.062-19.467-0.006-28.815c-1.25-10.952-17.454-16.702-26.139-19.276
			c-12.081-3.58-24.85-4.87-37.384-3.627c-14.111,1.398-27.569,3.364-39.583,11.416c-4.896,3.28-8.901,7.423-8.901,13.475
			c0,20.326,0,40.652,0,60.979c0,0.032,0,0.625,0.007,0.625c7.053,0,14.105,0,21.157,0c0.077,0,0.055-1.023,0.055,0.372
			c0,1.103,0,2.205,0,3.308c0,3.906,0,7.813,0,11.719c0,15.262,0,30.522,0,45.783c0,0.032,0,0.625,0.007,0.625
			c9.037,0,18.073,0,27.11,0c0.008,0,0.007-0.593,0.007-0.625c0-11.462,0-22.924,0-34.387c0-7.123,0-14.247,0-21.371
			c0-1.77,0-3.541,0-5.311c0-1.197-0.024-0.113,0.076-0.113c1.368,0,2.736,0,4.104,0c3.377,0,6.754,0,10.132,0
			c0.759,0,0.693-0.822,0.693-0.293c0,0.686,0,1.371,0,2.057c0,6.075,0,12.15,0,18.225c0,13.398,0,26.797,0,40.195
			c0,0.333,0,0.665,0,0.998c0,0.032-0.001,0.625,0.007,0.625c9.254,0,18.508,0,27.763,0c0.008,0,0.006-0.593,0.006-0.625
			c0-15.261,0-30.521,0-45.783c0-3.722,0-7.443,0-11.165c0-1.188,0-2.377,0-3.565c0-1.548-0.026-0.668,0.054-0.668
			c6.943,0,13.886,0,20.829,0C438.701,259.724,438.701,258.474,438.691,258.474z"/>
		<path fill="#26286A" d="M407.353,153.818c-0.707,10.82-16.129,13.166-24.508,13.316c-8.264,0.147-23.688-2.682-24.476-13.159
			c0.001,0.409,0.001,0.818,0.001,1.228c0.738-10.547,16.217-13.506,24.475-13.672c8.232-0.165,23.684,3.2,24.509,13.514
			c-0.033-0.412,0.033-0.835,0-1.25c-0.476-5.945-6.364-9.207-11.327-11.273c-6.143-2.559-13.326-2.657-19.807-1.693
			c-7.159,1.064-17.881,5.381-17.856,13.938c0.026,9.754,13.528,12.86,21.091,13.507c8.955,0.765,27.13-1.432,27.9-13.25
			C407.38,154.647,407.333,154.111,407.353,153.818z"/>
	</g>
</g>
<g>
	<g>
		<path fill="#710F12" d="M317.67,210.712c3.533-0.928,6.25-1.748,8.107-2.451l-42.054-62.794h-53.807l-41.521,62.794l8.969,1.913
			l37.007-44.719l5.602,20.174l-38.121,42.985h38.121l12.924,58.754h11.217l10.373-58.754h37.292l-37.599-42.985l5.625-20.174
			L317.67,210.712z M239.145,126.84c4.288,2.919,9.803,4.382,16.545,4.382c5.78,0,11.027-1.375,15.713-4.121
			c4.666-2.741,7-6.173,7-10.271c0-3.868-2.146-7.255-6.455-10.171c-4.29-2.928-9.716-4.384-16.258-4.384
			c-6.742,0-12.257,1.457-16.545,4.384c-4.287,2.916-6.453,6.303-6.453,10.171C232.691,120.575,234.857,123.907,239.145,126.84z"/>
	</g>
	<g>
		
			<linearGradient id="SVGID_10_" gradientUnits="userSpaceOnUse" x1="316.5449" y1="352.9707" x2="316.5449" y2="326.8267" gradientTransform="matrix(11.317 0 0 7.0798 -3325.2656 -2211.5938)">
			<stop  offset="0" style="stop-color:#292E78;stop-opacity:0.22"/>
			<stop  offset="0.5" style="stop-color:#20215B"/>
			<stop  offset="0.5313" style="stop-color:#243864;stop-opacity:0.9455"/>
			<stop  offset="0.5773" style="stop-color:#2C5371;stop-opacity:0.8655"/>
			<stop  offset="0.6259" style="stop-color:#366B7C;stop-opacity:0.7809"/>
			<stop  offset="0.6762" style="stop-color:#3E8286;stop-opacity:0.6934"/>
			<stop  offset="0.7287" style="stop-color:#47968E;stop-opacity:0.6021"/>
			<stop  offset="0.7841" style="stop-color:#4DA694;stop-opacity:0.5056"/>
			<stop  offset="0.8438" style="stop-color:#53B298;stop-opacity:0.4018"/>
			<stop  offset="0.9107" style="stop-color:#56BC9C;stop-opacity:0.2854"/>
			<stop  offset="1" style="stop-color:#56C09D;stop-opacity:0.13"/>
		</linearGradient>
		<path fill="url(#SVGID_10_)" d="M317.67,210.712c3.533-0.928,6.25-1.748,8.107-2.451l-42.054-62.794h-53.807l-41.521,62.794
			l8.969,1.913l37.007-44.719l5.602,20.174l-38.121,42.985h38.121l12.924,58.754h11.217l10.373-58.754h37.292l-37.599-42.985
			l5.625-20.174L317.67,210.712z M239.145,126.84c4.288,2.919,9.803,4.382,16.545,4.382c5.78,0,11.027-1.375,15.713-4.121
			c4.666-2.741,7-6.173,7-10.271c0-3.868-2.146-7.255-6.455-10.171c-4.29-2.928-9.716-4.384-16.258-4.384
			c-6.742,0-12.257,1.457-16.545,4.384c-4.287,2.916-6.453,6.303-6.453,10.171C232.691,120.575,234.857,123.907,239.145,126.84z"/>
	</g>
	<g opacity="0.81">
		
			<radialGradient id="SVGID_11_" cx="315.916" cy="331.1108" r="19.1758" gradientTransform="matrix(11.3127 0.1951 -0.156 3.5386 -3272.2646 -1100.696)" gradientUnits="userSpaceOnUse">
			<stop  offset="0" style="stop-color:#638A98"/>
			<stop  offset="0.1862" style="stop-color:#5D899F;stop-opacity:0.933"/>
			<stop  offset="0.5254" style="stop-color:#4B88B1;stop-opacity:0.8109"/>
			<stop  offset="0.7444" style="stop-color:#3887BF;stop-opacity:0.732"/>
			<stop  offset="1" style="stop-color:#406EB5;stop-opacity:0.64"/>
		</radialGradient>
		<path fill="url(#SVGID_11_)" d="M317.67,210.712c3.533-0.928,6.25-1.748,8.107-2.451l-42.054-62.794h-53.807l-41.521,62.794
			l8.969,1.913l37.007-44.719l5.602,20.174l-38.121,42.985h38.121l12.924,58.754h11.217l10.373-58.754h37.292l-37.599-42.985
			l5.625-20.174L317.67,210.712z M239.145,126.84c4.288,2.919,9.803,4.382,16.545,4.382c5.78,0,11.027-1.375,15.713-4.121
			c4.666-2.741,7-6.173,7-10.271c0-3.868-2.146-7.255-6.455-10.171c-4.29-2.928-9.716-4.384-16.258-4.384
			c-6.742,0-12.257,1.457-16.545,4.384c-4.287,2.916-6.453,6.303-6.453,10.171C232.691,120.575,234.857,123.907,239.145,126.84z"/>
	</g>
	<g opacity="0.7">
		
			<linearGradient id="SVGID_12_" gradientUnits="userSpaceOnUse" x1="316.5459" y1="326.8267" x2="316.5459" y2="352.9707" gradientTransform="matrix(11.317 0 0 7.0798 -3325.2656 -2211.5938)">
			<stop  offset="0" style="stop-color:#FFFFFF;stop-opacity:0.77"/>
			<stop  offset="0.45" style="stop-color:#FFFFFF;stop-opacity:0"/>
			<stop  offset="0.4668" style="stop-color:#DEDEE5;stop-opacity:0.0049"/>
			<stop  offset="0.4912" style="stop-color:#B5B5C5;stop-opacity:0.012"/>
			<stop  offset="0.5186" style="stop-color:#908FA8;stop-opacity:0.02"/>
			<stop  offset="0.5484" style="stop-color:#6F6F8F;stop-opacity:0.0286"/>
			<stop  offset="0.5813" style="stop-color:#54537A;stop-opacity:0.0382"/>
			<stop  offset="0.6185" style="stop-color:#3E3D69;stop-opacity:0.049"/>
			<stop  offset="0.6619" style="stop-color:#2D2C5C;stop-opacity:0.0617"/>
			<stop  offset="0.7156" style="stop-color:#222153;stop-opacity:0.0773"/>
			<stop  offset="0.7909" style="stop-color:#1B1A4D;stop-opacity:0.0992"/>
			<stop  offset="1" style="stop-color:#19184C;stop-opacity:0.16"/>
		</linearGradient>
		<path fill="url(#SVGID_12_)" d="M317.67,210.712c3.533-0.928,6.25-1.748,8.107-2.451l-42.054-62.794h-53.807l-41.521,62.794
			l8.969,1.913l37.007-44.719l5.602,20.174l-38.121,42.985h38.121l12.924,58.754h11.217l10.373-58.754h37.292l-37.599-42.985
			l5.625-20.174L317.67,210.712z M239.145,126.84c4.288,2.919,9.803,4.382,16.545,4.382c5.78,0,11.027-1.375,15.713-4.121
			c4.666-2.741,7-6.173,7-10.271c0-3.868-2.146-7.255-6.455-10.171c-4.29-2.928-9.716-4.384-16.258-4.384
			c-6.742,0-12.257,1.457-16.545,4.384c-4.287,2.916-6.453,6.303-6.453,10.171C232.691,120.575,234.857,123.907,239.145,126.84z"/>
	</g>
	<g opacity="0.58">
		<g>
			<path fill="#26286A" d="M317.67,211.337c2.73-0.731,5.447-1.49,8.107-2.451c0.036-0.013,0.058-1.165,0-1.25
				c-13.436-20.062-26.871-40.124-40.307-60.186c-1.68-2.508-1.452-2.608-4.455-2.608c-6.577,0-13.154,0-19.73,0
				c-7.716,0-15.432,0-23.148,0c-1.394,0-7.607-0.929-8.458,0.358c-13.761,20.812-27.523,41.624-41.285,62.436
				c-0.059,0.089-0.013,1.247,0,1.25c1.19,0.254,8.445,2.545,9.025,1.844c1.458-1.762,2.916-3.523,4.374-5.286
				c6.557-7.923,13.114-15.847,19.671-23.771c4.283-5.175,8.566-10.351,12.849-15.526c-0.48,0.58,2.3,8.01,2.595,9.074
				c1.021,3.677,2.042,7.354,3.063,11.031c0-0.417,0-0.833,0-1.25c-12.707,14.329-25.414,28.657-38.121,42.985
				c-0.08,0.09,0.041,1.25,0,1.25c12.048,0,24.097,0,36.146,0c0.592,0,1.897-0.358,2.048,0.331c0.371,1.685,0.741,3.37,1.112,5.055
				c1.511,6.87,3.022,13.739,4.533,20.609c1.661,7.552,3.322,15.104,4.983,22.655c0.165,0.749,1.77,10.104,2.334,10.104
				c3.178,0,6.356,0,9.534,0c1.825,0,1.563,0.048,1.861-1.645c1.011-5.725,2.021-11.45,3.032-17.175
				c2.35-13.312,4.7-26.623,7.05-39.934c0.185-1.047,33.656,0,37.292,0c-0.04,0,0.079-1.159,0-1.25
				c-12.533-14.329-25.066-28.657-37.599-42.985c0,0.417,0,0.833,0,1.25c1.854-6.649,3.708-13.298,5.562-19.947
				c-0.203,0.726,7.93,9.176,8.949,10.394C298.35,188.245,308.01,199.791,317.67,211.337c-0.201-0.24,0.209-1,0-1.25
				c-7.476-8.934-14.95-17.869-22.426-26.803c-4.308-5.149-8.616-10.298-12.925-15.448c-0.82-0.98-1.64-1.96-2.459-2.94
				c0.215,0.257-1.419,4.818-1.594,5.445c-1.001,3.59-2.002,7.181-3.003,10.771c-0.363,1.304-1.082,2.827-1.09,4.199
				c-0.012,2.061,2.559,3.86,3.832,5.315c9.692,11.081,19.385,22.162,29.078,33.243c1.564,1.789,3.13,3.578,4.694,5.367
				c0-0.417,0-0.833,0-1.25c-12.033,0-24.066,0-36.1,0c-2.406,0-2.029,4.74-2.384,6.75c-1.273,7.216-2.548,14.432-3.821,21.648
				c-1.31,7.417-2.619,14.835-3.929,22.252c-0.38,2.153-0.76,4.306-1.14,6.458c-0.299,1.693-0.036,1.645-1.861,1.645
				c-3.178,0-6.356,0-9.534,0c-0.318,0-0.66-2.492-0.727-2.795c-1.353-6.148-2.705-12.297-4.058-18.445
				c-1.896-8.622-3.793-17.244-5.689-25.865c-0.192-0.876-2.035-11.648-2.695-11.648c-12.663,0-25.326,0-37.988,0
				c0,0.417,0,0.833,0,1.25c7.767-8.758,15.534-17.516,23.301-26.274c4.282-4.828,8.563-9.656,12.845-14.484
				c0.917-1.033,2.391-1.981,1.959-3.536c-1.689-6.084-3.379-12.169-5.068-18.254c-0.29-1.043-0.123-2.338-1.01-1.267
				c-1.313,1.586-2.625,3.172-3.938,4.759c-9.382,11.337-18.764,22.674-28.146,34.011c-1.435,1.734-2.87,3.468-4.305,5.202
				c-0.697,0.843-7.781-1.48-9.095-1.76c0,0.417,0,0.833,0,1.25c13.333-20.164,26.666-40.328,40-60.492
				c1.673-2.53,1.596-2.302,4.715-2.302c6.744,0,13.488,0,20.232,0c7.63,0,15.26,0,22.89,0c1.564,0,6.849-0.961,7.83,0.503
				c13.905,20.764,27.812,41.527,41.717,62.291c0-0.417,0-0.833,0-1.25c-2.66,0.961-5.377,1.72-8.107,2.451
				C317.557,210.117,317.766,211.312,317.67,211.337z"/>
			<path fill="#26286A" d="M239.145,127.465c10.661,6.794,27.802,6.133,36.738-3.357c5.54-5.884,1.465-14.133-3.935-18.073
				c-10.123-7.386-27.727-5.786-36.382,3.073C229.699,115.113,233.432,123.267,239.145,127.465c-0.192-0.142,0.205-1.1,0-1.25
				c-4.157-3.055-7.585-6.908-5.733-12.468c1.466-4.399,6.427-7.244,10.43-8.901c8.698-3.599,20.226-2.575,28.106,2.438
				c4.266,2.713,7.447,7.198,5.825,12.429c-1.419,4.577-6.691,7.186-10.738,8.864c-8.666,3.596-20.002,2.665-27.89-2.362
				C239.327,126.331,238.949,127.34,239.145,127.465z"/>
		</g>
	</g>
</g>
<g>
	<path fill="#710F12" d="M178.426,231.782h-20.889v61.807h-27.763v-61.807h-15.02v61.807h-27.11v-61.807H66.426v-61.978
		c0-4.086,3.487-8.391,10.437-12.884c6.974-4.51,14.801-7.36,23.514-8.568c11.112-1.545,18.511-2.335,22.203-2.335
		c10.455,0,20.359,1.381,29.708,4.148c11.342,3.243,19.15,7.807,23.514,13.699c1.751,2.281,2.625,4.123,2.625,5.577V231.782z
		 M147.088,127.103c0,3.852-2.472,7.035-7.351,9.546c-4.887,2.522-10.635,3.794-17.158,3.794c-6.973,0-12.796-1.334-17.449-3.975
		c-4.702-2.652-7.026-5.698-7.026-9.185c0-3.604,2.491-6.784,7.487-9.56c5.02-2.756,10.681-4.135,16.988-4.135
		c6.748,0,12.525,1.408,17.33,4.239C144.687,120.658,147.088,123.736,147.088,127.103z"/>
	
		<linearGradient id="SVGID_13_" gradientUnits="userSpaceOnUse" x1="222.1646" y1="279.4849" x2="222.1646" y2="218.3013" gradientTransform="matrix(3.5704 0 0 2.942 -670.7891 -528.6484)">
		<stop  offset="0" style="stop-color:#292E78;stop-opacity:0.22"/>
		<stop  offset="0.5" style="stop-color:#20215B"/>
		<stop  offset="0.5313" style="stop-color:#243864;stop-opacity:0.9455"/>
		<stop  offset="0.5773" style="stop-color:#2C5371;stop-opacity:0.8655"/>
		<stop  offset="0.6259" style="stop-color:#366B7C;stop-opacity:0.7809"/>
		<stop  offset="0.6762" style="stop-color:#3E8286;stop-opacity:0.6934"/>
		<stop  offset="0.7287" style="stop-color:#47968E;stop-opacity:0.6021"/>
		<stop  offset="0.7841" style="stop-color:#4DA694;stop-opacity:0.5056"/>
		<stop  offset="0.8438" style="stop-color:#53B298;stop-opacity:0.4018"/>
		<stop  offset="0.9107" style="stop-color:#56BC9C;stop-opacity:0.2854"/>
		<stop  offset="1" style="stop-color:#56C09D;stop-opacity:0.13"/>
	</linearGradient>
	<path fill="url(#SVGID_13_)" d="M178.426,231.782h-20.889v61.807h-27.763v-61.807h-15.02v61.807h-27.11v-61.807H66.426v-61.978
		c0-4.086,3.487-8.391,10.437-12.884c6.974-4.51,14.801-7.36,23.514-8.568c11.112-1.545,18.511-2.335,22.203-2.335
		c10.455,0,20.359,1.381,29.708,4.148c11.342,3.243,19.15,7.807,23.514,13.699c1.751,2.281,2.625,4.123,2.625,5.577V231.782z
		 M147.088,127.103c0,3.852-2.472,7.035-7.351,9.546c-4.887,2.522-10.635,3.794-17.158,3.794c-6.973,0-12.796-1.334-17.449-3.975
		c-4.702-2.652-7.026-5.698-7.026-9.185c0-3.604,2.491-6.784,7.487-9.56c5.02-2.756,10.681-4.135,16.988-4.135
		c6.748,0,12.525,1.408,17.33,4.239C144.687,120.658,147.088,123.736,147.088,127.103z"/>
	<g opacity="0.81">
		
			<radialGradient id="SVGID_14_" cx="220.5396" cy="228.3276" r="45.2957" gradientTransform="matrix(3.569 0.0811 -0.0492 1.4704 -659.2549 -210.5385)" gradientUnits="userSpaceOnUse">
			<stop  offset="0" style="stop-color:#638A98"/>
			<stop  offset="0.1862" style="stop-color:#5D899F;stop-opacity:0.933"/>
			<stop  offset="0.5254" style="stop-color:#4B88B1;stop-opacity:0.8109"/>
			<stop  offset="0.7444" style="stop-color:#3887BF;stop-opacity:0.732"/>
			<stop  offset="1" style="stop-color:#406EB5;stop-opacity:0.64"/>
		</radialGradient>
		<path fill="url(#SVGID_14_)" d="M178.426,231.782h-20.889v61.807h-27.763v-61.807h-15.02v61.807h-27.11v-61.807H66.426v-61.978
			c0-4.086,3.487-8.391,10.437-12.884c6.974-4.51,14.801-7.36,23.514-8.568c11.112-1.545,18.511-2.335,22.203-2.335
			c10.455,0,20.359,1.381,29.708,4.148c11.342,3.243,19.15,7.807,23.514,13.699c1.751,2.281,2.625,4.123,2.625,5.577V231.782z
			 M147.088,127.103c0,3.852-2.472,7.035-7.351,9.546c-4.887,2.522-10.635,3.794-17.158,3.794c-6.973,0-12.796-1.334-17.449-3.975
			c-4.702-2.652-7.026-5.698-7.026-9.185c0-3.604,2.491-6.784,7.487-9.56c5.02-2.756,10.681-4.135,16.988-4.135
			c6.748,0,12.525,1.408,17.33,4.239C144.687,120.658,147.088,123.736,147.088,127.103z"/>
	</g>
	<g opacity="0.7">
		
			<linearGradient id="SVGID_15_" gradientUnits="userSpaceOnUse" x1="222.1636" y1="218.3013" x2="222.1636" y2="279.4849" gradientTransform="matrix(3.5704 0 0 2.942 -670.7891 -528.6484)">
			<stop  offset="0" style="stop-color:#FFFFFF;stop-opacity:0.77"/>
			<stop  offset="0.45" style="stop-color:#FFFFFF;stop-opacity:0"/>
			<stop  offset="0.4668" style="stop-color:#DEDEE5;stop-opacity:0.0049"/>
			<stop  offset="0.4912" style="stop-color:#B5B5C5;stop-opacity:0.012"/>
			<stop  offset="0.5186" style="stop-color:#908FA8;stop-opacity:0.02"/>
			<stop  offset="0.5484" style="stop-color:#6F6F8F;stop-opacity:0.0286"/>
			<stop  offset="0.5813" style="stop-color:#54537A;stop-opacity:0.0382"/>
			<stop  offset="0.6185" style="stop-color:#3E3D69;stop-opacity:0.049"/>
			<stop  offset="0.6619" style="stop-color:#2D2C5C;stop-opacity:0.0617"/>
			<stop  offset="0.7156" style="stop-color:#222153;stop-opacity:0.0773"/>
			<stop  offset="0.7909" style="stop-color:#1B1A4D;stop-opacity:0.0992"/>
			<stop  offset="1" style="stop-color:#19184C;stop-opacity:0.16"/>
		</linearGradient>
		<path fill="url(#SVGID_15_)" d="M178.426,231.782h-20.889v61.807h-27.763v-61.807h-15.02v61.807h-27.11v-61.807H66.426v-61.978
			c0-4.086,3.487-8.391,10.437-12.884c6.974-4.51,14.801-7.36,23.514-8.568c11.112-1.545,18.511-2.335,22.203-2.335
			c10.455,0,20.359,1.381,29.708,4.148c11.342,3.243,19.15,7.807,23.514,13.699c1.751,2.281,2.625,4.123,2.625,5.577V231.782z
			 M147.088,127.103c0,3.852-2.472,7.035-7.351,9.546c-4.887,2.522-10.635,3.794-17.158,3.794c-6.973,0-12.796-1.334-17.449-3.975
			c-4.702-2.652-7.026-5.698-7.026-9.185c0-3.604,2.491-6.784,7.487-9.56c5.02-2.756,10.681-4.135,16.988-4.135
			c6.748,0,12.525,1.408,17.33,4.239C144.687,120.658,147.088,123.736,147.088,127.103z"/>
	</g>
	<g opacity="0.58">
		<path fill="#26286A" d="M178.426,231.157c-6.963,0-13.926,0-20.889,0c-0.008,0-0.006,0.593-0.006,0.625
			c0,11.462,0,22.924,0,34.386c0,7.124,0,14.247,0,21.371c0,1.771,0,3.541,0,5.312c0,1.197,0.013,0.113-0.041,0.113
			c-0.863,0-1.728,0-2.591,0c-7.282,0-14.564,0-21.847,0c-1.32,0-3.272-0.063-3.272,0.292c0-1.703,0-3.405,0-5.107
			c0-14.858,0-29.717,0-44.575c0-3.931,0-7.86,0-11.791c0-0.032,0.002-0.625-0.006-0.625c-5.007,0-10.013,0-15.02,0
			c-0.007,0-0.006,0.593-0.006,0.625c0,11.462,0,22.924,0,34.386c0,7.124,0,14.247,0,21.371c0,1.771,0,3.541,0,5.312
			c0,1.197,0.013,0.113-0.042,0.113c-0.882,0-1.764,0-2.646,0c-7.241,0-14.482,0-21.723,0c-0.835,0-1.671,0-2.507,0
			c-0.3,0-0.181,1.067-0.181,0.108c0-1.845,0-3.688,0-5.533c0-14.92,0-29.84,0-44.759c0-3.666,0-7.332,0-10.998
			c0-0.032,0.001-0.625-0.006-0.625c-6.206,0-12.411,0-18.617,0c-0.847,0-1.694,0-2.541,0c-0.072,0-0.055,1.083-0.055-0.115
			c0-1.988,0-3.976,0-5.964c0-15.007,0-30.014,0-45.021c0-3.977-0.687-8.643,0.55-12.491c1.726-5.368,8.204-9.098,12.715-11.736
			c6.331-3.702,13.473-5.756,20.679-6.853c12.302-1.873,24.195-2.934,36.597-1.417c12.353,1.511,26.305,5.062,35.796,13.554
			c4.839,4.329,5.651,7.893,5.651,13.708c0,7.274,0,14.547,0,21.821c0,11.713,0,23.427,0,35.14c0,0.707,0.012,0.707,0.012,0
			c0-11.384,0-22.767,0-34.15c0-9.395,1.061-19.465-0.006-28.815c-1.25-10.953-17.454-16.703-26.139-19.276
			c-12.08-3.581-24.85-4.87-37.384-3.627c-14.111,1.399-27.57,3.365-39.583,11.416c-4.896,3.281-8.901,7.424-8.901,13.476
			c0,20.326,0,40.651,0,60.978c0,0.032-0.001,0.625,0.006,0.625c7.053,0,14.105,0,21.158,0c0.077,0,0.055-1.023,0.055,0.373
			c0,1.103,0,2.204,0,3.307c0,3.906,0,7.813,0,11.72c0,15.261,0,30.521,0,45.782c0,0.032-0.001,0.625,0.006,0.625
			c9.037,0,18.074,0,27.11,0c0.007,0,0.006-0.593,0.006-0.625c0-11.462,0-22.924,0-34.386c0-7.124,0-14.247,0-21.371
			c0-1.771,0-3.541,0-5.312c0-1.197-0.024-0.113,0.076-0.113c1.368,0,2.736,0,4.105,0c3.377,0,6.755,0,10.132,0
			c0.759,0,0.694-0.821,0.694-0.292c0,0.686,0,1.371,0,2.057c0,6.074,0,12.149,0,18.225c0,13.398,0,26.796,0,40.194
			c0,0.333,0,0.665,0,0.998c0,0.032-0.002,0.625,0.006,0.625c9.254,0,18.509,0,27.763,0c0.008,0,0.006-0.593,0.006-0.625
			c0-15.261,0-30.521,0-45.782c0-3.723,0-7.444,0-11.166c0-1.188,0-2.377,0-3.565c0-1.547-0.026-0.668,0.054-0.668
			c6.943,0,13.886,0,20.829,0C178.436,232.407,178.436,231.157,178.426,231.157z"/>
		<path fill="#26286A" d="M147.086,126.5c-0.706,10.821-16.128,13.167-24.507,13.317c-8.264,0.148-23.688-2.683-24.476-13.159
			c0,0.409,0.001,0.818,0.001,1.228c0.738-10.547,16.217-13.506,24.474-13.672c8.232-0.165,23.684,3.2,24.509,13.514
			c-0.033-0.413,0.033-0.835,0-1.25c-0.476-5.946-6.365-9.207-11.327-11.273c-6.143-2.559-13.326-2.658-19.807-1.693
			c-7.16,1.065-17.88,5.38-17.856,13.938c0.027,9.753,13.528,12.861,21.091,13.507c8.956,0.765,27.13-1.433,27.901-13.251
			C147.114,127.33,147.067,126.793,147.086,126.5z"/>
	</g>
</g>
<g>
	<g>
		<path fill="#710F12" d="M374.584,378.354c3.533-0.928,6.25-1.748,8.107-2.451l-42.055-62.794H286.83l-41.521,62.794l8.969,1.912
			l37.007-44.719l5.602,20.174l-38.121,42.985h38.121l12.924,58.753h11.217l10.372-58.753h37.293l-37.6-42.985l5.625-20.174
			L374.584,378.354z M296.059,294.482c4.288,2.919,9.803,4.382,16.545,4.382c5.78,0,11.027-1.375,15.713-4.121
			c4.666-2.741,7-6.173,7-10.271c0-3.868-2.146-7.255-6.455-10.171c-4.289-2.928-9.716-4.384-16.258-4.384
			c-6.742,0-12.257,1.457-16.545,4.384c-4.287,2.916-6.453,6.303-6.453,10.171C289.605,288.217,291.771,291.549,296.059,294.482z"/>
	</g>
	<g>
		
			<linearGradient id="SVGID_16_" gradientUnits="userSpaceOnUse" x1="320.0977" y1="371.1929" x2="320.0977" y2="345.0493" gradientTransform="matrix(11.317 0 0 7.0798 -3308.5547 -2172.9609)">
			<stop  offset="0" style="stop-color:#292E78;stop-opacity:0.22"/>
			<stop  offset="0.5" style="stop-color:#20215B"/>
			<stop  offset="0.5313" style="stop-color:#243864;stop-opacity:0.9455"/>
			<stop  offset="0.5773" style="stop-color:#2C5371;stop-opacity:0.8655"/>
			<stop  offset="0.6259" style="stop-color:#366B7C;stop-opacity:0.7809"/>
			<stop  offset="0.6762" style="stop-color:#3E8286;stop-opacity:0.6934"/>
			<stop  offset="0.7287" style="stop-color:#47968E;stop-opacity:0.6021"/>
			<stop  offset="0.7841" style="stop-color:#4DA694;stop-opacity:0.5056"/>
			<stop  offset="0.8438" style="stop-color:#53B298;stop-opacity:0.4018"/>
			<stop  offset="0.9107" style="stop-color:#56BC9C;stop-opacity:0.2854"/>
			<stop  offset="1" style="stop-color:#56C09D;stop-opacity:0.13"/>
		</linearGradient>
		<path fill="url(#SVGID_16_)" d="M374.584,378.354c3.533-0.928,6.25-1.748,8.107-2.451l-42.055-62.794H286.83l-41.521,62.794
			l8.969,1.912l37.007-44.719l5.602,20.174l-38.121,42.985h38.121l12.924,58.753h11.217l10.372-58.753h37.293l-37.6-42.985
			l5.625-20.174L374.584,378.354z M296.059,294.482c4.288,2.919,9.803,4.382,16.545,4.382c5.78,0,11.027-1.375,15.713-4.121
			c4.666-2.741,7-6.173,7-10.271c0-3.868-2.146-7.255-6.455-10.171c-4.289-2.928-9.716-4.384-16.258-4.384
			c-6.742,0-12.257,1.457-16.545,4.384c-4.287,2.916-6.453,6.303-6.453,10.171C289.605,288.217,291.771,291.549,296.059,294.482z"/>
	</g>
	<g opacity="0.81">
		
			<radialGradient id="SVGID_17_" cx="319.4688" cy="349.333" r="19.1758" gradientTransform="matrix(11.3127 0.1951 -0.156 3.5386 -3252.6965 -998.2272)" gradientUnits="userSpaceOnUse">
			<stop  offset="0" style="stop-color:#638A98"/>
			<stop  offset="0.1862" style="stop-color:#5D899F;stop-opacity:0.933"/>
			<stop  offset="0.5254" style="stop-color:#4B88B1;stop-opacity:0.8109"/>
			<stop  offset="0.7444" style="stop-color:#3887BF;stop-opacity:0.732"/>
			<stop  offset="1" style="stop-color:#406EB5;stop-opacity:0.64"/>
		</radialGradient>
		<path fill="url(#SVGID_17_)" d="M374.584,378.354c3.533-0.928,6.25-1.748,8.107-2.451l-42.055-62.794H286.83l-41.521,62.794
			l8.969,1.912l37.007-44.719l5.602,20.174l-38.121,42.985h38.121l12.924,58.753h11.217l10.372-58.753h37.293l-37.6-42.985
			l5.625-20.174L374.584,378.354z M296.059,294.482c4.288,2.919,9.803,4.382,16.545,4.382c5.78,0,11.027-1.375,15.713-4.121
			c4.666-2.741,7-6.173,7-10.271c0-3.868-2.146-7.255-6.455-10.171c-4.289-2.928-9.716-4.384-16.258-4.384
			c-6.742,0-12.257,1.457-16.545,4.384c-4.287,2.916-6.453,6.303-6.453,10.171C289.605,288.217,291.771,291.549,296.059,294.482z"/>
	</g>
	<g opacity="0.7">
		
			<linearGradient id="SVGID_18_" gradientUnits="userSpaceOnUse" x1="320.0996" y1="345.0493" x2="320.0996" y2="371.1929" gradientTransform="matrix(11.317 0 0 7.0798 -3308.5547 -2172.9609)">
			<stop  offset="0" style="stop-color:#FFFFFF;stop-opacity:0.77"/>
			<stop  offset="0.45" style="stop-color:#FFFFFF;stop-opacity:0"/>
			<stop  offset="0.4668" style="stop-color:#DEDEE5;stop-opacity:0.0049"/>
			<stop  offset="0.4912" style="stop-color:#B5B5C5;stop-opacity:0.012"/>
			<stop  offset="0.5186" style="stop-color:#908FA8;stop-opacity:0.02"/>
			<stop  offset="0.5484" style="stop-color:#6F6F8F;stop-opacity:0.0286"/>
			<stop  offset="0.5813" style="stop-color:#54537A;stop-opacity:0.0382"/>
			<stop  offset="0.6185" style="stop-color:#3E3D69;stop-opacity:0.049"/>
			<stop  offset="0.6619" style="stop-color:#2D2C5C;stop-opacity:0.0617"/>
			<stop  offset="0.7156" style="stop-color:#222153;stop-opacity:0.0773"/>
			<stop  offset="0.7909" style="stop-color:#1B1A4D;stop-opacity:0.0992"/>
			<stop  offset="1" style="stop-color:#19184C;stop-opacity:0.16"/>
		</linearGradient>
		<path fill="url(#SVGID_18_)" d="M374.584,378.354c3.533-0.928,6.25-1.748,8.107-2.451l-42.055-62.794H286.83l-41.521,62.794
			l8.969,1.912l37.007-44.719l5.602,20.174l-38.121,42.985h38.121l12.924,58.753h11.217l10.372-58.753h37.293l-37.6-42.985
			l5.625-20.174L374.584,378.354z M296.059,294.482c4.288,2.919,9.803,4.382,16.545,4.382c5.78,0,11.027-1.375,15.713-4.121
			c4.666-2.741,7-6.173,7-10.271c0-3.868-2.146-7.255-6.455-10.171c-4.289-2.928-9.716-4.384-16.258-4.384
			c-6.742,0-12.257,1.457-16.545,4.384c-4.287,2.916-6.453,6.303-6.453,10.171C289.605,288.217,291.771,291.549,296.059,294.482z"/>
	</g>
	<g opacity="0.58">
		<g>
			<path fill="#26286A" d="M374.584,378.979c2.731-0.731,5.447-1.49,8.107-2.451c0.036-0.013,0.058-1.165,0-1.25
				c-13.436-20.062-26.872-40.124-40.308-60.186c-1.68-2.508-1.452-2.608-4.454-2.608c-6.577,0-13.154,0-19.73,0
				c-7.717,0-15.432,0-23.148,0c-1.394,0-7.607-0.929-8.458,0.358c-13.761,20.812-27.523,41.624-41.285,62.436
				c-0.059,0.089-0.013,1.247,0,1.25c1.19,0.254,8.445,2.544,9.025,1.844c1.458-1.762,2.916-3.523,4.374-5.285
				c6.557-7.924,13.114-15.847,19.671-23.771c4.283-5.175,8.566-10.351,12.849-15.526c-0.48,0.58,2.3,8.01,2.595,9.074
				c1.021,3.677,2.042,7.354,3.063,11.031c0-0.417,0-0.833,0-1.25c-12.707,14.329-25.414,28.657-38.121,42.985
				c-0.08,0.09,0.041,1.25,0,1.25c12.048,0,24.097,0,36.146,0c0.592,0,1.897-0.358,2.048,0.331c0.371,1.686,0.741,3.369,1.112,5.055
				c1.511,6.869,3.022,13.739,4.533,20.608c1.661,7.552,3.322,15.104,4.983,22.655c0.165,0.749,1.77,10.104,2.335,10.104
				c3.178,0,6.355,0,9.534,0c1.825,0,1.562,0.048,1.86-1.646c1.011-5.725,2.021-11.449,3.032-17.174
				c2.35-13.312,4.7-26.623,7.05-39.934c0.185-1.047,33.656,0,37.293,0c-0.04,0,0.079-1.159,0-1.25
				c-12.533-14.329-25.066-28.657-37.6-42.985c0,0.417,0,0.833,0,1.25c1.854-6.649,3.708-13.298,5.562-19.947
				c-0.202,0.726,7.931,9.176,8.949,10.394C355.263,355.887,364.924,367.433,374.584,378.979c-0.201-0.24,0.209-1,0-1.25
				c-7.476-8.934-14.95-17.869-22.426-26.803c-4.309-5.149-8.617-10.298-12.925-15.448c-0.82-0.98-1.641-1.96-2.46-2.94
				c0.215,0.257-1.419,4.818-1.594,5.445c-1.001,3.59-2.002,7.181-3.003,10.771c-0.364,1.304-1.082,2.827-1.091,4.199
				c-0.012,2.061,2.56,3.86,3.833,5.315c9.692,11.081,19.385,22.162,29.078,33.243c1.564,1.789,3.13,3.578,4.694,5.367
				c0-0.417,0-0.833,0-1.25c-12.033,0-24.067,0-36.101,0c-2.406,0-2.029,4.74-2.384,6.75c-1.274,7.215-2.548,14.432-3.822,21.647
				c-1.309,7.417-2.618,14.834-3.928,22.252c-0.38,2.152-0.76,4.306-1.141,6.458c-0.299,1.693-0.035,1.646-1.86,1.646
				c-3.179,0-6.356,0-9.534,0c-0.318,0-0.66-2.492-0.727-2.796c-1.354-6.148-2.706-12.296-4.058-18.444
				c-1.896-8.622-3.793-17.243-5.689-25.865c-0.192-0.876-2.035-11.648-2.695-11.648c-12.663,0-25.326,0-37.988,0
				c0,0.417,0,0.833,0,1.25c7.767-8.758,15.534-17.516,23.301-26.274c4.282-4.828,8.563-9.656,12.845-14.483
				c0.917-1.034,2.391-1.981,1.959-3.536c-1.689-6.084-3.379-12.169-5.068-18.254c-0.29-1.043-0.123-2.338-1.01-1.267
				c-1.313,1.586-2.625,3.172-3.938,4.758c-9.382,11.337-18.764,22.674-28.146,34.012c-1.435,1.733-2.87,3.467-4.305,5.201
				c-0.697,0.843-7.781-1.479-9.095-1.76c0,0.417,0,0.833,0,1.25c13.333-20.164,26.666-40.328,40-60.492
				c1.673-2.53,1.596-2.302,4.715-2.302c6.744,0,13.488,0,20.231,0c7.631,0,15.261,0,22.89,0c1.565,0,6.85-0.961,7.83,0.503
				c13.906,20.764,27.812,41.527,41.718,62.291c0-0.417,0-0.833,0-1.25c-2.66,0.961-5.376,1.72-8.107,2.451
				C374.471,377.759,374.68,378.954,374.584,378.979z"/>
			<path fill="#26286A" d="M296.059,295.107c10.661,6.794,27.802,6.133,36.737-3.357c5.54-5.884,1.465-14.133-3.935-18.073
				c-10.123-7.386-27.726-5.786-36.381,3.073C286.613,282.755,290.347,290.909,296.059,295.107c-0.192-0.142,0.205-1.1,0-1.25
				c-4.157-3.055-7.585-6.908-5.733-12.468c1.466-4.399,6.427-7.244,10.43-8.901c8.698-3.599,20.225-2.575,28.106,2.438
				c4.266,2.713,7.447,7.198,5.825,12.429c-1.419,4.577-6.691,7.185-10.738,8.864c-8.666,3.596-20.001,2.665-27.89-2.362
				C296.241,293.973,295.863,294.982,296.059,295.107z"/>
		</g>
	</g>
</g>
<g>
	<path fill="#710F12" d="M508.901,372.379v77.537h-60.257v-77.537h-25.872v-26.511c0-8.877,5.466-16.432,16.409-22.674
		c10.932-6.243,24.079-9.36,39.441-9.36c15.562,0,28.809,3.118,39.764,9.36c10.933,6.242,16.386,13.796,16.386,22.674v26.511
		H508.901z M503.398,303.935c-6.834,3.841-15.091,5.752-24.775,5.752c-9.66,0-17.878-1.911-24.613-5.752
		c-6.736-3.836-10.097-8.516-10.097-14.034s3.36-10.233,10.097-14.14c6.735-3.891,14.953-5.844,24.613-5.844
		c9.685,0,17.941,1.954,24.775,5.844c6.835,3.907,10.246,8.623,10.246,14.14S510.233,300.099,503.398,303.935z"/>
	
		<linearGradient id="SVGID_19_" gradientUnits="userSpaceOnUse" x1="257.125" y1="263.6479" x2="257.125" y2="198.8965" gradientTransform="matrix(2.914 0 0 2.7798 -270.4785 -282.9824)">
		<stop  offset="0" style="stop-color:#292E78;stop-opacity:0.22"/>
		<stop  offset="0.5" style="stop-color:#20215B"/>
		<stop  offset="0.5313" style="stop-color:#243864;stop-opacity:0.9455"/>
		<stop  offset="0.5773" style="stop-color:#2C5371;stop-opacity:0.8655"/>
		<stop  offset="0.6259" style="stop-color:#366B7C;stop-opacity:0.7809"/>
		<stop  offset="0.6762" style="stop-color:#3E8286;stop-opacity:0.6934"/>
		<stop  offset="0.7287" style="stop-color:#47968E;stop-opacity:0.6021"/>
		<stop  offset="0.7841" style="stop-color:#4DA694;stop-opacity:0.5056"/>
		<stop  offset="0.8438" style="stop-color:#53B298;stop-opacity:0.4018"/>
		<stop  offset="0.9107" style="stop-color:#56BC9C;stop-opacity:0.2854"/>
		<stop  offset="1" style="stop-color:#56C09D;stop-opacity:0.13"/>
	</linearGradient>
	<path fill="url(#SVGID_19_)" d="M508.901,372.379v77.537h-60.257v-77.537h-25.872v-26.511c0-8.877,5.466-16.432,16.409-22.674
		c10.932-6.243,24.079-9.36,39.441-9.36c15.562,0,28.809,3.118,39.764,9.36c10.933,6.242,16.386,13.796,16.386,22.674v26.511
		H508.901z M503.398,303.935c-6.834,3.841-15.091,5.752-24.775,5.752c-9.66,0-17.878-1.911-24.613-5.752
		c-6.736-3.836-10.097-8.516-10.097-14.034s3.36-10.233,10.097-14.14c6.735-3.891,14.953-5.844,24.613-5.844
		c9.685,0,17.941,1.954,24.775,5.844c6.835,3.907,10.246,8.623,10.246,14.14S510.233,300.099,503.398,303.935z"/>
	<g opacity="0.81">
		
			<radialGradient id="SVGID_20_" cx="255.1348" cy="209.5068" r="48.7688" gradientTransform="matrix(2.9129 0.0766 -0.0402 1.3894 -261.7824 -11.223)" gradientUnits="userSpaceOnUse">
			<stop  offset="0" style="stop-color:#638A98"/>
			<stop  offset="0.1862" style="stop-color:#5D899F;stop-opacity:0.933"/>
			<stop  offset="0.5254" style="stop-color:#4B88B1;stop-opacity:0.8109"/>
			<stop  offset="0.7444" style="stop-color:#3887BF;stop-opacity:0.732"/>
			<stop  offset="1" style="stop-color:#406EB5;stop-opacity:0.64"/>
		</radialGradient>
		<path fill="url(#SVGID_20_)" d="M508.901,372.379v77.537h-60.257v-77.537h-25.872v-26.511c0-8.877,5.466-16.432,16.409-22.674
			c10.932-6.243,24.079-9.36,39.441-9.36c15.562,0,28.809,3.118,39.764,9.36c10.933,6.242,16.386,13.796,16.386,22.674v26.511
			H508.901z M503.398,303.935c-6.834,3.841-15.091,5.752-24.775,5.752c-9.66,0-17.878-1.911-24.613-5.752
			c-6.736-3.836-10.097-8.516-10.097-14.034s3.36-10.233,10.097-14.14c6.735-3.891,14.953-5.844,24.613-5.844
			c9.685,0,17.941,1.954,24.775,5.844c6.835,3.907,10.246,8.623,10.246,14.14S510.233,300.099,503.398,303.935z"/>
	</g>
	<g opacity="0.7">
		
			<linearGradient id="SVGID_21_" gradientUnits="userSpaceOnUse" x1="257.1245" y1="198.897" x2="257.1245" y2="263.6489" gradientTransform="matrix(2.914 0 0 2.7798 -270.4785 -282.9824)">
			<stop  offset="0" style="stop-color:#FFFFFF;stop-opacity:0.77"/>
			<stop  offset="0.45" style="stop-color:#FFFFFF;stop-opacity:0"/>
			<stop  offset="0.4668" style="stop-color:#DEDEE5;stop-opacity:0.0049"/>
			<stop  offset="0.4912" style="stop-color:#B5B5C5;stop-opacity:0.012"/>
			<stop  offset="0.5186" style="stop-color:#908FA8;stop-opacity:0.02"/>
			<stop  offset="0.5484" style="stop-color:#6F6F8F;stop-opacity:0.0286"/>
			<stop  offset="0.5813" style="stop-color:#54537A;stop-opacity:0.0382"/>
			<stop  offset="0.6185" style="stop-color:#3E3D69;stop-opacity:0.049"/>
			<stop  offset="0.6619" style="stop-color:#2D2C5C;stop-opacity:0.0617"/>
			<stop  offset="0.7156" style="stop-color:#222153;stop-opacity:0.0773"/>
			<stop  offset="0.7909" style="stop-color:#1B1A4D;stop-opacity:0.0992"/>
			<stop  offset="1" style="stop-color:#19184C;stop-opacity:0.16"/>
		</linearGradient>
		<path fill="url(#SVGID_21_)" d="M508.901,372.379v77.537h-60.257v-77.537h-25.872v-26.511c0-8.877,5.466-16.432,16.409-22.674
			c10.932-6.243,24.079-9.36,39.441-9.36c15.562,0,28.809,3.118,39.764,9.36c10.933,6.242,16.386,13.796,16.386,22.674v26.511
			H508.901z M503.398,303.935c-6.834,3.841-15.091,5.752-24.775,5.752c-9.66,0-17.878-1.911-24.613-5.752
			c-6.736-3.836-10.097-8.516-10.097-14.034s3.36-10.233,10.097-14.14c6.735-3.891,14.953-5.844,24.613-5.844
			c9.685,0,17.941,1.954,24.775,5.844c6.835,3.907,10.246,8.623,10.246,14.14S510.233,300.099,503.398,303.935z"/>
	</g>
	<g opacity="0.49">
		<path d="M449.501,449.063c0-25.846,0-51.691,0-77.538c0-0.013,0.001-0.25-0.003-0.25c-6.088,0-12.176,0-18.264,0
			c-2.47,0-4.939,0-7.41,0c-0.414,0-0.195-4.517-0.195-5.542c0-6.557,0-13.113,0-19.669c0-12.267,11.353-19.971,21.316-24.59
			c23.598-10.941,57.302-9.231,78.499,6.311c7.795,5.715,10.471,13.021,10.471,22.279c0,6.902,0,13.805,0,20.707
			c0,0.993-0.955,0.504-2.198,0.504c-3.082,0-6.163,0-9.245,0c-4.808,0-9.616,0-14.425,0c-0.003,0-0.003,0.237-0.003,0.25
			c0,24.367,0,48.735,0,73.102c0,1.34,0,2.682,0,4.021c0,0.445-0.822,0.164-1.709,0.164c-5.918,0-11.836,0-17.754,0
			c-12.911,0-25.82,0-38.73,0c-0.117,0-0.235,0-0.353,0c-0.004,0-0.004,0.5,0,0.5c19.517,0,39.032,0,58.549,0
			c0.003,0,0.003-0.238,0.003-0.25c0-18.85,0-37.697,0-56.546c0-6.991,0-13.982,0-20.975c0,0.467,23.232,0.233,25.868,0.233
			c0.003,0,0.003-0.237,0.003-0.25c0-9.026,0.234-18.083-0.039-27.105c-0.319-10.575-10.078-17.727-18.55-22.147
			c-11.237-5.864-24.181-7.731-36.709-7.833c-12.039-0.098-24.1,2.094-35.047,7.17c-9.461,4.386-18.895,11.728-19.912,22.802
			c-0.819,8.905-0.039,18.173-0.039,27.114c0,0.013-0.001,0.25,0.002,0.25c8.607,0,17.215,0,25.821,0
			c0.101,0,0.048,18.135,0.048,19.853c0,19.144,0,38.291,0,57.435C449.496,449.346,449.501,449.346,449.501,449.063z"/>
		<path d="M478.623,308.583c-11.519-0.145-30.215-3.212-33.625-16.596c-2.006-7.872,6.086-13.614,11.98-16.573
			c6.653-3.34,14.297-4.297,21.645-4.392c11.565-0.148,30.518,3.559,33.933,16.792c2.044,7.918-6.233,13.552-12.145,16.443
			C493.689,307.545,486.014,308.489,478.623,308.583c-0.006,0-0.002,0.5,0,0.5c11.349-0.143,34.17-3.859,34.17-19.181
			c0-15.355-22.75-19.233-34.17-19.38c-11.441-0.146-33.857,4.257-33.857,19.38c0,15.3,22.486,19.038,33.857,19.181
			C478.625,309.083,478.629,308.583,478.623,308.583z"/>
	</g>
	<g opacity="0.58">
		<path fill="#26286A" d="M508.896,372.379c0,24.367,0,48.734,0,73.101c0,1.342,0,2.682,0,4.023c0,0.834,0.063-0.213-0.08-0.213
			c-0.521,0-1.044,0-1.565,0c-5.767,0-11.532,0-17.298,0c-13.431,0-26.862,0-40.294,0c-1.357,0-1.008,1.072-1.008-0.68
			c0-2.381,0-4.764,0-7.145c0-8.947,0-17.896,0-26.844c0-14.082,0-28.163,0-42.244c0-0.032,0.001-0.625-0.006-0.625
			c-6.088,0-12.176,0-18.264,0c-2.471,0-4.941,0-7.411,0c-0.304,0-0.19,0.961-0.19-0.514c0-1.529,0-3.059,0-4.588
			c0-6.786,0-13.573,0-20.359c0-11.494,9.809-19.059,19.068-23.912c23.051-12.079,55.699-10.854,77.996,2.298
			c8.518,5.024,14.923,12.594,14.923,22.8c0,7.16,0,14.318,0,21.479c0,0.893,0,1.786,0,2.68c0,1.161,0.238,0.117-0.43,0.117
			c-2.701,0-5.401,0-8.102,0c-5.778,0-11.556,0-17.334,0c-0.01,0-0.01,1.25,0,1.25c8.624,0,17.247,0,25.871,0
			c0.008,0,0.006-0.593,0.006-0.625c0-9.431,0.227-18.888-0.038-28.316c-0.292-10.401-9.313-17.591-17.628-22.2
			c-11.158-6.186-24.096-8.343-36.704-8.64c-12.764-0.3-25.583,1.838-37.195,7.234c-9.784,4.546-19.424,12.125-20.406,23.584
			c-0.8,9.326-0.041,18.979-0.041,28.338c0,0.032,0,0.625,0.007,0.625c8.606,0,17.214,0,25.821,0c0.066,0,0.044-0.883,0.044,0.681
			c0,1.389,0,2.776,0,4.165c0,4.877,0,9.754,0,14.632c0,19.145,0,38.29,0,57.434c0,0.033-0.001,0.625,0.007,0.625
			c20.086,0,40.171,0,60.257,0c0.008,0,0.006-0.592,0.006-0.625c0-25.846,0-51.691,0-77.537
			C508.907,371.672,508.896,371.672,508.896,372.379z"/>
		<path fill="#26286A" d="M503.398,303.31c-13.168,7.077-30.112,7.602-44.061,2.52c-5.975-2.178-11.995-6.027-14.602-12.029
			c-3.277-7.548,3.549-13.92,9.273-17.414c12.578-7.679,30.524-7.495,43.996-2.555c6.036,2.214,12.146,6.104,14.803,12.162
			C516.14,293.584,509.176,299.895,503.398,303.31c-0.189,0.112,0.176,1.146,0,1.25c10.115-5.98,14.274-17.041,5.021-25.877
			c-13.353-12.75-39.224-11.931-54.409-3.547c-10.274,5.672-13.848,17.398-4.947,25.929c13.292,12.74,39.186,11.637,54.336,3.495
			C503.579,304.463,503.232,303.399,503.398,303.31z"/>
	</g>
</g>
<g>
	<g>
		<path fill="#710F12" d="M188.701,531.301c3.533-0.928,6.25-1.748,8.107-2.451l-42.055-62.793h-53.807L59.426,528.85l8.969,1.912
			l37.007-44.719l5.602,20.174l-38.121,42.986h38.121l12.924,58.754h11.217l10.372-58.754h37.293l-37.6-42.986l5.625-20.174
			L188.701,531.301z M110.176,447.43c4.288,2.919,9.803,4.382,16.545,4.382c5.78,0,11.027-1.376,15.713-4.12
			c4.666-2.742,7-6.174,7-10.271c0-3.869-2.146-7.256-6.455-10.172c-4.289-2.928-9.716-4.384-16.258-4.384
			c-6.742,0-12.257,1.456-16.545,4.384c-4.287,2.916-6.453,6.303-6.453,10.172C103.723,441.164,105.889,444.496,110.176,447.43z"/>
	</g>
	<g>
		
			<linearGradient id="SVGID_22_" gradientUnits="userSpaceOnUse" x1="304.4063" y1="390.3281" x2="304.4063" y2="364.1846" gradientTransform="matrix(11.317 0 0 7.0798 -3316.8359 -2155.4844)">
			<stop  offset="0" style="stop-color:#292E78;stop-opacity:0.22"/>
			<stop  offset="0.5" style="stop-color:#20215B"/>
			<stop  offset="0.5313" style="stop-color:#243864;stop-opacity:0.9455"/>
			<stop  offset="0.5773" style="stop-color:#2C5371;stop-opacity:0.8655"/>
			<stop  offset="0.6259" style="stop-color:#366B7C;stop-opacity:0.7809"/>
			<stop  offset="0.6762" style="stop-color:#3E8286;stop-opacity:0.6934"/>
			<stop  offset="0.7287" style="stop-color:#47968E;stop-opacity:0.6021"/>
			<stop  offset="0.7841" style="stop-color:#4DA694;stop-opacity:0.5056"/>
			<stop  offset="0.8438" style="stop-color:#53B298;stop-opacity:0.4018"/>
			<stop  offset="0.9107" style="stop-color:#56BC9C;stop-opacity:0.2854"/>
			<stop  offset="1" style="stop-color:#56C09D;stop-opacity:0.13"/>
		</linearGradient>
		<path fill="url(#SVGID_22_)" d="M188.701,531.301c3.533-0.928,6.25-1.748,8.107-2.451l-42.055-62.793h-53.807L59.426,528.85
			l8.969,1.912l37.007-44.719l5.602,20.174l-38.121,42.986h38.121l12.924,58.754h11.217l10.372-58.754h37.293l-37.6-42.986
			l5.625-20.174L188.701,531.301z M110.176,447.43c4.288,2.919,9.803,4.382,16.545,4.382c5.78,0,11.027-1.376,15.713-4.12
			c4.666-2.742,7-6.174,7-10.271c0-3.869-2.146-7.256-6.455-10.172c-4.289-2.928-9.716-4.384-16.258-4.384
			c-6.742,0-12.257,1.456-16.545,4.384c-4.287,2.916-6.453,6.303-6.453,10.172C103.723,441.164,105.889,444.496,110.176,447.43z"/>
	</g>
	<g opacity="0.81">
		
			<radialGradient id="SVGID_23_" cx="303.7778" cy="368.4683" r="19.1754" gradientTransform="matrix(11.3127 0.1951 -0.156 3.5386 -3258.0608 -909.926)" gradientUnits="userSpaceOnUse">
			<stop  offset="0" style="stop-color:#638A98"/>
			<stop  offset="0.1862" style="stop-color:#5D899F;stop-opacity:0.933"/>
			<stop  offset="0.5254" style="stop-color:#4B88B1;stop-opacity:0.8109"/>
			<stop  offset="0.7444" style="stop-color:#3887BF;stop-opacity:0.732"/>
			<stop  offset="1" style="stop-color:#406EB5;stop-opacity:0.64"/>
		</radialGradient>
		<path fill="url(#SVGID_23_)" d="M188.701,531.301c3.533-0.928,6.25-1.748,8.107-2.451l-42.055-62.793h-53.807L59.426,528.85
			l8.969,1.912l37.007-44.719l5.602,20.174l-38.121,42.986h38.121l12.924,58.754h11.217l10.372-58.754h37.293l-37.6-42.986
			l5.625-20.174L188.701,531.301z M110.176,447.43c4.288,2.919,9.803,4.382,16.545,4.382c5.78,0,11.027-1.376,15.713-4.12
			c4.666-2.742,7-6.174,7-10.271c0-3.869-2.146-7.256-6.455-10.172c-4.289-2.928-9.716-4.384-16.258-4.384
			c-6.742,0-12.257,1.456-16.545,4.384c-4.287,2.916-6.453,6.303-6.453,10.172C103.723,441.164,105.889,444.496,110.176,447.43z"/>
	</g>
	<g opacity="0.7">
		
			<linearGradient id="SVGID_24_" gradientUnits="userSpaceOnUse" x1="304.4063" y1="364.1846" x2="304.4063" y2="390.3281" gradientTransform="matrix(11.317 0 0 7.0798 -3316.8359 -2155.4844)">
			<stop  offset="0" style="stop-color:#FFFFFF;stop-opacity:0.77"/>
			<stop  offset="0.45" style="stop-color:#FFFFFF;stop-opacity:0"/>
			<stop  offset="0.4668" style="stop-color:#DEDEE5;stop-opacity:0.0049"/>
			<stop  offset="0.4912" style="stop-color:#B5B5C5;stop-opacity:0.012"/>
			<stop  offset="0.5186" style="stop-color:#908FA8;stop-opacity:0.02"/>
			<stop  offset="0.5484" style="stop-color:#6F6F8F;stop-opacity:0.0286"/>
			<stop  offset="0.5813" style="stop-color:#54537A;stop-opacity:0.0382"/>
			<stop  offset="0.6185" style="stop-color:#3E3D69;stop-opacity:0.049"/>
			<stop  offset="0.6619" style="stop-color:#2D2C5C;stop-opacity:0.0617"/>
			<stop  offset="0.7156" style="stop-color:#222153;stop-opacity:0.0773"/>
			<stop  offset="0.7909" style="stop-color:#1B1A4D;stop-opacity:0.0992"/>
			<stop  offset="1" style="stop-color:#19184C;stop-opacity:0.16"/>
		</linearGradient>
		<path fill="url(#SVGID_24_)" d="M188.701,531.301c3.533-0.928,6.25-1.748,8.107-2.451l-42.055-62.793h-53.807L59.426,528.85
			l8.969,1.912l37.007-44.719l5.602,20.174l-38.121,42.986h38.121l12.924,58.754h11.217l10.372-58.754h37.293l-37.6-42.986
			l5.625-20.174L188.701,531.301z M110.176,447.43c4.288,2.919,9.803,4.382,16.545,4.382c5.78,0,11.027-1.376,15.713-4.12
			c4.666-2.742,7-6.174,7-10.271c0-3.869-2.146-7.256-6.455-10.172c-4.289-2.928-9.716-4.384-16.258-4.384
			c-6.742,0-12.257,1.456-16.545,4.384c-4.287,2.916-6.453,6.303-6.453,10.172C103.723,441.164,105.889,444.496,110.176,447.43z"/>
	</g>
	<g opacity="0.58">
		<g>
			<path fill="#26286A" d="M188.701,531.926c2.731-0.731,5.447-1.49,8.107-2.451c0.037-0.013,0.057-1.164,0-1.25
				c-13.436-20.062-26.872-40.123-40.308-60.185c-1.68-2.508-1.452-2.608-4.455-2.608c-6.577,0-13.153,0-19.73,0
				c-7.716,0-15.432,0-23.147,0c-1.394,0-7.607-0.93-8.458,0.358c-13.761,20.812-27.523,41.623-41.285,62.435
				c-0.059,0.089-0.013,1.247,0,1.25c1.19,0.254,8.445,2.545,9.025,1.844c1.458-1.762,2.916-3.523,4.374-5.285
				c6.557-7.924,13.114-15.847,19.671-23.771c4.283-5.176,8.566-10.351,12.849-15.526c-0.48,0.58,2.3,8.01,2.595,9.074
				c1.021,3.677,2.042,7.354,3.063,11.031c0-0.417,0-0.833,0-1.25c-12.707,14.329-25.414,28.657-38.121,42.986
				c-0.08,0.09,0.041,1.25,0,1.25c12.048,0,24.097,0,36.146,0c0.592,0,1.897-0.358,2.048,0.33c0.371,1.686,0.741,3.37,1.112,5.055
				c1.511,6.87,3.022,13.739,4.533,20.609c1.661,7.552,3.322,15.104,4.983,22.655c0.165,0.749,1.77,10.104,2.334,10.104
				c3.178,0,6.356,0,9.534,0c1.825,0,1.563,0.048,1.861-1.646c1.011-5.725,2.021-11.449,3.032-17.175
				c2.35-13.311,4.7-26.622,7.05-39.934c0.185-1.047,33.656,0,37.293,0c-0.04,0,0.079-1.159,0-1.25
				c-12.533-14.329-25.066-28.657-37.6-42.986c0,0.417,0,0.833,0,1.25c1.854-6.649,3.708-13.298,5.562-19.947
				c-0.203,0.726,7.93,9.177,8.949,10.394C169.38,508.834,179.041,520.38,188.701,531.926c-0.201-0.24,0.209-1,0-1.25
				c-7.475-8.935-14.951-17.868-22.426-26.803c-4.309-5.149-8.617-10.299-12.925-15.448c-0.82-0.979-1.64-1.959-2.459-2.939
				c0.215,0.257-1.419,4.818-1.594,5.445c-1.001,3.591-2.002,7.181-3.003,10.771c-0.363,1.304-1.082,2.827-1.09,4.199
				c-0.012,2.061,2.559,3.86,3.832,5.315c9.693,11.081,19.385,22.163,29.078,33.244c1.565,1.789,3.13,3.578,4.695,5.367
				c0-0.417,0-0.833,0-1.25c-12.034,0-24.067,0-36.101,0c-2.406,0-2.029,4.74-2.384,6.75c-1.274,7.216-2.548,14.432-3.822,21.647
				c-1.31,7.418-2.619,14.835-3.928,22.253c-0.38,2.152-0.76,4.306-1.14,6.458c-0.299,1.693-0.036,1.646-1.861,1.646
				c-3.178,0-6.356,0-9.534,0c-0.318,0-0.66-2.492-0.727-2.796c-1.353-6.148-2.705-12.297-4.058-18.444
				c-1.896-8.622-3.793-17.244-5.689-25.865c-0.192-0.876-2.035-11.648-2.695-11.648c-12.663,0-25.326,0-37.988,0
				c0,0.417,0,0.833,0,1.25c7.767-8.758,15.534-17.517,23.301-26.274c4.282-4.828,8.563-9.656,12.845-14.484
				c0.917-1.033,2.391-1.98,1.959-3.535c-1.689-6.085-3.379-12.17-5.068-18.255c-0.29-1.043-0.123-2.338-1.01-1.266
				c-1.313,1.586-2.625,3.172-3.938,4.758c-9.382,11.337-18.764,22.675-28.146,34.012c-1.435,1.733-2.87,3.468-4.305,5.201
				c-0.697,0.843-7.781-1.479-9.095-1.76c0,0.417,0,0.833,0,1.25c13.333-20.164,26.666-40.327,40-60.491
				c1.673-2.53,1.596-2.302,4.715-2.302c6.744,0,13.488,0,20.231,0c7.63,0,15.26,0,22.89,0c1.564,0,6.849-0.961,7.83,0.504
				c13.906,20.763,27.812,41.526,41.717,62.289c0-0.417,0-0.833,0-1.25c-2.66,0.961-5.376,1.72-8.107,2.451
				C188.588,530.706,188.796,531.9,188.701,531.926z"/>
			<path fill="#26286A" d="M110.176,448.055c10.661,6.793,27.802,6.133,36.737-3.358c5.54-5.884,1.466-14.133-3.935-18.073
				c-10.124-7.385-27.725-5.785-36.381,3.073C100.73,435.702,104.464,443.856,110.176,448.055c-0.192-0.142,0.205-1.1,0-1.25
				c-4.157-3.056-7.585-6.908-5.733-12.469c1.466-4.399,6.427-7.244,10.43-8.9c8.697-3.6,20.225-2.574,28.106,2.438
				c4.266,2.714,7.447,7.198,5.825,12.43c-1.419,4.576-6.691,7.186-10.738,8.863c-8.667,3.596-20.001,2.666-27.89-2.361
				C110.358,446.921,109.98,447.93,110.176,448.055z"/>
		</g>
	</g>
</g>
<g>
	<path fill="#710F12" d="M327.316,553.849h-20.889v61.807h-27.763v-61.807h-15.02v61.807h-27.11v-61.807h-21.219V491.87
		c0-4.086,3.487-8.391,10.437-12.885c6.974-4.51,14.801-7.359,23.514-8.568c11.112-1.545,18.511-2.334,22.203-2.334
		c10.455,0,20.359,1.381,29.708,4.148c11.342,3.242,19.15,7.807,23.514,13.699c1.751,2.281,2.625,4.123,2.625,5.576V553.849z
		 M295.979,449.168c0,3.852-2.472,7.036-7.351,9.546c-4.887,2.523-10.635,3.795-17.158,3.795c-6.973,0-12.796-1.334-17.449-3.975
		c-4.702-2.652-7.026-5.698-7.026-9.185c0-3.604,2.491-6.784,7.487-9.56c5.02-2.756,10.681-4.135,16.988-4.135
		c6.748,0,12.525,1.408,17.33,4.238C293.577,442.724,295.979,445.802,295.979,449.168z"/>
	
		<linearGradient id="SVGID_25_" gradientUnits="userSpaceOnUse" x1="263.8657" y1="388.958" x2="263.8657" y2="327.7744" gradientTransform="matrix(3.5704 0 0 2.942 -670.7891 -528.6484)">
		<stop  offset="0" style="stop-color:#292E78;stop-opacity:0.22"/>
		<stop  offset="0.5" style="stop-color:#20215B"/>
		<stop  offset="0.5313" style="stop-color:#243864;stop-opacity:0.9455"/>
		<stop  offset="0.5773" style="stop-color:#2C5371;stop-opacity:0.8655"/>
		<stop  offset="0.6259" style="stop-color:#366B7C;stop-opacity:0.7809"/>
		<stop  offset="0.6762" style="stop-color:#3E8286;stop-opacity:0.6934"/>
		<stop  offset="0.7287" style="stop-color:#47968E;stop-opacity:0.6021"/>
		<stop  offset="0.7841" style="stop-color:#4DA694;stop-opacity:0.5056"/>
		<stop  offset="0.8438" style="stop-color:#53B298;stop-opacity:0.4018"/>
		<stop  offset="0.9107" style="stop-color:#56BC9C;stop-opacity:0.2854"/>
		<stop  offset="1" style="stop-color:#56C09D;stop-opacity:0.13"/>
	</linearGradient>
	<path fill="url(#SVGID_25_)" d="M327.316,553.849h-20.889v61.807h-27.763v-61.807h-15.02v61.807h-27.11v-61.807h-21.219V491.87
		c0-4.086,3.487-8.391,10.437-12.885c6.974-4.51,14.801-7.359,23.514-8.568c11.112-1.545,18.511-2.334,22.203-2.334
		c10.455,0,20.359,1.381,29.708,4.148c11.342,3.242,19.15,7.807,23.514,13.699c1.751,2.281,2.625,4.123,2.625,5.576V553.849z
		 M295.979,449.168c0,3.852-2.472,7.036-7.351,9.546c-4.887,2.523-10.635,3.795-17.158,3.795c-6.973,0-12.796-1.334-17.449-3.975
		c-4.702-2.652-7.026-5.698-7.026-9.185c0-3.604,2.491-6.784,7.487-9.56c5.02-2.756,10.681-4.135,16.988-4.135
		c6.748,0,12.525,1.408,17.33,4.238C293.577,442.724,295.979,445.802,295.979,449.168z"/>
	<g opacity="0.81">
		
			<radialGradient id="SVGID_26_" cx="262.2412" cy="337.7998" r="45.2965" gradientTransform="matrix(3.569 0.0811 -0.0492 1.4704 -653.8116 -52.8272)" gradientUnits="userSpaceOnUse">
			<stop  offset="0" style="stop-color:#638A98"/>
			<stop  offset="0.1862" style="stop-color:#5D899F;stop-opacity:0.933"/>
			<stop  offset="0.5254" style="stop-color:#4B88B1;stop-opacity:0.8109"/>
			<stop  offset="0.7444" style="stop-color:#3887BF;stop-opacity:0.732"/>
			<stop  offset="1" style="stop-color:#406EB5;stop-opacity:0.64"/>
		</radialGradient>
		<path fill="url(#SVGID_26_)" d="M327.316,553.849h-20.889v61.807h-27.763v-61.807h-15.02v61.807h-27.11v-61.807h-21.219V491.87
			c0-4.086,3.487-8.391,10.437-12.885c6.974-4.51,14.801-7.359,23.514-8.568c11.112-1.545,18.511-2.334,22.203-2.334
			c10.455,0,20.359,1.381,29.708,4.148c11.342,3.242,19.15,7.807,23.514,13.699c1.751,2.281,2.625,4.123,2.625,5.576V553.849z
			 M295.979,449.168c0,3.852-2.472,7.036-7.351,9.546c-4.887,2.523-10.635,3.795-17.158,3.795c-6.973,0-12.796-1.334-17.449-3.975
			c-4.702-2.652-7.026-5.698-7.026-9.185c0-3.604,2.491-6.784,7.487-9.56c5.02-2.756,10.681-4.135,16.988-4.135
			c6.748,0,12.525,1.408,17.33,4.238C293.577,442.724,295.979,445.802,295.979,449.168z"/>
	</g>
	<g opacity="0.7">
		
			<linearGradient id="SVGID_27_" gradientUnits="userSpaceOnUse" x1="263.8657" y1="327.7744" x2="263.8657" y2="388.958" gradientTransform="matrix(3.5704 0 0 2.942 -670.7891 -528.6484)">
			<stop  offset="0" style="stop-color:#FFFFFF;stop-opacity:0.77"/>
			<stop  offset="0.45" style="stop-color:#FFFFFF;stop-opacity:0"/>
			<stop  offset="0.4668" style="stop-color:#DEDEE5;stop-opacity:0.0049"/>
			<stop  offset="0.4912" style="stop-color:#B5B5C5;stop-opacity:0.012"/>
			<stop  offset="0.5186" style="stop-color:#908FA8;stop-opacity:0.02"/>
			<stop  offset="0.5484" style="stop-color:#6F6F8F;stop-opacity:0.0286"/>
			<stop  offset="0.5813" style="stop-color:#54537A;stop-opacity:0.0382"/>
			<stop  offset="0.6185" style="stop-color:#3E3D69;stop-opacity:0.049"/>
			<stop  offset="0.6619" style="stop-color:#2D2C5C;stop-opacity:0.0617"/>
			<stop  offset="0.7156" style="stop-color:#222153;stop-opacity:0.0773"/>
			<stop  offset="0.7909" style="stop-color:#1B1A4D;stop-opacity:0.0992"/>
			<stop  offset="1" style="stop-color:#19184C;stop-opacity:0.16"/>
		</linearGradient>
		<path fill="url(#SVGID_27_)" d="M327.316,553.849h-20.889v61.807h-27.763v-61.807h-15.02v61.807h-27.11v-61.807h-21.219V491.87
			c0-4.086,3.487-8.391,10.437-12.885c6.974-4.51,14.801-7.359,23.514-8.568c11.112-1.545,18.511-2.334,22.203-2.334
			c10.455,0,20.359,1.381,29.708,4.148c11.342,3.242,19.15,7.807,23.514,13.699c1.751,2.281,2.625,4.123,2.625,5.576V553.849z
			 M295.979,449.168c0,3.852-2.472,7.036-7.351,9.546c-4.887,2.523-10.635,3.795-17.158,3.795c-6.973,0-12.796-1.334-17.449-3.975
			c-4.702-2.652-7.026-5.698-7.026-9.185c0-3.604,2.491-6.784,7.487-9.56c5.02-2.756,10.681-4.135,16.988-4.135
			c6.748,0,12.525,1.408,17.33,4.238C293.577,442.724,295.979,445.802,295.979,449.168z"/>
	</g>
	<g opacity="0.58">
		<path fill="#26286A" d="M327.316,553.224c-6.963,0-13.926,0-20.889,0c-0.008,0-0.006,0.593-0.006,0.625
			c0,11.462,0,22.924,0,34.386c0,7.124,0,14.247,0,21.371c0,1.771,0,3.541,0,5.312c0,1.197,0.013,0.113-0.041,0.113
			c-0.863,0-1.728,0-2.591,0c-7.282,0-14.564,0-21.847,0c-1.32,0-3.272-0.063-3.272,0.292c0-1.703,0-3.405,0-5.107
			c0-14.858,0-29.717,0-44.575c0-3.931,0-7.86,0-11.791c0-0.032,0.002-0.625-0.006-0.625c-5.007,0-10.013,0-15.02,0
			c-0.007,0-0.006,0.593-0.006,0.625c0,11.462,0,22.924,0,34.386c0,7.124,0,14.247,0,21.371c0,1.771,0,3.541,0,5.312
			c0,1.197,0.013,0.113-0.042,0.113c-0.882,0-1.764,0-2.646,0c-7.241,0-14.482,0-21.723,0c-0.835,0-1.671,0-2.507,0
			c-0.3,0-0.181,1.067-0.181,0.108c0-1.845,0-3.688,0-5.533c0-14.92,0-29.84,0-44.759c0-3.666,0-7.332,0-10.998
			c0-0.032,0.001-0.625-0.006-0.625c-6.206,0-12.411,0-18.617,0c-0.847,0-1.694,0-2.541,0c-0.072,0-0.055,1.083-0.055-0.115
			c0-1.988,0-3.976,0-5.964c0-15.007,0-30.015,0-45.022c0-3.977-0.687-8.643,0.55-12.49c1.726-5.369,8.204-9.099,12.715-11.736
			c6.331-3.702,13.473-5.756,20.679-6.854c12.302-1.873,24.195-2.934,36.597-1.416c12.353,1.511,26.305,5.062,35.796,13.553
			c4.839,4.33,5.651,7.893,5.651,13.708c0,7.274,0,14.548,0,21.821c0,11.714,0,23.427,0,35.141c0,0.707,0.012,0.707,0.012,0
			c0-11.384,0-22.768,0-34.15c0-9.396,1.061-19.467-0.006-28.816c-1.25-10.952-17.454-16.702-26.139-19.275
			c-12.08-3.581-24.85-4.87-37.384-3.628c-14.111,1.399-27.57,3.365-39.583,11.416c-4.896,3.28-8.901,7.424-8.901,13.476
			c0,20.326,0,40.652,0,60.979c0,0.032-0.001,0.625,0.006,0.625c7.053,0,14.105,0,21.158,0c0.077,0,0.055-1.023,0.055,0.373
			c0,1.103,0,2.204,0,3.307c0,3.906,0,7.813,0,11.72c0,15.261,0,30.521,0,45.782c0,0.032-0.001,0.625,0.006,0.625
			c9.037,0,18.074,0,27.11,0c0.007,0,0.006-0.593,0.006-0.625c0-11.462,0-22.924,0-34.386c0-7.124,0-14.247,0-21.371
			c0-1.771,0-3.541,0-5.312c0-1.197-0.024-0.113,0.076-0.113c1.368,0,2.736,0,4.105,0c3.377,0,6.755,0,10.132,0
			c0.759,0,0.694-0.821,0.694-0.292c0,0.686,0,1.371,0,2.057c0,6.074,0,12.149,0,18.225c0,13.398,0,26.796,0,40.194
			c0,0.333,0,0.665,0,0.998c0,0.032-0.002,0.625,0.006,0.625c9.254,0,18.509,0,27.763,0c0.008,0,0.006-0.593,0.006-0.625
			c0-15.261,0-30.521,0-45.782c0-3.723,0-7.444,0-11.166c0-1.188,0-2.377,0-3.565c0-1.547-0.026-0.668,0.054-0.668
			c6.943,0,13.886,0,20.829,0C327.326,554.474,327.326,553.224,327.316,553.224z"/>
		<path fill="#26286A" d="M295.977,448.565c-0.706,10.822-16.128,13.168-24.507,13.318c-8.264,0.147-23.688-2.684-24.476-13.159
			c0,0.408,0.001,0.818,0.001,1.227c0.738-10.546,16.217-13.506,24.474-13.671c8.232-0.166,23.684,3.199,24.509,13.513
			c-0.033-0.412,0.033-0.835,0-1.249c-0.476-5.946-6.365-9.207-11.327-11.273c-6.143-2.559-13.326-2.658-19.807-1.693
			c-7.16,1.064-17.88,5.379-17.856,13.938c0.027,9.753,13.528,12.86,21.091,13.507c8.956,0.765,27.13-1.434,27.901-13.251
			C296.005,449.396,295.958,448.859,295.977,448.565z"/>
	</g>
</g>
<g>
	<path fill="#710F12" d="M421.445,511.118v77.537h-60.257v-77.537h-25.872v-26.511c0-8.877,5.466-16.432,16.409-22.674
		c10.932-6.242,24.079-9.36,39.441-9.36c15.562,0,28.809,3.118,39.764,9.36c10.933,6.242,16.386,13.797,16.386,22.674v26.511
		H421.445z M415.942,442.674c-6.834,3.842-15.091,5.752-24.775,5.752c-9.66,0-17.878-1.91-24.613-5.752
		c-6.736-3.836-10.097-8.516-10.097-14.033s3.36-10.233,10.097-14.141c6.735-3.891,14.953-5.844,24.613-5.844
		c9.685,0,17.941,1.953,24.775,5.844c6.835,3.907,10.246,8.623,10.246,14.141S422.777,438.838,415.942,442.674z"/>
	
		<linearGradient id="SVGID_28_" gradientUnits="userSpaceOnUse" x1="227.1123" y1="313.5571" x2="227.1123" y2="248.8057" gradientTransform="matrix(2.914 0 0 2.7798 -270.4785 -282.9824)">
		<stop  offset="0" style="stop-color:#292E78;stop-opacity:0.22"/>
		<stop  offset="0.5" style="stop-color:#20215B"/>
		<stop  offset="0.5313" style="stop-color:#243864;stop-opacity:0.9455"/>
		<stop  offset="0.5773" style="stop-color:#2C5371;stop-opacity:0.8655"/>
		<stop  offset="0.6259" style="stop-color:#366B7C;stop-opacity:0.7809"/>
		<stop  offset="0.6762" style="stop-color:#3E8286;stop-opacity:0.6934"/>
		<stop  offset="0.7287" style="stop-color:#47968E;stop-opacity:0.6021"/>
		<stop  offset="0.7841" style="stop-color:#4DA694;stop-opacity:0.5056"/>
		<stop  offset="0.8438" style="stop-color:#53B298;stop-opacity:0.4018"/>
		<stop  offset="0.9107" style="stop-color:#56BC9C;stop-opacity:0.2854"/>
		<stop  offset="1" style="stop-color:#56C09D;stop-opacity:0.13"/>
	</linearGradient>
	<path fill="url(#SVGID_28_)" d="M421.445,511.118v77.537h-60.257v-77.537h-25.872v-26.511c0-8.877,5.466-16.432,16.409-22.674
		c10.932-6.242,24.079-9.36,39.441-9.36c15.562,0,28.809,3.118,39.764,9.36c10.933,6.242,16.386,13.797,16.386,22.674v26.511
		H421.445z M415.942,442.674c-6.834,3.842-15.091,5.752-24.775,5.752c-9.66,0-17.878-1.91-24.613-5.752
		c-6.736-3.836-10.097-8.516-10.097-14.033s3.36-10.233,10.097-14.141c6.735-3.891,14.953-5.844,24.613-5.844
		c9.685,0,17.941,1.953,24.775,5.844c6.835,3.907,10.246,8.623,10.246,14.141S422.777,438.838,415.942,442.674z"/>
	<g opacity="0.81">
		
			<radialGradient id="SVGID_29_" cx="225.1221" cy="259.416" r="48.7688" gradientTransform="matrix(2.9129 0.0766 -0.0402 1.3894 -259.8113 60.4728)" gradientUnits="userSpaceOnUse">
			<stop  offset="0" style="stop-color:#638A98"/>
			<stop  offset="0.1862" style="stop-color:#5D899F;stop-opacity:0.933"/>
			<stop  offset="0.5254" style="stop-color:#4B88B1;stop-opacity:0.8109"/>
			<stop  offset="0.7444" style="stop-color:#3887BF;stop-opacity:0.732"/>
			<stop  offset="1" style="stop-color:#406EB5;stop-opacity:0.64"/>
		</radialGradient>
		<path fill="url(#SVGID_29_)" d="M421.445,511.118v77.537h-60.257v-77.537h-25.872v-26.511c0-8.877,5.466-16.432,16.409-22.674
			c10.932-6.242,24.079-9.36,39.441-9.36c15.562,0,28.809,3.118,39.764,9.36c10.933,6.242,16.386,13.797,16.386,22.674v26.511
			H421.445z M415.942,442.674c-6.834,3.842-15.091,5.752-24.775,5.752c-9.66,0-17.878-1.91-24.613-5.752
			c-6.736-3.836-10.097-8.516-10.097-14.033s3.36-10.233,10.097-14.141c6.735-3.891,14.953-5.844,24.613-5.844
			c9.685,0,17.941,1.953,24.775,5.844c6.835,3.907,10.246,8.623,10.246,14.141S422.777,438.838,415.942,442.674z"/>
	</g>
	<g opacity="0.7">
		
			<linearGradient id="SVGID_30_" gradientUnits="userSpaceOnUse" x1="227.1118" y1="248.8062" x2="227.1118" y2="313.5581" gradientTransform="matrix(2.914 0 0 2.7798 -270.4785 -282.9824)">
			<stop  offset="0" style="stop-color:#FFFFFF;stop-opacity:0.77"/>
			<stop  offset="0.45" style="stop-color:#FFFFFF;stop-opacity:0"/>
			<stop  offset="0.4668" style="stop-color:#DEDEE5;stop-opacity:0.0049"/>
			<stop  offset="0.4912" style="stop-color:#B5B5C5;stop-opacity:0.012"/>
			<stop  offset="0.5186" style="stop-color:#908FA8;stop-opacity:0.02"/>
			<stop  offset="0.5484" style="stop-color:#6F6F8F;stop-opacity:0.0286"/>
			<stop  offset="0.5813" style="stop-color:#54537A;stop-opacity:0.0382"/>
			<stop  offset="0.6185" style="stop-color:#3E3D69;stop-opacity:0.049"/>
			<stop  offset="0.6619" style="stop-color:#2D2C5C;stop-opacity:0.0617"/>
			<stop  offset="0.7156" style="stop-color:#222153;stop-opacity:0.0773"/>
			<stop  offset="0.7909" style="stop-color:#1B1A4D;stop-opacity:0.0992"/>
			<stop  offset="1" style="stop-color:#19184C;stop-opacity:0.16"/>
		</linearGradient>
		<path fill="url(#SVGID_30_)" d="M421.445,511.118v77.537h-60.257v-77.537h-25.872v-26.511c0-8.877,5.466-16.432,16.409-22.674
			c10.932-6.242,24.079-9.36,39.441-9.36c15.562,0,28.809,3.118,39.764,9.36c10.933,6.242,16.386,13.797,16.386,22.674v26.511
			H421.445z M415.942,442.674c-6.834,3.842-15.091,5.752-24.775,5.752c-9.66,0-17.878-1.91-24.613-5.752
			c-6.736-3.836-10.097-8.516-10.097-14.033s3.36-10.233,10.097-14.141c6.735-3.891,14.953-5.844,24.613-5.844
			c9.685,0,17.941,1.953,24.775,5.844c6.835,3.907,10.246,8.623,10.246,14.141S422.777,438.838,415.942,442.674z"/>
	</g>
	<g opacity="0.49">
		<path d="M362.046,587.801c0-25.846,0-51.691,0-77.537c0-0.013,0-0.25-0.003-0.25c-6.088,0-12.176,0-18.264,0
			c-2.471,0-4.94,0-7.411,0c-0.415,0-0.194-4.517-0.194-5.542c0-6.557,0-13.112,0-19.669c0-12.267,11.352-19.971,21.315-24.59
			c23.599-10.94,57.302-9.231,78.499,6.311c7.794,5.716,10.471,13.021,10.471,22.279c0,6.902,0,13.805,0,20.707
			c0,0.993-0.955,0.504-2.198,0.504c-3.082,0-6.163,0-9.245,0c-4.808,0-9.616,0-14.425,0c-0.003,0-0.003,0.237-0.003,0.25
			c0,24.367,0,48.734,0,73.102c0,1.341,0,2.682,0,4.022c0,0.445-0.822,0.163-1.709,0.163c-5.918,0-11.836,0-17.754,0
			c-12.91,0-25.82,0-38.73,0c-0.117,0-0.234,0-0.352,0c-0.004,0-0.004,0.5,0,0.5c19.516,0,39.032,0,58.548,0
			c0.003,0,0.003-0.237,0.003-0.25c0-18.849,0-37.697,0-56.546c0-6.991,0-13.982,0-20.975c0,0.467,23.232,0.233,25.868,0.233
			c0.003,0,0.003-0.237,0.003-0.25c0-9.026,0.234-18.082-0.039-27.105c-0.319-10.574-10.078-17.727-18.55-22.147
			c-11.237-5.863-24.18-7.73-36.709-7.833c-12.039-0.099-24.1,2.095-35.047,7.17c-9.461,4.386-18.895,11.729-19.913,22.803
			c-0.818,8.904-0.039,18.173-0.039,27.113c0,0.013,0,0.25,0.003,0.25c8.607,0,17.215,0,25.822,0c0.1,0,0.047,18.135,0.047,19.853
			c0,19.145,0,38.29,0,57.435C362.04,588.084,362.046,588.084,362.046,587.801z"/>
		<path d="M391.167,447.321c-11.519-0.146-30.215-3.212-33.625-16.596c-2.006-7.872,6.085-13.614,11.98-16.573
			c6.653-3.341,14.297-4.297,21.645-4.392c11.565-0.148,30.518,3.558,33.933,16.792c2.043,7.919-6.232,13.552-12.145,16.443
			C406.233,446.284,398.558,447.229,391.167,447.321c-0.006,0-0.002,0.5,0,0.5c11.348-0.143,34.17-3.859,34.17-19.181
			c0-15.356-22.749-19.233-34.17-19.38c-11.442-0.146-33.858,4.257-33.858,19.38c0,15.3,22.487,19.037,33.858,19.181
			C391.169,447.821,391.173,447.321,391.167,447.321z"/>
	</g>
	<g opacity="0.58">
		<path fill="#26286A" d="M421.439,511.118c0,24.367,0,48.734,0,73.102c0,1.341,0,2.682,0,4.022c0,0.835,0.062-0.212-0.08-0.212
			c-0.522,0-1.044,0-1.565,0c-5.767,0-11.532,0-17.298,0c-13.431,0-26.862,0-40.293,0c-1.358,0-1.009,1.071-1.009-0.681
			c0-2.381,0-4.763,0-7.144c0-8.948,0-17.896,0-26.845c0-14.081,0-28.162,0-42.243c0-0.032,0.002-0.625-0.006-0.625
			c-6.088,0-12.176,0-18.264,0c-2.471,0-4.94,0-7.411,0c-0.304,0-0.191,0.961-0.191-0.515c0-1.528,0-3.058,0-4.587
			c0-6.786,0-13.572,0-20.359c0-11.493,9.81-19.06,19.069-23.912c23.052-12.078,55.698-10.854,77.996,2.298
			c8.518,5.024,14.923,12.594,14.923,22.8c0,7.159,0,14.318,0,21.478c0,0.894,0,1.787,0,2.681c0,1.161,0.238,0.117-0.43,0.117
			c-2.701,0-5.401,0-8.102,0c-5.778,0-11.556,0-17.334,0c-0.01,0-0.01,1.25,0,1.25c8.624,0,17.247,0,25.871,0
			c0.008,0,0.006-0.593,0.006-0.625c0-9.431,0.228-18.889-0.038-28.315c-0.292-10.401-9.313-17.592-17.628-22.2
			c-11.158-6.187-24.096-8.344-36.704-8.641c-12.763-0.3-25.583,1.839-37.195,7.234c-9.784,4.546-19.425,12.125-20.406,23.584
			c-0.8,9.326-0.04,18.979-0.04,28.338c0,0.032-0.002,0.625,0.006,0.625c8.607,0,17.215,0,25.822,0c0.065,0,0.044-0.883,0.044,0.681
			c0,1.389,0,2.776,0,4.164c0,4.878,0,9.755,0,14.633c0,19.145,0,38.29,0,57.435c0,0.032-0.002,0.625,0.006,0.625
			c20.086,0,40.171,0,60.257,0c0.008,0,0.006-0.593,0.006-0.625c0-25.846,0-51.691,0-77.537
			C421.451,510.411,421.439,510.411,421.439,511.118z"/>
		<path fill="#26286A" d="M415.942,442.049c-13.167,7.077-30.113,7.602-44.06,2.52c-5.976-2.178-11.996-6.027-14.603-12.028
			c-3.277-7.549,3.55-13.921,9.273-17.415c12.578-7.679,30.524-7.494,43.996-2.555c6.036,2.214,12.146,6.104,14.803,12.162
			C428.683,432.324,421.72,438.634,415.942,442.049c-0.189,0.112,0.176,1.146,0,1.25c10.115-5.98,14.274-17.04,5.021-25.877
			c-13.352-12.75-39.224-11.931-54.409-3.547c-10.274,5.672-13.848,17.399-4.947,25.93c13.292,12.739,39.187,11.637,54.336,3.494
			C416.123,443.201,415.776,442.139,415.942,442.049z"/>
	</g>
</g>
<g>
	<g>
		<path fill="#710F12" d="M552.049,560.975c3.532-0.726,6.249-1.366,8.107-1.916l-42.056-49.089h-53.807l-41.521,49.089l8.969,1.495
			l37.007-34.959l5.602,15.771l-38.121,33.604h38.121l12.924,45.931h11.217l10.373-45.931h37.293l-37.6-33.604l5.624-15.771
			L552.049,560.975z M473.522,495.408c4.288,2.282,9.803,3.426,16.545,3.426c5.78,0,11.027-1.075,15.714-3.222
			c4.665-2.143,6.999-4.825,6.999-8.029c0-3.023-2.146-5.672-6.455-7.951c-4.289-2.289-9.716-3.428-16.258-3.428
			c-6.742,0-12.257,1.139-16.545,3.428c-4.287,2.279-6.453,4.928-6.453,7.951C467.069,490.511,469.235,493.116,473.522,495.408z"/>
	</g>
	<g>
		
			<linearGradient id="SVGID_31_" gradientUnits="userSpaceOnUse" x1="320.0977" y1="380.8442" x2="320.0977" y2="354.7007" gradientTransform="matrix(11.317 0 0 5.5346 -3131.0938 -1486.9219)">
			<stop  offset="0" style="stop-color:#292E78;stop-opacity:0.22"/>
			<stop  offset="0.5" style="stop-color:#20215B"/>
			<stop  offset="0.5313" style="stop-color:#243864;stop-opacity:0.9455"/>
			<stop  offset="0.5773" style="stop-color:#2C5371;stop-opacity:0.8655"/>
			<stop  offset="0.6259" style="stop-color:#366B7C;stop-opacity:0.7809"/>
			<stop  offset="0.6762" style="stop-color:#3E8286;stop-opacity:0.6934"/>
			<stop  offset="0.7287" style="stop-color:#47968E;stop-opacity:0.6021"/>
			<stop  offset="0.7841" style="stop-color:#4DA694;stop-opacity:0.5056"/>
			<stop  offset="0.8438" style="stop-color:#53B298;stop-opacity:0.4018"/>
			<stop  offset="0.9107" style="stop-color:#56BC9C;stop-opacity:0.2854"/>
			<stop  offset="1" style="stop-color:#56C09D;stop-opacity:0.13"/>
		</linearGradient>
		<path fill="url(#SVGID_31_)" d="M552.049,560.975c3.532-0.726,6.249-1.366,8.107-1.916l-42.056-49.089h-53.807l-41.521,49.089
			l8.969,1.495l37.007-34.959l5.602,15.771l-38.121,33.604h38.121l12.924,45.931h11.217l10.373-45.931h37.293l-37.6-33.604
			l5.624-15.771L552.049,560.975z M473.522,495.408c4.288,2.282,9.803,3.426,16.545,3.426c5.78,0,11.027-1.075,15.714-3.222
			c4.665-2.143,6.999-4.825,6.999-8.029c0-3.023-2.146-5.672-6.455-7.951c-4.289-2.289-9.716-3.428-16.258-3.428
			c-6.742,0-12.257,1.139-16.545,3.428c-4.287,2.279-6.453,4.928-6.453,7.951C467.069,490.511,469.235,493.116,473.522,495.408z"/>
	</g>
	<g opacity="0.81">
		
			<radialGradient id="SVGID_32_" cx="319.4688" cy="358.9844" r="19.1762" gradientTransform="matrix(11.3127 0.1526 -0.156 2.7662 -3073.7305 -541.8622)" gradientUnits="userSpaceOnUse">
			<stop  offset="0" style="stop-color:#638A98"/>
			<stop  offset="0.1862" style="stop-color:#5D899F;stop-opacity:0.933"/>
			<stop  offset="0.5254" style="stop-color:#4B88B1;stop-opacity:0.8109"/>
			<stop  offset="0.7444" style="stop-color:#3887BF;stop-opacity:0.732"/>
			<stop  offset="1" style="stop-color:#406EB5;stop-opacity:0.64"/>
		</radialGradient>
		<path fill="url(#SVGID_32_)" d="M552.049,560.975c3.532-0.726,6.249-1.366,8.107-1.916l-42.056-49.089h-53.807l-41.521,49.089
			l8.969,1.495l37.007-34.959l5.602,15.771l-38.121,33.604h38.121l12.924,45.931h11.217l10.373-45.931h37.293l-37.6-33.604
			l5.624-15.771L552.049,560.975z M473.522,495.408c4.288,2.282,9.803,3.426,16.545,3.426c5.78,0,11.027-1.075,15.714-3.222
			c4.665-2.143,6.999-4.825,6.999-8.029c0-3.023-2.146-5.672-6.455-7.951c-4.289-2.289-9.716-3.428-16.258-3.428
			c-6.742,0-12.257,1.139-16.545,3.428c-4.287,2.279-6.453,4.928-6.453,7.951C467.069,490.511,469.235,493.116,473.522,495.408z"/>
	</g>
	<g opacity="0.7">
		
			<linearGradient id="SVGID_33_" gradientUnits="userSpaceOnUse" x1="320.0996" y1="354.7007" x2="320.0996" y2="380.8442" gradientTransform="matrix(11.317 0 0 5.5346 -3131.0938 -1486.9219)">
			<stop  offset="0" style="stop-color:#FFFFFF;stop-opacity:0.77"/>
			<stop  offset="0.45" style="stop-color:#FFFFFF;stop-opacity:0"/>
			<stop  offset="0.4668" style="stop-color:#DEDEE5;stop-opacity:0.0049"/>
			<stop  offset="0.4912" style="stop-color:#B5B5C5;stop-opacity:0.012"/>
			<stop  offset="0.5186" style="stop-color:#908FA8;stop-opacity:0.02"/>
			<stop  offset="0.5484" style="stop-color:#6F6F8F;stop-opacity:0.0286"/>
			<stop  offset="0.5813" style="stop-color:#54537A;stop-opacity:0.0382"/>
			<stop  offset="0.6185" style="stop-color:#3E3D69;stop-opacity:0.049"/>
			<stop  offset="0.6619" style="stop-color:#2D2C5C;stop-opacity:0.0617"/>
			<stop  offset="0.7156" style="stop-color:#222153;stop-opacity:0.0773"/>
			<stop  offset="0.7909" style="stop-color:#1B1A4D;stop-opacity:0.0992"/>
			<stop  offset="1" style="stop-color:#19184C;stop-opacity:0.16"/>
		</linearGradient>
		<path fill="url(#SVGID_33_)" d="M552.049,560.975c3.532-0.726,6.249-1.366,8.107-1.916l-42.056-49.089h-53.807l-41.521,49.089
			l8.969,1.495l37.007-34.959l5.602,15.771l-38.121,33.604h38.121l12.924,45.931h11.217l10.373-45.931h37.293l-37.6-33.604
			l5.624-15.771L552.049,560.975z M473.522,495.408c4.288,2.282,9.803,3.426,16.545,3.426c5.78,0,11.027-1.075,15.714-3.222
			c4.665-2.143,6.999-4.825,6.999-8.029c0-3.023-2.146-5.672-6.455-7.951c-4.289-2.289-9.716-3.428-16.258-3.428
			c-6.742,0-12.257,1.139-16.545,3.428c-4.287,2.279-6.453,4.928-6.453,7.951C467.069,490.511,469.235,493.116,473.522,495.408z"/>
	</g>
	<g opacity="0.58">
		<g>
			<path fill="#26286A" d="M552.049,561.6c2.721-0.57,5.432-1.161,8.107-1.916c0.019-0.005,0.063-1.177,0-1.25
				c-7.334-8.561-14.669-17.122-22.003-25.683c-4.848-5.659-9.696-11.317-14.544-16.976c-0.854-0.998-4.313-6.431-5.725-6.431
				c-12.916,0-25.832,0-38.747,0c-4.876,0-9.752,0-14.628,0c-1.395,0-4.816,5.439-5.654,6.431
				c-12.027,14.219-24.056,28.438-36.083,42.658c-0.067,0.079,0.001,1.25,0,1.25c2.989,0.498,5.979,0.997,8.969,1.495
				c0.577,0.096,3.26-3.079,3.666-3.463c6.259-5.912,12.517-11.825,18.775-17.737c4.759-4.494,9.518-8.99,14.276-13.485
				c0.52-0.491,2.166,5.011,2.449,5.807c1.146,3.229,2.294,6.46,3.441,9.69c0-0.416,0-0.834,0-1.25
				c-12.707,11.201-25.414,22.402-38.121,33.604c-0.088,0.077,0.046,1.25,0,1.25c12.049,0,24.097,0,36.146,0
				c0.726,0,1.87-0.377,2.091,0.409c0.568,2.021,1.137,4.042,1.706,6.063c2.08,7.394,4.161,14.787,6.241,22.181
				c1.561,5.548,3.122,11.096,4.684,16.644c0.38,1.352,11.329,0.923,11.448,0.395c2.886-12.777,5.771-25.555,8.657-38.332
				c0.554-2.453,1.108-4.906,1.662-7.359c0.076-0.339,9.342,0,9.966,0c9.109,0,18.218,0,27.327,0c-0.046,0,0.087-1.172,0-1.25
				c-12.533-11.201-25.066-22.402-37.6-33.604c0,0.416,0,0.834,0,1.25c1.875-5.257,3.749-10.514,5.624-15.771
				c-0.303,0.849,9.05,8.455,9.817,9.173C533.349,544.128,542.698,552.864,552.049,561.6c-0.203-0.189,0.213-1.051,0-1.25
				c-9.351-8.735-18.7-17.472-28.051-26.207c-3.272-3.058-6.545-6.115-9.817-9.173c0.41,0.384-2.575,7.22-2.812,7.886
				c-0.938,2.628-1.875,5.256-2.813,7.885c-0.052,0.146-0.1,1.16,0,1.25c12.533,11.201,25.066,22.402,37.6,33.604
				c0-0.417,0-0.833,0-1.25c-12.033,0-24.067,0-36.101,0c-2.542,0-2.551,6.013-3.023,8.107c-1.728,7.649-3.455,15.299-5.183,22.948
				c-1.111,4.923-2.224,9.845-3.335,14.768c-0.074,0.327-10.981,1.032-11.495-0.796c-3.68-13.077-7.359-26.154-11.039-39.23
				c-0.15-0.533-1.248-5.797-1.764-5.797c-3.747,0-7.494,0-11.24,0c-8.916,0-17.832,0-26.748,0c0,0.417,0,0.833,0,1.25
				c12.707-11.201,25.414-22.402,38.121-33.604c0.1-0.088,0.052-1.104,0-1.25c-0.699-1.97-6.211-15.195-5.766-15.615
				c-4.566,4.313-9.132,8.627-13.697,12.939c-6.339,5.988-12.678,11.976-19.016,17.963c-1.371,1.295-2.741,2.589-4.111,3.884
				c-0.819,0.774-7.65-1.255-8.987-1.478c0,0.417,0,0.833,0,1.25c7.241-8.561,14.482-17.122,21.724-25.683
				c4.786-5.659,9.572-11.317,14.359-16.976c0.838-0.991,4.26-6.431,5.654-6.431c12.916,0,25.832,0,38.747,0
				c4.876,0,9.752,0,14.628,0c1.412,0,4.87,5.433,5.725,6.431c12.183,14.219,24.364,28.438,36.547,42.658c0-0.417,0-0.833,0-1.25
				c-2.676,0.755-5.387,1.346-8.107,1.916C551.956,560.369,552.123,561.584,552.049,561.6z"/>
			<path fill="#26286A" d="M473.522,496.033c10.667,5.282,27.834,5.344,37.098-2.971c5.387-4.836,0.247-11.439-4.295-14.056
				c-10.229-5.89-27.687-4.956-36.729,2.72C463.816,486.635,468.641,493.203,473.522,496.033c-0.174-0.101,0.188-1.141,0-1.25
				c-3.179-1.843-6.088-3.925-6.453-7.825c0,0.417,0,0.833,0,1.25c0.884-9.726,15.616-11.264,22.998-11.379
				c7.326-0.114,21.861,1.937,22.713,11.379c0-0.417,0-0.833,0-1.25c-0.601,7.28-10.127,9.656-16.034,10.735
				c-7.615,1.391-16.266,0.535-23.224-2.91C473.681,494.861,473.35,495.947,473.522,496.033z"/>
		</g>
	</g>
</g>
</svg>
