<?xml version="1.0" encoding="utf-8"?>
<!-- Generator: Adobe Illustrator 16.0.0, SVG Export Plug-In . SVG Version: 6.00 Build 0)  -->
<!DOCTYPE svg PUBLIC "-//W3C//DTD SVG 1.1//EN" "http://www.w3.org/Graphics/SVG/1.1/DTD/svg11.dtd">
<svg version="1.1" id="Layer_1" xmlns="http://www.w3.org/2000/svg" xmlns:xlink="http://www.w3.org/1999/xlink" x="0px" y="0px"
	 width="612px" height="792px" viewBox="0 0 612 792" enable-background="new 0 0 612 792" xml:space="preserve">
<g>
	<path fill-rule="evenodd" clip-rule="evenodd" fill="none" d="M26.116,252.501c0-72.915,0.229-145.83-0.292-218.741
		c-0.065-8.97,2.511-11.01,13.603-10.989c180.424,0.324,360.853,0.324,541.274,0c11.092-0.021,13.622,2.022,13.597,10.987
		c-0.402,145.828-0.402,291.659,0,437.485c0.025,8.966-2.505,11.01-13.597,10.989c-180.422-0.326-360.851-0.326-541.274,0
		c-11.092,0.021-13.667-2.021-13.603-10.989C26.345,398.331,26.116,325.418,26.116,252.501z M44.326,69.308
		c0,32.381,0.002,64.763,0.002,97.143c0.031,89.65,0.063,179.299,0.093,268.951c-0.695,2.63,0.591,3.659,3.839,3.12
		c59.639,0.256,119.278,0.758,178.918,0.718c114.886-0.073,229.776-0.458,344.667-0.711c3.257,0.554,4.545-0.483,3.863-3.116
		c0.035-89.652,0.062-179.305,0.095-268.96c0-32.377,0-64.754,0-97.133c3.502-12.722-1.151-18.266-18.898-18.22
		c-164.555,0.415-329.113,0.413-493.667,0C45.521,51.056,40.804,56.561,44.326,69.308z"/>
	<path fill-rule="evenodd" clip-rule="evenodd" fill="#D1D3D4" d="M575.805,166.453c-0.033,89.655-0.06,179.308-0.095,268.96
		c-1.286,1.036-2.573,2.076-3.863,3.116c-114.891,0.253-229.781,0.638-344.667,0.711c-59.641,0.04-119.279-0.462-178.918-0.718
		c-1.281-1.043-2.561-2.08-3.839-3.12c-0.03-89.652-0.063-179.301-0.093-268.951c2.83-0.014,5.657-0.026,8.483-0.04
		c171.495-0.004,342.993-0.005,514.485-0.009C570.135,166.419,572.972,166.437,575.805,166.453z M97.095,356.424
		c-0.104,13.679,0.071,27.364-0.411,41.035c-0.306,8.671,3.299,14.855,14.894,12.852c18.755-3.242,40.896,9.344,56.373-7.657
		c1.783-1.958,0.471-5.807,0.455-8.78c-0.07-12.488-0.191-24.976-0.295-37.467C152.659,346.349,112.484,346.359,97.095,356.424z
		 M97.092,184.301c-0.102,13.678,0.076,27.362-0.409,41.031c-0.306,8.674,3.299,14.855,14.894,12.854
		c18.755-3.241,40.896,9.341,56.373-7.659c1.783-1.959,0.471-5.808,0.455-8.78c-0.07-12.489-0.191-24.977-0.295-37.466
		C152.659,174.217,112.484,174.227,97.092,184.301z M168.11,270.344c-15.451-10.057-55.626-10.047-71.016,0.018
		c-0.104,13.679,0.074,27.364-0.411,41.035c-0.306,8.671,3.299,14.855,14.894,12.852c18.755-3.243,40.896,9.343,56.373-7.659
		c1.783-1.957,0.471-5.806,0.455-8.778C168.335,295.323,168.214,282.835,168.11,270.344z M326.294,209.414
		c30.953,0,61.901,0.065,92.85-0.053c6.378-0.024,14.515,0.978,14.334-7.203c-0.184-8.136-8.38-6.913-14.685-6.921
		c-60.429-0.098-120.853-0.114-181.276,0.014c-6.137,0.012-14.715-1.746-15.348,6.302c-0.754,9.567,8.848,7.753,15.699,7.796
		C267.344,209.537,296.819,209.43,326.294,209.414z M329.24,381.554c29.462,0,58.934,0.109,88.4-0.084
		c6.832-0.046,16.469,1.8,15.775-7.739c-0.58-8.005-9.146-6.345-15.313-6.356c-60.406-0.122-120.817-0.109-181.226-0.011
		c-6.292,0.007-14.492-1.25-14.731,6.878c-0.239,8.181,7.877,7.224,14.27,7.249C267.357,381.606,298.298,381.54,329.24,381.554z
		 M326.771,295.495c29.467,0,58.937,0.206,88.396-0.151c7.083-0.083,18.488,3.222,18.124-7.473
		c-0.308-9.154-10.546-6.503-17.145-6.527c-58.935-0.197-117.868-0.197-176.8,0c-6.611,0.021-16.844-2.56-17.017,6.625
		c-0.199,10.656,11.18,7.284,18.253,7.375C269.304,295.712,298.041,295.498,326.771,295.495z M295.457,238.078
		c21.371,0,42.743,0.054,64.113-0.033c6.057-0.024,12.383-0.359,12.174-7.242c-0.206-6.861-6.681-6.876-12.634-6.886
		c-41.265-0.064-82.529-0.072-123.796-0.001c-5.789,0.011-12.663-0.492-13.208,6.369c-0.65,8.178,7.035,7.744,13.662,7.777
		C255.663,238.161,275.56,238.098,295.457,238.078z M297.45,410.213c20.633,0,41.271,0.053,61.902-0.034
		c5.993-0.028,12.399-0.169,12.399-7.06c-0.003-6.878-6.394-7.064-12.399-7.075c-41.265-0.067-82.534-0.08-123.802,0
		c-5.729,0.015-12.726-0.658-13.43,6.178c-0.83,8.067,6.66,7.948,13.425,7.973C256.181,410.263,276.816,410.221,297.45,410.213z
		 M295.913,324.157c20.633,0,41.265,0.081,61.898-0.049c6.52-0.035,14.358,0.596,13.89-7.606c-0.391-6.85-7.2-6.513-13.041-6.521
		c-41.265-0.07-82.529-0.063-123.793-0.01c-5.922,0.01-12.587-0.137-12.765,6.734c-0.21,8.215,7.682,7.361,14.127,7.406
		C256.123,324.249,276.018,324.165,295.913,324.157z"/>
	<path fill-rule="evenodd" clip-rule="evenodd" fill="#F9F9F9" d="M44.326,69.308c-3.522-12.747,1.194-18.252,18.913-18.208
		c164.554,0.413,329.113,0.415,493.667,0c17.747-0.046,22.4,5.498,18.898,18.22c-2.788,0.096-5.58,0.193-8.37,0.287
		c-6.621-5.627-15.232-3.472-23.023-3.479c-156.232-0.119-312.47-0.119-468.705,0c-7.79,0.005-16.399-2.143-23.022,3.479
		C49.898,69.508,47.113,69.408,44.326,69.308z"/>
	<path fill-rule="evenodd" clip-rule="evenodd" fill="#F4F5F5" d="M44.326,69.308c2.787,0.1,5.572,0.2,8.358,0.299
		c0.039,9.576,0.078,19.152,0.115,28.728c-0.004,7.163-0.01,14.328-0.017,21.493c-0.009,3.584-0.018,7.169-0.024,10.752
		c0,3.588,0.002,7.174,0.002,10.761c0.017,8.356,0.035,16.711,0.054,25.069c-2.829,0.014-5.656,0.026-8.486,0.04
		C44.329,134.071,44.326,101.689,44.326,69.308z"/>
	<path fill-rule="evenodd" clip-rule="evenodd" fill="#F3F3F4" d="M567.435,69.607c2.79-0.094,5.582-0.191,8.37-0.287
		c0,32.379,0,64.756,0,97.133c-2.833-0.016-5.67-0.034-8.504-0.051c0.018-8.352,0.04-16.704,0.056-25.059c0-3.587,0-7.175,0-10.761
		c-0.003-3.585-0.008-7.17-0.016-10.756c-0.01-7.162-0.013-14.321-0.018-21.483C567.356,88.765,567.396,79.187,567.435,69.607z"/>
	<path fill-rule="evenodd" clip-rule="evenodd" fill="#F4F5F5" d="M44.422,435.402c1.278,1.04,2.559,2.077,3.839,3.12
		C45.013,439.062,43.727,438.032,44.422,435.402z"/>
	<path fill-rule="evenodd" clip-rule="evenodd" fill="#F3F3F4" d="M571.847,438.529c1.29-1.04,2.577-2.08,3.863-3.116
		C576.392,438.046,575.104,439.083,571.847,438.529z"/>
	<path fill-rule="evenodd" clip-rule="evenodd" fill="#CFCFD0" d="M567.356,141.344c-0.016,8.354-0.038,16.707-0.056,25.059
		c-171.496,0.003-342.994,0.005-514.489,0.009c-0.017-8.357-0.035-16.713-0.051-25.069c11.364,2.718,22.882,3.707,34.815,3.693
		c148.321-0.174,296.643-0.172,444.963,0C544.472,145.049,555.987,144.065,567.356,141.344z"/>
	<path fill-rule="evenodd" clip-rule="evenodd" fill="#BFBEBE" d="M326.294,209.421c-29.475,0.009-58.95,0.116-88.426-0.072
		c-6.851-0.043-16.453,1.771-15.699-7.796c0.632-8.048,9.211-6.29,15.348-6.302c60.423-0.128,120.847-0.112,181.276-0.014
		c6.305,0.008,14.501-1.215,14.685,6.921c0.181,8.181-7.956,7.179-14.334,7.203C388.195,209.479,357.247,209.414,326.294,209.421z"
		/>
	<path fill-rule="evenodd" clip-rule="evenodd" fill="#BFBEBE" d="M329.24,381.547c-30.942-0.008-61.883,0.059-92.824-0.057
		c-6.393-0.025-14.509,0.932-14.27-7.249c0.239-8.128,8.439-6.871,14.731-6.878c60.409-0.098,120.819-0.111,181.226,0.011
		c6.166,0.011,14.732-1.649,15.313,6.356c0.693,9.539-8.943,7.693-15.775,7.739C388.174,381.663,358.702,381.554,329.24,381.547z"/>
	<path fill-rule="evenodd" clip-rule="evenodd" fill="#BFBEBE" d="M326.771,295.498c-28.73,0-57.468,0.214-86.188-0.154
		c-7.074-0.091-18.452,3.281-18.253-7.375c0.173-9.186,10.406-6.605,17.017-6.625c58.932-0.197,117.865-0.197,176.8,0
		c6.599,0.024,16.837-2.626,17.145,6.527c0.364,10.695-11.041,7.389-18.124,7.473C385.708,295.701,356.238,295.495,326.771,295.498z
		"/>
	<path fill-rule="evenodd" clip-rule="evenodd" fill="#A7A9AC" d="M168.11,270.344c0.104,12.491,0.225,24.979,0.295,37.467
		c0.016,2.972,1.328,6.821-0.455,8.778c-15.477,17.002-37.618,4.417-56.373,7.659c-11.595,2.003-15.199-4.181-14.894-12.852
		c0.485-13.671,0.307-27.356,0.411-41.035c1.378,0.221,3.546,0.063,4.017,0.715c5.299,7.318-5.264,18.91,7.359,23.399
		c11.804,4.195,21.931-6.461,32.737-6.667C157.374,287.503,161.165,278.086,168.11,270.344z M126.988,307.594
		c11.45,2.683,21.256,4.881,29.601-2.234c2.62-2.228,3.259-6.031-0.336-7.726c-11-5.204-18.886,1.982-27.586,5.463
		C127.879,303.416,127.892,305.037,126.988,307.594z"/>
	<path fill-rule="evenodd" clip-rule="evenodd" fill="#A7A9AC" d="M168.11,184.281c0.104,12.489,0.225,24.977,0.295,37.466
		c0.016,2.972,1.328,6.821-0.455,8.78c-15.477,17-37.618,4.417-56.373,7.659c-11.595,2.001-15.199-4.18-14.894-12.854
		c0.485-13.669,0.307-27.354,0.409-41.031c1.38,0.217,3.548,0.061,4.019,0.71c5.301,7.319-5.264,18.91,7.359,23.4
		c11.804,4.197,21.931-6.459,32.737-6.665C157.375,201.44,161.165,192.02,168.11,184.281z M126.754,220.52
		c10.256,4.663,20.123,5.502,29.541-0.882c2.794-1.895,3.726-5.925,0.325-7.757c-10.875-5.854-18.801,1.536-27.507,4.923
		C128.173,217.169,127.896,218.645,126.754,220.52z"/>
	<path fill-rule="evenodd" clip-rule="evenodd" fill="#A7A9AC" d="M168.11,356.406c0.104,12.491,0.225,24.979,0.295,37.467
		c0.016,2.973,1.328,6.822-0.455,8.78c-15.477,17.001-37.618,4.415-56.373,7.657c-11.595,2.004-15.199-4.181-14.894-12.852
		c0.482-13.671,0.307-27.356,0.411-41.035c1.378,0.221,3.546,0.063,4.017,0.715c5.299,7.319-5.264,18.91,7.359,23.399
		c11.8,4.195,21.931-6.44,32.739-6.66C157.358,373.552,161.169,364.153,168.11,356.406z M122.437,391.184
		c14.967,5.848,24.885,7.221,34.097,0.266c2.731-2.066,3.387-6.101-0.213-7.704C144.295,378.388,136.5,386.418,122.437,391.184z"/>
	<path fill-rule="evenodd" clip-rule="evenodd" fill="#BFBEBE" d="M295.457,238.088c-19.897,0.01-39.794,0.073-59.689-0.026
		c-6.627-0.034-14.312,0.4-13.662-7.777c0.545-6.86,7.42-6.358,13.208-6.369c41.267-0.07,82.531-0.063,123.796,0.001
		c5.953,0.009,12.428,0.025,12.634,6.886c0.209,6.882-6.117,7.217-12.174,7.242C338.2,238.131,316.828,238.078,295.457,238.088z"/>
	<path fill-rule="evenodd" clip-rule="evenodd" fill="#BFBEBE" d="M297.45,410.213c-20.634,0.008-41.27,0.05-61.904-0.018
		c-6.766-0.024-14.255,0.095-13.425-7.973c0.704-6.836,7.701-6.164,13.43-6.178c41.268-0.08,82.537-0.067,123.802,0
		c6.006,0.011,12.396,0.196,12.399,7.075c0,6.891-6.406,7.031-12.399,7.06C338.722,410.266,318.083,410.213,297.45,410.213z"/>
	<path fill-rule="evenodd" clip-rule="evenodd" fill="#BFBEBE" d="M295.913,324.162c-19.895,0.003-39.79,0.087-59.684-0.05
		c-6.446-0.045-14.338,0.809-14.127-7.406c0.178-6.871,6.843-6.724,12.765-6.734c41.265-0.053,82.529-0.06,123.793,0.01
		c5.841,0.007,12.65-0.329,13.041,6.521c0.469,8.202-7.37,7.571-13.89,7.606C337.178,324.238,316.546,324.157,295.913,324.162z"/>
	<path fill-rule="evenodd" clip-rule="evenodd" fill="#58595B" d="M168.11,270.344c-6.946,7.743-10.736,17.16-26.902,17.464
		c-10.806,0.207-20.934,10.863-32.737,6.667c-12.624-4.49-2.061-16.081-7.359-23.399c-0.471-0.652-2.639-0.494-4.017-0.715
		C112.484,260.297,152.659,260.287,168.11,270.344z"/>
	<path fill-rule="evenodd" clip-rule="evenodd" fill="#6D6E71" d="M168.11,356.406c-6.941,7.747-10.752,17.146-26.901,17.472
		c-10.808,0.22-20.939,10.855-32.739,6.66c-12.624-4.489-2.061-16.081-7.359-23.399c-0.471-0.651-2.639-0.494-4.017-0.715
		C112.484,346.359,152.659,346.349,168.11,356.406z"/>
	<path fill-rule="evenodd" clip-rule="evenodd" fill="#808285" d="M168.11,184.281c-6.946,7.739-10.735,17.159-26.902,17.465
		c-10.806,0.205-20.934,10.861-32.737,6.665c-12.624-4.49-2.058-16.081-7.359-23.4c-0.471-0.65-2.639-0.494-4.019-0.71
		C112.484,174.227,152.659,174.217,168.11,184.281z"/>
	<path fill-rule="evenodd" clip-rule="evenodd" fill="#E6E7E8" d="M567.435,69.607c-0.039,9.58-0.078,19.157-0.111,28.737
		c-39.767,8.643-80.198,1.049-120.351,2.751c-48.045,2.036-96.471-1.265-144.701-2.867c-83.169-2.765-166.315,5.382-249.472,0.106
		c-0.037-9.576-0.076-19.152-0.115-28.728c6.623-5.622,15.232-3.474,23.022-3.479c156.235-0.119,312.472-0.119,468.705,0
		C552.202,66.136,560.813,63.98,567.435,69.607z M107.162,95.632c4.803-4.46,18.235,4.705,17.775-6.666
		c-0.285-7.011-10.542-8.691-19.315-8.641c-8.841,0.051-19.114,2.15-18.787,9.11C87.307,99.457,99.807,92.292,107.162,95.632z
		 M390.809,95.312c4.773-4.054,17.694,4.769,18.34-5.691c0.429-6.986-9.783-9.259-18.652-9.271
		c-9.567-0.014-20.441,1.861-19.808,10.108C371.284,98.187,382.961,93.202,390.809,95.312z M460.824,95.052
		c6.127-2.798,18.588,4.482,19.29-5.437c0.489-6.959-9.763-9.254-18.631-9.266c-9.567-0.014-20.441,1.861-19.809,10.108
		C442.271,98.187,453.948,93.202,460.824,95.052z M532.384,95.3c5.043-3.829,17.817,4.547,18.716-5.563
		c0.616-6.944-9.596-9.319-18.491-9.401c-9.662-0.091-20.52,1.952-20.13,9.989C512.864,98.19,524.628,93.191,532.384,95.3z"/>
	<path fill-rule="evenodd" clip-rule="evenodd" fill="#D8D8D9" d="M52.799,98.335c83.157,5.276,166.303-2.872,249.472-0.106
		c48.23,1.602,96.656,4.903,144.701,2.867c40.152-1.703,80.584,5.892,120.351-2.751c0.005,7.162,0.008,14.321,0.018,21.483
		c-4.503-1.21-9.004-2.42-13.502-3.632c-9.896-8.237-35.397-10.28-44.99-3.453c-0.507,0.358,0.597,2.194,0.952,3.342
		c-8.941,5.593-17.886,5.564-26.822-0.003c-12.05-10.062-32.085-10.062-44.133,0.001c-8.952,5.579-17.904,5.579-26.854-0.001
		c-12.05-10.062-32.084-10.062-44.133,0.001c-9.598,6.529-21.07,7.363-32.959,7.35c-57.966-0.061-115.932-0.061-173.899,0
		c-11.887,0.013-23.363-0.821-32.957-7.352c-12.051-10.062-32.083-10.062-44.133,0.001c-9.322,6.972-20.768,2.408-31.127,3.745
		C52.789,112.664,52.795,105.499,52.799,98.335z"/>
	<path fill-rule="evenodd" clip-rule="evenodd" fill="#D3D3D4" d="M567.356,141.344c-11.369,2.722-22.885,3.706-34.817,3.692
		c-148.32-0.172-296.642-0.174-444.963,0c-11.933,0.014-23.452-0.976-34.815-3.693c0-3.587-0.002-7.173-0.002-10.761
		c14.452-3.682,32.612,7.82,44.33-7.072c5.925,0,11.852,0,17.777,0.002c1.872,8.604,10.289,7.016,17.32,7.021
		c77.177,0.072,154.354,0.072,231.532,0c7.03-0.005,15.449,1.583,17.317-7.023c5.927,0,11.854,0,17.781,0.002
		c12.278,10.125,40.926,10.125,53.205-0.002c5.927,0,11.855,0,17.781,0.002c12.278,10.125,40.927,10.125,53.205,0
		c5.928,0,11.856,0,17.782,0c4.705,12.549,17.669,4.818,26.567,7.072C567.356,134.169,567.356,137.756,567.356,141.344z"/>
	<path fill-rule="evenodd" clip-rule="evenodd" fill="#D5D5D6" d="M97.088,123.511c-11.718,14.89-29.878,3.388-44.33,7.07
		c0.006-3.583,0.015-7.168,0.024-10.752c10.359-1.337,21.806,3.227,31.127-3.744C88.302,118.561,92.695,121.035,97.088,123.511z"/>
	<path fill-rule="evenodd" clip-rule="evenodd" fill="#D5D5D6" d="M567.356,130.583c-8.898-2.253-21.862,5.477-26.567-7.074
		c4.346-2.439,8.696-4.876,13.042-7.313c4.506,1.211,9.007,2.421,13.51,3.632C567.349,123.413,567.354,126.998,567.356,130.583z"/>
	<path fill-rule="evenodd" clip-rule="evenodd" fill="#6D6E71" d="M126.988,307.594c0.904-2.557,0.891-4.178,1.679-4.497
		c8.7-3.481,16.585-10.667,27.586-5.463c3.595,1.695,2.956,5.498,0.336,7.726C148.244,312.475,138.438,310.276,126.988,307.594z"/>
	<path fill-rule="evenodd" clip-rule="evenodd" fill="#939598" d="M126.754,220.52c1.142-1.875,1.419-3.351,2.359-3.716
		c8.706-3.387,16.631-10.777,27.507-4.923c3.401,1.832,2.469,5.862-0.325,7.757C146.877,226.022,137.011,225.183,126.754,220.52z"/>
	<path fill-rule="evenodd" clip-rule="evenodd" fill="#6D6E71" d="M122.437,391.184c14.063-4.766,21.858-12.796,33.884-7.438
		c3.6,1.604,2.944,5.638,0.213,7.704C147.322,398.405,137.404,397.032,122.437,391.184z"/>
	<path fill-rule="evenodd" clip-rule="evenodd" fill="#E6E7E8" d="M107.162,95.632c-7.355-3.341-19.855,3.824-20.327-6.197
		c-0.328-6.96,9.945-9.059,18.787-9.11c8.773-0.051,19.031,1.63,19.315,8.641C125.396,100.337,111.964,91.172,107.162,95.632z"/>
	<path fill-rule="evenodd" clip-rule="evenodd" fill="#E6E7E8" d="M390.809,95.312c-7.848-2.11-19.524,2.875-20.12-4.854
		c-0.634-8.247,10.24-10.122,19.808-10.108c8.869,0.012,19.081,2.285,18.652,9.271C408.503,100.081,395.582,91.258,390.809,95.312z"
		/>
	<path fill-rule="evenodd" clip-rule="evenodd" fill="#E6E7E8" d="M460.824,95.052c-6.876-1.851-18.553,3.135-19.149-4.594
		c-0.633-8.247,10.241-10.122,19.809-10.108c8.868,0.012,19.12,2.306,18.631,9.266C479.412,99.535,466.951,92.254,460.824,95.052z"
		/>
	<path fill-rule="evenodd" clip-rule="evenodd" fill="#E6E7E8" d="M532.384,95.3c-7.756-2.108-19.52,2.89-19.905-4.975
		c-0.39-8.037,10.468-10.081,20.13-9.989c8.896,0.082,19.107,2.457,18.491,9.401C550.201,99.847,537.427,91.471,532.384,95.3z"/>
	<path fill-rule="evenodd" clip-rule="evenodd" fill="#D5D5D6" d="M381.034,123.511c-1.868,8.604-10.287,7.016-17.317,7.021
		c-77.178,0.072-154.355,0.072-231.532,0c-7.031-0.005-15.448,1.583-17.32-7.023c4.394-2.476,8.784-4.952,13.178-7.427
		c9.594,6.531,21.07,7.364,32.957,7.352c57.967-0.061,115.934-0.061,173.899,0c11.889,0.013,23.361-0.821,32.959-7.349
		C372.248,118.561,376.64,121.035,381.034,123.511z"/>
	<path fill-rule="evenodd" clip-rule="evenodd" fill="#D5D5D6" d="M452.021,123.511c-12.279,10.125-40.927,10.125-53.205-0.002
		c4.389-2.476,8.781-4.952,13.176-7.427c8.95,5.58,17.902,5.58,26.854,0.003C443.234,118.561,447.627,121.035,452.021,123.511z"/>
	<path fill-rule="evenodd" clip-rule="evenodd" fill="#D5D5D6" d="M523.007,123.511c-12.278,10.125-40.927,10.125-53.205-0.002
		c4.39-2.476,8.782-4.952,13.177-7.427c8.937,5.567,17.881,5.596,26.822,0.003C514.203,118.563,518.606,121.037,523.007,123.511z"/>
	<path fill-rule="evenodd" clip-rule="evenodd" fill="#6D6E71" d="M523.007,123.511c-4.4-2.475-8.804-4.948-13.206-7.426
		c-0.355-1.148-1.459-2.984-0.952-3.342c9.593-6.828,35.094-4.784,44.99,3.453c-4.354,2.438-8.704,4.875-13.05,7.313
		C534.863,123.511,528.935,123.511,523.007,123.511z"/>
	<path fill-rule="evenodd" clip-rule="evenodd" fill="#58595B" d="M482.979,116.082c-4.395,2.475-8.787,4.951-13.177,7.427
		c-5.926,0-11.854,0-17.781,0c-4.394-2.474-8.786-4.948-13.175-7.424C450.894,106.021,470.929,106.021,482.979,116.082z"/>
	<path fill-rule="evenodd" clip-rule="evenodd" fill="#6D6E71" d="M411.991,116.082c-4.395,2.475-8.787,4.951-13.176,7.427
		c-5.927,0-11.854,0-17.781,0c-4.395-2.474-8.786-4.948-13.176-7.424C379.907,106.021,399.941,106.021,411.991,116.082z"/>
	<path fill-rule="evenodd" clip-rule="evenodd" fill="#6D6E71" d="M128.043,116.082c-4.394,2.475-8.784,4.951-13.178,7.427
		c-5.925,0-11.852,0-17.777,0c-4.393-2.474-8.787-4.948-13.178-7.424C95.959,106.021,115.992,106.021,128.043,116.082z"/>
</g>
</svg>
