<?xml version="1.0" encoding="utf-8"?>
<!-- Generator: Adobe Illustrator 16.0.0, SVG Export Plug-In . SVG Version: 6.00 Build 0)  -->
<!DOCTYPE svg PUBLIC "-//W3C//DTD SVG 1.1//EN" "http://www.w3.org/Graphics/SVG/1.1/DTD/svg11.dtd">
<svg version="1.1" id="Layer_1" xmlns="http://www.w3.org/2000/svg" xmlns:xlink="http://www.w3.org/1999/xlink" x="0px" y="0px"
	 width="612px" height="792px" viewBox="0 0 612 792" enable-background="new 0 0 612 792" xml:space="preserve">
<g>
	<path fill="none" d="M22.056,532.707c0-72.915,0.229-145.83-0.292-218.741c-0.065-8.97,2.511-11.01,13.603-10.989
		c180.424,0.324,360.854,0.324,541.274,0c11.092-0.021,13.622,2.022,13.597,10.987c-0.401,145.828-0.401,291.659,0,437.485
		c0.025,8.966-2.505,11.01-13.597,10.989c-180.422-0.326-360.851-0.326-541.274,0c-11.092,0.021-13.667-2.021-13.603-10.989
		C22.285,678.537,22.056,605.624,22.056,532.707z M40.266,349.514c0,32.381,0.002,64.763,0.002,97.143
		c0.031,89.649,0.063,179.299,0.093,268.951c-0.695,2.63,0.591,3.657,3.839,3.118c59.639,0.258,119.278,0.76,178.918,0.72
		c114.886-0.073,229.776-0.458,344.667-0.711c3.257,0.554,4.545-0.483,3.863-3.116c0.035-89.652,0.062-179.305,0.095-268.96
		c0-32.377,0-64.754,0-97.133c3.502-12.722-1.149-18.266-18.896-18.22c-164.557,0.415-329.113,0.413-493.667,0
		C41.46,331.262,36.744,336.767,40.266,349.514z"/>
	<path fill="#D1D3D4" d="M571.744,446.659c-0.033,89.655-0.06,179.308-0.095,268.96c-1.286,1.036-2.573,2.076-3.863,3.116
		c-114.891,0.253-229.779,0.638-344.667,0.711c-59.641,0.04-119.279-0.462-178.918-0.718c-1.281-1.045-2.561-2.08-3.839-3.12
		c-0.03-89.652-0.063-179.302-0.093-268.951c2.83-0.015,5.657-0.026,8.483-0.04c171.495-0.004,342.993-0.005,514.485-0.01
		C566.074,446.625,568.911,446.643,571.744,446.659z M93.035,636.63c-0.104,13.679,0.071,27.364-0.411,41.035
		c-0.306,8.671,3.299,14.855,14.894,12.852c18.755-3.24,40.896,9.346,56.373-7.655c1.783-1.958,0.471-5.809,0.455-8.78
		c-0.07-12.487-0.191-24.976-0.295-37.467C148.599,626.555,108.423,626.564,93.035,636.63z M93.031,464.507
		c-0.102,13.679,0.076,27.362-0.409,41.031c-0.306,8.674,3.299,14.854,14.894,12.854c18.755-3.242,40.896,9.34,56.373-7.66
		c1.783-1.959,0.471-5.808,0.455-8.779c-0.07-12.489-0.191-24.977-0.295-37.466C148.599,454.423,108.423,454.434,93.031,464.507z
		 M164.049,550.55c-15.451-10.057-55.626-10.047-71.016,0.019c-0.104,13.679,0.074,27.363-0.411,41.035
		c-0.306,8.67,3.299,14.854,14.894,12.852c18.755-3.243,40.896,9.343,56.373-7.659c1.783-1.957,0.471-5.806,0.455-8.778
		C164.274,575.529,164.153,563.041,164.049,550.55z M322.233,489.62c30.953,0,61.901,0.065,92.85-0.054
		c6.38-0.023,14.517,0.979,14.335-7.202c-0.185-8.136-8.381-6.913-14.686-6.921c-60.429-0.098-120.853-0.114-181.276,0.014
		c-6.137,0.012-14.715-1.746-15.348,6.302c-0.754,9.567,8.848,7.753,15.699,7.796C263.283,489.743,292.758,489.637,322.233,489.62z
		 M325.18,661.76c29.462,0,58.934,0.109,88.398-0.084c6.832-0.046,16.471,1.801,15.775-7.738c-0.58-8.006-9.146-6.346-15.313-6.356
		c-60.404-0.122-120.815-0.108-181.226-0.011c-6.292,0.007-14.492-1.25-14.731,6.878c-0.239,8.181,7.877,7.224,14.27,7.249
		C263.296,661.813,294.237,661.746,325.18,661.76z M322.711,575.701c29.467,0,58.937,0.206,88.396-0.151
		c7.083-0.083,18.488,3.222,18.124-7.473c-0.308-9.154-10.546-6.503-17.145-6.527c-58.937-0.196-117.87-0.196-176.8,0
		c-6.611,0.021-16.844-2.56-17.017,6.625c-0.199,10.656,11.18,7.284,18.253,7.375C265.244,575.918,293.98,575.704,322.711,575.701z
		 M291.396,518.284c21.371,0,42.743,0.054,64.113-0.033c6.057-0.024,12.383-0.358,12.174-7.242
		c-0.206-6.86-6.681-6.876-12.634-6.886c-41.267-0.064-82.529-0.072-123.796-0.001c-5.789,0.011-12.663-0.492-13.208,6.369
		c-0.65,8.178,7.035,7.743,13.662,7.776C251.603,518.367,271.5,518.305,291.396,518.284z M293.39,690.419
		c20.633,0,41.271,0.053,61.9-0.034c5.993-0.026,12.399-0.169,12.399-7.06c-0.003-6.878-6.394-7.064-12.399-7.075
		c-41.265-0.066-82.534-0.08-123.802,0c-5.729,0.015-12.726-0.658-13.43,6.178c-0.83,8.067,6.66,7.948,13.425,7.975
		C252.121,690.469,272.755,690.427,293.39,690.419z M291.853,604.363c20.633,0,41.265,0.08,61.896-0.049
		c6.521-0.035,14.358,0.596,13.892-7.606c-0.393-6.851-7.2-6.513-13.041-6.521c-41.267-0.07-82.529-0.063-123.793-0.01
		c-5.922,0.01-12.587-0.138-12.765,6.733c-0.21,8.215,7.682,7.36,14.127,7.405C252.063,604.455,271.958,604.371,291.853,604.363z"/>
	<path fill="#F9F9F9" d="M40.266,349.514c-3.522-12.747,1.194-18.252,18.913-18.208c164.554,0.413,329.113,0.415,493.667,0
		c17.747-0.046,22.398,5.498,18.896,18.22c-2.788,0.096-5.58,0.193-8.37,0.287c-6.62-5.627-15.23-3.472-23.021-3.479
		c-156.232-0.119-312.47-0.119-468.705,0c-7.79,0.005-16.399-2.143-23.022,3.479C45.837,349.714,43.052,349.614,40.266,349.514z"/>
	<path fill="#F4F5F5" d="M40.266,349.514c2.787,0.1,5.572,0.2,8.358,0.299c0.039,9.576,0.078,19.152,0.115,28.728
		c-0.004,7.163-0.01,14.328-0.017,21.493c-0.009,3.584-0.018,7.169-0.024,10.752c0,3.588,0.002,7.174,0.002,10.761
		c0.017,8.356,0.035,16.711,0.054,25.069c-2.829,0.014-5.656,0.026-8.486,0.04C40.269,414.277,40.266,381.895,40.266,349.514z"/>
	<path fill="#F3F3F4" d="M563.374,349.813c2.79-0.094,5.582-0.191,8.37-0.287c0,32.379,0,64.756,0,97.133
		c-2.833-0.017-5.67-0.034-8.504-0.052c0.02-8.352,0.04-16.703,0.058-25.059c0-3.587,0-7.175,0-10.761
		c-0.005-3.585-0.01-7.17-0.018-10.756c-0.01-7.162-0.013-14.321-0.018-21.483C563.296,368.971,563.336,359.393,563.374,349.813z"/>
	<path fill="#F4F5F5" d="M40.361,715.608c1.278,1.04,2.559,2.075,3.839,3.12C40.953,719.269,39.667,718.238,40.361,715.608z"/>
	<path fill="#F3F3F4" d="M567.786,718.735c1.29-1.04,2.577-2.08,3.863-3.116C572.331,718.252,571.043,719.289,567.786,718.735z"/>
	<path fill="#CFCFD0" d="M563.296,421.55c-0.018,8.354-0.038,16.707-0.058,25.06c-171.496,0.003-342.994,0.005-514.489,0.009
		c-0.017-8.356-0.035-16.713-0.051-25.069c11.364,2.719,22.882,3.707,34.815,3.693c148.321-0.174,296.643-0.172,444.963,0
		C540.411,425.255,551.927,424.271,563.296,421.55z"/>
	<path fill="#BFBEBE" d="M322.233,489.627c-29.475,0.01-58.95,0.116-88.426-0.072c-6.851-0.043-16.453,1.771-15.699-7.796
		c0.632-8.048,9.211-6.29,15.348-6.302c60.423-0.128,120.847-0.111,181.276-0.014c6.305,0.008,14.501-1.215,14.685,6.921
		c0.183,8.181-7.954,7.179-14.334,7.202C384.135,489.686,353.187,489.62,322.233,489.627z"/>
	<path fill="#BFBEBE" d="M325.18,661.753c-30.942-0.008-61.883,0.06-92.824-0.057c-6.393-0.025-14.509,0.932-14.27-7.249
		c0.239-8.129,8.439-6.871,14.731-6.879c60.409-0.098,120.819-0.11,181.226,0.012c6.166,0.011,14.732-1.648,15.313,6.355
		c0.693,9.539-8.943,7.693-15.775,7.739C384.113,661.869,354.642,661.76,325.18,661.753z"/>
	<path fill="#BFBEBE" d="M322.711,575.704c-28.73,0-57.468,0.214-86.188-0.154c-7.074-0.091-18.452,3.281-18.253-7.375
		c0.173-9.186,10.406-6.604,17.017-6.625c58.932-0.196,117.865-0.196,176.799,0c6.6,0.024,16.838-2.626,17.146,6.527
		c0.364,10.694-11.041,7.389-18.124,7.473C381.647,575.907,352.178,575.701,322.711,575.704z"/>
	<path fill="#A7A9AC" d="M164.049,550.55c0.104,12.491,0.225,24.979,0.295,37.468c0.016,2.972,1.328,6.82-0.455,8.777
		c-15.477,17.002-37.618,4.417-56.373,7.659c-11.595,2.003-15.199-4.181-14.894-12.853c0.485-13.67,0.307-27.355,0.411-41.035
		c1.378,0.222,3.546,0.063,4.017,0.716c5.299,7.317-5.264,18.909,7.359,23.399c11.804,4.194,21.931-6.461,32.737-6.668
		C153.313,567.709,157.104,558.292,164.049,550.55z M122.927,587.8c11.45,2.683,21.256,4.882,29.601-2.233
		c2.62-2.229,3.259-6.031-0.336-7.727c-11-5.203-18.886,1.982-27.586,5.463C123.818,583.622,123.832,585.243,122.927,587.8z"/>
	<path fill="#A7A9AC" d="M164.049,464.487c0.104,12.489,0.225,24.977,0.295,37.466c0.016,2.972,1.328,6.82-0.455,8.779
		c-15.477,17-37.618,4.418-56.373,7.66c-11.595,2-15.199-4.181-14.894-12.854c0.485-13.669,0.307-27.354,0.409-41.031
		c1.38,0.218,3.548,0.062,4.019,0.71c5.301,7.319-5.264,18.91,7.359,23.4c11.804,4.197,21.931-6.459,32.737-6.665
		C153.314,481.646,157.104,472.227,164.049,464.487z M122.693,500.727c10.256,4.662,20.123,5.502,29.541-0.883
		c2.794-1.895,3.726-5.925,0.325-7.757c-10.875-5.854-18.801,1.536-27.507,4.923C124.112,497.375,123.835,498.852,122.693,500.727z"
		/>
	<path fill="#A7A9AC" d="M164.049,636.612c0.104,12.491,0.225,24.979,0.295,37.467c0.016,2.973,1.328,6.822-0.455,8.78
		c-15.477,17.001-37.618,4.415-56.373,7.655c-11.595,2.006-15.199-4.181-14.894-12.852c0.482-13.671,0.307-27.356,0.411-41.035
		c1.378,0.222,3.546,0.063,4.017,0.716c5.299,7.318-5.264,18.909,7.359,23.398c11.8,4.195,21.931-6.439,32.739-6.66
		C153.297,653.758,157.108,644.359,164.049,636.612z M118.376,671.391c14.967,5.848,24.885,7.221,34.097,0.266
		c2.731-2.066,3.387-6.102-0.213-7.704C140.234,658.594,132.439,666.624,118.376,671.391z"/>
	<path fill="#BFBEBE" d="M291.396,518.294c-19.897,0.011-39.794,0.073-59.689-0.026c-6.627-0.033-14.312,0.4-13.662-7.776
		c0.545-6.86,7.42-6.358,13.208-6.369c41.267-0.069,82.531-0.063,123.796,0.001c5.951,0.009,12.428,0.025,12.634,6.886
		c0.209,6.882-6.117,7.218-12.174,7.242C334.14,518.337,312.768,518.284,291.396,518.294z"/>
	<path fill="#BFBEBE" d="M293.39,690.419c-20.634,0.008-41.27,0.05-61.904-0.018c-6.766-0.024-14.255,0.095-13.425-7.975
		c0.704-6.835,7.701-6.164,13.43-6.178c41.268-0.08,82.537-0.067,123.804,0c6.006,0.011,12.396,0.196,12.397,7.075
		c0,6.891-6.406,7.031-12.397,7.06C334.661,690.472,314.022,690.419,293.39,690.419z"/>
	<path fill="#BFBEBE" d="M291.853,604.368c-19.895,0.003-39.79,0.087-59.684-0.05c-6.446-0.045-14.338,0.809-14.127-7.406
		c0.178-6.871,6.843-6.725,12.765-6.734c41.265-0.053,82.529-0.06,123.793,0.01c5.841,0.008,12.648-0.328,13.041,6.521
		c0.469,8.202-7.37,7.571-13.892,7.605C333.117,604.443,312.485,604.363,291.853,604.368z"/>
	<path fill="#58595B" d="M164.049,550.55c-6.946,7.743-10.736,17.16-26.902,17.464c-10.806,0.207-20.934,10.863-32.737,6.668
		c-12.624-4.49-2.061-16.082-7.359-23.399c-0.471-0.652-2.639-0.494-4.017-0.716C108.423,540.503,148.599,540.493,164.049,550.55z"
		/>
	<path fill="#6D6E71" d="M164.049,636.612c-6.941,7.747-10.752,17.146-26.901,17.472c-10.808,0.221-20.939,10.855-32.739,6.66
		c-12.624-4.489-2.061-16.081-7.359-23.398c-0.471-0.652-2.639-0.494-4.017-0.716C108.423,626.564,148.599,626.555,164.049,636.612z
		"/>
	<path fill="#808285" d="M164.049,464.487c-6.946,7.739-10.735,17.159-26.902,17.465c-10.806,0.205-20.934,10.86-32.737,6.665
		c-12.624-4.49-2.058-16.081-7.359-23.4c-0.471-0.65-2.639-0.494-4.019-0.71C108.423,454.434,148.599,454.423,164.049,464.487z"/>
	<path fill="#E6E7E8" d="M563.374,349.813c-0.038,9.58-0.076,19.157-0.109,28.737c-39.769,8.643-80.198,1.049-120.353,2.751
		c-48.045,2.036-96.471-1.265-144.701-2.867c-83.169-2.765-166.315,5.382-249.472,0.106c-0.037-9.576-0.076-19.152-0.115-28.728
		c6.623-5.622,15.232-3.474,23.022-3.479c156.235-0.119,312.472-0.119,468.705,0C548.142,346.342,556.752,344.186,563.374,349.813z
		 M103.102,375.838c4.803-4.46,18.235,4.705,17.775-6.666c-0.285-7.011-10.542-8.691-19.315-8.641
		c-8.841,0.051-19.114,2.15-18.787,9.11C83.247,379.663,95.747,372.498,103.102,375.838z M386.748,375.518
		c4.773-4.054,17.694,4.769,18.342-5.691c0.429-6.986-9.783-9.259-18.652-9.271c-9.567-0.014-20.441,1.861-19.808,10.108
		C367.224,378.393,378.9,373.408,386.748,375.518z M456.764,375.258c6.127-2.798,18.588,4.482,19.29-5.437
		c0.489-6.959-9.765-9.254-18.631-9.266c-9.567-0.014-20.441,1.861-19.811,10.108C438.211,378.393,449.888,373.408,456.764,375.258z
		 M528.323,375.506c5.043-3.829,17.817,4.547,18.716-5.563c0.616-6.944-9.596-9.319-18.489-9.401
		c-9.662-0.091-20.521,1.952-20.132,9.989C508.804,378.396,520.567,373.397,528.323,375.506z"/>
	<path fill="#D8D8D9" d="M48.738,378.541c83.157,5.276,166.303-2.872,249.472-0.106c48.23,1.602,96.656,4.903,144.701,2.867
		c40.152-1.703,80.584,5.892,120.353-2.751c0.005,7.162,0.008,14.321,0.018,21.483c-4.503-1.21-9.004-2.42-13.502-3.632
		c-9.896-8.237-35.396-10.28-44.99-3.453c-0.507,0.358,0.599,2.194,0.952,3.342c-8.939,5.593-17.886,5.564-26.821-0.003
		c-12.051-10.062-32.086-10.062-44.134,0.001c-8.952,5.579-17.902,5.579-26.854-0.001c-12.05-10.062-32.084-10.062-44.133,0.001
		c-9.6,6.529-21.07,7.363-32.959,7.35c-57.966-0.061-115.934-0.061-173.899,0c-11.887,0.014-23.363-0.82-32.957-7.352
		c-12.051-10.062-32.083-10.062-44.133,0.001c-9.322,6.972-20.768,2.408-31.127,3.745C48.729,392.87,48.734,385.705,48.738,378.541z
		"/>
	<path fill="#D3D3D4" d="M563.296,421.55c-11.369,2.722-22.887,3.706-34.817,3.692c-148.32-0.172-296.642-0.174-444.963,0
		c-11.933,0.014-23.452-0.977-34.815-3.693c0-3.587-0.002-7.173-0.002-10.761c14.452-3.683,32.612,7.819,44.33-7.072
		c5.925,0,11.852,0,17.777,0.003c1.872,8.604,10.289,7.016,17.32,7.021c77.177,0.071,154.354,0.071,231.532,0
		c7.03-0.005,15.449,1.583,17.317-7.023c5.927,0,11.854,0,17.781,0.003c12.276,10.124,40.926,10.124,53.205-0.003
		c5.927,0,11.854,0,17.779,0.003c12.278,10.124,40.927,10.124,53.205,0c5.928,0,11.856,0,17.782,0
		c4.705,12.549,17.669,4.817,26.567,7.071C563.296,414.375,563.296,417.962,563.296,421.55z"/>
	<path fill="#D5D5D6" d="M93.027,403.717c-11.718,14.891-29.878,3.389-44.33,7.07c0.006-3.583,0.015-7.168,0.024-10.752
		c10.359-1.337,21.806,3.227,31.127-3.744C84.241,398.768,88.634,401.241,93.027,403.717z"/>
	<path fill="#D5D5D6" d="M563.296,410.789c-8.898-2.253-21.862,5.477-26.567-7.074c4.346-2.439,8.696-4.876,13.042-7.313
		c4.506,1.211,9.007,2.421,13.51,3.632C563.288,403.619,563.293,407.204,563.296,410.789z"/>
	<path fill="#6D6E71" d="M122.927,587.8c0.904-2.557,0.891-4.178,1.679-4.497c8.7-3.48,16.585-10.666,27.586-5.463
		c3.595,1.695,2.956,5.498,0.336,7.727C144.184,592.682,134.377,590.482,122.927,587.8z"/>
	<path fill="#939598" d="M122.693,500.727c1.142-1.875,1.419-3.352,2.359-3.717c8.706-3.387,16.631-10.777,27.507-4.923
		c3.401,1.832,2.469,5.862-0.325,7.757C142.816,506.229,132.951,505.389,122.693,500.727z"/>
	<path fill="#6D6E71" d="M118.376,671.391c14.063-4.767,21.858-12.797,33.884-7.438c3.6,1.604,2.944,5.638,0.213,7.704
		C143.261,678.611,133.343,677.238,118.376,671.391z"/>
	<path fill="#E6E7E8" d="M103.102,375.838c-7.355-3.341-19.855,3.824-20.327-6.197c-0.328-6.96,9.945-9.059,18.787-9.11
		c8.773-0.051,19.031,1.63,19.315,8.641C121.335,380.543,107.903,371.378,103.102,375.838z"/>
	<path fill="#E6E7E8" d="M386.748,375.518c-7.848-2.11-19.522,2.875-20.118-4.854c-0.636-8.247,10.238-10.122,19.808-10.108
		c8.869,0.012,19.081,2.285,18.652,9.271C404.442,380.287,391.521,371.464,386.748,375.518z"/>
	<path fill="#E6E7E8" d="M456.764,375.258c-6.876-1.851-18.553,3.135-19.149-4.594c-0.633-8.247,10.241-10.122,19.811-10.108
		c8.866,0.012,19.118,2.306,18.631,9.266C475.352,379.741,462.891,372.46,456.764,375.258z"/>
	<path fill="#E6E7E8" d="M528.323,375.506c-7.756-2.108-19.52,2.89-19.905-4.975c-0.39-8.037,10.47-10.081,20.132-9.989
		c8.896,0.082,19.105,2.457,18.489,9.401C546.141,380.053,533.366,371.677,528.323,375.506z"/>
	<path fill="#D5D5D6" d="M376.974,403.717c-1.868,8.604-10.287,7.016-17.317,7.021c-77.178,0.072-154.355,0.072-231.532,0
		c-7.031-0.006-15.448,1.583-17.32-7.023c4.394-2.476,8.784-4.951,13.178-7.427c9.594,6.53,21.07,7.364,32.957,7.353
		c57.967-0.062,115.934-0.062,173.899,0c11.889,0.013,23.359-0.822,32.959-7.35C368.188,398.768,372.579,401.241,376.974,403.717z"
		/>
	<path fill="#D5D5D6" d="M447.961,403.717c-12.279,10.125-40.929,10.125-53.205-0.002c4.389-2.476,8.779-4.951,13.176-7.427
		c8.95,5.58,17.9,5.58,26.854,0.003C439.174,398.768,443.566,401.241,447.961,403.717z"/>
	<path fill="#D5D5D6" d="M518.946,403.717c-12.278,10.125-40.927,10.125-53.205-0.002c4.392-2.476,8.782-4.951,13.177-7.427
		c8.938,5.567,17.883,5.596,26.822,0.003C510.143,398.77,514.546,401.243,518.946,403.717z"/>
	<path fill="#6D6E71" d="M518.946,403.717c-4.398-2.475-8.804-4.947-13.206-7.426c-0.354-1.148-1.459-2.984-0.952-3.342
		c9.595-6.828,35.096-4.784,44.99,3.453c-4.354,2.438-8.704,4.875-13.05,7.313C530.803,403.717,524.874,403.717,518.946,403.717z"/>
	<path fill="#58595B" d="M478.918,396.288c-4.395,2.476-8.785,4.951-13.177,7.427c-5.926,0-11.854,0-17.779,0
		c-4.396-2.474-8.786-4.947-13.177-7.424C446.833,386.227,466.868,386.227,478.918,396.288z"/>
	<path fill="#6D6E71" d="M407.931,396.288c-4.396,2.476-8.787,4.951-13.176,7.427c-5.929,0-11.854,0-17.781,0
		c-4.396-2.474-8.786-4.947-13.176-7.424C375.847,386.227,395.881,386.227,407.931,396.288z"/>
	<path fill="#6D6E71" d="M123.982,396.288c-4.394,2.476-8.784,4.951-13.178,7.427c-5.925,0-11.852,0-17.777,0
		c-4.393-2.474-8.787-4.947-13.178-7.424C91.898,386.227,111.932,386.227,123.982,396.288z"/>
</g>
</svg>
