<?xml version="1.0" encoding="UTF-8" standalone="no"?>
<!-- Generator: Adobe Illustrator 19.0.0, SVG Export Plug-In . SVG Version: 6.00 Build 0)  -->

<svg
   xmlns:dc="http://purl.org/dc/elements/1.1/"
   xmlns:cc="http://creativecommons.org/ns#"
   xmlns:rdf="http://www.w3.org/1999/02/22-rdf-syntax-ns#"
   xmlns:svg="http://www.w3.org/2000/svg"
   xmlns="http://www.w3.org/2000/svg"
   xmlns:sodipodi="http://sodipodi.sourceforge.net/DTD/sodipodi-0.dtd"
   xmlns:inkscape="http://www.inkscape.org/namespaces/inkscape"
   version="1.1"
   id="Capa_1"
   x="0px"
   y="0px"
   viewBox="0 0 120 120"
   xml:space="preserve"
   inkscape:version="0.91 r13725"
   sodipodi:docname="needs-communion.svg"
   width="120"
   height="120"><metadata
   id="metadata6096"><rdf:RDF><cc:Work
       rdf:about=""><dc:format>image/svg+xml</dc:format><dc:type
         rdf:resource="http://purl.org/dc/dcmitype/StillImage" /><dc:title></dc:title></cc:Work></rdf:RDF></metadata><defs
   id="defs6094" /><sodipodi:namedview
   pagecolor="#ffffff"
   bordercolor="#666666"
   borderopacity="1"
   objecttolerance="10"
   gridtolerance="10"
   guidetolerance="10"
   inkscape:pageopacity="0"
   inkscape:pageshadow="2"
   inkscape:window-width="1366"
   inkscape:window-height="705"
   id="namedview6092"
   showgrid="false"
   inkscape:zoom="1.3913622"
   inkscape:cx="-54.336979"
   inkscape:cy="57.863919"
   inkscape:window-x="-8"
   inkscape:window-y="-8"
   inkscape:window-maximized="1"
   inkscape:current-layer="Capa_1" />
<g
   id="g6054"
   transform="matrix(2.0187146,0,0,2.0465574,0,-1.1769107)">
	<path
   d="m 18.018,32.485 0,-8.985 4.982,-0.019 0,-5.997 -4.996,0 0.018,-4 -6.022,0 0,4 -5,0 0,6.021 5,-0.018 0,8.997 6.018,0 z M 9,21.499 l 0,-2.015 5,0 0,-4 2.014,0 -0.018,4 5.004,0 0,2.003 -4.982,0.018 0,8.979 -2.018,0 0,-9.003 -5,0.018 z"
   id="path6056"
   style="fill:#4d4d4d"
   inkscape:connector-curvature="0" />
	<path
   d="m 57.479,23.59 c -4.68,-4.68 -14.402,-2.568 -21.672,4.702 -7.271,7.271 -9.381,16.994 -4.702,21.672 1.666,1.667 3.972,2.525 6.677,2.525 1.079,0 2.221,-0.137 3.411,-0.413 4.006,-0.93 8.12,-3.35 11.583,-6.813 7.273,-7.272 9.382,-16.994 4.703,-21.673 z m -6.116,20.258 c -3.203,3.203 -6.975,5.433 -10.622,6.279 -3.477,0.807 -6.397,0.248 -8.222,-1.578 -2.769,-2.769 -2.495,-7.835 0.215,-12.865 0.002,0 0.004,0.001 0.006,0 0.235,-0.038 5.836,-0.804 7.883,6.29 0.126,0.438 0.526,0.723 0.96,0.723 0.092,0 0.185,-0.013 0.278,-0.04 0.531,-0.153 0.836,-0.708 0.684,-1.238 -1.842,-6.382 -6.265,-7.572 -8.607,-7.737 0.693,-1.03 1.492,-2.042 2.383,-3.022 0.123,0.034 0.254,0.046 0.389,0.029 0.263,-0.035 6.475,-0.732 8.93,6.336 0.144,0.413 0.531,0.672 0.945,0.672 0.109,0 0.22,-0.018 0.328,-0.056 0.521,-0.182 0.798,-0.751 0.616,-1.273 -2.103,-6.054 -6.695,-7.381 -9.254,-7.637 1.328,-1.197 2.712,-2.234 4.117,-3.065 0.101,0.02 0.204,0.037 0.312,0.023 0.264,-0.03 6.431,-0.653 7.897,7.191 0.09,0.481 0.511,0.816 0.982,0.816 0.061,0 0.123,-0.005 0.185,-0.017 0.543,-0.102 0.9,-0.624 0.8,-1.167 -1.064,-5.691 -4.312,-7.74 -6.842,-8.46 1.757,-0.661 3.471,-1.008 5.037,-1.008 2.123,0 3.977,0.631 5.303,1.957 3.898,3.902 1.788,12.356 -4.703,18.847 z"
   id="path6058"
   style="fill:#4d4d4d"
   inkscape:connector-curvature="0" />
	<path
   d="m 18,44.652 0,-8.448 C 19.95,35.8 22.552,34.834 25.009,32.561 28.181,29.626 30,25.294 30,20.675 L 30,7.509 C 30,7.413 29.99,7.31 29.974,7.182 29.979,7.115 30,7.052 30,6.985 30,3.374 22.454,1.485 15,1.485 7.546,1.485 0,3.374 0,6.985 0,7.054 0.021,7.118 0.026,7.186 0.012,7.292 0,7.398 0,7.509 l 0,13.167 c 0,4.618 1.819,8.95 4.991,11.886 2.456,2.273 5.059,3.24 7.009,3.644 l 0,8.447 c -6.521,0.677 -11,3.42 -11,6.832 0,3.925 6.149,7 14,7 7.851,0 14,-3.075 14,-7 0,-3.412 -4.479,-6.155 -11,-6.833 z M 15,3.485 c 7.815,0 13,2.106 13,3.5 l 0,0 C 27.995,7.008 27.981,7.027 27.978,7.051 27.94,7.319 27.733,7.607 27.372,7.898 27.365,7.904 27.356,7.909 27.348,7.915 27.247,7.995 27.13,8.076 27.006,8.156 25.148,9.324 20.801,10.485 15,10.485 9.199,10.485 4.852,9.324 2.995,8.155 2.87,8.075 2.754,7.995 2.652,7.914 2.645,7.909 2.636,7.903 2.629,7.897 2.267,7.606 2.06,7.319 2.022,7.05 2.019,7.028 2.006,7.012 2.001,6.99 2.001,6.989 2,6.986 2,6.985 2,5.591 7.185,3.485 15,3.485 Z M 6.35,31.093 C 3.585,28.535 2,24.738 2,20.675 L 2.008,9.889 c 1.992,1.261 5.253,2.041 8.738,2.386 0.07,0.007 0.141,0.014 0.211,0.021 0.823,0.077 1.656,0.13 2.488,0.16 0.106,0.004 0.212,0.007 0.318,0.01 0.413,0.012 0.826,0.02 1.236,0.02 0.409,0 0.821,-0.008 1.234,-0.02 0.107,-0.003 0.214,-0.006 0.32,-0.01 0.831,-0.029 1.663,-0.082 2.485,-0.159 0.073,-0.007 0.145,-0.014 0.218,-0.021 3.489,-0.346 6.753,-1.127 8.743,-2.391 l 0,10.792 c 0,4.063 -1.585,7.86 -4.35,10.418 -3.995,3.697 -8.523,3.386 -8.564,3.382 -0.028,-0.002 -0.057,-0.004 -0.085,-0.004 -0.028,0 -0.056,10e-4 -0.083,0.003 -0.045,0.002 -4.573,0.315 -8.567,-3.383 z m 9.65,5.392 0,8.004 0,5.996 -2,0 0,-5.996 0,-8.004 0.478,0 c 0.06,10e-4 0.112,0 0.164,0 l 0.72,0 c 0.024,0 0.041,10e-4 0.066,10e-4 0.019,0 0.044,-10e-4 0.064,-10e-4 l 0.508,0 z m -1,20 c -7.072,0 -12,-2.635 -12,-5 0,-1.947 3.342,-4.196 9,-4.827 l 0,5.827 6,0 0,-5.827 c 5.658,0.631 9,2.88 9,4.827 0,2.364 -4.928,5 -12,5 z"
   id="path6060"
   style="fill:#4d4d4d"
   inkscape:connector-curvature="0" />
</g>
<g
   id="g6062"
   transform="translate(0,60.030998)">
</g>
<g
   id="g6064"
   transform="translate(0,60.030998)">
</g>
<g
   id="g6066"
   transform="translate(0,60.030998)">
</g>
<g
   id="g6068"
   transform="translate(0,60.030998)">
</g>
<g
   id="g6070"
   transform="translate(0,60.030998)">
</g>
<g
   id="g6072"
   transform="translate(0,60.030998)">
</g>
<g
   id="g6074"
   transform="translate(0,60.030998)">
</g>
<g
   id="g6076"
   transform="translate(0,60.030998)">
</g>
<g
   id="g6078"
   transform="translate(0,60.030998)">
</g>
<g
   id="g6080"
   transform="translate(0,60.030998)">
</g>
<g
   id="g6082"
   transform="translate(0,60.030998)">
</g>
<g
   id="g6084"
   transform="translate(0,60.030998)">
</g>
<g
   id="g6086"
   transform="translate(0,60.030998)">
</g>
<g
   id="g6088"
   transform="translate(0,60.030998)">
</g>
<g
   id="g6090"
   transform="translate(0,60.030998)">
</g>
</svg>