<?xml version="1.0" encoding="utf-8"?>
<!-- Generator: Adobe Illustrator 16.0.0, SVG Export Plug-In . SVG Version: 6.00 Build 0)  -->
<!DOCTYPE svg PUBLIC "-//W3C//DTD SVG 1.1//EN" "http://www.w3.org/Graphics/SVG/1.1/DTD/svg11.dtd">
<svg version="1.1" id="Layer_1" xmlns="http://www.w3.org/2000/svg" xmlns:xlink="http://www.w3.org/1999/xlink" x="0px" y="0px"
	 width="612px" height="792px" viewBox="0 0 612 792" enable-background="new 0 0 612 792" xml:space="preserve">
<g>
	<g>
		<path fill-rule="evenodd" clip-rule="evenodd" fill="#FEFEFE" d="M616.781,404.016c0,126.703-0.191,253.406,0.313,380.109
			c0.047,11.953-2.703,14.676-14.656,14.652c-194.437-0.435-388.876-0.435-583.313,0c-11.953,0.023-14.666-2.704-14.647-14.652
			c0.399-254.998,0.399-510.001,0-765C4.459,7.177,7.172,4.45,19.125,4.473c194.437,0.434,388.876,0.434,583.313,0
			c11.953-0.023,14.701,2.699,14.654,14.652C616.592,147.42,616.781,275.72,616.781,404.016z"/>
		<path fill-rule="evenodd" clip-rule="evenodd" fill="#E7E7E7" d="M167.372,28.758c102.769-0.019,205.536-0.052,308.302-0.056
			c53.962,0,64.574,10.809,64.594,66.139c0.042,134.631-0.211,269.267,0.193,403.898c0.086,28.478-3.691,57.259,4.392,85.433
			c1.279,4.454,0.771,9.59-3.418,13.195c-0.987-0.556-1.976-1.111-2.972-1.658c-3.787-5.822-5.975-12.56-10.382-18.079
			c-2.102-3.516-3.351-7.293-3.96-11.341c-4.16-14.741-5.02-29.738-5.001-44.951c0.171-143.414-0.037-286.823,0.122-430.158
			c-0.98-10.86,4.291-22.608-4.352-32.507c-2.046-2.619-3.848-5.402-5.671-8.176c-3.483-3.375-7.259-6.308-11.622-8.535
			c-40.451-3.917-80.922-1.293-121.338-1.644c-58.723-0.504-117.454-0.042-176.178-0.205c-10.216-0.028-20.724,1.396-30.382-3.703
			C166.73,34.529,165.959,31.97,167.372,28.758z"/>
		<path fill-rule="evenodd" clip-rule="evenodd" fill="#EDEDED" d="M167.372,28.758c-0.004,1.568-0.016,3.138-0.033,4.706
			c-7.503,8.026-17.486,6.033-26.764,6.364c-8.773,0.308-17.517,0.075-24.175,7.274c-2.236,1.677-4.457,3.306-6.632,5.048
			c-9.794,11.71-12,25.82-12.021,40.225c-0.306,207.485-0.308,414.97,0.063,622.45c0.028,15.679,0.315,32.208,16.447,41.98
			c12.771,5.248,26.066,6.364,39.756,6.346c105.848-0.154,211.697-0.107,317.544-0.062c16.852,0.005,33.434-0.653,47.92-10.762
			c8.316-10.595,9.285-22.973,9.474-35.836c0.455-30.766-1.597-61.573,1.2-92.329c1.634-5.893,4.513-10.688,10.942-12.313
			c10.204,13.167-2.186,25.667-1.31,38.918c1.778,26.96,1.263,54.153,0.299,81.197c-1.106,31.017-18.971,47.354-49.935,47.368
			c-117.08,0.043-234.163,0.028-351.245,0.01c-32.306-0.005-45.786-10.917-51.732-42.555c-1.307-6.957-1.072-14.256-1.074-21.395
			c-0.049-209.474-0.051-418.943,0.014-628.417c0.002-7.125-0.147-14.451,1.352-21.343c5.974-27.432,18.114-36.84,46.458-36.957
			C145.072,28.631,156.222,28.725,167.372,28.758z"/>
		<path fill-rule="evenodd" clip-rule="evenodd" fill="#B1A1A0" d="M541.094,611.851c-1.917,3.138-3.836,6.271-5.753,9.408
			c-1.202,1.695-2.848,2.708-4.877,3.143c-2.063-0.037-3.994-0.551-5.819-1.518c-2.461-1.989-4.067-4.515-4.766-7.615
			c-0.072-4.403,2.186-7.657,5.206-10.538c4.823-2.526,7.551-9.801,14.909-6.72c0,0,1.431-0.644,1.436-0.644
			C541.32,602.194,541.208,607.022,541.094,611.851z"/>
		<path fill-rule="evenodd" clip-rule="evenodd" fill="#B1B0B0" d="M516.301,48.064c0.074,3.021,0.148,6.042,0.224,9.059
			c1.34,3.338,0.495,5.967-2.526,7.909c-7.919,4.567-16.725,4.623-25.433,4.623c-94.371-0.014-188.745,0.701-283.103-0.294
			c-7.3-0.864-14.778-0.019-21.997-1.915c-2.827-0.598-5.526-1.592-8.117-2.853c-11.223-7.984-24.413-4.198-36.651-6.126
			c-11.855-1.868-12.049-2.349-10.581-14.409c9.896-4.09,20.316-2.933,30.546-2.942c105.358-0.112,210.718,0,316.077-0.145
			C489.093,40.954,503.117,41.757,516.301,48.064z"/>
		<path fill-rule="evenodd" clip-rule="evenodd" fill="#E5E5E5" d="M114.708,42.984c3.625-15.282,16.015-8.302,24.838-9.292
			c9.156-1.027,18.52-0.229,27.793-0.229c105.414,0.005,210.828-0.107,316.242,0.225c8.362,0.028,20.105-5.221,23.257,9.24
			c-5.771,3.95-12.329,2.344-18.546,2.353c-119.979,0.107-239.959,0.033-359.936,0.103
			C123.656,45.385,118.772,46.547,114.708,42.984z"/>
		<path fill-rule="evenodd" clip-rule="evenodd" fill="#C3C3C3" d="M516.424,61.787c-0.114-1.555-0.082-3.104,0.099-4.66
			c20.974,0.934,4.646,16.674,9.529,24c-4.924,8.144-2.439,17.117-2.449,25.657c-0.18,139.254-0.065,278.513-0.28,417.767
			c-0.011,8.456,2.936,17.519-2.861,25.41c-3.369,0.705-5.849-0.477-7.438-3.521c-7.522-25.975-2.024-52.547-3.525-78.792
			c0.252-5.478-0.294-10.996,0.287-16.469c0.114-7.77,0.015-15.562,0.187-23.341c-0.098-2.512-0.061-5.038-0.014-7.55
			c-0.065-7.41,0.26-14.83,0.107-22.249c-0.168-3.661-0.042-7.316,0.035-10.973c0.023-7.237,0.143-14.475,0.063-21.712
			c-0.127-2.409-0.092-4.818-0.033-7.228c0.03-6.005,0.117-12.009,0.023-18.014c-0.14-2.41-0.128-4.819-0.091-7.224
			c0.042-8.395,0.093-16.786,0.077-25.176c-0.077-3.548-0.019-7.097,0.067-10.641c0.067-5.794,0.217-11.598,0.187-17.393
			c-0.124-2.283-0.069-4.571-0.012-6.85c-0.037-3.385,0.068-6.775,0.147-10.16c0.067-5.584,0.14-11.169,0.067-16.753
			c-0.145-2.237-0.124-4.473-0.096-6.71c-0.109-2.246-0.059-4.482,0-6.724c0.082-5.607,0.07-11.215-0.074-16.823
			c-0.157-2.26-0.146-4.515-0.11-6.775c0.107-6.747,0.161-13.499,0.161-20.246c-0.081-3.352,0.007-6.705,0.077-10.057
			c-0.098-2.232-0.023-4.459,0.054-6.691c0.057-4.478,0.114-8.956,0.04-13.447c-0.176-2.297-0.187-4.585-0.198-6.892
			c-0.152-2.367-0.147-4.711-0.141-7.074c-0.002-7.34-0.175-14.661-0.334-22.001c-0.156-3.955-0.21-7.891-0.408-11.851
			C510.513,94.149,505.241,76.804,516.424,61.787z"/>
		<path fill-rule="evenodd" clip-rule="evenodd" fill="#AFAFAF" d="M516.728,550.264c7.457-8.156,4.281-18.187,4.296-27.37
			c0.2-138.236,0.061-276.468,0.296-414.704c0.015-9.086-3.6-19.251,4.732-27.063c0.121,132.521,0.201,265.047,0.395,397.572
			c0.045,31.62-1.479,63.319,3.91,94.724C514.736,572.223,508.911,565.257,516.728,550.264z"/>
		<path fill-rule="evenodd" clip-rule="evenodd" fill="#DDDDDD" d="M114.708,42.984c130.709-0.019,261.421-0.037,392.13-0.051
			c3.965,0.215,7.59,1.06,9.465,5.131c-130.635-0.051-261.267-0.107-391.899-0.159c-4.235,3.885-8.876,4.212-13.855,1.583
			c-2.25-1.961-2.426-4.1-0.525-6.406C111.584,43.059,113.146,43.026,114.708,42.984z"/>
		<path fill-rule="evenodd" clip-rule="evenodd" fill="#CAC8C7" d="M516.728,550.264c-1.982,11.566,4.471,18.163,13.634,23.164
			c1.723,1.728,3.451,3.465,5.179,5.197c5.584,15.436-9.191,14.698-16.029,20.269c-1.999,0.766-4.103,1.041-6.236,0.952
			c-7.209-1.933-10.293-9.137-16.223-12.719c-3.24-1.988-6.792-3.259-10.417-4.389c-1.896-0.584-3.668-1.4-5.4-2.354
			c-4.253-2.787-8.297-5.836-12.249-9.049c-4.833-4.702-8.122-10.104-7.763-17.154c0.85-3.441,2.939-5.701,6.359-6.682
			c9.063-1.826,15.628,11.262,25.52,4.197c3.126-2.596,5.483-5.953,8.647-8.502c1.879-1.023,3.88-1.63,6-1.882
			c3.366-0.023,6.191,1.246,8.556,3.595C516.445,546.696,516.585,548.48,516.728,550.264z"/>
		<path fill-rule="evenodd" clip-rule="evenodd" fill="#D2C0BF" d="M516.111,598.16c1.702-11.262,19.162-6.85,19.429-19.535
			c6.903,5.211,4.578,12.551,4.456,19.382c-4.975,2.955-6.996,10.142-14.196,9.894C516.644,610.548,512.826,607.887,516.111,598.16z
			"/>
		<path fill-rule="evenodd" clip-rule="evenodd" fill="#E5E5E5" d="M110.022,43.083c0.012,1.634,0.026,3.269,0.04,4.903
			c1.651,2.19,2.239,4.641,1.807,7.363c-0.785,5.43-2.953,10.492-4.116,15.852c-1.459,210.314-0.131,420.592-0.684,630.864
			c-0.047,18.354,0.138,36.56,5.916,54.228c-0.117,3.189-1.121,6.065-2.986,8.647c-19.207-9.903-18.651-29.243-18.702-45.786
			c-0.656-210.1-0.659-420.204,0.002-630.303C91.353,72.316,90.778,52.958,110.022,43.083z"/>
		<path fill-rule="evenodd" clip-rule="evenodd" fill="#E1E1E1" d="M109.999,764.939c0.03-1.681,0.061-3.357,0.091-5.033
			c12.298-10.595,27.125-6.257,40.981-6.486c16.592-0.275,33.205,0.085,49.809-0.126c47.395-0.289,94.792-0.364,142.181-0.009
			c58.239-0.99,116.508,1.266,174.749-1.261c1.487,0.285,2.968,0.598,4.452,0.896c1.254,0.85,2.501,1.709,3.745,2.568
			c-11.316,13.904-27.67,13.983-43.046,14.035c-113.426,0.411-226.857,0.354-340.286,0.014
			C131.778,769.506,120.892,766.541,109.999,764.939z"/>
		<path fill-rule="evenodd" clip-rule="evenodd" fill="#E1E1E1" d="M531.029,621.932c1.442-0.191,2.881-0.416,4.314-0.673
			c0.047,32.97,0.002,65.934,0.191,98.903c0.072,12.724-1.24,24.929-9.527,35.327l-0.383-0.36
			c-6.742-8.007-5.762-17.317-4.581-26.703c0.362-2.722,1.063-5.346,1.971-7.918c2.374-23.865,0.467-47.78,1.12-71.649
			C524.395,639.366,523.322,629.523,531.029,621.932z"/>
		<path fill-rule="evenodd" clip-rule="evenodd" fill="#B0B0B0" d="M521.119,616.8c1.625,1.648,3.25,3.297,4.874,4.944
			c3.661,35.001,3.747,70.001-0.069,104.996v-0.014c-8.867,0.117-10.394-6.952-10.459-12.868
			c-0.339-31.256-4.427-62.656,2.549-93.725C519.039,619.018,520.08,617.906,521.119,616.8z"/>
		<path fill-rule="evenodd" clip-rule="evenodd" fill="#C5C5C5" d="M525.924,726.74c0.023-35,0.047-70,0.069-105
			c1.677,0.065,3.353,0.126,5.031,0.191c-0.126,27.553-0.093,55.105-0.492,82.653C530.422,712.141,533.098,720.549,525.924,726.74z"
			/>
		<path fill-rule="evenodd" clip-rule="evenodd" fill="#AEB0B5" d="M516.111,598.16c0.322,6.141,4.001,8.938,9.69,9.735
			c-1.563,2.975-3.123,5.939-4.683,8.904l-0.315,0.29c-1.706,1.494-3.71,2.199-5.972,2.245c-4.681-0.905-8.132-3.497-10.48-7.62
			c-0.826-2.129-1.221-4.342-1.234-6.63c1.165-4.301,1.725-9.324,8.393-7.321C513.048,597.829,514.582,597.965,516.111,598.16z"/>
		<path fill-rule="evenodd" clip-rule="evenodd" fill="#F9F9F9" d="M516.424,61.787c-0.123,17.622-0.25,35.243-0.376,52.865
			c-9.217,8.587-20.78,6.705-31.72,6.751c-50.841,0.215-101.684,0.065-152.515,0.136c-22.414-0.696-44.899,1.144-67.285-1.443
			c-16.83-5.673-34.27-2.633-51.431-3.59c-11.449-0.64-25.008,2.204-30.459-11.977c-5.468-14.223,0.733-25.998,11.008-35.943
			c2.25-2.176,4.881-3.946,7.195-6.08C306.035,62.269,411.229,62.03,516.424,61.787z"/>
		<path fill-rule="evenodd" clip-rule="evenodd" fill="#F3F3F3" d="M200.84,62.506c-0.252,1.55-0.163,3.264-0.81,4.627
			c-20.25,42.84-20.259,42.508,29.017,43.078c11.302,0.135,23.668-4.529,33.945,4.487c-27.044,11.304-54.366,9.007-81.807,1.676
			c-8.552-18.033-9.92-36,0.604-53.831C188.14,62.534,194.49,62.521,200.84,62.506z"/>
		<path fill-rule="evenodd" clip-rule="evenodd" fill="#BCBCBC" d="M109.808,52.066c0.017-1.368,0.098-2.727,0.252-4.086
			c4.781-0.023,9.563-0.051,14.344-0.079c10.214,8.993,22.506,3.025,33.745,4.636c7.205,1.037,16.515-2.769,18.644,8.839
			c-0.958,1.083-1.915,2.167-2.862,3.264c-21.217,6.551-42.38,7.279-63.457-0.663C107.088,60.186,107.055,56.203,109.808,52.066z"/>
		<path fill-rule="evenodd" clip-rule="evenodd" fill="#F2E3E3" d="M181.79,62.544c-0.021,17.402-0.042,34.804-0.063,52.206
			c1.506,3.016,0.612,4.884-2.692,5.603c-4.251-1.658-6.051-5.225-7.3-9.254c-1.291-16.398-5.781-33.161,5.276-48.209
			c0,0-0.217-1.503-0.217-1.508C178.459,61.764,180.125,62.156,181.79,62.544z"/>
		<path fill-rule="evenodd" clip-rule="evenodd" fill="#F8F8F9" d="M515.997,306.07c-0.01,9.493-0.019,18.99-0.026,28.482
			c-6.865,6.808-15.686,6.705-24.385,6.737c-38.687,0.131-77.373,0.112-116.062,0.019c-11.416-0.023-21.892-2.479-31.062-9.553
			c-7.21-3.764-12.458-9.021-13.375-17.575c0.109-4.931,1.452-9.212,6.21-11.687c56.044-6.304,112.217-3.012,168.359-1.868
			C509.698,300.705,512.979,303.423,515.997,306.07z"/>
		<path fill-rule="evenodd" clip-rule="evenodd" fill="#F8F8F9" d="M515.943,186.576c0.014,7.891,0.025,15.787,0.039,23.677
			c-4.226,4.021-9.319,6.304-15.081,6.285c-38.955-0.149-77.976,3.245-116.849-1.984c-17.152-11.229-36.606-5.383-55.003-7.429
			c-13.128-1.461-26.647-3.109-18.278-22.379c23.438-9.838,48.025-3.086,72.022-4.884c9.364-0.7,18.826-0.187,28.246-0.191
			c26.05,0.149,52.1-0.065,78.144,0.154C498.597,179.904,508.337,179.138,515.943,186.576z"/>
		<path fill-rule="evenodd" clip-rule="evenodd" fill="#F9F9F9" d="M516.021,277.438c-0.017,6.304-0.035,12.607-0.054,18.915
			c-8.134,6.901-17.983,4.707-27.229,4.753c-51.217,0.252-102.436-0.014-153.661,0.182c-4.686,0.43-9.252,0.154-13.491-2.171
			c-2.597-1.807-4.501-4.184-5.757-7.083c-4.119-11.421-0.458-19.835,11.772-20.176c60.133-1.676,120.295-2.965,180.411,0.696
			C511.057,272.741,513.637,275.319,516.021,277.438z"/>
		<path fill-rule="evenodd" clip-rule="evenodd" fill="#F5F5F6" d="M515.903,172.074c0.21,1.583,0.231,3.17,0.063,4.758
			c-17.853,9.38-37.048,3.582-55.602,4.641c-16.486,0.943-33.069,0.201-49.616,0.201c-65.539-1.457-131.016,3.203-196.548,1.919
			c-10.923-0.215-22.253,1.653-32.32-4.768c-7.226-8.54-7.008-17.481-1.445-26.708c3.124-2.582,6.691-4.66,10.737-4.711
			c45.237-0.593,90.531-4.445,135.605,2.087c2.67,1.247,4.179,3.404,4.482,6.332c-5.513,10.127-16.266,6.817-25.046,9.446
			c42.571,0.028,84.8-0.079,127.084-0.014c19.557-0.448,39.06-0.21,58.565-0.168C500.53,165.107,509.109,165.556,515.903,172.074z"
			/>
		<path fill-rule="evenodd" clip-rule="evenodd" fill="#F9F9F9" d="M516.039,124.415c-0.028,7.891-0.054,15.787-0.082,23.678
			c-5.491,5.435-12.46,6.649-19.728,6.621c-48.308-0.183-96.629,1.541-144.927-0.888c-3.063-0.621-5.89-1.816-8.503-3.525
			c-9.959-20.04-6.569-26.208,16.217-27.585c31.745-1.915,63.669,2.26,95.345-2.592
			C474.945,121.151,496.043,114.876,516.039,124.415z"/>
		<path fill-rule="evenodd" clip-rule="evenodd" fill="#F9F9F9" d="M515.937,363.492c0.027,7.905,0.054,15.81,0.079,23.72
			c-6.252,5.925-14.059,7.148-22.172,7.041c-32.631-0.425-65.289,1.513-97.925-1.009c-3.103-0.556-6.016-1.606-8.797-3.082
			c-5.565-3.814-8.612-9.058-9.014-15.81c0.208-10.655,6.49-16.239,16.305-16.66c37.073-1.578,74.175-2.129,111.246,0.313
			C509.707,358.271,512.95,360.83,515.937,363.492z"/>
		<path fill-rule="evenodd" clip-rule="evenodd" fill="#FAFAF9" d="M516.066,339.576c-0.023,6.308-0.044,12.611-0.067,18.919
			c-35.313,5.333-70.846,1.051-106.25,2.405c-11.012,0.42-22.183-1.298-32.938,2.54c-4.746,0.607-9.208-0.182-13.358-2.62
			c-6.243-5.701-9.441-12.247-5.691-20.694c26.532-6.569,53.509-2.512,80.237-2.628
			C463.994,337.382,490.188,334.118,516.066,339.576z"/>
		<path fill-rule="evenodd" clip-rule="evenodd" fill="#F7F7F7" d="M516.305,544.908c-2.997-0.14-5.992-0.284-8.988-0.43
			c-6.632-4.889-12.81-10.1-13.701-19.092c-1.413-5.589,4.361-8.307,5.609-13.279c-4.412,5.238-9.534,3.856-14.673,2.736
			c-10.068-5.174-17.012-12.028-13.405-24.598c9.196-9.917,21.913-2.087,34.494-6.14c-15.448,1.76-28.825,0.924-42.095,2.391
			c-9.267-4.034-13.23-10.814-10.896-20.881c20.722-14.26,41.929-11.939,63.358-1.83
			C516.106,490.825,516.205,517.869,516.305,544.908z"/>
		<path fill-rule="evenodd" clip-rule="evenodd" fill="#FAFAFA" d="M515.971,243.965c-0.021,6.317-0.039,12.635-0.061,18.952
			c-4.77,4.697-10.765,6.588-17.171,6.392c-35.096-1.074-70.395,4.249-105.309-3.264c-7.944-6.803-12.85-14.255-5.085-24.345
			C430.996,235.57,473.626,231.778,515.971,243.965z"/>
		<path fill-rule="evenodd" clip-rule="evenodd" fill="#F9F9F9" d="M516.064,425.662c-0.072,7.914-0.145,15.833-0.217,23.747
			c-22.135,13.602-46.889,3.661-70.097,7.845c-15.962-4.445-27.38-11.986-21.217-31.4
			C455.015,414.568,485.53,414.82,516.064,425.662z"/>
		<path fill-rule="evenodd" clip-rule="evenodd" fill="#F8F9F9" d="M515.917,397.082c0.062,7.854,0.124,15.707,0.185,23.561
			c-32.396,6.28-65.361-0.887-97.824,4.123c-10.736-2.503-15.118-9.376-13.854-20.129c3.04-6.546,9.096-8.979,15.395-9.101
			C451.86,394.92,483.964,391.96,515.917,397.082z"/>
		<path fill-rule="evenodd" clip-rule="evenodd" fill="#F4F5F8" d="M392.064,262.964c41.283-0.014,82.568-0.028,123.849-0.046
			c0.039,3.175,0.081,6.35,0.123,9.525c-31.419,5.313-63.068,1.569-94.6,2.255c-33.275,0.719-66.578,0.093-99.869,0.196
			c-8.37,0.028-19.048,3.095-16.632-11.967C333.982,251.193,363.024,251.174,392.064,262.964z"/>
		<path fill-rule="evenodd" clip-rule="evenodd" fill="#E6E9F5" d="M516.039,124.415c-20.61-0.023-41.223-0.042-61.832-0.065
			c-40.669,4.889-81.484,1.266-122.228,2.134c-4.812-3.166-5.055-7.144-2.08-11.691c62.051-0.047,124.103-0.093,186.151-0.135
			C516.046,117.906,516.041,121.161,516.039,124.415z"/>
		<path fill-rule="evenodd" clip-rule="evenodd" fill="#EDF0F6" d="M329.896,296.465c62.026-0.037,124.052-0.075,186.074-0.112
			c0.008,3.236,0.02,6.476,0.028,9.716c-60.424-0.014-120.846-0.023-181.268-0.037C330.455,304.188,327.336,301.765,329.896,296.465
			z"/>
		<path fill-rule="evenodd" clip-rule="evenodd" fill="#ECEFF7" d="M515.917,397.082c-26.25,9.563-53.474,2.045-80.108,4.617
			c-9.881,0.958-20.788-3.912-29.435,4.754c-13.135-0.22-19.217-5.636-14.174-19.247c41.273,0,82.547,0.005,123.817,0.005
			C515.982,390.503,515.95,393.79,515.917,397.082z"/>
		<path fill-rule="evenodd" clip-rule="evenodd" fill="#FAFAFA" d="M515.962,215.292c-0.017,6.308-0.035,12.616-0.052,18.919
			c-35.892,8.965-72.043,5.328-108.176,2.232c-8.134-17.836,3.838-20.531,16.684-21.002c27.692-1.018,55.43,0.392,83.132-0.761
			C510.434,213.755,513.239,213.961,515.962,215.292z"/>
		<path fill-rule="evenodd" clip-rule="evenodd" fill="#E6EAF4" d="M306,262.974c3,14.47,14.703,9.292,23.042,9.338
			c62.332,0.369,124.665,0.159,186.997,0.131c-0.007,1.667-0.01,3.329-0.017,4.996c-59.395-0.042-118.796,0.416-178.177-0.467
			c-15.268-0.224-22.036,3.143-17.32,19.078c-0.73,3.586-2.857,5.846-6.401,6.771c-10.316-1.177-14.54-8.689-17.878-17.15
			c-1.459-3.959-2.813-7.97-4.169-11.981c-1.329-4.048-2.454-8.139-2.356-12.467c0.355-2.241,1.567-3.895,3.5-5.052
			C299.461,254.714,303.794,256.848,306,262.974z"/>
		<path fill-rule="evenodd" clip-rule="evenodd" fill="#E9ECF6" d="M515.971,243.965c-42.894-0.028-85.787-0.051-128.68-0.08
			c-18.943,12.196-40.148,4.174-60.151,6.822c-11.92,1.578-25.622-5.024-35.362,7.251l-0.46,0.737
			c-3.259,2.638-6.787,2.563-10.485,1.056c-3.439-2.232-5.799-5.253-6.922-9.236c-0.806-4.319-0.159-8.353,2.22-12.112
			c2.204-2.064,4.732-3.521,7.599-4.44c41.91-1.434,83.642-3.754,125.643,1.975c26.565,3.623,53.904,0.467,80.89,0.919
			c8.579,0.14,17.47-2.171,25.734,2.148C515.99,240.659,515.98,242.313,515.971,243.965z"/>
		<path fill-rule="evenodd" clip-rule="evenodd" fill="#FAFAFA" d="M515.903,172.074c-28.528,0.019-57.06,0.033-85.591,0.051
			c-3.955-5.706-4.415-11.211,0.937-16.384c28.307-3.506,56.608-6.527,84.624,2.092
			C515.885,162.577,515.895,167.325,515.903,172.074z"/>
		<path fill-rule="evenodd" clip-rule="evenodd" fill="#F1F3F7" d="M515.997,239.006c-79.547-0.004-159.094-0.004-238.64-0.004
			c-1.361-3.32-0.498-5.883,2.58-7.718c42.291-5.029,84.622-11.075,126.472,2.988c36.504-0.019,73.006-0.038,109.505-0.061
			C515.938,235.808,515.969,237.41,515.997,239.006z"/>
		<path fill-rule="evenodd" clip-rule="evenodd" fill="#F5F6FA" d="M444.645,454.195c23.139-10.491,47.551-2.026,71.207-4.786
			c0.052,4.791,0.105,9.581,0.159,14.377c-20.525,2.806-41.979-5.93-61.848,4.978C443.521,468.787,439.814,464.276,444.645,454.195z
			"/>
		<path fill-rule="evenodd" clip-rule="evenodd" fill="#E9EDF6" d="M411.166,176.939c34.936-0.038,69.873-0.07,104.803-0.107
			c-0.01,3.25-0.014,6.495-0.023,9.745c-34.93-0.051-69.855-0.107-104.781-0.159C408.362,183.256,408.365,180.095,411.166,176.939z"
			/>
		<path fill-rule="evenodd" clip-rule="evenodd" fill="#E6EAF5" d="M515.962,215.292c-1.457-0.088-2.918-0.126-4.378-0.112
			c-1.421,0.709-2.883,2.017-4.283,1.947c-50.682-2.526-101.007,4.557-151.548,5.528c-11.001,0.21-22.308,1.042-32.465-4.926
			c-2.746-2.05-3.673-4.739-2.793-8.05c20.731-6.303,41.416-7.003,62.012,0.654c44.495-0.028,88.988-0.051,133.48-0.08
			C515.976,211.935,515.969,213.615,515.962,215.292z"/>
		<path fill-rule="evenodd" clip-rule="evenodd" fill="#E8EBF2" d="M516.066,339.576c-45.165-0.038-90.33-0.187-135.495-0.019
			c-7.597,0.028-16.097-2.559-22.146,4.958c-12.962-0.378-19.328-5.645-14.335-19.335c12.561,9.619,27.084,9.777,42.051,9.628
			c43.276-0.43,86.558-0.215,129.832-0.257C516.002,336.229,516.034,337.905,516.066,339.576z"/>
		<path fill-rule="evenodd" clip-rule="evenodd" fill="#F4F6F8" d="M515.873,157.833c-28.52-0.019-57.039-0.033-85.559-0.046
			c-33.471,11.36-66.939,11.603-100.408,0c0-1.578,0-3.157-0.002-4.73c6.578-6.785,14.453-1.69,21.699-2.376
			c47.001,0.009,93.996-0.117,140.991,0.112c7.791,0.042,15.955-2.152,23.364,2.302
			C516.165,154.676,516.137,156.254,515.873,157.833z"/>
		<path fill-rule="evenodd" clip-rule="evenodd" fill="#E7EBF6" d="M515.959,153.093c-55.645-0.037-111.29-0.075-166.933-0.112
			c-1.566-1.051-2.087-2.097-1.568-3.147c0.518-1.051,1.039-1.574,1.563-1.574c55.647-0.056,111.295-0.107,166.938-0.164
			C515.957,149.76,515.959,151.427,515.959,153.093z"/>
		<path fill-rule="evenodd" clip-rule="evenodd" fill="#EAEDF7" d="M372.734,358.738c47.757-0.079,95.516-0.159,143.268-0.243
			c-0.021,1.662-0.04,3.329-0.062,4.996c-38.411-0.033-76.817,0.075-115.224-0.182c-10.321-0.065-19.37,0.397-18.229,14.372
			C368.296,377,367.357,369.496,372.734,358.738z"/>
		<path fill-rule="evenodd" clip-rule="evenodd" fill="#E5E8F2" d="M415.95,420.727c33.385-0.028,66.771-0.056,100.154-0.084
			c-0.015,1.672-0.023,3.343-0.038,5.02c-30.144,2.488-60.844-5.818-90.57,4.692C417.641,431.778,414.458,428.571,415.95,420.727z"
			/>
		<path fill-rule="evenodd" clip-rule="evenodd" fill="#F1C911" d="M301.469,282c1.148,8.647,6.591,14.054,13.728,18.182
			c20.294,17.397,30.81,42.634,49.285,61.489c6.554,8.647,11.458,18.569,19.863,25.802c35.672,47.29,72.386,93.771,109.016,140.31
			c3.257,5.486,8.701,9.833,8.914,16.93c0.56,4.469-1.272,7.77-4.961,10.16c-14.708,6.042-19.585-6.298-26.018-14.512
			c-52.824-67.479-104.708-135.691-157.452-203.235c-5.925-7.587-12.461-14.321-19.797-20.442
			c-5.253-7.391-14.147-13.802-12.471-23.664C283.284,282.953,289.782,276.528,301.469,282z"/>
		<path fill-rule="evenodd" clip-rule="evenodd" fill="#FAFAFA" d="M463.926,553.864c3.133,5.042,6.269,10.09,9.404,15.133
			c-7.751,18.153-22.751,9.109-35.271,9.445c-36.056-5.836-72.363-1.471-108.53-2.675c-16.546-0.552-33.142,0.611-49.664-0.561
			c-16.251-1.158-25.921-7.667-18.25-25.989c4.319-4.048,9.703-5.589,15.357-5.589c58.893-0.014,117.804-2.535,176.68,1.326
			C458.372,546.426,461.582,549.647,463.926,553.864z"/>
		<path fill-rule="evenodd" clip-rule="evenodd" fill="#E0D394" d="M296.533,315.133c23.755,10.679,33.655,34.482,48.422,53.117
			c45.931,57.963,89.942,117.449,134.734,176.313c4.419,5.809,9.415,10.865,17.624,10.31c-12.804,16.217-19.492-1.232-28.63-5.196
			c-10.115-10.207-15.331-24.448-27.328-33.067c-1.779-1.2-3.428-2.577-5.034-3.997c-7.647-7.508-13.27-16.528-18.9-25.554
			c-6.396-13.784-14.255-26.396-27.611-34.632c-10.484-5.561-17.935-13.652-21.153-25.274c-4.24-18-16.84-29.467-31.071-39.637
			c-6.712-4.029-11.117-10.211-15.438-16.482c-1.932-2.563-3.605-5.285-4.931-8.208c-2.157-5.739-3.654-11.888-9.542-15.343
			c-2.526-2.11-4.415-4.678-5.72-7.69C300.743,331.447,292.863,324.546,296.533,315.133z"/>
		<path fill-rule="evenodd" clip-rule="evenodd" fill="#FAFAFA" d="M482.787,578.615c1.459,0.112,2.918,0.131,4.38,0.052
			c4.679,5.701,9.514,11.359,4.981,19.438c-5.577,5.295-12.658,6.556-19.811,6.369c-35.428-0.938-71.04,3.314-106.285-3.549
			c-9.07-16.454,4.382-20.475,14.53-26.334C414.78,572.442,448.821,574.563,482.787,578.615z"/>
		<path fill-rule="evenodd" clip-rule="evenodd" fill="#E7EBF6" d="M482.787,578.615c-35.028-0.01-70.054-0.023-105.082-0.037
			c-17.15,10.977-36.403,6.962-54.931,7.377c-17.975,0.406-35.977,0.5-53.964-0.019c-20.318-1.232-40.65,0.808-60.968-0.149
			c-8.582-0.406-17.32-0.224-24.558-6.103c-2.15-2.965-1.826-5.631,0.958-8.017c18.838-9.572,39.56-7.62,58.57-4.781
			c57.057,8.525,114.217,2.255,171.251,4.612c8.608,0.36,17.512-2.119,25.793,2.214c11.127-1.784,23.379,4.412,33.474-4.716
			C478.148,570.565,481.064,574.007,482.787,578.615z"/>
		<path fill-rule="evenodd" clip-rule="evenodd" fill="#D4CDAE" d="M440.018,511.491c17.196,6.989,25.699,20.512,28.664,38.185
			c-1.585,1.4-3.173,2.802-4.758,4.192c-1.716-1.27-3.432-2.53-5.148-3.796C448.142,539.343,437.632,528.553,440.018,511.491z"/>
		<path fill-rule="evenodd" clip-rule="evenodd" fill="#BABABA" d="M511.51,597.764c-3.92,2.157-4.604,5.935-4.947,9.88
			c-10.19,0.14-10.627-7.563-11.806-14.671c-1.016-3.721-0.344-7.008,2.488-9.749C506.653,583.504,508.125,591.572,511.51,597.764z"
			/>
		<path fill-rule="evenodd" clip-rule="evenodd" fill="#DFDFD9" d="M502.274,544.712c-3.208-4.79-6.418-9.585-9.628-14.376
			c-1.408-0.93-2.013-2.003-1.814-3.222c0.213-1.289,0.512-1.929,0.899-1.929c1.996-1.232,3.852-0.98,5.582,0.551
			c2.612,6.636,9.863,10.796,9.999,18.747C505.636,544.554,503.955,544.633,502.274,544.712z"/>
		<path fill-rule="evenodd" clip-rule="evenodd" fill="#C0C0C0" d="M497.245,583.224c-0.005,3.24-0.012,6.481-0.019,9.717
			c-1.562,1.887-3.222,2.073-4.991,0.28c-5.271-3.604-4.249-9.399-5.063-14.554C491.236,578.615,494.995,579.255,497.245,583.224z"
			/>
		<path fill-rule="evenodd" clip-rule="evenodd" fill="#BEBEBE" d="M200.817,760.252c-30.243-0.112-60.487-0.229-90.729-0.346
			c-8.127-11.566-10.046-24.49-10.034-38.428c0.196-211.589,0.096-423.173,0.238-634.758c0.007-8.446-2.51-17.706,4.676-24.947
			c12.406,15.511,3.18,34.557,8.449,51.268c0.147,1.434,0.231,2.844,0.378,4.286c0.056,2.979-0.354,5.865-1.127,8.722
			c-1.758,161.311-0.411,322.604-0.595,483.887c-0.044,39.688-1.952,79.418,1.392,118.999c3.107,9.329,10.697,10.384,19.029,10.486
			c8.664,0.104,17.435-0.224,25.662,3.404c7.772,5.846,16.942,5.696,26.042,6.63C191.145,750.171,200.376,748.896,200.817,760.252z"
			/>
		<path fill-rule="evenodd" clip-rule="evenodd" fill="#B5B5B5" d="M109.84,114.797c-10.169-16.884-1.963-35.463-4.87-53.019
			c-0.014-4.048,0.794-7.686,4.84-9.708c0.149,3.553,0.299,7.111,0.451,10.665C120.124,80.17,120.811,97.53,109.84,114.797z"/>
		<path fill-rule="evenodd" clip-rule="evenodd" fill="#BEBEBE" d="M521.065,755.167c-8.402,5.631-17.923,5.317-27.438,5.295
			c-49.785-0.099-99.573-0.136-149.358-0.191c-3.992-5.748-4.375-11.305,0.864-16.571c18.198-8.396,37.498-3.806,56.287-4.333
			c27.737-0.784,55.51-0.233,83.261-0.22c10.291,0.416,20.715-0.779,30.814,2.325C521.096,744.502,525.683,747.972,521.065,755.167z
			"/>
		<path fill-rule="evenodd" clip-rule="evenodd" fill="#B5AFAF" d="M344.107,746.506c0.054,4.589,0.107,9.175,0.161,13.765
			c-47.817-0.01-95.634-0.015-143.451-0.019c-6.887-7.9-16.146-3.792-24.385-4.781c-7.258-0.874-16.631,2.759-18.52-9.045
			c6.98-8.311,16.762-6.583,25.883-7.256c43.783-0.028,87.568-0.215,131.349,0.103C325.216,739.348,336.18,737.251,344.107,746.506z
			"/>
		<path fill-rule="evenodd" clip-rule="evenodd" fill="#C5C5C5" d="M521.065,755.167c-0.094-4.067-1.229-7.564-5.181-9.535
			c-2.132-2.68-3.789-5.589-4.394-9.016c-0.589-3.348-0.754-6.729-0.822-10.123c-0.173-2.265-0.18-4.524-0.158-6.789
			c0.005-5.691-0.035-11.379-0.145-17.065c-0.154-3.475-0.149-6.938-0.124-10.413c-0.045-5.831-0.012-11.654-0.021-17.481
			c-0.044-4.646,0.017-9.287,0.07-13.928c0.049-5.733,0.191-11.468,0.182-17.201c-0.118-2.288-0.061-4.576,0.008-6.868
			c-0.047-2.307,0.093-4.6,0.291-6.896c0.537-4.632,1.133-9.259,4.912-12.626c1.709-0.047,3.421-0.098,5.125-0.14
			c0.114,29.168,0.072,58.337,0.462,87.496c0.101,7.555-2.634,15.991,4.653,22.146c-0.096,9.469-0.194,18.938-0.295,28.407
			c-0.004-0.005-2.283,0.099-2.283,0.099L521.065,755.167z"/>
		<path fill-rule="evenodd" clip-rule="evenodd" fill="#EFF1F8" d="M492.235,593.221c1.664-0.094,3.329-0.187,4.991-0.28
			c3.114,4.902,6.229,9.801,9.339,14.703c-0.03,1.471,0.007,2.933,0.116,4.398c-29.502,14.367-60.338,6.009-90.736,5.397
			c-23.475-6.532-47.469-2.923-71.217-3.334c-37.374-0.648-74.774,0.337-112.147-0.499c-10.209-0.229-23.677,1.919-23.502-15.362
			c13.345-11.878,29.467-7.152,44.74-7.521c26.869-0.854,53.747-0.915,80.621-0.49c10.113,0.158,20.817-0.972,28.939,7.41
			c35.509,0.009,71.021,0.158,106.527-0.089C477.485,597.502,485.883,600.178,492.235,593.221z"/>
		<path fill-rule="evenodd" clip-rule="evenodd" fill="#FBFBFC" d="M415.945,611.972c30.247,0.023,60.492,0.047,90.736,0.07
			c3.002,1.728,6.007,3.45,9.007,5.183c0.019,4.623,0.042,9.25,0.065,13.872c-6.17,6.238-14.169,6.584-22.137,6.631
			c-39.644,0.224-79.292,0.522-118.929-0.146c-15.648-0.266-29.983-3.03-22.571-24.849
			C373.327,607.387,394.623,608.573,415.945,611.972z"/>
		<path fill-rule="evenodd" clip-rule="evenodd" fill="#E3E7F2" d="M329.899,114.792c0,3.161,0,6.327,0,9.488
			c-2.176,2.372-4.737,4.828-7.837,5.024c-45.598,2.867-91.225,6.514-136.672-1.97c-2.813-1.854-4.067-4.464-3.772-7.821
			c0.033-1.588,0.067-3.175,0.107-4.763c27.091-0.019,54.179-0.033,81.268-0.051C285.294,114.727,307.597,114.759,329.899,114.792z"
			/>
		<path fill-rule="evenodd" clip-rule="evenodd" fill="#F4F4F4" d="M109.84,114.797c0.138-17.355,0.278-34.711,0.418-52.062
			c22.253,0.051,44.502,0.098,66.753,0.149c-0.033,17.313-0.065,34.617-0.098,51.926c-9.098,6.579-14.42-1.092-20.112-5.757
			c-5.349-4.385-9.929-7.975-15.542-0.616c-4.029,5.281-7.148,10.874-2.834,17.094c4.958,7.144,11.369,7.555,18.067,2.031
			c7.018-5.781,14.096-10.642,22.606-2.363c4.293,7.419,3.798,14.843,0.189,22.319c-1.686,2.265-3.836,3.908-6.432,5
			c-20.514,2.937-41.007,4.819-61.276-1.485c-6.399-5.977-2.983-13.858-3.974-20.853c-2.204-5.902,9.6-8.983,3.245-15.782
			L109.84,114.797z"/>
		<path fill-rule="evenodd" clip-rule="evenodd" fill="#E0E0E1" d="M176.918,124.317c-8.054-1.079-12.448,3.581-17.612,9.133
			c-7.902,8.498-17.145,6.485-24.686-1.555c-11.131-11.865-3.642-21.875,4.31-31.008c7.886-9.058,14.788-5.813,20.843,2.937
			c4.095,5.92,9.068,11.015,17.141,10.986c1.569,1.569,3.138,3.133,4.705,4.702c0.028,1.602,0.054,3.203,0.082,4.809
			c-0.796,0.607-1.595,1.214-2.391,1.821C178.51,125.536,177.714,124.929,176.918,124.317z"/>
		<path fill-rule="evenodd" clip-rule="evenodd" fill="#D4D1C1" d="M363.27,363.562c-18.667-19.115-34.977-40.029-48.069-63.379
			c1.772-1.377,3.547-2.75,5.325-4.127c0-0.005,0.115,0.187,0.115,0.187c7.604,4.413,11.294,11.594,13.849,19.578
			c3.2,3.119,6.403,6.238,9.604,9.362c0.46,9.642,6.863,14.885,14.332,19.331c1.8,4.487,3.6,8.969,5.402,13.452
			C365.359,359.999,365.096,361.857,363.27,363.562z"/>
		<path fill-rule="evenodd" clip-rule="evenodd" fill="#E6EAF4" d="M334.489,315.819c-4.618-6.527-9.235-13.05-13.852-19.578
			c3.089,0.075,6.175,0.149,9.259,0.224c1.611,3.189,3.223,6.378,4.835,9.567C334.65,309.296,334.568,312.556,334.489,315.819z"/>
		<path fill-rule="evenodd" clip-rule="evenodd" fill="#F6F6F6" d="M382.507,210.333c-20.724,0.028-41.448,0.056-62.173,0.084
			c-3.425,3.693-7.839,5.771-12.677,5.893c-38.945,0.99-77.898,1.957-116.825-0.561c-3.163-0.205-6.004-1.989-8.647-3.843
			c-7.295-8.601-7.354-17.364-0.604-26.283c43.099-5.902,86.191-7.587,129.211,0.887c-0.962,11.706,5.393,14.811,15.87,14.404
			c12.532-0.49,25.102-0.247,37.65-0.046C371.821,200.99,380.843,198.744,382.507,210.333z"/>
		<path fill-rule="evenodd" clip-rule="evenodd" fill="#E4E8F3" d="M310.791,186.511c-43.029-0.005-86.058-0.009-129.089-0.014
			c-0.904-0.383-1.805-0.77-2.713-1.148c-2.208-2.208-3.392-4.711-2.227-7.872c1.489-1.588,3.154-1.798,4.991-0.617
			c76.472,0.023,152.944,0.052,229.413,0.08c0,3.161-0.002,6.317-0.002,9.479C377.707,186.45,344.248,186.483,310.791,186.511z"/>
		<path fill-rule="evenodd" clip-rule="evenodd" fill="#F9F9F8" d="M329.906,157.786c33.469,0,66.938,0,100.408,0
			c-0.002,4.781-0.002,9.558-0.002,14.339c-43.358-0.005-86.716,0.149-130.072-0.182c-6.199-0.046-16.548,3.399-16.291-7.597
			c0.203-8.815,9.418-6.206,15.217-6.439C309.399,157.501,319.657,157.786,329.906,157.786z"/>
		<path fill-rule="evenodd" clip-rule="evenodd" fill="#E4E8F3" d="M349.021,148.261c0.008,1.574,0.008,3.147,0.005,4.721
			c-6.376,0.023-12.749,0.046-19.122,0.07c-49.377,0.014-98.756,0.023-148.133,0.038c-0.469-3.357,0.712-5.963,3.537-7.835
			c35.74-9.642,72.181-2.881,108.273-4.324c17.078-0.682,34.97-3.329,50.663,7.247C345.838,148.195,347.43,148.224,349.021,148.261z
			"/>
		<path fill-rule="evenodd" clip-rule="evenodd" fill="#F1E2E3" d="M181.757,148.172c0.005,1.639,0.007,3.278,0.012,4.912
			c-0.004,7.928-0.012,15.852-0.019,23.775c-1.613,0.014-3.229,0.033-4.844,0.052c-0.705-0.63-1.413-1.261-2.131-1.887
			c-0.937-1.671-1.571-3.45-1.954-5.327c-0.582-3.773-0.649-7.574-0.493-11.389c0.089-1.919,0.472-3.787,1.043-5.617
			c0.927-1.676,2.094-3.175,3.481-4.501l0.054,0.023c0.803-0.607,1.606-1.214,2.412-1.825
			C180.13,146.981,180.945,147.579,181.757,148.172z"/>
		<path fill-rule="evenodd" clip-rule="evenodd" fill="#F6F6F6" d="M344.245,148.177c-54.163,0-108.325,0-162.488,0
			c0-0.005-0.067,0.037-0.067,0.037c-3.6-7.965-3.586-15.931-0.009-23.896l0.019,0.004c49.4-0.014,98.8-0.028,148.2-0.042
			c41.437,0.023,82.871,0.047,124.308,0.07c-32.037,10.314-64.941,2.849-97.401,4.422
			C341.302,129.523,336.004,133.623,344.245,148.177z"/>
		<path fill-rule="evenodd" clip-rule="evenodd" fill="#D5D4CD" d="M493.011,525.377c-0.122,1.653-0.243,3.306-0.364,4.959
			c-38.619-46.197-76.629-92.865-110.076-143.045c1.608-1.989,3.376-2.148,5.309-0.472c1.438,0.154,2.876,0.28,4.321,0.388
			c0.29,9.684,6.567,14.956,14.174,19.247c3.193,4.758,6.385,9.516,9.576,14.273c3.182,3.208,6.364,6.416,9.546,9.628
			c1.354,11.985,10.279,17.888,19.148,23.841c-0.054,6.962,3.309,11.696,9.519,14.568c3.188,4.72,6.378,9.436,9.569,14.152
			c3.591,2.764,7.855,4.879,9.272,9.716c0.759,9.549,6.948,14.881,14.734,18.972C492.38,515.091,497.087,518.551,493.011,525.377z"
			/>
		<path fill-rule="evenodd" clip-rule="evenodd" fill="#D7D8D9" d="M387.879,386.819c-1.77,0.159-3.539,0.313-5.309,0.472
			c-10.348-4.725-13.865-15.007-19.301-23.729c0.185-1.863,0.367-3.726,0.554-5.593c2.975,0.252,5.946,0.509,8.913,0.77
			c0.099,7.938,1.242,15.338,9.752,18.943C384.286,380.726,386.081,383.775,387.879,386.819z"/>
		<path fill-rule="evenodd" clip-rule="evenodd" fill="#E3E6EC" d="M473.005,492.632c-3.091-3.24-6.182-6.476-9.272-9.716
			c14.003,0,28.006,0,45.503,0C496.118,492.138,481.912,482.075,473.005,492.632z"/>
		<path fill-rule="evenodd" clip-rule="evenodd" fill="#F7F6F4" d="M493.011,525.377c-1.759-4.594-3.517-9.184-5.271-13.773
			c14.049-2.639,15.398,3.319,9.571,14.138C495.865,525.77,494.432,525.648,493.011,525.377z"/>
		<path fill-rule="evenodd" clip-rule="evenodd" fill="#F8F8F8" d="M291.778,257.959c-7.469-13.228,0.651-14.204,10.846-14.152
			c28.221,0.154,56.443,0.07,84.664,0.079c1.593,6.359,3.185,12.719,4.776,19.078c-28.689,0.005-57.377,0.005-86.064,0.01
			C301.258,261.302,296.519,259.63,291.778,257.959z"/>
		<path fill-rule="evenodd" clip-rule="evenodd" fill="#F8F8F9" d="M320.325,215.119c63.753,0.019,127.506,0.042,191.259,0.061
			c-26.348,10.384-53.772,2.362-80.608,4.632c-10.825,0.915-22.993-1.667-24.567,14.46c-43.035,0.009-86.074,0.014-129.11,0.023
			c-4.797,3.852-9.945,4.501-15.471,1.695c-10.195-11.239-7.625-18.803,7.211-20.297c15.642-1.583,31.468-0.351,47.212-0.542
			C317.61,215.138,318.969,215.128,320.325,215.119z"/>
		<path fill-rule="evenodd" clip-rule="evenodd" fill="#CDC7A4" d="M296.533,315.133c3.983,8.25,12.032,15.086,8.988,25.788
			c-3.28,1.658-6.385,1.181-9.38-0.742c-6.215-7.527-10.583-16.38-17.005-23.78c-2.911-4.744-5.054-9.81-6.354-15.227
			c-1.338-7.559-2.461-15.17-4.693-22.557c-1.198-6.658-3.151-13.274-1.389-20.143c2.512-4.081,5.199-7.83,10.919-5.267
			c1.515,1.513,3.028,3.03,4.543,4.543c5.738,3.95,9.53,9.75,14.08,14.83c1.742,3.138,3.483,6.28,5.225,9.417
			C266.91,288.14,297.677,304.016,296.533,315.133z"/>
		<path fill-rule="evenodd" clip-rule="evenodd" fill="#C3C1AC" d="M296.241,272.578c-9.375-0.49-10.909-8.433-14.08-14.825
			c3.053,0.308,6.109,0.621,9.159,0.938C292.959,263.324,294.6,267.951,296.241,272.578z"/>
		<path fill-rule="evenodd" clip-rule="evenodd" fill="#ECEDEF" d="M262.974,234.179c4.774,0.037,9.551,0.079,14.325,0.117
			c0.007,1.569,0.026,3.138,0.059,4.707c-0.014,1.606-0.026,3.217-0.038,4.823c-5.26,3.343-10.87,1.181-16.37,1.121
			c-3.548-0.135-7.05-0.528-10.517-1.377c-3.642-1.209-6.953-2.769-7.482-7.2C248.742,227.506,255.767,229.995,262.974,234.179z"/>
		<path fill-rule="evenodd" clip-rule="evenodd" fill="#C7C8CB" d="M262.95,239.095c4.791,1.578,9.579,3.156,14.369,4.734
			c0.098,3.124,0.196,6.252,0.297,9.38c-2.813,1.676-5.631,3.357-8.447,5.038c-0.932-0.275-1.863-0.551-2.799-0.817
			c-3.114-3.908-4.358-8.601-5.544-13.316C260.686,242.088,261.402,240.412,262.95,239.095z"/>
		<path fill-rule="evenodd" clip-rule="evenodd" fill="#E4E7F3" d="M181.713,210.324c46.206,0.033,92.413,0.061,138.621,0.093
			c0.005,1.569,0.003,3.138-0.007,4.702c-0.002,0,0.017,0.074,0.017,0.074c-43.876,0.122-87.307,12.561-131.482,4.819
			c-2.839-1.074-5.176-2.839-7.03-5.239C181.792,213.293,181.753,211.809,181.713,210.324z"/>
		<path fill-rule="evenodd" clip-rule="evenodd" fill="#F9F9F9" d="M439.856,573.713c-86.034,0-172.069,0-258.104,0.004
			c-0.964-1.106-1.926-2.208-2.899-3.31c-3.544-9.198-2.981-17.421,5.659-23.729c26.344-3.768,52.764-9.039,78.461,3.213
			c-1.816,14.255,3.898,19.61,18.711,19.354c44.467-0.775,88.958-0.438,133.436-0.131
			C423.472,569.17,432.797,565.943,439.856,573.713z"/>
		<path fill-rule="evenodd" clip-rule="evenodd" fill="#E8ECF6" d="M262.974,549.891c-27.086-0.005-54.172-0.01-81.258-0.014
			c-0.025-1.383-0.051-2.77-0.084-4.143c1.613-2.287,3.724-3.973,6.292-5.075c58.584-4.902,117.311-0.625,175.952-2.362
			c22.813-0.677,45.842,3.483,68.259-2.676c0.644-3.096-0.054-6.056-0.799-9.03c-0.675-3.245-0.626-6.457,0.262-9.66
			c1.427-3.227,3.277-5.804,7.426-4.813l0.992-0.626c6.257,12.858,12.509,25.718,18.764,38.581
			C393.508,550.012,328.239,549.951,262.974,549.891z"/>
		<path fill-rule="evenodd" clip-rule="evenodd" fill="#EBEDF5" d="M324.23,368.333c4.6,4.847,9.198,9.689,13.796,14.535
			c6.007,6.953,12.301,13.881,1.849,22.225c-52.241,5.926-104.468,7.532-156.649-0.756c-5.286-4.244-5.671-9.558-3.35-15.441
			c7.515-9.371,18.348-8.064,28.428-8.213c28.482-0.43,56.971-0.149,85.458-0.149c9.604,0,19.4,0.621,24.198-10.459
			C319.515,367.554,321.613,366.984,324.23,368.333z"/>
		<path fill-rule="evenodd" clip-rule="evenodd" fill="#E6E9F5" d="M439.022,512.117c-1.33,1.461-2.661,2.918-3.994,4.375
			c-7.088,6.494-15.924,6.476-24.695,6.541c-66.736,0.523-133.48-0.7-200.212,0.868c-8.717,0.206-17.538-0.037-25.573-4.313
			c-3.126-1.7-4.055-4.235-2.806-7.564c23.243-14.815,48.949-4.852,73.397-7.271c45.032-0.022,90.105-0.182,135.173,0.206
			c11.883,0.103,20.448-1.83,20.292-16.016c3.059-3.38,6.411-4.137,10.184-1.182C430.319,493.295,433.847,503.324,439.022,512.117z"
			/>
		<path fill-rule="evenodd" clip-rule="evenodd" fill="#E7EAF4" d="M372.491,426.601c4.24,9.581,10.564,17.374,19.615,22.818
			c-0.695,1.354-1.389,2.703-2.075,4.066c-5.176,5.897-12.219,7.027-19.417,7.093c-57.692,0.523-115.385,0.616-173.077-0.047
			c-4.772-0.056-9.425-1.051-13.573-3.628c-2.9-1.928-3.544-4.459-1.952-7.555c21.345-13.078,44.829-5.028,67.285-6.803
			c31.734,0.71,63.524,0.411,95.31,0.262c7.286-0.038,17.257,2.764,16.809-10.445c-0.012-2.461,0.616-4.684,1.924-6.737
			C366.674,423.397,369.852,422.548,372.491,426.601z"/>
		<path fill-rule="evenodd" clip-rule="evenodd" fill="#E7EAF4" d="M324.23,368.333c-1.356-0.028-2.713,0-4.068,0.08
			c-18.549,7.116-37.581,1.102-56.36,1.718c-26.112,0.859-52.297,1.06-78.445,0.416c-2.972-0.542-4.863-2.297-5.661-5.178
			c-0.273-2.699,0.411-5.178,2.01-7.373c28.218-12.233,57.945-3.035,86.84-5.939c9.682-0.971,21.535,3.418,26.117-10.407
			c0.712-0.943,1.452-1.854,2.195-2.769c2.888,0.672,5.778,1.345,8.666,2.026c1.326,1.275,2.657,2.536,3.985,3.801
			c10.83,1.704,5.909,13.018,11.08,18.177C321.803,364.701,323.017,366.518,324.23,368.333z"/>
		<path fill-rule="evenodd" clip-rule="evenodd" fill="#CDC7A4" d="M372.491,426.601c-2.997-0.397-5.995-0.799-8.992-1.195
			c-0.836-0.626-1.67-1.247-2.521-1.849c-4.184-7.13-9.275-13.551-15.205-19.316c-0.439-0.943-0.854-1.9-1.271-2.858
			c-2.15-6.172-4.3-12.34-6.462-18.513C356.145,392.221,371.023,404.128,372.491,426.601z"/>
		<path fill-rule="evenodd" clip-rule="evenodd" fill="#D4CDAB" d="M420.787,487.762c-3.177-0.064-6.354-0.13-9.532-0.195
			c-0.821-0.621-1.646-1.242-2.483-1.845c-4.252-9.642-13.336-15.301-19.429-23.448c-1.805-4.413,0.079-8.451,1.261-12.565
			c0,0,1.501-0.289,1.503-0.289C409.292,456.497,418.154,469.8,420.787,487.762z"/>
		<path fill-rule="evenodd" clip-rule="evenodd" fill="#CDC7A4" d="M320.589,362.885c-7.343-3.838-5.379-13.335-11.068-18.182
			C323.332,344.591,319.608,355.171,320.589,362.885z"/>
		<path fill-rule="evenodd" clip-rule="evenodd" fill="#FAFAFA" d="M363.38,597.643c-36.655,0-73.313,0-109.969,0
			c-6.675-14.965,8.885-13.214,14.33-19.064c36.655,0,73.311,0,109.964,0C372.931,584.933,368.154,591.287,363.38,597.643z"/>
		<path fill-rule="evenodd" clip-rule="evenodd" fill="#F8F8F9" d="M267.741,578.578c-2.099,8.367-14.776,8.782-14.33,19.064
			c-14.346,0.009-28.692,0.023-43.041,0.032c-8.442,6.868-17.479,7.074-26.964,2.428c-6.227-5.023-6.999-11.351-4.389-18.48
			c0.883-1.036,1.774-2.073,2.666-3.109C210.368,578.536,239.056,578.555,267.741,578.578z"/>
		<path fill-rule="evenodd" clip-rule="evenodd" fill="#E5E8F3" d="M181.753,573.717c-0.023,1.598-0.047,3.199-0.07,4.796
			l0.031,0.093c-20.391,12.136-42.319,6.253-63.819,5.491c-2.846-0.714-5.409-2.013-7.692-3.847
			c-2.97-3.787-2.939-7.784-0.798-11.916c21.842-3.292,43.633-2.018,65.413,0.859c2.477,1.228,4.779,2.73,6.917,4.491
			L181.753,573.717z"/>
		<path fill-rule="evenodd" clip-rule="evenodd" fill="#AFAFB1" d="M110.602,569.039c0.014,3.184,0.028,6.364,0.042,9.548
			c10.326,15.371,4.489,32.676,5.923,49.102c0.044,4.063,0.002,8.124-0.054,12.182c0.065,6.598,0.17,13.205-0.07,19.807
			c0.019,5.216,0.023,10.436,0.259,15.656c0.019,14.32-0.206,28.641-0.446,42.971c-0.189,5.322-0.887,10.524-3.777,15.175
			c-0.983,0.878-1.984,1.746-2.984,2.609c-7.226-7.344-4.163-16.622-4.169-25.026c-0.187-188.841-0.194-377.677-0.021-566.513
			c0.007-8.381-3.159-17.706,4.377-24.919c1.3,0.845,1.898,1.849,1.793,3.012c-0.114,1.242-0.343,1.863-0.689,1.863
			c0.01,7.844,0.019,15.688,0.028,23.533c2.115,3.054,3.868,6.266,4.508,9.987c0.908,6.047,0.71,12.145,0.82,18.229
			c0.117,3.614,0.088,7.233,0.046,10.847c-0.009,7.205-0.084,14.409,0.009,21.614c0.128,2.418,0.101,4.833,0.049,7.247
			c0.004,6.061-0.089,12.117,0.009,18.182c0.065,3.684,0.056,7.368,0.03,11.057c-0.072,8.704-0.065,17.397,0.091,26.101
			c0.119,2.517,0.105,5.028,0.063,7.545c-0.143,8.82-0.115,17.641-0.047,26.46c0.101,6.28,0.154,12.565-0.033,18.845
			c0.023,4.978,0.154,9.959-0.047,14.937c0.049,6.163-0.007,12.327-0.063,18.49c0.082,3.68,0.049,7.359,0.068,11.038
			c-0.023,6.103-0.051,12.206-0.077,18.308c0.124,4.879,0.117,9.759,0.014,14.638c0.082,6.084-0.005,12.168-0.026,18.257
			c0.089,3.646,0.056,7.293,0.065,10.939c-0.023,6.052-0.061,12.107-0.088,18.158c0.046,4.828,0.007,9.651-0.021,14.479
			c0.04,6.005-0.044,12.01-0.004,18.014c0.128,2.409,0.1,4.81,0.044,7.214c-0.077,7.2-0.161,14.404-0.042,21.609
			c0.135,2.428,0.112,4.852,0.067,7.279c0.03,6.121-0.028,12.238,0.059,18.359c-0.019,5.038,0.033,10.066-0.075,15.109
			C115.94,557.496,115.817,564.07,110.602,569.039z"/>
		<path fill-rule="evenodd" clip-rule="evenodd" fill="#F8F7F7" d="M181.678,745.198c-7.924,0.406-15.845,0.813-23.766,1.223
			c-10.917-0.229-21.833-0.63-32.75-0.63c-7.391,0-14.355-0.126-15.665-9.698c-0.002-0.005,0.985,0.453,0.985,0.453
			c2.085-1.956,4.424-3.544,7.006-4.786c21.058-2.315,42.145-5.08,62.892,2.152C184.202,737.279,184.641,741.047,181.678,745.198z"
			/>
		<path fill-rule="evenodd" clip-rule="evenodd" fill="#E1E4F0" d="M110.786,124.504c-0.366-1.625-0.733-3.25-1.102-4.875
			c0.383-1.742,0.768-3.483,1.16-5.229c4.011,1.167,10.949-1.2,10.896,5.155C121.686,125.886,114.86,123.538,110.786,124.504z"/>
		<path fill-rule="evenodd" clip-rule="evenodd" fill="#F5F6F9" d="M181.678,745.198c0.002-2.965,0.007-5.926,0.009-8.891
			c-3.124-3.945-2.687-7.755,0.434-11.486c2.36-1.746,4.966-2.932,7.814-3.623c51.032-2.488,102.097-0.472,153.154-1.158
			c10.4,0.673,21.35-1.531,30.48,5.79c2.206,4.543,2.325,8.745-2.015,12.205c-58.669,1.648-117.407-0.378-173.164,0.985
			c3.338-2.549,10.536-0.074,17.218-0.112c46.02-0.252,92.041-0.168,138.063-0.103c9.518,0.015,19.043,0.448,28.026-3.609
			c27.563-1.713,55.15-0.854,82.712-0.495c8.664,0.112,19.803-2.586,23.066,10.502c-47.789,0.434-95.578,0.863-143.37,1.298
			C289.964,746.071,235.822,745.632,181.678,745.198z"/>
		<path fill-rule="evenodd" clip-rule="evenodd" fill="#FEFEFD" d="M487.478,745.203c-34.686-9.194-70.026-1.682-104.976-4.109
			c-1.402-3.301-0.567-5.879,2.489-7.746c43.773-4.553,87.568-9.39,130.964,3.007c-0.023,3.096-0.045,6.187-0.068,9.277
			C506.416,745.487,496.946,745.348,487.478,745.203z"/>
		<path fill-rule="evenodd" clip-rule="evenodd" fill="#F9FAFA" d="M353.819,612.033c-1.832,14.297,3.932,19.596,18.749,19.362
			c47.722-0.756,95.462-0.294,143.19-0.299c0.301,1.56,0.351,3.124,0.147,4.697c-8.298,8.031-18.873,6.687-28.956,6.757
			c-32.977,0.224-65.955,0.042-98.927,0.154c-47.668-0.206-95.342-0.322-143.012,0.046c-20.832,0.159-41.084-2.502-61.057-8.152
			c-7.936-5.486-7.8-12.863-4.898-20.885c1.692-2.728,4.036-4.712,6.978-5.981C241.862,612.467,297.988,606.5,353.819,612.033z"/>
		<path fill-rule="evenodd" clip-rule="evenodd" fill="#FDFDFD" d="M515.943,674.23c0.002,6.322,0.004,12.64,0.009,18.957
			c-8.325,8.008-18.91,6.71-29.007,6.729c-41.67,0.094-83.343,0.313-125.013-0.074c-6.173-0.257-12.262-0.836-17.382-4.865
			c-6.758-17.099,6.101-20.941,17.439-25.849c44.745-3.493,89.571-1.065,134.365-1.462
			C503.567,667.605,510.487,668.848,515.943,674.23z"/>
		<path fill-rule="evenodd" clip-rule="evenodd" fill="#F3F4FA" d="M515.943,674.23c-52.449-0.019-104.896-0.037-157.343-0.061
			c-15.42,7.224-31.797,7.966-48.476,7.784c-32.315-0.346-64.638,0.126-96.953-0.238c-9.42-0.107-19.06,0.051-27.03-6.438
			c-3.131-20.008,12.392-16.833,22.904-17.029c49.158-0.92,98.335-0.299,147.488-0.453c50.3,0.02,100.617,0.547,150.932-0.317
			c3.059-0.195,5.86,0.561,8.409,2.256C515.896,664.565,515.92,669.398,515.943,674.23z"/>
		<path fill-rule="evenodd" clip-rule="evenodd" fill="#FDFDFD" d="M515.957,702.933c0.014,6.308,0.028,12.611,0.042,18.915
			c-3.574,3.324-7.748,5.948-12.603,5.985c-41.012,0.309-82.079,3.628-123.021-1.905c-7.966-6.854-18.103-12.934-9.563-25.891
			c44.768-4.184,89.629-1.298,134.453-1.513C509.351,698.501,512.856,700.336,515.957,702.933z"/>
		<path fill-rule="evenodd" clip-rule="evenodd" fill="#FDFCFC" d="M515.875,659.733c-1.438,0.056-2.876,0.089-4.313,0.107
			c-41.384,5.075-82.928,1.018-124.381,2.203c-13.847-5.836-6.64-13.554-1.886-21.053c2.411-1.882,5.154-2.75,8.21-2.597
			c40.8,1.509,81.726-3.165,122.45,2.41C515.929,647.117,515.901,653.425,515.875,659.733z"/>
		<path fill-rule="evenodd" clip-rule="evenodd" fill="#F0F2FA" d="M515.957,702.933c-49.26-0.019-98.522-0.042-147.782-0.061
			c-3.227,2.96-6.67,2.787-10.246,0.714c-2.122-3.576-2.172-7.022,0.66-10.286c52.456-0.037,104.912-0.074,157.366-0.112
			C515.955,696.438,515.955,699.683,515.957,702.933z"/>
		<path fill-rule="evenodd" clip-rule="evenodd" fill="#F7F8FB" d="M515.955,736.354c-44.483-0.009-88.967-0.023-133.45-0.032
			c-3.196,2.988-6.386,2.609-9.572-0.015c0.005-3.18,0.01-6.354,0.015-9.529c47.695-3.871,95.391-3.965,143.087,0.051
			C516.006,730.004,515.98,733.18,515.955,736.354z"/>
		<path fill-rule="evenodd" clip-rule="evenodd" fill="#EAEDF8" d="M516.034,726.829c-47.696-0.019-95.392-0.037-143.087-0.051
			c-9.57-0.019-19.137-0.038-28.707-0.057c-1.484-2.89-0.908-5.285,1.726-7.195c11.04-5.28,21.7-5.379,31.763,2.387
			c46.092-0.019,92.184-0.042,138.273-0.065C516.011,723.51,516.022,725.167,516.034,726.829z"/>
		<path fill-rule="evenodd" clip-rule="evenodd" fill="#EBEFF9" d="M515.955,640.805c-42.896-0.052-85.794-0.104-128.692-0.159
			c-1.214-1.06-1.613-2.115-1.205-3.171c0.409-1.05,0.817-1.573,1.226-1.573c42.875-0.037,85.752-0.069,128.625-0.103
			C515.922,637.466,515.938,639.138,515.955,640.805z"/>
		<path fill-rule="evenodd" clip-rule="evenodd" fill="#EDEFF7" d="M353.819,612.033c-57.363-0.005-114.724-0.01-172.087-0.015
			c-3.899-3.395-4.011-7.513-2.313-11.985c0.751-0.804,1.51-1.606,2.267-2.405c9.563,0.015,19.125,0.033,28.685,0.047
			c2.347,13.298,12.967,9.357,20.897,9.399c53.304,0.275,106.61,0.005,159.913,0.289c8.358,0.047,17.703-3.185,24.768,4.608
			C395.237,611.995,374.529,612.014,353.819,612.033z"/>
		<path fill-rule="evenodd" clip-rule="evenodd" fill="#E3E7F2" d="M110.581,157.856c0.075-3.273,0.149-6.546,0.229-9.819
			c22.018,0.051,44.033,0.103,66.043,0.154c0,1.615-0.002,3.231-0.002,4.846c-18.396,12.112-39.277,3.614-58.717,7.102
			c-1.345-0.093-2.683-0.21-4.027-0.317C112.929,159.173,111.755,158.514,110.581,157.856z"/>
		<path fill-rule="evenodd" clip-rule="evenodd" fill="#F2E2E3" d="M181.681,124.317c0.002,7.965,0.004,15.931,0.009,23.896
			c-1.595,0-3.189,0-4.784,0c0.002-7.965,0.007-15.931,0.009-23.896C178.505,124.313,180.093,124.313,181.681,124.317z"/>
		<path fill-rule="evenodd" clip-rule="evenodd" fill="#F4F4F4" d="M156.504,118.527c-3.273,6.103-7.275,5.841-11.092,5.094
			c-4.571-0.892-6.808-4.072-5.295-8.568c1.555-4.632,5.851-5.463,9.509-3.512C152.612,113.13,154.632,116.534,156.504,118.527z"/>
		<path fill-rule="evenodd" clip-rule="evenodd" fill="#F2E2E3" d="M181.702,186.497c0.004,7.947,0.007,15.889,0.012,23.827
			l-0.031,0.056c-2.533,1.536-4.779,1.195-6.751-1.023c-4.221-7.41-4.179-14.806,0.051-22.192c2.01-2.265,4.245-2.498,6.693-0.71
			L181.702,186.497z"/>
		<path fill-rule="evenodd" clip-rule="evenodd" fill="#E3E7F2" d="M181.676,186.455c-1.599,0.009-3.198,0.023-4.8,0.038
			c-21.999,10.963-44.021,11.271-66.069,0.149c-0.007-3.287-0.011-6.579-0.019-9.866c22.057-10.108,44.096-10.137,66.116,0.107
			l0.002,0.028C178.496,180.091,180.086,183.275,181.676,186.455z"/>
		<path fill-rule="evenodd" clip-rule="evenodd" fill="#F5F5F5" d="M176.827,157.8c0.002,4.772,0.005,9.539,0.007,14.311
			c-17.862,4.936-36.077,1.831-54.109,2.041c-12.007,0.14-11.748-7.76-7.994-16.389h0.009
			C135.437,154.074,156.133,154.027,176.827,157.8z"/>
		<path fill-rule="evenodd" clip-rule="evenodd" fill="#F0F1F3" d="M114.731,157.763c-0.869,11.341,4.994,14.82,15.551,14.479
			c15.504-0.504,31.034-0.131,46.552-0.131c0.04,1.587,0.065,3.18,0.07,4.772c-22.041-0.037-44.082-0.07-66.12-0.107
			c-0.065-6.308-0.138-12.616-0.208-18.919C111.962,157.8,113.347,157.772,114.731,157.763z"/>
		<path fill-rule="evenodd" clip-rule="evenodd" fill="#F0F1F3" d="M176.827,157.8c-20.696-0.014-41.39-0.023-62.086-0.033
			c20.028-10.436,41.486-2.11,62.109-4.73C176.876,154.625,176.869,156.212,176.827,157.8z"/>
		<path fill-rule="evenodd" clip-rule="evenodd" fill="#F5F5F6" d="M181.683,215.142c46.221,0.019,92.441,0.033,138.661,0.051
			c-14.57,9.502-30.772,3.259-46.171,4.516c-10.193,0.831-18.464,1.055-11.199,14.47c-6.607,0.766-14.125-2.078-19.177,4.842
			c-18.546,11.538-38.355,6.378-57.931,4.412c-2.661-1.102-4.842-2.839-6.558-5.154c-3.371-6.616-3.5-13.326-0.42-20.097
			C179.811,217.164,180.747,216.155,181.683,215.142z"/>
		<path fill-rule="evenodd" clip-rule="evenodd" fill="#EAECF3" d="M277.177,301.868c1.602,4.66,3.205,9.315,4.807,13.975
			c1.665,3.054,0.792,4.926-2.617,5.617c-18.831-9.394-39.07-8.764-59.357-8.829c-13.02-0.038-26.654,2.647-38.666-5.37
			c-2.542-3.698-2.666-7.527-0.623-11.468c12.513-9.25,27.06-5.267,40.83-6.051c13.142-0.747,26.766,1.513,38.266-7.471
			C276.668,278.975,271.438,295.275,277.177,301.868z"/>
		<path fill-rule="evenodd" clip-rule="evenodd" fill="#E4E6ED" d="M281.979,320.376c0.019-1.513,0.021-3.026,0.007-4.539
			c9.789,4.571,14.64,12.322,14.867,23.047c0.005-0.005-0.502,0.877-0.502,0.877c-10.545,9.493-23.633,6.883-35.808,6.738
			c-24.161-0.29-48.445,2.475-72.487-2.096c-2.797-0.962-5.199-2.559-7.202-4.711c-0.833-2.993-0.014-5.477,2.435-7.405
			c18.758-8.129,38.561-3.311,57.889-4.403C255.148,327.095,269.471,328.865,281.979,320.376z"/>
		<path fill-rule="evenodd" clip-rule="evenodd" fill="#B2B3B6" d="M262.95,239.095c0.077,1.349,0.131,2.699,0.159,4.048
			c-0.28,5.668-0.451,11.299,4.889,15.156c0,0,1.153-0.047,1.163-0.052c1.083,6.35,2.157,12.7,3.229,19.05
			c-2.72,3.03-6.322,2.526-9.831,2.447c-2.533,0.023-4.671-0.873-6.453-2.671c-3.717-5.033-5.362-10.921-7.032-16.818
			c-1.713-7.653-1.347-14.941,3.836-21.352C256.257,238.969,259.604,239.03,262.95,239.095z"/>
		<path fill-rule="evenodd" clip-rule="evenodd" fill="#BABAB3" d="M262.903,277.369c3.164-0.023,6.327-0.047,9.488-0.07
			c4.833,7.555,5.412,15.941,4.786,24.565c-4.697-6.663-9.395-13.335-14.092-20.008c-1.251-0.948-1.695-1.928-1.333-2.941
			C262.121,277.882,262.504,277.369,262.903,277.369z"/>
		<path fill-rule="evenodd" clip-rule="evenodd" fill="#E5E9F3" d="M252.909,238.904c0.193,8.007,0.387,16.015,0.581,24.018
			c-1.001,0.29-2,0.579-3.002,0.873c-6.808-2.554-6.884-13.237-15.955-13.055c-16.888-2.241-34.484,3.371-50.735-4.875
			c-2.141-1.839-2.832-4.123-2.094-6.84c20.699,0,41.397,0,62.096-0.005C246.834,238.983,249.872,238.941,252.909,238.904z"/>
		<path fill-rule="evenodd" clip-rule="evenodd" fill="#595959" d="M267.998,258.3c-11.374-1.91-14.447-6.495-4.889-15.156
			C267.944,247.164,267.246,252.967,267.998,258.3z"/>
		<path fill-rule="evenodd" clip-rule="evenodd" fill="#E3E7F2" d="M176.862,210.333c1.608,0.019,3.215,0.033,4.821,0.047
			c0.005,1.587,0.005,3.175,0,4.762l0.026,0.098c-23.612,11.169-47.238,11.215-70.883,0.103c0.002-1.718,0.007-3.437,0.009-5.154
			C132.869,199.085,154.877,199.407,176.862,210.333z"/>
		<path fill-rule="evenodd" clip-rule="evenodd" fill="#F4E5E5" d="M181.734,573.685c-1.625,0.005-3.25,0.01-4.875,0.014
			c-5.741-7.013-6.509-14.497-2.157-22.473c1.929-2.423,4.259-2.886,6.976-1.396l0.037,0.047
			C181.723,557.81,181.729,565.747,181.734,573.685z"/>
		<path fill-rule="evenodd" clip-rule="evenodd" fill="#F7F7F9" d="M181.767,516.436c84.421,0.019,168.842,0.037,253.263,0.057
			c-0.002,3.156-0.004,6.308-0.004,9.464c-8.374,8.312-19.158,6.537-29.285,6.593c-46.06,0.252-92.119,0.075-138.18,0.122
			c-11.106,0.009-22.345-0.715-32.236,5.925c-17.904,1.975-35.82,3.945-53.551-1.405
			C176.047,530.271,175.779,523.351,181.767,516.436z"/>
		<path fill-rule="evenodd" clip-rule="evenodd" fill="#F3F4F8" d="M181.783,535.486c17.502,0.004,35.002,0.004,52.503,0.009
			c8.271-6.653,18.128-4.646,27.448-4.674c59.375-0.187,118.749-0.061,178.123-0.089c8.483,5.355,13.793,11.501-1.037,13.91
			c-10.827,1.76-22.164,0.42-33.274,0.42c-74.603,0.005-149.204-0.005-223.806-0.01c-0.637-0.682-1.272-1.367-1.912-2.049
			C178.963,540.104,179.348,537.526,181.783,535.486z"/>
		<path fill-rule="evenodd" clip-rule="evenodd" fill="#FAFAFA" d="M439.856,530.732c-7.022,7.812-16.35,4.595-24.682,4.628
			c-60.296,0.266-120.591,0.14-180.889,0.135c2.99-14.512,14.717-9.282,23.054-9.338c59.227-0.401,118.457-0.206,177.687-0.201
			C436.635,527.549,438.245,529.141,439.856,530.732z"/>
		<path fill-rule="evenodd" clip-rule="evenodd" fill="#E5E9F3" d="M181.678,549.83c-1.599,0.009-3.198,0.023-4.8,0.032
			c-21.999,10.973-44.023,11.281-66.072,0.149c-0.07-4.786-0.138-9.571-0.205-14.357c21.42,3.314,43.246,1.457,64.656,5.043
			c2.307,1.214,4.455,2.666,6.453,4.342c0,0,0.025,0.014,0.028,0.014C181.708,546.646,181.688,548.237,181.678,549.83z"/>
		<path fill-rule="evenodd" clip-rule="evenodd" fill="#F7F7F8" d="M181.692,368.147c46.171-7.83,92.331-7.578,138.472,0.261
			c1.936,5.692,3.873,11.384,6.43,18.892c-49.213,0-97.068,0-144.922,0c-0.824-0.873-1.648-1.742-2.482-2.61
			C176.664,378.671,176.542,373.007,181.692,368.147z"/>
		<path fill-rule="evenodd" clip-rule="evenodd" fill="#F8F8F8" d="M181.748,401.63c54.249-0.084,108.5-0.164,162.752-0.248
			c0.002,0-0.131-0.027-0.131-0.027c14.346,15.175,14.384,23.724-0.339,24.19c-53.756,1.709-107.713,6.85-161.323-2.885
			C176.351,415.932,175.77,408.928,181.748,401.63z"/>
		<path fill-rule="evenodd" clip-rule="evenodd" fill="#E6DBE3" d="M181.748,401.63c-0.004,6.378-0.007,12.756-0.012,19.139
			c-1.041,0.425-2.084,0.85-3.133,1.279c-2.211-0.798-3.882-2.204-4.968-4.305c-2.168-5.491-2.306-11.239-2.213-17.033
			c0.215-4.772,0.983-9.39,3.99-13.326c2.062-1.583,4.16-1.629,6.294-0.14l-0.035,0.056
			C181.697,392.077,181.723,396.854,181.748,401.63z"/>
		<path fill-rule="evenodd" clip-rule="evenodd" fill="#F9F9FA" d="M411.255,487.566c3.519,6.966,7.039,13.933,12.119,23.985
			c-56.353,0-110.776,0-165.201,0c-5.351-4.52-17.432,0.159-17.028-12.098c0.343-10.408,8.657-11.879,16.424-13.578
			c4.613-1.009,8.981-2.891,13.662-3.688c39.312-2.508,78.662-0.762,117.991-1.093c7.981-0.065,15.763,0.808,22.083,6.514
			L411.255,487.566z"/>
		<path fill-rule="evenodd" clip-rule="evenodd" fill="#F8F8F8" d="M267.757,487.739c-1.879,1.391-3.572,3.264-5.673,4.08
			c-5.535,2.139-14.075-2.213-16.665,5.758c-3.495,10.762,10.342,7.521,12.754,13.975c-25.475,0.005-50.948,0.005-76.42,0.005
			c-0.892-0.953-1.781-1.9-2.687-2.854c-3.402-7.909-3.199-15.482,2.131-22.599c2.244-1.714,4.721-2.913,7.433-3.679
			C215.112,482.626,242.125,474.978,267.757,487.739z"/>
		<path fill-rule="evenodd" clip-rule="evenodd" fill="#F1E2E4" d="M181.711,545.039c-1.618-0.005-3.236-0.005-4.854-0.01
			c-6.446-6.826-5.844-15.226-5.333-23.626c0.243-2.399,0.88-4.696,1.828-6.905c0.656-0.99,1.342-1.975,2.015-2.956
			c2.113-1.475,4.223-1.536,6.32,0.047c0,0,0.063-0.027,0.063-0.032c0.005,1.625,0.009,3.254,0.017,4.879
			c0.004,6.351,0.009,12.7,0.016,19.051C181.76,538.67,181.736,541.854,181.711,545.039z"/>
		<path fill-rule="evenodd" clip-rule="evenodd" fill="#F8F8F8" d="M253.409,449.4c-23.883-0.005-47.766-0.01-71.649-0.01
			c-0.98-1.13-1.963-2.26-2.958-3.38c-2.893-9.04-4.975-17.855,6.619-22.665c55.605-0.518,111.211,0.416,166.809-0.532
			c4.109-0.069,7.87,0.206,11.274,2.62l-0.008-0.028c-0.047,1.634-0.098,3.273-0.146,4.912c-21.784,13.433-45.838,4.781-68.777,6.91
			C279.916,438.586,264.346,435.846,253.409,449.4z"/>
		<path fill-rule="evenodd" clip-rule="evenodd" fill="#F8F8F9" d="M253.409,449.4c-0.959-14.466,6.49-19.4,20.147-19.209
			c29.927,0.42,59.862,0.126,89.793,0.126c5.096,4.758,9.522,9.889,10.503,19.083C333.224,449.4,293.316,449.4,253.409,449.4z"/>
		<path fill-rule="evenodd" clip-rule="evenodd" fill="#F2F4F7" d="M390.604,449.708c0.567,4.511,1.135,9.017,1.702,13.527
			c0.284,1.461,0.569,2.923,0.858,4.384c-1.219,0.85-2.441,1.7-3.655,2.563c-66.19,0.112-132.395,1.247-198.597-0.64
			c-2.946-0.564-5.652-1.718-8.127-3.408c-3.751-3.651-3.906-7.625-1.016-11.855c60.392-0.023,120.78-0.005,181.169-0.112
			C372.352,454.148,382.147,455.914,390.604,449.708z"/>
		<path fill-rule="evenodd" clip-rule="evenodd" fill="#F1E2E4" d="M181.769,454.279c0.007,3.171,0.014,6.341,0.019,9.512
			c4.431,4.562,5.131,9.926,3.42,15.814c-0.878,2.143-2.339,3.786-4.347,4.931c-2.309,0.145-4.298-0.57-5.909-2.27
			c-3.046-4.865-3.194-10.338-3.282-15.824c-0.07-3.198,0.149-6.383,0.611-9.548c0.334-2.106,1.011-4.104,1.912-6.028
			c0.663-0.813,1.35-1.62,2.024-2.428c2.068-1.056,3.882-0.654,5.475,0.989l0.067-0.037
			C181.765,451.021,181.767,452.65,181.769,454.279z"/>
		<path fill-rule="evenodd" clip-rule="evenodd" fill="#F7F7F7" d="M181.673,339.511c38.227,0.084,76.451,0.164,114.678,0.252
			c11.526,13.854,9.635,19.606-9.682,19.097c-34.972-0.915-69.989-0.252-104.987-0.252c-0.824-0.864-1.648-1.732-2.481-2.596
			C176.67,350.012,176.533,344.367,181.673,339.511z"/>
		<path fill-rule="evenodd" clip-rule="evenodd" fill="#F5F5F5" d="M181.706,387.244c-1.59,0.023-3.177,0.042-4.767,0.056
			c-5.582,3.922-4.188,10.744-6.63,15.987c-1.765,2.783-4.116,4.501-7.587,4.207c-3.712-2.092-5.941-5.626-8.617-8.703
			c-6.887-8.54-14.073-2.891-21.194-0.425c-8.388-1.756-15.905-5.221-22.144-11.211c-0.042-6.359-0.084-12.719-0.126-19.079
			c22.492-19.638,46.697-13.153,71.035-4.669c0.005,1.583,0.009,3.161,0.017,4.739C181.697,374.516,181.702,380.88,181.706,387.244z
			"/>
		<path fill-rule="evenodd" clip-rule="evenodd" fill="#E5E9F2" d="M181.676,363.408c-23.643,2.148-47.882-4.823-71.04,4.669
			c0.056-3.217,0.11-6.429,0.161-9.646c23.652-11.155,47.29-11.103,70.911,0.098l-0.026,0.08
			C181.681,360.209,181.678,361.811,181.676,363.408z"/>
		<path fill-rule="evenodd" clip-rule="evenodd" fill="#E6EAF5" d="M363.504,425.434c-60.593,0.046-121.182,0.098-181.774,0.145
			c-1.228-1.061-1.648-2.129-1.258-3.213c0.39-1.088,0.787-1.629,1.19-1.629l0.075,0.032c50.381-0.005,100.766-0.411,151.137,0.215
			c17.486,0.215,25.016-2.881,11.496-19.629C357.571,403.955,363.361,412.453,363.504,425.434z"/>
		<path fill-rule="evenodd" clip-rule="evenodd" fill="#E6EAF5" d="M392.093,468.525c0.07-1.761,0.14-3.521,0.213-5.286
			c12.845,3.045,19.013,11.295,18.996,24.369c-47.848,0.042-95.697,0.084-143.545,0.131c-28.676-0.015-57.352-0.028-86.027-0.042
			c-1.228-1.051-1.644-2.106-1.251-3.176c0.395-1.073,0.794-1.61,1.2-1.61l0.037-0.033c8.561-7.854,19.237-6.536,29.481-6.564
			c51.749-0.145,103.5,0.14,155.246-0.243C375.398,476.005,386.064,479.475,392.093,468.525z"/>
		<path fill-rule="evenodd" clip-rule="evenodd" fill="#F7F7F7" d="M114.785,578.564c22.309,0.014,44.619,0.027,66.928,0.041
			c-0.01,6.341-0.019,12.682-0.028,19.022l0.007,0.047c-18.269,12.2-38.402,7.714-57.663,4.978
			C110.037,600.663,110.632,589.438,114.785,578.564z"/>
		<path fill-rule="evenodd" clip-rule="evenodd" fill="#F6F6F7" d="M110.807,550.012c22.025-0.051,44.049-0.098,66.072-0.149
			c-0.005,7.947-0.012,15.89-0.019,23.836c-22.05-2.087-44.742,4.927-66.26-4.659C110.669,562.698,110.737,556.353,110.807,550.012z
			"/>
		<path fill-rule="evenodd" clip-rule="evenodd" fill="#ECEEF5" d="M114.785,578.564c-1.658,13.535,2.99,20.245,17.946,19.32
			c16.263-1.008,32.635-0.219,48.961-0.21c0.014,4.781,0.025,9.563,0.04,14.344h-0.023c-1.823,1.606-3.815,2.97-5.958,4.109
			c-10.646,3.398-21.665,2.241-32.511,2.087c-10.973-0.154-19.886,2.923-26.213,12.205c-1.996,1.882-4.165,2.097-6.495,0.682
			c0.035-17.505,0.07-35.01,0.107-52.515C112.023,578.555,113.405,578.55,114.785,578.564z"/>
		<path fill-rule="evenodd" clip-rule="evenodd" fill="#F4F4F6" d="M110.676,721.848c-0.021-15.96-0.042-31.914-0.063-47.869
			c13.057-22.627,51.172-22.893,69.867-0.518c3.864,15.6,4.973,31.189-0.474,46.705c-4.555,6.551-11.02,7.004-18.007,5.604
			c-2.302-0.757-4.188-2.181-5.584-4.17c-3.997-10.142,6.569-22.762-5.292-31.61c-15.621-6.962-11.937,12.808-20.836,15.063
			c-7.195,3.361-10.121,10.309-13.893,16.552C114.552,723.159,112.64,723.164,110.676,721.848z"/>
		<path fill-rule="evenodd" clip-rule="evenodd" fill="#F4F4F6" d="M176.853,516.398c0.002,9.544,0.005,19.088,0.005,28.631
			c-14.734,0.01-29.493-0.527-44.187,0.215c-9.392,0.477-16.557-2.152-22.074-9.59c0.07-6.364,0.138-12.733,0.203-19.102
			C132.792,505.767,154.812,506.21,176.853,516.398z"/>
		<path fill-rule="evenodd" clip-rule="evenodd" fill="#F4F4F5" d="M110.826,215.343c23.628-0.037,47.254-0.07,70.883-0.103
			c-0.012,6.355-0.021,12.714-0.033,19.069c-21.394,16.011-53.166,16.034-71.004,0.047
			C110.723,228.015,110.774,221.679,110.826,215.343z"/>
		<path fill-rule="evenodd" clip-rule="evenodd" fill="#F6F6F6" d="M110.8,449.26c-0.079-6.331-0.156-12.658-0.236-18.989
			c2.71-6.262,7.924-9.245,14.176-10.897c1.973-0.607,3.999-0.935,6.061-1.046c4.081,0.145,8.083,1.022,12.145,1.419
			c7.342,0.948,14.521-1.274,21.84-1.13c7.37,1.816,11.703,6.794,14.243,13.644c-0.418,5.767,2.024,11.873-2.125,17.168
			l-0.056-0.022C154.809,459.598,132.792,460.056,110.8,449.26z"/>
		<path fill-rule="evenodd" clip-rule="evenodd" fill="#F4F4F5" d="M176.862,210.333c-22.013-0.047-44.023-0.098-66.032-0.145
			c-0.007-7.849-0.021-15.698-0.028-23.547c22.027-0.051,44.051-0.098,66.074-0.149
			C176.871,194.439,176.867,202.386,176.862,210.333z"/>
		<path fill-rule="evenodd" clip-rule="evenodd" fill="#F6F6F7" d="M110.809,511.397c0-7.835,0-15.674,0.002-23.514
			c21.459-11.164,43.293-8.983,65.266-1.835c5.078,8.353,4.015,16.911,0.829,25.54l-0.051-0.023
			C154.828,515.319,132.813,515.651,110.809,511.397z"/>
		<path fill-rule="evenodd" clip-rule="evenodd" fill="#F8F8F8" d="M110.812,659.653c-0.002-6.266-0.005-12.527-0.007-18.793
			c20.624-12.415,42.826-5.416,64.488-5.271c2.755,0.756,5.206,2.082,7.392,3.917c4.389,6.477,4.478,13.14,0.843,19.961
			c-2.005,2.068-4.448,3.315-7.298,3.75C154.56,659.668,132.369,665.49,110.812,659.653z"/>
		<path fill-rule="evenodd" clip-rule="evenodd" fill="#F6F6F6" d="M181.708,358.528c-23.64-0.033-47.28-0.065-70.916-0.098
			c0.002-6.266-0.002-12.537-0.005-18.803c23.607-11.421,47.25-11.057,70.925-0.21l-0.04,0.093
			C181.685,345.852,181.697,352.188,181.708,358.528z"/>
		<path fill-rule="evenodd" clip-rule="evenodd" fill="#F4F4F5" d="M110.692,325.013c0.023-6.303,0.047-12.602,0.068-18.905
			c20.815-11.351,42.392-7.405,63.998-3.208c6.875,5.318,7.798,12.187,5.183,19.97c-1.359,2.731-3.439,4.739-6.185,6.056
			C152.458,332.334,131.057,336.994,110.692,325.013z"/>
		<path fill-rule="evenodd" clip-rule="evenodd" fill="#F5F5F6" d="M176.836,463.795c0.009,6.364,0.021,12.724,0.03,19.083
			c-22.06,3.773-44.112,4.058-66.153-0.145c-0.061-6.284-0.119-12.574-0.18-18.858c2.139-2.008,4.555-3.591,7.232-4.786
			C137.688,457.655,157.94,452.276,176.836,463.795z"/>
		<path fill-rule="evenodd" clip-rule="evenodd" fill="#E7EAF2" d="M110.692,325.013c22.071,0.038,44.143,0.08,66.214,0.117
			c4.221,1.863,7.373,4.263,4.784,9.539c0.002,1.583,0.009,3.166,0.023,4.749c-23.645,0.065-47.29,0.135-70.93,0.206
			C110.755,334.753,110.725,329.883,110.692,325.013z"/>
		<path fill-rule="evenodd" clip-rule="evenodd" fill="#F1F1F4" d="M110.791,272.387c-0.023-9.479-0.044-18.957-0.068-28.436
			c2.479-1.522,4.709-1.214,6.698,0.892c6.548,10.987,17.325,11.229,28.386,11.738c11.253,0.523,23.538-2.722,32.815,7.224
			c1.272,4.421,0.593,8.273-3.17,11.29C153.625,280.441,131.896,283.756,110.791,272.387z"/>
		<path fill-rule="evenodd" clip-rule="evenodd" fill="#E9ECF3" d="M176.834,306.037c-22.027,0.023-44.054,0.047-66.079,0.07
			c-0.049-9.586-0.103-19.167-0.156-28.753c2.418-1.531,4.604-1.251,6.567,0.813c6.032,9.95,15.593,11.631,26.234,11.916
			c11.512,0.309,23.607-2.162,34.064,5.337C179.453,299.094,179.596,302.652,176.834,306.037z"/>
		<path fill-rule="evenodd" clip-rule="evenodd" fill="#E9EBF4" d="M110.812,659.653c23.628,0.062,47.254,0.122,70.883,0.183
			c3.848,2.834,2.208,6.85,2.267,10.506c-0.075,1.975-0.768,3.688-2.167,5.104c-1.949,0.826-3.565,0.392-4.844-1.299
			c-17.463-13.597-49.335-13.681-66.34-0.168C110.681,669.202,110.746,664.431,110.812,659.653z"/>
		<path fill-rule="evenodd" clip-rule="evenodd" fill="#E6EAF4" d="M157.662,721.945c6.416,0.005,12.833,0.01,19.251,0.014
			c0.836-0.648,1.674-1.293,2.512-1.942c0.974,0.421,1.945,0.841,2.918,1.266c1.207,1.989,1.062,3.819-0.656,5.458l0.016,0.057
			c-11.516,8.287-24.709,3.376-37.11,4.692c-10.051,1.069-20.872-2.745-29.88,4.795c-1.417,0.019-2.83,0.107-4.235,0.262
			c0.065-4.897,0.128-9.801,0.194-14.698c1.371,0.047,2.736,0.061,4.102,0.051c5.481-5.295,12.42-6.747,19.639-7.518
			C142.898,714.615,151.139,715.66,157.662,721.945z"/>
		<path fill-rule="evenodd" clip-rule="evenodd" fill="#E5E9F2" d="M114.778,243.9c-1.354-0.009-2.71,0.004-4.06,0.046
			c-0.014-3.198-0.035-6.396-0.051-9.595c23.677,8.517,47.343,5.808,71.009-0.042c0.007,1.574,0.017,3.147,0.028,4.721
			c0.005,1.602,0.007,3.208,0.012,4.814c-1.004,0.957-2.007,1.91-3.002,2.881c-2.431,1.382-5.029,2.307-7.772,2.839
			C152.043,249.559,132.528,255.391,114.778,243.9z"/>
		<path fill-rule="evenodd" clip-rule="evenodd" fill="#E5E8F3" d="M114.701,463.739c-1.392,0.01-2.783,0.052-4.17,0.136
			c0.089-4.87,0.173-9.74,0.264-14.615c22.022,0.047,44.037,0.099,66.052,0.146c0,1.615,0,3.235,0.002,4.851
			c-10.674,8.073-23.068,3.53-34.678,4.692C132.89,459.878,122.898,456.596,114.701,463.739z"/>
		<path fill-rule="evenodd" clip-rule="evenodd" fill="#E7EAF4" d="M181.694,640.659c-23.633,0.065-47.264,0.131-70.895,0.201
			c-0.089-3.255-0.182-6.509-0.273-9.759c1.398,0.023,2.792,0.033,4.188,0.037c19.44-3.469,38.932-2.035,58.438-0.653
			c2.591,0.635,4.926,1.807,7.02,3.455C182.652,635.729,183.161,637.97,181.694,640.659z"/>
		<path fill-rule="evenodd" clip-rule="evenodd" fill="#F4F4F5" d="M110.758,420.572c-0.007-6.279-0.016-12.555-0.023-18.835
			c6.334-5.533,12.878-5.239,19.578-0.7c4.578,6.873,4.37,13.456-1.214,19.708l0.016-0.005
			C122.965,424.093,116.842,424.541,110.758,420.572z"/>
		<path fill-rule="evenodd" clip-rule="evenodd" fill="#E3E7F3" d="M114.776,277.331c-1.396-0.009-2.79,0-4.182,0.023
			c0.065-1.653,0.126-3.311,0.189-4.963c22.034,0.038,44.063,0.075,66.092,0.117c1.237-0.388,2.475-0.775,3.721-1.158
			c0.796,1.041,1.587,2.073,2.379,3.128c-0.317,1.289-0.635,2.563-0.962,3.856c-1.074,0.808-2.138,1.602-3.208,2.428
			c-2.465,1.218-5.05,2.008-7.753,2.465C152.115,283,132.512,288.981,114.776,277.331z"/>
		<path fill-rule="evenodd" clip-rule="evenodd" fill="#E4E7F3" d="M110.713,482.733c22.053,0.052,44.103,0.099,66.153,0.145
			c1.604,0.015,3.208,0.023,4.812,0.033c0.016,1.597,0.033,3.193,0.051,4.786h-0.035c-1.599,2.292-3.198,2.292-4.797,0
			c-22.032,0.061-44.063,0.121-66.09,0.187C110.779,486.165,110.746,484.452,110.713,482.733z"/>
		<path fill-rule="evenodd" clip-rule="evenodd" fill="#E4E8F3" d="M110.809,511.397c22.015,0.057,44.031,0.112,66.046,0.168
			c-0.002,1.611-0.002,3.222-0.002,4.833c-22.022,0.051-44.042,0.098-66.057,0.149C110.802,514.834,110.805,513.116,110.809,511.397
			z"/>
		<path fill-rule="evenodd" clip-rule="evenodd" fill="#E8EBF2" d="M129.229,401.62c-6.168,0.042-12.336,0.079-18.499,0.117
			c0.012-4.861,0.021-9.722,0.033-14.582c9.663-1.508,17.129,2.223,23.042,9.651C134.893,400.896,133.656,402.773,129.229,401.62z"
			/>
		<path fill-rule="evenodd" clip-rule="evenodd" fill="#E3E7F2" d="M110.758,420.572c6.119,0.057,12.238,0.112,18.357,0.168
			c-6.187,3.176-12.371,6.355-18.555,9.53C110.627,427.039,110.692,423.804,110.758,420.572z"/>
		<path fill-rule="evenodd" clip-rule="evenodd" fill="#F3F4F7" d="M114.713,736.284c1.608-11.448,10.491-9.413,17.983-9.482
			c16.335-0.146,32.673-0.019,49.008-0.005c-0.004,3.17-0.011,6.341-0.016,9.511C159.362,736.303,137.036,736.294,114.713,736.284z"
			/>
		<path fill-rule="evenodd" clip-rule="evenodd" fill="#FBFBFB" d="M372.933,736.308c3.189,0.005,6.381,0.01,9.572,0.015
			c-0.003,1.592-0.005,3.18-0.003,4.771c-63.382,0-126.764,0-190.146,0c-0.014-1.597-0.028-3.193-0.04-4.786
			C252.521,736.308,312.726,736.308,372.933,736.308z"/>
		<path fill-rule="evenodd" clip-rule="evenodd" fill="#E7EBF6" d="M181.688,726.74c0.012-1.592,0.023-3.188,0.037-4.781
			c5.937-6.467,13.971-7.209,21.875-7.34c39.595-0.653,79.192-0.663,118.784,0.005c7.912,0.136,15.934,0.92,21.854,7.4
			c0.005,1.564,0.007,3.129,0.002,4.697C290.057,726.727,235.871,726.736,181.688,726.74z"/>
		<path fill-rule="evenodd" clip-rule="evenodd" fill="#E9ECF6" d="M181.694,640.659c-0.004-1.587-0.007-3.175-0.009-4.763
			c-1.214-1.083-1.606-2.156-1.184-3.217c0.42-1.055,0.838-1.583,1.251-1.583c68.354,8.194,137.011,3.633,205.53,4.805
			c-0.002,1.583-0.009,3.166-0.021,4.744l0.035,0.079c-7.716,6.826-17.225,7.508-26.799,7.56
			c-50.675,0.271-101.352,0.285-152.027-0.014c-9.543-0.057-19.111-0.556-26.792-7.509L181.694,640.659z"/>
		<path fill-rule="evenodd" clip-rule="evenodd" fill="#F4E5E6" d="M181.753,631.097c-0.023,1.602-0.047,3.203-0.068,4.8
			c-1.615-0.014-3.231-0.032-4.847-0.046c-6.294-7.961-6.219-15.908,0.059-23.841c1.604,0.004,3.208,0.004,4.812,0.009
			C181.723,618.378,181.739,624.737,181.753,631.097z"/>
		<path fill-rule="evenodd" clip-rule="evenodd" fill="#F9F9FA" d="M186.455,674.138c57.382,0.014,114.764,0.023,172.146,0.032
			c-4.694,6.43-15.326,8.396-14.341,19.088c-4.563,5.276-10.835,6.354-17.206,6.411c-44.208,0.388-88.418,0.971-132.622-0.304
			c-4.006-0.117-7.732-1.442-11.162-3.549c-6.089-6.803-4.726-14.171-1.609-21.67l0.038-0.023
			C183.292,671.892,184.876,671.779,186.455,674.138z"/>
		<path fill-rule="evenodd" clip-rule="evenodd" fill="#EDF0F7" d="M181.778,693.226c54.161,0.014,108.321,0.022,162.481,0.032
			c4.776,0.014,9.553,0.028,14.329,0.042c0,3.171-0.002,6.346-0.005,9.516c-5.22,5.804-12.31,7.004-19.446,7.135
			c-46.578,0.836-93.163,0.957-139.74-0.061c-5.566-0.117-10.966-1.368-15.85-4.291C178.989,702.05,178.758,697.866,181.778,693.226
			z"/>
		<path fill-rule="evenodd" clip-rule="evenodd" fill="#EAEDF6" d="M186.455,674.138h-2.376l-2.379-0.015
			c0-4.762-0.002-9.524-0.005-14.287l-0.012-0.089c5.638-5.066,12.509-6.943,19.812-7.051c46.944-0.687,93.888-1.041,140.825,0.215
			c4.79,0.131,9.432,1.434,13.683,3.834c3.119,1.867,3.979,4.487,2.59,7.844c-50.486,0.005-100.972-0.121-151.455,0.149
			C199.241,664.78,188.745,660.975,186.455,674.138z"/>
		<path fill-rule="evenodd" clip-rule="evenodd" fill="#EDF0F9" d="M358.592,664.589c0-1.578-0.003-3.156-0.008-4.739
			c7.952-7.246,15.932-6.032,23.928-0.074c43.018,0.019,86.034,0.042,129.05,0.065c-7.022,7.778-16.329,4.543-24.651,4.608
			C444.141,664.762,401.366,664.589,358.592,664.589z"/>
		<path fill-rule="evenodd" clip-rule="evenodd" fill="#FAFAFA" d="M181.783,702.909c58.935-0.028,117.869-0.061,176.801-0.094
			c3.196,0.019,6.393,0.038,9.589,0.057c2.68,6.602,10.218,10.763,9.556,19.041c-11.164,0.037-22.326,0.074-33.49,0.111
			c-54.172-0.022-108.344-0.046-162.516-0.065c0.002,0-0.007-0.019-0.007-0.019C178.192,715.586,178.171,709.24,181.783,702.909z"/>
		<path fill-rule="evenodd" clip-rule="evenodd" fill="#FAFAFA" d="M382.512,659.775c-7.975,0.023-15.952,0.051-23.928,0.074
			c-58.967-0.032-117.934-0.065-176.901-0.103c0-6.327,0-12.658-0.002-18.989c68.539-0.01,137.078-0.019,205.617-0.033
			C385.703,647.075,384.106,653.425,382.512,659.775z"/>
		<path fill-rule="evenodd" clip-rule="evenodd" fill="#F4F5F6" d="M181.69,334.669c-1.595-3.18-3.189-6.359-4.784-9.539
			l-0.007,0.009c5.463-5.388-0.481-13.681,4.863-19.097c21.17-0.019,42.385,0.78,63.499-0.327
			c15.054-0.789,27.457,2.283,36.719,14.661c1.377,14.096-7.774,14.488-18.051,14.395
			C236.518,334.529,209.103,334.678,181.69,334.669z"/>
		<path fill-rule="evenodd" clip-rule="evenodd" fill="#F6F6F6" d="M262.903,277.369c0.098,1.494,0.159,2.993,0.182,4.487
			c0.679,11.178-4.823,14.983-15.64,14.727c-21.882-0.527-43.785-0.187-65.679-0.201c-5.291-6.332-5.155-12.681-0.056-19.045
			l0.002-0.023c25.584-10.739,51.195-10.095,76.827-0.182C259.997,277.158,261.451,277.238,262.903,277.369z"/>
		<path fill-rule="evenodd" clip-rule="evenodd" fill="#F1E1E3" d="M181.711,277.336c0.019,6.35,0.035,12.695,0.054,19.045
			c0,3.222-0.002,6.439-0.005,9.661c-0.805,6.574,2.183,14.11-4.86,19.097c-0.021-6.369-0.042-12.738-0.063-19.102
			c-0.005-3.222-0.01-6.438-0.014-9.656c-4.994-6.359-4.961-12.705,0.037-19.045C178.475,277.336,180.093,277.336,181.711,277.336z"
			/>
		<path fill-rule="evenodd" clip-rule="evenodd" fill="#E4E8F3" d="M258.54,277.13c-25.608,0.061-51.219,0.122-76.827,0.182
			c0.007-1.606,0.016-3.208,0.025-4.814c16.868-12.233,36.172-4.903,54.298-6.85c5.792-0.206,11.883,1.499,17.138-2.563l0.313-0.164
			C258.767,266.382,257.84,272.046,258.54,277.13z"/>
		<path fill-rule="evenodd" clip-rule="evenodd" fill="#F6F6F6" d="M243.828,272.513c-20.696-0.005-41.395-0.009-62.091-0.014
			c0.002,0-0.012-0.019-0.012-0.019c-3.427-9.539-8.068-19.074-0.019-28.622l0.009-0.014c20.696,0.005,41.393,0.009,62.089,0.014
			C246.876,253.406,248.921,262.955,243.828,272.513z"/>
		<path fill-rule="evenodd" clip-rule="evenodd" fill="#ECEDEF" d="M243.828,272.513c-0.007-9.553-0.014-19.102-0.023-28.655
			c7.774,4.146,1.987,14.899,9.373,19.228C253.252,269.394,249.946,272.349,243.828,272.513z"/>
		<path fill-rule="evenodd" clip-rule="evenodd" fill="#F3EFF1" d="M176.885,430.326c-4.751-3.188-9.5-6.373-14.25-9.558
			c-4.144-4.855-4.16-9.66,0.18-14.414c1.515-1.573,3.03-3.151,4.545-4.729c3.18-2.825,6.364-2.825,9.551-0.014
			c0.007,6.378,0.011,12.751,0.019,19.129C179.895,423.948,179.533,427.143,176.885,430.326z"/>
		<path fill-rule="evenodd" clip-rule="evenodd" fill="#F2E4E4" d="M176.885,430.326c0.014-3.198,0.028-6.392,0.044-9.586
			c1.578,0,3.156,0,4.732-0.004c0.021,1.61,0.044,3.227,0.068,4.842c-0.012,7.951-0.026,15.898-0.037,23.85
			c-1.597,0-3.191,0-4.789,0C176.897,443.06,176.892,436.69,176.885,430.326z"/>
		<path fill-rule="evenodd" clip-rule="evenodd" fill="#EDEEF2" d="M176.911,401.611c-3.185,0.004-6.369,0.009-9.553,0.014
			c-0.082-6.966-0.159-13.928,9.581-14.325C176.93,392.072,176.92,396.844,176.911,401.611z"/>
		<path fill-rule="evenodd" clip-rule="evenodd" fill="#F4E4E5" d="M176.897,487.697c1.599,0,3.198,0,4.797,0
			c-0.002,7.965-0.004,15.926-0.007,23.892c-1.592,0-3.187,0-4.781,0C176.904,503.623,176.899,495.662,176.897,487.697z"/>
		<path fill-rule="evenodd" clip-rule="evenodd" fill="#F6F6F8" d="M392.093,468.525c3.525,1.9,7.758,4.02,7.289,8.423
			c-0.901,8.479-8.211,5.78-13.061,5.822c-31.72,0.267-63.442,0.141-95.165,0.136c-36.48-0.005-72.961-0.019-109.441-0.028
			c0.023-6.364,0.047-12.724,0.073-19.087c1.564,0,3.128,0,4.692,0.004c7.422,6.416,16.473,4.697,25.024,4.712
			c60.181,0.121,120.362,0.098,180.544,0.065L392.093,468.525z"/>
		<path fill-rule="evenodd" clip-rule="evenodd" fill="#F9F9F9" d="M392.049,468.572c-5.439,6.709-13.071,4.688-19.984,4.701
			c-54.9,0.126-109.801,0.201-164.699-0.079c-7.924-0.037-18.56,3.922-20.885-9.399c59.329-0.004,118.656,0.023,177.984-0.051
			C373.981,463.734,383.504,463.239,392.049,468.572z"/>
		<path fill-rule="evenodd" clip-rule="evenodd" fill="#F0F1F5" d="M114.701,463.739c1.623-11.388,10.457-9.399,17.941-9.474
			c14.733-0.145,29.472-0.023,44.208-0.01c-0.004,3.18-0.009,6.359-0.014,9.539C156.124,463.776,135.414,463.758,114.701,463.739z"
			/>
		<path fill-rule="evenodd" clip-rule="evenodd" fill="#E0E0E0" d="M129.229,401.62c1.527-1.602,3.051-3.208,4.576-4.813
			c8.005-15.185,16.052-15.32,24.144-0.07c-0.598,3.235-2.568,5.463-5.206,7.205c-7.205,3.226-8.379,10.216-10.337,16.725
			c-1.025,1.783-2.279,3.385-3.74,4.823c-3.189-1.583-6.378-3.161-9.567-4.744C129.143,414.372,129.187,407.998,129.229,401.62z"/>
		<path fill-rule="evenodd" clip-rule="evenodd" fill="#DCDCDC" d="M153.023,401.555c1.641-1.605,3.282-3.212,4.923-4.818
			c3.766,2.125,4.56,5.748,4.866,9.623c-0.059,4.8-0.119,9.604-0.178,14.409c-6.747,7.882-15.871,3.693-23.969,4.721
			c0.023-1.657,0.047-3.311,0.07-4.964C144.649,415.067,150.371,409.465,153.023,401.555z"/>
		<path fill-rule="evenodd" clip-rule="evenodd" fill="#F7F7F7" d="M176.897,612.01c-0.019,7.946-0.038,15.894-0.059,23.841
			c-20.628-2.605-42.083,5.668-62.124-4.712c-1.508-13.382,2.895-20.399,17.935-19.354
			C147.332,612.808,162.142,612.01,176.897,612.01z"/>
		<path fill-rule="evenodd" clip-rule="evenodd" fill="#DDDDDD" d="M157.662,721.945c-8.344,0.574-16.415-0.196-23.717-4.776
			c-6.597-3.096-9.656-7.382-4.833-14.33c2.197-5.683,3.301-12.195,6.833-16.869c6.161-8.153,13.27-11.524,17.08,2.418
			c1.069,1.219,1.52,2.508,1.354,3.861c-0.168,1.392-0.404,2.083-0.684,2.092c-4.653,4.735-8.171,9.525-0.724,14.886
			c2.5,2.124,4.358,4.622,4.802,7.956C157.742,718.771,157.704,720.357,157.662,721.945z"/>
		<path fill-rule="evenodd" clip-rule="evenodd" fill="#F8F8F8" d="M129.112,702.839c1.611,4.776,3.22,9.554,4.833,14.33
			c-5.052,7.004-12.532,4.165-19.171,4.729C114.341,711.627,113.94,701.378,129.112,702.839z"/>
		<path fill-rule="evenodd" clip-rule="evenodd" fill="#F3E4E6" d="M181.783,702.909c-0.023,6.346-0.047,12.69-0.068,19.031
			c-1.602,0.01-3.203,0.015-4.802,0.019c0.012-15.936,0.023-31.871,0.038-47.813c1.571,0,3.142,0,4.711,0
			c0.038,6.359,0.077,12.72,0.117,19.083C181.781,696.456,181.783,699.683,181.783,702.909z"/>
		<path fill-rule="evenodd" clip-rule="evenodd" fill="#D9D9D9" d="M157.774,717.183c-1.585-1.563-3.168-3.133-4.751-4.702
			c-0.908-6.438-3.964-12.882,0.019-19.32c-0.007-1.588-0.014-3.18-0.016-4.772C164.832,691.857,165.864,698.123,157.774,717.183z"
			/>
		<path fill-rule="evenodd" clip-rule="evenodd" fill="#F6F6F6" d="M114.778,243.9c20.696-0.014,41.395-0.028,62.091-0.042
			c3.551,6.374,3.527,12.733-0.04,19.092c-14.724,0.004-29.504-0.775-44.161,0.233C117.72,264.206,113.176,257.342,114.778,243.9z"
			/>
		<path fill-rule="evenodd" clip-rule="evenodd" fill="#F1E2E3" d="M176.829,262.95c0.014-6.364,0.028-12.729,0.042-19.092
			c1.611,0,3.222,0,4.835,0c0.007,9.543,0.012,19.083,0.019,28.622c-1.615,0.009-3.233,0.019-4.849,0.028
			C176.859,269.319,176.846,266.134,176.829,262.95z"/>
		<path fill-rule="evenodd" clip-rule="evenodd" fill="#F6F6F6" d="M176.859,277.336c-0.012,6.35-0.023,12.695-0.035,19.045
			c-14.738,0.014-29.528-0.747-44.194,0.266c-14.991,1.037-19.478-5.883-17.855-19.316
			C135.47,277.331,156.164,277.336,176.859,277.336z"/>
		<path fill-rule="evenodd" clip-rule="evenodd" fill="#EEEEEE" d="M153.023,401.555c5.827,14.297-0.724,19.279-14.288,18.971
			C140.764,412.14,132.941,396.34,153.023,401.555z"/>
		<path fill-rule="evenodd" clip-rule="evenodd" fill="#EEEEEE" d="M153.042,693.16c2.391,6.443,8.484,12.887-0.019,19.32
			c-6.154-0.331-13.181,0.486-13.882-8.46C138.334,693.674,145.723,693.352,153.042,693.16z"/>
	</g>
</g>
</svg>
