<?xml version="1.0" encoding="utf-8"?>
<!-- Generator: Adobe Illustrator 16.0.0, SVG Export Plug-In . SVG Version: 6.00 Build 0)  -->
<!DOCTYPE svg PUBLIC "-//W3C//DTD SVG 1.1//EN" "http://www.w3.org/Graphics/SVG/1.1/DTD/svg11.dtd">
<svg version="1.1" id="Layer_1" xmlns="http://www.w3.org/2000/svg" xmlns:xlink="http://www.w3.org/1999/xlink" x="0px" y="0px"
	 width="612px" height="792px" viewBox="0 0 612 792" enable-background="new 0 0 612 792" xml:space="preserve">
<g>
	<g>
		<path fill-rule="evenodd" clip-rule="evenodd" fill="#FFFFFF" d="M578.424,703.72c-181.001,0-362,0-543,0c0-204,0-408,0-612
			c181,0,361.999,0,543,0C578.424,295.72,578.424,499.72,578.424,703.72z M568.683,400.497
			c2.573-161.095-119.749-294.581-259.948-292.772C162.565,109.612,47.94,237.704,48.19,403.268
			c0.199,131.273,85.129,287.361,259.826,290.771C449.32,696.797,569.727,567.837,568.683,400.497z"/>
		<path fill-rule="evenodd" clip-rule="evenodd" d="M568.683,400.497c1.044,167.34-119.362,296.3-260.667,293.542
			C133.319,690.629,48.389,534.541,48.19,403.268c-0.25-165.564,114.375-293.655,260.544-295.542
			C448.934,105.917,571.256,239.402,568.683,400.497z M250.424,374.37c-1.114-0.401-2.225-0.802-3.339-1.203
			c0.902-4.156,1.5-8.432,2.759-12.447c6.432-20.465,13.017-40.87,19.58-61.284c5.878-18.288,12.619-36.304,17.274-54.975
			c1.709-6.86,0.512-16.851-3.06-22.428c-2.727-4.255-12.015-6.456-17.053-4.716c-5.213,1.801-10.069,8.708-12.908,14.684
			c-12.14,25.563-22.375,52.33-35.389,77.286c-15.997,30.676-24.472,62.366-20.504,98.109c1.286,11.582,0.775,23.66-0.587,35.266
			c-0.669,5.703-3.989,12.932-8.133,15.846c-13.292,9.345-27.822,16.446-41.325,25.449c-15.802,10.539-20.84,30.31-12.942,46.805
			c8.416,17.576,25.254,23.246,42.501,13.298c31.921-18.415,63.776-37.002,95.182-56.48c5.736-3.557,12.024-11.051,13.259-17.83
			c6.449-35.389,11.833-71.053,16.564-106.793c2.008-15.163-5.23-26.074-16.36-29.107c-11.098-3.024-21.515,3.27-27.148,16.991
			C255.652,358.499,253.192,366.514,250.424,374.37z M368.48,370.532c-0.995,0.32-1.99,0.639-2.984,0.959
			c-2.383-6.922-4.577-13.935-7.188-20.748c-4.821-12.588-17.138-20.011-27.238-16.707c-12.246,4.007-18.666,15.757-16.49,30.408
			c4.689,31.602,9.363,63.207,14.188,94.783c2.072,13.586,7.668,24.309,19.131,31.036c32.476,19.053,64.681,38.684,97.179,57.687
			c4.036,2.361,9.332,3.671,13.809,3.108c12.349-1.563,24.15-15.594,26.702-31.465c2.309-14.382-3.023-25.914-13.539-33.717
			c-7.681-5.7-15.929-10.966-24.563-14.423c-21.921-8.778-32.361-24.664-28.61-51.241c0.747-5.297-0.467-10.917,0.102-16.271
			c3.573-33.565-3.806-63.682-19.22-92.725c-13.776-25.953-24.6-53.866-37.026-80.74c-7.03-15.208-19.164-19.496-28.329-10.419
			c-7.015,6.943-7.046,15.313-3.987,24.752c11.816,36.461,23.38,73.024,34.849,109.626
			C366.879,359.588,367.435,365.157,368.48,370.532z"/>
		<path fill-rule="evenodd" clip-rule="evenodd" fill="#FFFFFF" d="M250.424,374.37c2.769-7.856,5.229-15.871,8.372-23.532
			c5.633-13.721,16.05-20.015,27.148-16.991c11.13,3.034,18.368,13.944,16.36,29.107c-4.731,35.74-10.115,71.404-16.564,106.793
			c-1.234,6.779-7.523,14.273-13.259,17.83c-31.406,19.479-63.261,38.065-95.182,56.48c-17.247,9.948-34.085,4.278-42.501-13.298
			c-7.898-16.495-2.86-36.266,12.942-46.805c13.503-9.003,28.032-16.104,41.325-25.449c4.144-2.914,7.464-10.143,8.133-15.846
			c1.362-11.605,1.873-23.684,0.587-35.266c-3.967-35.743,4.507-67.433,20.504-98.109c13.014-24.957,23.249-51.724,35.389-77.286
			c2.838-5.975,7.695-12.883,12.908-14.684c5.038-1.74,14.326,0.461,17.053,4.716c3.571,5.577,4.769,15.568,3.06,22.428
			c-4.655,18.671-11.396,36.687-17.274,54.975c-6.563,20.414-13.148,40.819-19.58,61.284c-1.259,4.015-1.857,8.292-2.759,12.447
			C248.199,373.568,249.31,373.969,250.424,374.37z"/>
		<path fill-rule="evenodd" clip-rule="evenodd" fill="#FFFFFF" d="M368.48,370.532c-1.046-5.375-1.602-10.943-3.217-16.095
			c-11.469-36.602-23.032-73.165-34.849-109.626c-3.059-9.439-3.027-17.809,3.987-24.752c9.165-9.077,21.299-4.789,28.329,10.419
			c12.427,26.874,23.25,54.787,37.026,80.74c15.414,29.043,22.793,59.16,19.22,92.725c-0.568,5.354,0.646,10.974-0.102,16.271
			c-3.751,26.577,6.689,42.463,28.61,51.241c8.634,3.457,16.882,8.723,24.563,14.423c10.516,7.803,15.848,19.335,13.539,33.717
			c-2.552,15.871-14.354,29.901-26.702,31.465c-4.477,0.563-9.772-0.747-13.809-3.108c-32.498-19.003-64.703-38.634-97.179-57.687
			c-11.463-6.728-17.059-17.45-19.131-31.036c-4.824-31.576-9.498-63.181-14.188-94.783c-2.176-14.65,4.244-26.4,16.49-30.408
			c10.101-3.304,22.417,4.119,27.238,16.707c2.61,6.813,4.805,13.826,7.188,20.748C366.49,371.171,367.485,370.852,368.48,370.532z"
			/>
	</g>
</g>
<g>
	<ellipse fill="none" stroke="#000000" stroke-width="10" stroke-miterlimit="10" cx="307.5" cy="404" rx="262.337" ry="294.156"/>
</g>
</svg>
