<?xml version="1.0" encoding="utf-8"?>
<!-- Generator: Adobe Illustrator 16.0.0, SVG Export Plug-In . SVG Version: 6.00 Build 0)  -->
<!DOCTYPE svg PUBLIC "-//W3C//DTD SVG 1.1//EN" "http://www.w3.org/Graphics/SVG/1.1/DTD/svg11.dtd">
<svg version="1.1" id="Layer_1" xmlns="http://www.w3.org/2000/svg" xmlns:xlink="http://www.w3.org/1999/xlink" x="0px" y="0px"
	 width="612px" height="792px" viewBox="0 0 612 792" enable-background="new 0 0 612 792" xml:space="preserve">
<g>
	<path fill-rule="evenodd" clip-rule="evenodd" fill="#FDFDFD" d="M54.268,134.842c166.31,0,332.619,0.072,498.928-0.226
		c7.766-0.014,9.304,1.574,9.29,9.594c-0.288,169.42-0.288,338.841,0,508.262c0.014,8.02-1.523,9.609-9.29,9.595
		c-163.285-0.298-326.571-0.298-489.856,0c-7.766,0.015-9.304-1.572-9.291-9.594C54.336,479.93,54.268,307.386,54.268,134.842z
		 M553.817,400.351c0.018-69.623-23.787-129.169-71.228-178.573c-53.774-55.999-119.532-77.504-194.795-72.675
		c-109.961,7.055-223.482,108.564-222.42,254.552c0.803,110.348,79.178,247.86,244.333,250.609
		C445.542,656.524,553.941,541.799,553.817,400.351z"/>
	<path fill-rule="evenodd" clip-rule="evenodd" fill="#585959" d="M553.817,400.351c0.124,141.448-108.275,256.174-244.11,253.913
		c-165.154-2.749-243.53-140.262-244.333-250.609c-1.062-145.987,112.459-247.497,222.42-254.552
		c75.263-4.829,141.021,16.677,194.795,72.675C530.03,271.182,553.835,330.728,553.817,400.351z M255.316,380.848
		c-5.623-4.709-2.767-9.317-1.405-13.498c3.841-11.794,7.995-23.48,12.079-35.19c7.657-21.949,15.458-43.846,22.966-65.85
		c2.326-6.814,2.945-13.789-2.625-19.631c-4.833-5.07-10.787-5.378-16.806-3.336c-5.893,2.001-8.27,7.701-10.816,12.894
		c-13.112,26.735-25.452,53.905-39.417,80.154c-9.383,17.633-14.303,35.321-12.596,55.606c1.268,15.068-0.364,30.377-0.136,45.569
		c0.1,6.653-1.955,10.95-7.73,13.998c-12.734,6.718-25.448,13.514-37.858,20.841c-15.449,9.122-20.703,25.304-13.478,39.643
		c7.746,15.368,23.27,20.249,39.541,11.581c29.784-15.866,59.32-32.229,88.987-48.327c6.336-3.439,11.052-8.179,12.326-15.71
		c5.125-30.268,10.493-60.498,15.097-90.851c1.888-12.454-4.149-21.5-14.324-24.533c-10.006-2.981-19.511,1.788-24.768,13.208
		C260.968,364.763,258.477,372.549,255.316,380.848z M364.938,379.126c-5.356-6.518-6.282-13.643-8.813-20.034
		c-4.417-11.156-15.685-17.917-24.988-14.965c-11.744,3.725-16.758,12.752-14.593,26.29c4.234,26.496,8.63,52.966,12.642,79.499
		c2.089,13.812,8.86,23.07,21.116,29.493c28.896,15.142,57.464,30.971,85.905,47.012c9.698,5.471,17.954,4.205,26.122-2.462
		c18.753-15.306,16.94-39.734-4.082-51.914c-11.821-6.849-23.954-13.132-36.014-19.533c-6.629-3.518-9.682-8.32-9.489-16.598
		c0.509-21.839-0.002-43.701-0.072-65.554c-0.016-5.072-0.254-9.894-2.68-14.676c-9.958-19.639-19.548-39.476-29.314-59.218
		c-7.199-14.552-14.162-29.241-21.788-43.552c-6.675-12.523-19.265-14.496-26.645-4.768c-4.519,5.957-3.581,12.218-1.273,18.792
		c11.021,31.394,21.97,62.815,32.773,94.289C365.548,366.484,368.455,371.859,364.938,379.126z"/>
	<path fill-rule="evenodd" clip-rule="evenodd" fill="#FBFAFA" d="M255.316,380.848c3.161-8.298,5.652-16.084,9.035-23.433
		c5.257-11.42,14.762-16.189,24.768-13.208c10.174,3.033,16.211,12.079,14.324,24.533c-4.604,30.353-9.972,60.583-15.097,90.851
		c-1.274,7.531-5.99,12.271-12.326,15.71c-29.667,16.099-59.203,32.461-88.987,48.327c-16.271,8.668-31.795,3.787-39.541-11.581
		c-7.226-14.339-1.971-30.521,13.478-39.643c12.41-7.327,25.124-14.123,37.858-20.841c5.776-3.048,7.83-7.345,7.73-13.998
		c-0.228-15.192,1.404-30.501,0.136-45.569c-1.707-20.285,3.213-37.973,12.596-55.606c13.966-26.249,26.305-53.418,39.417-80.154
		c2.547-5.192,4.923-10.892,10.816-12.894c6.02-2.042,11.974-1.734,16.806,3.336c5.57,5.842,4.951,12.817,2.625,19.631
		c-7.508,22.004-15.309,43.901-22.966,65.85c-4.084,11.71-8.238,23.396-12.079,35.19
		C252.549,371.53,249.693,376.138,255.316,380.848z"/>
	<path fill-rule="evenodd" clip-rule="evenodd" fill="#FBFBFB" d="M364.938,379.126c3.518-7.267,0.61-12.642-1.193-17.898
		c-10.804-31.474-21.752-62.896-32.773-94.289c-2.308-6.574-3.245-12.834,1.273-18.792c7.38-9.728,19.97-7.755,26.645,4.768
		c7.626,14.311,14.589,29,21.788,43.552c9.767,19.742,19.356,39.579,29.314,59.218c2.426,4.782,2.664,9.604,2.68,14.676
		c0.07,21.853,0.581,43.715,0.072,65.554c-0.192,8.277,2.86,13.08,9.489,16.598c12.06,6.401,24.192,12.685,36.014,19.533
		c21.022,12.18,22.835,36.608,4.082,51.914c-8.168,6.667-16.424,7.933-26.122,2.462c-28.441-16.041-57.009-31.87-85.905-47.012
		c-12.256-6.423-19.027-15.682-21.116-29.493c-4.012-26.532-8.407-53.002-12.642-79.499c-2.165-13.538,2.849-22.564,14.593-26.29
		c9.304-2.952,20.571,3.809,24.988,14.965C358.655,365.483,359.581,372.608,364.938,379.126z"/>
</g>
</svg>
