<?xml version="1.0" encoding="utf-8"?>
<!-- Generator: Adobe Illustrator 16.0.0, SVG Export Plug-In . SVG Version: 6.00 Build 0)  -->
<!DOCTYPE svg PUBLIC "-//W3C//DTD SVG 1.1//EN" "http://www.w3.org/Graphics/SVG/1.1/DTD/svg11.dtd">
<svg version="1.1" id="Layer_1" xmlns="http://www.w3.org/2000/svg" xmlns:xlink="http://www.w3.org/1999/xlink" x="0px" y="0px"
	 width="612px" height="792px" viewBox="0 0 612 792" enable-background="new 0 0 612 792" xml:space="preserve">
<g>
	<path fill="#585858" d="M530.504,557.979c0,16.273,0,32.548,0,48.82c-3.994,2.798-3,7.04-3.938,10.627
		c-20.787,79.499-76.771,130.254-168.283,152.245c-8.586,2.063-17.867,1.501-25.942,5.294c-18.268,0-36.539,0-54.809,0
		c-2.93-3.342-7.615-2.382-11.433-3.101c-95.701-17.999-154.998-68.112-179.522-149.121c-1.615-5.329-0.711-11.267-5.098-15.944
		c0-16.876,0-33.754,0-50.63c3.994-2.796,2.999-7.037,3.938-10.627c20.785-79.496,76.768-130.248,168.279-152.242
		c8.587-2.064,17.866-1.51,25.943-5.297c17.568,0,35.134,0,52.702,0c0.959,2.303,3.391,1.627,5.311,1.884
		c94.337,12.573,166.619,70.483,187.763,150.306C526.988,546.14,526.498,552.541,530.504,557.979z M255.797,565.42
		c-5.18-3.64-2.883-7.148-1.558-10.448c3.772-9.373,7.683-18.704,11.6-28.03c7.123-16.954,14.477-33.839,21.351-50.863
		c2.784-6.895,1.759-13.668-7.047-16.757c-8.276-2.903-15.048-0.198-19.233,6.736c-0.805,1.334-1.61,2.669-2.402,4.008
		c-12.507,21.187-24.474,42.626-37.724,63.467c-7.839,12.333-11.367,24.689-10.069,38.761c1.13,12.241-0.342,24.646-0.205,36.975
		c0.057,5.15-2.097,8.442-7.381,10.771c-11.828,5.215-23.693,10.398-35.218,16.08c-14.379,7.086-19.099,19.596-12.189,30.663
		c7.328,11.736,21.667,15.25,36.95,8.471c27.368-12.144,54.515-24.653,81.812-36.917c7.042-3.164,11.066-7.762,12.396-14.617
		c4.311-22.23,9.16-44.386,13.453-66.617c1.972-10.216-3.074-17.367-13.051-19.914c-9.677-2.469-18.581,1.438-23.563,10.805
		C260.821,553.436,258.618,559.15,255.797,565.42z M357.482,563.974c-4.866-5.138-5.842-10.617-8.171-15.601
		c-3.806-8.148-14.144-13.436-22.357-11.563c-10.968,2.499-16.212,9.625-14.264,19.905c3.994,21.063,8.311,42.085,12.18,63.168
		c1.788,9.74,7.756,16.319,17.843,20.824c27.345,12.21,54.603,24.561,81.748,37.091c8.151,3.765,15.425,3.032,22.56-1.438
		c18.219-11.419,16.98-31.152-2.724-40.626c-10.994-5.287-22.276-10.142-33.482-15.088c-6.146-2.716-9.011-6.395-8.824-12.806
		c0.491-16.851,0.04-33.722-0.089-50.584c-0.026-3.573,0.066-7.063-2.005-10.513c-15.72-26.176-31.186-52.464-46.865-78.658
		c-5.181-8.652-12.602-11.821-20.096-9.032c-7.935,2.954-10.349,9.864-6.388,19.339c10.028,24.006,20.283,47.942,30.201,71.981
		C358.39,554.345,361.232,558.557,357.482,563.974z"/>
	<path fill="#FDFDFD" d="M530.504,557.979c-4.006-5.438-3.516-11.839-5.09-17.784c-21.144-79.823-93.426-137.733-187.763-150.306
		c-1.92-0.256-4.352,0.419-5.311-1.884c63.594,0,127.192,0.099,190.784-0.154c6.293-0.024,7.586,1.086,7.558,6.483
		C530.388,448.88,530.504,503.428,530.504,557.979z"/>
	<path fill="#FDFDFD" d="M279.639,388.003c-8.077,3.787-17.356,3.232-25.943,5.297c-91.512,21.994-147.495,72.746-168.279,152.242
		c-0.938,3.59,0.056,7.831-3.938,10.627c0-54.103,0.1-108.204-0.168-162.305c-0.025-5.009,1.176-6.023,7.004-6.003
		C152.089,388.088,215.865,388.003,279.639,388.003z"/>
	<path fill="#FDFDFD" d="M332.341,774.965c8.075-3.793,17.356-3.23,25.942-5.294c91.512-21.991,147.496-72.746,168.283-152.245
		c0.938-3.587-0.057-7.829,3.938-10.627c0,54.104-0.101,108.205,0.166,162.308c0.027,5.009-1.176,6.021-7.004,6.003
		C459.894,774.881,396.116,774.965,332.341,774.965z"/>
	<path fill="#FDFDFD" d="M81.479,606.799c4.387,4.68,3.483,10.615,5.098,15.944c24.525,81.009,83.821,131.122,179.522,149.121
		c3.818,0.719,8.502-0.241,11.433,3.101c-63.073,0-126.148-0.087-189.22,0.145c-5.834,0.021-7.025-1.001-7-6.004
		C81.578,715.002,81.479,660.902,81.479,606.799z"/>
	<path fill="#FBFBFB" d="M255.797,565.42c2.82-6.27,5.024-11.984,7.921-17.43c4.984-9.367,13.887-13.272,23.563-10.805
		c9.976,2.547,15.023,9.698,13.051,19.914c-4.293,22.231-9.142,44.387-13.453,66.617c-1.33,6.855-5.354,11.453-12.396,14.617
		c-27.296,12.264-54.445,24.773-81.812,36.917c-15.283,6.779-29.622,3.267-36.949-8.471c-6.909-11.067-2.189-23.577,12.189-30.663
		c11.525-5.682,23.391-10.865,35.218-16.08c5.283-2.329,7.438-5.621,7.381-10.771c-0.137-12.329,1.335-24.732,0.205-36.975
		c-1.297-14.07,2.23-26.428,10.07-38.761c13.248-20.841,25.216-42.28,37.724-63.468c0.791-1.338,1.597-2.673,2.402-4.007
		c4.185-6.936,10.957-9.641,19.232-6.736c8.806,3.089,9.832,9.862,7.048,16.757c-6.875,17.024-14.228,33.909-21.35,50.863
		c-3.917,9.326-7.829,18.657-11.6,28.03C252.914,558.271,250.617,561.78,255.797,565.42z"/>
	<path fill="#FBFBFB" d="M357.482,563.974c3.75-5.417,0.907-9.629-0.733-13.599c-9.918-24.039-20.171-47.977-30.201-71.981
		c-3.961-9.475-1.548-16.385,6.388-19.339c7.493-2.789,14.916,0.38,20.096,9.032c15.68,26.194,31.146,52.482,46.865,78.658
		c2.071,3.448,1.979,6.938,2.005,10.513c0.129,16.862,0.58,33.733,0.09,50.584c-0.188,6.411,2.679,10.09,8.823,12.805
		c11.206,4.947,22.488,9.802,33.482,15.089c19.704,9.474,20.942,29.207,2.724,40.626c-7.135,4.471-14.408,5.201-22.56,1.438
		c-27.146-12.53-54.403-24.881-81.748-37.091c-10.088-4.505-16.055-11.084-17.843-20.824c-3.868-21.083-8.185-42.104-12.179-63.168
		c-1.949-10.28,3.295-17.406,14.263-19.905c8.213-1.872,18.552,3.414,22.357,11.563
		C351.642,553.355,352.616,558.836,357.482,563.974z"/>
</g>
</svg>
