<?xml version="1.0" encoding="utf-8"?>
<!-- Generator: Adobe Illustrator 16.0.0, SVG Export Plug-In . SVG Version: 6.00 Build 0)  -->
<!DOCTYPE svg PUBLIC "-//W3C//DTD SVG 1.1//EN" "http://www.w3.org/Graphics/SVG/1.1/DTD/svg11.dtd">
<svg version="1.1" id="Layer_1" xmlns="http://www.w3.org/2000/svg" xmlns:xlink="http://www.w3.org/1999/xlink" x="0px" y="0px"
	 width="224px" height="225px" viewBox="0 0 224 225" enable-background="new 0 0 224 225" xml:space="preserve">
<g>
	<g>
		<path fill-rule="evenodd" clip-rule="evenodd" fill="#FEFEFE" d="M1,113.5c0-36.333,0.045-72.667-0.084-109
			C0.905,1.517,1.518,0.913,4.5,0.918c72.333,0.105,144.666,0.105,217,0c2.982-0.005,3.586,0.6,3.582,3.582
			c-0.105,72.667-0.105,145.333,0,218c0.004,2.982-0.6,3.587-3.582,3.582c-72.334-0.105-144.667-0.105-217,0
			c-2.982,0.005-3.595-0.599-3.584-3.582C1.045,186.167,1,149.833,1,113.5z"/>
		<path fill-rule="evenodd" clip-rule="evenodd" fill="#575757" d="M219.85,124.949c-4.068,36.227-22.09,63.521-53.068,82.343
			c-12.23,7.431-25.594,11.89-39.854,13.526c-9.292,0.129-18.584,0.086-27.876,0.021c-43.277-6.49-72.39-30.584-88.062-71.161
			c-3.552-9.197-5.437-18.851-5.822-28.748c0.571-4.952,0.487-9.906,0.037-14.86C6.7,81.971,15.402,60.684,31.268,42.643
			C49.507,21.904,72.44,9.44,100.079,6.136c0.326-0.039,0.664,0.026,0.996,0.044c7.624,0.522,15.247,0.541,22.87-0.015
			c38.688,2.414,76.891,32.194,90.114,70.249c2.896,8.333,5.21,16.797,5.779,25.653C219.285,109.695,219.271,117.322,219.85,124.949
			z"/>
		<path fill-rule="evenodd" clip-rule="evenodd" fill="#4C4C4C" d="M99.052,220.839c9.291-1.384,18.583-1.343,27.876-0.021
			C117.637,222.133,108.345,222.261,99.052,220.839z"/>
		<path fill-rule="evenodd" clip-rule="evenodd" fill="#494949" d="M123.944,6.165c-7.622,1.34-15.246,1.321-22.87,0.015
			C108.698,5.504,116.32,5.482,123.944,6.165z"/>
		<path fill-rule="evenodd" clip-rule="evenodd" fill="#494949" d="M219.85,124.949c-1.363-7.627-1.348-15.254-0.012-22.882
			C220.508,109.694,220.521,117.321,219.85,124.949z"/>
		<path fill-rule="evenodd" clip-rule="evenodd" fill="#484848" d="M5.205,106.069c1.22,4.956,1.277,9.91-0.037,14.86
			C5.18,115.976,5.192,111.022,5.205,106.069z"/>
		<path fill-rule="evenodd" clip-rule="evenodd" fill="#FEFEFE" d="M67.221,97.297c7.641-15.136,15.283-30.271,22.923-45.408
			c1.13-2.239,2.185-4.646,4.741-5.539c2.438-0.853,4.935-0.848,7.041,1.043c2.798,2.512,2.594,5.608,1.479,8.736
			c-3.8,10.648-7.688,21.266-11.52,31.903c-1.458,4.047-2.783,8.143-4.309,12.163c-0.711,1.872-0.865,3.518,0.975,5.513
			c1.293-3.502,2.446-6.769,3.704-9.994c1.85-4.744,6.176-7.384,10.501-6.499c4.737,0.97,7.938,5.12,7.119,10.425
			c-2.004,12.976-4.347,25.899-6.664,38.824c-0.558,3.114-2.543,5.334-5.368,6.82c-13.391,7.05-26.703,14.253-40.18,21.135
			c-6.4,3.268-13.503,0.705-16.529-5.395c-3.097-6.244-0.892-12.793,5.502-16.649c6.656-4.014,14.137-6.55,20.328-11.39
			C66.367,121.084,65.875,109.184,67.221,97.297z"/>
		<path fill-rule="evenodd" clip-rule="evenodd" fill="#FEFEFE" d="M134.742,92.063c-4.271-12.035-8.502-24.085-12.836-36.099
			c-1.26-3.494-1.115-6.566,2.018-8.922c3.592-2.7,8.049-1.262,10.553,3.619c6.966,13.577,13.785,27.23,20.685,40.843
			c0.819,1.615,1.776,3.159,2.67,4.736c1.366,2.666,0.626,5.525,0.618,8.275c-0.023,9.465,0.365,18.936-0.193,28.396
			c6.238,4.778,13.622,7.513,20.379,11.368c3.751,2.142,6.086,5.102,6.752,9.336c1.168,7.444-6.039,15.834-13.195,14.993
			c-2.147-0.251-4.148-1.889-6.182-2.957c-12.229-6.429-24.41-12.953-36.693-19.278c-4.335-2.231-6.926-5.33-7.705-10.258
			c-1.924-12.147-4.16-24.243-6.164-36.378c-0.736-4.462,1.055-7.823,5.178-9.777c4.328-2.051,7.75-0.809,11.984,4.218
			c1.751,0.337,1.946,1.896,2.377,2.838C134.476,95.627,134.264,93.869,134.742,92.063z"/>
		<path fill-rule="evenodd" clip-rule="evenodd" fill="#484848" d="M158.256,132.913c-0.141-12.224-0.283-24.447-0.425-36.672
			c0.271,0.179,0.774,0.35,0.78,0.537C159.015,108.828,159.707,120.882,158.256,132.913z"/>
		<path fill-rule="evenodd" clip-rule="evenodd" fill="#4A4A4A" d="M67.221,97.297c0.089,11.897,0.583,23.798-0.256,35.688
			c-1.826-4.158-0.797-8.54-0.919-12.814c-0.177-6.149-0.115-12.31,0.006-18.461C66.081,100.223,65.113,98.297,67.221,97.297z"/>
		<path fill-rule="evenodd" clip-rule="evenodd" fill="#535353" d="M134.742,92.063c1.064,3.979,4.258,7.582,2.48,13.133
			c-2.832-3.894-3.403-7.591-4.613-11.017C133.32,93.475,134.031,92.77,134.742,92.063z"/>
	</g>
</g>
</svg>
