<?xml version="1.0" encoding="utf-8"?>
<!-- Generator: Adobe Illustrator 16.0.0, SVG Export Plug-In . SVG Version: 6.00 Build 0)  -->
<!DOCTYPE svg PUBLIC "-//W3C//DTD SVG 1.1//EN" "http://www.w3.org/Graphics/SVG/1.1/DTD/svg11.dtd">
<svg version="1.1" id="Layer_1" xmlns="http://www.w3.org/2000/svg" xmlns:xlink="http://www.w3.org/1999/xlink" x="0px" y="0px"
	 width="612px" height="792px" viewBox="0 0 612 792" enable-background="new 0 0 612 792" xml:space="preserve">
<g>
	<path fill-rule="evenodd" clip-rule="evenodd" fill="none" d="M23.051,526.718c0-166.953,0-333.902,0-500.854
		c186.895,0,373.792,0,560.684,0c0,166.953,0,333.902,0,500.854C396.843,526.718,209.946,526.718,23.051,526.718z M80.573,389.693
		c2.422-0.054,4.842-0.11,7.266-0.168c0.686-11.861-3.044-26.427,3.373-34.781c5.803-7.555,22.681-8.323,37.604-13
		c-15.101-2.006-27.558-3.661-40.013-5.311c0.067-2.098,0.135-4.196,0.201-6.294c15.687-1.692,31.371-3.389,47.057-5.082
		c-0.188-1.463-0.375-2.931-0.562-4.39c-15.824-1.269-31.646-2.53-47.47-3.798c-0.068-2.132-0.14-4.273-0.208-6.405
		c18.649-1.574,37.296-3.145,55.946-4.715c-0.079-2.789-0.158-5.571-0.238-8.361c-17.502-1.169-35.002-2.338-52.504-3.504
		c0.084-2.036,0.169-4.069,0.252-6.102c17.764,0,39.16,5.655,52.526-1.193c26.744-13.709,53.669-8.739,80.667-9.903
		c29.08-1.258,58.992,2.223,87.165-2.667c41.34-7.185,81.767-5.664,125.079-2.527c-3.93-40.172-7.454-81.479-12.854-122.587
		c-0.506-3.829-12.866-9.004-19.836-9.141c-42.263-0.853-84.574-1.04-126.838-0.122c-16.978,0.374-26.038-5.381-29.782-19.577
		c-1.333-5.056-3.971-9.847-5.108-14.922c-3.13-13.971-12.179-18.364-28.025-18.078c-49.557,0.893-99.15,0.88-148.718,0.301
		c-16.82-0.196-21.098,4.943-19.271,19.695c7.928,64.028,14.413,128.202,21.924,192.269
		C71.745,329.505,76.415,359.574,80.573,389.693z M100.257,431.184c7.119,1.086,11.845,2.434,16.576,2.438
		c117.36,0.106,234.728,0.451,352.073-0.636c9.984-0.091,24.604-7.787,28.959-15.567c21.106-37.71,39.569-76.611,58.698-115.194
		c7.427-14.971,0.069-19.58-16.63-19.542c-120.271,0.294-240.553,0.305-360.828-0.023c-14.864-0.038-22.598,4.663-26.107,17.792
		C141.047,345.138,131.465,390.633,100.257,431.184z"/>
	<path fill-rule="evenodd" clip-rule="evenodd" fill="#808285" d="M80.573,389.693c-4.158-30.119-8.829-60.188-12.367-90.364
		c-7.511-64.067-13.996-128.241-21.924-192.269c-1.827-14.752,2.451-19.891,19.271-19.695c49.567,0.579,99.161,0.592,148.718-0.301
		c15.846-0.287,24.895,4.107,28.025,18.078c1.138,5.075,3.776,9.866,5.108,14.922c3.745,14.196,12.805,19.95,29.782,19.577
		c42.264-0.917,84.575-0.731,126.838,0.122c6.97,0.137,19.33,5.312,19.836,9.141c5.4,41.108,8.925,82.415,12.854,122.587
		c-43.313-3.137-83.739-4.658-125.079,2.527c-28.173,4.891-58.085,1.41-87.165,2.667c-26.997,1.165-53.922-3.806-80.667,9.903
		c-13.366,6.848-34.762,1.193-52.526,1.193c-0.083,2.033-0.168,4.066-0.252,6.102c17.502,1.167,35.001,2.335,52.504,3.504
		c0.08,2.79,0.159,5.572,0.238,8.361c-18.649,1.571-37.297,3.142-55.946,4.715c0.068,2.132,0.14,4.273,0.208,6.405
		c15.824,1.268,31.646,2.529,47.47,3.798c0.188,1.459,0.374,2.927,0.562,4.39c-15.686,1.693-31.37,3.39-47.057,5.082
		c-0.066,2.099-0.134,4.197-0.201,6.294c12.455,1.65,24.912,3.305,40.013,5.311c-14.923,4.677-31.801,5.445-37.604,13
		c-6.417,8.354-2.687,22.919-3.373,34.781C85.415,389.583,82.995,389.639,80.573,389.693z"/>
	<path fill-rule="evenodd" clip-rule="evenodd" fill="#808285" d="M100.257,431.184c31.208-40.551,40.79-86.046,52.741-130.731
		c3.509-13.129,11.243-17.83,26.107-17.792c120.275,0.329,240.557,0.317,360.828,0.023c16.699-0.038,24.057,4.57,16.63,19.542
		c-19.129,38.583-37.592,77.483-58.698,115.194c-4.354,7.78-18.975,15.477-28.959,15.567
		c-117.345,1.087-234.713,0.742-352.073,0.636C112.102,433.617,107.375,432.27,100.257,431.184z"/>
</g>
</svg>
