<?xml version="1.0" encoding="utf-8"?>
<!-- Generator: Adobe Illustrator 16.0.0, SVG Export Plug-In . SVG Version: 6.00 Build 0)  -->
<!DOCTYPE svg PUBLIC "-//W3C//DTD SVG 1.1//EN" "http://www.w3.org/Graphics/SVG/1.1/DTD/svg11.dtd">
<svg version="1.1" id="Layer_1" xmlns="http://www.w3.org/2000/svg" xmlns:xlink="http://www.w3.org/1999/xlink" x="0px" y="0px"
	 width="612px" height="792px" viewBox="0 0 612 792" enable-background="new 0 0 612 792" xml:space="preserve">
<line fill="none" x1="20.487" y1="101.932" x2="582.025" y2="102.786"/>
<line fill="none" x1="25.487" y1="394.932" x2="587.025" y2="395.786"/>
<line fill="none" x1="20.487" y1="91.675" x2="582.025" y2="92.53"/>
<line fill="#D1D3D4" stroke="#939598" stroke-width="2" stroke-miterlimit="10" x1="20.487" y1="91.675" x2="573" y2="91.675"/>
<line fill="#D1D3D4" stroke="#939598" stroke-width="2" stroke-miterlimit="10" x1="25" y1="214" x2="577.513" y2="214"/>
<line fill="#D1D3D4" stroke="#939598" stroke-width="2" stroke-miterlimit="10" x1="25" y1="337" x2="577.513" y2="337"/>
<line fill="#D1D3D4" stroke="#939598" stroke-width="2" stroke-miterlimit="10" x1="25" y1="451" x2="577.513" y2="451"/>
<line fill="#D1D3D4" stroke="#939598" stroke-width="2" stroke-miterlimit="10" x1="20.487" y1="561" x2="573" y2="561"/>
<line fill="#D1D3D4" stroke="#939598" stroke-width="2" stroke-miterlimit="10" x1="25" y1="676" x2="577.513" y2="676"/>
<rect x="95" y="46" fill="none" width="402" height="45.675"/>
<text transform="matrix(1 0 0 1 95 88.9595)" font-family="'ArialMT'" font-size="60">C C G</text>
<rect x="417.735" y="65.745" transform="matrix(-0.919 -0.3942 0.3942 -0.919 725.2123 826.3523)" fill="#FFDF60" stroke="#FFDE17" stroke-miterlimit="10" width="59.496" height="545.886"/>
<rect x="449.463" y="150.61" transform="matrix(0.393 -0.9196 0.9196 0.393 152.4203 584.1432)" fill="none" width="138.363" height="52.035"/>
<text transform="matrix(1 0 0 1 492.0215 208.1655)" font-family="'Arial-BoldMT'" font-size="55">Z</text>
<polygon fill="none" points="528.048,228.139 489.544,318.251 411.468,284.887 449.979,194.775 "/>
<text transform="matrix(1 0 0 1 447.1836 300.1543)" font-family="'Arial-BoldMT'" font-size="55">M</text>
<polygon fill="none" points="488.859,328.4 454.793,407.93 349.14,362.687 383.205,283.157 "/>
<text transform="matrix(1 0 0 1 409.4922 388.5366)" font-family="'Arial-BoldMT'" font-size="55">B</text>
<polygon fill="none" points="435.863,438.413 401.802,517.944 301.257,474.888 335.321,395.359 "/>
<text transform="matrix(1 0 0 1 361.6113 500.7383)" font-family="'Arial-BoldMT'" font-size="55">C</text>
<rect x="529.551" y="65.642" transform="matrix(0.9133 0.4073 -0.4073 0.9133 79.9569 -221.4566)" fill="#F5A2C6" width="61.091" height="22.838"/>
<g>
	<g>
		<path fill="#808285" d="M317.75,596.25c3.225,0,3.225-5,0-5S314.525,596.25,317.75,596.25L317.75,596.25z"/>
	</g>
</g>
<g>
	<g>
		<path fill="#808285" d="M322.375,596.5c3.225,0,3.225-5,0-5S319.15,596.5,322.375,596.5L322.375,596.5z"/>
	</g>
</g>
<g>
	<g>
		<path fill="#808285" d="M324.875,597.375c3.225,0,3.225-5,0-5S321.65,597.375,324.875,597.375L324.875,597.375z"/>
	</g>
</g>
<g>
	<g>
		<path fill="#808285" d="M323.125,599.625c3.225,0,3.225-5,0-5S319.9,599.625,323.125,599.625L323.125,599.625z"/>
	</g>
</g>
<g>
	<g>
		<path fill="#808285" d="M321.5,601.375c3.225,0,3.225-5,0-5S318.275,601.375,321.5,601.375L321.5,601.375z"/>
	</g>
</g>
<g>
	<g>
		<path fill="#808285" d="M320.625,601.125c3.225,0,3.225-5,0-5S317.4,601.125,320.625,601.125L320.625,601.125z"/>
	</g>
</g>
<g>
	<g>
		<path fill="#808285" d="M319.625,599.75c3.225,0,3.225-5,0-5S316.4,599.75,319.625,599.75L319.625,599.75z"/>
	</g>
</g>
<g>
	<g>
		<path fill="#808285" d="M319.375,597.375c3.225,0,3.225-5,0-5S316.15,597.375,319.375,597.375L319.375,597.375z"/>
	</g>
</g>
<g>
	<g>
		<path fill="#808285" d="M319.125,595.375c3.225,0,3.225-5,0-5S315.9,595.375,319.125,595.375L319.125,595.375z"/>
	</g>
</g>
<g>
	<g>
		<path fill="#808285" d="M318.875,594.125c3.225,0,3.225-5,0-5S315.65,594.125,318.875,594.125L318.875,594.125z"/>
	</g>
</g>
<g>
	<g>
		<path fill="#808285" d="M318.625,593.75c3.225,0,3.225-5,0-5S315.4,593.75,318.625,593.75L318.625,593.75z"/>
	</g>
</g>
<g>
	<g>
		<path fill="#808285" d="M318.25,592.875c3.225,0,3.225-5,0-5S315.025,592.875,318.25,592.875L318.25,592.875z"/>
	</g>
</g>
<g>
	<g>
		<path fill="#808285" d="M317.75,591.75c3.225,0,3.225-5,0-5S314.525,591.75,317.75,591.75L317.75,591.75z"/>
	</g>
</g>
<g>
	<g>
		<path fill="#808285" d="M317.375,590.625c3.225,0,3.225-5,0-5S314.15,590.625,317.375,590.625L317.375,590.625z"/>
	</g>
</g>
<g>
	<g>
		<path fill="#808285" d="M317,589.875c3.225,0,3.225-5,0-5S313.775,589.875,317,589.875L317,589.875z"/>
	</g>
</g>
<g>
	<g>
		<path fill="#808285" d="M316.375,588.875c3.225,0,3.225-5,0-5S313.15,588.875,316.375,588.875L316.375,588.875z"/>
	</g>
</g>
<g>
	<g>
		<path fill="#808285" d="M315.625,587.5c3.225,0,3.225-5,0-5S312.4,587.5,315.625,587.5L315.625,587.5z"/>
	</g>
</g>
<g>
	<g>
		<path fill="#808285" d="M315.25,586.75c3.225,0,3.225-5,0-5S312.025,586.75,315.25,586.75L315.25,586.75z"/>
	</g>
</g>
<path fill="none" stroke="#808285" stroke-miterlimit="10" d="M313.75,580.625c0.938,0.34,1.627,1.146,2.479,1.649
	c-1.062-0.364-1.517-1.312-1.354-2.399"/>
<path fill="none" stroke="#808285" stroke-miterlimit="10" d="M316,580.75c0.74,0.823,3.129,1.495,4.152,1.976
	c1.623,0.762,3.152,1.524,4.754,2.372c3.513,1.857,7.292,2.866,10.594,4.777"/>
<path fill="none" stroke="#808285" stroke-miterlimit="10" d="M338.75,596.25c-1.334,0.02-2.909,1.689-3.862,2.498
	c-1.179,0.998-2.674,2.657-4.013,3.252"/>
<path fill="none" stroke="#808285" stroke-miterlimit="10" d="M330,590.75c-0.614,0.841-1.008,1.554-1.875,2.25"/>
<path fill="none" stroke="#808285" stroke-miterlimit="10" d="M328.5,591.5c-0.042,0.251-0.083,0.499-0.125,0.75"/>
<path fill="none" stroke="#808285" stroke-miterlimit="10" d="M330.75,601c0,0.208,0,0.417,0,0.625"/>
<g>
	<g>
		<path fill="#808285" d="M329.625,601.875c0.5,0,1,0,1.5,0c-0.804-1.055-1.607-2.109-2.411-3.165
			c-0.065,0.296,0.307-0.531,0.36-0.595c-0.092,0.109-0.649,0.555-0.138,0.168c-0.394,0.298-0.823,0.548-1.249,0.794
			c-0.796,0.459-1.627,0.855-2.449,1.265c0.841,1.438,1.683,2.878,2.523,4.316c0.063-0.036,0.125-0.072,0.188-0.109
			c-0.421,0.114-0.841,0.229-1.262,0.342c0.063-0.005,0.125-0.011,0.188-0.016c1.357-0.113,2.5-1.052,2.5-2.5
			c0-1.277-1.14-2.613-2.5-2.5c-0.615,0.051-1.099,0.152-1.637,0.467c-1.175,0.686-1.585,2.245-0.896,3.42
			c0.723,1.234,2.199,1.503,3.42,0.896c1.973-0.979,5.233-2.209,5.774-4.618c0.353-1.575-0.727-3.165-2.411-3.165c-0.5,0-1,0-1.5,0
			C326.4,596.875,326.4,601.875,329.625,601.875L329.625,601.875z"/>
	</g>
</g>
<path fill="none" stroke="#808285" stroke-miterlimit="10" d="M313.75,579.917c0.518-0.038,0.939,0.359,1.308,0.655
	c-0.109,0.017-0.122-0.042-0.225-0.072"/>
<path fill="none" stroke="#808285" stroke-miterlimit="10" d="M315.333,580c-0.539-0.56-1.566-1.055-2.25-1.333"/>
<path fill="none" stroke="#808285" stroke-miterlimit="10" d="M313.083,580.667c0.131-0.368,0.137-0.99,0.25-1.417"/>
<path fill="none" stroke="#808285" stroke-miterlimit="10" d="M313.25,578.333c0,0.223,0,0.444,0,0.667"/>
<path fill="none" stroke="#808285" stroke-miterlimit="10" d="M315.833,579.75c0.747,0.062,1.279,0.75,1.917,1.086
	c0.794,0.418,1.502,0.718,2.271,1.144c1.479,0.819,3.067,0.917,4.478,1.725c1.453,0.832,3.179,1.481,4.754,2.11
	c1.386,0.554,2.953,0.895,4.248,1.66c0.482,0.286,1.106,0.635,1.5,1.025"/>
<path fill="none" stroke="#808285" stroke-miterlimit="10" d="M340.417,590.667c0.644,0.483,1.255,0.523,2.018,0.75
	c1.108,0.329,0.732,0.674,0.398,1.5"/>
<path fill="none" stroke="#808285" stroke-miterlimit="10" d="M340,590.083c0.43,0.162,0.816,0.54,1.083,0.917"/>
<path fill="none" stroke="#808285" stroke-miterlimit="10" d="M341,592.333c0.864,0.002,1.697-0.291,1.333,0.834"/>
<path fill="none" stroke="#808285" stroke-miterlimit="10" d="M342.083,594c0.555-0.868,1.66-0.972,2.25-1.75"/>
<path fill="none" stroke="#808285" stroke-miterlimit="10" d="M343.5,591.833c0.237,0.116,0.489,0.173,0.75,0.167"/>
<rect x="45" y="169.53" fill="none" width="374" height="72"/>
<text transform="matrix(1 0 0 1 45 212.4897)" font-family="'ArialMT'" font-size="60">Summary</text>
<line fill="#F5A2C6" stroke="#58595B" stroke-miterlimit="10" x1="319.375" y1="633.918" x2="366.924" y2="601.687"/>
<line fill="#F5A2C6" stroke="#58595B" stroke-miterlimit="10" x1="318.25" y1="633.918" x2="312.714" y2="578.133"/>
<g>
	<g>
		<path fill="#939598" d="M327.167,594.001c0.27,4.863,2.342,9.369,2.574,14.21c0.111,2.318-0.608,4.046-1.318,6.125
			c-0.241,0.71-1.189,3.381-0.421,3.088c-2.982,1.135-1.689,5.97,1.33,4.822c1.335-0.508,2.189-1.167,2.744-2.53
			c0.721-1.772,2.04-4.544,2.304-6.358c1.007-6.917-1.839-12.605-2.213-19.356C331.989,590.795,326.988,590.777,327.167,594.001
			L327.167,594.001z"/>
	</g>
</g>
<g>
	<g>
		<path fill="#939598" d="M328.5,622.501c6.612-0.546,10.973-5.792,16.646-8.722c4.229-2.185,10.854-3.518,13.346-8.017
			c1.089-1.966-0.684-4.165-2.823-3.673c-2.55,0.588-4.245,2.534-6.381,3.92c-3.348,2.171-6.095,4.889-9.716,6.666
			c-7.051,3.461-14.264,8.176-19.673,13.892c1.393,0.367,2.785,0.735,4.179,1.103c-0.722-2.609-0.369-6.037-0.474-8.752
			c-0.123-3.187-0.351-6.3-0.827-9.455c-1.072-7.09-2.883-14.145-3.696-21.259c0.175,1.523,7.551,3.708,9.116,4.456
			c3.386,1.618,6.68,3.421,9.983,5.199c3.169,1.705,6.665,2.793,9.897,4.368c2.317,1.13,5.144,0.863,7.327,1.933
			c-0.169-1.31-0.337-2.618-0.506-3.927c-2.035,2.341-7.927,3.83-10.73,4.69c-4.103,1.261-7.337,3.834-11.097,5.752
			c1.254,0.72,2.508,1.439,3.762,2.159c-0.478-6.571,8.422-6.544,12.498-7.423c2.326-0.502,2.461-4.427,0-4.822
			c-2.759-0.441-5.624-0.313-8.113-1.71c-2.807-1.577-5.698-2.944-8.29-4.87c-0.841,1.438-1.683,2.878-2.523,4.316
			c1.45,0.796,2.538,6.624,3.018,8.174c0.469,1.51,2.257,2.361,3.673,1.494c1.665-1.021,3.219-2.18,3.649-4.161
			c0.176-0.813,0.056-1.866-0.644-2.433c-0.939-0.762-1.656-1.177-2.77-1.644c-2.974-1.245-4.258,3.596-1.33,4.822
			c0.188,0.118,0.376,0.237,0.564,0.356c-0.215-0.811-0.429-1.621-0.644-2.433c-0.241,0.583-0.691,0.974-1.351,1.173
			c1.224,0.498,2.448,0.996,3.673,1.494c-1.068-3.445-1.858-9.266-5.316-11.16c-2.895-1.587-5.055,2.436-2.523,4.316
			c2.584,1.921,5.469,3.333,8.29,4.871c3.241,1.768,5.726,1.64,9.307,2.215c0-1.607,0-3.215,0-4.822
			c-3.954,0.854-7.886,0.292-11.169,3.202c-2.568,2.276-5.265,5.39-4.999,9.043c0.141,1.934,2.004,3.056,3.762,2.159
			c4.367-2.229,8.183-4.504,12.833-6.246c3.166-1.186,7.732-2.363,10.006-4.979c0.984-1.133,1.031-3.174-0.506-3.927
			c-2.812-1.376-5.929-1.25-8.833-2.666c-4.428-2.158-8.954-3.962-13.32-6.277c-4.078-2.162-8.259-4.177-12.532-5.927
			c-2.343-0.96-4.949-2.444-7.421-0.996c-4.62,2.707,0.449,15.761,0.934,19.357c0.703,5.216,1.751,10.302,1.849,15.585
			c0.06,3.217-0.207,6.973,0.651,10.082c0.491,1.775,2.874,2.481,4.179,1.103c4.847-5.122,11.119-8.931,17.229-12.406
			c2.881-1.638,5.605-2.984,8.17-5.125c1.928-1.609,5.66-5.083,8.166-5.659c-0.941-1.225-1.883-2.449-2.823-3.673
			c-1.774,3.203-8.464,4.59-11.554,6.223c-2.263,1.195-4.413,2.313-6.466,3.855c-2.49,1.87-4.362,3.912-7.656,4.184
			C325.311,617.764,325.284,622.767,328.5,622.501L328.5,622.501z"/>
	</g>
</g>
<g>
	<g>
		<path fill="#939598" d="M318.899,591.269c3.211,3.729,7.79,3.95,8.037,9.804c0.221,5.23,0.438,11.243-1.014,16.264
			c-0.896,3.105,3.929,4.421,4.822,1.33c1.723-5.96,1.395-12.775,1.134-18.939c-0.088-2.102-0.563-4.925-2.111-6.493
			c-2.189-2.22-5.312-3.153-7.333-5.5C320.327,585.286,316.807,588.839,318.899,591.269L318.899,591.269z"/>
	</g>
</g>
<g>
	<g>
		<path fill="#939598" d="M327.992,620.573c-1.429-2.761-0.492-7.492-0.43-10.488c0.053-2.523-0.144-5.047-0.194-7.57
			c-0.079-3.945-0.46-8.107-3.939-10.505c-2.662-1.836-5.159,2.5-2.523,4.316c2.514,1.733,1.563,9.142,1.665,11.884
			c0.185,4.92-1.248,10.343,1.105,14.887C325.158,625.961,329.473,623.432,327.992,620.573L327.992,620.573z"/>
	</g>
</g>
<g>
	<g>
		<path fill="#939598" d="M318.834,593.835c-0.027,5.577,1.484,10.415,2.589,15.831c0.645,3.158,5.464,1.817,4.822-1.33
			c-1.011-4.951-2.437-9.404-2.411-14.501C323.85,590.61,318.85,590.611,318.834,593.835L318.834,593.835z"/>
	</g>
</g>
<path fill="none" stroke="#939598" stroke-miterlimit="10" d="M315.667,599.335c-0.037,1.674,0.731,3.303,0.929,4.941
	c0.656,5.435,0.813,11.085,2.238,16.392"/>
<path fill="none" stroke="#939598" stroke-miterlimit="10" d="M315.5,597.501c0,0.333,0,0.667,0,1"/>
<path fill="none" stroke="#939598" stroke-miterlimit="10" d="M314.5,595.501c-0.133,0.859,0.387,1.32,0.53,2.076
	c0.124,0.655,0.02,1.156,0.113,1.806c0.953,6.6,1.805,13.73,3.69,20.118"/>
<path fill="none" stroke="#939598" stroke-miterlimit="10" d="M317.334,608.001c1.065,1.634,1.501,4.897,1.5,7"/>
<path fill="none" stroke="#939598" stroke-miterlimit="10" d="M319.5,610.335c-0.003,2.028-1.224,4.212-1.666,6.166"/>
<path fill="none" stroke="#939598" stroke-miterlimit="10" d="M319.5,608.835c-1.061,0.66-1.611,2.385-2.5,3.333"/>
<path fill="none" stroke="#939598" stroke-miterlimit="10" d="M320,611.335c-0.615,0.795-1.905,2.658-3,2.666"/>
<path fill="none" stroke="#939598" stroke-miterlimit="10" d="M318.834,611.001c-0.4,0.604-0.736,1.313-1.167,1.834"/>
<path fill="none" stroke="#939598" stroke-miterlimit="10" d="M315.667,596.668c0.951,0.731,0.094,2.333,1.667,2.333"/>
<path fill="none" stroke="#939598" stroke-miterlimit="10" d="M315.5,599.001c0.296,0.172,0.86,0.242,1.334,0.167"/>
<path fill="none" stroke="#939598" stroke-miterlimit="10" d="M317.167,617.001c0.658,2.199,0.81,4.716,1.171,7
	c0.337,2.128,1.112,4.791,0.996,7"/>
<path fill="none" stroke="#939598" stroke-miterlimit="10" d="M316.834,612.835c-0.001,1.524,0.411,3.208,0.833,4.666"/>
<path fill="none" stroke="#939598" stroke-miterlimit="10" d="M318.834,619.001c0.38,3.063-0.782,6.003-0.339,9.159
	c0.169,1.194,0.69,2.86,0.505,4.008"/>
<path fill="none" stroke="#939598" stroke-miterlimit="10" d="M320,630.001c-0.439,0.898-1.086,1.764-1,2.834"/>
<path fill="none" stroke="#939598" stroke-miterlimit="10" d="M320,632.668c0.112-1.379,0.983-2.346,1.5-3.5"/>
<path fill="none" stroke="#939598" stroke-miterlimit="10" d="M324.667,629.168c-0.871,1.068-2.23,1.973-3.5,2.5"/>
<path fill="none" stroke="#939598" stroke-miterlimit="10" d="M321.667,631.001c-0.697,0.412-1.393,0.936-2.167,1.167"/>
<path fill="none" stroke="#939598" stroke-miterlimit="10" d="M319,633.335c0.413-1.12,1.06-2.945,1-4.167"/>
<path fill="none" stroke="#939598" stroke-miterlimit="10" d="M318.167,624.835c0-0.056,0-0.111,0-0.167"/>
<path fill="none" stroke="#939598" stroke-miterlimit="10" d="M325.334,628.835c1.521-2.335,4.784-3.97,7.17-5.204
	c2.506-1.296,4.627-3.174,7.163-4.463"/>
<path fill="none" stroke="#939598" stroke-miterlimit="10" d="M323.5,630.001c1.371-1.015,2.251-2.972,3.667-3.666"/>
<path fill="none" stroke="#939598" stroke-miterlimit="10" d="M330.334,624.835c2.169-2.151,4.329-4.163,6.666-6"/>
<path fill="none" stroke="#939598" stroke-miterlimit="10" d="M335.167,622.501c0.371-2.495,3.34-4.899,4.833-7"/>
<path fill="none" stroke="#939598" stroke-miterlimit="10" d="M333.834,622.001c1.946-0.157,3.708-2.162,5.333-3.166"/>
<path fill="none" stroke="#939598" stroke-miterlimit="10" d="M325.167,629.168c2.464-1.989,5.372-3.498,7.667-5.5"/>
<path fill="none" stroke="#939598" stroke-miterlimit="10" d="M340.167,618.501c3.726-2.791,8.49-4.632,11.667-8"/>
<path fill="none" stroke="#939598" stroke-miterlimit="10" d="M340.5,617.168c-0.48,0.466-0.858,1.019-1,1.667"/>
<path fill="none" stroke="#939598" stroke-miterlimit="10" d="M338.667,619.668c1.036-0.079,1.661-0.521,2.333-1.333"/>
<path fill="none" stroke="#939598" stroke-miterlimit="10" d="M313.667,580.001c-0.175,1.121,0.336,2.393,0.5,3.5"/>
<path fill="none" stroke="#939598" stroke-miterlimit="10" d="M314.667,580.501c0,0.5,0,1,0,1.5"/>
<path fill="none" stroke="#939598" stroke-miterlimit="10" d="M326.834,586.668c-0.992-1.35-4.314-2.077-5.861-2.97
	c-1.488-0.858-3.447-1.172-4.639-2.363"/>
<path fill="none" stroke="#939598" stroke-miterlimit="10" d="M319.667,584.001c-0.29-0.473-0.863-0.94-1.167-1"/>
<path fill="none" stroke="#939598" stroke-miterlimit="10" d="M315.834,584.001c1.235-0.635,2.181-1.684,3.666-1.5"/>
<path fill="none" stroke="#939598" stroke-miterlimit="10" d="M326,585.501c3.031-0.704,5.103,0.881,7.464,2.199
	c1.496,0.836,2.621,1.978,3.876,3.135c1.489,1.374,3.721,2.402,4.994,3.833"/>
<path fill="none" stroke="#939598" stroke-miterlimit="10" d="M330.5,587.668c1.602,0.733,2.758,2.218,4.196,3.246
	c1.743,1.246,3.735,2.227,5.804,2.754"/>
<path fill="none" stroke="#939598" stroke-miterlimit="10" d="M332.167,590.168c3.578-0.629,7.114-0.236,10.054,1.926
	c2.162,1.59,3.727,3.624,5.946,5.074"/>
<path fill="none" stroke="#939598" stroke-miterlimit="10" d="M336,591.668c2.138-0.002,4.486,0.064,6.483,0.911
	c2.249,0.954,2.113,2.588,3.517,4.256"/>
<path fill="none" stroke="#939598" stroke-miterlimit="10" d="M339.667,593.501c1.873-0.2,3.467,1.095,5.167,1.667"/>
<path fill="none" stroke="#939598" stroke-miterlimit="10" d="M335.834,591.168c0.925-1.161,5.068-0.142,6.166,0.833"/>
<path fill="none" stroke="#939598" stroke-miterlimit="10" d="M335.5,590.335c0.704,0.635,1.034,1.56,1.5,2.333"/>
<path fill="none" stroke="#939598" stroke-miterlimit="10" d="M336.167,588.835c1.206-0.721,4,1.866,4.833,3"/>
<path fill="none" stroke="#939598" stroke-miterlimit="10" d="M335,588.335c0.694,0.691,1.886,1.235,2.667,2"/>
<path fill="none" stroke="#939598" stroke-miterlimit="10" d="M339.834,593.001c1.295-0.134,3.549,0.397,3.833,1.834"/>
<path fill="none" stroke="#939598" stroke-miterlimit="10" d="M343.5,592.668c1.585,0.014,3.378,2.438,5.042,2.963
	c2.024,0.638,3.536,1.309,5.467,2.208c1.523,0.709,8.759,2.106,8.129,4.467c-1.561,0.78-2.579,2.001-3.971,3.029"/>
<path fill="none" stroke="#939598" stroke-miterlimit="10" d="M344.667,594.835c2.036-0.214,3.721,1.742,5.296,2.716
	c1.726,1.065,4.85,1.081,6.037,2.784"/>
<g>
	<g>
		<path fill="#939598" d="M330.899,594.603c3.6,3.774,8.087,4.228,13.066,4.4c3.466,0.12,5.119,1.874,8.109,2.954
			c2.869,1.035,5.753,2.008,8.594,3.122c0-1.607,0-3.215,0-4.822c-2.644,1.061-4.854,2.766-7.418,3.972
			c-2.314,1.09-4.265,2.129-5.162,4.607c-0.972,2.688,3.249,4.399,4.569,1.927c0.083-0.154,0.165-0.309,0.248-0.463
			c0.703-1.316,0.161-3.372-1.494-3.672c-0.82-0.148-1.409-0.216-2.245-0.127c-2.11,0.225-1.831,1.98-1.667,0.334
			c0.363-3.65,0.202-7.043,0.167-10.667c-0.031-3.223-5.031-3.226-5,0c0.024,2.476,0.337,4.816,0.146,7.313
			c-0.141,1.835-0.786,4.112-0.343,5.949c0.28,1.16,0.756,2.061,1.828,2.688c2.171,1.271,3.797-1.029,5.784-0.669
			c-0.498-1.225-0.996-2.448-1.494-3.673c-0.082,0.154-0.164,0.309-0.246,0.463c1.522,0.642,3.046,1.284,4.569,1.927
			c0.321-0.891,2.876-1.626,3.685-2.006c1.892-0.892,3.442-2.296,5.403-3.081c2.354-0.944,2.384-3.888,0-4.822
			c-2.425-0.95-4.868-1.832-7.334-2.667c-2.09-0.706-3.771-2.527-5.934-3.017c-4.872-1.101-10.509,0.465-14.297-3.506
			C332.205,588.73,328.675,592.271,330.899,594.603L330.899,594.603z"/>
	</g>
</g>
<path fill="none" stroke="#939598" stroke-miterlimit="10" d="M327.834,586.668c0.408-0.262,3.922,0.708,4.666,1"/>
<path fill="none" stroke="#939598" stroke-miterlimit="10" d="M328.167,585.668c1.271,0.22,2.079,3.11,3.533,3.842
	c1.533,0.771,3.611,0.992,5.134,1.491"/>
<path fill="none" stroke="#939598" stroke-miterlimit="10" d="M345.334,592.501c1.649,0.146,3.951,1.908,5.495,2.671
	c0.747,0.369,1.581,0.647,2.338,0.996c0.78,0.359,1.213,0.959,1.82,1.31c1.695,0.977,3.982,1.032,5.847,1.727
	c0.798,0.298,5.579,2.907,2.666,3.797"/>
<path fill="none" stroke="#939598" stroke-miterlimit="10" d="M344.834,593.668c1.039,0.045,2.831-0.131,3.5,0.833"/>
<path fill="none" stroke="#939598" stroke-miterlimit="10" d="M354.834,597.168c1.088-0.096,1.762,0.617,2.666,1"/>
<path fill="none" stroke="#939598" stroke-miterlimit="10" d="M364.167,601.335c0.355,0.321,0.789,0.431,1.333,0.333"/>
</svg>
