<?xml version="1.0" encoding="utf-8"?>
<!-- Generator: Adobe Illustrator 16.0.0, SVG Export Plug-In . SVG Version: 6.00 Build 0)  -->
<!DOCTYPE svg PUBLIC "-//W3C//DTD SVG 1.1//EN" "http://www.w3.org/Graphics/SVG/1.1/DTD/svg11.dtd">
<svg version="1.1" id="Layer_1" xmlns="http://www.w3.org/2000/svg" xmlns:xlink="http://www.w3.org/1999/xlink" x="0px" y="0px"
	 width="612px" height="792px" viewBox="0 0 612 792" enable-background="new 0 0 612 792" xml:space="preserve">
<g>
	<path fill-rule="evenodd" clip-rule="evenodd" fill="none" d="M9.028,309.364c0-93.198,0.238-186.396-0.307-279.589
		c-0.067-11.465,2.63-14.072,14.25-14.045c189.013,0.415,378.03,0.415,567.04,0c11.622-0.026,14.271,2.586,14.244,14.043
		c-0.422,186.393-0.422,372.79,0,559.181c0.026,11.459-2.622,14.073-14.244,14.046c-189.01-0.416-378.026-0.416-567.04,0
		c-11.62,0.027-14.317-2.582-14.25-14.046C9.266,495.759,9.028,402.563,9.028,309.364z M533.007,552.225
		c0.418-3.037,0.84-6.071,1.256-9.106c2.079-18.323,1.963-36.657,0.143-54.996c-0.02-19.859-0.037-39.724-0.05-59.588
		c-0.028-15.277-0.045-30.555-0.063-45.836c-0.022-15.281-0.042-30.563-0.06-45.838c1.794-32.079,2.049-64.156-0.024-96.233
		c-0.616-2.99-1.233-5.98-1.851-8.97c-0.228-4.534-2.082-7.961-6.655-9.55c-19.11-29.866-42.351-56.19-69.716-78.968
		c-9.851-11.837-20.026-23.333-33.897-30.878c-1.317-1.042-2.638-2.083-3.958-3.126c-1.521-0.662-3.041-1.325-4.561-1.985
		c-2.039-4.906-5.925-3.386-9.578-2.67c-2.672-0.718-5.343-1.437-8.021-2.155c-4.582-4.319-9.734-4.684-15.305-2.117
		c-21.786-10.085-31.213-35.867-55.638-42.596c-2.306-3.543-5.448-4.566-9.432-3.035c-74.641-4.628-149.361-0.828-224.036-1.994
		c-11.579-0.182-14.016,7.398-13.912,16.657c0.297,26.567,0.742,53.13,1.128,79.695c-2.011,27.501-1.756,55.002,0.003,82.504
		c-0.015,25.972-0.028,51.943-0.042,77.917c-2.156,24.445-1.706,48.894-0.101,73.34c-0.019,19.864-0.04,39.73-0.059,59.59
		c0.321,21.589-6.317,43.637,4.343,64.549c1.11,2.39,2.653,3.939,5.581,2.793c9.859,0.229,19.719,0.646,29.58,0.662
		c41.779,0.072,41.779,0.032,46.917,37.606c0.696,1.382,1.392,2.763,2.089,4.146c5.374,9.795,14.926,5.98,22.692,6.065
		c38.542,0.427,77.093,0.354,115.642,0.157c73.175-0.368,146.354-0.93,219.529-1.423
		C528.791,557.264,532.262,557.059,533.007,552.225z"/>
	<path fill-rule="evenodd" clip-rule="evenodd" fill="#FCFCFD" d="M78.777,148.937c-0.386-26.565-0.831-53.128-1.128-79.695
		c-0.104-9.259,2.333-16.839,13.912-16.657c74.675,1.166,149.395-2.635,224.036,1.994c0.209,3.883,1.621,7.702,5.411,8.667
		c4.366,1.11,3.703-2.981,4.021-5.633c24.425,6.729,33.852,32.511,55.638,42.596c4.603,4.251,9.877,3.724,15.305,2.117
		c2.679,0.718,5.35,1.437,8.026,2.155c0.185,6.119,3.82,9.975,8.77,12.96c0.862,1.813,1.721,3.63,2.578,5.45
		c0.525-0.436,1.579-1.135,1.505-1.269c-0.902-1.745-1.969-3.412-2.988-5.097c-0.097-3.125-0.197-6.25-0.291-9.374
		c1.52,0.661,3.04,1.323,4.561,1.985c1.32,1.043,2.641,2.083,3.958,3.126c13.871,7.546,24.047,19.042,33.897,30.878
		c-11.166,3.052-19.972,13.472-33.126,10.292c0,0-0.063-0.077-0.063-0.075c-1.197-5.978,2.364-12.676-2.546-18.437
		c-6.704,4.665-6.626,11.417-7.136,17.946c-66.327,0-132.659,0-198.991,0c0.008,2.055,0.016,4.109,0.022,6.163
		c67.664,0,135.329,0,202.994,0c0.028,8.654,0.064,17.307,0.101,25.965c-66.341,0.142-132.685,0.28-199.028,0.42
		c0.003-1.302,0.011-2.602,0.027-3.903c57.205,0,114.408,0,171.613,0c-56.166-4.825-112.305-4.882-168.446-4.643
		c-2.561,0.011-5.11,2.68-7.664,4.111c-14.922,5.46-30.454,4.906-45.968,4.551c-0.231-21.366-0.252-42.739-0.869-64.095
		c-0.127-4.445,3.202-12.492-5.465-12.162c-7.845,0.295-6.048,6.701-4.759,12.143c0.678,2.865-0.041,6.049-0.127,9.089
		C128.594,128.306,106.308,149.375,78.777,148.937z M177.184,99.075c-0.204,0.865-0.412,1.726-0.616,2.587
		c61.841,0,123.684,0,185.525,0c-0.004-0.862-0.01-1.723-0.01-2.587C300.45,99.075,238.818,99.075,177.184,99.075z M219.444,163.866
		c-0.036,0.813-0.073,1.627-0.11,2.44c60.003,0,120,0,180.006,0c0-0.813-0.004-1.626-0.004-2.44
		C339.372,163.866,279.407,163.866,219.444,163.866z M334.27,83.933c-0.818-2.045-1.335-3.357-1.86-4.667
		c-1.362,1.591-3.042,3.03-3.939,4.846c-0.393,0.778,0.839,2.336,1.333,3.542C331.338,86.377,332.871,85.099,334.27,83.933z"/>
	<path fill-rule="evenodd" clip-rule="evenodd" fill="#D1D0CF" d="M524.95,556.844c-73.176,0.493-146.354,1.055-219.529,1.423
		c-38.548,0.197-77.1,0.27-115.642-0.157c-7.766-0.085-17.318,3.729-22.695-6.065c-0.694-1.383-1.39-2.764-2.086-4.146
		c-5.138-37.574-5.138-37.534-46.917-37.606c-9.861-0.017-19.721-0.433-29.58-0.662c-1.861-0.931-3.723-1.862-5.581-2.793
		c-10.66-20.912-4.021-42.96-4.343-64.549c25.994,5.698,49.474-8.581,74.681-9.127c8.869,18.873,2.773,38.825,4.267,58.233
		c1.214,15.77,5.729,4.173,9.271,1.272c15.525-2.214,30.862-6.316,46.788-4.559c66.284,0,132.568,0.098,198.854-0.124
		c8.126-0.032,17.145,2.882,24.058-4.378c32.244,9.763,65.314,2.095,97.909,4.516c1.82,18.339,1.937,36.673-0.143,54.996
		c-3.566,1.979-4.402,5.184-4.138,8.89C528.399,553.619,526.676,555.232,524.95,556.844z"/>
	<path fill-rule="evenodd" clip-rule="evenodd" fill="#D8D7D7" d="M534.405,488.122c-32.595-2.421-65.665,5.247-97.909-4.516
		l0.049,0.021c0.028-1.678,0.06-3.36,0.087-5.039c10.059,0.72,18.619-3.647,27.469-7.471c-79.477-1.249-158.712-1.249-237.951-1.252
		c-4.7,0-9.252,0.4-12.519,4.384c-0.021,3.112-0.042,6.223-0.063,9.338c-0.065,1.51-0.061,3.019,0.016,4.521
		c-15.925-1.758-31.262,2.345-46.788,4.559c0.053-16.692,0.107-33.384,0.159-50.075c12.112-14.534,33.284-11.358,46.746-23.257
		c91.302-0.059,182.599-0.121,273.895-0.175c12.154,19.758,31.526,4.514,46.76,9.374
		C534.368,448.398,534.386,468.263,534.405,488.122z M482.657,464.011c-0.011-0.642-0.011-1.28-0.019-1.925
		c-87.711,0-175.426,0-263.139,0c0.002,0.645,0.007,1.283,0.011,1.925C307.226,464.011,394.937,464.011,482.657,464.011z
		 M463.121,431.899c0.1-0.762,0.199-1.526,0.299-2.291c-81.591,0-163.176,0-244.764,0c-0.003,0.765-0.005,1.529-0.005,2.291
		C300.142,431.899,381.629,431.899,463.121,431.899z"/>
	<path fill-rule="evenodd" clip-rule="evenodd" fill="#E5E4E4" d="M534.232,336.856c0.018,15.28,0.037,30.561,0.06,45.842
		c-15.461,0.492-30.91-8.36-46.379-0.041c-6.94-7.18-15.96-4.426-24.13-4.445c-83.397-0.174-166.806-0.088-250.208-0.076
		c-16.817-3.007-31.473,4.651-46.758,9.204c-4.328-19.904-4.585-39.815-0.037-59.724c13.892-1.495,27.782-2.99,41.67-4.489
		c0.586,3.119,1.17,6.243,1.752,9.369c-3.712,15.755,7.845,13.293,16.699,13.25c46.277-0.226,92.553-0.678,138.825-1.049
		c8.969-3.903,5.831-10.223,3.366-16.409l-1.692-0.744c0.163-3.212,0.326-6.426,0.49-9.641c0.631-1.171,1.044-2.421,1.229-3.742
		c0.908-0.057,1.808-0.178,2.701-0.367c3.019,0.056,6.036,0.108,9.056,0.162c-0.01,1.536-0.02,3.071-0.027,4.61
		c0.008,1.531,0.014,3.066,0.022,4.602c1.479,2.506,2.883,7.148,4.453,7.201c32.616,1.124,65.41,6.585,97.736-2.663
		C500.903,326.472,518.319,327.591,534.232,336.856z M219.708,369.593c-0.308,0.77-0.615,1.54-0.923,2.305
		c82.958,0,165.915,0,248.875,0c-0.009-0.765-0.013-1.535-0.019-2.305C384.996,369.593,302.352,369.593,219.708,369.593z
		 M462.666,340.167c0.256-0.751,0.51-1.503,0.763-2.255c-25.799,0-51.593,0-77.393,0c-0.014,0.752-0.021,1.504-0.04,2.255
		C411.555,340.167,437.108,340.167,462.666,340.167z"/>
	<path fill-rule="evenodd" clip-rule="evenodd" fill="#ECEBEB" d="M380.871,323.167c-0.009-1.535-0.015-3.071-0.022-4.602
		c33.815,0,67.631,0,101.449,0c-0.023-1.54-0.039-3.075-0.06-4.61c-33.787,0-67.574,0-101.362,0
		c-3.02-0.053-6.037-0.106-9.061-0.162c-0.135-13.695-0.282-27.396-0.417-41.098c3.14-1.531,6.285-3.062,9.43-4.595
		c1.735,11.123,10.569,9.029,17.935,9.121c15.384,0.193,30.807,0.643,46.147-0.166c8.643-0.457,19.037,4.294,26.775-5.194
		c-7.303-5.708-14.547-2.916-21.174-3.914c0.031-1.319,0.027-2.64-0.009-3.96c10.656-0.486,21.314-0.977,31.967-1.465
		c-0.058-1.342-0.121-2.687-0.186-4.029c-12.141,0-24.283,0-36.43,0c0.045-1.391,0.073-2.782,0.092-4.172
		c6.399-0.332,12.804-0.665,19.208-0.996c7.426,0.17,14.846,0.34,22.268,0.512c18.447,5.411,31.22-8.713,46.786-13.209
		c2.073,32.077,1.818,64.154,0.024,96.229c-15.913-9.265-33.329-10.384-51.172-9.15c-6.056-6.785-14.221-4.449-21.619-4.506
		C434.589,322.981,407.729,323.146,380.871,323.167z M379.622,302.395c0.036,1.375,0.068,2.748,0.101,4.122
		c30.202,0,60.403,0,90.603,0c-0.033-1.374-0.06-2.748-0.092-4.122C440.026,302.395,409.826,302.395,379.622,302.395z"/>
	<path fill-rule="evenodd" clip-rule="evenodd" fill="#DFDEDE" d="M487.913,382.658c15.469-8.32,30.918,0.533,46.379,0.041
		c0.019,15.281,0.035,30.559,0.063,45.836c-15.233-4.86-34.605,10.384-46.756-9.374c-4.689-5.434-11.139-4.238-17.151-4.243
		c-79.905-0.053-159.808-0.063-239.707-0.003c-6.001,0.003-12.482-1.237-17.04,4.421c-13.462,11.898-34.634,8.723-46.746,23.253
		c-7.04-18.396-0.551-36.83-0.138-55.248c15.285-4.552,29.941-12.211,46.758-9.204c3.081,13.867,14.513,8.921,22.71,8.957
		c76.605,0.349,153.213,0.259,229.823,0.125C473.569,387.203,481.795,389.462,487.913,382.658z M466.971,391.95
		c-78.833,0-159.054-0.012-239.272,0.028c-6.314,0.004-13.097,0.066-12.994,8.938c0.123,10.572,8.497,9.302,15.113,9.088
		C309.519,407.406,390.344,420.699,466.971,391.95z"/>
	<path fill-rule="evenodd" clip-rule="evenodd" fill="#DFDEDE" d="M78.637,382.698c-1.605-24.447-2.055-48.896,0.101-73.34
		c14.31-5.241,31.283-3.362,42.957-15.638c12.366,0.8,24.73,1.601,37.097,2.402c-0.516,22.722-8.141,45.26-1.864,68.163
		c-9.661,1.14-20.285-2.425-31.159,4.472c11.328,7.719,21.464,3.54,30.855,4.882c-1.108,1.514-2.217,3.022-3.327,4.529
		C128.74,384.964,103.423,379.583,78.637,382.698z"/>
	<path fill-rule="evenodd" clip-rule="evenodd" fill="#F3F3F3" d="M78.777,148.937c27.53,0.438,49.817-20.63,77.782-18.43
		c0.26,18.217,0.515,36.437,0.774,54.655c-9.768,7.452-21.306,3.967-32.107,5.047c-0.721-0.248-1.472-0.74-2.156-0.664
		c-0.558,0.065-1.47,0.796-1.486,1.257c-0.417,11.992-0.737,23.988-1.076,35.984c-14.313-1.977-27.785,3.387-41.728,4.655
		C77.021,203.938,76.767,176.438,78.777,148.937z"/>
	<path fill-rule="evenodd" clip-rule="evenodd" fill="#D8D7D7" d="M78.637,382.698c24.786-3.115,50.103,2.266,74.658-4.53
		c10.467,18.34-0.394,36.66-0.036,54.993c-25.207,0.546-48.687,14.825-74.681,9.127C78.598,422.429,78.619,402.563,78.637,382.698z"
		/>
	<path fill-rule="evenodd" clip-rule="evenodd" fill="#ECEBEB" d="M422.86,153.432c13.154,3.18,21.96-7.239,33.126-10.292
		c27.365,22.777,50.605,49.102,69.716,78.97c-3.113,0.032-6.216,0.062-9.326,0.092c-12.596-9.867-27.95-8.54-42.57-10.212
		c-3.532-1.183-6.999-3.158-10.603-3.432c-38.636-2.943-38.763-2.988-40.024-41.472C423.033,162.537,422.96,157.982,422.86,153.432z
		"/>
	<path fill-rule="evenodd" clip-rule="evenodd" fill="#BBBBBB" d="M422.86,153.432c0.1,4.55,0.173,9.105,0.318,13.654
		c1.262,38.484,1.389,38.528,40.024,41.472c3.604,0.274,7.07,2.249,10.603,3.442c9.522,22.648,12.99,23.479,42.57,10.202
		c3.11-0.03,6.213-0.06,9.326-0.092c4.573,1.586,6.428,5.014,6.655,9.548c-15.859,5.655-31.608,11.521-44.936,22.179
		c-7.422-0.172-14.842-0.342-22.271-0.501c-6.504-20.703-23.085-1.542-33.153-8.14c-15.728-10.977-34.618,0.042-56.951-9.299
		c25.206,0,44.405,0.047,63.601-0.034c4.711-0.019,9.922-0.42,10.901-6.112c0.858-4.979-1.904-9.08-6.906-10.512
		c-23.432-6.696-44.636-18.456-71.434-16.216c-39.953,3.338-80.407,0.865-120.647,0.865c-10.424,0-20.845,0-31.27,0
		c58.196-4.462,116.141-4.313,174.084-4.629c8.063-0.045,17.157,3.41,24.085-4.071c-0.073-3.4-0.15-6.8-0.228-10.198
		c-0.027-8.654-0.063-17.307-0.092-25.965c0.255-1.883,0.51-3.763,0.759-5.646c1.63-0.008,3.264-0.016,4.897-0.024L422.86,153.432z"
		/>
	<path fill-rule="evenodd" clip-rule="evenodd" fill="#ECEBEB" d="M78.78,231.441c13.943-1.268,27.415-6.632,41.728-4.655
		c0.509,12.423,1.017,24.844,1.526,37.265c-0.114,9.889-0.225,19.779-0.339,29.668c-11.674,12.276-28.647,10.397-42.957,15.638
		C78.752,283.384,78.766,257.413,78.78,231.441z"/>
	<path fill-rule="evenodd" clip-rule="evenodd" fill="#D1D0CF" d="M487.422,253.836c13.327-10.658,29.076-16.523,44.936-22.179
		c0.617,2.99,1.234,5.98,1.851,8.97C518.642,245.124,505.869,259.248,487.422,253.836z"/>
	<path fill-rule="evenodd" clip-rule="evenodd" fill="#E5E4E4" d="M325.028,57.612c-0.317,2.651,0.346,6.743-4.021,5.633
		c-3.79-0.965-5.202-4.785-5.411-8.667C319.58,53.046,322.723,54.069,325.028,57.612z"/>
	<path fill-rule="evenodd" clip-rule="evenodd" fill="#ECEBEB" d="M413.57,107.15c0.094,3.124,0.194,6.249,0.291,9.374l-1.1,0.921
		c-4.944-2.99-8.58-6.846-8.765-12.965C407.646,103.764,411.531,102.245,413.57,107.15z"/>
	<path fill-rule="evenodd" clip-rule="evenodd" fill="#BBBBBB" d="M395.971,102.325c-5.428,1.607-10.702,2.135-15.305-2.117
		C386.236,97.641,391.389,98.006,395.971,102.325z"/>
	<path fill-rule="evenodd" clip-rule="evenodd" fill="#DFDEDE" d="M530.125,552.008c-0.265-3.706,0.571-6.91,4.138-8.89
		c-0.416,3.035-0.838,6.069-1.256,9.106C532.05,552.152,531.088,552.081,530.125,552.008z"/>
	<path fill-rule="evenodd" clip-rule="evenodd" fill="#D8D7D7" d="M530.125,552.008c0.963,0.073,1.925,0.145,2.882,0.217
		c-0.745,4.834-4.216,5.039-8.057,4.619C526.676,555.232,528.399,553.619,530.125,552.008z"/>
	<path fill-rule="evenodd" clip-rule="evenodd" fill="#ECEBEB" d="M422.089,112.262c-1.317-1.042-2.638-2.083-3.958-3.126
		C419.451,110.179,420.771,111.219,422.089,112.262z"/>
	<path fill-rule="evenodd" clip-rule="evenodd" fill="#8D8C8C" d="M82.921,506.837c1.858,0.931,3.72,1.862,5.581,2.793
		C85.574,510.776,84.031,509.227,82.921,506.837z"/>
	<path fill-rule="evenodd" clip-rule="evenodd" fill="#BBBBBB" d="M164.999,547.898c0.696,1.382,1.392,2.763,2.086,4.146
		C166.39,550.661,165.694,549.28,164.999,547.898z"/>
	<path fill-rule="evenodd" clip-rule="evenodd" fill="#F3F3F3" d="M417.46,195.188c-6.928,7.481-16.022,4.026-24.085,4.071
		c-57.943,0.316-115.888,0.167-174.084,4.629c10.425,0,20.845,0,31.27,0c40.24,0,80.694,2.474,120.647-0.865
		c26.798-2.24,48.002,9.52,71.434,16.216c5.002,1.432,7.765,5.532,6.906,10.512c-0.979,5.691-6.19,6.093-10.901,6.112
		c-19.195,0.081-38.395,0.034-63.601,0.034c22.333,9.342,41.224-1.678,56.951,9.299c-17.442,0.433-34.881,0.866-52.324,1.297
		c-7.159,0.215-7.957-7.45-12.833-10.075c-6.017-7.048-14.27-4.309-21.609-4.376c-31.544-0.293-63.095-0.134-94.644-0.146
		c-40.834-0.019-40.834-0.024-41.973,40.749c-14.307-0.847-28.362,0.854-42.263,4.084c-0.317-5.517-0.635-11.035-0.955-16.551
		c0.792-24.882,1.586-49.763,2.378-74.646c15.514,0.354,31.046,0.909,45.968-4.551c1.518-0.002,3.018,0.174,4.497,0.531
		c-0.016,1.302-0.024,2.602-0.027,3.907c-2.848,15.218,9.324,8.985,14.879,9.038C294.542,195.062,356.002,195.039,417.46,195.188z"
		/>
	<path fill-rule="evenodd" clip-rule="evenodd" fill="#D8D7D7" d="M417.46,195.188c-61.458-0.149-122.918-0.126-184.368-0.731
		c-5.555-0.053-17.727,6.18-14.879-9.038c66.344-0.144,132.688-0.282,199.028-0.424C417.31,188.388,417.387,191.788,417.46,195.188z
		"/>
	<path fill-rule="evenodd" clip-rule="evenodd" fill="#BBBBBB" d="M167.775,185.531c-0.792,24.884-1.586,49.764-2.375,74.646
		c-1.15-1.771-2.303-3.542-3.454-5.309c0.125-6.127,0.25-12.251,0.375-18.378c-0.051-9.295-0.097-18.592-0.146-27.891
		c1.15-8.369,0.254-16.327-4.844-23.438c-0.256-18.218-0.511-36.438-0.771-54.655c0.082-3.041,0.8-6.225,0.123-9.089
		c-1.289-5.442-3.086-11.848,4.759-12.143c8.667-0.33,5.338,7.717,5.465,12.162C167.523,142.792,167.543,164.166,167.775,185.531z"
		/>
	<path fill-rule="evenodd" clip-rule="evenodd" fill="#D1D0CF" d="M417.899,153.379c-0.249,1.883-0.504,3.762-0.759,5.646
		c-67.665,0.004-135.33,0.004-202.994,0.004c-0.006-2.054-0.014-4.108-0.022-6.163c66.332,0,132.664,0,198.997,0.006
		C414.713,153.045,416.307,153.213,417.899,153.379z"/>
	<path fill-rule="evenodd" clip-rule="evenodd" fill="#BBBBBB" d="M177.184,99.075c61.634,0,123.266,0,184.9,0
		c0,0.865,0.006,1.726,0.01,2.587c-61.842,0-123.685,0-185.525,0C176.772,100.801,176.98,99.94,177.184,99.075z"/>
	<path fill-rule="evenodd" clip-rule="evenodd" fill="#D1D0CF" d="M219.444,163.866c59.963,0,119.928,0,179.892,0
		c0,0.813,0.004,1.627,0.004,2.44c-60.006,0-120.002,0-180.006,0C219.371,165.493,219.408,164.68,219.444,163.866z"/>
	<path fill-rule="evenodd" clip-rule="evenodd" fill="#BBBBBB" d="M218.24,181.511c-1.479-0.357-2.979-0.533-4.497-0.531
		c2.554-1.431,5.104-4.101,7.664-4.111c56.142-0.24,112.28-0.182,168.446,4.643C332.648,181.511,275.445,181.511,218.24,181.511z"/>
	<path fill-rule="evenodd" clip-rule="evenodd" fill="#ECEBEB" d="M417.899,153.379c-1.593-0.166-3.187-0.333-4.778-0.507
		c0.504-6.536,0.426-13.288,7.13-17.953c4.91,5.761,1.349,12.459,2.546,18.437C421.163,153.363,419.529,153.371,417.899,153.379z"/>
	<path fill-rule="evenodd" clip-rule="evenodd" fill="#E5E4E4" d="M334.27,83.933c-1.398,1.166-2.932,2.444-4.467,3.722
		c-0.494-1.206-1.726-2.764-1.333-3.542c0.897-1.815,2.577-3.254,3.939-4.846C332.935,80.576,333.451,81.888,334.27,83.933z"/>
	<path fill-rule="evenodd" clip-rule="evenodd" fill="#ECEBEB" d="M413.861,116.524c1.02,1.686,2.086,3.352,2.988,5.097
		c0.074,0.134-0.979,0.833-1.505,1.269c-0.857-1.82-1.716-3.636-2.578-5.45C412.762,117.445,413.861,116.524,413.861,116.524z"/>
	<path fill-rule="evenodd" clip-rule="evenodd" fill="#8D8C8C" d="M153.259,433.161c-0.358-18.333,10.503-36.653,0.036-54.993
		c1.113-1.507,2.222-3.015,3.334-4.529c0.1-3.115,0.2-6.234,0.299-9.354c-6.277-22.903,1.348-45.441,1.859-68.167
		c-0.005-0.006,1.091-0.416,1.091-0.416s1.169,0.093,1.178,0.091c1.613,0.234,3.22,0.469,4.827,0.705
		c0.3,10.374,0.597,20.744,0.896,31.119c-4.548,19.909-4.291,39.82,0.037,59.724c-0.413,18.417-6.902,36.851,0.138,55.248
		c-0.051,16.695-0.106,33.387-0.159,50.079c-3.542,2.9-8.057,14.497-9.271-1.272C156.032,471.986,162.127,452.034,153.259,433.161z"
		/>
	<path fill-rule="evenodd" clip-rule="evenodd" fill="#BBBBBB" d="M213.584,488.108c-0.077-1.502-0.082-3.011-0.019-4.521
		c74.327,0.016,148.655,0.027,222.979,0.04l-0.049-0.021c-6.913,7.26-15.932,4.346-24.058,4.378
		C346.152,488.206,279.868,488.108,213.584,488.108z"/>
	<path fill-rule="evenodd" clip-rule="evenodd" fill="#D1D0CF" d="M436.545,483.628c-74.324-0.013-148.652-0.024-222.979-0.04
		c0.023-3.115,0.045-6.226,0.066-9.338c66.262,0.028,132.527-0.045,198.791,0.189c8.168,0.032,17.119-2.687,24.21,4.149
		C436.604,480.268,436.573,481.95,436.545,483.628z"/>
	<path fill-rule="evenodd" clip-rule="evenodd" fill="#BBBBBB" d="M213.701,419.335c4.558-5.658,11.039-4.418,17.04-4.421
		c79.899-0.06,159.802-0.05,239.707,0.003c6.013,0.005,12.462-1.19,17.151,4.243C396.3,419.214,305.003,419.276,213.701,419.335z"/>
	<path fill-rule="evenodd" clip-rule="evenodd" fill="#BBBBBB" d="M482.657,464.011c-87.721,0-175.432,0-263.146,0
		c-0.003-0.642-0.008-1.28-0.011-1.925c87.713,0,175.428,0,263.139,0C482.646,462.73,482.646,463.369,482.657,464.011z"/>
	<path fill-rule="evenodd" clip-rule="evenodd" fill="#BBBBBB" d="M436.632,478.589c-7.091-6.836-16.042-4.117-24.21-4.149
		c-66.264-0.234-132.529-0.161-198.791-0.189c3.266-3.983,7.819-4.384,12.519-4.384c79.239,0.003,158.474,0.003,237.951,1.252
		C455.251,474.941,446.69,479.309,436.632,478.589z"/>
	<path fill-rule="evenodd" clip-rule="evenodd" fill="#BBBBBB" d="M463.121,431.899c-81.492,0-162.979,0-244.47,0
		c0-0.762,0.002-1.526,0.005-2.291c81.587,0,163.173,0,244.764,0C463.32,430.373,463.221,431.138,463.121,431.899z"/>
	<path fill-rule="evenodd" clip-rule="evenodd" fill="#91C8EA" d="M366.84,236.423c4.876,2.621,5.674,10.285,12.846,10.057
		c1.199,2.685,2.389,5.386,3.591,8.089c0.586,1.338,0.758,2.722,0.521,4.156c-1.188,1.162-2.374,2.323-3.558,3.48
		c-6.128,0.89-9.123,4.349-8.842,10.49c0.135,13.702,0.282,27.403,0.417,41.098c-0.889,0.189-1.788,0.31-2.7,0.372
		c-21.637-8.617-43.987-13.761-67.446-13.506c-7.673-0.369-14.455-6.477-22.661-3.438c-22.688-6.114-45.438-11.937-68.921-14.33
		c-0.092-2.049-0.186-4.101-0.278-6.152c11.185-14.958,25.309-20.754,43.923-14.638c7.337,2.412,16.774,4.194,22.357-0.68
		c23.089-20.164,48.026-22.607,75.836-11.767C364.53,254.571,368.37,247.976,366.84,236.423z"/>
	<path fill-rule="evenodd" clip-rule="evenodd" fill="#D1D0CF" d="M487.913,382.658c-6.118,6.804-14.344,4.545-21.805,4.562
		c-76.609,0.134-153.218,0.223-229.823-0.125c-8.198-0.036-19.629,4.91-22.71-8.957c83.402-0.012,166.811-0.098,250.208,0.076
		C471.953,378.232,480.973,375.478,487.913,382.658z"/>
	<path fill-rule="evenodd" clip-rule="evenodd" fill="#ECEBEB" d="M209.81,276.739c0.093,2.052,0.186,4.103,0.272,6.146
		c-0.059,4.428-0.111,8.862-0.166,13.292c0.075,9.11,0.148,18.218,0.223,27.331l-1.689-0.375c-13.888,1.495-27.778,2.99-41.67,4.484
		c-0.299-10.375-0.596-20.745-0.891-31.123c1.825-6.849,2.04-13.655-0.531-20.388l0.994,0.624c13.9-3.23,27.956-4.931,42.265-4.084
		C208.999,274.015,209.396,275.38,209.81,276.739z"/>
	<path fill-rule="evenodd" clip-rule="evenodd" fill="#5990C8" d="M365.726,344.697c-46.271,0.371-92.547,0.824-138.825,1.049
		c-8.854,0.044-20.411,2.505-16.699-13.253c8.118,6.018,17.6,4.945,26.682,4.336c43.52-2.896,87.013-6.158,130.515-9.285
		c0,0,1.692,0.744,1.685,0.735C367.958,333.745,366.84,339.218,365.726,344.697z"/>
	<path fill-rule="evenodd" clip-rule="evenodd" fill="#3D6E9F" d="M367.399,327.544c-43.502,3.126-86.995,6.388-130.515,9.285
		c-9.082,0.609-18.564,1.682-26.682-4.336c-0.583-3.122-1.166-6.246-1.752-9.365c0,0.004,1.689,0.38,1.689,0.38
		c51.106,0.865,102.136-0.478,153.035-5.354c1.57-0.085,3.142-0.17,4.716-0.251C367.726,321.118,367.563,324.332,367.399,327.544z"
		/>
	<path fill-rule="evenodd" clip-rule="evenodd" fill="#BBBBBB" d="M219.708,369.593c82.643,0,165.288,0,247.933,0
		c0.006,0.77,0.01,1.54,0.019,2.305c-82.96,0-165.917,0-248.875,0C219.093,371.133,219.4,370.363,219.708,369.593z"/>
	<path fill-rule="evenodd" clip-rule="evenodd" fill="#D1D0CF" d="M380.871,323.167c26.857-0.021,53.718-0.187,80.57,0.032
		c7.398,0.057,15.563-2.279,21.619,4.506c-32.326,9.249-65.12,3.787-97.736,2.663C383.754,330.315,382.351,325.674,380.871,323.167z
		"/>
	<path fill-rule="evenodd" clip-rule="evenodd" fill="#BBBBBB" d="M380.876,313.956c33.788,0,67.575,0,101.362,0
		c0.021,1.536,0.036,3.071,0.06,4.61c-33.818,0-67.634,0-101.449,0C380.856,317.026,380.866,315.491,380.876,313.956z"/>
	<path fill-rule="evenodd" clip-rule="evenodd" fill="#7EA1A1" d="M367.89,317.903c-1.574,0.081-3.146,0.166-4.726,0.251
		c-19.668-8.692-43.687-2.479-61.495-17.495c23.458-0.254,45.809,4.889,67.446,13.506
		C368.934,315.482,368.521,316.731,367.89,317.903z"/>
	<path fill-rule="evenodd" clip-rule="evenodd" fill="#BBBBBB" d="M462.666,340.167c-25.558,0-51.111,0-76.67,0
		c0.019-0.751,0.026-1.503,0.04-2.255c25.8,0,51.594,0,77.393,0C463.176,338.664,462.922,339.416,462.666,340.167z"/>
	<path fill-rule="evenodd" clip-rule="evenodd" fill="#91C8EA" d="M365.726,344.697c1.114-5.479,2.232-10.952,3.358-16.417
		C371.557,334.474,374.694,340.793,365.726,344.697z"/>
	<path fill-rule="evenodd" clip-rule="evenodd" fill="#D8D7D7" d="M379.622,302.395c30.204,0,60.404,0,90.611,0
		c0.032,1.375,0.059,2.748,0.092,4.122c-30.199,0-60.4,0-90.603,0C379.69,305.143,379.658,303.769,379.622,302.395z"/>
	<path fill-rule="evenodd" clip-rule="evenodd" fill="#D8D7D7" d="M450.512,267.945c6.627,1,13.871-1.792,21.174,3.917
		c-7.738,9.488-18.133,4.737-26.775,5.194c-15.341,0.809-30.764,0.359-46.147,0.166c-7.365-0.091-16.199,2.002-17.935-9.119
		C404.056,268.05,427.281,267.999,450.512,267.945z"/>
	<path fill-rule="evenodd" clip-rule="evenodd" fill="#D1D0CF" d="M383.263,254.565c-1.188-2.699-2.378-5.4-3.577-8.085
		c17.431-0.418,34.869-0.852,52.312-1.284c10.068,6.598,26.649-12.563,33.153,8.14c-6.4,0.321-12.805,0.654-19.204,0.985
		C425.049,254.403,404.155,254.486,383.263,254.565z"/>
	<path fill-rule="evenodd" clip-rule="evenodd" fill="#BBBBBB" d="M380.24,262.206c1.184-1.157,2.37-2.319,3.576-3.48
		c20.697-0.079,41.368-0.155,62.038-0.232c12.146,0,24.289,0,36.43,0c0.064,1.342,0.128,2.687,0.186,4.029
		c-10.652,0.488-21.311,0.979-31.967,1.46C427.082,263.391,403.66,262.8,380.24,262.206z"/>
	<path fill-rule="evenodd" clip-rule="evenodd" fill="#F3F3F3" d="M380.24,262.206c23.42,0.595,46.842,1.185,70.263,1.777
		c0.036,1.325,0.04,2.646,0.009,3.965c-23.23,0.051-46.456,0.102-69.684,0.155c-3.145,1.531-6.29,3.062-9.43,4.593
		C371.117,266.555,374.112,263.095,380.24,262.206z"/>
	<path fill-rule="evenodd" clip-rule="evenodd" fill="#F3F3F3" d="M445.854,258.493c-20.67,0.077-41.341,0.153-62.038,0.232
		c0.218-1.434,0.046-2.818-0.54-4.156c20.879-0.083,41.772-0.166,62.67-0.249C445.928,255.711,445.899,257.103,445.854,258.493z"/>
	<path fill-rule="evenodd" clip-rule="evenodd" fill="#BBBBBB" d="M466.971,391.95c-76.627,28.749-157.452,15.456-237.153,18.054
		c-6.616,0.214-14.99,1.484-15.113-9.088c-0.104-8.872,6.679-8.933,12.994-8.938C307.917,391.938,388.138,391.95,466.971,391.95z"/>
	<path fill-rule="evenodd" clip-rule="evenodd" fill="#3D6E9F" d="M161.048,295.794l-1.169-0.093c0,0-1.096,0.41-1.091,0.416
		c-12.362-0.796-24.727-1.597-37.092-2.397c0.114-9.89,0.225-19.779,0.334-29.66c-0.005,0.006,1.835,0.55,1.835,0.55
		c8.248,17.991,27.703,2.758,38.669,12.686C162.039,283.46,161.542,289.629,161.048,295.794z"/>
	<path fill-rule="evenodd" clip-rule="evenodd" fill="#D8D7D7" d="M156.929,364.285c-0.1,3.12-0.2,6.24-0.299,9.354
		c-9.396-1.342-19.532,2.837-30.86-4.882C136.644,361.86,147.268,365.425,156.929,364.285z"/>
	<path fill-rule="evenodd" clip-rule="evenodd" fill="#91C8EA" d="M123.865,264.61c0,0-1.84-0.544-1.835-0.55
		c-0.504-12.43-1.013-24.851-1.521-37.273c0.339-11.996,0.659-23.992,1.076-35.984c0.016-0.461,0.928-1.191,1.486-1.257
		c0.684-0.076,1.435,0.416,2.156,0.664c0.216,27.794,0.198,27.736,27.849,19.145c2.833-0.879,6.059-0.533,9.1-0.753
		c0.05,9.299,0.096,18.596,0.146,27.886c-9.57-0.327-19.233,0.051-28.688-1.159c-10.76-1.378-7.995,5.095-7.511,10.656
		C125.37,252.193,124.619,258.402,123.865,264.61z"/>
	<path fill-rule="evenodd" clip-rule="evenodd" fill="#80BCE3" d="M162.174,208.6c-3.041,0.221-6.267-0.126-9.1,0.753
		c-27.65,8.592-27.633,8.649-27.849-19.145c10.801-1.08,22.339,2.404,32.107-5.047C162.428,192.273,163.325,200.231,162.174,208.6z"
		/>
	<path fill-rule="evenodd" clip-rule="evenodd" fill="#8D8C8C" d="M516.376,222.202c-29.58,13.276-33.048,12.446-42.57-10.202
		C488.426,213.662,503.78,212.335,516.376,222.202z"/>
	<path fill-rule="evenodd" clip-rule="evenodd" fill="#80BCE3" d="M209.81,276.739c-0.413-1.359-0.811-2.725-1.193-4.094
		c1.137-40.773,1.137-40.768,41.971-40.749c31.548,0.012,63.1-0.147,94.644,0.146c7.34,0.068,15.593-2.671,21.609,4.376
		c1.53,11.557-2.31,18.153-14.914,13.237c-27.81-10.841-52.747-8.397-75.836,11.767c-5.583,4.874-15.02,3.092-22.357,0.68
		C235.119,255.985,220.994,261.781,209.81,276.739z"/>
	<path fill-rule="evenodd" clip-rule="evenodd" fill="#5E776F" d="M123.865,264.61c0.754-6.208,1.505-12.417,2.256-18.628
		c13.341-2.536,22.757,10.327,35.825,8.887c1.151,1.767,2.304,3.538,3.454,5.309c0.316,5.517,0.634,11.034,0.951,16.551
		c0,0-0.994-0.624-0.989-0.623c-1.059,0.119-2.003,0.512-2.828,1.189C151.568,267.368,132.112,282.601,123.865,264.61z"/>
	<path fill-rule="evenodd" clip-rule="evenodd" fill="#7EA1A1" d="M161.946,254.869c-13.068,1.44-22.484-11.423-35.825-8.887
		c-0.483-5.56-3.249-12.033,7.511-10.654c9.456,1.21,19.118,0.833,28.688,1.159C162.197,242.618,162.071,248.742,161.946,254.869z"
		/>
	<path fill-rule="evenodd" clip-rule="evenodd" fill="#BBBBBB" d="M162.534,277.296c0.824-0.678,1.769-1.07,2.828-1.189
		c2.566,6.732,2.352,13.538,0.527,20.387c-1.611-0.231-3.218-0.467-4.832-0.701C161.542,289.629,162.039,283.46,162.534,277.296z"/>
	<path fill-rule="evenodd" clip-rule="evenodd" fill="#5E776F" d="M301.669,300.659c17.808,15.016,41.827,8.803,61.495,17.495
		c-50.89,4.876-101.919,6.218-153.025,5.354c-0.075-9.112-0.147-18.22-0.223-27.331c23.022,0.953,45.821,16.146,69.093,1.045
		C287.215,294.183,293.996,300.29,301.669,300.659z"/>
	<path fill-rule="evenodd" clip-rule="evenodd" fill="#7EA1A1" d="M279.009,297.222c-23.272,15.101-46.07-0.092-69.093-1.045
		c0.055-4.43,0.107-8.864,0.166-13.292C233.571,285.285,256.32,291.107,279.009,297.222z"/>
</g>
</svg>
