<?xml version="1.0" encoding="utf-8"?>
<!-- Generator: Adobe Illustrator 16.0.0, SVG Export Plug-In . SVG Version: 6.00 Build 0)  -->
<!DOCTYPE svg PUBLIC "-//W3C//DTD SVG 1.1//EN" "http://www.w3.org/Graphics/SVG/1.1/DTD/svg11.dtd">
<svg version="1.1" id="Layer_1" xmlns="http://www.w3.org/2000/svg" xmlns:xlink="http://www.w3.org/1999/xlink" x="0px" y="0px"
	 width="612px" height="792px" viewBox="0 0 612 792" enable-background="new 0 0 612 792" xml:space="preserve">
<g>
	<path fill="#FFFFFF" d="M601,780c0,1.1-0.9,2-2,2H14c-1.1,0-2-0.9-2-2V13c0-1.1,0.9-2,2-2h585c1.1,0,2,0.9,2,2V780z"/>
	<path fill="#939598" d="M601,780c0,0,0.001,0.169-0.067,0.488c-0.069,0.315-0.291,0.801-0.831,1.178
		c-0.279,0.165-0.624,0.322-1.035,0.329c-0.406,0.014-0.853,0.005-1.338,0.008c-0.972,0.001-2.102,0.001-3.387,0.002
		c-5.14,0.004-12.767,0.009-22.715,0.016c-19.896,0.02-49.078,0.047-86.219,0.083c-37.14,0.105-82.238,0.234-133.97,0.382
		c-51.731,0.224-110.094,0.363-173.763,0.801c-31.834,0.19-64.995,0.388-99.317,0.594c-17.161,0.121-34.611,0.244-52.332,0.369
		c-2.215,0.016-4.435,0.032-6.658,0.048l-3.338,0.023l-1.671,0.012c-0.284,0.002-0.88-0.003-1.197-0.085
		c-0.833-0.177-1.342-0.46-1.816-0.82c-0.955-0.729-1.594-1.885-1.681-3.107c-0.044-0.624-0.016-0.654-0.027-1.011l-0.006-0.838
		l-0.024-3.357c-0.016-2.239-0.032-4.483-0.048-6.731c-0.064-8.992-0.129-18.05-0.194-27.169
		c-0.512-72.954-1.052-149.887-1.61-229.474c-0.238-39.793-0.48-80.249-0.725-121.203c-0.171-40.954-0.344-82.405-0.519-124.188
		c-0.082-20.892-0.164-41.866-0.247-62.902c-0.044-21.036-0.088-42.135-0.133-63.275C6.1,97.689,6.067,55.041,6.034,12.392
		c-0.106,0.416,0.212-2.062,0.958-3.223c0.625-1.173,1.561-2.145,2.657-2.874c1.114-0.706,2.416-1.183,3.749-1.262
		C14.633,4.968,14.311,5.015,14.844,5l3.979,0.002l7.958,0.005l15.915,0.011c10.609,0.007,21.215,0.014,31.816,0.021
		c21.202,0.025,42.384,0.051,63.524,0.077c42.28,0.123,84.395,0.246,126.177,0.368c41.783,0.171,83.234,0.341,124.187,0.509
		c40.954,0.246,81.41,0.49,121.203,0.729c19.896,0.132,39.628,0.262,59.172,0.391c9.772,0.07,19.497,0.14,29.174,0.209l0.907,0.006
		c0.989,0.069,0.649-0.057,2.237,0.412c1.652,0.668,2.838,2.032,3.325,3.695c0.261,0.837,0.227,1.842,0.225,1.911l-0.007,0.906
		l-0.013,1.81c-0.018,2.413-0.035,4.823-0.053,7.229c-0.034,4.813-0.068,9.614-0.103,14.401
		c-0.275,38.301-0.545,75.773-0.807,112.25c-0.483,72.954-0.939,141.928-1.361,205.597c-0.438,63.669-0.589,122.032-0.811,173.763
		c-0.149,51.731-0.279,96.83-0.387,133.97C601.038,737.554,601,780,601,780z M601,780c0,0-0.038-42.446-0.104-116.727
		c-0.107-37.14-0.237-82.238-0.387-133.97c-0.222-51.731-0.372-110.094-0.811-173.763c-0.422-63.669-0.878-132.644-1.361-205.597
		c-0.262-36.477-0.531-73.949-0.807-112.25c-0.034-4.788-0.068-9.588-0.103-14.401c-0.018-2.406-0.035-4.816-0.053-7.229
		l-0.013-1.81l-0.007-0.906c-0.004-0.531-0.025-0.144,0.051,0.117c0.152,0.508,0.466,0.869,0.99,1.09
		c1.02,0.255,0.077,0.043,0.461,0.116l-0.907,0.006c-9.677,0.069-19.401,0.139-29.174,0.209
		c-19.544,0.129-39.275,0.259-59.172,0.391c-39.793,0.239-80.249,0.483-121.203,0.729c-40.953,0.168-82.404,0.338-124.187,0.509
		c-41.783,0.122-83.897,0.245-126.177,0.368c-21.14,0.025-42.322,0.051-63.524,0.077c-10.601,0.007-21.208,0.015-31.816,0.021
		l-15.915,0.011l-7.958,0.005L14.844,17c-0.129-0.001-1.116,0.002-0.541-0.002c0.663-0.069,1.337-0.264,1.882-0.643
		c0.561-0.348,0.997-0.851,1.328-1.425c0.396-0.591,0.606-2.394,0.453-1.322c-0.033,42.243-0.066,84.486-0.1,126.564
		c-0.044,21.14-0.089,42.239-0.133,63.275c-0.083,21.037-0.165,42.011-0.247,62.902c-0.174,41.783-0.348,83.234-0.519,124.188
		c-0.245,40.954-0.487,81.41-0.725,121.203c-0.558,79.587-1.098,156.52-1.61,229.474c-0.065,9.119-0.13,18.177-0.194,27.169
		c-0.016,2.248-0.032,4.492-0.048,6.731l-0.024,3.357l-0.006,0.838c0.002,0.202-0.012,0.732,0.002,0.664
		c-0.012-0.109-0.071-0.203-0.145-0.251c-0.041-0.01-0.031-0.061-0.326-0.094c0.225,0.04,0.192,0.047,0.465,0.04l1.671,0.012
		l3.338,0.023c2.223,0.016,4.442,0.032,6.658,0.048c17.72,0.125,35.171,0.248,52.332,0.369c34.322,0.206,67.482,0.403,99.317,0.594
		c63.669,0.438,122.032,0.577,173.763,0.801c51.731,0.147,96.83,0.276,133.97,0.382c37.141,0.036,66.322,0.063,86.219,0.083
		c9.948,0.007,17.575,0.012,22.715,0.016c1.285,0.001,2.415,0.001,3.387,0.002c0.485-0.003,0.932,0.007,1.338-0.006
		c0.41-0.007,0.755-0.163,1.034-0.327c0.539-0.377,0.762-0.86,0.831-1.176C601.001,780.169,601,780,601,780z"/>
</g>
<line fill="none" x1="19.487" y1="142.932" x2="581.025" y2="143.786"/>
<line fill="none" x1="24.487" y1="435.932" x2="586.025" y2="436.786"/>
<line fill="none" x1="19.487" y1="132.675" x2="581.025" y2="133.53"/>
<line fill="#D1D3D4" stroke="#939598" stroke-width="2" stroke-miterlimit="10" x1="19.487" y1="132.675" x2="572" y2="132.675"/>
<line fill="#D1D3D4" stroke="#939598" stroke-width="2" stroke-miterlimit="10" x1="24" y1="255" x2="576.513" y2="255"/>
<line fill="#D1D3D4" stroke="#939598" stroke-width="2" stroke-miterlimit="10" x1="24" y1="378" x2="576.513" y2="378"/>
<line fill="#D1D3D4" stroke="#939598" stroke-width="2" stroke-miterlimit="10" x1="24" y1="492" x2="576.513" y2="492"/>
<line fill="#D1D3D4" stroke="#939598" stroke-width="2" stroke-miterlimit="10" x1="19.487" y1="602" x2="572" y2="602"/>
<line fill="#D1D3D4" stroke="#939598" stroke-width="2" stroke-miterlimit="10" x1="24" y1="717" x2="576.513" y2="717"/>
<rect x="99.256" y="79.931" fill="none" width="402" height="61"/>
<text transform="matrix(1 0 0 1 99.2559 131.4824)" font-family="'BookmanOldStyle'" font-size="72">C C G</text>
<rect x="416.735" y="106.745" transform="matrix(-0.919 -0.3942 0.3942 -0.919 707.1305 904.6378)" fill="#FFDF60" stroke="#FFDE17" stroke-miterlimit="10" width="59.496" height="545.886"/>
<rect x="448.463" y="191.61" transform="matrix(0.393 -0.9196 0.9196 0.393 114.1115 608.1124)" fill="none" width="138.363" height="52.035"/>
<text transform="matrix(1 0 0 1 491.0215 249.1655)" font-family="'Arial-BoldMT'" font-size="55">Z</text>
<polygon fill="none" points="527.048,269.139 488.544,359.251 410.468,325.887 448.979,235.775 "/>
<text transform="matrix(1 0 0 1 446.1836 341.1543)" font-family="'Arial-BoldMT'" font-size="55">M</text>
<polygon fill="none" points="487.859,369.4 453.793,448.93 348.14,403.688 382.205,324.157 "/>
<text transform="matrix(1 0 0 1 408.4922 429.5371)" font-family="'Arial-BoldMT'" font-size="55">B</text>
<polygon fill="none" points="434.863,479.413 400.802,558.944 300.257,515.888 334.321,436.359 "/>
<text transform="matrix(1 0 0 1 360.6113 541.7383)" font-family="'Arial-BoldMT'" font-size="55">C</text>
<rect x="528.551" y="106.642" transform="matrix(0.9133 0.4073 -0.4073 0.9133 96.5703 -217.494)" fill="#F5A2C6" width="61.091" height="22.838"/>
<g>
	<g>
		<path fill="#808285" d="M316.75,637.25c3.225,0,3.225-5,0-5S313.525,637.25,316.75,637.25L316.75,637.25z"/>
	</g>
</g>
<g>
	<g>
		<path fill="#808285" d="M321.375,637.5c3.225,0,3.225-5,0-5S318.15,637.5,321.375,637.5L321.375,637.5z"/>
	</g>
</g>
<g>
	<g>
		<path fill="#808285" d="M323.875,638.375c3.225,0,3.225-5,0-5S320.65,638.375,323.875,638.375L323.875,638.375z"/>
	</g>
</g>
<g>
	<g>
		<path fill="#808285" d="M322.125,640.625c3.225,0,3.225-5,0-5S318.9,640.625,322.125,640.625L322.125,640.625z"/>
	</g>
</g>
<g>
	<g>
		<path fill="#808285" d="M320.5,642.375c3.225,0,3.225-5,0-5S317.275,642.375,320.5,642.375L320.5,642.375z"/>
	</g>
</g>
<g>
	<g>
		<path fill="#808285" d="M319.625,642.125c3.225,0,3.225-5,0-5S316.4,642.125,319.625,642.125L319.625,642.125z"/>
	</g>
</g>
<g>
	<g>
		<path fill="#808285" d="M318.625,640.75c3.225,0,3.225-5,0-5S315.4,640.75,318.625,640.75L318.625,640.75z"/>
	</g>
</g>
<g>
	<g>
		<path fill="#808285" d="M318.375,638.375c3.225,0,3.225-5,0-5S315.15,638.375,318.375,638.375L318.375,638.375z"/>
	</g>
</g>
<g>
	<g>
		<path fill="#808285" d="M318.125,636.375c3.225,0,3.225-5,0-5S314.9,636.375,318.125,636.375L318.125,636.375z"/>
	</g>
</g>
<g>
	<g>
		<path fill="#808285" d="M317.875,635.125c3.225,0,3.225-5,0-5S314.65,635.125,317.875,635.125L317.875,635.125z"/>
	</g>
</g>
<g>
	<g>
		<path fill="#808285" d="M317.625,634.75c3.225,0,3.225-5,0-5S314.4,634.75,317.625,634.75L317.625,634.75z"/>
	</g>
</g>
<g>
	<g>
		<path fill="#808285" d="M317.25,633.875c3.225,0,3.225-5,0-5S314.025,633.875,317.25,633.875L317.25,633.875z"/>
	</g>
</g>
<g>
	<g>
		<path fill="#808285" d="M316.75,632.75c3.225,0,3.225-5,0-5S313.525,632.75,316.75,632.75L316.75,632.75z"/>
	</g>
</g>
<g>
	<g>
		<path fill="#808285" d="M316.375,631.625c3.225,0,3.225-5,0-5S313.15,631.625,316.375,631.625L316.375,631.625z"/>
	</g>
</g>
<g>
	<g>
		<path fill="#808285" d="M316,630.875c3.225,0,3.225-5,0-5S312.775,630.875,316,630.875L316,630.875z"/>
	</g>
</g>
<g>
	<g>
		<path fill="#808285" d="M315.375,629.875c3.225,0,3.225-5,0-5S312.15,629.875,315.375,629.875L315.375,629.875z"/>
	</g>
</g>
<g>
	<g>
		<path fill="#808285" d="M314.625,628.5c3.225,0,3.225-5,0-5S311.4,628.5,314.625,628.5L314.625,628.5z"/>
	</g>
</g>
<g>
	<g>
		<path fill="#808285" d="M314.25,627.75c3.225,0,3.225-5,0-5S311.025,627.75,314.25,627.75L314.25,627.75z"/>
	</g>
</g>
<path fill="none" stroke="#808285" stroke-miterlimit="10" d="M312.75,621.625c0.938,0.34,1.627,1.146,2.479,1.649
	c-1.062-0.364-1.517-1.312-1.354-2.399"/>
<path fill="none" stroke="#808285" stroke-miterlimit="10" d="M315,621.75c0.74,0.823,3.129,1.495,4.152,1.976
	c1.623,0.762,3.152,1.524,4.754,2.372c3.513,1.857,7.292,2.866,10.594,4.777"/>
<path fill="none" stroke="#808285" stroke-miterlimit="10" d="M337.75,637.25c-1.334,0.02-2.909,1.689-3.862,2.498
	c-1.179,0.998-2.674,2.657-4.013,3.252"/>
<path fill="none" stroke="#808285" stroke-miterlimit="10" d="M329,631.75c-0.614,0.841-1.008,1.554-1.875,2.25"/>
<path fill="none" stroke="#808285" stroke-miterlimit="10" d="M327.5,632.5c-0.042,0.251-0.083,0.499-0.125,0.75"/>
<path fill="none" stroke="#808285" stroke-miterlimit="10" d="M329.75,642c0,0.208,0,0.417,0,0.625"/>
<g>
	<g>
		<path fill="#808285" d="M328.625,642.875c0.5,0,1,0,1.5,0c-0.804-1.055-1.607-2.109-2.411-3.165
			c-0.065,0.296,0.307-0.531,0.36-0.595c-0.092,0.109-0.649,0.555-0.138,0.168c-0.394,0.298-0.823,0.548-1.249,0.794
			c-0.796,0.459-1.627,0.855-2.449,1.265c0.841,1.438,1.683,2.878,2.523,4.316c0.063-0.036,0.125-0.072,0.188-0.109
			c-0.421,0.114-0.841,0.229-1.262,0.342c0.063-0.005,0.125-0.011,0.188-0.016c1.357-0.113,2.5-1.052,2.5-2.5
			c0-1.277-1.14-2.613-2.5-2.5c-0.615,0.051-1.099,0.152-1.637,0.467c-1.175,0.686-1.585,2.245-0.896,3.42
			c0.723,1.234,2.199,1.503,3.42,0.896c1.973-0.979,5.233-2.209,5.774-4.618c0.353-1.575-0.727-3.165-2.411-3.165c-0.5,0-1,0-1.5,0
			C325.4,637.875,325.4,642.875,328.625,642.875L328.625,642.875z"/>
	</g>
</g>
<path fill="none" stroke="#808285" stroke-miterlimit="10" d="M312.75,620.917c0.518-0.038,0.939,0.359,1.308,0.655
	c-0.109,0.017-0.122-0.042-0.225-0.072"/>
<path fill="none" stroke="#808285" stroke-miterlimit="10" d="M314.333,621c-0.539-0.56-1.566-1.055-2.25-1.333"/>
<path fill="none" stroke="#808285" stroke-miterlimit="10" d="M312.083,621.667c0.131-0.368,0.137-0.99,0.25-1.417"/>
<path fill="none" stroke="#808285" stroke-miterlimit="10" d="M312.25,619.333c0,0.223,0,0.444,0,0.667"/>
<path fill="none" stroke="#808285" stroke-miterlimit="10" d="M314.833,620.75c0.747,0.062,1.279,0.75,1.917,1.086
	c0.794,0.418,1.502,0.718,2.271,1.144c1.479,0.819,3.067,0.917,4.478,1.725c1.453,0.832,3.179,1.481,4.754,2.11
	c1.386,0.554,2.953,0.895,4.248,1.66c0.482,0.286,1.106,0.635,1.5,1.025"/>
<path fill="none" stroke="#808285" stroke-miterlimit="10" d="M339.417,631.667c0.644,0.483,1.255,0.523,2.018,0.75
	c1.108,0.329,0.732,0.674,0.398,1.5"/>
<path fill="none" stroke="#808285" stroke-miterlimit="10" d="M339,631.083c0.43,0.162,0.816,0.54,1.083,0.917"/>
<path fill="none" stroke="#808285" stroke-miterlimit="10" d="M340,633.333c0.864,0.002,1.697-0.291,1.333,0.834"/>
<path fill="none" stroke="#808285" stroke-miterlimit="10" d="M341.083,635c0.555-0.868,1.66-0.972,2.25-1.75"/>
<path fill="none" stroke="#808285" stroke-miterlimit="10" d="M342.5,632.833c0.237,0.116,0.489,0.173,0.75,0.167"/>
<rect x="44" y="198" fill="none" width="399" height="72"/>
<text transform="matrix(1 0 0 1 44 253.1309)" font-family="'BookmanOldStyle'" font-size="77">Summary</text>
<line fill="#F5A2C6" stroke="#58595B" stroke-miterlimit="10" x1="318.375" y1="674.918" x2="365.924" y2="642.687"/>
<line fill="#F5A2C6" stroke="#58595B" stroke-miterlimit="10" x1="317.25" y1="674.918" x2="311.714" y2="619.133"/>
<g>
	<g>
		<path fill="#939598" d="M326.167,635.001c0.27,4.863,2.342,9.369,2.574,14.21c0.111,2.318-0.608,4.046-1.318,6.125
			c-0.241,0.71-1.189,3.381-0.421,3.088c-2.982,1.135-1.689,5.97,1.33,4.822c1.335-0.508,2.189-1.167,2.744-2.53
			c0.721-1.772,2.04-4.544,2.304-6.358c1.007-6.917-1.839-12.605-2.213-19.356C330.989,631.795,325.988,631.777,326.167,635.001
			L326.167,635.001z"/>
	</g>
</g>
<g>
	<g>
		<path fill="#939598" d="M327.5,663.501c6.612-0.546,10.973-5.792,16.646-8.722c4.229-2.185,10.854-3.518,13.346-8.017
			c1.089-1.966-0.684-4.165-2.823-3.673c-2.55,0.588-4.245,2.534-6.381,3.92c-3.348,2.171-6.095,4.889-9.716,6.666
			c-7.051,3.461-14.264,8.176-19.673,13.892c1.393,0.367,2.785,0.735,4.179,1.103c-0.722-2.609-0.369-6.037-0.474-8.752
			c-0.123-3.187-0.351-6.3-0.827-9.455c-1.072-7.09-2.883-14.145-3.696-21.259c0.175,1.523,7.551,3.708,9.116,4.456
			c3.386,1.618,6.68,3.421,9.983,5.199c3.169,1.705,6.665,2.793,9.897,4.368c2.317,1.13,5.144,0.863,7.327,1.933
			c-0.169-1.31-0.337-2.618-0.506-3.927c-2.035,2.341-7.927,3.83-10.73,4.69c-4.103,1.261-7.337,3.834-11.097,5.752
			c1.254,0.72,2.508,1.439,3.762,2.159c-0.478-6.571,8.422-6.544,12.498-7.423c2.326-0.502,2.461-4.427,0-4.822
			c-2.759-0.441-5.624-0.313-8.113-1.71c-2.807-1.577-5.698-2.944-8.29-4.87c-0.841,1.438-1.683,2.878-2.523,4.316
			c1.45,0.796,2.538,6.624,3.018,8.174c0.469,1.51,2.257,2.361,3.673,1.494c1.665-1.021,3.219-2.18,3.649-4.161
			c0.176-0.813,0.056-1.866-0.644-2.433c-0.939-0.762-1.656-1.177-2.77-1.644c-2.974-1.245-4.258,3.596-1.33,4.822
			c0.188,0.118,0.376,0.237,0.564,0.356c-0.215-0.811-0.429-1.621-0.644-2.433c-0.241,0.583-0.691,0.974-1.351,1.173
			c1.224,0.498,2.448,0.996,3.673,1.494c-1.068-3.445-1.858-9.266-5.316-11.16c-2.895-1.587-5.055,2.436-2.523,4.316
			c2.584,1.921,5.469,3.333,8.29,4.871c3.241,1.768,5.726,1.64,9.307,2.215c0-1.607,0-3.215,0-4.822
			c-3.954,0.854-7.886,0.292-11.169,3.202c-2.568,2.276-5.265,5.39-4.999,9.043c0.141,1.934,2.004,3.056,3.762,2.159
			c4.367-2.229,8.183-4.504,12.833-6.246c3.166-1.186,7.732-2.363,10.006-4.979c0.984-1.133,1.031-3.174-0.506-3.927
			c-2.812-1.376-5.929-1.25-8.833-2.666c-4.428-2.158-8.954-3.962-13.32-6.277c-4.078-2.162-8.259-4.177-12.532-5.927
			c-2.343-0.96-4.949-2.444-7.421-0.996c-4.62,2.707,0.449,15.761,0.934,19.357c0.703,5.216,1.751,10.302,1.849,15.585
			c0.06,3.217-0.207,6.973,0.651,10.082c0.491,1.775,2.874,2.481,4.179,1.103c4.847-5.122,11.119-8.931,17.229-12.406
			c2.881-1.638,5.605-2.984,8.17-5.125c1.928-1.609,5.66-5.083,8.166-5.659c-0.941-1.225-1.883-2.449-2.823-3.673
			c-1.774,3.203-8.464,4.59-11.554,6.223c-2.263,1.195-4.413,2.313-6.466,3.855c-2.49,1.87-4.362,3.912-7.656,4.184
			C324.311,658.764,324.284,663.767,327.5,663.501L327.5,663.501z"/>
	</g>
</g>
<g>
	<g>
		<path fill="#939598" d="M317.899,632.269c3.211,3.729,7.79,3.95,8.037,9.804c0.221,5.23,0.438,11.243-1.014,16.264
			c-0.896,3.105,3.929,4.421,4.822,1.33c1.723-5.96,1.395-12.775,1.134-18.939c-0.088-2.102-0.563-4.925-2.111-6.493
			c-2.189-2.22-5.312-3.153-7.333-5.5C319.327,626.286,315.807,629.839,317.899,632.269L317.899,632.269z"/>
	</g>
</g>
<g>
	<g>
		<path fill="#939598" d="M326.992,661.573c-1.429-2.761-0.492-7.492-0.43-10.488c0.053-2.523-0.144-5.047-0.194-7.57
			c-0.079-3.945-0.46-8.107-3.939-10.505c-2.662-1.836-5.159,2.5-2.523,4.316c2.514,1.733,1.563,9.142,1.665,11.884
			c0.185,4.92-1.248,10.343,1.105,14.887C324.158,666.961,328.473,664.432,326.992,661.573L326.992,661.573z"/>
	</g>
</g>
<g>
	<g>
		<path fill="#939598" d="M317.834,634.835c-0.027,5.577,1.484,10.415,2.589,15.831c0.645,3.158,5.464,1.817,4.822-1.33
			c-1.011-4.951-2.437-9.404-2.411-14.501C322.85,631.61,317.85,631.611,317.834,634.835L317.834,634.835z"/>
	</g>
</g>
<path fill="none" stroke="#939598" stroke-miterlimit="10" d="M314.667,640.335c-0.037,1.674,0.731,3.303,0.929,4.941
	c0.656,5.435,0.813,11.085,2.238,16.392"/>
<path fill="none" stroke="#939598" stroke-miterlimit="10" d="M314.5,638.501c0,0.333,0,0.667,0,1"/>
<path fill="none" stroke="#939598" stroke-miterlimit="10" d="M313.5,636.501c-0.133,0.859,0.387,1.32,0.53,2.076
	c0.124,0.655,0.02,1.156,0.113,1.806c0.953,6.6,1.805,13.73,3.69,20.118"/>
<path fill="none" stroke="#939598" stroke-miterlimit="10" d="M316.334,649.001c1.065,1.634,1.501,4.897,1.5,7"/>
<path fill="none" stroke="#939598" stroke-miterlimit="10" d="M318.5,651.335c-0.003,2.028-1.224,4.212-1.666,6.166"/>
<path fill="none" stroke="#939598" stroke-miterlimit="10" d="M318.5,649.835c-1.061,0.66-1.611,2.385-2.5,3.333"/>
<path fill="none" stroke="#939598" stroke-miterlimit="10" d="M319,652.335c-0.615,0.795-1.905,2.658-3,2.666"/>
<path fill="none" stroke="#939598" stroke-miterlimit="10" d="M317.834,652.001c-0.4,0.604-0.736,1.313-1.167,1.834"/>
<path fill="none" stroke="#939598" stroke-miterlimit="10" d="M314.667,637.668c0.951,0.731,0.094,2.333,1.667,2.333"/>
<path fill="none" stroke="#939598" stroke-miterlimit="10" d="M314.5,640.001c0.296,0.172,0.86,0.242,1.334,0.167"/>
<path fill="none" stroke="#939598" stroke-miterlimit="10" d="M316.167,658.001c0.658,2.199,0.81,4.716,1.171,7
	c0.337,2.128,1.112,4.791,0.996,7"/>
<path fill="none" stroke="#939598" stroke-miterlimit="10" d="M315.834,653.835c-0.001,1.524,0.411,3.208,0.833,4.666"/>
<path fill="none" stroke="#939598" stroke-miterlimit="10" d="M317.834,660.001c0.38,3.063-0.782,6.003-0.339,9.159
	c0.169,1.194,0.69,2.86,0.505,4.008"/>
<path fill="none" stroke="#939598" stroke-miterlimit="10" d="M319,671.001c-0.439,0.898-1.086,1.764-1,2.834"/>
<path fill="none" stroke="#939598" stroke-miterlimit="10" d="M319,673.668c0.112-1.379,0.983-2.346,1.5-3.5"/>
<path fill="none" stroke="#939598" stroke-miterlimit="10" d="M323.667,670.168c-0.871,1.068-2.23,1.973-3.5,2.5"/>
<path fill="none" stroke="#939598" stroke-miterlimit="10" d="M320.667,672.001c-0.697,0.412-1.393,0.936-2.167,1.167"/>
<path fill="none" stroke="#939598" stroke-miterlimit="10" d="M318,674.335c0.413-1.12,1.06-2.945,1-4.167"/>
<path fill="none" stroke="#939598" stroke-miterlimit="10" d="M317.167,665.835c0-0.056,0-0.111,0-0.167"/>
<path fill="none" stroke="#939598" stroke-miterlimit="10" d="M324.334,669.835c1.521-2.335,4.784-3.97,7.17-5.204
	c2.506-1.296,4.627-3.174,7.163-4.463"/>
<path fill="none" stroke="#939598" stroke-miterlimit="10" d="M322.5,671.001c1.371-1.015,2.251-2.972,3.667-3.666"/>
<path fill="none" stroke="#939598" stroke-miterlimit="10" d="M329.334,665.835c2.169-2.151,4.329-4.163,6.666-6"/>
<path fill="none" stroke="#939598" stroke-miterlimit="10" d="M334.167,663.501c0.371-2.495,3.34-4.899,4.833-7"/>
<path fill="none" stroke="#939598" stroke-miterlimit="10" d="M332.834,663.001c1.946-0.157,3.708-2.162,5.333-3.166"/>
<path fill="none" stroke="#939598" stroke-miterlimit="10" d="M324.167,670.168c2.464-1.989,5.372-3.498,7.667-5.5"/>
<path fill="none" stroke="#939598" stroke-miterlimit="10" d="M339.167,659.501c3.726-2.791,8.49-4.632,11.667-8"/>
<path fill="none" stroke="#939598" stroke-miterlimit="10" d="M339.5,658.168c-0.48,0.466-0.858,1.019-1,1.667"/>
<path fill="none" stroke="#939598" stroke-miterlimit="10" d="M337.667,660.668c1.036-0.079,1.661-0.521,2.333-1.333"/>
<path fill="none" stroke="#939598" stroke-miterlimit="10" d="M312.667,621.001c-0.175,1.121,0.336,2.393,0.5,3.5"/>
<path fill="none" stroke="#939598" stroke-miterlimit="10" d="M313.667,621.501c0,0.5,0,1,0,1.5"/>
<path fill="none" stroke="#939598" stroke-miterlimit="10" d="M325.834,627.668c-0.992-1.35-4.314-2.077-5.861-2.97
	c-1.488-0.858-3.447-1.172-4.639-2.363"/>
<path fill="none" stroke="#939598" stroke-miterlimit="10" d="M318.667,625.001c-0.29-0.473-0.863-0.94-1.167-1"/>
<path fill="none" stroke="#939598" stroke-miterlimit="10" d="M314.834,625.001c1.235-0.635,2.181-1.684,3.666-1.5"/>
<path fill="none" stroke="#939598" stroke-miterlimit="10" d="M325,626.501c3.031-0.704,5.103,0.881,7.464,2.199
	c1.496,0.836,2.621,1.978,3.876,3.135c1.489,1.374,3.721,2.402,4.994,3.833"/>
<path fill="none" stroke="#939598" stroke-miterlimit="10" d="M329.5,628.668c1.602,0.733,2.758,2.218,4.196,3.246
	c1.743,1.246,3.735,2.227,5.804,2.754"/>
<path fill="none" stroke="#939598" stroke-miterlimit="10" d="M331.167,631.168c3.578-0.629,7.114-0.236,10.054,1.926
	c2.162,1.59,3.727,3.624,5.946,5.074"/>
<path fill="none" stroke="#939598" stroke-miterlimit="10" d="M335,632.668c2.138-0.002,4.486,0.064,6.483,0.911
	c2.249,0.954,2.113,2.588,3.517,4.256"/>
<path fill="none" stroke="#939598" stroke-miterlimit="10" d="M338.667,634.501c1.873-0.2,3.467,1.095,5.167,1.667"/>
<path fill="none" stroke="#939598" stroke-miterlimit="10" d="M334.834,632.168c0.925-1.161,5.068-0.142,6.166,0.833"/>
<path fill="none" stroke="#939598" stroke-miterlimit="10" d="M334.5,631.335c0.704,0.635,1.034,1.56,1.5,2.333"/>
<path fill="none" stroke="#939598" stroke-miterlimit="10" d="M335.167,629.835c1.206-0.721,4,1.866,4.833,3"/>
<path fill="none" stroke="#939598" stroke-miterlimit="10" d="M334,629.335c0.694,0.691,1.886,1.235,2.667,2"/>
<path fill="none" stroke="#939598" stroke-miterlimit="10" d="M338.834,634.001c1.295-0.134,3.549,0.397,3.833,1.834"/>
<path fill="none" stroke="#939598" stroke-miterlimit="10" d="M342.5,633.668c1.585,0.014,3.378,2.438,5.042,2.963
	c2.024,0.638,3.536,1.309,5.467,2.208c1.523,0.709,8.759,2.106,8.129,4.467c-1.561,0.78-2.579,2.001-3.971,3.029"/>
<path fill="none" stroke="#939598" stroke-miterlimit="10" d="M343.667,635.835c2.036-0.214,3.721,1.742,5.296,2.716
	c1.726,1.065,4.85,1.081,6.037,2.784"/>
<g>
	<g>
		<path fill="#939598" d="M329.899,635.603c3.6,3.774,8.087,4.228,13.066,4.4c3.466,0.12,5.119,1.874,8.109,2.954
			c2.869,1.035,5.753,2.008,8.594,3.122c0-1.607,0-3.215,0-4.822c-2.644,1.061-4.854,2.766-7.418,3.972
			c-2.314,1.09-4.265,2.129-5.162,4.607c-0.972,2.688,3.249,4.399,4.569,1.927c0.083-0.154,0.165-0.309,0.248-0.463
			c0.703-1.316,0.161-3.372-1.494-3.672c-0.82-0.148-1.409-0.216-2.245-0.127c-2.11,0.225-1.831,1.98-1.667,0.334
			c0.363-3.65,0.202-7.043,0.167-10.667c-0.031-3.223-5.031-3.226-5,0c0.024,2.476,0.337,4.816,0.146,7.313
			c-0.141,1.835-0.786,4.112-0.343,5.949c0.28,1.16,0.756,2.061,1.828,2.688c2.171,1.271,3.797-1.029,5.784-0.669
			c-0.498-1.225-0.996-2.448-1.494-3.673c-0.082,0.154-0.164,0.309-0.246,0.463c1.522,0.642,3.046,1.284,4.569,1.927
			c0.321-0.891,2.876-1.626,3.685-2.006c1.892-0.892,3.442-2.296,5.403-3.081c2.354-0.944,2.384-3.888,0-4.822
			c-2.425-0.95-4.868-1.832-7.334-2.667c-2.09-0.706-3.771-2.527-5.934-3.017c-4.872-1.101-10.509,0.465-14.297-3.506
			C331.205,629.73,327.675,633.271,329.899,635.603L329.899,635.603z"/>
	</g>
</g>
</svg>
